<svg width="334" height="108" viewBox="0 0 334 108" fill="none" xmlns="http://www.w3.org/2000/svg">
    <g filter="url(#filter0_d_5414_3325)">
        <g clip-path="url(#clip0_5414_3325)">
            <rect x="16" y="8" width="302" height="76" rx="12" fill="white"/>
            <path d="M307.434 8H26.5656C20.7304 8 16 12.5368 16 18.1333V73.8667C16 79.4632 20.7304 84 26.5656 84H307.434C313.27 84 318 79.4632 318 73.8667V18.1333C318 12.5368 313.27 8 307.434 8Z" fill="white"/>
            <path d="M30.3447 26.3811V25.3466H36.7943V26.3811H34.2011V33.3333H32.9491V26.3811H30.3447ZM39.4267 33.4566C38.8156 33.4566 38.2865 33.3298 37.8394 33.076C37.3923 32.8224 37.0476 32.465 36.8055 32.004C36.567 31.5395 36.4478 30.998 36.4478 30.3798C36.4478 29.7652 36.5651 29.2238 36.7999 28.7557C37.0384 28.2875 37.3718 27.9231 37.8003 27.6622C38.2326 27.3977 38.7393 27.2656 39.3205 27.2656C39.6744 27.2656 40.0173 27.3209 40.3489 27.4317C40.6804 27.5425 40.9786 27.7176 41.2431 27.957C41.5076 28.1964 41.7163 28.5073 41.8691 28.8897C42.0255 29.2721 42.1038 29.733 42.1038 30.2726V30.6907H37.1352V29.817H41.4778L40.9133 30.1065C40.9133 29.7384 40.8537 29.4132 40.7345 29.1309C40.6153 28.8486 40.4364 28.6288 40.1979 28.4716C39.9632 28.3107 39.6707 28.2304 39.3205 28.2304C38.9702 28.2304 38.6703 28.3107 38.4207 28.4716C38.1748 28.6324 37.9866 28.845 37.8562 29.1094C37.7258 29.3739 37.6606 29.6634 37.6606 29.9778V30.5728C37.6606 30.9838 37.7351 31.3322 37.8842 31.6181C38.0332 31.9039 38.24 32.1219 38.5045 32.272C38.7728 32.4221 39.0839 32.4972 39.4378 32.4972C39.6689 32.4972 39.8775 32.465 40.0638 32.4006C40.2538 32.3363 40.4178 32.2399 40.5557 32.1112C40.6935 31.9826 40.7978 31.8236 40.8686 31.6341L42.0199 31.8432C41.9268 32.1648 41.7629 32.4471 41.5281 32.6901C41.2934 32.9331 40.9971 33.1225 40.6395 33.2583C40.2855 33.3905 39.8812 33.4566 39.4267 33.4566ZM42.9533 33.3333V27.3406H44.1605V29.8546H44.7473L46.8096 27.3406H48.3075L45.8986 30.2619L48.3409 33.3333H46.832L44.9485 30.9373H44.1605V33.3333H42.9533ZM49.5929 35.5739C49.4104 35.5775 49.2445 35.5649 49.0955 35.5364C48.9501 35.5114 48.8384 35.481 48.7601 35.4453L49.0563 34.4965L49.1402 34.5179C49.4494 34.593 49.7102 34.5877 49.9226 34.5019C50.1388 34.4197 50.3194 34.1892 50.4648 33.8104L50.6156 33.4137L48.3354 27.3406H49.6376L51.2136 31.9933H51.2807L52.8624 27.3406H54.1646L51.5937 34.1267C51.4745 34.4411 51.3236 34.7056 51.141 34.92C50.9585 35.1379 50.7386 35.3006 50.4815 35.4077C50.2281 35.5185 49.9319 35.5739 49.5929 35.5739ZM63.7775 32.3256L63.6657 35.0486H62.4697V33.3333H61.6984V32.3256H63.7775ZM54.8353 27.3406H56.0146V32.3256H58.1774V27.3406H59.3679V32.3256H61.5252V27.3406H62.7212V33.3333H54.8353V27.3406ZM65.7057 31.6931L68.461 27.3406H69.7688V33.3333H68.584V28.9755L65.8399 33.3333H64.5265V27.3406H65.7057V31.6931ZM72.1105 31.6931L74.8659 27.3406H76.1737V33.3333H74.9889V28.9755L72.2447 33.3333H70.9313V27.3406H72.1105V31.6931ZM73.5413 26.6437C73.0085 26.6437 72.5763 26.5044 72.2447 26.2256C71.913 25.9433 71.7473 25.577 71.7473 25.1268H72.7477C72.7477 25.3555 72.8204 25.5413 72.9656 25.6843C73.111 25.8236 73.3029 25.8934 73.5413 25.8934C73.7798 25.8934 73.9717 25.8236 74.1169 25.6843C74.2623 25.5413 74.3349 25.3555 74.3349 25.1268H75.3353C75.3353 25.577 75.1695 25.9433 74.838 26.2256C74.5064 26.5044 74.0742 26.6437 73.5413 26.6437ZM84.6912 25.116L85.1942 25.8505C85.0116 26.0148 84.8011 26.131 84.5626 26.1989C84.3242 26.2668 84.0503 26.3097 83.7411 26.3275C83.4318 26.3454 83.0778 26.3614 82.6791 26.3757C82.2283 26.3864 81.8576 26.4794 81.567 26.6545C81.2801 26.826 81.0584 27.0797 80.9019 27.4156C80.7454 27.7516 80.6448 28.175 80.6001 28.686H80.6784C80.8758 28.3144 81.1553 28.0374 81.5167 27.8552C81.8818 27.6693 82.2916 27.5764 82.7462 27.5764C83.2492 27.5764 83.6963 27.6872 84.0876 27.9088C84.4788 28.1267 84.788 28.4484 85.0154 28.8737C85.2426 29.2988 85.3544 29.817 85.3506 30.4281C85.3544 31.0499 85.2389 31.5877 85.0042 32.0415C84.7694 32.4953 84.4359 32.8437 84.0037 33.0868C83.5753 33.3298 83.0704 33.4531 82.4891 33.4566C81.6136 33.4531 80.9131 33.1671 80.3877 32.599C79.8623 32.0272 79.5978 31.1911 79.5941 30.0904V29.5061C79.5978 28.1339 79.8549 27.1029 80.3654 26.4133C80.8758 25.7235 81.6378 25.368 82.6512 25.3466C82.9791 25.3394 83.2716 25.3376 83.5287 25.3412C83.7858 25.3448 84.0112 25.3341 84.205 25.3091C84.3987 25.2805 84.5608 25.2161 84.6912 25.116ZM82.4891 32.481C82.8319 32.4775 83.1244 32.3935 83.3666 32.2291C83.6088 32.0647 83.797 31.8306 83.9311 31.5269C84.0652 31.2232 84.1304 30.864 84.1267 30.4496C84.1304 30.0457 84.0652 29.7026 83.9311 29.4203C83.797 29.1345 83.607 28.9165 83.361 28.7664C83.1151 28.6164 82.8189 28.5413 82.4724 28.5413C82.219 28.5413 81.9917 28.5842 81.7906 28.6699C81.5894 28.7557 81.4179 28.8807 81.2764 29.0452C81.1348 29.2059 81.0248 29.4043 80.9466 29.6402C80.8721 29.876 80.8311 30.1458 80.8236 30.4496C80.8236 31.0641 80.9709 31.5555 81.2652 31.9236C81.5632 32.2916 81.9712 32.4775 82.4891 32.481ZM88.0445 33.4619C87.6495 33.4619 87.2919 33.3923 86.9714 33.2529C86.651 33.11 86.3977 32.9028 86.2114 32.6312C86.0251 32.3595 85.9319 32.029 85.9319 31.6395C85.9319 31.3 85.999 31.0231 86.1331 30.8087C86.271 30.5907 86.4554 30.4174 86.6864 30.2887C86.9174 30.1601 87.1745 30.0636 87.4577 29.9993C87.7408 29.935 88.0315 29.8849 88.3295 29.8492C88.7058 29.8099 89.0095 29.7759 89.2405 29.7473C89.4716 29.7188 89.6392 29.6741 89.7435 29.6133C89.8516 29.549 89.9056 29.4471 89.9056 29.3078V29.281C89.9056 28.9415 89.805 28.6788 89.6038 28.4931C89.4063 28.3072 89.112 28.2143 88.7208 28.2143C88.3146 28.2143 87.9924 28.3001 87.7539 28.4716C87.5191 28.6396 87.357 28.8308 87.2677 29.0452L86.1219 28.7932C86.2598 28.4287 86.4591 28.1357 86.7199 27.9141C86.9845 27.689 87.2863 27.5247 87.6253 27.421C87.9681 27.3173 88.3258 27.2656 88.6984 27.2656C88.9481 27.2656 89.2126 27.2941 89.492 27.3513C89.7715 27.4049 90.0342 27.5068 90.2801 27.6568C90.5297 27.8033 90.7328 28.0142 90.8893 28.2894C91.0458 28.5645 91.124 28.9201 91.124 29.356V33.3333H89.9336V32.5132H89.8888C89.8143 32.6597 89.697 32.8062 89.5367 32.9527C89.3803 33.0993 89.1791 33.2208 88.9332 33.3173C88.6873 33.4137 88.3911 33.4619 88.0445 33.4619ZM88.3072 32.5293C88.6462 32.5293 88.935 32.4668 89.1735 32.3417C89.412 32.213 89.5945 32.045 89.7212 31.8378C89.8479 31.6306 89.9112 31.4108 89.9112 31.1785V30.4013C89.8665 30.4406 89.7826 30.4781 89.6597 30.5138C89.5367 30.5496 89.397 30.5799 89.2405 30.6049C89.0841 30.63 88.9313 30.6532 88.7823 30.6747C88.6332 30.6925 88.5084 30.7068 88.4078 30.7175C88.1731 30.7497 87.9588 30.7997 87.7651 30.8676C87.5714 30.9319 87.4148 31.0284 87.2956 31.1571C87.1801 31.2822 87.1223 31.4483 87.1223 31.6556C87.1223 31.9451 87.2341 32.163 87.4577 32.3095C87.6812 32.456 87.9644 32.5293 88.3072 32.5293ZM91.7947 33.3333L91.7891 32.3256H92.0071C92.2418 32.322 92.4262 32.2559 92.5603 32.1273C92.6982 31.9951 92.8007 31.761 92.8677 31.4251C92.9385 31.0891 92.9851 30.6139 93.0074 29.9993L93.1193 27.3406H97.473V33.3333H96.2825V28.3483H94.237L94.1364 30.3905C94.1141 30.8837 94.0637 31.3143 93.9855 31.6824C93.9073 32.0505 93.7918 32.3577 93.639 32.6043C93.4862 32.8474 93.2906 33.0296 93.0522 33.1511C92.8137 33.2726 92.5231 33.3333 92.1803 33.3333H91.7947ZM100.441 33.4619C100.046 33.4619 99.6881 33.3923 99.3676 33.2529C99.0472 33.11 98.7939 32.9028 98.6076 32.6312C98.4213 32.3595 98.3281 32.029 98.3281 31.6395C98.3281 31.3 98.3952 31.0231 98.5293 30.8087C98.6672 30.5907 98.8515 30.4174 99.0826 30.2887C99.3136 30.1601 99.5707 30.0636 99.8539 29.9993C100.137 29.935 100.428 29.8849 100.726 29.8492C101.102 29.8099 101.406 29.7759 101.637 29.7473C101.868 29.7188 102.035 29.6741 102.14 29.6133C102.248 29.549 102.302 29.4471 102.302 29.3078V29.281C102.302 28.9415 102.201 28.6788 102 28.4931C101.803 28.3072 101.508 28.2143 101.117 28.2143C100.711 28.2143 100.389 28.3001 100.15 28.4716C99.9153 28.6396 99.7532 28.8308 99.6639 29.0452L98.5181 28.7932C98.656 28.4287 98.8553 28.1357 99.1161 27.9141C99.3807 27.689 99.6824 27.5247 100.021 27.421C100.364 27.3173 100.722 27.2656 101.095 27.2656C101.344 27.2656 101.609 27.2941 101.888 27.3513C102.168 27.4049 102.43 27.5068 102.676 27.6568C102.926 27.8033 103.129 28.0142 103.285 28.2894C103.442 28.5645 103.52 28.9201 103.52 29.356V33.3333H102.33V32.5132H102.285C102.211 32.6597 102.093 32.8062 101.933 32.9527C101.776 33.0993 101.575 33.2208 101.329 33.3173C101.083 33.4137 100.787 33.4619 100.441 33.4619ZM100.703 32.5293C101.042 32.5293 101.331 32.4668 101.57 32.3417C101.808 32.213 101.991 32.045 102.117 31.8378C102.244 31.6306 102.307 31.4108 102.307 31.1785V30.4013C102.263 30.4406 102.179 30.4781 102.056 30.5138C101.933 30.5496 101.793 30.5799 101.637 30.6049C101.48 30.63 101.327 30.6532 101.178 30.6747C101.029 30.6925 100.905 30.7068 100.804 30.7175C100.569 30.7497 100.355 30.7997 100.161 30.8676C99.9675 30.9319 99.811 31.0284 99.6918 31.1571C99.5763 31.2822 99.5185 31.4483 99.5185 31.6556C99.5185 31.9451 99.6303 32.163 99.8539 32.3095C100.077 32.456 100.361 32.5293 100.703 32.5293ZM108.913 29.8331V30.8408H105.532V29.8331H108.913ZM105.868 27.3406V33.3333H104.689V27.3406H105.868ZM109.763 27.3406V33.3333H108.578V27.3406H109.763ZM113.547 33.4566C112.947 33.4566 112.429 33.3244 111.993 33.06C111.557 32.7955 111.222 32.431 110.987 31.9664C110.752 31.5019 110.634 30.9695 110.634 30.3691C110.634 29.758 110.754 29.2202 110.993 28.7557C111.235 28.2875 111.572 27.9231 112.004 27.6622C112.44 27.3977 112.95 27.2656 113.536 27.2656C114.013 27.2656 114.435 27.3495 114.804 27.5175C115.177 27.6819 115.477 27.9159 115.704 28.2196C115.935 28.5234 116.071 28.8772 116.112 29.281H114.927C114.886 29.0916 114.806 28.9182 114.686 28.761C114.571 28.6039 114.419 28.4787 114.229 28.3858C114.038 28.2929 113.813 28.2465 113.552 28.2465C113.213 28.2465 112.917 28.3322 112.664 28.5038C112.414 28.6717 112.218 28.9129 112.077 29.2274C111.935 29.5419 111.864 29.9135 111.864 30.3423C111.864 30.7748 111.933 31.1517 112.071 31.4734C112.209 31.7949 112.405 32.0433 112.658 32.2184C112.915 32.3899 113.213 32.4757 113.552 32.4757C113.903 32.4757 114.2 32.3827 114.447 32.197C114.696 32.0111 114.856 31.7574 114.927 31.4358H116.112C116.071 31.8253 115.94 32.172 115.721 32.4757C115.501 32.7795 115.207 33.0189 114.838 33.194C114.469 33.3691 114.038 33.4566 113.547 33.4566Z" fill="#BDBDBD"/>
            <path d="M31.3667 67.1111V64.5514L38.4931 57.8486C39.1626 57.1889 39.722 56.6039 40.1714 56.0937C40.63 55.5836 40.974 55.0909 41.2032 54.6159C41.4325 54.1322 41.5471 53.6176 41.5471 53.0722C41.5471 52.4565 41.4005 51.9243 41.1069 51.4757C40.8134 51.0271 40.4099 50.684 39.8963 50.4465C39.3918 50.209 38.8141 50.0903 38.1629 50.0903C37.4841 50.0903 36.8926 50.2222 36.3881 50.4861C35.8837 50.75 35.4894 51.1238 35.205 51.6076C34.9299 52.0914 34.7924 52.6676 34.7924 53.3361H31.2705C31.2705 52.0959 31.564 51.0183 32.151 50.1035C32.747 49.1798 33.5679 48.463 34.6135 47.9528C35.659 47.4426 36.8559 47.1875 38.2042 47.1875C39.5891 47.1875 40.7997 47.4338 41.8361 47.9263C42.8724 48.419 43.6795 49.0963 44.2574 49.9583C44.8351 50.8116 45.124 51.788 45.124 52.8875C45.124 53.6263 44.9773 54.3521 44.6838 55.0646C44.3903 55.7683 43.8721 56.5556 43.1292 57.4263C42.3956 58.2884 41.3637 59.3308 40.0339 60.5535L36.512 63.9972V64.1424H45.4267V67.1111H31.3667ZM55.442 67.375C53.782 67.375 52.3604 66.9792 51.1772 66.1875C50.0033 65.387 49.1045 64.2392 48.4808 62.7437C47.8572 61.2396 47.5453 59.4231 47.5453 57.2944C47.5453 55.1658 47.8572 53.3493 48.4808 51.8452C49.1045 50.3322 50.0033 49.1798 51.1772 48.3882C52.3604 47.5877 53.782 47.1875 55.442 47.1875C57.0929 47.1875 58.5098 47.5877 59.693 48.3882C60.8762 49.1886 61.7795 50.341 62.4032 51.8452C63.0269 53.3493 63.3387 55.1658 63.3387 57.2944C63.3387 59.4231 63.0269 61.2396 62.4032 62.7437C61.7795 64.2392 60.8808 65.387 59.7068 66.1875C58.5328 66.9792 57.1112 67.375 55.442 67.375ZM55.442 64.393C56.3317 64.393 57.0838 64.1159 57.6982 63.5618C58.3219 63.0076 58.7942 62.2028 59.1153 61.1472C59.4454 60.0829 59.6104 58.7986 59.6104 57.2944C59.6104 55.7815 59.4454 54.4928 59.1153 53.4285C58.7942 52.3642 58.3219 51.5548 57.6982 51.0007C57.0838 50.4377 56.3317 50.1563 55.442 50.1563C54.1029 50.1563 53.0712 50.7808 52.3466 52.0298C51.6313 53.2702 51.2736 55.025 51.2736 57.2944C51.2736 58.7986 51.4341 60.0829 51.7551 61.1472C52.0761 62.2028 52.5484 63.0076 53.1721 63.5618C53.7957 64.1159 54.5524 64.393 55.442 64.393ZM72.2947 67.1111L81.003 50.5652V50.4333H70.8915V47.4514H84.8689V50.5125L76.1467 67.1111H72.2947ZM93.5635 47.1611C94.554 47.1699 95.5124 47.337 96.4388 47.6625C97.3742 47.988 98.2134 48.5158 98.9564 49.2459C99.6992 49.9759 100.291 50.9523 100.731 52.175C101.171 53.3977 101.391 54.9107 101.391 56.7139C101.391 58.394 101.203 59.8981 100.827 61.2263C100.46 62.5459 99.9239 63.6674 99.2177 64.591C98.5207 65.5058 97.6769 66.2051 96.6863 66.6889C95.6958 67.1639 94.5907 67.4014 93.3709 67.4014C92.0776 67.4014 90.9313 67.1551 89.9316 66.6625C88.9318 66.1699 88.1248 65.5014 87.5103 64.657C86.8957 63.8125 86.5151 62.8537 86.3684 61.7806H90.0278C90.2113 62.5459 90.5919 63.1616 91.1697 63.6278C91.7567 64.0852 92.4904 64.3139 93.3709 64.3139C94.7833 64.3139 95.8701 63.7202 96.6313 62.5326C97.4017 61.3452 97.7915 59.709 97.8007 57.6243H97.6494C97.3192 58.1873 96.8927 58.6711 96.3699 59.0757C95.8563 59.4803 95.274 59.7926 94.6228 60.0125C93.9716 60.2324 93.2791 60.3424 92.5454 60.3424C91.3439 60.3424 90.2618 60.0697 89.2987 59.5243C88.3357 58.9702 87.5745 58.2092 87.0149 57.2417C86.4555 56.2741 86.1758 55.1746 86.1758 53.943C86.1758 52.65 86.4831 51.4933 87.0975 50.4729C87.7212 49.4437 88.5833 48.6345 89.6839 48.0452C90.7937 47.447 92.0869 47.1523 93.5635 47.1611ZM93.591 50.0639C92.8664 50.0639 92.2152 50.2354 91.6374 50.5785C91.0596 50.9127 90.6057 51.3658 90.2755 51.9375C89.9453 52.5092 89.7802 53.1514 89.7802 53.8639C89.7802 54.5676 89.9407 55.2053 90.2618 55.7771C90.5827 56.3488 91.0275 56.8019 91.5962 57.1361C92.1648 57.4616 92.8114 57.6243 93.5359 57.6243C94.2605 57.6243 94.9117 57.4528 95.4894 57.1097C96.0764 56.7579 96.5396 56.2961 96.879 55.7243C97.2183 55.1437 97.388 54.5148 97.388 53.8375C97.388 53.1602 97.2229 52.5357 96.8927 51.9639C96.5717 51.3921 96.1223 50.9348 95.5446 50.5917C94.9759 50.2398 94.3247 50.0639 93.591 50.0639ZM110.787 67.375C109.448 67.375 108.252 67.1375 107.197 66.6625C106.152 66.1787 105.317 65.5146 104.693 64.6702C104.078 63.8257 103.753 62.8581 103.716 61.7674H107.321C107.376 62.5678 107.734 63.2231 108.394 63.7333C109.063 64.2435 109.861 64.4986 110.787 64.4986C111.522 64.4986 112.168 64.3403 112.727 64.0237C113.287 63.6981 113.727 63.2539 114.048 62.691C114.378 62.1192 114.543 61.4683 114.543 60.7382C114.543 59.9905 114.378 59.3308 114.048 58.7591C113.718 58.1785 113.264 57.7254 112.686 57.4C112.108 57.0658 111.443 56.8986 110.691 56.8986C110.068 56.8986 109.462 57.013 108.875 57.2417C108.289 57.4616 107.82 57.7519 107.472 58.1125L104.101 57.5848L105.174 47.4514H117.075V50.4333H108.256L107.664 55.6452H107.774C108.16 55.2053 108.696 54.8491 109.384 54.5763C110.081 54.2949 110.847 54.1541 111.682 54.1541C112.93 54.1541 114.035 54.4357 114.998 54.9986C115.97 55.5528 116.735 56.3181 117.295 57.2944C117.854 58.2708 118.134 59.3924 118.134 60.659C118.134 61.9521 117.822 63.1088 117.199 64.1292C116.575 65.1408 115.713 65.9368 114.612 66.5174C113.512 67.0892 112.237 67.375 110.787 67.375ZM136.5 59.7091H125.755V56.7798H136.418C137.28 56.7798 137.986 56.6523 138.536 56.3972C139.095 56.1333 139.508 55.7683 139.774 55.3021C140.05 54.8271 140.183 54.2773 140.173 53.6528C140.183 53.0459 140.05 52.5004 139.774 52.0167C139.508 51.5241 139.105 51.1326 138.563 50.8424C138.023 50.5521 137.334 50.407 136.5 50.407H132.469V67.1111H128.782V47.4514H136.5C138.086 47.4514 139.431 47.7285 140.531 48.2826C141.632 48.828 142.466 49.5669 143.034 50.4993C143.603 51.4229 143.888 52.4652 143.888 53.6263C143.888 54.8227 143.599 55.8782 143.021 56.793C142.443 57.7079 141.604 58.4203 140.503 58.9306C139.403 59.4408 138.069 59.7003 136.5 59.7091ZM136.954 61.1604V64.0896H125.755V61.1604H136.954Z" fill="#303030"/>
            <path d="M258.799 65.4222V57.4355H261.856C262.445 57.4355 262.933 57.5283 263.32 57.7142C263.707 57.9 263.996 58.152 264.186 58.47C264.38 58.7845 264.477 59.1382 264.477 59.5313C264.477 59.8637 264.412 60.1442 264.282 60.3729C264.155 60.6015 263.985 60.7838 263.773 60.9196C263.56 61.0554 263.325 61.1555 263.068 61.2197V61.2948C263.348 61.3091 263.62 61.3949 263.884 61.5521C264.149 61.7094 264.367 61.9327 264.539 62.2221C264.714 62.508 264.801 62.8582 264.801 63.2728C264.801 63.6801 264.701 64.0464 264.499 64.3716C264.302 64.6932 263.996 64.9487 263.582 65.1381C263.169 65.3275 262.639 65.4222 261.99 65.4222H258.799ZM260.056 64.393H261.867C262.47 64.393 262.903 64.2804 263.163 64.0553C263.424 63.8302 263.555 63.5497 263.555 63.2138C263.555 62.9601 263.487 62.7296 263.353 62.5223C263.223 62.3114 263.035 62.1436 262.789 62.0184C262.543 61.8934 262.253 61.8309 261.917 61.8309H260.056V64.393ZM260.056 60.8928H261.744C262.023 60.8928 262.277 60.841 262.504 60.7373C262.731 60.6337 262.91 60.4872 263.041 60.2978C263.175 60.1048 263.242 59.8815 263.242 59.6278C263.242 59.2991 263.121 59.0239 262.879 58.8023C262.64 58.5771 262.273 58.4646 261.777 58.4646H260.056V60.8928ZM266.629 61.4985H268.445C269.205 61.495 269.79 61.6754 270.2 62.0399C270.614 62.4044 270.822 62.8743 270.826 63.4497C270.826 63.8249 270.733 64.1608 270.546 64.4573C270.36 64.754 270.09 64.9899 269.736 65.1649C269.382 65.3364 268.951 65.4222 268.445 65.4222H265.718V59.4294H266.896V64.4145H268.445C268.791 64.4145 269.077 64.3287 269.3 64.1572C269.524 63.9821 269.637 63.757 269.641 63.4818C269.637 63.1924 269.524 62.9565 269.3 62.7743C269.077 62.592 268.791 62.5026 268.445 62.5063H266.629V61.4985ZM271.714 65.4222V59.4294H272.922V65.4222H271.714ZM274.078 65.4222V59.4294H276.661C277.365 59.4331 277.923 59.5796 278.337 59.869C278.751 60.1549 278.956 60.5444 278.952 61.0375C278.956 61.3877 278.84 61.6647 278.606 61.8684C278.371 62.0685 278.063 62.2061 277.683 62.2811C277.96 62.3097 278.212 62.3883 278.444 62.517C278.678 62.6456 278.866 62.819 279.008 63.0369C279.153 63.2513 279.226 63.5068 279.226 63.8034C279.226 64.1214 279.138 64.4037 278.963 64.6503C278.792 64.8933 278.546 65.0827 278.225 65.2185C277.905 65.3543 277.516 65.4222 277.058 65.4222H274.078ZM275.219 64.4413H277.058C277.356 64.4449 277.591 64.3787 277.761 64.2429C277.933 64.1036 278.017 63.916 278.013 63.6801C278.017 63.4014 277.933 63.1834 277.761 63.0262C277.591 62.8654 277.356 62.785 277.058 62.785H275.219V64.4413ZM275.219 61.9327H276.672C277.015 61.9291 277.283 61.8594 277.477 61.7236C277.674 61.5843 277.771 61.3967 277.768 61.1608C277.771 60.9285 277.674 60.748 277.477 60.6194C277.279 60.4872 277.007 60.4211 276.661 60.4211H275.219V61.9327ZM282.77 65.5455C282.158 65.5455 281.629 65.4187 281.182 65.1649C280.735 64.9112 280.391 64.5539 280.148 64.0929C279.91 63.6284 279.791 63.0869 279.791 62.4687C279.791 61.8541 279.908 61.3127 280.142 60.8446C280.381 60.3764 280.715 60.0119 281.143 59.7511C281.576 59.4866 282.082 59.3545 282.663 59.3545C283.017 59.3545 283.36 59.4098 283.691 59.5206C284.023 59.6313 284.321 59.8065 284.586 60.0459C284.85 60.2853 285.059 60.5962 285.212 60.9786C285.368 61.3609 285.446 61.8219 285.446 62.3615V62.7796H280.478V61.9059H284.82L284.256 62.1953C284.256 61.8272 284.197 61.502 284.077 61.2197C283.958 60.9375 283.779 60.7177 283.541 60.5605C283.306 60.3996 283.013 60.3192 282.663 60.3192C282.313 60.3192 282.013 60.3996 281.763 60.5605C281.518 60.7213 281.329 60.9339 281.199 61.1983C281.068 61.4628 281.003 61.7523 281.003 62.0667V62.6617C281.003 63.0726 281.078 63.4211 281.227 63.707C281.376 63.9928 281.583 64.2108 281.847 64.3609C282.115 64.511 282.426 64.586 282.781 64.586C283.012 64.586 283.22 64.5539 283.406 64.4895C283.596 64.4252 283.76 64.3287 283.898 64.2C284.037 64.0714 284.14 63.9124 284.212 63.723L285.363 63.9321C285.269 64.2537 285.105 64.536 284.871 64.779C284.636 65.0219 284.34 65.2114 283.982 65.3471C283.628 65.4794 283.224 65.5455 282.77 65.5455ZM288.917 65.5455C288.317 65.5455 287.8 65.4133 287.364 65.1489C286.927 64.8844 286.593 64.5199 286.357 64.0553C286.122 63.5908 286.005 63.0584 286.005 62.458C286.005 61.8469 286.125 61.3091 286.363 60.8446C286.605 60.3764 286.942 60.0119 287.374 59.7511C287.81 59.4866 288.321 59.3545 288.906 59.3545C289.383 59.3545 289.806 59.4384 290.174 59.6064C290.548 59.7708 290.847 60.0048 291.074 60.3085C291.306 60.6123 291.441 60.9661 291.483 61.3699H290.298C290.257 61.1805 290.177 61.0071 290.057 60.8499C289.942 60.6927 289.789 60.5676 289.599 60.4747C289.409 60.3818 289.184 60.3354 288.923 60.3354C288.583 60.3354 288.287 60.4211 288.034 60.5927C287.785 60.7606 287.589 61.0018 287.447 61.3163C287.306 61.6307 287.235 62.0024 287.235 62.4312C287.235 62.8636 287.304 63.2406 287.441 63.5622C287.58 63.8838 287.775 64.1322 288.029 64.3073C288.286 64.4788 288.583 64.5646 288.923 64.5646C289.273 64.5646 289.571 64.4716 289.817 64.2858C290.067 64.1 290.227 63.8463 290.298 63.5247H291.483C291.441 63.9142 291.311 64.2608 291.091 64.5646C290.872 64.8683 290.577 65.1077 290.209 65.2829C289.84 65.4579 289.409 65.5455 288.917 65.5455ZM291.588 60.4372V59.4294H296.848V60.4372H294.819V65.4222H293.628V60.4372H291.588ZM298.843 63.782L301.598 59.4294H302.906V65.4222H301.722V61.0644L298.977 65.4222H297.664V59.4294H298.843V63.782Z" fill="#6F00FF"/>
        </g>
    </g>
    <defs>
        <filter id="filter0_d_5414_3325" x="0" y="0" width="334" height="108" filterUnits="userSpaceOnUse" color-interpolation-filters="sRGB">
            <feFlood flood-opacity="0" result="BackgroundImageFix"/>
            <feColorMatrix in="SourceAlpha" type="matrix" values="0 0 0 0 0 0 0 0 0 0 0 0 0 0 0 0 0 0 127 0" result="hardAlpha"/>
            <feOffset dy="8"/>
            <feGaussianBlur stdDeviation="8"/>
            <feComposite in2="hardAlpha" operator="out"/>
            <feColorMatrix type="matrix" values="0 0 0 0 0.188235 0 0 0 0 0.188235 0 0 0 0 0.188235 0 0 0 0.08 0"/>
            <feBlend mode="normal" in2="BackgroundImageFix" result="effect1_dropShadow_5414_3325"/>
            <feBlend mode="normal" in="SourceGraphic" in2="effect1_dropShadow_5414_3325" result="shape"/>
        </filter>
        <clipPath id="clip0_5414_3325">
            <rect x="16" y="8" width="302" height="76" rx="12" fill="white"/>
        </clipPath>
    </defs>
</svg>
