<svg width="325" height="108" viewBox="0 0 325 108" fill="none" xmlns="http://www.w3.org/2000/svg">
<g filter="url(#filter0_d_5373_4363)">
<g clip-path="url(#clip0_5373_4363)">
<rect x="16" y="8" width="293" height="76" rx="12" fill="white"/>
<path d="M298.749 8H26.2507C20.5894 8 16 12.5368 16 18.1333V73.8667C16 79.4632 20.5894 84 26.2507 84H298.749C304.411 84 309 79.4632 309 73.8667V18.1333C309 12.5368 304.411 8 298.749 8Z" fill="white"/>
<path d="M29.9171 26.3811V25.3466H36.1745V26.3811H33.6585V33.3333H32.4439V26.3811H29.9171ZM38.7284 33.4566C38.1356 33.4566 37.6222 33.3298 37.1885 33.076C36.7547 32.8224 36.4203 32.465 36.1853 32.004C35.9539 31.5395 35.8383 30.998 35.8383 30.3798C35.8383 29.7652 35.9521 29.2239 36.1799 28.7557C36.4113 28.2875 36.7348 27.9231 37.1505 27.6622C37.5699 27.3977 38.0615 27.2656 38.6254 27.2656C38.9688 27.2656 39.3014 27.3209 39.6231 27.4317C39.9448 27.5425 40.234 27.7176 40.4907 27.957C40.7474 28.1964 40.9498 28.5073 41.098 28.8897C41.2498 29.2721 41.3257 29.7331 41.3257 30.2727V30.6907H36.5053V29.817H40.7184L40.1707 30.1065C40.1707 29.7384 40.1129 29.4132 39.9973 29.1309C39.8816 28.8486 39.708 28.6289 39.4767 28.4716C39.249 28.3108 38.9652 28.2304 38.6254 28.2304C38.2856 28.2304 37.9946 28.3108 37.7524 28.4716C37.5138 28.6324 37.3313 28.845 37.2047 29.1094C37.0782 29.3739 37.015 29.6634 37.015 29.9779V30.5729C37.015 30.9838 37.0872 31.3322 37.2319 31.6181C37.3765 31.904 37.5771 32.1219 37.8338 32.2721C38.094 32.4221 38.3958 32.4972 38.7392 32.4972C38.9634 32.4972 39.1658 32.465 39.3466 32.4007C39.5309 32.3363 39.69 32.2399 39.8238 32.1112C39.9574 31.9826 40.0587 31.8236 40.1274 31.6342L41.2443 31.8432C41.154 32.1648 40.995 32.4471 40.7673 32.6901C40.5395 32.9331 40.2521 33.1225 39.9051 33.2583C39.5617 33.3905 39.1694 33.4566 38.7284 33.4566ZM42.1499 33.3333V27.3406H43.3211V29.8546H43.8905L45.8913 27.3406H47.3446L45.0075 30.2619L47.377 33.3333H45.913L44.0857 30.9373H43.3211V33.3333H42.1499ZM48.5916 35.5739C48.4146 35.5775 48.2536 35.565 48.1091 35.5364C47.9681 35.5114 47.8596 35.481 47.7837 35.4453L48.0711 34.4965L48.1525 34.5179C48.4525 34.593 48.7055 34.5877 48.9115 34.5019C49.1213 34.4197 49.2965 34.1892 49.4376 33.8104L49.5839 33.4137L47.3716 27.3406H48.635L50.1641 31.9933H50.2292L51.7637 27.3406H53.0271L50.5329 34.1267C50.4172 34.4411 50.2708 34.7056 50.0936 34.92C49.9165 35.1379 49.7032 35.3006 49.4538 35.4077C49.208 35.5185 48.9206 35.5739 48.5916 35.5739ZM62.3536 32.3256L62.2451 35.0486H61.0847V33.3333H60.3364V32.3256H62.3536ZM53.6778 27.3406H54.8219V32.3256H56.9204V27.3406H58.0754V32.3256H60.1684V27.3406H61.3288V33.3333H53.6778V27.3406ZM64.2243 31.6931L66.8975 27.3406H68.1663V33.3333H67.0168V28.9755L64.3544 33.3333H63.0802V27.3406H64.2243V31.6931ZM70.4382 31.6931L73.1115 27.3406H74.3803V33.3333H73.2308V28.9755L70.5684 33.3333H69.2942V27.3406H70.4382V31.6931ZM71.8264 26.6437C71.3095 26.6437 70.8901 26.5044 70.5684 26.2257C70.2466 25.9434 70.0858 25.577 70.0858 25.1268H71.0564C71.0564 25.3555 71.1269 25.5413 71.2679 25.6843C71.4089 25.8236 71.595 25.8934 71.8264 25.8934C72.0578 25.8934 72.2439 25.8236 72.3849 25.6843C72.5259 25.5413 72.5964 25.3555 72.5964 25.1268H73.5669C73.5669 25.577 73.4061 25.9434 73.0844 26.2257C72.7627 26.5044 72.3433 26.6437 71.8264 26.6437ZM82.644 25.1161L83.132 25.8505C82.9548 26.0148 82.7506 26.131 82.5192 26.1989C82.2879 26.2668 82.0222 26.3097 81.7222 26.3275C81.4222 26.3454 81.0787 26.3614 80.6919 26.3757C80.2545 26.3864 79.8948 26.4794 79.6129 26.6545C79.3345 26.826 79.1194 27.0797 78.9676 27.4157C78.8158 27.7516 78.7182 28.175 78.6748 28.686H78.7507C78.9423 28.3144 79.2135 28.0374 79.564 27.8552C79.9183 27.6693 80.3159 27.5764 80.757 27.5764C81.245 27.5764 81.6788 27.6872 82.0584 27.9088C82.4379 28.1268 82.7379 28.4484 82.9585 28.8737C83.179 29.2988 83.2875 29.817 83.2838 30.4281C83.2875 31.0499 83.1754 31.5877 82.9476 32.0415C82.7199 32.4953 82.3963 32.8437 81.977 33.0868C81.5613 33.3298 81.0715 33.4531 80.5075 33.4566C79.6581 33.4531 78.9785 33.1672 78.4688 32.599C77.959 32.0272 77.7024 31.1911 77.6988 30.0904V29.5062C77.7024 28.1339 77.9519 27.103 78.4471 26.4133C78.9423 25.7236 79.6816 25.368 80.6648 25.3466C80.9829 25.3394 81.2667 25.3376 81.5161 25.3412C81.7656 25.3448 81.9842 25.3341 82.1723 25.3091C82.3602 25.2805 82.5175 25.2161 82.644 25.1161ZM80.5075 32.4811C80.8401 32.4775 81.1239 32.3935 81.3589 32.2292C81.5939 32.0647 81.7764 31.8307 81.9065 31.5269C82.0367 31.2232 82.0999 30.864 82.0963 30.4496C82.0999 30.0458 82.0367 29.7027 81.9065 29.4204C81.7764 29.1345 81.5921 28.9165 81.3535 28.7664C81.1149 28.6164 80.8274 28.5413 80.4913 28.5413C80.2455 28.5413 80.025 28.5842 79.8298 28.6699C79.6346 28.7557 79.4683 28.8808 79.3309 29.0452C79.1936 29.206 79.0869 29.4043 79.011 29.6402C78.9387 29.876 78.8989 30.1458 78.8917 30.4496C78.8917 31.0642 79.0345 31.5555 79.3201 31.9236C79.6092 32.2916 80.0051 32.4775 80.5075 32.4811ZM85.8974 33.462C85.5142 33.462 85.1672 33.3923 84.8562 33.253C84.5454 33.11 84.2996 32.9028 84.1189 32.6312C83.9381 32.3595 83.8477 32.029 83.8477 31.6395C83.8477 31.3 83.9128 31.0231 84.0429 30.8087C84.1767 30.5907 84.3556 30.4174 84.5797 30.2887C84.8039 30.1601 85.0533 30.0636 85.328 29.9993C85.6027 29.935 85.8847 29.8849 86.1739 29.8492C86.539 29.8099 86.8336 29.776 87.0578 29.7473C87.2819 29.7188 87.4445 29.6741 87.5458 29.6133C87.6506 29.5491 87.703 29.4471 87.703 29.3078V29.281C87.703 28.9416 87.6054 28.6789 87.4102 28.4931C87.2186 28.3072 86.933 28.2143 86.5535 28.2143C86.1594 28.2143 85.8468 28.3001 85.6154 28.4716C85.3877 28.6396 85.2304 28.8308 85.1437 29.0452L84.0321 28.7932C84.1659 28.4287 84.3592 28.1357 84.6123 27.9141C84.869 27.689 85.1617 27.5247 85.4907 27.421C85.8232 27.3174 86.1703 27.2656 86.5318 27.2656C86.774 27.2656 87.0307 27.2941 87.3017 27.3513C87.5729 27.4049 87.8278 27.5068 88.0663 27.6568C88.3085 27.8033 88.5055 28.0142 88.6574 28.2894C88.8092 28.5645 88.8851 28.9201 88.8851 29.356V33.3333H87.7301V32.5132H87.6867C87.6145 32.6597 87.5006 32.8062 87.3451 32.9528C87.1933 33.0993 86.9981 33.2208 86.7595 33.3173C86.521 33.4137 86.2336 33.462 85.8974 33.462ZM86.1522 32.5294C86.4811 32.5294 86.7613 32.4668 86.9927 32.3417C87.2241 32.213 87.4012 32.0451 87.5241 31.8378C87.647 31.6306 87.7084 31.4108 87.7084 31.1785V30.4013C87.665 30.4406 87.5837 30.4781 87.4645 30.5138C87.3451 30.5496 87.2096 30.58 87.0578 30.6049C86.906 30.63 86.7578 30.6533 86.6131 30.6747C86.4685 30.6925 86.3475 30.7068 86.2498 30.7175C86.0221 30.7497 85.8143 30.7998 85.6262 30.8677C85.4383 30.9319 85.2864 31.0284 85.1708 31.1571C85.0587 31.2822 85.0027 31.4483 85.0027 31.6556C85.0027 31.9451 85.1111 32.163 85.328 32.3095C85.5449 32.4561 85.8196 32.5294 86.1522 32.5294ZM89.5358 33.3333L89.5303 32.3256H89.7418C89.9696 32.322 90.1485 32.2559 90.2786 32.1273C90.4124 31.9951 90.5118 31.761 90.5768 31.4251C90.6455 31.0892 90.6907 30.6139 90.7124 29.9993L90.8209 27.3406H95.0449V33.3333H93.8899V28.3483H91.9053L91.8077 30.3905C91.7861 30.8837 91.7372 31.3143 91.6614 31.6824C91.5854 32.0505 91.4733 32.3578 91.3251 32.6043C91.1769 32.8474 90.9871 33.0296 90.7558 33.1511C90.5245 33.2726 90.2425 33.3333 89.9099 33.3333H89.5358ZM97.9241 33.462C97.5409 33.462 97.1939 33.3923 96.883 33.253C96.5721 33.11 96.3264 32.9028 96.1456 32.6312C95.9649 32.3595 95.8745 32.029 95.8745 31.6395C95.8745 31.3 95.9396 31.0231 96.0697 30.8087C96.2035 30.5907 96.3823 30.4174 96.6065 30.2887C96.8306 30.1601 97.0801 30.0636 97.3548 29.9993C97.6295 29.935 97.9115 29.8849 98.2006 29.8492C98.5657 29.8099 98.8604 29.776 99.0845 29.7473C99.3087 29.7188 99.4713 29.6741 99.5725 29.6133C99.6773 29.5491 99.7298 29.4471 99.7298 29.3078V29.281C99.7298 28.9416 99.6322 28.6789 99.437 28.4931C99.2454 28.3072 98.9598 28.2143 98.5803 28.2143C98.1862 28.2143 97.8736 28.3001 97.6421 28.4716C97.4144 28.6396 97.2571 28.8308 97.1704 29.0452L96.0588 28.7932C96.1926 28.4287 96.386 28.1357 96.639 27.9141C96.8957 27.689 97.1885 27.5247 97.5174 27.421C97.85 27.3174 98.1971 27.2656 98.5586 27.2656C98.8007 27.2656 99.0574 27.2941 99.3285 27.3513C99.5996 27.4049 99.8545 27.5068 100.093 27.6568C100.335 27.8033 100.532 28.0142 100.684 28.2894C100.836 28.5645 100.912 28.9201 100.912 29.356V33.3333H99.7569V32.5132H99.7135C99.6412 32.6597 99.5273 32.8062 99.3719 32.9528C99.2201 33.0993 99.0249 33.2208 98.7863 33.3173C98.5477 33.4137 98.2603 33.462 97.9241 33.462ZM98.1789 32.5294C98.5079 32.5294 98.7881 32.4668 99.0194 32.3417C99.2508 32.213 99.4279 32.0451 99.5508 31.8378C99.6738 31.6306 99.7352 31.4108 99.7352 31.1785V30.4013C99.6918 30.4406 99.6105 30.4781 99.4912 30.5138C99.3719 30.5496 99.2363 30.58 99.0845 30.6049C98.9327 30.63 98.7845 30.6533 98.6399 30.6747C98.4953 30.6925 98.3742 30.7068 98.2766 30.7175C98.0488 30.7497 97.841 30.7998 97.653 30.8677C97.4651 30.9319 97.3132 31.0284 97.1975 31.1571C97.0854 31.2822 97.0294 31.4483 97.0294 31.6556C97.0294 31.9451 97.1379 32.163 97.3548 32.3095C97.5717 32.4561 97.8464 32.5294 98.1789 32.5294ZM106.144 29.8331V30.8408H102.864V29.8331H106.144ZM103.189 27.3406V33.3333H102.046V27.3406H103.189ZM106.968 27.3406V33.3333H105.819V27.3406H106.968ZM110.64 33.4566C110.057 33.4566 109.555 33.3244 109.132 33.06C108.709 32.7955 108.384 32.4311 108.156 31.9664C107.929 31.5019 107.814 30.9695 107.814 30.3691C107.814 29.7581 107.93 29.2202 108.162 28.7557C108.397 28.2875 108.724 27.9231 109.143 27.6622C109.566 27.3977 110.061 27.2656 110.629 27.2656C111.092 27.2656 111.502 27.3495 111.86 27.5175C112.221 27.6819 112.512 27.9159 112.733 28.2196C112.957 28.5234 113.089 28.8772 113.128 29.281H111.978C111.939 29.0916 111.861 28.9183 111.745 28.761C111.633 28.6039 111.486 28.4787 111.301 28.3858C111.117 28.2929 110.898 28.2465 110.645 28.2465C110.316 28.2465 110.028 28.3322 109.783 28.5038C109.541 28.6718 109.351 28.9129 109.213 29.2274C109.076 29.5419 109.007 29.9135 109.007 30.3423C109.007 30.7748 109.074 31.1517 109.208 31.4734C109.341 31.7949 109.532 32.0433 109.777 32.2184C110.027 32.3899 110.316 32.4757 110.645 32.4757C110.985 32.4757 111.274 32.3828 111.513 32.197C111.755 32.0111 111.91 31.7574 111.978 31.4358H113.128C113.089 31.8253 112.962 32.172 112.749 32.4757C112.535 32.7795 112.25 33.0189 111.892 33.194C111.534 33.3691 111.117 33.4566 110.64 33.4566Z" fill="#BDBDBD"/>
<path d="M30.9089 67.1111V64.5514L37.8229 57.8486C38.4724 57.1889 39.0152 56.6039 39.4512 56.0937C39.8962 55.5836 40.2298 55.0909 40.4523 54.6159C40.6747 54.1322 40.7859 53.6176 40.7859 53.0722C40.7859 52.4565 40.6436 51.9243 40.3588 51.4757C40.0741 51.0271 39.6826 50.684 39.1842 50.4465C38.6949 50.209 38.1343 50.0903 37.5025 50.0903C36.844 50.0903 36.2701 50.2222 35.7807 50.4861C35.2913 50.75 34.9087 51.1238 34.6328 51.6076C34.3659 52.0914 34.2325 52.6676 34.2325 53.3361H30.8156C30.8156 52.0959 31.1003 51.0183 31.6698 50.1035C32.2481 49.1798 33.0445 48.463 34.0589 47.9528C35.0733 47.4426 36.2345 47.1875 37.5426 47.1875C38.8862 47.1875 40.0608 47.4338 41.0663 47.9263C42.0717 48.419 42.8548 49.0963 43.4154 49.9583C43.9759 50.8116 44.2562 51.788 44.2562 52.8875C44.2562 53.6263 44.1139 54.3521 43.8291 55.0646C43.5444 55.7683 43.0416 56.5556 42.3209 57.4263C41.6091 58.2884 40.608 59.3308 39.3178 60.5535L35.9009 63.9972V64.1424H44.5499V67.1111H30.9089ZM54.2667 67.375C52.6562 67.375 51.2769 66.9792 50.129 66.1875C48.9901 65.387 48.1181 64.2392 47.513 62.7437C46.9079 61.2396 46.6053 59.4231 46.6053 57.2944C46.6053 55.1658 46.9079 53.3493 47.513 51.8452C48.1181 50.3322 48.9901 49.1798 50.129 48.3882C51.2769 47.5877 52.6562 47.1875 54.2667 47.1875C55.8684 47.1875 57.2431 47.5877 58.391 48.3882C59.5389 49.1886 60.4154 50.341 61.0204 51.8452C61.6256 53.3493 61.928 55.1658 61.928 57.2944C61.928 59.4231 61.6256 61.2396 61.0204 62.7437C60.4154 64.2392 59.5434 65.387 58.4044 66.1875C57.2654 66.9792 55.8862 67.375 54.2667 67.375ZM54.2667 64.393C55.1299 64.393 55.8595 64.1159 56.4557 63.5618C57.0607 63.0076 57.519 62.2028 57.8305 61.1472C58.1508 60.0829 58.3109 58.7986 58.3109 57.2944C58.3109 55.7815 58.1508 54.4928 57.8305 53.4285C57.519 52.3642 57.0607 51.5548 56.4557 51.0007C55.8595 50.4377 55.1299 50.1563 54.2667 50.1563C52.9675 50.1563 51.9666 50.7808 51.2635 52.0298C50.5696 53.2702 50.2225 55.025 50.2225 57.2944C50.2225 58.7986 50.3782 60.0829 50.6897 61.1472C51.0011 62.2028 51.4593 63.0076 52.0645 63.5618C52.6695 64.1159 53.4036 64.393 54.2667 64.393ZM70.6172 67.1111L79.066 50.5652V50.4333H69.2558V47.4514H82.8166V50.5125L74.3544 67.1111H70.6172ZM91.2521 47.1611C92.2131 47.1699 93.143 47.337 94.0417 47.6625C94.9493 47.988 95.7635 48.5158 96.4843 49.2459C97.205 49.9759 97.7789 50.9523 98.2061 52.175C98.6332 53.3977 98.8467 54.9107 98.8467 56.7139C98.8467 58.394 98.6643 59.8981 98.2995 61.2263C97.9436 62.5459 97.423 63.6674 96.7378 64.591C96.0616 65.5058 95.2429 66.2051 94.2819 66.6889C93.3209 67.1639 92.2487 67.4014 91.0652 67.4014C89.8105 67.4014 88.6983 67.1551 87.7285 66.6625C86.7585 66.1699 85.9755 65.5014 85.3793 64.657C84.7831 63.8125 84.4138 62.8537 84.2715 61.7806H87.8218C87.9998 62.5459 88.3691 63.1616 88.9297 63.6278C89.4992 64.0852 90.211 64.3139 91.0652 64.3139C92.4356 64.3139 93.49 63.7202 94.2285 62.5326C94.976 61.3452 95.3541 59.709 95.363 57.6243H95.2163C94.8959 58.1873 94.4821 58.6711 93.9749 59.0757C93.4766 59.4803 92.9116 59.7926 92.2799 60.0125C91.6481 60.2324 90.9762 60.3424 90.2644 60.3424C89.0987 60.3424 88.0488 60.0697 87.1144 59.5243C86.1801 58.9702 85.4416 58.2092 84.8987 57.2417C84.356 56.2741 84.0846 55.1746 84.0846 53.943C84.0846 52.65 84.3827 51.4933 84.9789 50.4729C85.5839 49.4437 86.4204 48.6345 87.4882 48.0452C88.5648 47.447 89.8195 47.1523 91.2521 47.1611ZM91.2788 50.0639C90.5759 50.0639 89.9441 50.2354 89.3834 50.5785C88.8229 50.9127 88.3824 51.3658 88.0621 51.9375C87.7418 52.5092 87.5816 53.1514 87.5816 53.8639C87.5816 54.5676 87.7373 55.2053 88.0488 55.7771C88.3601 56.3488 88.7917 56.8019 89.3434 57.1361C89.8951 57.4616 90.5225 57.6243 91.2254 57.6243C91.9283 57.6243 92.5601 57.4528 93.1207 57.1097C93.6902 56.7579 94.1396 56.2961 94.4688 55.7243C94.798 55.1437 94.9626 54.5148 94.9626 53.8375C94.9626 53.1602 94.8025 52.5357 94.4821 51.9639C94.1707 51.3921 93.7347 50.9348 93.1741 50.5917C92.6224 50.2398 91.9906 50.0639 91.2788 50.0639ZM107.963 67.375C106.663 67.375 105.503 67.1375 104.479 66.6625C103.465 66.1787 102.655 65.5146 102.05 64.6702C101.453 63.8257 101.138 62.8581 101.102 61.7674H104.6C104.653 62.5678 105 63.2231 105.641 63.7333C106.29 64.2435 107.064 64.4986 107.963 64.4986C108.675 64.4986 109.302 64.3403 109.845 64.0237C110.388 63.6981 110.815 63.2539 111.126 62.691C111.446 62.1192 111.607 61.4683 111.607 60.7382C111.607 59.9905 111.446 59.3308 111.126 58.7591C110.806 58.1785 110.366 57.7254 109.804 57.4C109.244 57.0658 108.599 56.8986 107.87 56.8986C107.265 56.8986 106.677 57.013 106.107 57.2417C105.538 57.4616 105.084 57.7519 104.747 58.1125L101.476 57.5848L102.517 47.4514H114.063V50.4333H105.507L104.933 55.6452H105.04C105.414 55.2053 105.934 54.8491 106.601 54.5763C107.278 54.2949 108.021 54.1541 108.831 54.1541C110.041 54.1541 111.113 54.4357 112.048 54.9986C112.991 55.5528 113.733 56.3181 114.276 57.2944C114.819 58.2708 115.09 59.3924 115.09 60.659C115.09 61.9521 114.788 63.1088 114.183 64.1292C113.578 65.1408 112.741 65.9368 111.673 66.5174C110.606 67.0892 109.369 67.375 107.963 67.375ZM132.909 59.7091H122.485V56.7798H132.829C133.666 56.7798 134.351 56.6523 134.885 56.3972C135.427 56.1333 135.828 55.7683 136.086 55.3021C136.353 54.8271 136.482 54.2773 136.473 53.6528C136.482 53.0459 136.353 52.5004 136.086 52.0167C135.828 51.5241 135.436 51.1326 134.911 50.8424C134.387 50.5521 133.719 50.407 132.909 50.407H128.998V67.1111H125.421V47.4514H132.909C134.448 47.4514 135.752 47.7285 136.82 48.2826C137.888 48.828 138.697 49.5669 139.249 50.4993C139.801 51.4229 140.077 52.4652 140.077 53.6263C140.077 54.8227 139.796 55.8782 139.236 56.793C138.675 57.7079 137.861 58.4203 136.793 58.9306C135.725 59.4408 134.431 59.7003 132.909 59.7091ZM133.349 61.1604V64.0896H122.485V61.1604H133.349Z" fill="#303030"/>
<path d="M251.563 65.4222V57.4355H254.529C255.101 57.4355 255.574 57.5283 255.95 57.7142C256.326 57.9 256.606 58.152 256.791 58.47C256.978 58.7845 257.072 59.1382 257.072 59.5313C257.072 59.8637 257.009 60.1442 256.883 60.3729C256.76 60.6015 256.595 60.7838 256.389 60.9196C256.183 61.0554 255.955 61.1555 255.706 61.2197V61.2948C255.977 61.3091 256.241 61.3949 256.497 61.5521C256.755 61.7094 256.966 61.9327 257.132 62.2221C257.302 62.508 257.387 62.8582 257.387 63.2728C257.387 63.6801 257.289 64.0464 257.094 64.3716C256.902 64.6932 256.606 64.9487 256.205 65.1381C255.804 65.3275 255.289 65.4222 254.659 65.4222H251.563ZM252.783 64.393H254.54C255.126 64.393 255.545 64.2804 255.798 64.0553C256.051 63.8302 256.178 63.5497 256.178 63.2138C256.178 62.9601 256.112 62.7296 255.982 62.5223C255.856 62.3114 255.673 62.1436 255.435 62.0184C255.197 61.8934 254.915 61.8309 254.589 61.8309H252.783V64.393ZM252.783 60.8928H254.421C254.692 60.8928 254.938 60.841 255.158 60.7373C255.378 60.6337 255.552 60.4872 255.679 60.2978C255.809 60.1048 255.874 59.8815 255.874 59.6278C255.874 59.2991 255.757 59.0239 255.522 58.8023C255.29 58.5771 254.934 58.4646 254.453 58.4646H252.783V60.8928ZM259.16 61.4985H260.922C261.66 61.495 262.227 61.6754 262.625 62.0399C263.026 62.4044 263.229 62.8743 263.232 63.4497C263.232 63.8249 263.142 64.1608 262.961 64.4573C262.78 64.754 262.518 64.9899 262.175 65.1649C261.831 65.3364 261.414 65.4222 260.922 65.4222H258.276V59.4294H259.42V64.4145H260.922C261.258 64.4145 261.535 64.3287 261.752 64.1572C261.969 63.9821 262.079 63.757 262.082 63.4818C262.079 63.1924 261.969 62.9565 261.752 62.7743C261.535 62.592 261.258 62.5026 260.922 62.5063H259.16V61.4985ZM264.094 65.4222V59.4294H265.265V65.4222H264.094ZM266.388 65.4222V59.4294H268.893C269.577 59.4331 270.118 59.5796 270.52 59.869C270.921 60.1549 271.12 60.5444 271.116 61.0375C271.12 61.3877 271.007 61.6647 270.78 61.8684C270.552 62.0685 270.254 62.2061 269.885 62.2811C270.153 62.3097 270.398 62.3883 270.623 62.517C270.85 62.6456 271.033 62.819 271.171 63.0369C271.312 63.2513 271.382 63.5068 271.382 63.8034C271.382 64.1214 271.297 64.4037 271.127 64.6503C270.96 64.8933 270.722 65.0827 270.411 65.2185C270.1 65.3543 269.723 65.4222 269.278 65.4222H266.388ZM267.494 64.4413H269.278C269.567 64.4449 269.795 64.3787 269.961 64.2429C270.128 64.1036 270.209 63.916 270.205 63.6801C270.209 63.4014 270.128 63.1834 269.961 63.0262C269.795 62.8654 269.567 62.785 269.278 62.785H267.494V64.4413ZM267.494 61.9327H268.904C269.237 61.9291 269.497 61.8594 269.685 61.7236C269.876 61.5843 269.97 61.3967 269.967 61.1608C269.97 60.9285 269.876 60.748 269.685 60.6194C269.493 60.4872 269.229 60.4211 268.893 60.4211H267.494V61.9327ZM274.82 65.5455C274.227 65.5455 273.714 65.4187 273.28 65.1649C272.846 64.9112 272.512 64.5539 272.277 64.0929C272.045 63.6284 271.93 63.0869 271.93 62.4687C271.93 61.8541 272.044 61.3127 272.271 60.8446C272.502 60.3764 272.826 60.0119 273.242 59.7511C273.662 59.4866 274.153 59.3545 274.716 59.3545C275.06 59.3545 275.393 59.4098 275.714 59.5206C276.036 59.6313 276.325 59.8065 276.582 60.0459C276.838 60.2853 277.041 60.5962 277.189 60.9786C277.341 61.3609 277.417 61.8219 277.417 62.3615V62.7796H272.596V61.9059H276.809L276.262 62.1953C276.262 61.8272 276.205 61.502 276.088 61.2197C275.973 60.9375 275.8 60.7177 275.568 60.5605C275.34 60.3996 275.056 60.3192 274.716 60.3192C274.376 60.3192 274.086 60.3996 273.843 60.5605C273.605 60.7213 273.422 60.9339 273.296 61.1983C273.169 61.4628 273.106 61.7523 273.106 62.0667V62.6617C273.106 63.0726 273.179 63.4211 273.323 63.707C273.468 63.9928 273.668 64.2108 273.925 64.3609C274.185 64.511 274.487 64.586 274.831 64.586C275.055 64.586 275.257 64.5539 275.437 64.4895C275.622 64.4252 275.781 64.3287 275.915 64.2C276.049 64.0714 276.15 63.9124 276.219 63.723L277.336 63.9321C277.245 64.2537 277.086 64.536 276.859 64.779C276.631 65.0219 276.344 65.2114 275.996 65.3471C275.653 65.4794 275.261 65.5455 274.82 65.5455ZM280.784 65.5455C280.202 65.5455 279.7 65.4133 279.277 65.1489C278.853 64.8844 278.529 64.5199 278.301 64.0553C278.073 63.5908 277.959 63.0584 277.959 62.458C277.959 61.8469 278.075 61.3091 278.306 60.8446C278.541 60.3764 278.868 60.0119 279.287 59.7511C279.71 59.4866 280.206 59.3545 280.774 59.3545C281.236 59.3545 281.647 59.4384 282.004 59.6064C282.366 59.7708 282.657 60.0048 282.877 60.3085C283.102 60.6123 283.233 60.9661 283.273 61.3699H282.123C282.084 61.1805 282.006 61.0071 281.89 60.8499C281.778 60.6927 281.63 60.5676 281.446 60.4747C281.262 60.3818 281.043 60.3354 280.79 60.3354C280.46 60.3354 280.173 60.4211 279.927 60.5927C279.686 60.7606 279.496 61.0018 279.358 61.3163C279.221 61.6307 279.152 62.0024 279.152 62.4312C279.152 62.8636 279.219 63.2406 279.352 63.5622C279.486 63.8838 279.676 64.1322 279.922 64.3073C280.172 64.4788 280.46 64.5646 280.79 64.5646C281.129 64.5646 281.419 64.4716 281.657 64.2858C281.9 64.1 282.055 63.8463 282.123 63.5247H283.273C283.233 63.9142 283.107 64.2608 282.893 64.5646C282.68 64.8683 282.394 65.1077 282.037 65.2829C281.679 65.4579 281.262 65.5455 280.784 65.5455ZM283.376 60.4372V59.4294H288.479V60.4372H286.51V65.4222H285.355V60.4372H283.376ZM290.415 63.782L293.087 59.4294H294.356V65.4222H293.207V61.0644L290.544 65.4222H289.27V59.4294H290.415V63.782Z" fill="#6F00FF"/>
</g>
</g>
<defs>
<filter id="filter0_d_5373_4363" x="0" y="0" width="325" height="108" filterUnits="userSpaceOnUse" color-interpolation-filters="sRGB">
<feFlood flood-opacity="0" result="BackgroundImageFix"/>
<feColorMatrix in="SourceAlpha" type="matrix" values="0 0 0 0 0 0 0 0 0 0 0 0 0 0 0 0 0 0 127 0" result="hardAlpha"/>
<feOffset dy="8"/>
<feGaussianBlur stdDeviation="8"/>
<feComposite in2="hardAlpha" operator="out"/>
<feColorMatrix type="matrix" values="0 0 0 0 0.188235 0 0 0 0 0.188235 0 0 0 0 0.188235 0 0 0 0.08 0"/>
<feBlend mode="normal" in2="BackgroundImageFix" result="effect1_dropShadow_5373_4363"/>
<feBlend mode="normal" in="SourceGraphic" in2="effect1_dropShadow_5373_4363" result="shape"/>
</filter>
<clipPath id="clip0_5373_4363">
<rect x="16" y="8" width="293" height="76" rx="12" fill="white"/>
</clipPath>
</defs>
</svg>
