<svg width="334" height="108" viewBox="0 0 334 108" fill="none" xmlns="http://www.w3.org/2000/svg">
    <g filter="url(#filter0_d_5414_3311)">
        <rect x="16" y="8" width="302" height="76" rx="12" fill="white"/>
        <path d="M144.461 66.5469C141.617 66.5469 139.102 66.0547 136.914 65.0703C134.745 64.0859 133.04 62.737 131.801 61.0234C130.579 59.2917 129.969 57.3229 129.969 55.1172C129.969 53.4219 130.324 51.8451 131.035 50.3867C131.764 48.9284 132.749 47.7161 133.988 46.75C135.228 45.7839 136.622 45.1641 138.172 44.8906V44.6445C136.148 44.1523 134.517 43.0677 133.277 41.3906C132.056 39.6953 131.445 37.763 131.445 35.5938C131.445 33.4974 132.001 31.6289 133.113 29.9883C134.243 28.3477 135.784 27.0625 137.734 26.1328C139.703 25.1849 141.945 24.7109 144.461 24.7109C146.94 24.7109 149.155 25.1849 151.105 26.1328C153.074 27.0625 154.615 28.3477 155.727 29.9883C156.857 31.6289 157.422 33.4974 157.422 35.5938C157.422 37.763 156.802 39.6953 155.562 41.3906C154.341 43.0677 152.737 44.1523 150.75 44.6445V44.8906C152.281 45.1641 153.667 45.7839 154.906 46.75C156.146 47.7161 157.13 48.9284 157.859 50.3867C158.589 51.8451 158.953 53.4219 158.953 55.1172C158.953 57.3229 158.333 59.2917 157.094 61.0234C155.854 62.737 154.141 64.0859 151.953 65.0703C149.784 66.0547 147.286 66.5469 144.461 66.5469ZM144.461 61.5156C146.138 61.5156 147.596 61.2422 148.836 60.6953C150.076 60.1302 151.033 59.3372 151.707 58.3164C152.382 57.2956 152.719 56.1107 152.719 54.7617C152.719 53.3398 152.354 52.0911 151.625 51.0156C150.914 49.9219 149.939 49.0651 148.699 48.4453C147.46 47.8073 146.047 47.4883 144.461 47.4883C142.857 47.4883 141.426 47.7982 140.168 48.418C138.928 49.0378 137.953 49.8945 137.242 50.9883C136.531 52.082 136.176 53.3398 136.176 54.7617C136.176 56.1107 136.513 57.2956 137.188 58.3164C137.862 59.3372 138.819 60.1302 140.059 60.6953C141.298 61.2422 142.766 61.5156 144.461 61.5156ZM144.461 42.5938C145.81 42.5938 147.004 42.3203 148.043 41.7734C149.1 41.2266 149.93 40.4701 150.531 39.5039C151.151 38.5378 151.461 37.4076 151.461 36.1133C151.461 34.8372 151.16 33.7253 150.559 32.7773C149.975 31.8294 149.155 31.0911 148.098 30.5625C147.059 30.0339 145.846 29.7695 144.461 29.7695C143.057 29.7695 141.827 30.0339 140.77 30.5625C139.712 31.0911 138.892 31.8294 138.309 32.7773C137.725 33.7253 137.434 34.8372 137.434 36.1133C137.434 37.4076 137.734 38.5378 138.336 39.5039C138.938 40.4701 139.758 41.2266 140.797 41.7734C141.854 42.3203 143.076 42.5938 144.461 42.5938ZM184.37 58.3438V56.2109C184.37 54.6615 184.689 53.2487 185.327 51.9727C185.965 50.6966 186.904 49.6758 188.143 48.9102C189.383 48.1263 190.887 47.7344 192.655 47.7344C194.46 47.7344 195.973 48.1172 197.194 48.8828C198.415 49.6484 199.336 50.6784 199.956 51.9727C200.575 53.2487 200.885 54.6615 200.885 56.2109V58.3438C200.885 59.8932 200.566 61.3151 199.928 62.6094C199.308 63.8854 198.388 64.9062 197.167 65.6719C195.945 66.4375 194.441 66.8203 192.655 66.8203C190.868 66.8203 189.355 66.4375 188.116 65.6719C186.876 64.9062 185.937 63.8854 185.299 62.6094C184.68 61.3151 184.37 59.8932 184.37 58.3438ZM188.991 56.2109V58.3438C188.991 59.4922 189.264 60.5312 189.811 61.4609C190.358 62.3906 191.306 62.8555 192.655 62.8555C193.986 62.8555 194.915 62.3906 195.444 61.4609C195.973 60.5312 196.237 59.4922 196.237 58.3438V56.2109C196.237 55.0625 195.982 54.0326 195.471 53.1211C194.961 52.1914 194.022 51.7266 192.655 51.7266C191.324 51.7266 190.376 52.1914 189.811 53.1211C189.264 54.0326 188.991 55.0625 188.991 56.2109ZM163.889 35.0469V32.9141C163.889 31.3646 164.208 29.9518 164.846 28.6758C165.502 27.3815 166.441 26.3516 167.663 25.5859C168.902 24.8203 170.397 24.4375 172.147 24.4375C173.952 24.4375 175.465 24.8203 176.686 25.5859C177.926 26.3516 178.855 27.3815 179.475 28.6758C180.095 29.9518 180.396 31.3646 180.377 32.9141V35.0469C180.396 36.5781 180.086 37.9909 179.448 39.2852C178.81 40.5612 177.88 41.5911 176.659 42.375C175.437 43.1406 173.933 43.5234 172.147 43.5234C170.361 43.5234 168.848 43.1406 167.608 42.375C166.387 41.5911 165.457 40.5612 164.819 39.2852C164.199 37.9909 163.889 36.5781 163.889 35.0469ZM168.51 32.9141V35.0469C168.51 36.1953 168.784 37.2344 169.331 38.1641C169.877 39.0938 170.816 39.5495 172.147 39.5312C173.496 39.5495 174.435 39.0938 174.963 38.1641C175.492 37.2344 175.756 36.1953 175.756 35.0469V32.9141C175.756 31.7656 175.501 30.7266 174.991 29.7969C174.48 28.8672 173.532 28.4115 172.147 28.4297C170.835 28.4115 169.896 28.8672 169.331 29.7969C168.784 30.7266 168.51 31.7656 168.51 32.9141ZM165.776 66L193.776 25.2578H198.534L170.534 66H165.776Z" fill="#6F00FF"/>
    </g>
    <defs>
        <filter id="filter0_d_5414_3311" x="0" y="0" width="334" height="108" filterUnits="userSpaceOnUse" color-interpolation-filters="sRGB">
            <feFlood flood-opacity="0" result="BackgroundImageFix"/>
            <feColorMatrix in="SourceAlpha" type="matrix" values="0 0 0 0 0 0 0 0 0 0 0 0 0 0 0 0 0 0 127 0" result="hardAlpha"/>
            <feOffset dy="8"/>
            <feGaussianBlur stdDeviation="8"/>
            <feComposite in2="hardAlpha" operator="out"/>
            <feColorMatrix type="matrix" values="0 0 0 0 0.188235 0 0 0 0 0.188235 0 0 0 0 0.188235 0 0 0 0.08 0"/>
            <feBlend mode="normal" in2="BackgroundImageFix" result="effect1_dropShadow_5414_3311"/>
            <feBlend mode="normal" in="SourceGraphic" in2="effect1_dropShadow_5414_3311" result="shape"/>
        </filter>
    </defs>
</svg>
