<svg width="325" height="108" viewBox="0 0 325 108" fill="none" xmlns="http://www.w3.org/2000/svg">
<g filter="url(#filter0_d_5373_4374)">
<rect x="16" y="8" width="293" height="76" rx="12" fill="white"/>
<path d="M140.461 66.5469C137.617 66.5469 135.102 66.0547 132.914 65.0703C130.745 64.0859 129.04 62.737 127.801 61.0234C126.579 59.2917 125.969 57.3229 125.969 55.1172C125.969 53.4219 126.324 51.8451 127.035 50.3867C127.764 48.9284 128.749 47.7161 129.988 46.75C131.228 45.7839 132.622 45.1641 134.172 44.8906V44.6445C132.148 44.1523 130.517 43.0677 129.277 41.3906C128.056 39.6953 127.445 37.763 127.445 35.5938C127.445 33.4974 128.001 31.6289 129.113 29.9883C130.243 28.3477 131.784 27.0625 133.734 26.1328C135.703 25.1849 137.945 24.7109 140.461 24.7109C142.94 24.7109 145.155 25.1849 147.105 26.1328C149.074 27.0625 150.615 28.3477 151.727 29.9883C152.857 31.6289 153.422 33.4974 153.422 35.5938C153.422 37.763 152.802 39.6953 151.562 41.3906C150.341 43.0677 148.737 44.1523 146.75 44.6445V44.8906C148.281 45.1641 149.667 45.7839 150.906 46.75C152.146 47.7161 153.13 48.9284 153.859 50.3867C154.589 51.8451 154.953 53.4219 154.953 55.1172C154.953 57.3229 154.333 59.2917 153.094 61.0234C151.854 62.737 150.141 64.0859 147.953 65.0703C145.784 66.0547 143.286 66.5469 140.461 66.5469ZM140.461 61.5156C142.138 61.5156 143.596 61.2422 144.836 60.6953C146.076 60.1302 147.033 59.3372 147.707 58.3164C148.382 57.2956 148.719 56.1107 148.719 54.7617C148.719 53.3398 148.354 52.0911 147.625 51.0156C146.914 49.9219 145.939 49.0651 144.699 48.4453C143.46 47.8073 142.047 47.4883 140.461 47.4883C138.857 47.4883 137.426 47.7982 136.168 48.418C134.928 49.0378 133.953 49.8945 133.242 50.9883C132.531 52.082 132.176 53.3398 132.176 54.7617C132.176 56.1107 132.513 57.2956 133.188 58.3164C133.862 59.3372 134.819 60.1302 136.059 60.6953C137.298 61.2422 138.766 61.5156 140.461 61.5156ZM140.461 42.5938C141.81 42.5938 143.004 42.3203 144.043 41.7734C145.1 41.2266 145.93 40.4701 146.531 39.5039C147.151 38.5378 147.461 37.4076 147.461 36.1133C147.461 34.8372 147.16 33.7253 146.559 32.7773C145.975 31.8294 145.155 31.0911 144.098 30.5625C143.059 30.0339 141.846 29.7695 140.461 29.7695C139.057 29.7695 137.827 30.0339 136.77 30.5625C135.712 31.0911 134.892 31.8294 134.309 32.7773C133.725 33.7253 133.434 34.8372 133.434 36.1133C133.434 37.4076 133.734 38.5378 134.336 39.5039C134.938 40.4701 135.758 41.2266 136.797 41.7734C137.854 42.3203 139.076 42.5938 140.461 42.5938ZM180.37 58.3438V56.2109C180.37 54.6615 180.689 53.2487 181.327 51.9727C181.965 50.6966 182.904 49.6758 184.143 48.9102C185.383 48.1263 186.887 47.7344 188.655 47.7344C190.46 47.7344 191.973 48.1172 193.194 48.8828C194.415 49.6484 195.336 50.6784 195.956 51.9727C196.575 53.2487 196.885 54.6615 196.885 56.2109V58.3438C196.885 59.8932 196.566 61.3151 195.928 62.6094C195.308 63.8854 194.388 64.9062 193.167 65.6719C191.945 66.4375 190.441 66.8203 188.655 66.8203C186.868 66.8203 185.355 66.4375 184.116 65.6719C182.876 64.9062 181.937 63.8854 181.299 62.6094C180.68 61.3151 180.37 59.8932 180.37 58.3438ZM184.991 56.2109V58.3438C184.991 59.4922 185.264 60.5312 185.811 61.4609C186.358 62.3906 187.306 62.8555 188.655 62.8555C189.986 62.8555 190.915 62.3906 191.444 61.4609C191.973 60.5312 192.237 59.4922 192.237 58.3438V56.2109C192.237 55.0625 191.982 54.0326 191.471 53.1211C190.961 52.1914 190.022 51.7266 188.655 51.7266C187.324 51.7266 186.376 52.1914 185.811 53.1211C185.264 54.0326 184.991 55.0625 184.991 56.2109ZM159.889 35.0469V32.9141C159.889 31.3646 160.208 29.9518 160.846 28.6758C161.502 27.3815 162.441 26.3516 163.663 25.5859C164.902 24.8203 166.397 24.4375 168.147 24.4375C169.952 24.4375 171.465 24.8203 172.686 25.5859C173.926 26.3516 174.855 27.3815 175.475 28.6758C176.095 29.9518 176.396 31.3646 176.377 32.9141V35.0469C176.396 36.5781 176.086 37.9909 175.448 39.2852C174.81 40.5612 173.88 41.5911 172.659 42.375C171.437 43.1406 169.933 43.5234 168.147 43.5234C166.361 43.5234 164.848 43.1406 163.608 42.375C162.387 41.5911 161.457 40.5612 160.819 39.2852C160.199 37.9909 159.889 36.5781 159.889 35.0469ZM164.51 32.9141V35.0469C164.51 36.1953 164.784 37.2344 165.331 38.1641C165.877 39.0938 166.816 39.5495 168.147 39.5312C169.496 39.5495 170.435 39.0938 170.963 38.1641C171.492 37.2344 171.756 36.1953 171.756 35.0469V32.9141C171.756 31.7656 171.501 30.7266 170.991 29.7969C170.48 28.8672 169.532 28.4115 168.147 28.4297C166.835 28.4115 165.896 28.8672 165.331 29.7969C164.784 30.7266 164.51 31.7656 164.51 32.9141ZM161.776 66L189.776 25.2578H194.534L166.534 66H161.776Z" fill="#6F00FF"/>
</g>
<defs>
<filter id="filter0_d_5373_4374" x="0" y="0" width="325" height="108" filterUnits="userSpaceOnUse" color-interpolation-filters="sRGB">
<feFlood flood-opacity="0" result="BackgroundImageFix"/>
<feColorMatrix in="SourceAlpha" type="matrix" values="0 0 0 0 0 0 0 0 0 0 0 0 0 0 0 0 0 0 127 0" result="hardAlpha"/>
<feOffset dy="8"/>
<feGaussianBlur stdDeviation="8"/>
<feComposite in2="hardAlpha" operator="out"/>
<feColorMatrix type="matrix" values="0 0 0 0 0.188235 0 0 0 0 0.188235 0 0 0 0 0.188235 0 0 0 0.08 0"/>
<feBlend mode="normal" in2="BackgroundImageFix" result="effect1_dropShadow_5373_4374"/>
<feBlend mode="normal" in="SourceGraphic" in2="effect1_dropShadow_5373_4374" result="shape"/>
</filter>
</defs>
</svg>
