<svg width="334" height="108" viewBox="0 0 334 108" fill="none" xmlns="http://www.w3.org/2000/svg">
    <g filter="url(#filter0_d_5414_3330)">
        <rect x="16" y="8" width="302" height="76" rx="12" fill="white"/>
        <path d="M76.3333 32.6667H71C68.1997 32.6667 66.7996 32.6667 65.73 33.2116C64.7892 33.691 64.0243 34.4559 63.545 35.3967C63 36.4663 63 37.8664 63 40.6667V49.3333C63 50.8833 63 51.6583 63.1704 52.2941C63.6327 54.0196 64.9804 55.3673 66.7059 55.8296C67.3417 56 68.1167 56 69.6667 56V59.8925C69.6667 60.7806 69.6667 61.2246 69.8487 61.4527C70.007 61.651 70.2471 61.7664 70.5009 61.7661C70.7927 61.7658 71.1395 61.4884 71.8329 60.9337L75.8087 57.7531C76.6209 57.1033 77.0269 56.7784 77.4791 56.5474C77.8803 56.3425 78.3074 56.1927 78.7487 56.1021C79.2461 56 79.7662 56 80.8062 56H83.3333C86.1336 56 87.5337 56 88.6033 55.455C89.5441 54.9757 90.309 54.2108 90.7884 53.27C91.3333 52.2004 91.3333 50.8003 91.3333 48V47.6667M91.5355 32.4645C93.4882 34.4171 93.4882 37.5829 91.5355 39.5355C89.5829 41.4882 86.4171 41.4882 84.4645 39.5355C82.5118 37.5829 82.5118 34.4171 84.4645 32.4645C86.4171 30.5118 89.5829 30.5118 91.5355 32.4645Z" stroke="#6F00FF" stroke-width="3.5" stroke-linecap="round" stroke-linejoin="round"/>
        <path d="M107.455 38.4492H109.643V43.2539C109.636 44.2565 109.89 44.9499 110.404 45.334C110.925 45.7116 111.661 45.9004 112.611 45.9004C112.943 45.9004 113.282 45.8874 113.627 45.8613C113.979 45.8353 114.327 45.7995 114.672 45.7539C115.023 45.7018 115.359 45.6432 115.678 45.5781C116.003 45.5065 116.306 45.4284 116.586 45.3438V47.1992C116.306 47.2904 116.013 47.3717 115.707 47.4434C115.408 47.515 115.092 47.5768 114.76 47.6289C114.428 47.6745 114.083 47.7103 113.725 47.7363C113.367 47.7559 112.995 47.7656 112.611 47.7656C111.55 47.7656 110.635 47.6159 109.867 47.3164C109.099 47.0169 108.507 46.5352 108.09 45.8711C107.673 45.207 107.462 44.3346 107.455 43.2539V38.4492ZM116.254 38.4492H118.432V53H116.254V38.4492ZM123.793 53.2344C123.103 53.2344 122.478 53.1074 121.918 52.8535C121.358 52.5931 120.915 52.2155 120.59 51.7207C120.264 51.2259 120.102 50.6237 120.102 49.9141C120.102 49.2956 120.219 48.791 120.453 48.4004C120.694 48.0033 121.016 47.6875 121.42 47.4531C121.824 47.2188 122.273 47.043 122.768 46.9258C123.262 46.8086 123.77 46.7174 124.291 46.6523C124.949 46.5807 125.479 46.5189 125.883 46.4668C126.286 46.4147 126.579 46.3333 126.762 46.2227C126.951 46.1055 127.045 45.9199 127.045 45.666V45.6172C127.045 44.9987 126.869 44.5202 126.518 44.1816C126.173 43.8431 125.658 43.6738 124.975 43.6738C124.265 43.6738 123.702 43.8301 123.285 44.1426C122.875 44.4486 122.592 44.7969 122.436 45.1875L120.434 44.7285C120.674 44.0645 121.023 43.5306 121.479 43.127C121.941 42.7168 122.468 42.4173 123.061 42.2285C123.66 42.0397 124.285 41.9453 124.936 41.9453C125.372 41.9453 125.834 41.9974 126.322 42.1016C126.811 42.1992 127.27 42.3848 127.699 42.6582C128.135 42.9251 128.49 43.3092 128.764 43.8105C129.037 44.3118 129.174 44.9596 129.174 45.7539V53H127.094V51.5059H127.016C126.885 51.7728 126.68 52.0397 126.4 52.3066C126.127 52.5736 125.775 52.7949 125.346 52.9707C124.916 53.1465 124.398 53.2344 123.793 53.2344ZM124.252 51.5352C124.844 51.5352 125.349 51.4212 125.766 51.1934C126.182 50.959 126.501 50.653 126.723 50.2754C126.944 49.8978 127.055 49.4974 127.055 49.0742V47.6582C126.977 47.7298 126.83 47.7982 126.615 47.8633C126.4 47.9284 126.156 47.9837 125.883 48.0293C125.609 48.0749 125.342 48.1172 125.082 48.1562C124.822 48.1888 124.604 48.2148 124.428 48.2344C124.018 48.293 123.643 48.3841 123.305 48.5078C122.966 48.625 122.693 48.8008 122.484 49.0352C122.283 49.263 122.182 49.5658 122.182 49.9434C122.182 50.4707 122.377 50.8678 122.768 51.1348C123.158 51.4017 123.653 51.5352 124.252 51.5352ZM129.857 43.918V42.082H139.047V43.918H135.502V53H133.422V43.918H129.857ZM149.506 53.2246C148.458 53.2246 147.553 52.9837 146.791 52.502C146.029 52.0202 145.443 51.3561 145.033 50.5098C144.623 49.6634 144.418 48.6934 144.418 47.5996C144.418 46.4863 144.626 45.5065 145.043 44.6602C145.466 43.8073 146.055 43.1432 146.811 42.668C147.572 42.1862 148.464 41.9453 149.486 41.9453C150.32 41.9453 151.059 42.0983 151.703 42.4043C152.354 42.7038 152.878 43.1302 153.275 43.6836C153.679 44.237 153.917 44.8815 153.988 45.6172H151.918C151.846 45.2721 151.706 44.9564 151.498 44.6699C151.296 44.3835 151.029 44.1556 150.697 43.9863C150.365 43.8171 149.971 43.7324 149.516 43.7324C148.923 43.7324 148.406 43.8887 147.963 44.2012C147.527 44.5072 147.185 44.9466 146.938 45.5195C146.69 46.0924 146.566 46.7695 146.566 47.5508C146.566 48.3385 146.687 49.0254 146.928 49.6113C147.169 50.1973 147.51 50.6497 147.953 50.9688C148.402 51.2812 148.923 51.4375 149.516 51.4375C150.128 51.4375 150.648 51.2682 151.078 50.9297C151.514 50.5911 151.794 50.1289 151.918 49.543H153.988C153.917 50.2526 153.689 50.8841 153.305 51.4375C152.921 51.9909 152.406 52.4271 151.762 52.7461C151.117 53.0651 150.365 53.2246 149.506 53.2246ZM159.945 53V42.082H168.832V53H166.752V43.918H161.996V53H159.945ZM175.443 53.2246C174.421 53.2246 173.526 52.9902 172.758 52.5215C171.996 52.0527 171.404 51.3952 170.98 50.5488C170.564 49.7025 170.355 48.7194 170.355 47.5996C170.355 46.4668 170.564 45.4772 170.98 44.6309C171.404 43.778 171.996 43.1172 172.758 42.6484C173.526 42.1797 174.421 41.9453 175.443 41.9453C176.472 41.9453 177.367 42.1797 178.129 42.6484C178.891 43.1172 179.483 43.778 179.906 44.6309C180.329 45.4772 180.541 46.4668 180.541 47.5996C180.541 48.7194 180.329 49.7025 179.906 50.5488C179.483 51.3952 178.891 52.0527 178.129 52.5215C177.367 52.9902 176.472 53.2246 175.443 53.2246ZM175.443 51.4375C176.114 51.4375 176.667 51.2617 177.104 50.9102C177.54 50.5586 177.862 50.0931 178.07 49.5137C178.285 48.9277 178.393 48.2897 178.393 47.5996C178.393 46.8965 178.285 46.252 178.07 45.666C177.862 45.0801 177.54 44.6113 177.104 44.2598C176.667 43.9082 176.114 43.7324 175.443 43.7324C174.779 43.7324 174.229 43.9082 173.793 44.2598C173.363 44.6113 173.041 45.0801 172.826 45.666C172.611 46.252 172.504 46.8965 172.504 47.5996C172.504 48.2897 172.611 48.9277 172.826 49.5137C173.041 50.0931 173.363 50.5586 173.793 50.9102C174.229 51.2617 174.779 51.4375 175.443 51.4375ZM181 56.1445V51.1641H181.879C182.107 50.9557 182.302 50.7083 182.465 50.4219C182.628 50.1289 182.761 49.7839 182.865 49.3867C182.976 48.9831 183.07 48.5176 183.148 47.9902C183.227 47.4629 183.295 46.8542 183.354 46.1641L183.695 42.082H191.107V51.1641H192.787V56.1445H190.707V53H183.109V56.1445H181ZM184.164 51.1641H189.037V43.8984H185.59L185.355 46.1641C185.258 47.3164 185.124 48.3125 184.955 49.1523C184.792 49.9857 184.529 50.6562 184.164 51.1641ZM192.953 56.1445V51.1641H193.832C194.06 50.9557 194.255 50.7083 194.418 50.4219C194.581 50.1289 194.714 49.7839 194.818 49.3867C194.929 48.9831 195.023 48.5176 195.102 47.9902C195.18 47.4629 195.248 46.8542 195.307 46.1641L195.648 42.082H203.061V51.1641H204.74V56.1445H202.66V53H195.062V56.1445H192.953ZM196.117 51.1641H200.99V43.8984H197.543L197.309 46.1641C197.211 47.3164 197.077 48.3125 196.908 49.1523C196.745 49.9857 196.482 50.6562 196.117 51.1641ZM210.678 53.2246C209.61 53.2246 208.686 52.9935 207.904 52.5312C207.123 52.069 206.521 51.418 206.098 50.5781C205.681 49.7318 205.473 48.7454 205.473 47.6191C205.473 46.4993 205.678 45.513 206.088 44.6602C206.505 43.8073 207.087 43.1432 207.836 42.668C208.591 42.1862 209.477 41.9453 210.492 41.9453C211.111 41.9453 211.71 42.0462 212.289 42.248C212.868 42.4499 213.389 42.7689 213.852 43.2051C214.314 43.6413 214.678 44.2077 214.945 44.9043C215.219 45.6009 215.355 46.4408 215.355 47.4238V48.1855H206.674V46.5938H214.262L213.275 47.1211C213.275 46.4505 213.171 45.8581 212.963 45.3438C212.755 44.8294 212.442 44.429 212.025 44.1426C211.615 43.8496 211.104 43.7031 210.492 43.7031C209.88 43.7031 209.356 43.8496 208.92 44.1426C208.49 44.4355 208.161 44.8229 207.934 45.3047C207.706 45.7865 207.592 46.3138 207.592 46.8867V47.9707C207.592 48.7194 207.722 49.3542 207.982 49.875C208.243 50.3958 208.604 50.793 209.066 51.0664C209.535 51.3398 210.079 51.4766 210.697 51.4766C211.101 51.4766 211.465 51.418 211.791 51.3008C212.123 51.1836 212.41 51.0078 212.65 50.7734C212.891 50.5391 213.074 50.2493 213.197 49.9043L215.209 50.2852C215.046 50.8711 214.76 51.3854 214.35 51.8281C213.939 52.2708 213.422 52.6159 212.797 52.8633C212.178 53.1042 211.472 53.2246 210.678 53.2246ZM216.84 57.082V42.082H218.891V43.8594H219.066C219.197 43.6315 219.376 43.3678 219.604 43.0684C219.838 42.7689 220.163 42.5085 220.58 42.2871C220.997 42.0592 221.54 41.9453 222.211 41.9453C223.09 41.9453 223.871 42.1667 224.555 42.6094C225.245 43.0521 225.788 43.6934 226.186 44.5332C226.583 45.373 226.781 46.3854 226.781 47.5703C226.781 48.7422 226.586 49.7513 226.195 50.5977C225.805 51.4375 225.264 52.0853 224.574 52.541C223.891 52.9902 223.106 53.2148 222.221 53.2148C221.563 53.2148 221.023 53.1042 220.6 52.8828C220.183 52.6549 219.854 52.3913 219.613 52.0918C219.379 51.7923 219.197 51.5286 219.066 51.3008H218.949V57.082H216.84ZM221.762 51.4082C222.393 51.4082 222.921 51.2389 223.344 50.9004C223.767 50.5618 224.086 50.1029 224.301 49.5234C224.522 48.9375 224.633 48.2799 224.633 47.5508C224.633 46.8281 224.525 46.1803 224.311 45.6074C224.096 45.0345 223.777 44.582 223.354 44.25C222.93 43.918 222.4 43.752 221.762 43.752C221.143 43.752 220.622 43.9115 220.199 44.2305C219.776 44.543 219.454 44.9857 219.232 45.5586C219.018 46.125 218.91 46.7891 218.91 47.5508C218.91 48.3125 219.021 48.9831 219.242 49.5625C219.464 50.1419 219.786 50.5944 220.209 50.9199C220.639 51.2454 221.156 51.4082 221.762 51.4082ZM227.191 53L231.43 47.4141L227.24 42.082H229.711L233.09 46.623H233.842V42.082H235.971V46.623H236.703L240.072 42.082H242.553L238.383 47.4141L242.602 53H240.082L236.684 48.4492H235.971V53H233.842V48.4492H233.129L229.711 53H227.191ZM243.93 53V42.082H246.039V46.6621H247.064L250.668 42.082H253.285L249.076 47.4043L253.344 53H250.707L247.416 48.6348H246.039V53H243.93ZM258.275 53.2246C257.253 53.2246 256.358 52.9902 255.59 52.5215C254.828 52.0527 254.236 51.3952 253.812 50.5488C253.396 49.7025 253.188 48.7194 253.188 47.5996C253.188 46.4668 253.396 45.4772 253.812 44.6309C254.236 43.778 254.828 43.1172 255.59 42.6484C256.358 42.1797 257.253 41.9453 258.275 41.9453C259.304 41.9453 260.199 42.1797 260.961 42.6484C261.723 43.1172 262.315 43.778 262.738 44.6309C263.161 45.4772 263.373 46.4668 263.373 47.5996C263.373 48.7194 263.161 49.7025 262.738 50.5488C262.315 51.3952 261.723 52.0527 260.961 52.5215C260.199 52.9902 259.304 53.2246 258.275 53.2246ZM258.275 51.4375C258.946 51.4375 259.499 51.2617 259.936 50.9102C260.372 50.5586 260.694 50.0931 260.902 49.5137C261.117 48.9277 261.225 48.2897 261.225 47.5996C261.225 46.8965 261.117 46.252 260.902 45.666C260.694 45.0801 260.372 44.6113 259.936 44.2598C259.499 43.9082 258.946 43.7324 258.275 43.7324C257.611 43.7324 257.061 43.9082 256.625 44.2598C256.195 44.6113 255.873 45.0801 255.658 45.666C255.443 46.252 255.336 46.8965 255.336 47.5996C255.336 48.2897 255.443 48.9277 255.658 49.5137C255.873 50.0931 256.195 50.5586 256.625 50.9102C257.061 51.2617 257.611 51.4375 258.275 51.4375ZM266.967 50.0117L271.781 42.082H274.066V53H271.996V45.0605L267.201 53H264.906V42.082H266.967V50.0117ZM269.467 40.8125C268.536 40.8125 267.781 40.5586 267.201 40.0508C266.622 39.5365 266.332 38.8691 266.332 38.0488H268.08C268.08 38.4655 268.207 38.804 268.461 39.0645C268.715 39.3184 269.05 39.4453 269.467 39.4453C269.883 39.4453 270.219 39.3184 270.473 39.0645C270.727 38.804 270.854 38.4655 270.854 38.0488H272.602C272.602 38.8691 272.312 39.5365 271.732 40.0508C271.153 40.5586 270.398 40.8125 269.467 40.8125Z" fill="#6F00FF"/>
    </g>
    <defs>
        <filter id="filter0_d_5414_3330" x="0" y="0" width="334" height="108" filterUnits="userSpaceOnUse" color-interpolation-filters="sRGB">
            <feFlood flood-opacity="0" result="BackgroundImageFix"/>
            <feColorMatrix in="SourceAlpha" type="matrix" values="0 0 0 0 0 0 0 0 0 0 0 0 0 0 0 0 0 0 127 0" result="hardAlpha"/>
            <feOffset dy="8"/>
            <feGaussianBlur stdDeviation="8"/>
            <feComposite in2="hardAlpha" operator="out"/>
            <feColorMatrix type="matrix" values="0 0 0 0 0.188235 0 0 0 0 0.188235 0 0 0 0 0.188235 0 0 0 0.08 0"/>
            <feBlend mode="normal" in2="BackgroundImageFix" result="effect1_dropShadow_5414_3330"/>
            <feBlend mode="normal" in="SourceGraphic" in2="effect1_dropShadow_5414_3330" result="shape"/>
        </filter>
    </defs>
</svg>
