<svg width="325" height="108" viewBox="0 0 325 108" fill="none" xmlns="http://www.w3.org/2000/svg">
<g filter="url(#filter0_d_5373_4380)">
<rect x="16" y="8" width="293" height="76" rx="12" fill="white"/>
<path d="M72.3333 32.6667H67C64.1997 32.6667 62.7996 32.6667 61.73 33.2116C60.7892 33.691 60.0243 34.4559 59.545 35.3967C59 36.4663 59 37.8664 59 40.6667V49.3333C59 50.8833 59 51.6583 59.1704 52.2941C59.6327 54.0196 60.9804 55.3673 62.7059 55.8296C63.3417 56 64.1167 56 65.6667 56V59.8925C65.6667 60.7806 65.6667 61.2246 65.8487 61.4527C66.007 61.651 66.2471 61.7664 66.5009 61.7661C66.7927 61.7658 67.1395 61.4884 67.8329 60.9337L71.8087 57.7531C72.6209 57.1033 73.0269 56.7784 73.4791 56.5474C73.8803 56.3425 74.3074 56.1927 74.7487 56.1021C75.2461 56 75.7662 56 76.8062 56H79.3333C82.1336 56 83.5337 56 84.6033 55.455C85.5441 54.9757 86.309 54.2108 86.7884 53.27C87.3333 52.2004 87.3333 50.8003 87.3333 48V47.6667M87.5355 32.4645C89.4882 34.4171 89.4882 37.5829 87.5355 39.5355C85.5829 41.4882 82.4171 41.4882 80.4645 39.5355C78.5118 37.5829 78.5118 34.4171 80.4645 32.4645C82.4171 30.5118 85.5829 30.5118 87.5355 32.4645Z" stroke="#6F00FF" stroke-width="3.5" stroke-linecap="round" stroke-linejoin="round"/>
<path d="M103.455 38.4492H105.643V43.2539C105.636 44.2565 105.89 44.9499 106.404 45.334C106.925 45.7116 107.661 45.9004 108.611 45.9004C108.943 45.9004 109.282 45.8874 109.627 45.8613C109.979 45.8353 110.327 45.7995 110.672 45.7539C111.023 45.7018 111.359 45.6432 111.678 45.5781C112.003 45.5065 112.306 45.4284 112.586 45.3438V47.1992C112.306 47.2904 112.013 47.3717 111.707 47.4434C111.408 47.515 111.092 47.5768 110.76 47.6289C110.428 47.6745 110.083 47.7103 109.725 47.7363C109.367 47.7559 108.995 47.7656 108.611 47.7656C107.55 47.7656 106.635 47.6159 105.867 47.3164C105.099 47.0169 104.507 46.5352 104.09 45.8711C103.673 45.207 103.462 44.3346 103.455 43.2539V38.4492ZM112.254 38.4492H114.432V53H112.254V38.4492ZM119.793 53.2344C119.103 53.2344 118.478 53.1074 117.918 52.8535C117.358 52.5931 116.915 52.2155 116.59 51.7207C116.264 51.2259 116.102 50.6237 116.102 49.9141C116.102 49.2956 116.219 48.791 116.453 48.4004C116.694 48.0033 117.016 47.6875 117.42 47.4531C117.824 47.2188 118.273 47.043 118.768 46.9258C119.262 46.8086 119.77 46.7174 120.291 46.6523C120.949 46.5807 121.479 46.5189 121.883 46.4668C122.286 46.4147 122.579 46.3333 122.762 46.2227C122.951 46.1055 123.045 45.9199 123.045 45.666V45.6172C123.045 44.9987 122.869 44.5202 122.518 44.1816C122.173 43.8431 121.658 43.6738 120.975 43.6738C120.265 43.6738 119.702 43.8301 119.285 44.1426C118.875 44.4486 118.592 44.7969 118.436 45.1875L116.434 44.7285C116.674 44.0645 117.023 43.5306 117.479 43.127C117.941 42.7168 118.468 42.4173 119.061 42.2285C119.66 42.0397 120.285 41.9453 120.936 41.9453C121.372 41.9453 121.834 41.9974 122.322 42.1016C122.811 42.1992 123.27 42.3848 123.699 42.6582C124.135 42.9251 124.49 43.3092 124.764 43.8105C125.037 44.3118 125.174 44.9596 125.174 45.7539V53H123.094V51.5059H123.016C122.885 51.7728 122.68 52.0397 122.4 52.3066C122.127 52.5736 121.775 52.7949 121.346 52.9707C120.916 53.1465 120.398 53.2344 119.793 53.2344ZM120.252 51.5352C120.844 51.5352 121.349 51.4212 121.766 51.1934C122.182 50.959 122.501 50.653 122.723 50.2754C122.944 49.8978 123.055 49.4974 123.055 49.0742V47.6582C122.977 47.7298 122.83 47.7982 122.615 47.8633C122.4 47.9284 122.156 47.9837 121.883 48.0293C121.609 48.0749 121.342 48.1172 121.082 48.1562C120.822 48.1888 120.604 48.2148 120.428 48.2344C120.018 48.293 119.643 48.3841 119.305 48.5078C118.966 48.625 118.693 48.8008 118.484 49.0352C118.283 49.263 118.182 49.5658 118.182 49.9434C118.182 50.4707 118.377 50.8678 118.768 51.1348C119.158 51.4017 119.653 51.5352 120.252 51.5352ZM125.857 43.918V42.082H135.047V43.918H131.502V53H129.422V43.918H125.857ZM145.506 53.2246C144.458 53.2246 143.553 52.9837 142.791 52.502C142.029 52.0202 141.443 51.3561 141.033 50.5098C140.623 49.6634 140.418 48.6934 140.418 47.5996C140.418 46.4863 140.626 45.5065 141.043 44.6602C141.466 43.8073 142.055 43.1432 142.811 42.668C143.572 42.1862 144.464 41.9453 145.486 41.9453C146.32 41.9453 147.059 42.0983 147.703 42.4043C148.354 42.7038 148.878 43.1302 149.275 43.6836C149.679 44.237 149.917 44.8815 149.988 45.6172H147.918C147.846 45.2721 147.706 44.9564 147.498 44.6699C147.296 44.3835 147.029 44.1556 146.697 43.9863C146.365 43.8171 145.971 43.7324 145.516 43.7324C144.923 43.7324 144.406 43.8887 143.963 44.2012C143.527 44.5072 143.185 44.9466 142.938 45.5195C142.69 46.0924 142.566 46.7695 142.566 47.5508C142.566 48.3385 142.687 49.0254 142.928 49.6113C143.169 50.1973 143.51 50.6497 143.953 50.9688C144.402 51.2812 144.923 51.4375 145.516 51.4375C146.128 51.4375 146.648 51.2682 147.078 50.9297C147.514 50.5911 147.794 50.1289 147.918 49.543H149.988C149.917 50.2526 149.689 50.8841 149.305 51.4375C148.921 51.9909 148.406 52.4271 147.762 52.7461C147.117 53.0651 146.365 53.2246 145.506 53.2246ZM155.945 53V42.082H164.832V53H162.752V43.918H157.996V53H155.945ZM171.443 53.2246C170.421 53.2246 169.526 52.9902 168.758 52.5215C167.996 52.0527 167.404 51.3952 166.98 50.5488C166.564 49.7025 166.355 48.7194 166.355 47.5996C166.355 46.4668 166.564 45.4772 166.98 44.6309C167.404 43.778 167.996 43.1172 168.758 42.6484C169.526 42.1797 170.421 41.9453 171.443 41.9453C172.472 41.9453 173.367 42.1797 174.129 42.6484C174.891 43.1172 175.483 43.778 175.906 44.6309C176.329 45.4772 176.541 46.4668 176.541 47.5996C176.541 48.7194 176.329 49.7025 175.906 50.5488C175.483 51.3952 174.891 52.0527 174.129 52.5215C173.367 52.9902 172.472 53.2246 171.443 53.2246ZM171.443 51.4375C172.114 51.4375 172.667 51.2617 173.104 50.9102C173.54 50.5586 173.862 50.0931 174.07 49.5137C174.285 48.9277 174.393 48.2897 174.393 47.5996C174.393 46.8965 174.285 46.252 174.07 45.666C173.862 45.0801 173.54 44.6113 173.104 44.2598C172.667 43.9082 172.114 43.7324 171.443 43.7324C170.779 43.7324 170.229 43.9082 169.793 44.2598C169.363 44.6113 169.041 45.0801 168.826 45.666C168.611 46.252 168.504 46.8965 168.504 47.5996C168.504 48.2897 168.611 48.9277 168.826 49.5137C169.041 50.0931 169.363 50.5586 169.793 50.9102C170.229 51.2617 170.779 51.4375 171.443 51.4375ZM177 56.1445V51.1641H177.879C178.107 50.9557 178.302 50.7083 178.465 50.4219C178.628 50.1289 178.761 49.7839 178.865 49.3867C178.976 48.9831 179.07 48.5176 179.148 47.9902C179.227 47.4629 179.295 46.8542 179.354 46.1641L179.695 42.082H187.107V51.1641H188.787V56.1445H186.707V53H179.109V56.1445H177ZM180.164 51.1641H185.037V43.8984H181.59L181.355 46.1641C181.258 47.3164 181.124 48.3125 180.955 49.1523C180.792 49.9857 180.529 50.6562 180.164 51.1641ZM188.953 56.1445V51.1641H189.832C190.06 50.9557 190.255 50.7083 190.418 50.4219C190.581 50.1289 190.714 49.7839 190.818 49.3867C190.929 48.9831 191.023 48.5176 191.102 47.9902C191.18 47.4629 191.248 46.8542 191.307 46.1641L191.648 42.082H199.061V51.1641H200.74V56.1445H198.66V53H191.062V56.1445H188.953ZM192.117 51.1641H196.99V43.8984H193.543L193.309 46.1641C193.211 47.3164 193.077 48.3125 192.908 49.1523C192.745 49.9857 192.482 50.6562 192.117 51.1641ZM206.678 53.2246C205.61 53.2246 204.686 52.9935 203.904 52.5312C203.123 52.069 202.521 51.418 202.098 50.5781C201.681 49.7318 201.473 48.7454 201.473 47.6191C201.473 46.4993 201.678 45.513 202.088 44.6602C202.505 43.8073 203.087 43.1432 203.836 42.668C204.591 42.1862 205.477 41.9453 206.492 41.9453C207.111 41.9453 207.71 42.0462 208.289 42.248C208.868 42.4499 209.389 42.7689 209.852 43.2051C210.314 43.6413 210.678 44.2077 210.945 44.9043C211.219 45.6009 211.355 46.4408 211.355 47.4238V48.1855H202.674V46.5938H210.262L209.275 47.1211C209.275 46.4505 209.171 45.8581 208.963 45.3438C208.755 44.8294 208.442 44.429 208.025 44.1426C207.615 43.8496 207.104 43.7031 206.492 43.7031C205.88 43.7031 205.356 43.8496 204.92 44.1426C204.49 44.4355 204.161 44.8229 203.934 45.3047C203.706 45.7865 203.592 46.3138 203.592 46.8867V47.9707C203.592 48.7194 203.722 49.3542 203.982 49.875C204.243 50.3958 204.604 50.793 205.066 51.0664C205.535 51.3398 206.079 51.4766 206.697 51.4766C207.101 51.4766 207.465 51.418 207.791 51.3008C208.123 51.1836 208.41 51.0078 208.65 50.7734C208.891 50.5391 209.074 50.2493 209.197 49.9043L211.209 50.2852C211.046 50.8711 210.76 51.3854 210.35 51.8281C209.939 52.2708 209.422 52.6159 208.797 52.8633C208.178 53.1042 207.472 53.2246 206.678 53.2246ZM212.84 57.082V42.082H214.891V43.8594H215.066C215.197 43.6315 215.376 43.3678 215.604 43.0684C215.838 42.7689 216.163 42.5085 216.58 42.2871C216.997 42.0592 217.54 41.9453 218.211 41.9453C219.09 41.9453 219.871 42.1667 220.555 42.6094C221.245 43.0521 221.788 43.6934 222.186 44.5332C222.583 45.373 222.781 46.3854 222.781 47.5703C222.781 48.7422 222.586 49.7513 222.195 50.5977C221.805 51.4375 221.264 52.0853 220.574 52.541C219.891 52.9902 219.106 53.2148 218.221 53.2148C217.563 53.2148 217.023 53.1042 216.6 52.8828C216.183 52.6549 215.854 52.3913 215.613 52.0918C215.379 51.7923 215.197 51.5286 215.066 51.3008H214.949V57.082H212.84ZM217.762 51.4082C218.393 51.4082 218.921 51.2389 219.344 50.9004C219.767 50.5618 220.086 50.1029 220.301 49.5234C220.522 48.9375 220.633 48.2799 220.633 47.5508C220.633 46.8281 220.525 46.1803 220.311 45.6074C220.096 45.0345 219.777 44.582 219.354 44.25C218.93 43.918 218.4 43.752 217.762 43.752C217.143 43.752 216.622 43.9115 216.199 44.2305C215.776 44.543 215.454 44.9857 215.232 45.5586C215.018 46.125 214.91 46.7891 214.91 47.5508C214.91 48.3125 215.021 48.9831 215.242 49.5625C215.464 50.1419 215.786 50.5944 216.209 50.9199C216.639 51.2454 217.156 51.4082 217.762 51.4082ZM223.191 53L227.43 47.4141L223.24 42.082H225.711L229.09 46.623H229.842V42.082H231.971V46.623H232.703L236.072 42.082H238.553L234.383 47.4141L238.602 53H236.082L232.684 48.4492H231.971V53H229.842V48.4492H229.129L225.711 53H223.191ZM239.93 53V42.082H242.039V46.6621H243.064L246.668 42.082H249.285L245.076 47.4043L249.344 53H246.707L243.416 48.6348H242.039V53H239.93ZM254.275 53.2246C253.253 53.2246 252.358 52.9902 251.59 52.5215C250.828 52.0527 250.236 51.3952 249.812 50.5488C249.396 49.7025 249.188 48.7194 249.188 47.5996C249.188 46.4668 249.396 45.4772 249.812 44.6309C250.236 43.778 250.828 43.1172 251.59 42.6484C252.358 42.1797 253.253 41.9453 254.275 41.9453C255.304 41.9453 256.199 42.1797 256.961 42.6484C257.723 43.1172 258.315 43.778 258.738 44.6309C259.161 45.4772 259.373 46.4668 259.373 47.5996C259.373 48.7194 259.161 49.7025 258.738 50.5488C258.315 51.3952 257.723 52.0527 256.961 52.5215C256.199 52.9902 255.304 53.2246 254.275 53.2246ZM254.275 51.4375C254.946 51.4375 255.499 51.2617 255.936 50.9102C256.372 50.5586 256.694 50.0931 256.902 49.5137C257.117 48.9277 257.225 48.2897 257.225 47.5996C257.225 46.8965 257.117 46.252 256.902 45.666C256.694 45.0801 256.372 44.6113 255.936 44.2598C255.499 43.9082 254.946 43.7324 254.275 43.7324C253.611 43.7324 253.061 43.9082 252.625 44.2598C252.195 44.6113 251.873 45.0801 251.658 45.666C251.443 46.252 251.336 46.8965 251.336 47.5996C251.336 48.2897 251.443 48.9277 251.658 49.5137C251.873 50.0931 252.195 50.5586 252.625 50.9102C253.061 51.2617 253.611 51.4375 254.275 51.4375ZM262.967 50.0117L267.781 42.082H270.066V53H267.996V45.0605L263.201 53H260.906V42.082H262.967V50.0117ZM265.467 40.8125C264.536 40.8125 263.781 40.5586 263.201 40.0508C262.622 39.5365 262.332 38.8691 262.332 38.0488H264.08C264.08 38.4655 264.207 38.804 264.461 39.0645C264.715 39.3184 265.05 39.4453 265.467 39.4453C265.883 39.4453 266.219 39.3184 266.473 39.0645C266.727 38.804 266.854 38.4655 266.854 38.0488H268.602C268.602 38.8691 268.312 39.5365 267.732 40.0508C267.153 40.5586 266.398 40.8125 265.467 40.8125Z" fill="#6F00FF"/>
</g>
<defs>
<filter id="filter0_d_5373_4380" x="0" y="0" width="325" height="108" filterUnits="userSpaceOnUse" color-interpolation-filters="sRGB">
<feFlood flood-opacity="0" result="BackgroundImageFix"/>
<feColorMatrix in="SourceAlpha" type="matrix" values="0 0 0 0 0 0 0 0 0 0 0 0 0 0 0 0 0 0 127 0" result="hardAlpha"/>
<feOffset dy="8"/>
<feGaussianBlur stdDeviation="8"/>
<feComposite in2="hardAlpha" operator="out"/>
<feColorMatrix type="matrix" values="0 0 0 0 0.188235 0 0 0 0 0.188235 0 0 0 0 0.188235 0 0 0 0.08 0"/>
<feBlend mode="normal" in2="BackgroundImageFix" result="effect1_dropShadow_5373_4380"/>
<feBlend mode="normal" in="SourceGraphic" in2="effect1_dropShadow_5373_4380" result="shape"/>
</filter>
</defs>
</svg>
