<svg width="220" height="130" viewBox="0 0 220 130" fill="none" xmlns="http://www.w3.org/2000/svg">
    <path d="M210.288 0.679688H9.71259C4.54527 0.679688 0.356323 4.87016 0.356323 10.0394V120.601C0.356323 125.77 4.54527 129.96 9.71259 129.96H210.288C215.455 129.96 219.644 125.77 219.644 120.601V10.0394C219.644 4.87016 215.455 0.679688 210.288 0.679688Z" fill="white"/>
    <path d="M203.27 13.2568H16.7298C13.0158 13.2568 10.005 16.2687 10.005 19.9841V38.7035C10.005 42.4188 13.0158 45.4307 16.7298 45.4307H203.27C206.984 45.4307 209.995 42.4188 209.995 38.7035V19.9841C209.995 16.2687 206.984 13.2568 203.27 13.2568Z" stroke="#E0E0E0"/>
    <mask id="mask0_1_6" style="mask-type:luminance" maskUnits="userSpaceOnUse" x="20" y="21" width="24" height="16">
        <path d="M43.6291 21.739H20.2384V36.3635H43.6291V21.739Z" fill="white"/>
    </mask>
    <g mask="url(#mask0_1_6)">
        <path d="M35.096 23.303H28.7715V34.7995H35.096V23.303Z" fill="#FF5F00"/>
        <path d="M29.1728 29.051C29.1728 26.8167 30.1967 24.684 31.9234 23.3028C28.7913 20.8044 24.2537 21.3528 21.7841 24.5418C19.3145 27.7104 19.8567 32.3009 23.0088 34.7993C25.6391 36.8914 29.3133 36.8914 31.9435 34.7993C30.1967 33.4181 29.1728 31.2853 29.1728 29.051Z" fill="#EB001B"/>
        <path d="M43.629 29.0513C43.629 33.0933 40.3965 36.3635 36.401 36.3635C34.7747 36.3635 33.2086 35.8151 31.9437 34.7995C35.0759 32.3011 35.618 27.7107 33.1484 24.5217C32.787 24.0749 32.3855 23.6483 31.9437 23.303C35.0759 20.8046 39.6335 21.3531 42.0831 24.542C43.0869 25.8217 43.629 27.406 43.629 29.0513Z" fill="#F79E1B"/>
        <path d="M42.9465 33.581V33.3373H43.0469V33.2966H42.8059V33.3373H42.9063V33.581H42.9465ZM43.4084 33.581V33.2966H43.3281L43.2477 33.4997L43.1674 33.2966H43.0871V33.581H43.1474V33.3576L43.2277 33.5404H43.2879L43.3683 33.3576V33.581H43.4084Z" fill="#F79E1B"/>
    </g>
    <path d="M56.0372 24.6089L56.1009 23.2059L54.922 23.9691L54.5571 23.3385L55.8085 22.6986L54.5571 22.0588L54.922 21.419L56.1009 22.1822L56.0372 20.7792H56.7588L56.695 22.1822L57.8733 21.419L58.2388 22.0588L56.9874 22.6986L58.2388 23.3385L57.8733 23.9691L56.695 23.2059L56.7588 24.6089H56.0372ZM60.5235 24.6089L60.5872 23.2059L59.4084 23.9691L59.0429 23.3385L60.2949 22.6986L59.0429 22.0588L59.4084 21.419L60.5872 22.1822L60.5235 20.7792H61.2451L61.1814 22.1822L62.3597 21.419L62.7251 22.0588L61.4737 22.6986L62.7251 23.3385L62.3597 23.9691L61.1814 23.2059L61.2451 24.6089H60.5235ZM63.8128 27.5887L66.7823 21.7115V21.6612H63.3468V20.7792H67.8512V21.6978L64.8864 27.5887H63.8128ZM70.6745 27.6801C70.1996 27.6801 69.7792 27.5978 69.4137 27.4333C69.0511 27.2688 68.7664 27.0433 68.5594 26.7569C68.3553 26.4675 68.2529 26.1384 68.2529 25.7698C68.2529 25.4864 68.3126 25.2229 68.4313 24.9792C68.5529 24.7354 68.7178 24.5328 68.9248 24.3713C69.1318 24.2099 69.3646 24.1063 69.6236 24.0606V24.0194C69.2856 23.9371 69.0131 23.7558 68.8061 23.4756C68.602 23.1922 68.4997 22.8693 68.4997 22.5067C68.4997 22.1563 68.5927 21.844 68.7786 21.5698C68.9675 21.2956 69.2248 21.0808 69.5505 20.9254C69.8798 20.767 70.254 20.6877 70.6745 20.6877C71.0885 20.6877 71.4586 20.767 71.7843 20.9254C72.1136 21.0808 72.3709 21.2956 72.5568 21.5698C72.7457 21.844 72.8399 22.1563 72.8399 22.5067C72.8399 22.8693 72.7363 23.1922 72.5293 23.4756C72.3253 23.7558 72.0574 23.9371 71.7253 24.0194V24.0606C71.9808 24.1063 72.2124 24.2099 72.4194 24.3713C72.627 24.5328 72.7913 24.7354 72.913 24.9792C73.0346 25.2229 73.096 25.4864 73.096 25.7698C73.096 26.1384 72.9925 26.4675 72.7849 26.7569C72.5779 27.0433 72.2919 27.2688 71.9265 27.4333C71.5639 27.5978 71.1464 27.6801 70.6745 27.6801ZM70.6745 26.8392C70.9546 26.8392 71.1984 26.7935 71.4054 26.7021C71.6124 26.6076 71.7727 26.4751 71.8849 26.3045C71.9978 26.1339 72.0539 25.9358 72.0539 25.7104C72.0539 25.4727 71.9931 25.264 71.8715 25.0843C71.7528 24.9014 71.5896 24.7583 71.3826 24.6547C71.1756 24.548 70.9394 24.4947 70.6745 24.4947C70.4066 24.4947 70.1675 24.5465 69.957 24.6501C69.7499 24.7537 69.5874 24.8969 69.4687 25.0797C69.3494 25.2625 69.2903 25.4727 69.2903 25.7104C69.2903 25.9358 69.3465 26.1339 69.4593 26.3045C69.5722 26.4751 69.7318 26.6076 69.9388 26.7021C70.1458 26.7935 70.3914 26.8392 70.6745 26.8392ZM70.6745 23.6766C70.8996 23.6766 71.0996 23.631 71.2727 23.5395C71.4499 23.4481 71.5879 23.3217 71.6884 23.1602C71.7919 22.9987 71.844 22.8098 71.844 22.5935C71.844 22.3803 71.7937 22.1944 71.6931 22.0359C71.5961 21.8775 71.4586 21.7541 71.282 21.6658C71.1084 21.5774 70.906 21.5332 70.6745 21.5332C70.44 21.5332 70.2341 21.5774 70.0575 21.6658C69.8809 21.7541 69.7441 21.8775 69.6464 22.0359C69.5494 22.1944 69.5003 22.3803 69.5003 22.5935C69.5003 22.8098 69.5505 22.9987 69.6511 23.1602C69.7517 23.3217 69.8885 23.4481 70.0622 23.5395C70.2388 23.631 70.4429 23.6766 70.6745 23.6766Z" fill="#303030"/>
    <path d="M54.1847 40.0401V37.9978H54.5484C54.6718 37.8913 54.787 37.7428 54.8934 37.5522C55.0022 37.3591 55.0952 37.0979 55.1718 36.7687C55.2484 36.4394 55.3004 36.0186 55.3279 35.5062L55.4612 33.1706H58.8652V37.9978H59.4926V40.0327H58.6944V38.7033H54.9829V40.0401H54.1847ZM55.532 37.9978H58.067V33.8872H56.2115L56.1296 35.5062C56.1051 35.8949 56.0653 36.2464 56.0109 36.5607C55.9589 36.8727 55.8922 37.1474 55.8103 37.3851C55.7285 37.6227 55.6361 37.827 55.532 37.9978ZM61.7755 38.7887C61.3697 38.7887 61.0183 38.7008 60.7212 38.5251C60.4241 38.3493 60.1955 38.1018 60.0347 37.7824C59.8762 37.4606 59.7967 37.0855 59.7967 36.6573C59.7967 36.2315 59.8751 35.8565 60.0306 35.5322C60.1891 35.2079 60.4107 34.9554 60.6955 34.7747C60.982 34.5915 61.3188 34.4999 61.7048 34.4999C61.9399 34.4999 62.1673 34.5382 62.3878 34.615C62.6083 34.6917 62.8059 34.8131 62.9819 34.9789C63.1573 35.1447 63.2959 35.3601 63.3977 35.625C63.5012 35.8899 63.5532 36.2092 63.5532 36.583V36.8727H60.2534V36.2674H63.1375L62.7626 36.4679C62.7626 36.2129 62.7235 35.9876 62.6439 35.7921C62.565 35.5965 62.4463 35.4443 62.2878 35.3354C62.1317 35.2239 61.9375 35.1683 61.7048 35.1683C61.4721 35.1683 61.2732 35.2239 61.1072 35.3354C60.944 35.4468 60.8189 35.5941 60.7323 35.7772C60.6458 35.9604 60.6025 36.161 60.6025 36.3788V36.791C60.6025 37.0756 60.6522 37.317 60.751 37.5151C60.8499 37.7131 60.9873 37.8641 61.1627 37.9681C61.3411 38.072 61.5475 38.1241 61.7826 38.1241C61.9364 38.1241 62.0749 38.1018 62.1983 38.0572C62.3246 38.0126 62.4334 37.9458 62.5252 37.8567C62.617 37.7676 62.686 37.6574 62.7328 37.5262L63.4977 37.671C63.4357 37.8938 63.3269 38.0894 63.1708 38.2577C63.0153 38.426 62.8182 38.5572 62.5808 38.6513C62.3457 38.7429 62.0773 38.7887 61.7755 38.7887ZM64.9005 37.567L66.7309 34.5519H67.5992V38.7033H66.8127V35.6844L64.99 38.7033H64.1175V34.5519H64.9005V37.567ZM65.8508 34.0691C65.497 34.0691 65.2099 33.9726 64.99 33.7795C64.7696 33.584 64.6596 33.3302 64.6596 33.0183H65.3239C65.3239 33.1768 65.3724 33.3054 65.4689 33.4045C65.5654 33.501 65.6929 33.5493 65.8508 33.5493C66.0093 33.5493 66.1367 33.501 66.2332 33.4045C66.3297 33.3054 66.3782 33.1768 66.3782 33.0183H67.0425C67.0425 33.3302 66.9326 33.584 66.7121 33.7795C66.4917 33.9726 66.2052 34.0691 65.8508 34.0691ZM70.1126 38.7887C69.7138 38.7887 69.3699 38.6971 69.0805 38.5139C68.791 38.3307 68.5682 38.0782 68.4121 37.7564C68.2565 37.4346 68.1782 37.0658 68.1782 36.6498C68.1782 36.2265 68.2577 35.854 68.4162 35.5322C68.577 35.2079 68.8009 34.9554 69.0881 34.7747C69.3775 34.5915 69.7161 34.4999 70.105 34.4999C70.4219 34.4999 70.7026 34.5581 70.9476 34.6744C71.195 34.7883 71.3944 34.9504 71.5452 35.1608C71.6984 35.3712 71.7891 35.6164 71.816 35.8961H71.0289C71.002 35.7649 70.9488 35.6448 70.8692 35.5359C70.7926 35.427 70.6915 35.3403 70.5652 35.276C70.4389 35.2116 70.2892 35.1794 70.1161 35.1794C69.8909 35.1794 69.6939 35.2388 69.526 35.3577C69.36 35.474 69.2302 35.6411 69.136 35.8589C69.0419 36.0768 68.9951 36.3342 68.9951 36.6313C68.9951 36.9309 69.0407 37.192 69.1325 37.4148C69.2237 37.6376 69.3541 37.8096 69.522 37.9309C69.6927 38.0498 69.8909 38.1092 70.1161 38.1092C70.3488 38.1092 70.5465 38.0448 70.7102 37.9161C70.8757 37.7873 70.9821 37.6116 71.0289 37.3888H71.816C71.7891 37.6586 71.702 37.8988 71.5563 38.1092C71.4102 38.3196 71.2149 38.4854 70.9698 38.6068C70.7248 38.728 70.4389 38.7887 70.1126 38.7887ZM71.8867 35.25V34.5519H75.3796V35.25H74.0323V38.7033H73.2416V35.25H71.8867ZM75.9216 38.7033V34.5519H77.6362C78.104 34.5544 78.4753 34.6559 78.7501 34.8563C79.0244 35.0544 79.1607 35.3242 79.1583 35.6658C79.1607 35.9084 79.0841 36.1003 78.9279 36.2414C78.7724 36.38 78.5683 36.4753 78.3157 36.5273C78.4987 36.5471 78.6671 36.6016 78.8203 36.6907C78.9764 36.7798 79.101 36.8999 79.1952 37.0509C79.2916 37.1994 79.3402 37.3764 79.3402 37.5819C79.3402 37.8022 79.2817 37.9978 79.1659 38.1686C79.0519 38.3369 78.8887 38.4681 78.6759 38.5622C78.463 38.6563 78.204 38.7033 77.8999 38.7033H75.9216ZM76.6789 38.0238H77.8999C78.0976 38.0262 78.2537 37.9804 78.3677 37.8864C78.4812 37.7898 78.5373 37.6599 78.5344 37.4965C78.5373 37.3034 78.4812 37.1524 78.3677 37.0435C78.2537 36.9321 78.0976 36.8764 77.8999 36.8764H76.6789V38.0238ZM76.6789 36.286H77.6438C77.8712 36.2835 78.0496 36.2352 78.1782 36.1411C78.3092 36.0446 78.3736 35.9146 78.3712 35.7513C78.3736 35.5903 78.3092 35.4653 78.1782 35.3762C78.0473 35.2846 77.8666 35.2388 77.6362 35.2388H76.6789V36.286ZM80.4126 40.2554C80.2916 40.2579 80.1817 40.2492 80.0822 40.2295C79.9858 40.2121 79.9115 40.1911 79.86 40.1663L80.0565 39.509L80.1121 39.5239C80.3173 39.5759 80.491 39.5722 80.6319 39.5128C80.7752 39.4559 80.8957 39.2962 80.9921 39.0338L81.0921 38.759L79.5776 34.5519H80.4425L81.4892 37.775H81.5336L82.5845 34.5519H83.4493L81.7418 39.2529C81.6623 39.4707 81.5623 39.6539 81.4412 39.8024C81.3196 39.9534 81.174 40.0661 81.0033 40.1403C80.8348 40.217 80.6378 40.2554 80.4126 40.2554ZM85.5317 38.7887C85.1259 38.7887 84.7744 38.7008 84.4774 38.5251C84.1803 38.3493 83.9516 38.1018 83.7908 37.7824C83.6324 37.4606 83.5528 37.0855 83.5528 36.6573C83.5528 36.2315 83.6312 35.8565 83.7867 35.5322C83.9452 35.2079 84.1668 34.9554 84.4516 34.7747C84.7382 34.5915 85.075 34.4999 85.4609 34.4999C85.696 34.4999 85.9235 34.5382 86.1439 34.615C86.3644 34.6917 86.562 34.8131 86.7381 34.9789C86.9135 35.1447 87.0521 35.3601 87.1538 35.625C87.2573 35.8899 87.3094 36.2092 87.3094 36.583V36.8727H84.0095V36.2674H86.8936L86.5188 36.4679C86.5188 36.2129 86.4796 35.9876 86.4001 35.7921C86.3211 35.5965 86.2024 35.4443 86.0439 35.3354C85.8878 35.2239 85.6937 35.1683 85.4609 35.1683C85.2282 35.1683 85.0294 35.2239 84.8633 35.3354C84.7002 35.4468 84.575 35.5941 84.4885 35.7772C84.4019 35.9604 84.3586 36.161 84.3586 36.3788V36.791C84.3586 37.0756 84.4083 37.317 84.5072 37.5151C84.606 37.7131 84.7434 37.8641 84.9188 37.9681C85.0972 38.072 85.3036 38.1241 85.5387 38.1241C85.6925 38.1241 85.8311 38.1018 85.9545 38.0572C86.0808 38.0126 86.1895 37.9458 86.2814 37.8567C86.3732 37.7676 86.4422 37.6574 86.489 37.5262L87.2538 37.671C87.1918 37.8938 87.0831 38.0894 86.9269 38.2577C86.7714 38.426 86.5743 38.5572 86.3369 38.6513C86.1018 38.7429 85.8334 38.7887 85.5317 38.7887ZM87.5064 35.25V34.5519H90.9993V35.25H89.652V38.7033H88.8613V35.25H87.5064ZM92.8255 39.8989V38.0052H93.1594C93.2459 37.926 93.3202 37.8319 93.3822 37.723C93.4442 37.6116 93.495 37.4804 93.5342 37.3294C93.5763 37.1759 93.6126 36.9989 93.6418 36.7984C93.6716 36.5979 93.698 36.3664 93.7202 36.104L93.85 34.5519H96.6674V38.0052H97.306V39.8989H96.5148V38.7033H93.6272V39.8989H92.8255ZM94.0283 38.0052H95.8803V35.2426H94.5698L94.481 36.104C94.4435 36.5422 94.3932 36.9209 94.3289 37.2403C94.2669 37.5571 94.1669 37.8121 94.0283 38.0052ZM99.5181 38.7887C99.1293 38.7887 98.7889 38.6996 98.4971 38.5214C98.2077 38.3431 97.9825 38.0931 97.8217 37.7712C97.6633 37.4494 97.5843 37.0756 97.5843 36.6498C97.5843 36.2191 97.6633 35.8429 97.8217 35.5211C97.9825 35.1967 98.2077 34.9455 98.4971 34.7673C98.7889 34.589 99.1293 34.4999 99.5181 34.4999C99.9088 34.4999 100.249 34.589 100.539 34.7673C100.828 34.9455 101.054 35.1967 101.215 35.5211C101.375 35.8429 101.455 36.2191 101.455 36.6498C101.455 37.0756 101.375 37.4494 101.215 37.7712C101.054 38.0931 100.828 38.3431 100.539 38.5214C100.249 38.6996 99.9088 38.7887 99.5181 38.7887ZM99.5181 38.1092C99.7731 38.1092 99.983 38.0423 100.149 37.9087C100.315 37.775 100.437 37.598 100.516 37.3777C100.598 37.1549 100.639 36.9123 100.639 36.6498C100.639 36.3825 100.598 36.1375 100.516 35.9146C100.437 35.6919 100.315 35.5136 100.149 35.3799C99.983 35.2462 99.7731 35.1794 99.5181 35.1794C99.2655 35.1794 99.0562 35.2462 98.8907 35.3799C98.7275 35.5136 98.6047 35.6919 98.5234 35.9146C98.4416 36.1375 98.4006 36.3825 98.4006 36.6498C98.4006 36.9123 98.4416 37.1549 98.5234 37.3777C98.6047 37.598 98.7275 37.775 98.8907 37.9087C99.0562 38.0423 99.2655 38.1092 99.5181 38.1092ZM105.713 33.1706V38.7033H104.889V34.0098H104.852L103.538 34.8749V34.0729L104.911 33.1706H105.713ZM108.356 38.7776C108.017 38.7776 107.712 38.7132 107.443 38.5845C107.176 38.4533 106.962 38.2738 106.801 38.0461C106.64 37.8158 106.555 37.5547 106.545 37.2625H107.354C107.373 37.4977 107.479 37.692 107.669 37.8455C107.86 37.999 108.088 38.0757 108.356 38.0757C108.569 38.0757 108.757 38.0262 108.92 37.9272C109.084 37.8282 109.212 37.6933 109.306 37.5225C109.4 37.3492 109.447 37.1512 109.447 36.9283C109.447 36.7056 109.399 36.5063 109.302 36.3305C109.206 36.1523 109.073 36.0124 108.902 35.911C108.733 35.8095 108.539 35.7587 108.319 35.7587C108.15 35.7587 107.982 35.7884 107.814 35.8478C107.646 35.9047 107.51 35.979 107.405 36.0706L106.638 35.9592L106.949 33.1706H109.989V33.8872H107.647L107.473 35.4357H107.503C107.608 35.3292 107.751 35.2426 107.929 35.1757C108.11 35.1064 108.304 35.0717 108.512 35.0717C108.849 35.0717 109.148 35.1522 109.41 35.3131C109.675 35.4715 109.883 35.6894 110.034 35.9666C110.185 36.2414 110.26 36.5571 110.26 36.9135C110.26 37.2724 110.178 37.5931 110.015 37.8753C109.852 38.155 109.626 38.3753 109.34 38.5362C109.055 38.6971 108.727 38.7776 108.356 38.7776ZM113.018 32.9106L111.236 39.5351H110.516L112.298 32.9106H113.018ZM115.301 38.7776C114.927 38.7776 114.596 38.7144 114.306 38.5882C114.017 38.4595 113.788 38.2812 113.619 38.0535C113.451 37.8257 113.362 37.5621 113.352 37.2625H114.191C114.203 37.4259 114.259 37.567 114.358 37.6858C114.457 37.8047 114.587 37.8975 114.748 37.9643C114.911 38.0287 115.093 38.0609 115.293 38.0609C115.512 38.0609 115.704 38.0226 115.872 37.9458C116.041 37.8691 116.172 37.7638 116.266 37.6301C116.362 37.494 116.411 37.3368 116.411 37.1586C116.411 36.9729 116.364 36.8095 116.27 36.6684C116.176 36.5248 116.038 36.4135 115.858 36.3342C115.677 36.255 115.459 36.2154 115.204 36.2154H114.733V35.5322H115.204C115.407 35.5322 115.587 35.495 115.742 35.4208C115.899 35.3465 116.02 35.2438 116.106 35.1126C116.196 34.9814 116.24 34.8266 116.24 34.6484C116.24 34.4776 116.202 34.3291 116.125 34.2028C116.048 34.0741 115.941 33.9751 115.802 33.9058C115.664 33.834 115.5 33.7981 115.312 33.7981C115.131 33.7981 114.963 33.8303 114.807 33.8946C114.651 33.959 114.524 34.0518 114.425 34.1731C114.329 34.292 114.278 34.4367 114.273 34.6076H113.467C113.475 34.308 113.561 34.0456 113.727 33.8203C113.895 33.5926 114.118 33.4156 114.395 33.2894C114.675 33.1607 114.984 33.0963 115.323 33.0963C115.677 33.0963 115.983 33.1656 116.24 33.3042C116.5 33.4404 116.7 33.6236 116.841 33.8538C116.982 34.0815 117.053 34.3303 117.053 34.6001C117.053 34.9146 116.966 35.1794 116.793 35.3948C116.62 35.6077 116.389 35.7525 116.099 35.8292V35.8701C116.465 35.927 116.749 36.073 116.949 36.3083C117.152 36.5434 117.254 36.8355 117.254 37.1846C117.254 37.4891 117.168 37.7614 116.997 38.0015C116.829 38.2416 116.597 38.431 116.303 38.5696C116.011 38.7083 115.677 38.7776 115.301 38.7776ZM119.878 38.7776C119.452 38.7776 119.087 38.6662 118.783 38.4434C118.481 38.2206 118.249 37.8988 118.089 37.4779C117.93 37.0546 117.851 36.5422 117.851 35.9406C117.851 35.3416 117.931 34.8304 118.092 34.4071C118.253 33.9813 118.484 33.657 118.786 33.4342C119.091 33.2089 119.455 33.0963 119.878 33.0963C120.303 33.0963 120.667 33.2089 120.969 33.4342C121.273 33.657 121.505 33.9813 121.663 34.4071C121.824 34.8304 121.904 35.3416 121.904 35.9406C121.904 36.5422 121.825 37.0546 121.667 37.4779C121.508 37.8988 121.278 38.2206 120.977 38.4434C120.674 38.6662 120.308 38.7776 119.878 38.7776ZM119.878 38.0646C120.138 38.0646 120.356 37.9817 120.535 37.8158C120.713 37.65 120.849 37.4086 120.943 37.0917C121.037 36.7724 121.084 36.3887 121.084 35.9406C121.084 35.4901 121.037 35.1064 120.943 34.7895C120.849 34.4702 120.713 34.2276 120.535 34.0617C120.356 33.8934 120.138 33.8092 119.878 33.8092C119.494 33.8092 119.197 33.9961 118.987 34.3699C118.779 34.7413 118.675 35.2648 118.675 35.9406C118.675 36.3887 118.722 36.7724 118.816 37.0917C118.91 37.4086 119.046 37.65 119.224 37.8158C119.405 37.9817 119.623 38.0646 119.878 38.0646Z" fill="#BDBDBD"/>
    <path d="M205.317 29.3437C205.317 25.6284 202.306 22.6165 198.592 22.6165C194.878 22.6165 191.867 25.6284 191.867 29.3437C191.867 33.0591 194.878 36.071 198.592 36.071C202.306 36.071 205.317 33.0591 205.317 29.3437Z" stroke="#E0E0E0"/>
    <path d="M203.27 53.0354H16.7298C13.0158 53.0354 10.005 56.0473 10.005 59.7627V78.482C10.005 82.1974 13.0158 85.2093 16.7298 85.2093H203.27C206.984 85.2093 209.995 82.1974 209.995 78.482V59.7627C209.995 56.0473 206.984 53.0354 203.27 53.0354Z" stroke="#E0E0E0"/>
    <mask id="mask1_1_6" style="mask-type:luminance" maskUnits="userSpaceOnUse" x="17" y="64" width="30" height="10">
        <path d="M46.5529 64.4426H17.3146V73.8023H46.5529V64.4426Z" fill="white"/>
    </mask>
    <g mask="url(#mask1_1_6)">
        <path d="M36.3646 64.4426C34.2913 64.4426 32.4298 65.5108 32.4298 67.4705C32.4298 69.7279 35.7181 69.8824 35.7181 71.0055C35.7181 71.4788 35.1608 71.9081 34.2244 71.9081C32.8868 71.9081 31.8836 71.3138 31.8836 71.3138L31.46 73.2957C31.46 73.2957 32.6081 73.8023 34.1464 73.8023C36.4204 73.8023 38.2039 72.6903 38.2039 70.6861C38.2039 68.3076 34.9044 68.1537 34.9044 67.1072C34.9044 66.7328 35.3614 66.3257 36.2977 66.3257C37.3567 66.3257 38.2262 66.7551 38.2262 66.7551L38.6497 64.8392C38.6386 64.8392 37.6911 64.4426 36.3646 64.4426ZM17.3703 64.5859L17.3146 64.872C17.3146 64.872 18.184 65.0264 18.9755 65.3458C19.9898 65.7091 20.0567 65.9179 20.2351 66.5679L22.0966 73.6479H24.5935L28.4169 64.5859H25.9311L23.4677 70.7522L22.4644 65.5219C22.3753 64.927 21.9071 64.5859 21.3275 64.5859H17.3703ZM29.4201 64.5859L27.4694 73.6479H29.8437L31.7833 64.5859H29.4201ZM42.6403 64.5859C42.0718 64.5859 41.7709 64.8831 41.5479 65.4114L38.0701 73.6479H40.5559L41.0352 72.272H44.0671L44.357 73.6479H46.5529L44.6468 64.5859H42.6403ZM42.9636 67.0411L43.6993 70.4439H41.7263L42.9636 67.0411Z" fill="#191919"/>
    </g>
    <path d="M56.0372 64.3874L56.1009 62.9846L54.922 63.7475L54.5571 63.1169L55.8085 62.4775L54.5571 61.8375L54.922 61.1975L56.1009 61.9609L56.0372 60.5576H56.7588L56.695 61.9609L57.8733 61.1975L58.2388 61.8375L56.9874 62.4775L58.2388 63.1169L57.8733 63.7475L56.695 62.9846L56.7588 64.3874H56.0372ZM60.5235 64.3874L60.5872 62.9846L59.4084 63.7475L59.0429 63.1169L60.2949 62.4775L59.0429 61.8375L59.4084 61.1975L60.5872 61.9609L60.5235 60.5576H61.2451L61.1814 61.9609L62.3597 61.1975L62.7251 61.8375L61.4737 62.4775L62.7251 63.1169L62.3597 63.7475L61.1814 62.9846L61.2451 64.3874H60.5235ZM65.8776 67.4586C65.4022 67.4586 64.9823 67.3767 64.6169 67.2117C64.2543 67.0473 63.9695 66.8221 63.7625 66.5355C63.5584 66.2459 63.4561 65.9172 63.4561 65.5486C63.4561 65.2649 63.5157 65.0017 63.6345 64.7577C63.7561 64.5138 63.921 64.3114 64.128 64.1499C64.335 63.9885 64.5677 63.8849 64.8268 63.8393V63.7978C64.4888 63.7159 64.2163 63.5345 64.0093 63.2543C63.8052 62.9706 63.7029 62.6477 63.7029 62.285C63.7029 61.9352 63.7959 61.6228 63.9818 61.3485C64.1707 61.0741 64.428 60.8594 64.7537 60.7038C65.0829 60.5459 65.4572 60.4663 65.8776 60.4663C66.2916 60.4663 66.6618 60.5459 66.9875 60.7038C67.3167 60.8594 67.574 61.0741 67.76 61.3485C67.9489 61.6228 68.043 61.9352 68.043 62.285C68.043 62.6477 67.9395 62.9706 67.7325 63.2543C67.5284 63.5345 67.26 63.7159 66.9284 63.7978V63.8393C67.184 63.8849 67.4156 63.9885 67.6226 64.1499C67.8296 64.3114 67.9945 64.5138 68.1161 64.7577C68.2377 65.0017 68.2991 65.2649 68.2991 65.5486C68.2991 65.9172 68.1951 66.2459 67.988 66.5355C67.781 66.8221 67.4945 67.0473 67.1296 67.2117C66.7671 67.3767 66.3495 67.4586 65.8776 67.4586ZM65.8776 66.618C66.1577 66.618 66.4016 66.5723 66.6086 66.4805C66.8156 66.3863 66.9752 66.2535 67.0881 66.0833C67.201 65.9125 67.2571 65.7142 67.2571 65.4889C67.2571 65.2514 67.1963 65.0426 67.0746 64.863C66.9559 64.6799 66.7928 64.5366 66.5858 64.4331C66.3788 64.3266 66.1425 64.2734 65.8776 64.2734C65.6098 64.2734 65.3706 64.3248 65.1601 64.429C64.9531 64.5325 64.7905 64.6752 64.6713 64.8583C64.5525 65.0409 64.4935 65.2514 64.4935 65.4889C64.4935 65.7142 64.5496 65.9125 64.6625 66.0833C64.7748 66.2535 64.935 66.3863 65.142 66.4805C65.349 66.5723 65.594 66.618 65.8776 66.618ZM65.8776 63.455C66.1028 63.455 66.3022 63.4093 66.4758 63.3181C66.6524 63.2268 66.791 63.1005 66.8916 62.939C66.9951 62.7776 67.0472 62.5886 67.0472 62.3722C67.0472 62.1587 66.9969 61.9732 66.8963 61.8147C66.7986 61.6562 66.6618 61.5327 66.4852 61.4444C66.3115 61.3561 66.1092 61.3116 65.8776 61.3116C65.6431 61.3116 65.4373 61.3561 65.2607 61.4444C65.0841 61.5327 64.9473 61.6562 64.8496 61.8147C64.7519 61.9732 64.7034 62.1587 64.7034 62.3722C64.7034 62.5886 64.7537 62.7776 64.8543 62.939C64.9549 63.1005 65.0917 63.2268 65.2654 63.3181C65.442 63.4093 65.6461 63.455 65.8776 63.455ZM71.3779 67.4586C70.9031 67.4586 70.4827 67.3767 70.1172 67.2117C69.7546 67.0473 69.4698 66.8221 69.2628 66.5355C69.0588 66.2459 68.9564 65.9172 68.9564 65.5486C68.9564 65.2649 69.0161 65.0017 69.1348 64.7577C69.257 64.5138 69.4213 64.3114 69.6283 64.1499C69.8353 63.9885 70.0686 63.8849 70.3271 63.8393V63.7978C69.9891 63.7159 69.7166 63.5345 69.5096 63.2543C69.3055 62.9706 69.2032 62.6477 69.2032 62.285C69.2032 61.9352 69.2962 61.6228 69.4821 61.3485C69.671 61.0741 69.9283 60.8594 70.254 60.7038C70.5832 60.5459 70.9575 60.4663 71.3779 60.4663C71.792 60.4663 72.1621 60.5459 72.4884 60.7038C72.8171 60.8594 73.0743 61.0741 73.2603 61.3485C73.4492 61.6228 73.5433 61.9352 73.5433 62.285C73.5433 62.6477 73.4398 62.9706 73.2328 63.2543C73.0287 63.5345 72.7609 63.7159 72.4288 63.7978V63.8393C72.6849 63.8849 72.9159 63.9885 73.1235 64.1499C73.3305 64.3114 73.4948 64.5138 73.6164 64.7577C73.7386 65.0017 73.7995 65.2649 73.7995 65.5486C73.7995 65.9172 73.6959 66.2459 73.4884 66.5355C73.2814 66.8221 72.9954 67.0473 72.6299 67.2117C72.2674 67.3767 71.8498 67.4586 71.3779 67.4586ZM71.3779 66.618C71.658 66.618 71.9019 66.5723 72.1089 66.4805C72.3159 66.3863 72.4761 66.2535 72.5884 66.0833C72.7013 65.9125 72.7574 65.7142 72.7574 65.4889C72.7574 65.2514 72.6966 65.0426 72.575 64.863C72.4562 64.6799 72.2931 64.5366 72.0861 64.4331C71.8791 64.3266 71.6428 64.2734 71.3779 64.2734C71.1101 64.2734 70.8709 64.3248 70.661 64.429C70.4534 64.5325 70.2909 64.6752 70.1722 64.8583C70.0534 65.0409 69.9938 65.2514 69.9938 65.4889C69.9938 65.7142 70.0499 65.9125 70.1628 66.0833C70.2757 66.2535 70.4353 66.3863 70.6423 66.4805C70.8493 66.5723 71.0949 66.618 71.3779 66.618ZM71.3779 63.455C71.6037 63.455 71.8031 63.4093 71.9767 63.3181C72.1533 63.2268 72.2919 63.1005 72.3925 62.939C72.496 62.7776 72.5475 62.5886 72.5475 62.3722C72.5475 62.1587 72.4972 61.9732 72.3966 61.8147C72.2995 61.6562 72.1621 61.5327 71.9855 61.4444C71.8118 61.3561 71.6095 61.3116 71.3779 61.3116C71.1434 61.3116 70.9382 61.3561 70.761 61.4444C70.5844 61.5327 70.4476 61.6562 70.3499 61.8147C70.2529 61.9732 70.2037 62.1587 70.2037 62.3722C70.2037 62.5886 70.254 62.7776 70.3546 62.939C70.4552 63.1005 70.592 63.2268 70.7657 63.3181C70.9423 63.4093 71.1464 63.455 71.3779 63.455Z" fill="#303030"/>
    <path d="M54.1847 79.8188V77.7767H54.5484C54.6718 77.6702 54.787 77.5216 54.8934 77.3309C55.0022 77.1379 55.0952 76.877 55.1718 76.5476C55.2484 76.2183 55.3004 75.7977 55.3279 75.2853L55.4612 72.9494H58.8652V77.7767H59.4926V79.8112H58.6944V78.4822H54.9829V79.8188H54.1847ZM55.532 77.7767H58.067V73.666H56.2115L56.1296 75.2853C56.1051 75.6737 56.0653 76.0253 56.0109 76.3394C55.9589 76.6518 55.8922 76.9261 55.8103 77.1642C55.7285 77.4017 55.6361 77.6059 55.532 77.7767ZM61.7755 78.5676C61.3697 78.5676 61.0183 78.4798 60.7212 78.3038C60.4241 78.1283 60.1955 77.8808 60.0347 77.5614C59.8762 77.2397 59.7967 76.8647 59.7967 76.4359C59.7967 76.0106 59.8751 75.6351 60.0306 75.311C60.1891 74.9869 60.4107 74.7342 60.6955 74.5534C60.982 74.3703 61.3188 74.2785 61.7048 74.2785C61.9399 74.2785 62.1673 74.3171 62.3878 74.3937C62.6083 74.4704 62.8059 74.592 62.9819 74.7576C63.1573 74.9237 63.2959 75.139 63.3977 75.404C63.5012 75.669 63.5532 75.9878 63.5532 76.3616V76.6518H60.2534V76.0463H63.1375L62.7626 76.247C62.7626 75.9919 62.7235 75.7667 62.6439 75.5707C62.565 75.3753 62.4463 75.2232 62.2878 75.1144C62.1317 75.0027 61.9375 74.9471 61.7048 74.9471C61.4721 74.9471 61.2732 75.0027 61.1072 75.1144C60.944 75.2256 60.8189 75.373 60.7323 75.5561C60.6458 75.7392 60.6025 75.9398 60.6025 76.1575V76.5699C60.6025 76.8548 60.6522 77.0958 60.751 77.2941C60.8499 77.4918 60.9873 77.6427 61.1627 77.7468C61.3411 77.851 61.5475 77.903 61.7826 77.903C61.9364 77.903 62.0749 77.8808 62.1983 77.8363C62.3246 77.7913 62.4334 77.7246 62.5252 77.6357C62.617 77.5462 62.686 77.4362 62.7328 77.3052L63.4977 77.4497C63.4357 77.6726 63.3269 77.8685 63.1708 78.0364C63.0153 78.2049 62.8182 78.3359 62.5808 78.4301C62.3457 78.5219 62.0773 78.5676 61.7755 78.5676ZM64.9005 77.3461L66.7309 74.3306H67.5992V78.4822H66.8127V75.4631L64.99 78.4822H64.1175V74.3306H64.9005V77.3461ZM65.8508 73.848C65.497 73.848 65.2099 73.7514 64.99 73.5584C64.7696 73.363 64.6596 73.1091 64.6596 72.7973H65.3239C65.3239 72.9559 65.3724 73.0846 65.4689 73.1834C65.5654 73.2799 65.6929 73.3279 65.8508 73.3279C66.0093 73.3279 66.1367 73.2799 66.2332 73.1834C66.3297 73.0846 66.3782 72.9559 66.3782 72.7973H67.0425C67.0425 73.1091 66.9326 73.363 66.7121 73.5584C66.4917 73.7514 66.2052 73.848 65.8508 73.848ZM70.1126 78.5676C69.7138 78.5676 69.3699 78.4757 69.0805 78.2926C68.791 78.1095 68.5682 77.8568 68.4121 77.5351C68.2565 77.2133 68.1782 76.8448 68.1782 76.4289C68.1782 76.0054 68.2577 75.6327 68.4162 75.311C68.577 74.9869 68.8009 74.7342 69.0881 74.5534C69.3775 74.3703 69.7161 74.2785 70.105 74.2785C70.4219 74.2785 70.7026 74.337 70.9476 74.4534C71.195 74.5669 71.3944 74.7295 71.5452 74.9395C71.6984 75.1501 71.7891 75.3952 71.816 75.6748H71.0289C71.002 75.5438 70.9488 75.4239 70.8692 75.3145C70.7926 75.2057 70.6915 75.1191 70.5652 75.0548C70.4389 74.9904 70.2892 74.9582 70.1161 74.9582C69.8909 74.9582 69.6939 75.0179 69.526 75.1367C69.36 75.2531 69.2302 75.4198 69.136 75.638C69.0419 75.8556 68.9951 76.113 68.9951 76.4102C68.9951 76.7097 69.0407 76.9712 69.1325 77.1935C69.2237 77.4163 69.3541 77.5883 69.522 77.71C69.6927 77.8287 69.8909 77.8878 70.1161 77.8878C70.3488 77.8878 70.5465 77.8235 70.7102 77.6948C70.8757 77.5661 70.9821 77.3906 71.0289 77.1677H71.816C71.7891 77.4374 71.702 77.6778 71.5563 77.8878C71.4102 78.0984 71.2149 78.2646 70.9698 78.3856C70.7248 78.5067 70.4389 78.5676 70.1126 78.5676ZM71.8867 75.029V74.3306H75.3796V75.029H74.0323V78.4822H73.2416V75.029H71.8867ZM75.9216 78.4822V74.3306H77.6362C78.104 74.3335 78.4753 74.4347 78.7501 74.6353C79.0244 74.8331 79.1607 75.1033 79.1583 75.4449C79.1607 75.6871 79.0841 75.879 78.9279 76.0206C78.7724 76.1586 78.5683 76.254 78.3157 76.306C78.4987 76.3259 78.6671 76.3803 78.8203 76.4698C78.9764 76.5588 79.101 76.6787 79.1952 76.8296C79.2916 76.9782 79.3402 77.1554 79.3402 77.3608C79.3402 77.5813 79.2817 77.7767 79.1659 77.9475C79.0519 78.116 78.8887 78.247 78.6759 78.3412C78.463 78.4354 78.204 78.4822 77.8999 78.4822H75.9216ZM76.6789 77.8024H77.8999C78.0976 77.8053 78.2537 77.7591 78.3677 77.6655C78.4812 77.5684 78.5373 77.4386 78.5344 77.2754C78.5373 77.0823 78.4812 76.9314 78.3677 76.8226C78.2537 76.7108 78.0976 76.6553 77.8999 76.6553H76.6789V77.8024ZM76.6789 76.065H77.6438C77.8712 76.0621 78.0496 76.0141 78.1782 75.92C78.3092 75.8234 78.3736 75.6936 78.3712 75.5304C78.3736 75.3695 78.3092 75.2443 78.1782 75.1548C78.0473 75.0635 77.8666 75.0179 77.6362 75.0179H76.6789V76.065ZM80.4126 80.0341C80.2916 80.037 80.1817 80.0283 80.0822 80.0084C79.9858 79.9908 79.9115 79.9698 79.86 79.9452L80.0565 79.2877L80.1121 79.3029C80.3173 79.355 80.491 79.3509 80.6319 79.2918C80.7752 79.2345 80.8957 79.0753 80.9921 78.8127L81.0921 78.5377L79.5776 74.3306H80.4425L81.4892 77.5538H81.5336L82.5845 74.3306H83.4493L81.7418 79.0315C81.6623 79.2497 81.5623 79.4328 81.4412 79.5813C81.3196 79.7323 81.174 79.8452 81.0033 79.9195C80.8348 79.9961 80.6378 80.0341 80.4126 80.0341ZM85.5317 78.5676C85.1259 78.5676 84.7744 78.4798 84.4774 78.3038C84.1803 78.1283 83.9516 77.8808 83.7908 77.5614C83.6324 77.2397 83.5528 76.8647 83.5528 76.4359C83.5528 76.0106 83.6312 75.6351 83.7867 75.311C83.9452 74.9869 84.1668 74.7342 84.4516 74.5534C84.7382 74.3703 85.075 74.2785 85.4609 74.2785C85.696 74.2785 85.9235 74.3171 86.1439 74.3937C86.3644 74.4704 86.562 74.592 86.7381 74.7576C86.9135 74.9237 87.0521 75.139 87.1538 75.404C87.2573 75.669 87.3094 75.9878 87.3094 76.3616V76.6518H84.0095V76.0463H86.8936L86.5188 76.247C86.5188 75.9919 86.4796 75.7667 86.4001 75.5707C86.3211 75.3753 86.2024 75.2232 86.0439 75.1144C85.8878 75.0027 85.6937 74.9471 85.4609 74.9471C85.2282 74.9471 85.0294 75.0027 84.8633 75.1144C84.7002 75.2256 84.575 75.373 84.4885 75.5561C84.4019 75.7392 84.3586 75.9398 84.3586 76.1575V76.5699C84.3586 76.8548 84.4083 77.0958 84.5072 77.2941C84.606 77.4918 84.7434 77.6427 84.9188 77.7468C85.0972 77.851 85.3036 77.903 85.5387 77.903C85.6925 77.903 85.8311 77.8808 85.9545 77.8363C86.0808 77.7913 86.1895 77.7246 86.2814 77.6357C86.3732 77.5462 86.4422 77.4362 86.489 77.3052L87.2538 77.4497C87.1918 77.6726 87.0831 77.8685 86.9269 78.0364C86.7714 78.2049 86.5743 78.3359 86.3369 78.4301C86.1018 78.5219 85.8334 78.5676 85.5317 78.5676ZM87.5064 75.029V74.3306H90.9993V75.029H89.652V78.4822H88.8613V75.029H87.5064ZM92.8255 79.6779V77.7843H93.1594C93.2459 77.7047 93.3202 77.6105 93.3822 77.5017C93.4442 77.3906 93.495 77.2596 93.5342 77.108C93.5763 76.9548 93.6126 76.7775 93.6418 76.5775C93.6716 76.3768 93.698 76.1452 93.7202 75.8831L93.85 74.3306H96.6674V77.7843H97.306V79.6779H96.5148V78.4822H93.6272V79.6779H92.8255ZM94.0283 77.7843H95.8803V75.0214H94.5698L94.481 75.8831C94.4435 76.3213 94.3932 76.6997 94.3289 77.0191C94.2669 77.3362 94.1669 77.5912 94.0283 77.7843ZM99.5181 78.5676C99.1293 78.5676 98.7889 78.4787 98.4971 78.3002C98.2077 78.1218 97.9825 77.872 97.8217 77.5503C97.6633 77.2286 97.5843 76.8548 97.5843 76.4289C97.5843 75.9978 97.6633 75.6216 97.8217 75.2999C97.9825 74.9758 98.2077 74.7243 98.4971 74.5458C98.7889 74.368 99.1293 74.2785 99.5181 74.2785C99.9088 74.2785 100.249 74.368 100.539 74.5458C100.828 74.7243 101.054 74.9758 101.215 75.2999C101.375 75.6216 101.455 75.9978 101.455 76.4289C101.455 76.8548 101.375 77.2286 101.215 77.5503C101.054 77.872 100.828 78.1218 100.539 78.3002C100.249 78.4787 99.9088 78.5676 99.5181 78.5676ZM99.5181 77.8878C99.7731 77.8878 99.983 77.8211 100.149 77.6878C100.315 77.5538 100.437 77.3771 100.516 77.1566C100.598 76.9337 100.639 76.691 100.639 76.4289C100.639 76.1616 100.598 75.9164 100.516 75.6936C100.437 75.4707 100.315 75.2923 100.149 75.1589C99.983 75.0249 99.7731 74.9582 99.5181 74.9582C99.2655 74.9582 99.0562 75.0249 98.8907 75.1589C98.7275 75.2923 98.6047 75.4707 98.5234 75.6936C98.4416 75.9164 98.4006 76.1616 98.4006 76.4289C98.4006 76.691 98.4416 76.9337 98.5234 77.1566C98.6047 77.3771 98.7275 77.5538 98.8907 77.6878C99.0562 77.8211 99.2655 77.8878 99.5181 77.8878ZM105.713 72.9494V78.4822H104.889V73.7889H104.852L103.538 74.6541V73.8515L104.911 72.9494H105.713ZM108.356 78.5565C108.017 78.5565 107.712 78.4921 107.443 78.3634C107.176 78.2324 106.962 78.0528 106.801 77.8247C106.64 77.5948 106.555 77.3333 106.545 77.0414H107.354C107.373 77.2765 107.479 77.4707 107.669 77.6246C107.86 77.7778 108.088 77.8545 108.356 77.8545C108.569 77.8545 108.757 77.8053 108.92 77.7059C109.084 77.607 109.212 77.4719 109.306 77.3011C109.4 77.1279 109.447 76.9302 109.447 76.7073C109.447 76.4845 109.399 76.285 109.302 76.1095C109.206 75.9311 109.073 75.7913 108.902 75.6901C108.733 75.5883 108.539 75.5374 108.319 75.5374C108.15 75.5374 107.982 75.5672 107.814 75.6269C107.646 75.6836 107.51 75.7579 107.405 75.8498L106.638 75.738L106.949 72.9494H109.989V73.666H107.647L107.473 75.2145H107.503C107.608 75.108 107.751 75.0214 107.929 74.9547C108.11 74.8851 108.304 74.8506 108.512 74.8506C108.849 74.8506 109.148 74.9313 109.41 75.0922C109.675 75.2502 109.883 75.4684 110.034 75.7456C110.185 76.0206 110.26 76.3359 110.26 76.6921C110.26 77.0513 110.178 77.3719 110.015 77.6538C109.852 77.934 109.626 78.154 109.34 78.3149C109.055 78.4757 108.727 78.5565 108.356 78.5565ZM113.018 72.6897L111.236 79.314H110.516L112.298 72.6897H113.018ZM115.301 78.5565C114.927 78.5565 114.596 78.4933 114.306 78.3669C114.017 78.2382 113.788 78.0598 113.619 77.8323C113.451 77.6047 113.362 77.3409 113.352 77.0414H114.191C114.203 77.2046 114.259 77.3461 114.358 77.4649C114.457 77.5836 114.587 77.6766 114.748 77.7433C114.911 77.8077 115.093 77.8399 115.293 77.8399C115.512 77.8399 115.704 77.8013 115.872 77.7246C116.041 77.648 116.172 77.5427 116.266 77.4093C116.362 77.273 116.411 77.1156 116.411 76.9372C116.411 76.7518 116.364 76.5886 116.27 76.447C116.176 76.3037 116.038 76.1926 115.858 76.113C115.677 76.034 115.459 75.9942 115.204 75.9942H114.733V75.311H115.204C115.407 75.311 115.587 75.2741 115.742 75.1998C115.899 75.1256 116.02 75.0226 116.106 74.8916C116.196 74.7605 116.24 74.6055 116.24 74.4271C116.24 74.2563 116.202 74.1077 116.125 73.9819C116.048 73.8532 115.941 73.7538 115.802 73.6847C115.664 73.6128 115.5 73.5771 115.312 73.5771C115.131 73.5771 114.963 73.6093 114.807 73.6736C114.651 73.738 114.524 73.831 114.425 73.9521C114.329 74.0708 114.278 74.2159 114.273 74.3867H113.467C113.475 74.0866 113.561 73.8246 113.727 73.5993C113.895 73.3718 114.118 73.1945 114.395 73.0682C114.675 72.9395 114.984 72.8751 115.323 72.8751C115.677 72.8751 115.983 72.9447 116.24 73.0834C116.5 73.2191 116.7 73.4022 116.841 73.6327C116.982 73.8602 117.053 74.1094 117.053 74.3791C117.053 74.6932 116.966 74.9582 116.793 75.1735C116.62 75.3864 116.389 75.5315 116.099 75.6082V75.6491C116.465 75.7058 116.749 75.8521 116.949 76.0873C117.152 76.3224 117.254 76.6143 117.254 76.9636C117.254 77.2678 117.168 77.5404 116.997 77.7802C116.829 78.0206 116.597 78.2101 116.303 78.3482C116.011 78.4868 115.677 78.5565 115.301 78.5565ZM119.878 78.5565C119.452 78.5565 119.087 78.4453 118.783 78.2224C118.481 77.9996 118.249 77.6778 118.089 77.2566C117.93 76.8337 117.851 76.3212 117.851 75.7193C117.851 75.1203 117.931 74.609 118.092 74.1861C118.253 73.7602 118.484 73.4361 118.786 73.2132C119.091 72.988 119.455 72.8751 119.878 72.8751C120.303 72.8751 120.667 72.988 120.969 73.2132C121.273 73.4361 121.505 73.7602 121.663 74.1861C121.824 74.609 121.904 75.1203 121.904 75.7193C121.904 76.3212 121.825 76.8337 121.667 77.2566C121.508 77.6778 121.278 77.9996 120.977 78.2224C120.674 78.4453 120.308 78.5565 119.878 78.5565ZM119.878 77.8434C120.138 77.8434 120.356 77.7603 120.535 77.5948C120.713 77.4286 120.849 77.1876 120.943 76.8705C121.037 76.5511 121.084 76.1674 121.084 75.7193C121.084 75.2689 121.037 74.8851 120.943 74.5686C120.849 74.2492 120.713 74.0065 120.535 73.8404C120.356 73.6725 120.138 73.5882 119.878 73.5882C119.494 73.5882 119.197 73.7748 118.987 74.1486C118.779 74.5201 118.675 75.0436 118.675 75.7193C118.675 76.1674 118.722 76.5511 118.816 76.8705C118.91 77.1876 119.046 77.4286 119.224 77.5948C119.405 77.7603 119.623 77.8434 119.878 77.8434Z" fill="#BDBDBD"/>
    <path d="M205.317 69.1223C205.317 65.4069 202.306 62.395 198.592 62.395C194.878 62.395 191.867 65.4069 191.867 69.1223C191.867 72.8377 194.878 75.8496 198.592 75.8496C202.306 75.8496 205.317 72.8377 205.317 69.1223Z" stroke="#E0E0E0"/>
    <path d="M203.27 92.814H16.7298C13.0158 92.814 10.005 95.8259 10.005 99.5412V118.261C10.005 121.976 13.0158 124.988 16.7298 124.988H203.27C206.984 124.988 209.995 121.976 209.995 118.261V99.5412C209.995 95.8259 206.984 92.814 203.27 92.814Z" stroke="#E0E0E0"/>
    <path d="M26.4759 106.561V112.801M29.9845 106.561V112.801M33.8829 106.561V112.801M37.3915 106.561V112.801M24.9165 114.049V114.673C24.9165 115.11 24.9165 115.328 25.0015 115.495C25.0763 115.642 25.1955 115.761 25.3422 115.836C25.509 115.921 25.7273 115.921 26.164 115.921H37.7034C38.1401 115.921 38.3584 115.921 38.5252 115.836C38.6719 115.761 38.7911 115.642 38.8659 115.495C38.9509 115.328 38.9509 115.11 38.9509 114.673V114.049C38.9509 113.612 38.9509 113.394 38.8659 113.227C38.7911 113.08 38.6719 112.961 38.5252 112.886C38.3584 112.801 38.1401 112.801 37.7034 112.801H26.164C25.7273 112.801 25.509 112.801 25.3422 112.886C25.1955 112.961 25.0763 113.08 25.0015 113.227C24.9165 113.394 24.9165 113.612 24.9165 114.049ZM31.6631 101.941L25.8934 103.224C25.5448 103.302 25.3705 103.34 25.2405 103.434C25.1257 103.517 25.0356 103.629 24.9798 103.759C24.9165 103.906 24.9165 104.085 24.9165 104.442V105.313C24.9165 105.75 24.9165 105.968 25.0015 106.135C25.0763 106.282 25.1955 106.401 25.3422 106.476C25.509 106.561 25.7273 106.561 26.164 106.561H37.7034C38.1401 106.561 38.3584 106.561 38.5252 106.476C38.6719 106.401 38.7911 106.282 38.8659 106.135C38.9509 105.968 38.9509 105.75 38.9509 105.313V104.442C38.9509 104.085 38.9509 103.906 38.8876 103.759C38.8318 103.629 38.7417 103.517 38.6269 103.434C38.4969 103.34 38.3226 103.302 37.974 103.224L32.2043 101.941C32.1033 101.919 32.0528 101.908 32.0018 101.903C31.9565 101.899 31.9109 101.899 31.8656 101.903C31.8146 101.908 31.7641 101.919 31.6631 101.941Z" stroke="#303030" stroke-width="1.5" stroke-linecap="round" stroke-linejoin="round"/>
    <path d="M57.5535 112.502C56.9688 112.502 56.4454 112.362 55.9823 112.082C55.5191 111.801 55.1537 111.401 54.8858 110.88C54.618 110.356 54.4835 109.733 54.4835 109.011C54.4835 108.283 54.618 107.658 54.8858 107.137C55.1537 106.613 55.5191 106.211 55.9823 105.931C56.4454 105.65 56.9688 105.51 57.5535 105.51C58.1447 105.51 58.6699 105.65 59.1301 105.931C59.5897 106.211 59.9523 106.613 60.2172 107.137C60.4856 107.658 60.6195 108.283 60.6195 109.011C60.6195 109.736 60.4856 110.359 60.2172 110.88C59.9523 111.401 59.5897 111.801 59.1301 112.082C58.6699 112.362 58.1447 112.502 57.5535 112.502ZM57.5535 111.566C57.9465 111.566 58.2968 111.468 58.6044 111.273C58.912 111.078 59.1541 110.79 59.3312 110.409C59.5108 110.028 59.6002 109.562 59.6002 109.011C59.6002 108.457 59.5108 107.989 59.3312 107.608C59.1541 107.224 58.912 106.934 58.6044 106.74C58.2968 106.544 57.9465 106.447 57.5535 106.447C57.1641 106.447 56.8138 106.544 56.5033 106.74C56.1957 106.934 55.9519 107.224 55.7723 107.608C55.5922 107.989 55.5028 108.457 55.5028 109.011C55.5028 109.562 55.5922 110.028 55.7723 110.409C55.9519 110.79 56.1957 111.078 56.5033 111.273C56.8138 111.468 57.1641 111.566 57.5535 111.566ZM61.4282 112.411V107.302H65.5853V112.411H64.6123V108.161H62.3872V112.411H61.4282ZM66.1292 112.411L66.1245 111.552H66.3022C66.4946 111.549 66.6449 111.493 66.7548 111.383C66.8677 111.27 66.9513 111.07 67.0063 110.784C67.0642 110.498 67.1022 110.092 67.1203 109.569L67.2116 107.302H70.7704V112.411H69.7974V108.161H68.1255L68.0431 109.902C68.025 110.323 67.9834 110.689 67.9197 111.004C67.856 111.317 67.7612 111.579 67.6367 111.79C67.5115 111.997 67.3519 112.152 67.1566 112.255C66.9619 112.359 66.7244 112.411 66.4443 112.411H66.1292ZM73.1961 112.521C72.8733 112.521 72.5809 112.461 72.3189 112.343C72.0575 112.22 71.8499 112.044 71.6979 111.813C71.5458 111.581 71.4692 111.299 71.4692 110.967C71.4692 110.677 71.5242 110.441 71.6341 110.258C71.7464 110.073 71.8973 109.925 72.0862 109.815C72.275 109.705 72.485 109.623 72.7165 109.569C72.9481 109.514 73.1855 109.471 73.4294 109.44C73.737 109.407 73.9849 109.378 74.1738 109.353C74.3627 109.329 74.5001 109.291 74.5855 109.239C74.6738 109.184 74.7176 109.098 74.7176 108.979V108.956C74.7176 108.667 74.6352 108.443 74.4708 108.284C74.3095 108.125 74.0691 108.046 73.7492 108.046C73.4171 108.046 73.154 108.12 72.9586 108.266C72.7668 108.409 72.6347 108.572 72.5616 108.755L71.6248 108.54C71.7376 108.23 71.9002 107.979 72.1137 107.791C72.33 107.598 72.5768 107.459 72.854 107.37C73.1341 107.282 73.4265 107.237 73.7311 107.237C73.9352 107.237 74.151 107.262 74.3796 107.311C74.6083 107.356 74.8229 107.443 75.024 107.571C75.2275 107.696 75.3936 107.876 75.5217 108.11C75.6497 108.345 75.7135 108.648 75.7135 109.02V112.411H74.7404V111.712H74.7042C74.6428 111.837 74.5469 111.962 74.4159 112.086C74.2884 112.212 74.1235 112.315 73.9229 112.398C73.7218 112.479 73.4797 112.521 73.1961 112.521ZM73.4112 111.725C73.6884 111.725 73.9241 111.672 74.1194 111.566C74.3141 111.456 74.4632 111.312 74.5668 111.136C74.6703 110.959 74.7223 110.772 74.7223 110.574V109.911C74.6855 109.945 74.617 109.977 74.5165 110.007C74.4159 110.038 74.3018 110.063 74.1738 110.085C74.0463 110.106 73.9212 110.126 73.7995 110.144C73.6773 110.159 73.5756 110.172 73.4931 110.181C73.3013 110.208 73.1265 110.251 72.968 110.309C72.8095 110.364 72.6815 110.446 72.5844 110.555C72.4897 110.662 72.4423 110.804 72.4423 110.981C72.4423 111.228 72.5341 111.413 72.7165 111.538C72.8996 111.663 73.1311 111.725 73.4112 111.725ZM76.0333 108.161V107.302H80.3326V108.161H78.6741V112.411H77.7011V108.161H76.0333ZM82.2418 112.521C81.919 112.521 81.6266 112.461 81.3647 112.343C81.1027 112.22 80.8957 112.044 80.7436 111.813C80.591 111.581 80.515 111.299 80.515 110.967C80.515 110.677 80.57 110.441 80.6793 110.258C80.7922 110.073 80.943 109.925 81.1319 109.815C81.3208 109.705 81.5307 109.623 81.7623 109.569C81.9939 109.514 82.2313 109.471 82.4751 109.44C82.7827 109.407 83.0307 109.378 83.2195 109.353C83.4084 109.329 83.5453 109.291 83.6306 109.239C83.7189 109.184 83.7634 109.098 83.7634 108.979V108.956C83.7634 108.667 83.6809 108.443 83.5166 108.284C83.3552 108.125 83.1143 108.046 82.795 108.046C82.4629 108.046 82.1991 108.12 82.0044 108.266C81.8126 108.409 81.6799 108.572 81.6068 108.755L80.6705 108.54C80.7828 108.23 80.946 107.979 81.1594 107.791C81.3752 107.598 81.622 107.459 81.8991 107.37C82.1792 107.282 82.4716 107.237 82.7763 107.237C82.9804 107.237 83.1967 107.262 83.4254 107.311C83.6534 107.356 83.868 107.443 84.0692 107.571C84.2733 107.696 84.4394 107.876 84.5674 108.11C84.6955 108.345 84.7592 108.648 84.7592 109.02V112.411H83.7862V111.712H83.7493C83.6885 111.837 83.5926 111.962 83.4616 112.086C83.3336 112.212 83.1692 112.315 82.9681 112.398C82.7675 112.479 82.5254 112.521 82.2418 112.521ZM82.4564 111.725C82.7336 111.725 82.9698 111.672 83.1646 111.566C83.3599 111.456 83.509 111.312 83.6125 111.136C83.716 110.959 83.7681 110.772 83.7681 110.574V109.911C83.7312 109.945 83.6628 109.977 83.5622 110.007C83.4616 110.038 83.3476 110.063 83.2195 110.085C83.0915 110.106 82.9669 110.126 82.8447 110.144C82.7231 110.159 82.6213 110.172 82.5389 110.181C82.3471 110.208 82.1716 110.251 82.0138 110.309C81.8553 110.364 81.7272 110.446 81.6296 110.555C81.5354 110.662 81.488 110.804 81.488 110.981C81.488 111.228 81.5793 111.413 81.7623 111.538C81.9447 111.663 82.1763 111.725 82.4564 111.725ZM89.9397 112.516C89.4496 112.516 89.0263 112.403 88.6696 112.178C88.3134 111.952 88.0392 111.642 87.8474 111.246C87.6556 110.85 87.5597 110.396 87.5597 109.884C87.5597 109.363 87.6573 108.904 87.8521 108.508C88.0503 108.109 88.3257 107.798 88.6789 107.576C89.035 107.35 89.4526 107.237 89.9309 107.237C90.3204 107.237 90.6665 107.309 90.9677 107.452C91.2724 107.593 91.5174 107.792 91.7033 108.051C91.8922 108.31 92.0033 108.612 92.0367 108.956H91.0683C91.0349 108.795 90.9695 108.647 90.8718 108.513C90.7776 108.379 90.6525 108.272 90.497 108.193C90.342 108.114 90.1578 108.074 89.9444 108.074C89.6672 108.074 89.4251 108.147 89.2181 108.293C89.014 108.437 88.8544 108.642 88.7386 108.911C88.6228 109.178 88.5649 109.495 88.5649 109.861C88.5649 110.23 88.621 110.551 88.7339 110.825C88.8467 111.099 89.0064 111.311 89.2134 111.46C89.4233 111.607 89.6672 111.68 89.9444 111.68C90.2309 111.68 90.4742 111.601 90.6753 111.442C90.8794 111.284 91.0104 111.067 91.0683 110.793H92.0367C92.0033 111.125 91.8969 111.421 91.7168 111.68C91.5373 111.939 91.2969 112.143 90.9952 112.292C90.6934 112.441 90.342 112.516 89.9397 112.516ZM94.8827 112.516C94.405 112.516 93.9863 112.406 93.6266 112.187C93.2705 111.968 92.9933 111.66 92.7951 111.264C92.6004 110.868 92.5027 110.408 92.5027 109.884C92.5027 109.353 92.6004 108.891 92.7951 108.495C92.9933 108.095 93.2705 107.786 93.6266 107.567C93.9863 107.347 94.405 107.237 94.8827 107.237C95.364 107.237 95.7832 107.347 96.1394 107.567C96.4955 107.786 96.7727 108.095 96.9709 108.495C97.1686 108.891 97.268 109.353 97.268 109.884C97.268 110.408 97.1686 110.868 96.9709 111.264C96.7727 111.66 96.4955 111.968 96.1394 112.187C95.7832 112.406 95.364 112.516 94.8827 112.516ZM94.8827 111.68C95.1967 111.68 95.4558 111.597 95.6599 111.433C95.864 111.269 96.0142 111.05 96.1119 110.78C96.2125 110.505 96.2628 110.207 96.2628 109.884C96.2628 109.555 96.2125 109.253 96.1119 108.979C96.0142 108.705 95.864 108.485 95.6599 108.321C95.4558 108.156 95.1967 108.074 94.8827 108.074C94.5722 108.074 94.3149 108.156 94.1108 108.321C93.9097 108.485 93.7594 108.705 93.6588 108.979C93.5582 109.253 93.5079 109.555 93.5079 109.884C93.5079 110.207 93.5582 110.505 93.6588 110.78C93.7594 111.05 93.9097 111.269 94.1108 111.433C94.3149 111.597 94.5722 111.68 94.8827 111.68ZM102.211 112.516C101.72 112.516 101.297 112.403 100.941 112.178C100.584 111.952 100.311 111.642 100.119 111.246C99.9263 110.85 99.8304 110.396 99.8304 109.884C99.8304 109.363 99.9281 108.904 100.123 108.508C100.321 108.109 100.596 107.798 100.95 107.576C101.306 107.35 101.723 107.237 102.202 107.237C102.592 107.237 102.937 107.309 103.239 107.452C103.543 107.593 103.789 107.792 103.974 108.051C104.163 108.31 104.274 108.612 104.308 108.956H103.339C103.306 108.795 103.24 108.647 103.143 108.513C103.048 108.379 102.923 108.272 102.768 108.193C102.613 108.114 102.429 108.074 102.216 108.074C101.939 108.074 101.696 108.147 101.489 108.293C101.285 108.437 101.125 108.642 101.009 108.911C100.894 109.178 100.836 109.495 100.836 109.861C100.836 110.23 100.892 110.551 101.005 110.825C101.117 111.099 101.277 111.311 101.485 111.46C101.695 111.607 101.939 111.68 102.216 111.68C102.502 111.68 102.745 111.601 102.947 111.442C103.15 111.284 103.281 111.067 103.339 110.793H104.308C104.274 111.125 104.168 111.421 103.988 111.68C103.808 111.939 103.568 112.143 103.266 112.292C102.965 112.441 102.613 112.516 102.211 112.516ZM109.105 107.302V112.411H108.132V107.302H109.105ZM108.684 109.678V110.537C108.532 110.595 108.369 110.648 108.196 110.697C108.025 110.746 107.845 110.784 107.656 110.812C107.47 110.836 107.274 110.848 107.067 110.848C106.437 110.848 105.935 110.694 105.564 110.386C105.193 110.076 105.009 109.602 105.011 108.965V107.292H105.97V108.965C105.974 109.203 106.02 109.398 106.108 109.55C106.196 109.703 106.321 109.814 106.482 109.884C106.647 109.954 106.842 109.989 107.067 109.989C107.366 109.992 107.643 109.965 107.898 109.907C108.155 109.849 108.417 109.773 108.684 109.678ZM112.253 112.516C111.753 112.516 111.32 112.408 110.955 112.192C110.59 111.975 110.308 111.67 110.11 111.277C109.915 110.881 109.818 110.42 109.818 109.893C109.818 109.369 109.914 108.907 110.105 108.508C110.3 108.109 110.573 107.798 110.923 107.576C111.276 107.35 111.691 107.237 112.165 107.237C112.455 107.237 112.735 107.285 113.006 107.379C113.277 107.474 113.521 107.623 113.737 107.827C113.953 108.031 114.124 108.296 114.249 108.622C114.376 108.949 114.441 109.342 114.441 109.801V110.158H110.379V109.413H113.929L113.468 109.66C113.468 109.346 113.419 109.068 113.322 108.828C113.224 108.588 113.078 108.4 112.883 108.266C112.691 108.129 112.452 108.06 112.165 108.06C111.88 108.06 111.634 108.129 111.43 108.266C111.229 108.403 111.075 108.584 110.968 108.81C110.862 109.035 110.809 109.282 110.809 109.55V110.058C110.809 110.408 110.87 110.705 110.991 110.949C111.113 111.193 111.282 111.378 111.498 111.506C111.718 111.634 111.972 111.698 112.261 111.698C112.45 111.698 112.621 111.67 112.773 111.616C112.929 111.561 113.063 111.479 113.175 111.369C113.288 111.259 113.373 111.123 113.431 110.962L114.372 111.14C114.296 111.415 114.162 111.655 113.97 111.862C113.778 112.07 113.536 112.231 113.244 112.347C112.954 112.46 112.624 112.516 112.253 112.516ZM114.683 108.161V107.302H118.982V108.161H117.323V112.411H116.35V108.161H114.683ZM120.891 112.521C120.569 112.521 120.276 112.461 120.014 112.343C119.752 112.22 119.545 112.044 119.393 111.813C119.241 111.581 119.165 111.299 119.165 110.967C119.165 110.677 119.22 110.441 119.329 110.258C119.442 110.073 119.593 109.925 119.781 109.815C119.97 109.705 120.18 109.623 120.412 109.569C120.643 109.514 120.881 109.471 121.124 109.44C121.432 109.407 121.68 109.378 121.869 109.353C122.058 109.329 122.195 109.291 122.28 109.239C122.368 109.184 122.413 109.098 122.413 108.979V108.956C122.413 108.667 122.33 108.443 122.166 108.284C122.005 108.125 121.764 108.046 121.444 108.046C121.112 108.046 120.849 108.12 120.654 108.266C120.462 108.409 120.329 108.572 120.256 108.755L119.32 108.54C119.432 108.23 119.596 107.979 119.808 107.791C120.025 107.598 120.272 107.459 120.549 107.37C120.829 107.282 121.121 107.237 121.426 107.237C121.63 107.237 121.846 107.262 122.074 107.311C122.303 107.356 122.518 107.443 122.719 107.571C122.923 107.696 123.089 107.876 123.217 108.11C123.344 108.345 123.409 108.648 123.409 109.02V112.411H122.436V111.712H122.399C122.338 111.837 122.242 111.962 122.111 112.086C121.983 112.212 121.819 112.315 121.618 112.398C121.416 112.479 121.174 112.521 120.891 112.521ZM121.106 111.725C121.383 111.725 121.619 111.672 121.814 111.566C122.009 111.456 122.159 111.312 122.262 111.136C122.366 110.959 122.417 110.772 122.417 110.574V109.911C122.381 109.945 122.312 109.977 122.212 110.007C122.111 110.038 121.997 110.063 121.869 110.085C121.741 110.106 121.616 110.126 121.494 110.144C121.373 110.159 121.27 110.172 121.188 110.181C120.997 110.208 120.821 110.251 120.663 110.309C120.505 110.364 120.377 110.446 120.279 110.555C120.185 110.662 120.138 110.804 120.138 110.981C120.138 111.228 120.229 111.413 120.412 111.538C120.594 111.663 120.826 111.725 121.106 111.725Z" fill="#303030"/>
    <path d="M205.609 108.901C205.609 105.024 202.468 101.881 198.592 101.881C194.717 101.881 191.575 105.024 191.575 108.901C191.575 112.778 194.717 115.921 198.592 115.921C202.468 115.921 205.609 112.778 205.609 108.901Z" fill="#12B76A"/>
    <path d="M201.711 106.561L197.423 110.851L195.474 108.901" stroke="white" stroke-width="1.5" stroke-linecap="round" stroke-linejoin="round"/>
    <path d="M123.45 5.35938H97.1353C96.3279 5.35938 95.6733 6.01414 95.6733 6.82183C95.6733 7.62951 96.3279 8.28428 97.1353 8.28428H123.45C124.257 8.28428 124.912 7.62951 124.912 6.82183C124.912 6.01414 124.257 5.35938 123.45 5.35938Z" fill="#E0E0E0"/>
</svg>
