<svg width="103" height="68" viewBox="0 0 103 68" fill="none" xmlns="http://www.w3.org/2000/svg">
<g filter="url(#filter0_d_5413_2962)">
<path d="M94.9014 2.02222H8.09797C5.86169 2.02222 4.04883 3.83305 4.04883 6.06683V57.8884C4.04883 60.1222 5.86169 61.933 8.09797 61.933H94.9014C97.1377 61.933 98.9505 60.1222 98.9505 57.8884V6.06683C98.9505 3.83305 97.1377 2.02222 94.9014 2.02222Z" fill="white"/>
<path d="M91.8647 9.47949H11.1349C9.5276 9.47949 8.22461 10.781 8.22461 12.3866V20.4758C8.22461 22.0813 9.5276 23.3828 11.1349 23.3828H91.8647C93.472 23.3828 94.775 22.0813 94.775 20.4758V12.3866C94.775 10.781 93.472 9.47949 91.8647 9.47949Z" stroke="#E0E0E0" stroke-width="0.5"/>
<mask id="mask0_5413_2962" style="mask-type:luminance" maskUnits="userSpaceOnUse" x="12" y="13" width="11" height="7">
<path d="M22.7762 13.1448H12.6533V19.4645H22.7762V13.1448Z" fill="white"/>
</mask>
<g mask="url(#mask0_5413_2962)">
<path d="M19.0837 13.8206H16.3467V18.7885H19.0837V13.8206Z" fill="#FF5F00"/>
<path d="M16.5197 16.3039C16.5197 15.3384 16.9629 14.4168 17.7102 13.8199C16.3547 12.7403 14.3909 12.9773 13.3221 14.3553C12.2534 15.7246 12.488 17.7083 13.8522 18.7879C14.9905 19.692 16.5806 19.692 17.7188 18.7879C16.9629 18.191 16.5197 17.2694 16.5197 16.3039Z" fill="#EB001B"/>
<path d="M22.7768 16.3046C22.7768 18.0513 21.3778 19.4645 19.6487 19.4645C18.9449 19.4645 18.2671 19.2275 17.7197 18.7886C19.0752 17.709 19.3098 15.7253 18.2411 14.3473C18.0847 14.1542 17.9109 13.9698 17.7197 13.8206C19.0752 12.741 21.0477 12.978 22.1077 14.356C22.5422 14.909 22.7768 15.5937 22.7768 16.3046Z" fill="#F79E1B"/>
<path d="M22.4806 18.262V18.1567H22.524V18.1392H22.4199V18.1567H22.4633V18.262H22.4806ZM22.68 18.262V18.1392H22.6453L22.6106 18.2269L22.576 18.1392H22.5413V18.262H22.5673V18.1655L22.602 18.2445H22.628L22.6627 18.1655V18.262H22.68Z" fill="#F79E1B"/>
</g>
<path d="M28.1464 14.3851L28.174 13.7789L27.6638 14.1087L27.5059 13.8361L28.0474 13.5596L27.5059 13.2832L27.6638 13.0067L28.174 13.3365L28.1464 12.7302H28.4587L28.4311 13.3365L28.941 13.0067L29.0992 13.2832L28.5576 13.5596L29.0992 13.8361L28.941 14.1087L28.4311 13.7789L28.4587 14.3851H28.1464ZM30.0879 14.3851L30.1155 13.7789L29.6053 14.1087L29.4472 13.8361L29.989 13.5596L29.4472 13.2832L29.6053 13.0067L30.1155 13.3365L30.0879 12.7302H30.4002L30.3726 13.3365L30.8826 13.0067L31.0408 13.2832L30.4992 13.5596L31.0408 13.8361L30.8826 14.1087L30.3726 13.7789L30.4002 14.3851H30.0879ZM31.5115 15.6728L32.7966 13.1331V13.1113H31.3098V12.7302H33.2592V13.1271L31.9761 15.6728H31.5115ZM34.481 15.7123C34.2755 15.7123 34.0936 15.6767 33.9354 15.6057C33.7785 15.5345 33.6552 15.4371 33.5656 15.3134C33.4773 15.1883 33.433 15.0461 33.433 14.8868C33.433 14.7643 33.4589 14.6504 33.5102 14.5451C33.5629 14.4398 33.6342 14.3522 33.7238 14.2825C33.8134 14.2127 33.9141 14.1679 34.0262 14.1482V14.1304C33.88 14.0948 33.762 14.0165 33.6724 13.8954C33.5841 13.7729 33.5398 13.6334 33.5398 13.4767C33.5398 13.3253 33.5801 13.1903 33.6605 13.0718C33.7423 12.9533 33.8536 12.8605 33.9946 12.7934C34.1371 12.7249 34.299 12.6907 34.481 12.6907C34.6602 12.6907 34.8204 12.7249 34.9613 12.7934C35.1038 12.8605 35.2152 12.9533 35.2956 13.0718C35.3774 13.1903 35.4181 13.3253 35.4181 13.4767C35.4181 13.6334 35.3733 13.7729 35.2837 13.8954C35.1954 14.0165 35.0795 14.0948 34.9358 14.1304V14.1482C35.0464 14.1679 35.1466 14.2127 35.2362 14.2825C35.326 14.3522 35.3971 14.4398 35.4498 14.5451C35.5024 14.6504 35.529 14.7643 35.529 14.8868C35.529 15.0461 35.4842 15.1883 35.3943 15.3134C35.3048 15.4371 35.181 15.5345 35.0228 15.6057C34.8659 15.6767 34.6852 15.7123 34.481 15.7123ZM34.481 15.3489C34.6022 15.3489 34.7078 15.3292 34.7973 15.2897C34.8869 15.2488 34.9563 15.1916 35.0049 15.1178C35.0537 15.0441 35.078 14.9585 35.078 14.8611C35.078 14.7584 35.0517 14.6682 34.999 14.5906C34.9477 14.5115 34.8771 14.4497 34.7875 14.4049C34.6979 14.3588 34.5956 14.3358 34.481 14.3358C34.3651 14.3358 34.2616 14.3582 34.1705 14.4029C34.0809 14.4477 34.0105 14.5096 33.9592 14.5886C33.9075 14.6676 33.882 14.7584 33.882 14.8611C33.882 14.9585 33.9063 15.0441 33.9551 15.1178C34.004 15.1916 34.0731 15.2488 34.1626 15.2897C34.2522 15.3292 34.3585 15.3489 34.481 15.3489ZM34.481 13.9823C34.5784 13.9823 34.665 13.9625 34.7399 13.923C34.8166 13.8835 34.8763 13.8289 34.9198 13.7591C34.9646 13.6893 34.9871 13.6077 34.9871 13.5142C34.9871 13.4221 34.9654 13.3417 34.9219 13.2733C34.8798 13.2048 34.8204 13.1515 34.7439 13.1133C34.6688 13.0751 34.5812 13.056 34.481 13.056C34.3795 13.056 34.2904 13.0751 34.214 13.1133C34.1376 13.1515 34.0784 13.2048 34.0361 13.2733C33.9941 13.3417 33.9728 13.4221 33.9728 13.5142C33.9728 13.6077 33.9946 13.6893 34.0381 13.7591C34.0817 13.8289 34.1409 13.8835 34.216 13.923C34.2925 13.9625 34.3808 13.9823 34.481 13.9823Z" fill="#303030"/>
<path d="M27.3447 21.0535V20.171H27.5021C27.5555 20.125 27.6054 20.0608 27.6514 19.9784C27.6985 19.895 27.7388 19.7821 27.7719 19.6398C27.8051 19.4976 27.8276 19.3157 27.8395 19.0943L27.8972 18.085H29.3703V20.171H29.6419V21.0503H29.2964V20.4758H27.6902V21.0535H27.3447ZM27.9278 20.171H29.0249V18.3947H28.2219L28.1864 19.0943C28.1758 19.2622 28.1586 19.4141 28.1351 19.55C28.1125 19.6848 28.0837 19.8035 28.0483 19.9062C28.0128 20.0089 27.9728 20.0972 27.9278 20.171ZM30.6298 20.5127C30.4542 20.5127 30.3021 20.4748 30.1736 20.3988C30.045 20.3229 29.946 20.2159 29.8765 20.0779C29.8079 19.9388 29.7735 19.7768 29.7735 19.5917C29.7735 19.4077 29.8074 19.2456 29.8747 19.1055C29.9433 18.9654 30.0392 18.8563 30.1624 18.7782C30.2864 18.699 30.4322 18.6594 30.5992 18.6594C30.701 18.6594 30.7994 18.676 30.8948 18.7092C30.9902 18.7423 31.0758 18.7947 31.1519 18.8664C31.2279 18.9381 31.2878 19.0312 31.3319 19.1456C31.3767 19.2601 31.3992 19.3981 31.3992 19.5596V19.6848H29.9711V19.4232H31.2192L31.057 19.5099C31.057 19.3997 31.0401 19.3023 31.0057 19.2178C30.9715 19.1333 30.9201 19.0675 30.8515 19.0205C30.784 18.9723 30.6999 18.9482 30.5992 18.9482C30.4985 18.9482 30.4125 18.9723 30.3406 19.0205C30.27 19.0686 30.2158 19.1322 30.1784 19.2114C30.1409 19.2906 30.1222 19.3772 30.1222 19.4714V19.6495C30.1222 19.7725 30.1437 19.8768 30.1865 19.9624C30.2292 20.0479 30.2887 20.1132 30.3646 20.1581C30.4418 20.2031 30.5311 20.2255 30.6329 20.2255C30.6994 20.2255 30.7594 20.2159 30.8128 20.1966C30.8675 20.1774 30.9145 20.1485 30.9543 20.11C30.994 20.0715 31.0239 20.0239 31.0441 19.9672L31.3751 20.0298C31.3483 20.126 31.3012 20.2105 31.2337 20.2833C31.1664 20.356 31.0811 20.4127 30.9783 20.4534C30.8766 20.493 30.7604 20.5127 30.6298 20.5127ZM31.8074 21.1466C31.7547 21.1476 31.7072 21.1439 31.6644 21.1353C31.6226 21.1279 31.5905 21.1188 31.568 21.1081L31.653 20.824L31.6771 20.8305C31.7661 20.8529 31.841 20.8513 31.902 20.8256C31.9643 20.8011 32.0162 20.732 32.0579 20.6186L32.1012 20.4999L31.4457 18.6819H31.82L32.273 20.0747H32.2925L32.747 18.6819H33.1213L32.3824 20.7133C32.3482 20.8074 32.3047 20.8866 32.2523 20.9508C32.1999 21.016 32.1366 21.0647 32.0627 21.0968C31.9898 21.13 31.9048 21.1466 31.8074 21.1466ZM34.0033 20.5127C33.8309 20.5127 33.6819 20.4732 33.5566 20.394C33.4313 20.3148 33.3349 20.2057 33.2676 20.0667C33.2 19.9276 33.1664 19.7682 33.1664 19.5885C33.1664 19.4056 33.2005 19.2446 33.2691 19.1055C33.3387 18.9654 33.4356 18.8563 33.5599 18.7782C33.6852 18.699 33.832 18.6594 34 18.6594C34.1372 18.6594 34.2586 18.6846 34.3647 18.7348C34.4717 18.7841 34.558 18.8541 34.6233 18.945C34.6896 19.036 34.7288 19.1419 34.7405 19.2628H34.4001C34.3882 19.2061 34.3652 19.1542 34.331 19.1071C34.2979 19.0601 34.2538 19.0226 34.1992 18.9948C34.1445 18.967 34.0797 18.9531 34.0048 18.9531C33.9074 18.9531 33.8223 18.9787 33.7495 19.0301C33.6776 19.0804 33.6214 19.1526 33.5807 19.2467C33.5402 19.3408 33.5197 19.4521 33.5197 19.5805C33.5197 19.7099 33.5394 19.8228 33.5791 19.919C33.6189 20.0153 33.675 20.0897 33.7479 20.1421C33.8218 20.1934 33.9074 20.2191 34.0048 20.2191C34.1055 20.2191 34.1911 20.1913 34.2619 20.1357C34.3335 20.08 34.3796 20.0041 34.4001 19.9078H34.7405C34.7288 20.0244 34.6914 20.1282 34.6281 20.2191C34.5648 20.31 34.4803 20.3817 34.3743 20.4341C34.2682 20.4865 34.1445 20.5127 34.0033 20.5127ZM34.7711 18.9836V18.6819H36.2827V18.9836H35.6996V20.4758H35.3575V18.9836H34.7711ZM36.5173 20.4758V18.6819H37.2596C37.4618 18.683 37.6225 18.7268 37.7414 18.8135C37.8603 18.899 37.9191 19.0156 37.918 19.1633C37.9191 19.2681 37.8859 19.351 37.8186 19.412C37.751 19.4719 37.6627 19.5131 37.5534 19.5355C37.6326 19.5441 37.7055 19.5676 37.7718 19.6061C37.8393 19.6446 37.8935 19.6965 37.9342 19.7618C37.976 19.826 37.9967 19.9025 37.9967 19.9912C37.9967 20.0864 37.9717 20.171 37.9213 20.2448C37.872 20.3175 37.8014 20.3742 37.7093 20.4149C37.6171 20.4555 37.5053 20.4758 37.3734 20.4758H36.5173ZM36.845 20.1822H37.3734C37.4592 20.1833 37.5265 20.1635 37.5759 20.1228C37.6252 20.0811 37.6493 20.0249 37.6483 19.9543C37.6493 19.8709 37.6252 19.8056 37.5759 19.7586C37.5265 19.7104 37.4592 19.6864 37.3734 19.6864H36.845V20.1822ZM36.845 19.4312H37.2626C37.3613 19.4302 37.4382 19.4093 37.4939 19.3687C37.5508 19.3269 37.5787 19.2708 37.5774 19.2002C37.5787 19.1306 37.5508 19.0766 37.4939 19.0381C37.4372 18.9985 37.359 18.9787 37.2596 18.9787H36.845V19.4312ZM38.4611 21.1466C38.4085 21.1476 38.3609 21.1439 38.3181 21.1353C38.2764 21.1279 38.2443 21.1188 38.2217 21.1081L38.3068 20.824L38.3308 20.8305C38.4199 20.8529 38.4948 20.8513 38.5558 20.8256C38.618 20.8011 38.6699 20.732 38.7117 20.6186L38.7549 20.4999L38.0995 18.6819H38.4738L38.9268 20.0747H38.9463L39.4008 18.6819H39.7751L39.0361 20.7133C39.0019 20.8074 38.9584 20.8866 38.906 20.9508C38.8536 21.016 38.7904 21.0647 38.7165 21.0968C38.6436 21.13 38.5586 21.1466 38.4611 21.1466ZM40.6763 20.5127C40.5006 20.5127 40.3485 20.4748 40.22 20.3988C40.0914 20.3229 39.9925 20.2159 39.9229 20.0779C39.8543 19.9388 39.8201 19.7768 39.8201 19.5917C39.8201 19.4077 39.8538 19.2456 39.9214 19.1055C39.9897 18.9654 40.0856 18.8563 40.2088 18.7782C40.3331 18.699 40.4786 18.6594 40.6456 18.6594C40.7474 18.6594 40.8461 18.676 40.9412 18.7092C41.0366 18.7423 41.1224 18.7947 41.1984 18.8664C41.2743 18.9381 41.3343 19.0312 41.3783 19.1456C41.4233 19.2601 41.4459 19.3981 41.4459 19.5596V19.6848H40.0175V19.4232H41.2659L41.1035 19.5099C41.1035 19.3997 41.0865 19.3023 41.0521 19.2178C41.0179 19.1333 40.9665 19.0675 40.898 19.0205C40.8304 18.9723 40.7464 18.9482 40.6456 18.9482C40.5452 18.9482 40.4589 18.9723 40.387 19.0205C40.3164 19.0686 40.2622 19.1322 40.2248 19.2114C40.1873 19.2906 40.1686 19.3772 40.1686 19.4714V19.6495C40.1686 19.7725 40.1901 19.8768 40.2329 19.9624C40.2757 20.0479 40.3351 20.1132 40.4113 20.1581C40.4882 20.2031 40.5778 20.2255 40.6796 20.2255C40.7459 20.2255 40.8058 20.2159 40.8595 20.1966C40.9139 20.1774 40.9612 20.1485 41.0007 20.11C41.0404 20.0715 41.0703 20.0239 41.0908 19.9672L41.4216 20.0298C41.3947 20.126 41.3477 20.2105 41.2803 20.2833C41.2128 20.356 41.1277 20.4127 41.0247 20.4534C40.923 20.493 40.8068 20.5127 40.6763 20.5127ZM41.5309 18.9836V18.6819H43.0425V18.9836H42.4594V20.4758H42.1173V18.9836H41.5309ZM43.8328 20.9925V20.1742H43.9773C44.015 20.1399 44.0469 20.0993 44.0737 20.0522C44.1006 20.0041 44.1226 19.9474 44.1398 19.8821C44.1578 19.8158 44.1735 19.7393 44.1864 19.6527C44.199 19.566 44.2104 19.466 44.22 19.3526L44.2762 18.6819H45.4955V20.1742H45.7719V20.9925H45.4297V20.4758H44.1798V20.9925H43.8328ZM44.3534 20.1742H45.1549V18.9803H44.588L44.5493 19.3526C44.5333 19.542 44.5113 19.7056 44.4835 19.8436C44.4566 19.9806 44.4134 20.0907 44.3534 20.1742ZM46.7292 20.5127C46.5612 20.5127 46.4139 20.4742 46.2874 20.3972C46.1621 20.3202 46.0647 20.2122 45.9951 20.0731C45.9265 19.934 45.8923 19.7725 45.8923 19.5885C45.8923 19.4023 45.9265 19.2398 45.9951 19.1007C46.0647 18.9606 46.1621 18.852 46.2874 18.775C46.4139 18.6979 46.5612 18.6594 46.7292 18.6594C46.8985 18.6594 47.0456 18.6979 47.1711 18.775C47.2964 18.852 47.3938 18.9606 47.4634 19.1007C47.533 19.2398 47.5676 19.4023 47.5676 19.5885C47.5676 19.7725 47.533 19.934 47.4634 20.0731C47.3938 20.2122 47.2964 20.3202 47.1711 20.3972C47.0456 20.4742 46.8985 20.5127 46.7292 20.5127ZM46.7292 20.2191C46.8396 20.2191 46.9307 20.1902 47.0023 20.1325C47.0742 20.0747 47.1271 19.9982 47.1612 19.903C47.1966 19.8067 47.2144 19.7019 47.2144 19.5885C47.2144 19.473 47.1966 19.3671 47.1612 19.2708C47.1271 19.1745 47.0742 19.0975 47.0023 19.0397C46.9307 18.9819 46.8396 18.9531 46.7292 18.9531C46.6199 18.9531 46.5296 18.9819 46.4577 19.0397C46.3871 19.0975 46.3339 19.1745 46.2988 19.2708C46.2633 19.3671 46.2456 19.473 46.2456 19.5885C46.2456 19.7019 46.2633 19.8067 46.2988 19.903C46.3339 19.9982 46.3871 20.0747 46.4577 20.1325C46.5296 20.1902 46.6199 20.2191 46.7292 20.2191ZM49.4103 18.085V20.4758H49.0537V18.4476H49.0377L48.4688 18.8215V18.4749L49.0633 18.085H49.4103ZM50.5541 20.5079C50.4074 20.5079 50.2755 20.4801 50.1588 20.4245C50.0432 20.3678 49.9506 20.2902 49.881 20.1918C49.8114 20.0923 49.7744 19.9795 49.7701 19.8532H50.1204C50.129 19.9549 50.1745 20.0388 50.2568 20.1052C50.3393 20.1715 50.4385 20.2046 50.5541 20.2046C50.6463 20.2046 50.7275 20.1833 50.7984 20.1405C50.869 20.0977 50.9246 20.0394 50.9654 19.9656C51.0061 19.8907 51.0264 19.8051 51.0264 19.7088C51.0264 19.6126 51.0054 19.5264 50.9636 19.4505C50.9219 19.3735 50.8642 19.313 50.7903 19.2692C50.7174 19.2253 50.6334 19.2034 50.5379 19.2034C50.4651 19.2034 50.3924 19.2162 50.3195 19.2419C50.2467 19.2665 50.1877 19.2986 50.1429 19.3382L49.8104 19.29L49.9453 18.085H51.261V18.3947H50.2472L50.1718 19.0638H50.1847C50.2307 19.0178 50.2922 18.9803 50.3694 18.9515C50.4476 18.9215 50.5316 18.9065 50.6215 18.9065C50.7672 18.9065 50.8968 18.9413 51.0102 19.0108C51.1248 19.0793 51.2149 19.1734 51.2802 19.2932C51.3455 19.412 51.3781 19.5484 51.3781 19.7024C51.3781 19.8575 51.3427 19.9961 51.2721 20.118C51.2015 20.2389 51.1041 20.3341 50.9798 20.4036C50.8566 20.4732 50.7146 20.5079 50.5541 20.5079ZM52.5716 17.9727L51.8008 20.8353H51.489L52.2601 17.9727H52.5716ZM53.5596 20.5079C53.3979 20.5079 53.2544 20.4806 53.1291 20.4261C53.0039 20.3705 52.9047 20.2935 52.832 20.195C52.7592 20.0966 52.7207 19.9827 52.7164 19.8532H53.0793C53.0846 19.9239 53.1089 19.9848 53.1517 20.0362C53.1944 20.0875 53.2506 20.1276 53.3202 20.1565C53.3911 20.1843 53.4698 20.1983 53.5563 20.1983C53.6507 20.1983 53.7342 20.1817 53.8071 20.1485C53.8798 20.1153 53.9367 20.0699 53.9774 20.0121C54.0192 19.9533 54.0399 19.8854 54.0399 19.8083C54.0399 19.7281 54.0197 19.6575 53.979 19.5965C53.9382 19.5345 53.8787 19.4863 53.8005 19.4521C53.7223 19.4179 53.6282 19.4008 53.5179 19.4008H53.3139V19.1055H53.5179C53.6057 19.1055 53.6834 19.0894 53.7509 19.0574C53.8183 19.0253 53.8709 18.9809 53.9084 18.9242C53.9468 18.8675 53.9661 18.8006 53.9661 18.7236C53.9661 18.6498 53.9496 18.5856 53.9162 18.531C53.883 18.4754 53.8365 18.4326 53.7765 18.4027C53.7165 18.3717 53.6459 18.3561 53.5644 18.3561C53.4862 18.3561 53.4136 18.3701 53.346 18.3979C53.2785 18.4257 53.2233 18.4658 53.1805 18.5182C53.1388 18.5696 53.1167 18.6321 53.1147 18.7059H52.766C52.7693 18.5765 52.8067 18.4631 52.8786 18.3658C52.9515 18.2674 53.0477 18.1909 53.1676 18.1363C53.2888 18.0807 53.4227 18.0529 53.5692 18.0529C53.7223 18.0529 53.8547 18.0828 53.9661 18.1427C54.0784 18.2016 54.1652 18.2807 54.2262 18.3802C54.2875 18.4786 54.3178 18.5861 54.3178 18.7027C54.3178 18.8386 54.2804 18.9531 54.2055 19.0461C54.1305 19.1381 54.0303 19.2007 53.9051 19.2339V19.2515C54.0635 19.2761 54.1862 19.3392 54.273 19.4409C54.3608 19.5425 54.4046 19.6687 54.4046 19.8196C54.4046 19.9511 54.3677 20.0688 54.2938 20.1726C54.2209 20.2763 54.1209 20.3582 53.9934 20.4181C53.8671 20.478 53.7223 20.5079 53.5596 20.5079ZM55.5404 20.5079C55.3562 20.5079 55.1983 20.4598 55.0664 20.3635C54.9358 20.2672 54.8356 20.1282 54.766 19.9463C54.6974 19.7634 54.6633 19.542 54.6633 19.282C54.6633 19.0231 54.6982 18.8022 54.7678 18.6193C54.8374 18.4353 54.9373 18.2952 55.0682 18.1989C55.1998 18.1016 55.3572 18.0529 55.5404 18.0529C55.7246 18.0529 55.8821 18.1016 56.0126 18.1989C56.1445 18.2952 56.2445 18.4353 56.313 18.6193C56.3826 18.8022 56.4176 19.0231 56.4176 19.282C56.4176 19.542 56.3831 19.7634 56.3146 19.9463C56.2462 20.1282 56.1465 20.2672 56.0159 20.3635C55.8851 20.4598 55.7267 20.5079 55.5404 20.5079ZM55.5404 20.1998C55.6528 20.1998 55.7477 20.164 55.8246 20.0923C55.9018 20.0207 55.9608 19.9164 56.0015 19.7794C56.042 19.6414 56.0625 19.4756 56.0625 19.282C56.0625 19.0873 56.042 18.9215 56.0015 18.7846C55.9608 18.6466 55.9018 18.5418 55.8246 18.4701C55.7477 18.3973 55.6528 18.361 55.5404 18.361C55.3744 18.361 55.2458 18.4417 55.1547 18.6033C55.0649 18.7637 55.0198 18.99 55.0198 19.282C55.0198 19.4756 55.0403 19.6414 55.0808 19.7794C55.1216 19.9164 55.1805 20.0207 55.2577 20.0923C55.3359 20.164 55.4301 20.1998 55.5404 20.1998Z" fill="#BDBDBD"/>
<path d="M92.7503 16.4312C92.7503 14.8257 91.4473 13.5242 89.84 13.5242C88.2327 13.5242 86.9297 14.8257 86.9297 16.4312C86.9297 18.0368 88.2327 19.3383 89.84 19.3383C91.4473 19.3383 92.7503 18.0368 92.7503 16.4312Z" stroke="#E0E0E0"/>
<path d="M91.8647 26.6689H11.1349C9.5276 26.6689 8.22461 27.9705 8.22461 29.576V37.6652C8.22461 39.2708 9.5276 40.5723 11.1349 40.5723H91.8647C93.472 40.5723 94.775 39.2708 94.775 37.6652V29.576C94.775 27.9705 93.472 26.6689 91.8647 26.6689Z" stroke="#E0E0E0" stroke-width="0.5"/>
<mask id="mask1_5413_2962" style="mask-type:luminance" maskUnits="userSpaceOnUse" x="11" y="31" width="14" height="5">
<path d="M24.0413 31.5984H11.3877V35.643H24.0413V31.5984Z" fill="white"/>
</mask>
<g mask="url(#mask1_5413_2962)">
<path d="M19.632 31.5984C18.7348 31.5984 17.9292 32.06 17.9292 32.9068C17.9292 33.8823 19.3523 33.9491 19.3523 34.4344C19.3523 34.6389 19.111 34.8245 18.7058 34.8245C18.1269 34.8245 17.6928 34.5676 17.6928 34.5676L17.5095 35.4241C17.5095 35.4241 18.0063 35.643 18.672 35.643C19.6562 35.643 20.428 35.1624 20.428 34.2964C20.428 33.2686 19.0001 33.2021 19.0001 32.7498C19.0001 32.5881 19.1979 32.4121 19.6031 32.4121C20.0614 32.4121 20.4377 32.5977 20.4377 32.5977L20.621 31.7698C20.6162 31.7698 20.2061 31.5984 19.632 31.5984ZM11.4118 31.6603L11.3877 31.7839C11.3877 31.7839 11.764 31.8507 12.1065 31.9887C12.5455 32.1457 12.5744 32.2359 12.6516 32.5168L13.4572 35.5763H14.5378L16.1925 31.6603H15.1167L14.0506 34.325L13.6164 32.0648C13.5778 31.8077 13.3752 31.6603 13.1244 31.6603H11.4118ZM16.6266 31.6603L15.7824 35.5763H16.8099L17.6494 31.6603H16.6266ZM22.348 31.6603C22.102 31.6603 21.9717 31.7887 21.8752 32.017L20.3701 35.5763H21.4459L21.6533 34.9817H22.9655L23.0909 35.5763H24.0413L23.2163 31.6603H22.348ZM22.4879 32.7213L22.8063 34.1917H21.9524L22.4879 32.7213Z" fill="#191919"/>
</g>
<path d="M28.1464 31.5746L28.174 30.9684L27.6638 31.298L27.5059 31.0255L28.0474 30.7492L27.5059 30.4727L27.6638 30.1961L28.174 30.526L28.1464 29.9196H28.4587L28.4311 30.526L28.941 30.1961L29.0992 30.4727L28.5576 30.7492L29.0992 31.0255L28.941 31.298L28.4311 30.9684L28.4587 31.5746H28.1464ZM30.0879 31.5746L30.1155 30.9684L29.6053 31.298L29.4472 31.0255L29.989 30.7492L29.4472 30.4727L29.6053 30.1961L30.1155 30.526L30.0879 29.9196H30.4002L30.3726 30.526L30.8826 30.1961L31.0408 30.4727L30.4992 30.7492L31.0408 31.0255L30.8826 31.298L30.3726 30.9684L30.4002 31.5746H30.0879ZM32.4051 32.9017C32.1993 32.9017 32.0176 32.8663 31.8594 32.795C31.7025 32.724 31.5793 32.6267 31.4897 32.5028C31.4014 32.3777 31.3571 32.2356 31.3571 32.0763C31.3571 31.9537 31.3829 31.84 31.4343 31.7346C31.4869 31.6292 31.5583 31.5417 31.6479 31.4719C31.7375 31.4022 31.8382 31.3574 31.9503 31.3377V31.3198C31.804 31.2844 31.6861 31.206 31.5965 31.0849C31.5082 30.9623 31.4639 30.8228 31.4639 30.666C31.4639 30.5149 31.5041 30.3799 31.5846 30.2613C31.6663 30.1428 31.7777 30.05 31.9187 29.9828C32.0611 29.9145 32.2231 29.8801 32.4051 29.8801C32.5842 29.8801 32.7444 29.9145 32.8854 29.9828C33.0279 30.05 33.1392 30.1428 33.2197 30.2613C33.3014 30.3799 33.3422 30.5149 33.3422 30.666C33.3422 30.8228 33.2974 30.9623 33.2078 31.0849C33.1195 31.206 33.0033 31.2844 32.8598 31.3198V31.3377C32.9704 31.3574 33.0706 31.4022 33.1602 31.4719C33.2498 31.5417 33.3212 31.6292 33.3738 31.7346C33.4265 31.84 33.453 31.9537 33.453 32.0763C33.453 32.2356 33.408 32.3777 33.3184 32.5028C33.2288 32.6267 33.1048 32.724 32.9469 32.795C32.79 32.8663 32.6093 32.9017 32.4051 32.9017ZM32.4051 32.5384C32.5263 32.5384 32.6318 32.5187 32.7214 32.479C32.811 32.4383 32.8801 32.381 32.9289 32.3074C32.9778 32.2336 33.0021 32.1479 33.0021 32.0506C33.0021 31.9479 32.9757 31.8577 32.9231 31.7801C32.8717 31.701 32.8011 31.639 32.7115 31.5943C32.6219 31.5483 32.5197 31.5253 32.4051 31.5253C32.2892 31.5253 32.1857 31.5475 32.0945 31.5925C32.005 31.6373 31.9346 31.6989 31.883 31.7781C31.8316 31.8569 31.806 31.9479 31.806 32.0506C31.806 32.1479 31.8303 32.2336 31.8792 32.3074C31.9278 32.381 31.9971 32.4383 32.0867 32.479C32.1763 32.5187 32.2823 32.5384 32.4051 32.5384ZM32.4051 31.1716C32.5025 31.1716 32.5888 31.1519 32.664 31.1125C32.7404 31.073 32.8004 31.0184 32.8439 30.9487C32.8887 30.8789 32.9112 30.7972 32.9112 30.7037C32.9112 30.6114 32.8894 30.5313 32.8459 30.4628C32.8037 30.3943 32.7444 30.341 32.668 30.3028C32.5928 30.2646 32.5053 30.2454 32.4051 30.2454C32.3036 30.2454 32.2145 30.2646 32.1381 30.3028C32.0616 30.341 32.0024 30.3943 31.9602 30.4628C31.9179 30.5313 31.8969 30.6114 31.8969 30.7037C31.8969 30.7972 31.9187 30.8789 31.9622 30.9487C32.0057 31.0184 32.0649 31.073 32.1401 31.1125C32.2165 31.1519 32.3048 31.1716 32.4051 31.1716ZM34.7855 32.9017C34.58 32.9017 34.398 32.8663 34.2398 32.795C34.0829 32.724 33.9597 32.6267 33.8701 32.5028C33.7818 32.3777 33.7375 32.2356 33.7375 32.0763C33.7375 31.9537 33.7633 31.84 33.8147 31.7346C33.8676 31.6292 33.9387 31.5417 34.0283 31.4719C34.1179 31.4022 34.2188 31.3574 34.3307 31.3377V31.3198C34.1844 31.2844 34.0665 31.206 33.9769 31.0849C33.8886 30.9623 33.8443 30.8228 33.8443 30.666C33.8443 30.5149 33.8845 30.3799 33.965 30.2613C34.0467 30.1428 34.1581 30.05 34.2991 29.9828C34.4415 29.9145 34.6035 29.8801 34.7855 29.8801C34.9646 29.8801 35.1248 29.9145 35.266 29.9828C35.4083 30.05 35.5196 30.1428 35.6001 30.2613C35.6818 30.3799 35.7226 30.5149 35.7226 30.666C35.7226 30.8228 35.6778 30.9623 35.5882 31.0849C35.4999 31.206 35.384 31.2844 35.2402 31.3198V31.3377C35.3511 31.3574 35.451 31.4022 35.5409 31.4719C35.6305 31.5417 35.7016 31.6292 35.7542 31.7346C35.8071 31.84 35.8334 31.9537 35.8334 32.0763C35.8334 32.2356 35.7886 32.3777 35.6988 32.5028C35.6092 32.6267 35.4854 32.724 35.3273 32.795C35.1704 32.8663 34.9897 32.9017 34.7855 32.9017ZM34.7855 32.5384C34.9067 32.5384 35.0122 32.5187 35.1018 32.479C35.1914 32.4383 35.2607 32.381 35.3093 32.3074C35.3582 32.2336 35.3824 32.1479 35.3824 32.0506C35.3824 31.9479 35.3561 31.8577 35.3035 31.7801C35.2521 31.701 35.1815 31.639 35.0919 31.5943C35.0023 31.5483 34.9001 31.5253 34.7855 31.5253C34.6695 31.5253 34.566 31.5475 34.4752 31.5925C34.3853 31.6373 34.315 31.6989 34.2636 31.7781C34.2122 31.8569 34.1864 31.9479 34.1864 32.0506C34.1864 32.1479 34.2107 32.2336 34.2596 32.3074C34.3084 32.381 34.3775 32.4383 34.4671 32.479C34.5567 32.5187 34.663 32.5384 34.7855 32.5384ZM34.7855 31.1716C34.8831 31.1716 34.9694 31.1519 35.0446 31.1125C35.121 31.073 35.181 31.0184 35.2245 30.9487C35.2693 30.8789 35.2916 30.7972 35.2916 30.7037C35.2916 30.6114 35.2698 30.5313 35.2263 30.4628C35.1843 30.3943 35.1248 30.341 35.0484 30.3028C34.9732 30.2646 34.8857 30.2454 34.7855 30.2454C34.684 30.2454 34.5951 30.2646 34.5185 30.3028C34.442 30.341 34.3828 30.3943 34.3406 30.4628C34.2985 30.5313 34.2773 30.6114 34.2773 30.7037C34.2773 30.7972 34.2991 30.8789 34.3426 30.9487C34.3861 31.0184 34.4453 31.073 34.5205 31.1125C34.5969 31.1519 34.6852 31.1716 34.7855 31.1716Z" fill="#303030"/>
<path d="M27.3447 38.2431V37.3606H27.5021C27.5555 37.3146 27.6054 37.2504 27.6514 37.168C27.6985 37.0846 27.7388 36.9718 27.7719 36.8295C27.8051 36.6872 27.8276 36.5054 27.8395 36.284L27.8972 35.2746H29.3703V37.3606H29.6419V38.2398H29.2964V37.6655H27.6902V38.2431H27.3447ZM27.9278 37.3606H29.0249V35.5843H28.2219L28.1864 36.284C28.1758 36.4518 28.1586 36.6038 28.1351 36.7395C28.1125 36.8745 28.0837 36.993 28.0483 37.0959C28.0128 37.1986 27.9728 37.2868 27.9278 37.3606ZM30.6298 37.7024C30.4542 37.7024 30.3021 37.6645 30.1736 37.5884C30.045 37.5125 29.946 37.4056 29.8765 37.2676C29.8079 37.1285 29.7735 36.9665 29.7735 36.7812C29.7735 36.5974 29.8074 36.4351 29.8747 36.2951C29.9433 36.155 30.0392 36.0458 30.1624 35.9677C30.2864 35.8886 30.4322 35.8489 30.5992 35.8489C30.701 35.8489 30.7994 35.8656 30.8948 35.8987C30.9902 35.9318 31.0758 35.9844 31.1519 36.056C31.2279 36.1277 31.2878 36.2208 31.3319 36.3353C31.3767 36.4498 31.3992 36.5876 31.3992 36.7491V36.8745H29.9711V36.6128H31.2192L31.057 36.6996C31.057 36.5893 31.0401 36.492 31.0057 36.4073C30.9715 36.3229 30.9201 36.2572 30.8515 36.2102C30.784 36.1619 30.6999 36.1379 30.5992 36.1379C30.4985 36.1379 30.4125 36.1619 30.3406 36.2102C30.27 36.2582 30.2158 36.3219 30.1784 36.401C30.1409 36.4801 30.1222 36.5668 30.1222 36.6609V36.8391C30.1222 36.9622 30.1437 37.0664 30.1865 37.152C30.2292 37.2375 30.2887 37.3027 30.3646 37.3477C30.4418 37.3927 30.5311 37.4152 30.6329 37.4152C30.6994 37.4152 30.7594 37.4056 30.8128 37.3864C30.8675 37.3669 30.9145 37.3381 30.9543 37.2997C30.994 37.261 31.0239 37.2135 31.0441 37.1569L31.3751 37.2193C31.3483 37.3156 31.3012 37.4003 31.2337 37.4728C31.1664 37.5456 31.0811 37.6023 30.9783 37.643C30.8766 37.6826 30.7604 37.7024 30.6298 37.7024ZM31.8074 38.3361C31.7547 38.3374 31.7072 38.3336 31.6644 38.325C31.6226 38.3174 31.5905 38.3083 31.568 38.2977L31.653 38.0135L31.6771 38.0201C31.7661 38.0426 31.841 38.0409 31.902 38.0153C31.9643 37.9905 32.0162 37.9218 32.0579 37.8083L32.1012 37.6895L31.4457 35.8714H31.82L32.273 37.2643H32.2925L32.747 35.8714H33.1213L32.3824 37.9028C32.3482 37.9971 32.3047 38.0762 32.2523 38.1404C32.1999 38.2057 32.1366 38.2545 32.0627 38.2866C31.9898 38.3197 31.9048 38.3361 31.8074 38.3361ZM34.0033 37.7024C33.8309 37.7024 33.6819 37.6627 33.5566 37.5836C33.4313 37.5044 33.3349 37.3952 33.2676 37.2562C33.2 37.1172 33.1664 36.9579 33.1664 36.7782C33.1664 36.5952 33.2005 36.4341 33.2691 36.2951C33.3387 36.155 33.4356 36.0458 33.5599 35.9677C33.6852 35.8886 33.832 35.8489 34 35.8489C34.1372 35.8489 34.2586 35.8742 34.3647 35.9245C34.4717 35.9736 34.558 36.0438 34.6233 36.1346C34.6896 36.2256 34.7288 36.3315 34.7405 36.4523H34.4001C34.3882 36.3957 34.3652 36.3439 34.331 36.2966C34.2979 36.2496 34.2538 36.2122 34.1992 36.1844C34.1445 36.1566 34.0797 36.1427 34.0048 36.1427C33.9074 36.1427 33.8223 36.1684 33.7495 36.2198C33.6776 36.2701 33.6214 36.3421 33.5807 36.4364C33.5402 36.5304 33.5197 36.6417 33.5197 36.7701C33.5197 36.8995 33.5394 37.0125 33.5791 37.1086C33.6189 37.2049 33.675 37.2792 33.7479 37.3318C33.8218 37.3831 33.9074 37.4086 34.0048 37.4086C34.1055 37.4086 34.1911 37.3808 34.2619 37.3252C34.3335 37.2696 34.3796 37.1938 34.4001 37.0974H34.7405C34.7288 37.214 34.6914 37.3179 34.6281 37.4086C34.5648 37.4996 34.4803 37.5714 34.3743 37.6238C34.2682 37.6761 34.1445 37.7024 34.0033 37.7024ZM34.7711 36.1733V35.8714H36.2827V36.1733H35.6996V37.6655H35.3575V36.1733H34.7711ZM36.5173 37.6655V35.8714H37.2596C37.4618 35.8727 37.6225 35.9164 37.7414 36.0031C37.8603 36.0886 37.9191 36.2054 37.918 36.353C37.9191 36.4576 37.8859 36.5406 37.8186 36.6017C37.751 36.6614 37.6627 36.7026 37.5534 36.7251C37.6326 36.7337 37.7055 36.7572 37.7718 36.7959C37.8393 36.8343 37.8935 36.8861 37.9342 36.9513C37.976 37.0155 37.9967 37.0921 37.9967 37.1809C37.9967 37.2762 37.9717 37.3606 37.9213 37.4344C37.872 37.5072 37.8014 37.5638 37.7093 37.6045C37.6171 37.6452 37.5053 37.6655 37.3734 37.6655H36.5173ZM36.845 37.3717H37.3734C37.4592 37.373 37.5265 37.353 37.5759 37.3126C37.6252 37.2706 37.6493 37.2145 37.6483 37.144C37.6493 37.0605 37.6252 36.9953 37.5759 36.9483C37.5265 36.9 37.4592 36.876 37.3734 36.876H36.845V37.3717ZM36.845 36.6209H37.2626C37.3613 36.6197 37.4382 36.5989 37.4939 36.5582C37.5508 36.5165 37.5787 36.4604 37.5774 36.3899C37.5787 36.3204 37.5508 36.2663 37.4939 36.2276C37.4372 36.1882 37.359 36.1684 37.2596 36.1684H36.845V36.6209ZM38.4611 38.3361C38.4085 38.3374 38.3609 38.3336 38.3181 38.325C38.2764 38.3174 38.2443 38.3083 38.2217 38.2977L38.3068 38.0135L38.3308 38.0201C38.4199 38.0426 38.4948 38.0409 38.5558 38.0153C38.618 37.9905 38.6699 37.9218 38.7117 37.8083L38.7549 37.6895L38.0995 35.8714H38.4738L38.9268 37.2643H38.9463L39.4008 35.8714H39.7751L39.0361 37.9028C39.0019 37.9971 38.9584 38.0762 38.906 38.1404C38.8536 38.2057 38.7904 38.2545 38.7165 38.2866C38.6436 38.3197 38.5586 38.3361 38.4611 38.3361ZM40.6763 37.7024C40.5006 37.7024 40.3485 37.6645 40.22 37.5884C40.0914 37.5125 39.9925 37.4056 39.9229 37.2676C39.8543 37.1285 39.8201 36.9665 39.8201 36.7812C39.8201 36.5974 39.8538 36.4351 39.9214 36.2951C39.9897 36.155 40.0856 36.0458 40.2088 35.9677C40.3331 35.8886 40.4786 35.8489 40.6456 35.8489C40.7474 35.8489 40.8461 35.8656 40.9412 35.8987C41.0366 35.9318 41.1224 35.9844 41.1984 36.056C41.2743 36.1277 41.3343 36.2208 41.3783 36.3353C41.4233 36.4498 41.4459 36.5876 41.4459 36.7491V36.8745H40.0175V36.6128H41.2659L41.1035 36.6996C41.1035 36.5893 41.0865 36.492 41.0521 36.4073C41.0179 36.3229 40.9665 36.2572 40.898 36.2102C40.8304 36.1619 40.7464 36.1379 40.6456 36.1379C40.5452 36.1379 40.4589 36.1619 40.387 36.2102C40.3164 36.2582 40.2622 36.3219 40.2248 36.401C40.1873 36.4801 40.1686 36.5668 40.1686 36.6609V36.8391C40.1686 36.9622 40.1901 37.0664 40.2329 37.152C40.2757 37.2375 40.3351 37.3027 40.4113 37.3477C40.4882 37.3927 40.5778 37.4152 40.6796 37.4152C40.7459 37.4152 40.8058 37.4056 40.8595 37.3864C40.9139 37.3669 40.9612 37.3381 41.0007 37.2997C41.0404 37.261 41.0703 37.2135 41.0908 37.1569L41.4216 37.2193C41.3947 37.3156 41.3477 37.4003 41.2803 37.4728C41.2128 37.5456 41.1277 37.6023 41.0247 37.643C40.923 37.6826 40.8068 37.7024 40.6763 37.7024ZM41.5309 36.1733V35.8714H43.0425V36.1733H42.4594V37.6655H42.1173V36.1733H41.5309ZM43.8328 38.1822V37.3639H43.9773C44.015 37.3295 44.0469 37.2888 44.0737 37.2418C44.1006 37.1938 44.1226 37.1371 44.1398 37.0717C44.1578 37.0054 44.1735 36.9288 44.1864 36.8424C44.199 36.7557 44.2104 36.6556 44.22 36.5423L44.2762 35.8714H45.4955V37.3639H45.7719V38.1822H45.4297V37.6655H44.1798V38.1822H43.8328ZM44.3534 37.3639H45.1549V36.17H44.588L44.5493 36.5423C44.5333 36.7317 44.5113 36.8952 44.4835 37.0332C44.4566 37.1702 44.4134 37.2805 44.3534 37.3639ZM46.7292 37.7024C46.5612 37.7024 46.4139 37.6639 46.2874 37.5868C46.1621 37.5097 46.0647 37.4018 45.9951 37.2628C45.9265 37.1237 45.8923 36.9622 45.8923 36.7782C45.8923 36.5919 45.9265 36.4293 45.9951 36.2903C46.0647 36.1502 46.1621 36.0415 46.2874 35.9644C46.4139 35.8876 46.5612 35.8489 46.7292 35.8489C46.8985 35.8489 47.0456 35.8876 47.1711 35.9644C47.2964 36.0415 47.3938 36.1502 47.4634 36.2903C47.533 36.4293 47.5676 36.5919 47.5676 36.7782C47.5676 36.9622 47.533 37.1237 47.4634 37.2628C47.3938 37.4018 47.2964 37.5097 47.1711 37.5868C47.0456 37.6639 46.8985 37.7024 46.7292 37.7024ZM46.7292 37.4086C46.8396 37.4086 46.9307 37.3798 47.0023 37.3222C47.0742 37.2643 47.1271 37.1879 47.1612 37.0926C47.1966 36.9963 47.2144 36.8914 47.2144 36.7782C47.2144 36.6627 47.1966 36.5567 47.1612 36.4604C47.1271 36.3641 47.0742 36.287 47.0023 36.2294C46.9307 36.1715 46.8396 36.1427 46.7292 36.1427C46.6199 36.1427 46.5296 36.1715 46.4577 36.2294C46.3871 36.287 46.3339 36.3641 46.2988 36.4604C46.2633 36.5567 46.2456 36.6627 46.2456 36.7782C46.2456 36.8914 46.2633 36.9963 46.2988 37.0926C46.3339 37.1879 46.3871 37.2643 46.4577 37.3222C46.5296 37.3798 46.6199 37.4086 46.7292 37.4086ZM49.4103 35.2746V37.6655H49.0537V35.6373H49.0377L48.4688 36.0112V35.6644L49.0633 35.2746H49.4103ZM50.5541 37.6976C50.4074 37.6976 50.2755 37.6698 50.1588 37.6141C50.0432 37.5575 49.9506 37.4799 49.881 37.3813C49.8114 37.282 49.7744 37.169 49.7701 37.0428H50.1204C50.129 37.1445 50.1745 37.2284 50.2568 37.2949C50.3393 37.3611 50.4385 37.3942 50.5541 37.3942C50.6463 37.3942 50.7275 37.373 50.7984 37.33C50.869 37.2873 50.9246 37.2289 50.9654 37.1551C51.0061 37.0803 51.0264 36.9948 51.0264 36.8985C51.0264 36.8022 51.0054 36.716 50.9636 36.6402C50.9219 36.5631 50.8642 36.5026 50.7903 36.4589C50.7174 36.4149 50.6334 36.3929 50.5379 36.3929C50.4651 36.3929 50.3924 36.4058 50.3195 36.4316C50.2467 36.4561 50.1877 36.4882 50.1429 36.5279L49.8104 36.4796L49.9453 35.2746H51.261V35.5843H50.2472L50.1718 36.2534H50.1847C50.2307 36.2074 50.2922 36.17 50.3694 36.1411C50.4476 36.1111 50.5316 36.0962 50.6215 36.0962C50.7672 36.0962 50.8968 36.131 51.0102 36.2006C51.1248 36.2688 51.2149 36.3631 51.2802 36.4829C51.3455 36.6017 51.3781 36.738 51.3781 36.8919C51.3781 37.0471 51.3427 37.1857 51.2721 37.3075C51.2015 37.4286 51.1041 37.5236 50.9798 37.5932C50.8566 37.6627 50.7146 37.6976 50.5541 37.6976ZM52.5716 35.1624L51.8008 38.0249H51.489L52.2601 35.1624H52.5716ZM53.5596 37.6976C53.3979 37.6976 53.2544 37.6703 53.1291 37.6157C53.0039 37.56 52.9047 37.4829 52.832 37.3846C52.7592 37.2863 52.7207 37.1723 52.7164 37.0428H53.0793C53.0846 37.1134 53.1089 37.1745 53.1517 37.2259C53.1944 37.2772 53.2506 37.3174 53.3202 37.3462C53.3911 37.374 53.4698 37.3879 53.5563 37.3879C53.6507 37.3879 53.7342 37.3712 53.8071 37.3381C53.8798 37.305 53.9367 37.2595 53.9774 37.2018C54.0192 37.1429 54.0399 37.0749 54.0399 36.9978C54.0399 36.9177 54.0197 36.8472 53.979 36.786C53.9382 36.7241 53.8787 36.676 53.8005 36.6417C53.7223 36.6075 53.6282 36.5904 53.5179 36.5904H53.3139V36.2951H53.5179C53.6057 36.2951 53.6834 36.2792 53.7509 36.2471C53.8183 36.215 53.8709 36.1705 53.9084 36.1138C53.9468 36.0572 53.9661 35.9902 53.9661 35.9131C53.9661 35.8393 53.9496 35.7751 53.9162 35.7208C53.883 35.6651 53.8365 35.6222 53.7765 35.5923C53.7165 35.5613 53.6459 35.5458 53.5644 35.5458C53.4862 35.5458 53.4136 35.5597 53.346 35.5875C53.2785 35.6153 53.2233 35.6555 53.1805 35.7079C53.1388 35.7592 53.1167 35.8219 53.1147 35.8957H52.766C52.7693 35.766 52.8067 35.6528 52.8786 35.5554C52.9515 35.4571 53.0477 35.3805 53.1676 35.3259C53.2888 35.2703 53.4227 35.2425 53.5692 35.2425C53.7223 35.2425 53.8547 35.2726 53.9661 35.3325C54.0784 35.3911 54.1652 35.4702 54.2262 35.5698C54.2875 35.6682 54.3178 35.7759 54.3178 35.8924C54.3178 36.0281 54.2804 36.1427 54.2055 36.2357C54.1305 36.3277 54.0303 36.3904 53.9051 36.4235V36.4412C54.0635 36.4657 54.1862 36.5289 54.273 36.6305C54.3608 36.7322 54.4046 36.8583 54.4046 37.0092C54.4046 37.1407 54.3677 37.2585 54.2938 37.3621C54.2209 37.466 54.1209 37.5479 53.9934 37.6076C53.8671 37.6675 53.7223 37.6976 53.5596 37.6976ZM55.5404 37.6976C55.3562 37.6976 55.1983 37.6495 55.0664 37.5532C54.9358 37.4569 54.8356 37.3179 54.766 37.1359C54.6974 36.9531 54.6633 36.7317 54.6633 36.4715C54.6633 36.2127 54.6982 35.9918 54.7678 35.809C54.8374 35.625 54.9373 35.4849 55.0682 35.3886C55.1998 35.2913 55.3572 35.2425 55.5404 35.2425C55.7246 35.2425 55.8821 35.2913 56.0126 35.3886C56.1445 35.4849 56.2445 35.625 56.313 35.809C56.3826 35.9918 56.4176 36.2127 56.4176 36.4715C56.4176 36.7317 56.3831 36.9531 56.3146 37.1359C56.2462 37.3179 56.1465 37.4569 56.0159 37.5532C55.8851 37.6495 55.7267 37.6976 55.5404 37.6976ZM55.5404 37.3894C55.6528 37.3894 55.7477 37.3535 55.8246 37.282C55.9018 37.2102 55.9608 37.106 56.0015 36.969C56.042 36.831 56.0625 36.6652 56.0625 36.4715C56.0625 36.2769 56.042 36.1111 56.0015 35.9743C55.9608 35.8363 55.9018 35.7314 55.8246 35.6596C55.7477 35.587 55.6528 35.5506 55.5404 35.5506C55.3744 35.5506 55.2458 35.6313 55.1547 35.7928C55.0649 35.9533 55.0198 36.1796 55.0198 36.4715C55.0198 36.6652 55.0403 36.831 55.0808 36.969C55.1216 37.106 55.1805 37.2102 55.2577 37.282C55.3359 37.3535 55.4301 37.3894 55.5404 37.3894Z" fill="#BDBDBD"/>
<path d="M92.7503 33.6207C92.7503 32.0152 91.4473 30.7136 89.84 30.7136C88.2327 30.7136 86.9297 32.0152 86.9297 33.6207C86.9297 35.2262 88.2327 36.5277 89.84 36.5277C91.4473 36.5277 92.7503 35.2262 92.7503 33.6207Z" stroke="#E0E0E0"/>
<path d="M91.8647 43.8586H11.1349C9.5276 43.8586 8.22461 45.1602 8.22461 46.7657V54.8549C8.22461 56.4605 9.5276 57.762 11.1349 57.762H91.8647C93.472 57.762 94.775 56.4605 94.775 54.8549V46.7657C94.775 45.1602 93.472 43.8586 91.8647 43.8586Z" stroke="#E0E0E0" stroke-width="0.5"/>
<path d="M15.3526 49.7992V52.4957M16.871 49.7992V52.4957M18.5582 49.7992V52.4957M20.0766 49.7992V52.4957M14.6777 53.0349V53.3046C14.6777 53.4934 14.6777 53.5877 14.7145 53.6598C14.7469 53.7232 14.7985 53.7748 14.862 53.8071C14.9341 53.8438 15.0286 53.8438 15.2176 53.8438H20.2116C20.4005 53.8438 20.495 53.8438 20.5672 53.8071C20.6307 53.7748 20.6823 53.7232 20.7147 53.6598C20.7514 53.5877 20.7514 53.4934 20.7514 53.3046V53.0349C20.7514 52.846 20.7514 52.7518 20.7147 52.6797C20.6823 52.6163 20.6307 52.5647 20.5672 52.5323C20.495 52.4957 20.4005 52.4957 20.2116 52.4957H15.2176C15.0286 52.4957 14.9341 52.4957 14.862 52.5323C14.7985 52.5647 14.7469 52.6163 14.7145 52.6797C14.6777 52.7518 14.6777 52.846 14.6777 53.0349ZM17.5975 47.8029L15.1005 48.3573C14.9497 48.3906 14.8742 48.4073 14.8179 48.448C14.7683 48.4837 14.7293 48.5322 14.7051 48.5883C14.6777 48.652 14.6777 48.7294 14.6777 48.8836V49.26C14.6777 49.4488 14.6777 49.5431 14.7145 49.6152C14.7469 49.6786 14.7985 49.7302 14.862 49.7625C14.9341 49.7992 15.0286 49.7992 15.2176 49.7992H20.2116C20.4005 49.7992 20.495 49.7992 20.5672 49.7625C20.6307 49.7302 20.6823 49.6786 20.7147 49.6152C20.7514 49.5431 20.7514 49.4488 20.7514 49.26V48.8836C20.7514 48.7294 20.7514 48.652 20.7241 48.5883C20.6999 48.5322 20.6609 48.4837 20.6112 48.448C20.555 48.4073 20.4795 48.3906 20.3287 48.3573L17.8317 47.8029C17.788 47.7933 17.7661 47.7883 17.7441 47.7865C17.7245 47.7847 17.7047 47.7847 17.6851 47.7865C17.663 47.7883 17.6412 47.7933 17.5975 47.8029Z" stroke="#303030" stroke-linecap="round" stroke-linejoin="round"/>
<path d="M28.8023 52.3665C28.5492 52.3665 28.3227 52.3061 28.1223 52.185C27.9218 52.0637 27.7637 51.8905 27.6477 51.6656C27.5318 51.4391 27.4736 51.1698 27.4736 50.8579C27.4736 50.5432 27.5318 50.2732 27.6477 50.048C27.7637 49.8217 27.9218 49.6478 28.1223 49.5267C28.3227 49.4056 28.5492 49.345 28.8023 49.345C29.0581 49.345 29.2854 49.4056 29.4845 49.5267C29.6835 49.6478 29.8404 49.8217 29.955 50.048C30.0712 50.2732 30.1291 50.5432 30.1291 50.8579C30.1291 51.1711 30.0712 51.4403 29.955 51.6656C29.8404 51.8905 29.6835 52.0637 29.4845 52.185C29.2854 52.3061 29.0581 52.3665 28.8023 52.3665ZM28.8023 51.9618C28.9723 51.9618 29.1239 51.9196 29.257 51.8354C29.3901 51.751 29.4949 51.6266 29.5716 51.4621C29.6493 51.2975 29.688 51.096 29.688 50.8579C29.688 50.6183 29.6493 50.416 29.5716 50.2515C29.4949 50.0856 29.3901 49.9605 29.257 49.8763C29.1239 49.7919 28.9723 49.7499 28.8023 49.7499C28.6337 49.7499 28.4821 49.7919 28.3477 49.8763C28.2146 49.9605 28.1091 50.0856 28.0314 50.2515C27.9535 50.416 27.9147 50.6183 27.9147 50.8579C27.9147 51.096 27.9535 51.2975 28.0314 51.4621C28.1091 51.6266 28.2146 51.751 28.3477 51.8354C28.4821 51.9196 28.6337 51.9618 28.8023 51.9618ZM30.4791 52.3271V50.1193H32.2782V52.3271H31.8571V50.4904H30.8941V52.3271H30.4791ZM32.5135 52.3271L32.5115 51.9558H32.5885C32.6717 51.9545 32.7368 51.9302 32.7843 51.8827C32.8332 51.8339 32.8694 51.7477 32.8932 51.6241C32.9182 51.5002 32.9347 51.3251 32.9425 51.0988L32.982 50.1193H34.5222V52.3271H34.1011V50.4904H33.3775L33.3418 51.2429C33.334 51.4247 33.316 51.5832 33.2885 51.7189C33.2609 51.8544 33.2199 51.9676 33.166 52.0587C33.1118 52.1481 33.0427 52.2151 32.9582 52.2599C32.8739 52.3046 32.7712 52.3271 32.65 52.3271H32.5135ZM35.5719 52.3746C35.4322 52.3746 35.3057 52.3489 35.1923 52.2975C35.0792 52.2447 34.9893 52.1684 34.9235 52.0685C34.8577 51.9684 34.8246 51.8466 34.8246 51.703C34.8246 51.5778 34.8484 51.476 34.896 51.3969C34.9446 51.3167 35.0098 51.2528 35.0916 51.2052C35.1733 51.158 35.2642 51.1223 35.3644 51.0988C35.4646 51.0751 35.5674 51.0566 35.6729 51.0435C35.806 51.029 35.9133 51.0164 35.995 51.0058C36.0768 50.9954 36.1363 50.979 36.1732 50.9565C36.2114 50.9327 36.2304 50.8953 36.2304 50.844V50.8341C36.2304 50.709 36.1947 50.6122 36.1236 50.5437C36.0538 50.4752 35.9497 50.4411 35.8113 50.4411C35.6676 50.4411 35.5537 50.4727 35.4692 50.5359C35.3862 50.5978 35.329 50.6683 35.2973 50.7472L34.8919 50.6544C34.9408 50.5202 35.0111 50.412 35.1035 50.3306C35.1971 50.2474 35.3039 50.187 35.4239 50.1488C35.5451 50.1107 35.6716 50.0915 35.8035 50.0915C35.8918 50.0915 35.9852 50.1021 36.0841 50.1231C36.1831 50.1428 36.276 50.1804 36.363 50.2358C36.4511 50.2896 36.523 50.3672 36.5784 50.4686C36.6338 50.57 36.6614 50.7012 36.6614 50.8617V52.3271H36.2403V52.025H36.2246C36.198 52.0789 36.1565 52.133 36.0998 52.1868C36.0446 52.2409 35.9733 52.2857 35.8865 52.3213C35.7994 52.3567 35.6947 52.3746 35.5719 52.3746ZM35.665 52.0308C35.785 52.0308 35.887 52.0078 35.9715 51.9618C36.0558 51.9143 36.1203 51.8524 36.1651 51.776C36.2099 51.6997 36.2324 51.6188 36.2324 51.5331V51.2469C36.2165 51.2614 36.1869 51.2753 36.1434 51.2884C36.0998 51.3016 36.0505 51.3127 35.995 51.3218C35.9399 51.3311 35.8857 51.3397 35.8331 51.3476C35.7802 51.3541 35.7362 51.3594 35.7005 51.3635C35.6175 51.3751 35.5418 51.3936 35.4732 51.4186C35.4046 51.4424 35.3492 51.478 35.3072 51.5253C35.2662 51.5713 35.2457 51.6327 35.2457 51.709C35.2457 51.8157 35.2854 51.8959 35.3644 51.95C35.4436 52.0038 35.5438 52.0308 35.665 52.0308ZM36.7998 50.4904V50.1193H38.6604V50.4904H37.9427V52.3271H37.5216V50.4904H36.7998ZM39.4867 52.3746C39.347 52.3746 39.2204 52.3489 39.1071 52.2975C38.9937 52.2447 38.9041 52.1684 38.8383 52.0685C38.7723 51.9684 38.7394 51.8466 38.7394 51.703C38.7394 51.5778 38.7631 51.476 38.8105 51.3969C38.8593 51.3167 38.9246 51.2528 39.0063 51.2052C39.0881 51.158 39.1789 51.1223 39.2792 51.0988C39.3794 51.0751 39.4821 51.0566 39.5876 51.0435C39.7208 51.029 39.8281 51.0164 39.9098 51.0058C39.9916 50.9954 40.0508 50.979 40.0877 50.9565C40.1259 50.9327 40.1452 50.8953 40.1452 50.844V50.8341C40.1452 50.709 40.1095 50.6122 40.0384 50.5437C39.9685 50.4752 39.8643 50.4411 39.7261 50.4411C39.5823 50.4411 39.4682 50.4727 39.3839 50.5359C39.3009 50.5978 39.2435 50.6683 39.2118 50.7472L38.8067 50.6544C38.8553 50.5202 38.9259 50.412 39.0182 50.3306C39.1116 50.2474 39.2184 50.187 39.3384 50.1488C39.4596 50.1107 39.5861 50.0915 39.718 50.0915C39.8063 50.0915 39.8999 50.1021 39.9989 50.1231C40.0976 50.1428 40.1905 50.1804 40.2775 50.2358C40.3658 50.2896 40.4377 50.3672 40.4931 50.4686C40.5486 50.57 40.5761 50.7012 40.5761 50.8617V52.3271H40.155V52.025H40.1391C40.1128 52.0789 40.0713 52.133 40.0146 52.1868C39.9592 52.2409 39.888 52.2857 39.801 52.3213C39.7142 52.3567 39.6094 52.3746 39.4867 52.3746ZM39.5795 52.0308C39.6995 52.0308 39.8017 52.0078 39.886 51.9618C39.9705 51.9143 40.0351 51.8524 40.0799 51.776C40.1247 51.6997 40.1472 51.6188 40.1472 51.5331V51.2469C40.1312 51.2614 40.1016 51.2753 40.0581 51.2884C40.0146 51.3016 39.9652 51.3127 39.9098 51.3218C39.8544 51.3311 39.8005 51.3397 39.7476 51.3476C39.6949 51.3541 39.6509 51.3594 39.6152 51.3635C39.5322 51.3751 39.4563 51.3936 39.388 51.4186C39.3194 51.4424 39.264 51.478 39.2217 51.5253C39.181 51.5713 39.1605 51.6327 39.1605 51.709C39.1605 51.8157 39.1999 51.8959 39.2792 51.95C39.3581 52.0038 39.4583 52.0308 39.5795 52.0308ZM42.8181 52.3726C42.606 52.3726 42.4228 52.3238 42.2684 52.2265C42.1143 52.1289 41.9956 51.9947 41.9126 51.8236C41.8296 51.6524 41.7881 51.4563 41.7881 51.2351C41.7881 51.0098 41.8304 50.8116 41.9146 50.6405C42.0004 50.4681 42.1196 50.3339 42.2725 50.2376C42.4266 50.1402 42.6073 50.0915 42.8143 50.0915C42.9829 50.0915 43.1327 50.1225 43.263 50.1842C43.3949 50.2449 43.5009 50.3311 43.5814 50.4431C43.6631 50.5551 43.7112 50.6853 43.7256 50.8341H43.3065C43.2921 50.7644 43.2638 50.7004 43.2215 50.6425C43.1808 50.5846 43.1266 50.5384 43.0593 50.5043C42.9922 50.4701 42.9125 50.4529 42.8201 50.4529C42.7002 50.4529 42.5954 50.4845 42.5058 50.5477C42.4175 50.6097 42.3484 50.6984 42.2983 50.8144C42.2482 50.9302 42.2231 51.0672 42.2231 51.2252C42.2231 51.3845 42.2474 51.5232 42.2963 51.6418C42.3451 51.7604 42.4142 51.8519 42.5038 51.9163C42.5946 51.9795 42.7002 52.0111 42.8201 52.0111C42.9441 52.0111 43.0494 51.977 43.1365 51.9085C43.2248 51.84 43.2815 51.7465 43.3065 51.6279H43.7256C43.7112 51.7715 43.6651 51.8991 43.5872 52.0111C43.5095 52.1231 43.4055 52.2113 43.2749 52.2758C43.1443 52.3403 42.9922 52.3726 42.8181 52.3726ZM44.9573 52.3726C44.7506 52.3726 44.5694 52.3251 44.4137 52.2303C44.2596 52.1355 44.1396 52.0025 44.0539 51.8314C43.9696 51.6603 43.9273 51.4616 43.9273 51.2351C43.9273 51.0058 43.9696 50.8058 44.0539 50.6347C44.1396 50.462 44.2596 50.3286 44.4137 50.2338C44.5694 50.139 44.7506 50.0915 44.9573 50.0915C45.1656 50.0915 45.347 50.139 45.5012 50.2338C45.6553 50.3286 45.7752 50.462 45.861 50.6347C45.9466 50.8058 45.9896 51.0058 45.9896 51.2351C45.9896 51.4616 45.9466 51.6603 45.861 51.8314C45.7752 52.0025 45.6553 52.1355 45.5012 52.2303C45.347 52.3251 45.1656 52.3726 44.9573 52.3726ZM44.9573 52.0111C45.0932 52.0111 45.2053 51.9755 45.2936 51.9045C45.382 51.8334 45.447 51.7391 45.4893 51.6221C45.5328 51.5035 45.5546 51.3746 45.5546 51.2351C45.5546 51.0927 45.5328 50.9626 45.4893 50.844C45.447 50.7254 45.382 50.6306 45.2936 50.5596C45.2053 50.4886 45.0932 50.4529 44.9573 50.4529C44.8229 50.4529 44.7116 50.4886 44.6233 50.5596C44.5362 50.6306 44.4712 50.7254 44.4276 50.844C44.3841 50.9626 44.3623 51.0927 44.3623 51.2351C44.3623 51.3746 44.3841 51.5035 44.4276 51.6221C44.4712 51.7391 44.5362 51.8334 44.6233 51.9045C44.7116 51.9755 44.8229 52.0111 44.9573 52.0111ZM48.1288 52.3726C47.9165 52.3726 47.7333 52.3238 47.5791 52.2265C47.4248 52.1289 47.3063 51.9947 47.2233 51.8236C47.1401 51.6524 47.0985 51.4563 47.0985 51.2351C47.0985 51.0098 47.1408 50.8116 47.2251 50.6405C47.3109 50.4681 47.4301 50.3339 47.5829 50.2376C47.7373 50.1402 47.9177 50.0915 48.1248 50.0915C48.2936 50.0915 48.4431 50.1225 48.5737 50.1842C48.7053 50.2449 48.8116 50.3311 48.8918 50.4431C48.9736 50.5551 49.0216 50.6853 49.0363 50.8341H48.617C48.6026 50.7644 48.5742 50.7004 48.5319 50.6425C48.4912 50.5846 48.437 50.5384 48.37 50.5043C48.3027 50.4701 48.2229 50.4529 48.1308 50.4529C48.0109 50.4529 47.9058 50.4845 47.8163 50.5477C47.7279 50.6097 47.6588 50.6984 47.6087 50.8144C47.5586 50.9302 47.5336 51.0672 47.5336 51.2252C47.5336 51.3845 47.5579 51.5232 47.6067 51.6418C47.6556 51.7604 47.7246 51.8519 47.8145 51.9163C47.9053 51.9795 48.0109 52.0111 48.1308 52.0111C48.2546 52.0111 48.3601 51.977 48.4472 51.9085C48.5352 51.84 48.5919 51.7465 48.617 51.6279H49.0363C49.0216 51.7715 48.9756 51.8991 48.8979 52.0111C48.8199 52.1231 48.7159 52.2113 48.5853 52.2758C48.455 52.3403 48.3027 52.3726 48.1288 52.3726ZM51.1123 50.1193V52.3271H50.6911V50.1193H51.1123ZM50.9303 51.1461V51.5174C50.8645 51.5425 50.7939 51.5655 50.7187 51.5864C50.6448 51.6077 50.5671 51.6241 50.4854 51.636C50.4049 51.6464 50.3201 51.6517 50.2303 51.6517C49.9575 51.6517 49.7406 51.5852 49.5799 51.4522C49.4192 51.318 49.3395 51.1132 49.3408 50.8379V50.1152H49.7558V50.8379C49.7573 50.9408 49.7771 51.025 49.8153 51.0907C49.8535 51.1567 49.9074 51.2047 49.9772 51.2351C50.0486 51.2651 50.1329 51.2803 50.2303 51.2803C50.3596 51.2818 50.4796 51.27 50.5902 51.2449C50.701 51.2199 50.8144 51.187 50.9303 51.1461ZM52.4745 52.3726C52.2582 52.3726 52.0711 52.3258 51.913 52.2323C51.7548 52.1388 51.6328 52.0071 51.5473 51.8372C51.4628 51.6661 51.4208 51.4666 51.4208 51.2389C51.4208 51.0124 51.4623 50.8129 51.5453 50.6405C51.6295 50.4681 51.7475 50.3339 51.8991 50.2376C52.0519 50.1402 52.2313 50.0915 52.4368 50.0915C52.5621 50.0915 52.6833 50.1119 52.8008 50.1526C52.9179 50.1936 53.0235 50.258 53.1171 50.3463C53.2105 50.4345 53.2844 50.549 53.3385 50.6898C53.3937 50.8309 53.4215 51.0007 53.4215 51.1994V51.3534H51.6637V51.0316H53.2001L53.0004 51.1382C53.0004 51.0025 52.9792 50.8827 52.9372 50.7788C52.8949 50.6749 52.8316 50.5937 52.7474 50.5359C52.6643 50.4767 52.5608 50.4469 52.4368 50.4469C52.3131 50.4469 52.2068 50.4767 52.1185 50.5359C52.0317 50.595 51.9651 50.6734 51.9188 50.7709C51.8727 50.8683 51.8497 50.9749 51.8497 51.0907V51.3101C51.8497 51.4616 51.876 51.5897 51.9287 51.6951C51.9816 51.8006 52.0547 51.8807 52.1481 51.936C52.2432 51.9914 52.3531 52.019 52.4783 52.019C52.5601 52.019 52.634 52.0071 52.6998 51.9836C52.7671 51.9598 52.825 51.9242 52.8739 51.8769C52.9225 51.8294 52.9594 51.7707 52.9845 51.701L53.3919 51.7781C53.3588 51.8966 53.3008 52.0005 53.2178 52.09C53.1348 52.1797 53.03 52.2495 52.9035 52.2996C52.7782 52.3481 52.6352 52.3726 52.4745 52.3726ZM53.5263 50.4904V50.1193H55.3866V50.4904H54.6689V52.3271H54.2478V50.4904H53.5263ZM56.2132 52.3746C56.0735 52.3746 55.9469 52.3489 55.8336 52.2975C55.7202 52.2447 55.6306 52.1684 55.5645 52.0685C55.4987 51.9684 55.4658 51.8466 55.4658 51.703C55.4658 51.5778 55.4896 51.476 55.537 51.3969C55.5858 51.3167 55.6511 51.2528 55.7328 51.2052C55.8143 51.158 55.9054 51.1223 56.0056 51.0988C56.1059 51.0751 56.2086 51.0566 56.3139 51.0435C56.447 51.029 56.5546 51.0164 56.6363 51.0058C56.718 50.9954 56.7773 50.979 56.8142 50.9565C56.8524 50.9327 56.8717 50.8953 56.8717 50.844V50.8341C56.8717 50.709 56.836 50.6122 56.7649 50.5437C56.695 50.4752 56.5907 50.4411 56.4523 50.4411C56.3088 50.4411 56.1947 50.4727 56.1104 50.5359C56.0274 50.5978 55.97 50.6683 55.9383 50.7472L55.5332 50.6544C55.5818 50.5202 55.6524 50.412 55.7445 50.3306C55.8381 50.2474 55.9449 50.187 56.0649 50.1488C56.1861 50.1107 56.3126 50.0915 56.4445 50.0915C56.5328 50.0915 56.6264 50.1021 56.7251 50.1231C56.8241 50.1428 56.917 50.1804 57.004 50.2358C57.0923 50.2896 57.1642 50.3672 57.2196 50.4686C57.2748 50.57 57.3026 50.7012 57.3026 50.8617V52.3271H56.8815V52.025H56.8656C56.8393 52.0789 56.7978 52.133 56.7411 52.1868C56.6856 52.2409 56.6145 52.2857 56.5275 52.3213C56.4404 52.3567 56.3356 52.3746 56.2132 52.3746ZM56.306 52.0308C56.426 52.0308 56.5282 52.0078 56.6125 51.9618C56.6968 51.9143 56.7616 51.8524 56.8064 51.776C56.8512 51.6997 56.8734 51.6188 56.8734 51.5331V51.2469C56.8577 51.2614 56.8281 51.2753 56.7846 51.2884C56.7411 51.3016 56.6917 51.3127 56.6363 51.3218C56.5809 51.3311 56.527 51.3397 56.4741 51.3476C56.4214 51.3541 56.3772 51.3594 56.3417 51.3635C56.2587 51.3751 56.1828 51.3936 56.1142 51.4186C56.0459 51.4424 55.9905 51.478 55.9482 51.5253C55.9075 51.5713 55.887 51.6327 55.887 51.709C55.887 51.8157 55.9264 51.8959 56.0056 51.95C56.0846 52.0038 56.1848 52.0308 56.306 52.0308Z" fill="#303030"/>
<path d="M92.8764 50.8103C92.8764 49.135 91.5168 47.7769 89.8396 47.7769C88.1624 47.7769 86.8027 49.135 86.8027 50.8103C86.8027 52.4856 88.1624 53.8438 89.8396 53.8438C91.5168 53.8438 92.8764 52.4856 92.8764 50.8103Z" fill="#12B76A"/>
<path d="M91.1895 49.7991L89.3337 51.6528L88.4902 50.8102" stroke="white" stroke-linecap="round" stroke-linejoin="round"/>
<path d="M57.3207 4.04443H45.9325C45.5831 4.04443 45.2998 4.32738 45.2998 4.6764C45.2998 5.02543 45.5831 5.30837 45.9325 5.30837H57.3207C57.6701 5.30837 57.9534 5.02543 57.9534 4.6764C57.9534 4.32738 57.6701 4.04443 57.3207 4.04443Z" fill="#E0E0E0"/>
</g>
<defs>
<filter id="filter0_d_5413_2962" x="-11.9512" y="-5.97778" width="126.901" height="91.9109" filterUnits="userSpaceOnUse" color-interpolation-filters="sRGB">
<feFlood flood-opacity="0" result="BackgroundImageFix"/>
<feColorMatrix in="SourceAlpha" type="matrix" values="0 0 0 0 0 0 0 0 0 0 0 0 0 0 0 0 0 0 127 0" result="hardAlpha"/>
<feOffset dy="8"/>
<feGaussianBlur stdDeviation="8"/>
<feComposite in2="hardAlpha" operator="out"/>
<feColorMatrix type="matrix" values="0 0 0 0 0.188235 0 0 0 0 0.188235 0 0 0 0 0.188235 0 0 0 0.08 0"/>
<feBlend mode="normal" in2="BackgroundImageFix" result="effect1_dropShadow_5413_2962"/>
<feBlend mode="normal" in="SourceGraphic" in2="effect1_dropShadow_5413_2962" result="shape"/>
</filter>
</defs>
</svg>
