<svg width="224" height="148" viewBox="0 0 224 148" fill="none" xmlns="http://www.w3.org/2000/svg">
<g clip-path="url(#clip0_5373_4526)">
<g filter="url(#filter0_d_5373_4526)">
<path d="M206.32 4.40137H17.606C12.7442 4.40137 8.80298 8.34259 8.80298 13.2043V125.992C8.80298 130.854 12.7442 134.795 17.606 134.795H206.32C211.181 134.795 215.123 130.854 215.123 125.992V13.2043C215.123 8.34259 211.181 4.40137 206.32 4.40137Z" fill="white"/>
<path d="M199.718 20.6318H24.2082C20.7139 20.6318 17.8811 23.4646 17.8811 26.959V44.5649C17.8811 48.0593 20.7139 50.8921 24.2082 50.8921H199.718C203.212 50.8921 206.045 48.0593 206.045 44.5649V26.959C206.045 23.4646 203.212 20.6318 199.718 20.6318Z" stroke="#E0E0E0"/>
<mask id="mask0_5373_4526" style="mask-type:luminance" maskUnits="userSpaceOnUse" x="27" y="28" width="23" height="15">
<path d="M49.5167 28.6096H27.5093V42.3643H49.5167V28.6096Z" fill="white"/>
</mask>
<g mask="url(#mask0_5373_4526)">
<path d="M41.4883 30.0806H35.5378V40.8933H41.4883V30.0806Z" fill="#FF5F00"/>
<path d="M35.9153 35.4866C35.9153 33.3852 36.8787 31.3793 38.5033 30.0803C35.5564 27.7305 31.2871 28.2463 28.9636 31.2456C26.64 34.2258 27.1501 38.5432 30.1159 40.893C32.5906 42.8606 36.0476 42.8606 38.5222 40.893C36.8787 39.5939 35.9153 37.588 35.9153 35.4866Z" fill="#EB001B"/>
<path d="M49.517 35.4869C49.517 39.2885 46.4756 42.3642 42.7164 42.3642C41.1863 42.3642 39.7128 41.8484 38.5227 40.8932C41.4696 38.5434 41.9796 34.226 39.6561 31.2267C39.3161 30.8064 38.9383 30.4052 38.5227 30.0805C41.4696 27.7307 45.7578 28.2465 48.0624 31.2458C49.0069 32.4493 49.517 33.9395 49.517 35.4869Z" fill="#F79E1B"/>
<path d="M48.8745 39.7472V39.518H48.969V39.4797H48.7423V39.518H48.8368V39.7472H48.8745ZM49.309 39.7472V39.4797H49.2335L49.1579 39.6708L49.0823 39.4797H49.0068V39.7472H49.0635V39.5371L49.139 39.709H49.1957L49.2713 39.5371V39.7472H49.309Z" fill="#F79E1B"/>
</g>
<path d="M61.1911 31.3088L61.2511 29.9892L60.1419 30.7071L59.7986 30.1139L60.976 29.5121L59.7986 28.9104L60.1419 28.3086L61.2511 29.0264L61.1911 27.7068H61.87L61.8101 29.0264L62.9187 28.3086L63.2626 28.9104L62.0852 29.5121L63.2626 30.1139L62.9187 30.7071L61.8101 29.9892L61.87 31.3088H61.1911ZM65.4121 31.3088L65.4721 29.9892L64.3629 30.7071L64.0191 30.1139L65.197 29.5121L64.0191 28.9104L64.3629 28.3086L65.4721 29.0264L65.4121 27.7068H66.0911L66.0311 29.0264L67.1397 28.3086L67.4836 28.9104L66.3062 29.5121L67.4836 30.1139L67.1397 30.7071L66.0311 29.9892L66.0911 31.3088H65.4121ZM68.5069 34.1113L71.3008 28.5837V28.5364H68.0684V27.7068H72.3065V28.5708L69.5171 34.1113H68.5069ZM74.9628 34.1973C74.5161 34.1973 74.1205 34.1199 73.7766 33.9652C73.4355 33.8104 73.1675 33.5984 72.9728 33.329C72.7808 33.0568 72.6845 32.7473 72.6845 32.4006C72.6845 32.1341 72.7406 31.8862 72.8523 31.657C72.9667 31.4278 73.1219 31.2372 73.3166 31.0853C73.5114 30.9335 73.7304 30.836 73.9741 30.7931V30.7543C73.6561 30.677 73.3997 30.5065 73.205 30.2429C73.0129 29.9764 72.9167 29.6726 72.9167 29.3316C72.9167 29.002 73.0041 28.7083 73.1791 28.4504C73.3568 28.1925 73.5989 27.9905 73.9053 27.8444C74.2151 27.6953 74.5672 27.6208 74.9628 27.6208C75.3523 27.6208 75.7006 27.6953 76.0071 27.8444C76.3168 27.9905 76.5589 28.1925 76.7339 28.4504C76.9116 28.7083 77.0001 29.002 77.0001 29.3316C77.0001 29.6726 76.9028 29.9764 76.708 30.2429C76.516 30.5065 76.264 30.677 75.9515 30.7543V30.7931C76.1919 30.836 76.4098 30.9335 76.6046 31.0853C76.7999 31.2372 76.9545 31.4278 77.0689 31.657C77.1834 31.8862 77.2411 32.1341 77.2411 32.4006C77.2411 32.7473 77.1437 33.0568 76.9484 33.329C76.7537 33.5984 76.4846 33.8104 76.1408 33.9652C75.7996 34.1199 75.4068 34.1973 74.9628 34.1973ZM74.9628 33.4064C75.2263 33.4064 75.4558 33.3634 75.6505 33.2775C75.8453 33.1886 75.9961 33.064 76.1017 32.9035C76.2079 32.743 76.2607 32.5568 76.2607 32.3447C76.2607 32.1212 76.2035 31.9249 76.089 31.7559C75.9773 31.5839 75.8238 31.4493 75.6291 31.3518C75.4343 31.2515 75.212 31.2013 74.9628 31.2013C74.7108 31.2013 74.4858 31.2501 74.2877 31.3475C74.093 31.4449 73.94 31.5796 73.8283 31.7515C73.7161 31.9235 73.6605 32.1212 73.6605 32.3447C73.6605 32.5568 73.7133 32.743 73.8195 32.9035C73.9257 33.064 74.0759 33.1886 74.2707 33.2775C74.4654 33.3634 74.6965 33.4064 74.9628 33.4064ZM74.9628 30.432C75.1746 30.432 75.3628 30.389 75.5256 30.303C75.6923 30.2171 75.8222 30.0981 75.9168 29.9463C76.0142 29.7944 76.0632 29.6167 76.0632 29.4132C76.0632 29.2127 76.0159 29.0379 75.9212 28.8889C75.8299 28.7399 75.7006 28.6238 75.5344 28.5407C75.371 28.4576 75.1807 28.416 74.9628 28.416C74.7422 28.416 74.5485 28.4576 74.3824 28.5407C74.2162 28.6238 74.0875 28.7399 73.9956 28.8889C73.9042 29.0379 73.858 29.2127 73.858 29.4132C73.858 29.6167 73.9053 29.7944 74 29.9463C74.0946 30.0981 74.2234 30.2171 74.3868 30.303C74.5529 30.389 74.7449 30.432 74.9628 30.432Z" fill="#303030"/>
<path d="M59.4481 45.8223V43.9015H59.7903C59.9064 43.8014 60.0148 43.6617 60.1149 43.4824C60.2173 43.3008 60.3048 43.0552 60.3768 42.7455C60.4489 42.4358 60.4979 42.04 60.5237 41.5581L60.6492 39.3614H63.8518V43.9015H64.4422V45.8153H63.6912V44.565H60.1991V45.8223H59.4481ZM60.7157 43.9015H63.1008V40.0354H61.3551L61.278 41.5581C61.2549 41.9237 61.2175 42.2543 61.1664 42.5499C61.1174 42.8433 61.0547 43.1017 60.9776 43.3253C60.9006 43.5487 60.8137 43.7409 60.7157 43.9015ZM66.5901 44.6454C66.2083 44.6454 65.8776 44.5627 65.5981 44.3974C65.3186 44.2321 65.1035 43.9993 64.9522 43.6989C64.8031 43.3963 64.7283 43.0435 64.7283 42.6407C64.7283 42.2403 64.802 41.8876 64.9483 41.5825C65.0974 41.2775 65.3059 41.0401 65.5739 40.8701C65.8435 40.6978 66.1604 40.6117 66.5235 40.6117C66.7447 40.6117 66.9587 40.6477 67.1661 40.7199C67.3735 40.7921 67.5595 40.9062 67.7251 41.0622C67.8902 41.2182 68.0206 41.4207 68.1163 41.6699C68.2137 41.919 68.2626 42.2193 68.2626 42.5709V42.8433H65.1579V42.274H67.8715L67.5188 42.4626C67.5188 42.2228 67.4819 42.0109 67.4071 41.827C67.3328 41.6431 67.2211 41.4999 67.072 41.3975C66.9251 41.2927 66.7425 41.2403 66.5235 41.2403C66.3045 41.2403 66.1175 41.2927 65.9612 41.3975C65.8077 41.5022 65.69 41.6408 65.6086 41.813C65.5271 41.9853 65.4864 42.1739 65.4864 42.3788V42.7665C65.4864 43.0342 65.5332 43.2612 65.6262 43.4475C65.7191 43.6337 65.8484 43.7758 66.0135 43.8736C66.1813 43.9713 66.3755 44.0203 66.5967 44.0203C66.7414 44.0203 66.8718 43.9993 66.9879 43.9574C67.1067 43.9154 67.209 43.8526 67.2954 43.7688C67.3818 43.685 67.4467 43.5814 67.4907 43.458L68.2104 43.5942C68.1521 43.8037 68.0497 43.9876 67.9028 44.146C67.7565 44.3043 67.5711 44.4277 67.3477 44.5161C67.1265 44.6023 66.874 44.6454 66.5901 44.6454ZM69.1501 46.0249C69.0357 46.0272 68.9322 46.019 68.8392 46.0004C68.7485 45.9841 68.6786 45.9643 68.6296 45.9411L68.8145 45.3229L68.8667 45.3368C69.0604 45.3858 69.2233 45.3823 69.3559 45.3264C69.4912 45.2729 69.604 45.1227 69.6948 44.8758L69.7889 44.6174L68.3639 40.6605H69.1776L70.1624 43.692H70.2048L71.1929 40.6605H72.0067L70.4001 45.0819C70.3258 45.2868 70.2312 45.4591 70.1173 45.5988C70.0034 45.7408 69.8659 45.8468 69.7052 45.9166C69.5468 45.9888 69.3619 46.0249 69.1501 46.0249ZM73.9241 44.6454C73.5494 44.6454 73.2253 44.5592 72.953 44.387C72.6806 44.2146 72.471 43.9772 72.3247 43.6745C72.1778 43.3718 72.1046 43.0249 72.1046 42.6337C72.1046 42.2356 72.1789 41.8852 72.328 41.5825C72.4793 41.2775 72.69 41.0401 72.9601 40.8701C73.2325 40.6978 73.5516 40.6117 73.9169 40.6117C74.2151 40.6117 74.4792 40.6664 74.7097 40.7758C74.9424 40.8829 75.1301 41.0354 75.272 41.2333C75.4162 41.4312 75.5014 41.6617 75.5267 41.9248H74.7867C74.7609 41.8014 74.7108 41.6885 74.6365 41.586C74.5645 41.4836 74.4687 41.4021 74.3499 41.3416C74.2311 41.281 74.0902 41.2508 73.9274 41.2508C73.7155 41.2508 73.5307 41.3066 73.3722 41.4184C73.216 41.5279 73.0938 41.685 73.0052 41.8899C72.9172 42.0948 72.8727 42.3369 72.8727 42.6163C72.8727 42.898 72.9156 43.1436 73.002 43.3532C73.0883 43.5627 73.2105 43.7245 73.3689 43.8386C73.5296 43.9504 73.7155 44.0063 73.9274 44.0063C74.1463 44.0063 74.3323 43.9457 74.4864 43.8247C74.6421 43.7036 74.7422 43.5383 74.7867 43.3287H75.5267C75.5014 43.5825 75.42 43.8084 75.2825 44.0063C75.1449 44.2042 74.9612 44.3602 74.7306 44.4743C74.5001 44.5883 74.2311 44.6454 73.9241 44.6454ZM75.5933 41.3171V40.6605H78.8796V41.3171H77.612V44.565H76.8681V41.3171H75.5933ZM79.3896 44.565V40.6605H81.0033C81.4429 40.6629 81.7923 40.7584 82.0509 40.9469C82.3094 41.1332 82.4371 41.387 82.4349 41.7083C82.4371 41.9364 82.365 42.1169 82.2187 42.2496C82.0718 42.38 81.8797 42.4696 81.6421 42.5185C81.8143 42.5371 81.9727 42.5883 82.1169 42.6722C82.2638 42.756 82.3815 42.8689 82.4701 43.0109C82.5609 43.1506 82.606 43.3171 82.606 43.5103C82.606 43.7175 82.5515 43.9015 82.442 44.0621C82.3347 44.2205 82.1812 44.3439 81.981 44.4323C81.7807 44.5208 81.5375 44.565 81.2509 44.565H79.3896ZM80.1021 43.926H81.2509C81.4374 43.9283 81.5837 43.8852 81.691 43.7967C81.7983 43.7059 81.8506 43.5837 81.8484 43.43C81.8506 43.2484 81.7983 43.1064 81.691 43.0039C81.5837 42.8992 81.4374 42.8468 81.2509 42.8468H80.1021V43.926ZM80.1021 42.2915H81.0099C81.2245 42.2891 81.3917 42.2438 81.5128 42.1553C81.6366 42.0645 81.6971 41.9423 81.6943 41.7886C81.6971 41.6372 81.6366 41.5197 81.5128 41.4359C81.3895 41.3497 81.2195 41.3066 81.0033 41.3066H80.1021V42.2915ZM83.6156 46.0249C83.5011 46.0272 83.3977 46.019 83.3047 46.0004C83.2139 45.9841 83.1441 45.9643 83.0951 45.9411L83.28 45.3229L83.3322 45.3368C83.5259 45.3858 83.6888 45.3823 83.8214 45.3264C83.9567 45.2729 84.0695 45.1227 84.1603 44.8758L84.2543 44.6174L82.8294 40.6605H83.6431L84.6279 43.692H84.6703L85.6584 40.6605H86.4722L84.8656 45.0819C84.7913 45.2868 84.6967 45.4591 84.5828 45.5988C84.4689 45.7408 84.3314 45.8468 84.1707 45.9166C84.0123 45.9888 83.8274 46.0249 83.6156 46.0249ZM88.4314 44.6454C88.0495 44.6454 87.7189 44.5627 87.4394 44.3974C87.1599 44.2321 86.9448 43.9993 86.7935 43.6989C86.6444 43.3963 86.5701 43.0435 86.5701 42.6407C86.5701 42.2403 86.6433 41.8876 86.7902 41.5825C86.9387 41.2775 87.1472 41.0401 87.4152 40.8701C87.6853 40.6978 88.0017 40.6117 88.3648 40.6117C88.586 40.6117 88.8005 40.6477 89.0074 40.7199C89.2148 40.7921 89.4013 40.9062 89.5664 41.0622C89.7314 41.2182 89.8618 41.4207 89.9576 41.6699C90.0555 41.919 90.1045 42.2193 90.1045 42.5709V42.8433H86.9992V42.274H89.7133L89.3601 42.4626C89.3601 42.2228 89.3232 42.0109 89.2484 41.827C89.1741 41.6431 89.0624 41.4999 88.9133 41.3975C88.7664 41.2927 88.5838 41.2403 88.3648 41.2403C88.1464 41.2403 87.9588 41.2927 87.8025 41.3975C87.649 41.5022 87.5313 41.6408 87.4498 41.813C87.3684 41.9853 87.3277 42.1739 87.3277 42.3788V42.7665C87.3277 43.0342 87.3745 43.2612 87.4674 43.4475C87.5604 43.6337 87.6897 43.7758 87.8553 43.8736C88.0226 43.9713 88.2173 44.0203 88.4385 44.0203C88.5827 44.0203 88.7131 43.9993 88.8297 43.9574C88.948 43.9154 89.0509 43.8526 89.1367 43.7688C89.2231 43.685 89.288 43.5814 89.3326 43.458L90.0517 43.5942C89.9933 43.8037 89.891 43.9876 89.7447 44.146C89.5978 44.3043 89.4129 44.4277 89.189 44.5161C88.9678 44.6023 88.7153 44.6454 88.4314 44.6454ZM90.2893 41.3171V40.6605H93.5756V41.3171H92.308V44.565H91.5641V41.3171H90.2893ZM95.2938 45.6896V43.9085H95.608C95.69 43.834 95.7593 43.7455 95.8176 43.643C95.8759 43.5383 95.9238 43.4149 95.9612 43.2729C96.0003 43.1285 96.0344 42.962 96.0624 42.7735C96.09 42.5849 96.1147 42.3672 96.1356 42.1204L96.2578 40.6605H98.9085V43.9085H99.5094V45.6896H98.7655V44.565H96.0481V45.6896H95.2938ZM96.4256 43.9085H98.168V41.3101H96.9356L96.8514 42.1204C96.8167 42.5325 96.7689 42.8887 96.7084 43.189C96.65 43.4871 96.556 43.7269 96.4256 43.9085ZM101.591 44.6454C101.225 44.6454 100.905 44.5616 100.63 44.3939C100.358 44.2263 100.146 43.9911 99.9946 43.6884C99.8455 43.3858 99.7712 43.0342 99.7712 42.6337C99.7712 42.2286 99.8455 41.8747 99.9946 41.5721C100.146 41.2671 100.358 41.0308 100.63 40.8631C100.905 40.6955 101.225 40.6117 101.591 40.6117C101.959 40.6117 102.278 40.6955 102.551 40.8631C102.824 41.0308 103.035 41.2671 103.187 41.5721C103.338 41.8747 103.413 42.2286 103.413 42.6337C103.413 43.0342 103.338 43.3858 103.187 43.6884C103.035 43.9911 102.824 44.2263 102.551 44.3939C102.278 44.5616 101.959 44.6454 101.591 44.6454ZM101.591 44.0063C101.831 44.0063 102.029 43.9434 102.184 43.8177C102.341 43.692 102.456 43.5255 102.53 43.3183C102.607 43.1087 102.645 42.8805 102.645 42.6337C102.645 42.3823 102.607 42.1518 102.53 41.9423C102.456 41.7327 102.341 41.5651 102.184 41.4393C102.029 41.3136 101.831 41.2508 101.591 41.2508C101.353 41.2508 101.157 41.3136 101 41.4393C100.847 41.5651 100.731 41.7327 100.655 41.9423C100.578 42.1518 100.539 42.3823 100.539 42.6337C100.539 42.8805 100.578 43.1087 100.655 43.3183C100.731 43.5255 100.847 43.692 101 43.8177C101.157 43.9434 101.353 44.0063 101.591 44.0063ZM107.419 39.3614V44.565H106.644V40.1507H106.61L105.373 40.9644V40.2101L106.665 39.3614H107.419ZM109.906 44.6349C109.587 44.6349 109.3 44.5743 109.047 44.4533C108.795 44.3299 108.594 44.1611 108.443 43.9469C108.291 43.7304 108.211 43.4848 108.202 43.21H108.963C108.982 43.4312 109.081 43.6139 109.26 43.7583C109.439 43.9027 109.655 43.9748 109.906 43.9748C110.106 43.9748 110.283 43.9283 110.437 43.8351C110.591 43.742 110.712 43.6151 110.8 43.4544C110.889 43.2915 110.933 43.1052 110.933 42.8957C110.933 42.6862 110.887 42.4987 110.796 42.3334C110.706 42.1658 110.58 42.0342 110.42 41.9388C110.261 41.8433 110.078 41.7956 109.871 41.7956C109.713 41.7956 109.555 41.8235 109.396 41.8794C109.238 41.933 109.11 42.0028 109.012 42.0889L108.289 41.9842L108.582 39.3614H111.443V40.0354H109.239L109.075 41.4918H109.103C109.203 41.3916 109.337 41.3102 109.505 41.2473C109.675 41.1821 109.857 41.1495 110.053 41.1495C110.369 41.1495 110.651 41.2251 110.898 41.3765C111.147 41.5255 111.343 41.7304 111.485 41.9912C111.627 42.2496 111.698 42.5465 111.698 42.8817C111.698 43.2193 111.621 43.5209 111.467 43.7863C111.314 44.0494 111.102 44.2566 110.832 44.4079C110.564 44.5592 110.255 44.6349 109.906 44.6349ZM114.292 39.1169L112.616 45.3474H111.939L113.615 39.1169H114.292ZM116.44 44.6349C116.089 44.6349 115.777 44.5755 115.504 44.4568C115.232 44.3357 115.016 44.1681 114.858 43.9539C114.7 43.7397 114.616 43.4917 114.607 43.21H115.396C115.408 43.3637 115.46 43.4964 115.553 43.6081C115.646 43.7199 115.768 43.8072 115.92 43.8701C116.074 43.9306 116.245 43.9609 116.433 43.9609C116.638 43.9609 116.82 43.9248 116.978 43.8526C117.136 43.7804 117.26 43.6814 117.349 43.5557C117.439 43.4277 117.484 43.2799 117.484 43.1122C117.484 42.9376 117.44 42.7839 117.352 42.6512C117.263 42.5162 117.134 42.4114 116.964 42.3369C116.794 42.2624 116.589 42.2252 116.349 42.2252H115.906V41.5825H116.349C116.54 41.5825 116.709 41.5476 116.856 41.4778C117.003 41.4079 117.117 41.3113 117.198 41.1879C117.282 41.0645 117.324 40.919 117.324 40.7514C117.324 40.5907 117.288 40.451 117.215 40.3322C117.143 40.2112 117.042 40.1181 116.912 40.0529C116.781 39.9854 116.628 39.9516 116.451 39.9516C116.281 39.9516 116.123 39.9819 115.976 40.0424C115.829 40.1029 115.709 40.1902 115.616 40.3044C115.525 40.4161 115.477 40.5523 115.473 40.7129H114.715C114.722 40.4312 114.803 40.1844 114.96 39.9725C115.118 39.7583 115.327 39.5919 115.588 39.4731C115.852 39.3521 116.143 39.2915 116.461 39.2915C116.794 39.2915 117.082 39.3567 117.324 39.4871C117.568 39.6152 117.757 39.7875 117.889 40.004C118.023 40.2182 118.089 40.4522 118.089 40.7059C118.089 41.0017 118.007 41.2508 117.844 41.4533C117.681 41.6536 117.464 41.7897 117.191 41.8619V41.9003C117.536 41.9539 117.802 42.0912 117.991 42.3125C118.182 42.5337 118.277 42.8084 118.277 43.1367C118.277 43.423 118.197 43.6791 118.036 43.905C117.878 44.1308 117.661 44.3089 117.383 44.4393C117.109 44.5697 116.794 44.6349 116.44 44.6349ZM120.747 44.6349C120.346 44.6349 120.003 44.5301 119.716 44.3206C119.432 44.111 119.214 43.8084 119.063 43.4126C118.914 43.0144 118.84 42.5325 118.84 41.9667C118.84 41.4033 118.916 40.9225 119.067 40.5244C119.218 40.1239 119.435 39.8189 119.72 39.6094C120.006 39.3975 120.348 39.2915 120.747 39.2915C121.147 39.2915 121.489 39.3975 121.773 39.6094C122.06 39.8189 122.277 40.1239 122.426 40.5244C122.578 40.9225 122.653 41.4033 122.653 41.9667C122.653 42.5325 122.579 43.0144 122.43 43.4126C122.281 43.8084 122.064 44.111 121.78 44.3206C121.496 44.5301 121.151 44.6349 120.747 44.6349ZM120.747 43.9644C120.991 43.9644 121.197 43.8863 121.364 43.7304C121.532 43.5744 121.66 43.3474 121.749 43.0493C121.837 42.749 121.882 42.3881 121.882 41.9667C121.882 41.543 121.837 41.1821 121.749 40.8841C121.66 40.5837 121.532 40.3556 121.364 40.1995C121.197 40.0413 120.991 39.9621 120.747 39.9621C120.386 39.9621 120.106 40.1379 119.908 40.4894C119.713 40.8387 119.615 41.3311 119.615 41.9667C119.615 42.3881 119.659 42.749 119.747 43.0493C119.836 43.3474 119.964 43.5744 120.132 43.7304C120.302 43.8863 120.507 43.9644 120.747 43.9644Z" fill="#BDBDBD"/>
<path d="M201.643 35.762C201.643 32.2676 198.81 29.4348 195.316 29.4348C191.822 29.4348 188.989 32.2676 188.989 35.762C188.989 39.2563 191.822 42.0891 195.316 42.0891C198.81 42.0891 201.643 39.2563 201.643 35.762Z" stroke="#E0E0E0"/>
<path d="M199.718 58.0444H24.2082C20.7139 58.0444 17.8811 60.8772 17.8811 64.3716V81.9775C17.8811 85.4719 20.7139 88.3047 24.2082 88.3047H199.718C203.212 88.3047 206.045 85.4719 206.045 81.9775V64.3716C206.045 60.8772 203.212 58.0444 199.718 58.0444Z" stroke="#E0E0E0"/>
<mask id="mask1_5373_4526" style="mask-type:luminance" maskUnits="userSpaceOnUse" x="24" y="68" width="29" height="10">
<path d="M52.2677 68.7732H24.7584V77.5762H52.2677V68.7732Z" fill="white"/>
</mask>
<g mask="url(#mask1_5373_4526)">
<path d="M42.6819 68.7732C40.7312 68.7732 38.9798 69.7778 38.9798 71.621C38.9798 73.7441 42.0737 73.8894 42.0737 74.9457C42.0737 75.3908 41.5493 75.7947 40.6683 75.7947C39.4098 75.7947 38.4659 75.2357 38.4659 75.2357L38.0674 77.0997C38.0674 77.0997 39.1476 77.5762 40.5949 77.5762C42.7344 77.5762 44.4124 76.5303 44.4124 74.6453C44.4124 72.4083 41.3081 72.2636 41.3081 71.2793C41.3081 70.9272 41.738 70.5442 42.619 70.5442C43.6153 70.5442 44.4334 70.9481 44.4334 70.9481L44.8319 69.1462C44.8214 69.1462 43.93 68.7732 42.6819 68.7732ZM24.8109 68.908L24.7584 69.177C24.7584 69.177 25.5764 69.3223 26.3211 69.6227C27.2755 69.9643 27.3384 70.1608 27.5062 70.772L29.2577 77.4309H31.6069L35.2042 68.908H32.8654L30.5476 74.7075L29.6037 69.7883C29.5198 69.2287 29.0794 68.908 28.534 68.908H24.8109ZM36.1481 68.908L34.3127 77.4309H36.5466L38.3715 68.908H36.1481ZM48.5865 68.908C48.0516 68.908 47.7685 69.1875 47.5587 69.6843L44.2866 77.4309H46.6253L47.0763 76.1369H49.9289L50.2017 77.4309H52.2677L50.4743 68.908H48.5865ZM48.8907 71.2171L49.5829 74.4176H47.7265L48.8907 71.2171Z" fill="#191919"/>
</g>
<path d="M61.1911 68.7213L61.2511 67.402L60.1419 68.1194L59.7986 67.5263L60.976 66.925L59.7986 66.3231L60.1419 65.7212L61.2511 66.4392L61.1911 65.1193H61.87L61.8101 66.4392L62.9187 65.7212L63.2626 66.3231L62.0852 66.925L63.2626 67.5263L62.9187 68.1194L61.8101 67.402L61.87 68.7213H61.1911ZM65.4121 68.7213L65.4721 67.402L64.3629 68.1194L64.0191 67.5263L65.197 66.925L64.0191 66.3231L64.3629 65.7212L65.4721 66.4392L65.4121 65.1193H66.0911L66.0311 66.4392L67.1397 65.7212L67.4836 66.3231L66.3062 66.925L67.4836 67.5263L67.1397 68.1194L66.0311 67.402L66.0911 68.7213H65.4121ZM70.4496 71.6098C70.0023 71.6098 69.6073 71.5328 69.2634 71.3776C68.9223 71.223 68.6544 71.0112 68.4596 70.7416C68.2676 70.4693 68.1713 70.1601 68.1713 69.8135C68.1713 69.5466 68.2274 69.299 68.3391 69.0696C68.4536 68.8402 68.6087 68.6498 68.8035 68.498C68.9982 68.3461 69.2172 68.2487 69.4609 68.2058V68.1668C69.1429 68.0897 68.8866 67.9192 68.6918 67.6556C68.4998 67.3888 68.4035 67.0851 68.4035 66.744C68.4035 66.415 68.491 66.1212 68.6659 65.8631C68.8436 65.6051 69.0857 65.4032 69.3922 65.2568C69.7019 65.1083 70.054 65.0334 70.4496 65.0334C70.8392 65.0334 71.1874 65.1083 71.4939 65.2568C71.8036 65.4032 72.0457 65.6051 72.2207 65.8631C72.3984 66.1212 72.487 66.415 72.487 66.744C72.487 67.0851 72.3896 67.3888 72.1948 67.6556C72.0028 67.9192 71.7503 68.0897 71.4383 68.1668V68.2058C71.6787 68.2487 71.8966 68.3461 72.0914 68.498C72.2862 68.6498 72.4413 68.8402 72.5557 69.0696C72.6702 69.299 72.728 69.5466 72.728 69.8135C72.728 70.1601 72.63 70.4693 72.4353 70.7416C72.2405 71.0112 71.9709 71.223 71.6276 71.3776C71.2865 71.5328 70.8936 71.6098 70.4496 71.6098ZM70.4496 70.8192C70.7132 70.8192 70.9426 70.7763 71.1374 70.6899C71.3321 70.6013 71.4823 70.4764 71.5885 70.3163C71.6947 70.1557 71.7475 69.9692 71.7475 69.7573C71.7475 69.534 71.6903 69.3376 71.5759 69.1686C71.4642 68.9964 71.3107 68.8616 71.1159 68.7643C70.9211 68.6641 70.6989 68.6141 70.4496 68.6141C70.1976 68.6141 69.9726 68.6625 69.7746 68.7604C69.5798 68.8578 69.4268 68.992 69.3146 69.1642C69.2029 69.3359 69.1473 69.534 69.1473 69.7573C69.1473 69.9692 69.2002 70.1557 69.3063 70.3163C69.412 70.4764 69.5627 70.6013 69.7575 70.6899C69.9523 70.7763 70.1828 70.8192 70.4496 70.8192ZM70.4496 67.8443C70.6615 67.8443 70.8491 67.8014 71.0125 67.7156C71.1786 67.6298 71.309 67.5109 71.4037 67.3591C71.501 67.2072 71.55 67.0295 71.55 66.826C71.55 66.6251 71.5027 66.4507 71.4081 66.3016C71.3162 66.1525 71.1874 66.0364 71.0213 65.9534C70.8579 65.8703 70.6675 65.8285 70.4496 65.8285C70.229 65.8285 70.0353 65.8703 69.8692 65.9534C69.703 66.0364 69.5743 66.1525 69.4824 66.3016C69.3905 66.4507 69.3449 66.6251 69.3449 66.826C69.3449 67.0295 69.3922 67.2072 69.4868 67.3591C69.5814 67.5109 69.7102 67.6298 69.8736 67.7156C70.0397 67.8014 70.2318 67.8443 70.4496 67.8443ZM75.6247 71.6098C75.1779 71.6098 74.7823 71.5328 74.4385 71.3776C74.0974 71.223 73.8294 71.0112 73.6347 70.7416C73.4426 70.4693 73.3464 70.1601 73.3464 69.8135C73.3464 69.5466 73.4025 69.299 73.5142 69.0696C73.6292 68.8402 73.7838 68.6498 73.9785 68.498C74.1733 68.3461 74.3928 68.2487 74.636 68.2058V68.1668C74.318 68.0897 74.0616 67.9192 73.8668 67.6556C73.6748 67.3888 73.5785 67.0851 73.5785 66.744C73.5785 66.415 73.666 66.1212 73.841 65.8631C74.0187 65.6051 74.2608 65.4032 74.5672 65.2568C74.877 65.1083 75.2291 65.0334 75.6247 65.0334C76.0142 65.0334 76.3625 65.1083 76.6695 65.2568C76.9787 65.4032 77.2208 65.6051 77.3957 65.8631C77.5734 66.1212 77.662 66.415 77.662 66.744C77.662 67.0851 77.5646 67.3888 77.3699 67.6556C77.1779 67.9192 76.9259 68.0897 76.6134 68.1668V68.2058C76.8543 68.2487 77.0717 68.3461 77.267 68.498C77.4618 68.6498 77.6164 68.8402 77.7308 69.0696C77.8458 69.299 77.903 69.5466 77.903 69.8135C77.903 70.1601 77.8056 70.4693 77.6103 70.7416C77.4155 71.0112 77.1465 71.223 76.8026 71.3776C76.4615 71.5328 76.0687 71.6098 75.6247 71.6098ZM75.6247 70.8192C75.8882 70.8192 76.1176 70.7763 76.3124 70.6899C76.5072 70.6013 76.6579 70.4764 76.7636 70.3163C76.8697 70.1557 76.9226 69.9692 76.9226 69.7573C76.9226 69.534 76.8653 69.3376 76.7509 69.1686C76.6392 68.9964 76.4857 68.8616 76.291 68.7643C76.0962 68.6641 75.8739 68.6141 75.6247 68.6141C75.3727 68.6141 75.1477 68.6625 74.9502 68.7604C74.7548 68.8578 74.6019 68.992 74.4902 69.1642C74.3785 69.3359 74.3224 69.534 74.3224 69.7573C74.3224 69.9692 74.3752 70.1557 74.4814 70.3163C74.5876 70.4764 74.7378 70.6013 74.9325 70.6899C75.1273 70.7763 75.3584 70.8192 75.6247 70.8192ZM75.6247 67.8443C75.8371 67.8443 76.0247 67.8014 76.1881 67.7156C76.3542 67.6298 76.4846 67.5109 76.5793 67.3591C76.6766 67.2072 76.7251 67.0295 76.7251 66.826C76.7251 66.6251 76.6777 66.4507 76.5831 66.3016C76.4918 66.1525 76.3625 66.0364 76.1963 65.9534C76.0329 65.8703 75.8426 65.8285 75.6247 65.8285C75.4041 65.8285 75.2109 65.8703 75.0442 65.9534C74.8781 66.0364 74.7493 66.1525 74.6575 66.3016C74.5661 66.4507 74.5199 66.6251 74.5199 66.826C74.5199 67.0295 74.5672 67.2072 74.6619 67.3591C74.7565 67.5109 74.8852 67.6298 75.0486 67.7156C75.2148 67.8014 75.4068 67.8443 75.6247 67.8443Z" fill="#303030"/>
<path d="M59.4481 83.2347V81.314H59.7903C59.9064 81.2138 60.0148 81.0741 60.1149 80.8947C60.2173 80.7131 60.3048 80.4678 60.3768 80.158C60.4489 79.8483 60.4979 79.4527 60.5237 78.9707L60.6492 76.7738H63.8518V81.314H64.4422V83.2275H63.6912V81.9775H60.1991V83.2347H59.4481ZM60.7157 81.314H63.1008V77.4478H61.3551L61.278 78.9707C61.2549 79.336 61.2175 79.6667 61.1664 79.9621C61.1174 80.2559 61.0547 80.514 60.9776 80.7379C60.9006 80.9613 60.8137 81.1533 60.7157 81.314ZM66.5901 82.0578C66.2083 82.0578 65.8776 81.9753 65.5981 81.8097C65.3186 81.6446 65.1035 81.4119 64.9522 81.1115C64.8031 80.8089 64.7283 80.4562 64.7283 80.0529C64.7283 79.6529 64.802 79.2997 64.9483 78.9949C65.0974 78.6901 65.3059 78.4524 65.5739 78.2824C65.8435 78.1102 66.1604 78.0238 66.5235 78.0238C66.7447 78.0238 66.9587 78.0602 67.1661 78.1322C67.3735 78.2043 67.5595 78.3187 67.7251 78.4744C67.8902 78.6307 68.0206 78.8332 68.1163 79.0824C68.2137 79.3316 68.2626 79.6315 68.2626 79.9831V80.2559H65.1579V79.6865H67.8715L67.5188 79.8752C67.5188 79.6353 67.4819 79.4235 67.4071 79.2392C67.3328 79.0554 67.2211 78.9124 67.072 78.8101C66.9251 78.705 66.7425 78.6527 66.5235 78.6527C66.3045 78.6527 66.1175 78.705 65.9612 78.8101C65.8077 78.9146 65.69 79.0532 65.6086 79.2254C65.5271 79.3977 65.4864 79.5864 65.4864 79.791V80.1789C65.4864 80.4469 65.5332 80.6735 65.6262 80.86C65.7191 81.046 65.8484 81.188 66.0135 81.2859C66.1813 81.3838 66.3755 81.4328 66.5967 81.4328C66.7414 81.4328 66.8718 81.4119 66.9879 81.3701C67.1067 81.3277 67.209 81.265 67.2954 81.1814C67.3818 81.0972 67.4467 80.9937 67.4907 80.8705L68.2104 81.0064C68.1521 81.216 68.0497 81.4003 67.9028 81.5582C67.7565 81.7167 67.5711 81.8399 67.3477 81.9285C67.1265 82.0149 66.874 82.0578 66.5901 82.0578ZM69.1501 83.4371C69.0357 83.4399 68.9322 83.4316 68.8392 83.4129C68.7485 83.3964 68.6786 83.3766 68.6296 83.3535L68.8145 82.7351L68.8667 82.7494C69.0604 82.7984 69.2233 82.7945 69.3559 82.7389C69.4912 82.685 69.604 82.5354 69.6948 82.2883L69.7889 82.0297L68.3639 78.0728H69.1776L70.1624 81.1043H70.2048L71.1929 78.0728H72.0067L70.4001 82.4941C70.3258 82.6993 70.2312 82.8715 70.1173 83.0113C70.0034 83.1532 69.8659 83.2594 69.7052 83.3293C69.5468 83.4014 69.3619 83.4371 69.1501 83.4371ZM73.9241 82.0578C73.5494 82.0578 73.2253 81.9714 72.953 81.7992C72.6806 81.627 72.471 81.3893 72.3247 81.0867C72.1778 80.7841 72.1046 80.4375 72.1046 80.0463C72.1046 79.648 72.1789 79.2975 72.328 78.9949C72.4793 78.6901 72.69 78.4524 72.9601 78.2824C73.2325 78.1102 73.5516 78.0238 73.9169 78.0238C74.2151 78.0238 74.4792 78.0789 74.7097 78.1884C74.9424 78.2951 75.1301 78.448 75.272 78.6456C75.4162 78.8436 75.5014 79.0741 75.5267 79.3371H74.7867C74.7609 79.2139 74.7108 79.1011 74.6365 78.9982C74.5645 78.8959 74.4687 78.8145 74.3499 78.7539C74.2311 78.6934 74.0902 78.6632 73.9274 78.6632C73.7155 78.6632 73.5307 78.7193 73.3722 78.831C73.216 78.9405 73.0938 79.0973 73.0052 79.3025C72.9172 79.5071 72.8727 79.7492 72.8727 80.0287C72.8727 80.3104 72.9156 80.5563 73.002 80.7654C73.0883 80.975 73.2105 81.1368 73.3689 81.2512C73.5296 81.3629 73.7155 81.4185 73.9274 81.4185C74.1463 81.4185 74.3323 81.358 74.4864 81.2369C74.6421 81.1159 74.7422 80.9508 74.7867 80.7412H75.5267C75.5014 80.9948 75.42 81.221 75.2825 81.4185C75.1449 81.6166 74.9612 81.7728 74.7306 81.8867C74.5001 82.0006 74.2311 82.0578 73.9241 82.0578ZM75.5933 78.7297V78.0728H78.8796V78.7297H77.612V81.9775H76.8681V78.7297H75.5933ZM79.3896 81.9775V78.0728H81.0033C81.4429 78.0756 81.7923 78.1707 82.0509 78.3595C82.3094 78.5454 82.4371 78.7996 82.4349 79.1209C82.4371 79.3487 82.365 79.5292 82.2187 79.6623C82.0718 79.7921 81.8797 79.8818 81.6421 79.9308C81.8143 79.9495 81.9727 80.0007 82.1169 80.0848C82.2638 80.1685 82.3815 80.2813 82.4701 80.4232C82.5609 80.563 82.606 80.7297 82.606 80.9228C82.606 81.1302 82.5515 81.314 82.442 81.4746C82.3347 81.6331 82.1812 81.7563 81.981 81.8449C81.7807 81.9335 81.5375 81.9775 81.2509 81.9775H79.3896ZM80.1021 81.3382H81.2509C81.4374 81.3409 81.5837 81.2975 81.691 81.2094C81.7983 81.1181 81.8506 80.9959 81.8484 80.8424C81.8506 80.6609 81.7983 80.5189 81.691 80.4166C81.5837 80.3115 81.4374 80.2592 81.2509 80.2592H80.1021V81.3382ZM80.1021 79.7041H81.0099C81.2245 79.7014 81.3917 79.6562 81.5128 79.5677C81.6366 79.4769 81.6971 79.3547 81.6943 79.2012C81.6971 79.0499 81.6366 78.9322 81.5128 78.848C81.3895 78.7622 81.2195 78.7193 81.0033 78.7193H80.1021V79.7041ZM83.6156 83.4371C83.5011 83.4399 83.3977 83.4316 83.3047 83.4129C83.2139 83.3964 83.1441 83.3766 83.0951 83.3535L83.28 82.7351L83.3322 82.7494C83.5259 82.7984 83.6888 82.7945 83.8214 82.7389C83.9567 82.685 84.0695 82.5354 84.1603 82.2883L84.2543 82.0297L82.8294 78.0728H83.6431L84.6279 81.1043H84.6703L85.6584 78.0728H86.4722L84.8656 82.4941C84.7913 82.6993 84.6967 82.8715 84.5828 83.0113C84.4689 83.1532 84.3314 83.2594 84.1707 83.3293C84.0123 83.4014 83.8274 83.4371 83.6156 83.4371ZM88.4314 82.0578C88.0495 82.0578 87.7189 81.9753 87.4394 81.8097C87.1599 81.6446 86.9448 81.4119 86.7935 81.1115C86.6444 80.8089 86.5701 80.4562 86.5701 80.0529C86.5701 79.6529 86.6433 79.2997 86.7902 78.9949C86.9387 78.6901 87.1472 78.4524 87.4152 78.2824C87.6853 78.1102 88.0017 78.0238 88.3648 78.0238C88.586 78.0238 88.8005 78.0602 89.0074 78.1322C89.2148 78.2043 89.4013 78.3187 89.5664 78.4744C89.7314 78.6307 89.8618 78.8332 89.9576 79.0824C90.0555 79.3316 90.1045 79.6315 90.1045 79.9831V80.2559H86.9992V79.6865H89.7133L89.3601 79.8752C89.3601 79.6353 89.3232 79.4235 89.2484 79.2392C89.1741 79.0554 89.0624 78.9124 88.9133 78.8101C88.7664 78.705 88.5838 78.6527 88.3648 78.6527C88.1464 78.6527 87.9588 78.705 87.8025 78.8101C87.649 78.9146 87.5313 79.0532 87.4498 79.2254C87.3684 79.3977 87.3277 79.5864 87.3277 79.791V80.1789C87.3277 80.4469 87.3745 80.6735 87.4674 80.86C87.5604 81.046 87.6897 81.188 87.8553 81.2859C88.0226 81.3838 88.2173 81.4328 88.4385 81.4328C88.5827 81.4328 88.7131 81.4119 88.8297 81.3701C88.948 81.3277 89.0509 81.265 89.1367 81.1814C89.2231 81.0972 89.288 80.9937 89.3326 80.8705L90.0517 81.0064C89.9933 81.216 89.891 81.4003 89.7447 81.5582C89.5978 81.7167 89.4129 81.8399 89.189 81.9285C88.9678 82.0149 88.7153 82.0578 88.4314 82.0578ZM90.2893 78.7297V78.0728H93.5756V78.7297H92.308V81.9775H91.5641V78.7297H90.2893ZM95.2938 83.1021V81.3211H95.608C95.69 81.2463 95.7593 81.1577 95.8176 81.0554C95.8759 80.9508 95.9238 80.8276 95.9612 80.6851C96.0003 80.5409 96.0344 80.3742 96.0624 80.1861C96.09 79.9974 96.1147 79.7795 96.1356 79.533L96.2578 78.0728H98.9085V81.3211H99.5094V83.1021H98.7655V81.9775H96.0481V83.1021H95.2938ZM96.4256 81.3211H98.168V78.7226H96.9356L96.8514 79.533C96.8167 79.9451 96.7689 80.3011 96.7084 80.6015C96.65 80.8997 96.556 81.1395 96.4256 81.3211ZM101.591 82.0578C101.225 82.0578 100.905 81.9742 100.63 81.8064C100.358 81.6386 100.146 81.4036 99.9946 81.101C99.8455 80.7984 99.7712 80.4469 99.7712 80.0463C99.7712 79.6408 99.8455 79.2871 99.9946 78.9845C100.146 78.6797 100.358 78.4431 100.63 78.2753C100.905 78.108 101.225 78.0238 101.591 78.0238C101.959 78.0238 102.278 78.108 102.551 78.2753C102.824 78.4431 103.035 78.6797 103.187 78.9845C103.338 79.2871 103.413 79.6408 103.413 80.0463C103.413 80.4469 103.338 80.7984 103.187 81.101C103.035 81.4036 102.824 81.6386 102.551 81.8064C102.278 81.9742 101.959 82.0578 101.591 82.0578ZM101.591 81.4185C101.831 81.4185 102.029 81.3558 102.184 81.2303C102.341 81.1043 102.456 80.9382 102.53 80.7308C102.607 80.5211 102.645 80.2928 102.645 80.0463C102.645 79.7949 102.607 79.5644 102.53 79.3547C102.456 79.1451 102.341 78.9773 102.184 78.8519C102.029 78.7259 101.831 78.6632 101.591 78.6632C101.353 78.6632 101.157 78.7259 101 78.8519C100.847 78.9773 100.731 79.1451 100.655 79.3547C100.578 79.5644 100.539 79.7949 100.539 80.0463C100.539 80.2928 100.578 80.5211 100.655 80.7308C100.731 80.9382 100.847 81.1043 101 81.2303C101.157 81.3558 101.353 81.4185 101.591 81.4185ZM107.419 76.7738V81.9775H106.644V77.5633H106.61L105.373 78.3771V77.6222L106.665 76.7738H107.419ZM109.906 82.0474C109.587 82.0474 109.3 81.9868 109.047 81.8658C108.795 81.7425 108.594 81.5736 108.443 81.3591C108.291 81.1428 108.211 80.8969 108.202 80.6224H108.963C108.982 80.8435 109.081 81.0262 109.26 81.1709C109.439 81.3151 109.655 81.3871 109.906 81.3871C110.106 81.3871 110.283 81.3409 110.437 81.2474C110.591 81.1544 110.712 81.0273 110.8 80.8667C110.889 80.7038 110.933 80.5178 110.933 80.3082C110.933 80.0986 110.887 79.911 110.796 79.7459C110.706 79.5781 110.58 79.4466 110.42 79.3514C110.261 79.2557 110.078 79.2078 109.871 79.2078C109.713 79.2078 109.555 79.2359 109.396 79.292C109.238 79.3454 109.11 79.4153 109.012 79.5016L108.289 79.3966L108.582 76.7738H111.443V77.4478H109.239L109.075 78.9041H109.103C109.203 78.804 109.337 78.7226 109.505 78.6599C109.675 78.5944 109.857 78.5619 110.053 78.5619C110.369 78.5619 110.651 78.6379 110.898 78.7892C111.147 78.9377 111.343 79.1429 111.485 79.4037C111.627 79.6623 111.698 79.9588 111.698 80.2939C111.698 80.6317 111.621 80.9332 111.467 81.1984C111.314 81.462 111.102 81.6688 110.832 81.8201C110.564 81.9714 110.255 82.0474 109.906 82.0474ZM114.292 76.5295L112.616 82.7598H111.939L113.615 76.5295H114.292ZM116.44 82.0474C116.089 82.0474 115.777 81.9879 115.504 81.8691C115.232 81.748 115.016 81.5802 114.858 81.3662C114.7 81.1522 114.616 80.9041 114.607 80.6224H115.396C115.408 80.7759 115.46 80.909 115.553 81.0207C115.646 81.1324 115.768 81.2199 115.92 81.2826C116.074 81.3431 116.245 81.3734 116.433 81.3734C116.638 81.3734 116.82 81.3371 116.978 81.265C117.136 81.1929 117.26 81.0939 117.349 80.9684C117.439 80.8402 117.484 80.6922 117.484 80.5244C117.484 80.35 117.44 80.1965 117.352 80.0634C117.263 79.9286 117.134 79.824 116.964 79.7492C116.794 79.6749 116.589 79.6375 116.349 79.6375H115.906V78.9949H116.349C116.54 78.9949 116.709 78.9603 116.856 78.8904C117.003 78.8205 117.117 78.7237 117.198 78.6004C117.282 78.4772 117.324 78.3314 117.324 78.1636C117.324 78.0029 117.288 77.8632 117.215 77.7449C117.143 77.6239 117.042 77.5303 116.912 77.4654C116.781 77.3977 116.628 77.3642 116.451 77.3642C116.281 77.3642 116.123 77.3944 115.976 77.4549C115.829 77.5155 115.709 77.6029 115.616 77.7168C115.525 77.8285 115.477 77.965 115.473 78.1256H114.715C114.722 77.8434 114.803 77.5969 114.96 77.3851C115.118 77.1711 115.327 77.0043 115.588 76.8855C115.852 76.7645 116.143 76.7039 116.461 76.7039C116.794 76.7039 117.082 76.7694 117.324 76.8998C117.568 77.0275 117.757 77.1997 117.889 77.4164C118.023 77.6305 118.089 77.8648 118.089 78.1185C118.089 78.4139 118.007 78.6632 117.844 78.8656C117.681 79.0659 117.464 79.2023 117.191 79.2744V79.3129C117.536 79.3663 117.802 79.5038 117.991 79.725C118.182 79.9462 118.277 80.2207 118.277 80.5492C118.277 80.8353 118.197 81.0917 118.036 81.3173C117.878 81.5434 117.661 81.7216 117.383 81.8515C117.109 81.9819 116.794 82.0474 116.44 82.0474ZM120.747 82.0474C120.346 82.0474 120.003 81.9428 119.716 81.7332C119.432 81.5236 119.214 81.221 119.063 80.8248C118.914 80.4271 118.84 79.9451 118.84 79.3789C118.84 78.8156 118.916 78.3347 119.067 77.9369C119.218 77.5364 119.435 77.2316 119.72 77.022C120.006 76.8101 120.348 76.7039 120.747 76.7039C121.147 76.7039 121.489 76.8101 121.773 77.022C122.06 77.2316 122.277 77.5364 122.426 77.9369C122.578 78.3347 122.653 78.8156 122.653 79.3789C122.653 79.9451 122.579 80.4271 122.43 80.8248C122.281 81.221 122.064 81.5236 121.78 81.7332C121.496 81.9428 121.151 82.0474 120.747 82.0474ZM120.747 81.3767C120.991 81.3767 121.197 81.2985 121.364 81.1428C121.532 80.9866 121.66 80.7599 121.749 80.4617C121.837 80.1613 121.882 79.8004 121.882 79.3789C121.882 78.9553 121.837 78.5944 121.749 78.2967C121.66 77.9963 121.532 77.768 121.364 77.6118C121.197 77.4539 120.991 77.3746 120.747 77.3746C120.386 77.3746 120.106 77.5501 119.908 77.9017C119.713 78.2511 119.615 78.7435 119.615 79.3789C119.615 79.8004 119.659 80.1613 119.747 80.4617C119.836 80.7599 119.964 80.9866 120.132 81.1428C120.302 81.2985 120.507 81.3767 120.747 81.3767Z" fill="#BDBDBD"/>
<path d="M201.643 73.1745C201.643 69.6802 198.81 66.8474 195.316 66.8474C191.822 66.8474 188.989 69.6802 188.989 73.1745C188.989 76.6689 191.822 79.5017 195.316 79.5017C198.81 79.5017 201.643 76.6689 201.643 73.1745Z" stroke="#E0E0E0"/>
<path d="M199.718 95.457H24.2082C20.7139 95.457 17.8811 98.2898 17.8811 101.784V119.39C17.8811 122.884 20.7139 125.717 24.2082 125.717H199.718C203.212 125.717 206.045 122.884 206.045 119.39V101.784C206.045 98.2898 203.212 95.457 199.718 95.457Z" stroke="#E0E0E0"/>
<path d="M33.3779 108.386V114.255M36.6791 108.386V114.255M40.3469 108.386V114.255M43.648 108.386V114.255M31.9108 115.429V116.016C31.9108 116.427 31.9108 116.632 31.9907 116.789C32.0611 116.927 32.1733 117.039 32.3113 117.11C32.4682 117.189 32.6737 117.189 33.0845 117.189H43.9415C44.3523 117.189 44.5578 117.189 44.7147 117.11C44.8527 117.039 44.9649 116.927 45.0353 116.789C45.1152 116.632 45.1152 116.427 45.1152 116.016V115.429C45.1152 115.018 45.1152 114.813 45.0353 114.656C44.9649 114.518 44.8527 114.405 44.7147 114.335C44.5578 114.255 44.3523 114.255 43.9415 114.255H33.0845C32.6737 114.255 32.4682 114.255 32.3113 114.335C32.1733 114.405 32.0611 114.518 31.9907 114.656C31.9108 114.813 31.9108 115.018 31.9108 115.429ZM38.2584 104.042L32.8299 105.248C32.5019 105.321 32.3379 105.357 32.2156 105.446C32.1076 105.523 32.0228 105.629 31.9703 105.751C31.9108 105.89 31.9108 106.058 31.9108 106.394V107.213C31.9108 107.624 31.9108 107.829 31.9907 107.986C32.0611 108.124 32.1733 108.236 32.3113 108.307C32.4682 108.386 32.6737 108.386 33.0845 108.386H43.9415C44.3523 108.386 44.5578 108.386 44.7147 108.307C44.8527 108.236 44.9649 108.124 45.0353 107.986C45.1152 107.829 45.1152 107.624 45.1152 107.213V106.394C45.1152 106.058 45.1152 105.89 45.0557 105.751C45.0032 105.629 44.9184 105.523 44.8104 105.446C44.6881 105.357 44.5241 105.321 44.1961 105.248L38.7676 104.042C38.6726 104.021 38.6251 104.01 38.5771 104.006C38.5345 104.002 38.4915 104.002 38.4489 104.006C38.4009 104.01 38.3534 104.021 38.2584 104.042Z" stroke="#303030" stroke-width="2" stroke-linecap="round" stroke-linejoin="round"/>
<path d="M62.6177 113.974C62.0675 113.974 61.5751 113.843 61.1394 113.579C60.7036 113.315 60.3598 112.938 60.1078 112.448C59.8558 111.955 59.7292 111.369 59.7292 110.691C59.7292 110.006 59.8558 109.418 60.1078 108.928C60.3598 108.435 60.7036 108.057 61.1394 107.793C61.5751 107.53 62.0675 107.398 62.6177 107.398C63.174 107.398 63.668 107.53 64.101 107.793C64.5335 108.057 64.8746 108.435 65.1238 108.928C65.3764 109.418 65.5024 110.006 65.5024 110.691C65.5024 111.372 65.3764 111.958 65.1238 112.448C64.8746 112.938 64.5335 113.315 64.101 113.579C63.668 113.843 63.174 113.974 62.6177 113.974ZM62.6177 113.093C62.9874 113.093 63.317 113.001 63.6064 112.818C63.8958 112.634 64.1236 112.364 64.2903 112.006C64.4592 111.647 64.5434 111.209 64.5434 110.691C64.5434 110.169 64.4592 109.729 64.2903 109.371C64.1236 109.01 63.8958 108.737 63.6064 108.554C63.317 108.37 62.9874 108.279 62.6177 108.279C62.2513 108.279 61.9217 108.37 61.6296 108.554C61.3402 108.737 61.1108 109.01 60.9419 109.371C60.7724 109.729 60.6882 110.169 60.6882 110.691C60.6882 111.209 60.7724 111.647 60.9419 112.006C61.1108 112.364 61.3402 112.634 61.6296 112.818C61.9217 113.001 62.2513 113.093 62.6177 113.093ZM66.2633 113.888V109.083H70.1745V113.888H69.259V109.891H67.1656V113.888H66.2633ZM70.6862 113.888L70.6818 113.08H70.8491C71.0301 113.077 71.1715 113.024 71.2749 112.921C71.3811 112.815 71.4598 112.627 71.5115 112.358C71.566 112.089 71.6017 111.707 71.6188 111.215L71.7046 109.083H75.053V113.888H74.1375V109.891H72.5645L72.487 111.528C72.4699 111.924 72.4308 112.269 72.3709 112.564C72.3109 112.859 72.2218 113.106 72.1046 113.304C71.9868 113.499 71.8366 113.645 71.6529 113.742C71.4697 113.839 71.2463 113.888 70.9828 113.888H70.6862ZM77.3352 113.992C77.0315 113.992 76.7564 113.936 76.5099 113.824C76.264 113.709 76.0687 113.543 75.9256 113.325C75.7826 113.108 75.7105 112.842 75.7105 112.53C75.7105 112.257 75.7622 112.036 75.8657 111.864C75.9713 111.689 76.1132 111.55 76.2909 111.447C76.4687 111.344 76.6662 111.266 76.884 111.215C77.1019 111.163 77.3253 111.123 77.5547 111.094C77.8441 111.063 78.0774 111.036 78.2551 111.012C78.4328 110.99 78.5621 110.954 78.6424 110.905C78.7255 110.853 78.7668 110.772 78.7668 110.66V110.639C78.7668 110.367 78.6892 110.156 78.5346 110.007C78.3828 109.858 78.1566 109.783 77.8557 109.783C77.5432 109.783 77.2956 109.852 77.1118 109.99C76.9314 110.124 76.807 110.278 76.7382 110.45L75.8568 110.248C75.963 109.956 76.116 109.72 76.3168 109.543C76.5204 109.362 76.7526 109.23 77.0133 109.147C77.2769 109.064 77.552 109.022 77.8386 109.022C78.0306 109.022 78.2337 109.046 78.4488 109.091C78.6639 109.134 78.8658 109.216 79.0551 109.337C79.2465 109.454 79.4028 109.623 79.5233 109.843C79.6438 110.064 79.7038 110.349 79.7038 110.699V113.888H78.7882V113.231H78.7541C78.6964 113.348 78.6061 113.466 78.4829 113.583C78.3629 113.701 78.2078 113.798 78.0191 113.876C77.8298 113.953 77.602 113.992 77.3352 113.992ZM77.5377 113.243C77.7985 113.243 78.0202 113.193 78.2039 113.093C78.3872 112.99 78.5275 112.855 78.6248 112.689C78.7222 112.523 78.7712 112.347 78.7712 112.16V111.537C78.7365 111.569 78.6722 111.599 78.5775 111.628C78.4829 111.656 78.3756 111.68 78.2551 111.7C78.1352 111.721 78.0174 111.739 77.903 111.756C77.788 111.771 77.6923 111.782 77.6147 111.791C77.4342 111.816 77.2697 111.856 77.1206 111.911C76.9715 111.963 76.851 112.04 76.7597 112.143C76.6706 112.243 76.626 112.377 76.626 112.543C76.626 112.775 76.7124 112.95 76.884 113.067C77.0563 113.185 77.2741 113.243 77.5377 113.243ZM80.0047 109.891V109.083H84.0497V109.891H82.4893V113.888H81.5738V109.891H80.0047ZM85.846 113.992C85.5423 113.992 85.2672 113.936 85.0207 113.824C84.7743 113.709 84.5795 113.543 84.4364 113.325C84.2928 113.108 84.2213 112.842 84.2213 112.53C84.2213 112.257 84.273 112.036 84.3759 111.864C84.4821 111.689 84.6241 111.55 84.8018 111.447C84.9795 111.344 85.177 111.266 85.3949 111.215C85.6127 111.163 85.8361 111.123 86.0655 111.094C86.3549 111.063 86.5882 111.036 86.7659 111.012C86.9436 110.99 87.0724 110.954 87.1527 110.905C87.2358 110.853 87.2776 110.772 87.2776 110.66V110.639C87.2776 110.367 87.2 110.156 87.0454 110.007C86.8936 109.858 86.6669 109.783 86.3665 109.783C86.054 109.783 85.8059 109.852 85.6226 109.99C85.4422 110.124 85.3173 110.278 85.2485 110.45L84.3677 110.248C84.4733 109.956 84.6268 109.72 84.8276 109.543C85.0306 109.362 85.2628 109.23 85.5236 109.147C85.7872 109.064 86.0623 109.022 86.3489 109.022C86.5409 109.022 86.7445 109.046 86.9596 109.091C87.1742 109.134 87.3761 109.216 87.5654 109.337C87.7574 109.454 87.9136 109.623 88.0341 109.843C88.1546 110.064 88.2146 110.349 88.2146 110.699V113.888H87.2991V113.231H87.2644C87.2072 113.348 87.117 113.466 86.9937 113.583C86.8732 113.701 86.7186 113.798 86.5294 113.876C86.3406 113.953 86.1129 113.992 85.846 113.992ZM86.0479 113.243C86.3087 113.243 86.531 113.193 86.7142 113.093C86.898 112.99 87.0383 112.855 87.1357 112.689C87.233 112.523 87.282 112.347 87.282 112.16V111.537C87.2473 111.569 87.183 111.599 87.0883 111.628C86.9937 111.656 86.8864 111.68 86.7659 111.7C86.6454 111.721 86.5283 111.739 86.4133 111.756C86.2988 111.771 86.2031 111.782 86.1255 111.791C85.9451 111.816 85.78 111.856 85.6315 111.911C85.4824 111.963 85.3619 112.04 85.27 112.143C85.1814 112.243 85.1368 112.377 85.1368 112.543C85.1368 112.775 85.2227 112.95 85.3949 113.067C85.5665 113.185 85.7844 113.243 86.0479 113.243ZM93.0887 113.987C92.6276 113.987 92.2293 113.881 91.8937 113.669C91.5586 113.457 91.3006 113.165 91.1201 112.792C90.9396 112.42 90.8494 111.993 90.8494 111.511C90.8494 111.021 90.9413 110.59 91.1245 110.217C91.311 109.842 91.5702 109.55 91.9025 109.34C92.2375 109.129 92.6304 109.022 93.0804 109.022C93.4468 109.022 93.7726 109.09 94.0559 109.224C94.3425 109.356 94.5731 109.544 94.748 109.788C94.9257 110.031 95.0303 110.315 95.0616 110.639H94.1505C94.1192 110.487 94.0575 110.348 93.9657 110.222C93.8771 110.096 93.7593 109.995 93.613 109.921C93.4672 109.847 93.2939 109.809 93.0931 109.809C92.8323 109.809 92.6045 109.878 92.4097 110.015C92.2177 110.15 92.0675 110.343 91.9586 110.596C91.8497 110.848 91.7952 111.146 91.7952 111.49C91.7952 111.837 91.848 112.139 91.9542 112.397C92.0604 112.655 92.2106 112.854 92.4053 112.994C92.6029 113.132 92.8323 113.201 93.0931 113.201C93.3627 113.201 93.5915 113.126 93.7808 112.977C93.9728 112.828 94.0961 112.624 94.1505 112.366H95.0616C95.0303 112.679 94.9301 112.957 94.7607 113.201C94.5918 113.444 94.3657 113.636 94.0818 113.777C93.7979 113.917 93.4672 113.987 93.0887 113.987ZM97.7394 113.987C97.2899 113.987 96.896 113.884 96.5576 113.678C96.2225 113.471 95.9617 113.182 95.7752 112.809C95.592 112.437 95.5001 112.004 95.5001 111.511C95.5001 111.012 95.592 110.577 95.7752 110.205C95.9617 109.829 96.2225 109.538 96.5576 109.332C96.896 109.126 97.2899 109.022 97.7394 109.022C98.1922 109.022 98.5867 109.126 98.9217 109.332C99.2568 109.538 99.5176 109.829 99.7041 110.205C99.8901 110.577 99.9836 111.012 99.9836 111.511C99.9836 112.004 99.8901 112.437 99.7041 112.809C99.5176 113.182 99.2568 113.471 98.9217 113.678C98.5867 113.884 98.1922 113.987 97.7394 113.987ZM97.7394 113.201C98.0348 113.201 98.2786 113.123 98.4706 112.968C98.6626 112.814 98.804 112.609 98.8959 112.354C98.9905 112.096 99.0378 111.815 99.0378 111.511C99.0378 111.202 98.9905 110.918 98.8959 110.66C98.804 110.402 98.6626 110.196 98.4706 110.041C98.2786 109.887 98.0348 109.809 97.7394 109.809C97.4472 109.809 97.2052 109.887 97.0131 110.041C96.8239 110.196 96.6825 110.402 96.5878 110.66C96.4932 110.918 96.4459 111.202 96.4459 111.511C96.4459 111.815 96.4932 112.096 96.5878 112.354C96.6825 112.609 96.8239 112.814 97.0131 112.968C97.2052 113.123 97.4472 113.201 97.7394 113.201ZM104.634 113.987C104.173 113.987 103.774 113.881 103.439 113.669C103.104 113.457 102.846 113.165 102.666 112.792C102.485 112.42 102.395 111.993 102.395 111.511C102.395 111.021 102.486 110.59 102.67 110.217C102.856 109.842 103.115 109.55 103.448 109.34C103.783 109.129 104.175 109.022 104.626 109.022C104.992 109.022 105.318 109.09 105.602 109.224C105.888 109.356 106.119 109.544 106.293 109.788C106.471 110.031 106.575 110.315 106.607 110.639H105.696C105.664 110.487 105.603 110.348 105.511 110.222C105.422 110.096 105.304 109.995 105.159 109.921C105.012 109.847 104.839 109.809 104.639 109.809C104.378 109.809 104.15 109.878 103.955 110.015C103.763 110.15 103.613 110.343 103.504 110.596C103.395 110.848 103.34 111.146 103.34 111.49C103.34 111.837 103.393 112.139 103.499 112.397C103.605 112.655 103.756 112.854 103.951 112.994C104.149 113.132 104.378 113.201 104.639 113.201C104.908 113.201 105.137 113.126 105.326 112.977C105.518 112.828 105.641 112.624 105.696 112.366H106.607C106.575 112.679 106.475 112.957 106.306 113.201C106.137 113.444 105.911 113.636 105.627 113.777C105.344 113.917 105.012 113.987 104.634 113.987ZM111.12 109.083V113.888H110.205V109.083H111.12ZM110.725 111.318V112.126C110.582 112.18 110.428 112.231 110.265 112.276C110.104 112.322 109.935 112.358 109.758 112.384C109.583 112.407 109.398 112.418 109.203 112.418C108.61 112.418 108.138 112.273 107.789 111.984C107.44 111.692 107.266 111.246 107.269 110.647V109.074H108.171V110.647C108.175 110.871 108.218 111.054 108.301 111.197C108.384 111.341 108.501 111.445 108.653 111.511C108.808 111.577 108.991 111.61 109.203 111.61C109.484 111.613 109.745 111.587 109.985 111.533C110.226 111.478 110.473 111.407 110.725 111.318ZM114.082 113.987C113.612 113.987 113.205 113.885 112.861 113.682C112.517 113.478 112.252 113.192 112.066 112.822C111.882 112.45 111.791 112.015 111.791 111.52C111.791 111.027 111.881 110.593 112.062 110.217C112.245 109.842 112.501 109.55 112.831 109.34C113.163 109.129 113.553 109.022 114 109.022C114.272 109.022 114.536 109.067 114.791 109.156C115.046 109.245 115.275 109.385 115.479 109.577C115.682 109.769 115.843 110.018 115.96 110.325C116.08 110.632 116.141 111.001 116.141 111.434V111.769H112.319V111.069H115.659L115.225 111.301C115.225 111.005 115.179 110.744 115.088 110.518C114.996 110.292 114.858 110.116 114.675 109.99C114.495 109.861 114.27 109.796 114 109.796C113.731 109.796 113.5 109.861 113.308 109.99C113.119 110.118 112.975 110.289 112.874 110.501C112.774 110.713 112.724 110.945 112.724 111.197V111.675C112.724 112.004 112.781 112.283 112.895 112.513C113.01 112.742 113.169 112.917 113.372 113.037C113.579 113.158 113.818 113.218 114.09 113.218C114.268 113.218 114.429 113.192 114.572 113.141C114.718 113.089 114.844 113.011 114.95 112.908C115.056 112.805 115.136 112.677 115.191 112.525L116.077 112.693C116.004 112.951 115.878 113.177 115.698 113.372C115.518 113.567 115.29 113.719 115.015 113.828C114.742 113.934 114.431 113.987 114.082 113.987ZM116.369 109.891V109.083H120.413V109.891H118.853V113.888H117.937V109.891H116.369ZM122.21 113.992C121.906 113.992 121.631 113.936 121.385 113.824C121.138 113.709 120.943 113.543 120.8 113.325C120.657 113.108 120.585 112.842 120.585 112.53C120.585 112.257 120.637 112.036 120.74 111.864C120.846 111.689 120.988 111.55 121.166 111.447C121.343 111.344 121.541 111.266 121.759 111.215C121.977 111.163 122.2 111.123 122.429 111.094C122.718 111.063 122.952 111.036 123.13 111.012C123.308 110.99 123.436 110.954 123.517 110.905C123.6 110.853 123.642 110.772 123.642 110.66V110.639C123.642 110.367 123.564 110.156 123.409 110.007C123.258 109.858 123.031 109.783 122.73 109.783C122.418 109.783 122.17 109.852 121.987 109.99C121.806 110.124 121.681 110.278 121.613 110.45L120.732 110.248C120.837 109.956 120.991 109.72 121.191 109.543C121.395 109.362 121.627 109.23 121.888 109.147C122.151 109.064 122.426 109.022 122.713 109.022C122.905 109.022 123.108 109.046 123.323 109.091C123.538 109.134 123.74 109.216 123.929 109.337C124.121 109.454 124.278 109.623 124.398 109.843C124.518 110.064 124.579 110.349 124.579 110.699V113.888H123.663V113.231H123.628C123.571 113.348 123.481 113.466 123.358 113.583C123.237 113.701 123.083 113.798 122.893 113.876C122.704 113.953 122.476 113.992 122.21 113.992ZM122.412 113.243C122.673 113.243 122.895 113.193 123.078 113.093C123.261 112.99 123.402 112.855 123.5 112.689C123.597 112.523 123.645 112.347 123.645 112.16V111.537C123.611 111.569 123.547 111.599 123.452 111.628C123.358 111.656 123.25 111.68 123.13 111.7C123.009 111.721 122.892 111.739 122.777 111.756C122.663 111.771 122.567 111.782 122.489 111.791C122.309 111.816 122.144 111.856 121.995 111.911C121.846 111.963 121.726 112.04 121.634 112.143C121.545 112.243 121.501 112.377 121.501 112.543C121.501 112.775 121.587 112.95 121.759 113.067C121.931 113.185 122.148 113.243 122.412 113.243Z" fill="#303030"/>
<path d="M201.918 110.587C201.918 106.941 198.962 103.985 195.316 103.985C191.67 103.985 188.714 106.941 188.714 110.587C188.714 114.234 191.67 117.19 195.316 117.19C198.962 117.19 201.918 114.234 201.918 110.587Z" fill="#12B76A"/>
<path d="M198.25 108.386L194.216 112.421L192.382 110.587" stroke="white" stroke-width="2" stroke-linecap="round" stroke-linejoin="round"/>
<path d="M124.617 8.80273H99.8587C99.0991 8.80273 98.4833 9.41855 98.4833 10.1782C98.4833 10.9378 99.0991 11.5537 99.8587 11.5537H124.617C125.377 11.5537 125.993 10.9378 125.993 10.1782C125.993 9.41855 125.377 8.80273 124.617 8.80273Z" fill="#E0E0E0"/>
</g>
</g>
<defs>
<filter id="filter0_d_5373_4526" x="-7.19702" y="-3.59863" width="238.32" height="162.394" filterUnits="userSpaceOnUse" color-interpolation-filters="sRGB">
<feFlood flood-opacity="0" result="BackgroundImageFix"/>
<feColorMatrix in="SourceAlpha" type="matrix" values="0 0 0 0 0 0 0 0 0 0 0 0 0 0 0 0 0 0 127 0" result="hardAlpha"/>
<feOffset dy="8"/>
<feGaussianBlur stdDeviation="8"/>
<feComposite in2="hardAlpha" operator="out"/>
<feColorMatrix type="matrix" values="0 0 0 0 0.188235 0 0 0 0 0.188235 0 0 0 0 0.188235 0 0 0 0.08 0"/>
<feBlend mode="normal" in2="BackgroundImageFix" result="effect1_dropShadow_5373_4526"/>
<feBlend mode="normal" in="SourceGraphic" in2="effect1_dropShadow_5373_4526" result="shape"/>
</filter>
<clipPath id="clip0_5373_4526">
<rect width="223.926" height="148" fill="white"/>
</clipPath>
</defs>
</svg>
