<svg width="208" height="131" viewBox="0 0 208 131" fill="none" xmlns="http://www.w3.org/2000/svg">
    <path d="M198.32 0.401367H9.60595C4.7442 0.401367 0.802979 4.34259 0.802979 9.20434V121.992C0.802979 126.854 4.7442 130.795 9.60595 130.795H198.32C203.181 130.795 207.123 126.854 207.123 121.992V9.20434C207.123 4.34259 203.181 0.401367 198.32 0.401367Z" fill="white"/>
    <path d="M191.718 16.6318H16.2082C12.7139 16.6318 9.8811 19.4646 9.8811 22.959V40.5649C9.8811 44.0593 12.7139 46.8921 16.2082 46.8921H191.718C195.212 46.8921 198.045 44.0593 198.045 40.5649V22.959C198.045 19.4646 195.212 16.6318 191.718 16.6318Z" stroke="#E0E0E0"/>
    <mask id="mask0_1_6" style="mask-type:luminance" maskUnits="userSpaceOnUse" x="19" y="24" width="23" height="15">
        <path d="M41.5167 24.6096H19.5093V38.3643H41.5167V24.6096Z" fill="white"/>
    </mask>
    <g mask="url(#mask0_1_6)">
        <path d="M33.4883 26.0806H27.5378V36.8933H33.4883V26.0806Z" fill="#FF5F00"/>
        <path d="M27.9153 31.4866C27.9153 29.3852 28.8787 27.3793 30.5033 26.0803C27.5564 23.7305 23.2871 24.2463 20.9636 27.2456C18.64 30.2258 19.1501 34.5432 22.1159 36.893C24.5906 38.8606 28.0476 38.8606 30.5222 36.893C28.8787 35.5939 27.9153 33.588 27.9153 31.4866Z" fill="#EB001B"/>
        <path d="M41.517 31.4869C41.517 35.2885 38.4756 38.3642 34.7164 38.3642C33.1863 38.3642 31.7128 37.8484 30.5227 36.8932C33.4696 34.5434 33.9796 30.226 31.6561 27.2267C31.3161 26.8064 30.9383 26.4052 30.5227 26.0805C33.4696 23.7307 37.7578 24.2465 40.0624 27.2458C41.0069 28.4493 41.517 29.9395 41.517 31.4869Z" fill="#F79E1B"/>
        <path d="M40.8745 35.7472V35.518H40.969V35.4797H40.7423V35.518H40.8368V35.7472H40.8745ZM41.309 35.7472V35.4797H41.2335L41.1579 35.6708L41.0823 35.4797H41.0068V35.7472H41.0635V35.5371L41.139 35.709H41.1957L41.2713 35.5371V35.7472H41.309Z" fill="#F79E1B"/>
    </g>
    <path d="M53.1911 27.3088L53.2511 25.9892L52.1419 26.7071L51.7986 26.1139L52.976 25.5121L51.7986 24.9104L52.1419 24.3086L53.2511 25.0264L53.1911 23.7068H53.87L53.8101 25.0264L54.9187 24.3086L55.2626 24.9104L54.0852 25.5121L55.2626 26.1139L54.9187 26.7071L53.8101 25.9892L53.87 27.3088H53.1911ZM57.4121 27.3088L57.4721 25.9892L56.3629 26.7071L56.0191 26.1139L57.197 25.5121L56.0191 24.9104L56.3629 24.3086L57.4721 25.0264L57.4121 23.7068H58.0911L58.0311 25.0264L59.1397 24.3086L59.4836 24.9104L58.3062 25.5121L59.4836 26.1139L59.1397 26.7071L58.0311 25.9892L58.0911 27.3088H57.4121ZM60.5069 30.1113L63.3008 24.5837V24.5364H60.0684V23.7068H64.3065V24.5708L61.5171 30.1113H60.5069ZM66.9628 30.1973C66.5161 30.1973 66.1205 30.1199 65.7766 29.9652C65.4355 29.8104 65.1675 29.5984 64.9728 29.329C64.7808 29.0568 64.6845 28.7473 64.6845 28.4006C64.6845 28.1341 64.7406 27.8862 64.8523 27.657C64.9667 27.4278 65.1219 27.2372 65.3166 27.0853C65.5114 26.9335 65.7304 26.836 65.9741 26.7931V26.7543C65.6561 26.677 65.3997 26.5065 65.205 26.2429C65.0129 25.9764 64.9167 25.6726 64.9167 25.3316C64.9167 25.002 65.0041 24.7083 65.1791 24.4504C65.3568 24.1925 65.5989 23.9905 65.9053 23.8444C66.2151 23.6953 66.5672 23.6208 66.9628 23.6208C67.3523 23.6208 67.7006 23.6953 68.0071 23.8444C68.3168 23.9905 68.5589 24.1925 68.7339 24.4504C68.9116 24.7083 69.0001 25.002 69.0001 25.3316C69.0001 25.6726 68.9028 25.9764 68.708 26.2429C68.516 26.5065 68.264 26.677 67.9515 26.7543V26.7931C68.1919 26.836 68.4098 26.9335 68.6046 27.0853C68.7999 27.2372 68.9545 27.4278 69.0689 27.657C69.1834 27.8862 69.2411 28.1341 69.2411 28.4006C69.2411 28.7473 69.1437 29.0568 68.9484 29.329C68.7537 29.5984 68.4846 29.8104 68.1408 29.9652C67.7996 30.1199 67.4068 30.1973 66.9628 30.1973ZM66.9628 29.4064C67.2263 29.4064 67.4558 29.3634 67.6505 29.2775C67.8453 29.1886 67.9961 29.064 68.1017 28.9035C68.2079 28.743 68.2607 28.5568 68.2607 28.3447C68.2607 28.1212 68.2035 27.9249 68.089 27.7559C67.9773 27.5839 67.8238 27.4493 67.6291 27.3518C67.4343 27.2515 67.212 27.2013 66.9628 27.2013C66.7108 27.2013 66.4858 27.2501 66.2877 27.3475C66.093 27.4449 65.94 27.5796 65.8283 27.7515C65.7161 27.9235 65.6605 28.1212 65.6605 28.3447C65.6605 28.5568 65.7133 28.743 65.8195 28.9035C65.9257 29.064 66.0759 29.1886 66.2707 29.2775C66.4654 29.3634 66.6965 29.4064 66.9628 29.4064ZM66.9628 26.432C67.1746 26.432 67.3628 26.389 67.5256 26.303C67.6923 26.2171 67.8222 26.0981 67.9168 25.9463C68.0142 25.7944 68.0632 25.6167 68.0632 25.4132C68.0632 25.2127 68.0159 25.0379 67.9212 24.8889C67.8299 24.7399 67.7006 24.6238 67.5344 24.5407C67.371 24.4576 67.1807 24.416 66.9628 24.416C66.7422 24.416 66.5485 24.4576 66.3824 24.5407C66.2162 24.6238 66.0875 24.7399 65.9956 24.8889C65.9042 25.0379 65.858 25.2127 65.858 25.4132C65.858 25.6167 65.9053 25.7944 66 25.9463C66.0946 26.0981 66.2234 26.2171 66.3868 26.303C66.5529 26.389 66.7449 26.432 66.9628 26.432Z" fill="#303030"/>
    <path d="M51.4481 41.8223V39.9015H51.7903C51.9064 39.8014 52.0148 39.6617 52.1149 39.4824C52.2173 39.3008 52.3048 39.0552 52.3768 38.7455C52.4489 38.4358 52.4979 38.04 52.5237 37.5581L52.6492 35.3614H55.8518V39.9015H56.4422V41.8153H55.6912V40.565H52.1991V41.8223H51.4481ZM52.7157 39.9015H55.1008V36.0354H53.3551L53.278 37.5581C53.2549 37.9237 53.2175 38.2543 53.1664 38.5499C53.1174 38.8433 53.0547 39.1017 52.9776 39.3253C52.9006 39.5487 52.8137 39.7409 52.7157 39.9015ZM58.5901 40.6454C58.2083 40.6454 57.8776 40.5627 57.5981 40.3974C57.3186 40.2321 57.1035 39.9993 56.9522 39.6989C56.8031 39.3963 56.7283 39.0435 56.7283 38.6407C56.7283 38.2403 56.802 37.8876 56.9483 37.5825C57.0974 37.2775 57.3059 37.0401 57.5739 36.8701C57.8435 36.6978 58.1604 36.6117 58.5235 36.6117C58.7447 36.6117 58.9587 36.6477 59.1661 36.7199C59.3735 36.7921 59.5595 36.9062 59.7251 37.0622C59.8902 37.2182 60.0206 37.4207 60.1163 37.6699C60.2137 37.919 60.2626 38.2193 60.2626 38.5709V38.8433H57.1579V38.274H59.8715L59.5188 38.4626C59.5188 38.2228 59.4819 38.0109 59.4071 37.827C59.3328 37.6431 59.2211 37.4999 59.072 37.3975C58.9251 37.2927 58.7425 37.2403 58.5235 37.2403C58.3045 37.2403 58.1175 37.2927 57.9612 37.3975C57.8077 37.5022 57.69 37.6408 57.6086 37.813C57.5271 37.9853 57.4864 38.1739 57.4864 38.3788V38.7665C57.4864 39.0342 57.5332 39.2612 57.6262 39.4475C57.7191 39.6337 57.8484 39.7758 58.0135 39.8736C58.1813 39.9713 58.3755 40.0203 58.5967 40.0203C58.7414 40.0203 58.8718 39.9993 58.9879 39.9574C59.1067 39.9154 59.209 39.8526 59.2954 39.7688C59.3818 39.685 59.4467 39.5814 59.4907 39.458L60.2104 39.5942C60.1521 39.8037 60.0497 39.9876 59.9028 40.146C59.7565 40.3043 59.5711 40.4277 59.3477 40.5161C59.1265 40.6023 58.874 40.6454 58.5901 40.6454ZM61.1501 42.0249C61.0357 42.0272 60.9322 42.019 60.8392 42.0004C60.7485 41.9841 60.6786 41.9643 60.6296 41.9411L60.8145 41.3229L60.8667 41.3368C61.0604 41.3858 61.2233 41.3823 61.3559 41.3264C61.4912 41.2729 61.604 41.1227 61.6948 40.8758L61.7889 40.6174L60.3639 36.6605H61.1776L62.1624 39.692H62.2048L63.1929 36.6605H64.0067L62.4001 41.0819C62.3258 41.2868 62.2312 41.4591 62.1173 41.5988C62.0034 41.7408 61.8659 41.8468 61.7052 41.9166C61.5468 41.9888 61.3619 42.0249 61.1501 42.0249ZM65.9241 40.6454C65.5494 40.6454 65.2253 40.5592 64.953 40.387C64.6806 40.2146 64.471 39.9772 64.3247 39.6745C64.1778 39.3718 64.1046 39.0249 64.1046 38.6337C64.1046 38.2356 64.1789 37.8852 64.328 37.5825C64.4793 37.2775 64.69 37.0401 64.9601 36.8701C65.2325 36.6978 65.5516 36.6117 65.9169 36.6117C66.2151 36.6117 66.4792 36.6664 66.7097 36.7758C66.9424 36.8829 67.1301 37.0354 67.272 37.2333C67.4162 37.4312 67.5014 37.6617 67.5267 37.9248H66.7867C66.7609 37.8014 66.7108 37.6885 66.6365 37.586C66.5645 37.4836 66.4687 37.4021 66.3499 37.3416C66.2311 37.281 66.0902 37.2508 65.9274 37.2508C65.7155 37.2508 65.5307 37.3066 65.3722 37.4184C65.216 37.5279 65.0938 37.685 65.0052 37.8899C64.9172 38.0948 64.8727 38.3369 64.8727 38.6163C64.8727 38.898 64.9156 39.1436 65.002 39.3532C65.0883 39.5627 65.2105 39.7245 65.3689 39.8386C65.5296 39.9504 65.7155 40.0063 65.9274 40.0063C66.1463 40.0063 66.3323 39.9457 66.4864 39.8247C66.6421 39.7036 66.7422 39.5383 66.7867 39.3287H67.5267C67.5014 39.5825 67.42 39.8084 67.2825 40.0063C67.1449 40.2042 66.9612 40.3602 66.7306 40.4743C66.5001 40.5883 66.2311 40.6454 65.9241 40.6454ZM67.5933 37.3171V36.6605H70.8796V37.3171H69.612V40.565H68.8681V37.3171H67.5933ZM71.3896 40.565V36.6605H73.0033C73.4429 36.6629 73.7923 36.7584 74.0509 36.9469C74.3094 37.1332 74.4371 37.387 74.4349 37.7083C74.4371 37.9364 74.365 38.1169 74.2187 38.2496C74.0718 38.38 73.8797 38.4696 73.6421 38.5185C73.8143 38.5371 73.9727 38.5883 74.1169 38.6722C74.2638 38.756 74.3815 38.8689 74.4701 39.0109C74.5609 39.1506 74.606 39.3171 74.606 39.5103C74.606 39.7175 74.5515 39.9015 74.442 40.0621C74.3347 40.2205 74.1812 40.3439 73.981 40.4323C73.7807 40.5208 73.5375 40.565 73.2509 40.565H71.3896ZM72.1021 39.926H73.2509C73.4374 39.9283 73.5837 39.8852 73.691 39.7967C73.7983 39.7059 73.8506 39.5837 73.8484 39.43C73.8506 39.2484 73.7983 39.1064 73.691 39.0039C73.5837 38.8992 73.4374 38.8468 73.2509 38.8468H72.1021V39.926ZM72.1021 38.2915H73.0099C73.2245 38.2891 73.3917 38.2438 73.5128 38.1553C73.6366 38.0645 73.6971 37.9423 73.6943 37.7886C73.6971 37.6372 73.6366 37.5197 73.5128 37.4359C73.3895 37.3497 73.2195 37.3066 73.0033 37.3066H72.1021V38.2915ZM75.6156 42.0249C75.5011 42.0272 75.3977 42.019 75.3047 42.0004C75.2139 41.9841 75.1441 41.9643 75.0951 41.9411L75.28 41.3229L75.3322 41.3368C75.5259 41.3858 75.6888 41.3823 75.8214 41.3264C75.9567 41.2729 76.0695 41.1227 76.1603 40.8758L76.2543 40.6174L74.8294 36.6605H75.6431L76.6279 39.692H76.6703L77.6584 36.6605H78.4722L76.8656 41.0819C76.7913 41.2868 76.6967 41.4591 76.5828 41.5988C76.4689 41.7408 76.3314 41.8468 76.1707 41.9166C76.0123 41.9888 75.8274 42.0249 75.6156 42.0249ZM80.4314 40.6454C80.0495 40.6454 79.7189 40.5627 79.4394 40.3974C79.1599 40.2321 78.9448 39.9993 78.7935 39.6989C78.6444 39.3963 78.5701 39.0435 78.5701 38.6407C78.5701 38.2403 78.6433 37.8876 78.7902 37.5825C78.9387 37.2775 79.1472 37.0401 79.4152 36.8701C79.6853 36.6978 80.0017 36.6117 80.3648 36.6117C80.586 36.6117 80.8005 36.6477 81.0074 36.7199C81.2148 36.7921 81.4013 36.9062 81.5664 37.0622C81.7314 37.2182 81.8618 37.4207 81.9576 37.6699C82.0555 37.919 82.1045 38.2193 82.1045 38.5709V38.8433H78.9992V38.274H81.7133L81.3601 38.4626C81.3601 38.2228 81.3232 38.0109 81.2484 37.827C81.1741 37.6431 81.0624 37.4999 80.9133 37.3975C80.7664 37.2927 80.5838 37.2403 80.3648 37.2403C80.1464 37.2403 79.9588 37.2927 79.8025 37.3975C79.649 37.5022 79.5313 37.6408 79.4498 37.813C79.3684 37.9853 79.3277 38.1739 79.3277 38.3788V38.7665C79.3277 39.0342 79.3745 39.2612 79.4674 39.4475C79.5604 39.6337 79.6897 39.7758 79.8553 39.8736C80.0226 39.9713 80.2173 40.0203 80.4385 40.0203C80.5827 40.0203 80.7131 39.9993 80.8297 39.9574C80.948 39.9154 81.0509 39.8526 81.1367 39.7688C81.2231 39.685 81.288 39.5814 81.3326 39.458L82.0517 39.5942C81.9933 39.8037 81.891 39.9876 81.7447 40.146C81.5978 40.3043 81.4129 40.4277 81.189 40.5161C80.9678 40.6023 80.7153 40.6454 80.4314 40.6454ZM82.2893 37.3171V36.6605H85.5756V37.3171H84.308V40.565H83.5641V37.3171H82.2893ZM87.2938 41.6896V39.9085H87.608C87.69 39.834 87.7593 39.7455 87.8176 39.643C87.8759 39.5383 87.9238 39.4149 87.9612 39.2729C88.0003 39.1285 88.0344 38.962 88.0624 38.7735C88.09 38.5849 88.1147 38.3672 88.1356 38.1204L88.2578 36.6605H90.9085V39.9085H91.5094V41.6896H90.7655V40.565H88.0481V41.6896H87.2938ZM88.4256 39.9085H90.168V37.3101H88.9356L88.8514 38.1204C88.8167 38.5325 88.7689 38.8887 88.7084 39.189C88.65 39.4871 88.556 39.7269 88.4256 39.9085ZM93.5907 40.6454C93.2254 40.6454 92.9052 40.5616 92.6301 40.3939C92.3577 40.2263 92.1459 39.9911 91.9946 39.6884C91.8455 39.3858 91.7712 39.0342 91.7712 38.6337C91.7712 38.2286 91.8455 37.8747 91.9946 37.5721C92.1459 37.2671 92.3577 37.0308 92.6301 36.8631C92.9052 36.6955 93.2254 36.6117 93.5907 36.6117C93.9588 36.6117 94.2784 36.6955 94.5513 36.8631C94.8237 37.0308 95.0355 37.2671 95.1868 37.5721C95.3381 37.8747 95.4135 38.2286 95.4135 38.6337C95.4135 39.0342 95.3381 39.3858 95.1868 39.6884C95.0355 39.9911 94.8237 40.2263 94.5513 40.3939C94.2784 40.5616 93.9588 40.6454 93.5907 40.6454ZM93.5907 40.0063C93.8306 40.0063 94.0287 39.9434 94.1844 39.8177C94.3406 39.692 94.4556 39.5255 94.5299 39.3183C94.6069 39.1087 94.6454 38.8805 94.6454 38.6337C94.6454 38.3823 94.6069 38.1518 94.5299 37.9423C94.4556 37.7327 94.3406 37.5651 94.1844 37.4393C94.0287 37.3136 93.8306 37.2508 93.5907 37.2508C93.353 37.2508 93.1566 37.3136 93.0004 37.4393C92.8469 37.5651 92.7313 37.7327 92.6548 37.9423C92.5778 38.1518 92.5393 38.3823 92.5393 38.6337C92.5393 38.8805 92.5778 39.1087 92.6548 39.3183C92.7313 39.5255 92.8469 39.692 93.0004 39.8177C93.1566 39.9434 93.353 40.0063 93.5907 40.0063ZM99.4194 35.3614V40.565H98.6442V36.1507H98.6095L97.3727 36.9644V36.2101L98.6651 35.3614H99.4194ZM101.906 40.6349C101.587 40.6349 101.3 40.5743 101.047 40.4533C100.795 40.3299 100.594 40.1611 100.443 39.9469C100.291 39.7304 100.211 39.4848 100.202 39.21H100.963C100.982 39.4312 101.081 39.6139 101.26 39.7583C101.439 39.9027 101.655 39.9748 101.906 39.9748C102.106 39.9748 102.283 39.9283 102.437 39.8351C102.591 39.742 102.712 39.6151 102.8 39.4544C102.889 39.2915 102.933 39.1052 102.933 38.8957C102.933 38.6862 102.887 38.4987 102.796 38.3334C102.706 38.1658 102.58 38.0342 102.42 37.9388C102.261 37.8433 102.078 37.7956 101.871 37.7956C101.713 37.7956 101.555 37.8235 101.396 37.8794C101.238 37.933 101.11 38.0028 101.012 38.0889L100.289 37.9842L100.582 35.3614H103.443V36.0354H101.239L101.075 37.4918H101.103C101.203 37.3916 101.337 37.3102 101.505 37.2473C101.675 37.1821 101.857 37.1495 102.053 37.1495C102.369 37.1495 102.651 37.2251 102.898 37.3765C103.147 37.5255 103.343 37.7304 103.485 37.9912C103.627 38.2496 103.698 38.5465 103.698 38.8817C103.698 39.2193 103.621 39.5209 103.467 39.7863C103.314 40.0494 103.102 40.2566 102.832 40.4079C102.564 40.5592 102.255 40.6349 101.906 40.6349ZM106.292 35.1169L104.616 41.3474H103.939L105.615 35.1169H106.292ZM108.44 40.6349C108.089 40.6349 107.777 40.5755 107.504 40.4568C107.232 40.3357 107.016 40.1681 106.858 39.9539C106.7 39.7397 106.616 39.4917 106.607 39.21H107.396C107.408 39.3637 107.46 39.4964 107.553 39.6081C107.646 39.7199 107.768 39.8072 107.92 39.8701C108.074 39.9306 108.245 39.9609 108.433 39.9609C108.638 39.9609 108.82 39.9248 108.978 39.8526C109.136 39.7804 109.26 39.6814 109.349 39.5557C109.439 39.4277 109.484 39.2799 109.484 39.1122C109.484 38.9376 109.44 38.7839 109.352 38.6512C109.263 38.5162 109.134 38.4114 108.964 38.3369C108.794 38.2624 108.589 38.2252 108.349 38.2252H107.906V37.5825H108.349C108.54 37.5825 108.709 37.5476 108.856 37.4778C109.003 37.4079 109.117 37.3113 109.198 37.1879C109.282 37.0645 109.324 36.919 109.324 36.7514C109.324 36.5907 109.288 36.451 109.215 36.3322C109.143 36.2112 109.042 36.1181 108.912 36.0529C108.781 35.9854 108.628 35.9516 108.451 35.9516C108.281 35.9516 108.123 35.9819 107.976 36.0424C107.829 36.1029 107.709 36.1902 107.616 36.3044C107.525 36.4161 107.477 36.5523 107.473 36.7129H106.715C106.722 36.4312 106.803 36.1844 106.96 35.9725C107.118 35.7583 107.327 35.5919 107.588 35.4731C107.852 35.3521 108.143 35.2915 108.461 35.2915C108.794 35.2915 109.082 35.3567 109.324 35.4871C109.568 35.6152 109.757 35.7875 109.889 36.004C110.023 36.2182 110.089 36.4522 110.089 36.7059C110.089 37.0017 110.007 37.2508 109.844 37.4533C109.681 37.6536 109.464 37.7897 109.191 37.8619V37.9003C109.536 37.9539 109.802 38.0912 109.991 38.3125C110.182 38.5337 110.277 38.8084 110.277 39.1367C110.277 39.423 110.197 39.6791 110.036 39.905C109.878 40.1308 109.661 40.3089 109.383 40.4393C109.109 40.5697 108.794 40.6349 108.44 40.6349ZM112.747 40.6349C112.346 40.6349 112.003 40.5301 111.716 40.3206C111.432 40.111 111.214 39.8084 111.063 39.4126C110.914 39.0144 110.84 38.5325 110.84 37.9667C110.84 37.4033 110.916 36.9225 111.067 36.5244C111.218 36.1239 111.435 35.8189 111.72 35.6094C112.006 35.3975 112.348 35.2915 112.747 35.2915C113.147 35.2915 113.489 35.3975 113.773 35.6094C114.06 35.8189 114.277 36.1239 114.426 36.5244C114.578 36.9225 114.653 37.4033 114.653 37.9667C114.653 38.5325 114.579 39.0144 114.43 39.4126C114.281 39.8084 114.064 40.111 113.78 40.3206C113.496 40.5301 113.151 40.6349 112.747 40.6349ZM112.747 39.9644C112.991 39.9644 113.197 39.8863 113.364 39.7304C113.532 39.5744 113.66 39.3474 113.749 39.0493C113.837 38.749 113.882 38.3881 113.882 37.9667C113.882 37.543 113.837 37.1821 113.749 36.8841C113.66 36.5837 113.532 36.3556 113.364 36.1995C113.197 36.0413 112.991 35.9621 112.747 35.9621C112.386 35.9621 112.106 36.1379 111.908 36.4894C111.713 36.8387 111.615 37.3311 111.615 37.9667C111.615 38.3881 111.659 38.749 111.747 39.0493C111.836 39.3474 111.964 39.5744 112.132 39.7304C112.302 39.8863 112.507 39.9644 112.747 39.9644Z" fill="#BDBDBD"/>
    <path d="M193.643 31.762C193.643 28.2676 190.81 25.4348 187.316 25.4348C183.822 25.4348 180.989 28.2676 180.989 31.762C180.989 35.2563 183.822 38.0891 187.316 38.0891C190.81 38.0891 193.643 35.2563 193.643 31.762Z" stroke="#E0E0E0"/>
    <path d="M191.718 54.0444H16.2082C12.7139 54.0444 9.8811 56.8772 9.8811 60.3716V77.9775C9.8811 81.4719 12.7139 84.3047 16.2082 84.3047H191.718C195.212 84.3047 198.045 81.4719 198.045 77.9775V60.3716C198.045 56.8772 195.212 54.0444 191.718 54.0444Z" stroke="#E0E0E0"/>
    <mask id="mask1_1_6" style="mask-type:luminance" maskUnits="userSpaceOnUse" x="16" y="64" width="29" height="10">
        <path d="M44.2677 64.7732H16.7584V73.5762H44.2677V64.7732Z" fill="white"/>
    </mask>
    <g mask="url(#mask1_1_6)">
        <path d="M34.6819 64.7732C32.7312 64.7732 30.9798 65.7778 30.9798 67.621C30.9798 69.7441 34.0737 69.8894 34.0737 70.9457C34.0737 71.3908 33.5493 71.7947 32.6683 71.7947C31.4098 71.7947 30.4659 71.2357 30.4659 71.2357L30.0674 73.0997C30.0674 73.0997 31.1476 73.5762 32.5949 73.5762C34.7344 73.5762 36.4124 72.5303 36.4124 70.6453C36.4124 68.4083 33.3081 68.2636 33.3081 67.2793C33.3081 66.9272 33.738 66.5442 34.619 66.5442C35.6153 66.5442 36.4334 66.9481 36.4334 66.9481L36.8319 65.1462C36.8214 65.1462 35.93 64.7732 34.6819 64.7732ZM16.8109 64.908L16.7584 65.177C16.7584 65.177 17.5764 65.3223 18.3211 65.6227C19.2755 65.9643 19.3384 66.1608 19.5062 66.772L21.2577 73.4309H23.6069L27.2042 64.908H24.8654L22.5476 70.7075L21.6037 65.7883C21.5198 65.2287 21.0794 64.908 20.534 64.908H16.8109ZM28.1481 64.908L26.3127 73.4309H28.5466L30.3715 64.908H28.1481ZM40.5865 64.908C40.0516 64.908 39.7685 65.1875 39.5587 65.6843L36.2866 73.4309H38.6253L39.0763 72.1369H41.9289L42.2017 73.4309H44.2677L42.4743 64.908H40.5865ZM40.8907 67.2171L41.5829 70.4176H39.7265L40.8907 67.2171Z" fill="#191919"/>
    </g>
    <path d="M53.1911 64.7213L53.2511 63.402L52.1419 64.1194L51.7986 63.5263L52.976 62.925L51.7986 62.3231L52.1419 61.7212L53.2511 62.4392L53.1911 61.1193H53.87L53.8101 62.4392L54.9187 61.7212L55.2626 62.3231L54.0852 62.925L55.2626 63.5263L54.9187 64.1194L53.8101 63.402L53.87 64.7213H53.1911ZM57.4121 64.7213L57.4721 63.402L56.3629 64.1194L56.0191 63.5263L57.197 62.925L56.0191 62.3231L56.3629 61.7212L57.4721 62.4392L57.4121 61.1193H58.0911L58.0311 62.4392L59.1397 61.7212L59.4836 62.3231L58.3062 62.925L59.4836 63.5263L59.1397 64.1194L58.0311 63.402L58.0911 64.7213H57.4121ZM62.4496 67.6098C62.0023 67.6098 61.6073 67.5328 61.2634 67.3776C60.9223 67.223 60.6544 67.0112 60.4596 66.7416C60.2676 66.4693 60.1713 66.1601 60.1713 65.8135C60.1713 65.5466 60.2274 65.299 60.3391 65.0696C60.4536 64.8402 60.6087 64.6498 60.8035 64.498C60.9982 64.3461 61.2172 64.2487 61.4609 64.2058V64.1668C61.1429 64.0897 60.8866 63.9192 60.6918 63.6556C60.4998 63.3888 60.4035 63.0851 60.4035 62.744C60.4035 62.415 60.491 62.1212 60.6659 61.8631C60.8436 61.6051 61.0857 61.4032 61.3922 61.2568C61.7019 61.1083 62.054 61.0334 62.4496 61.0334C62.8392 61.0334 63.1874 61.1083 63.4939 61.2568C63.8036 61.4032 64.0457 61.6051 64.2207 61.8631C64.3984 62.1212 64.487 62.415 64.487 62.744C64.487 63.0851 64.3896 63.3888 64.1948 63.6556C64.0028 63.9192 63.7503 64.0897 63.4383 64.1668V64.2058C63.6787 64.2487 63.8966 64.3461 64.0914 64.498C64.2862 64.6498 64.4413 64.8402 64.5557 65.0696C64.6702 65.299 64.728 65.5466 64.728 65.8135C64.728 66.1601 64.63 66.4693 64.4353 66.7416C64.2405 67.0112 63.9709 67.223 63.6276 67.3776C63.2865 67.5328 62.8936 67.6098 62.4496 67.6098ZM62.4496 66.8192C62.7132 66.8192 62.9426 66.7763 63.1374 66.6899C63.3321 66.6013 63.4823 66.4764 63.5885 66.3163C63.6947 66.1557 63.7475 65.9692 63.7475 65.7573C63.7475 65.534 63.6903 65.3376 63.5759 65.1686C63.4642 64.9964 63.3107 64.8616 63.1159 64.7643C62.9211 64.6641 62.6989 64.6141 62.4496 64.6141C62.1976 64.6141 61.9726 64.6625 61.7746 64.7604C61.5798 64.8578 61.4268 64.992 61.3146 65.1642C61.2029 65.3359 61.1473 65.534 61.1473 65.7573C61.1473 65.9692 61.2002 66.1557 61.3063 66.3163C61.412 66.4764 61.5627 66.6013 61.7575 66.6899C61.9523 66.7763 62.1828 66.8192 62.4496 66.8192ZM62.4496 63.8443C62.6615 63.8443 62.8491 63.8014 63.0125 63.7156C63.1786 63.6298 63.309 63.5109 63.4037 63.3591C63.501 63.2072 63.55 63.0295 63.55 62.826C63.55 62.6251 63.5027 62.4507 63.4081 62.3016C63.3162 62.1525 63.1874 62.0364 63.0213 61.9534C62.8579 61.8703 62.6675 61.8285 62.4496 61.8285C62.229 61.8285 62.0353 61.8703 61.8692 61.9534C61.703 62.0364 61.5743 62.1525 61.4824 62.3016C61.3905 62.4507 61.3449 62.6251 61.3449 62.826C61.3449 63.0295 61.3922 63.2072 61.4868 63.3591C61.5814 63.5109 61.7102 63.6298 61.8736 63.7156C62.0397 63.8014 62.2318 63.8443 62.4496 63.8443ZM67.6247 67.6098C67.1779 67.6098 66.7823 67.5328 66.4385 67.3776C66.0974 67.223 65.8294 67.0112 65.6347 66.7416C65.4426 66.4693 65.3464 66.1601 65.3464 65.8135C65.3464 65.5466 65.4025 65.299 65.5142 65.0696C65.6292 64.8402 65.7838 64.6498 65.9785 64.498C66.1733 64.3461 66.3928 64.2487 66.636 64.2058V64.1668C66.318 64.0897 66.0616 63.9192 65.8668 63.6556C65.6748 63.3888 65.5785 63.0851 65.5785 62.744C65.5785 62.415 65.666 62.1212 65.841 61.8631C66.0187 61.6051 66.2608 61.4032 66.5672 61.2568C66.877 61.1083 67.2291 61.0334 67.6247 61.0334C68.0142 61.0334 68.3625 61.1083 68.6695 61.2568C68.9787 61.4032 69.2208 61.6051 69.3957 61.8631C69.5734 62.1212 69.662 62.415 69.662 62.744C69.662 63.0851 69.5646 63.3888 69.3699 63.6556C69.1779 63.9192 68.9259 64.0897 68.6134 64.1668V64.2058C68.8543 64.2487 69.0717 64.3461 69.267 64.498C69.4618 64.6498 69.6164 64.8402 69.7308 65.0696C69.8458 65.299 69.903 65.5466 69.903 65.8135C69.903 66.1601 69.8056 66.4693 69.6103 66.7416C69.4155 67.0112 69.1465 67.223 68.8026 67.3776C68.4615 67.5328 68.0687 67.6098 67.6247 67.6098ZM67.6247 66.8192C67.8882 66.8192 68.1176 66.7763 68.3124 66.6899C68.5072 66.6013 68.6579 66.4764 68.7636 66.3163C68.8697 66.1557 68.9226 65.9692 68.9226 65.7573C68.9226 65.534 68.8653 65.3376 68.7509 65.1686C68.6392 64.9964 68.4857 64.8616 68.291 64.7643C68.0962 64.6641 67.8739 64.6141 67.6247 64.6141C67.3727 64.6141 67.1477 64.6625 66.9502 64.7604C66.7548 64.8578 66.6019 64.992 66.4902 65.1642C66.3785 65.3359 66.3224 65.534 66.3224 65.7573C66.3224 65.9692 66.3752 66.1557 66.4814 66.3163C66.5876 66.4764 66.7378 66.6013 66.9325 66.6899C67.1273 66.7763 67.3584 66.8192 67.6247 66.8192ZM67.6247 63.8443C67.8371 63.8443 68.0247 63.8014 68.1881 63.7156C68.3542 63.6298 68.4846 63.5109 68.5793 63.3591C68.6766 63.2072 68.7251 63.0295 68.7251 62.826C68.7251 62.6251 68.6777 62.4507 68.5831 62.3016C68.4918 62.1525 68.3625 62.0364 68.1963 61.9534C68.0329 61.8703 67.8426 61.8285 67.6247 61.8285C67.4041 61.8285 67.2109 61.8703 67.0442 61.9534C66.8781 62.0364 66.7493 62.1525 66.6575 62.3016C66.5661 62.4507 66.5199 62.6251 66.5199 62.826C66.5199 63.0295 66.5672 63.2072 66.6619 63.3591C66.7565 63.5109 66.8852 63.6298 67.0486 63.7156C67.2148 63.8014 67.4068 63.8443 67.6247 63.8443Z" fill="#303030"/>
    <path d="M51.4481 79.2347V77.314H51.7903C51.9064 77.2138 52.0148 77.0741 52.1149 76.8947C52.2173 76.7131 52.3048 76.4678 52.3768 76.158C52.4489 75.8483 52.4979 75.4527 52.5237 74.9707L52.6492 72.7738H55.8518V77.314H56.4422V79.2275H55.6912V77.9775H52.1991V79.2347H51.4481ZM52.7157 77.314H55.1008V73.4478H53.3551L53.278 74.9707C53.2549 75.336 53.2175 75.6667 53.1664 75.9621C53.1174 76.2559 53.0547 76.514 52.9776 76.7379C52.9006 76.9613 52.8137 77.1533 52.7157 77.314ZM58.5901 78.0578C58.2083 78.0578 57.8776 77.9753 57.5981 77.8097C57.3186 77.6446 57.1035 77.4119 56.9522 77.1115C56.8031 76.8089 56.7283 76.4562 56.7283 76.0529C56.7283 75.6529 56.802 75.2997 56.9483 74.9949C57.0974 74.6901 57.3059 74.4524 57.5739 74.2824C57.8435 74.1102 58.1604 74.0238 58.5235 74.0238C58.7447 74.0238 58.9587 74.0602 59.1661 74.1322C59.3735 74.2043 59.5595 74.3187 59.7251 74.4744C59.8902 74.6307 60.0206 74.8332 60.1163 75.0824C60.2137 75.3316 60.2626 75.6315 60.2626 75.9831V76.2559H57.1579V75.6865H59.8715L59.5188 75.8752C59.5188 75.6353 59.4819 75.4235 59.4071 75.2392C59.3328 75.0554 59.2211 74.9124 59.072 74.8101C58.9251 74.705 58.7425 74.6527 58.5235 74.6527C58.3045 74.6527 58.1175 74.705 57.9612 74.8101C57.8077 74.9146 57.69 75.0532 57.6086 75.2254C57.5271 75.3977 57.4864 75.5864 57.4864 75.791V76.1789C57.4864 76.4469 57.5332 76.6735 57.6262 76.86C57.7191 77.046 57.8484 77.188 58.0135 77.2859C58.1813 77.3838 58.3755 77.4328 58.5967 77.4328C58.7414 77.4328 58.8718 77.4119 58.9879 77.3701C59.1067 77.3277 59.209 77.265 59.2954 77.1814C59.3818 77.0972 59.4467 76.9937 59.4907 76.8705L60.2104 77.0064C60.1521 77.216 60.0497 77.4003 59.9028 77.5582C59.7565 77.7167 59.5711 77.8399 59.3477 77.9285C59.1265 78.0149 58.874 78.0578 58.5901 78.0578ZM61.1501 79.4371C61.0357 79.4399 60.9322 79.4316 60.8392 79.4129C60.7485 79.3964 60.6786 79.3766 60.6296 79.3535L60.8145 78.7351L60.8667 78.7494C61.0604 78.7984 61.2233 78.7945 61.3559 78.7389C61.4912 78.685 61.604 78.5354 61.6948 78.2883L61.7889 78.0297L60.3639 74.0728H61.1776L62.1624 77.1043H62.2048L63.1929 74.0728H64.0067L62.4001 78.4941C62.3258 78.6993 62.2312 78.8715 62.1173 79.0113C62.0034 79.1532 61.8659 79.2594 61.7052 79.3293C61.5468 79.4014 61.3619 79.4371 61.1501 79.4371ZM65.9241 78.0578C65.5494 78.0578 65.2253 77.9714 64.953 77.7992C64.6806 77.627 64.471 77.3893 64.3247 77.0867C64.1778 76.7841 64.1046 76.4375 64.1046 76.0463C64.1046 75.648 64.1789 75.2975 64.328 74.9949C64.4793 74.6901 64.69 74.4524 64.9601 74.2824C65.2325 74.1102 65.5516 74.0238 65.9169 74.0238C66.2151 74.0238 66.4792 74.0789 66.7097 74.1884C66.9424 74.2951 67.1301 74.448 67.272 74.6456C67.4162 74.8436 67.5014 75.0741 67.5267 75.3371H66.7867C66.7609 75.2139 66.7108 75.1011 66.6365 74.9982C66.5645 74.8959 66.4687 74.8145 66.3499 74.7539C66.2311 74.6934 66.0902 74.6632 65.9274 74.6632C65.7155 74.6632 65.5307 74.7193 65.3722 74.831C65.216 74.9405 65.0938 75.0973 65.0052 75.3025C64.9172 75.5071 64.8727 75.7492 64.8727 76.0287C64.8727 76.3104 64.9156 76.5563 65.002 76.7654C65.0883 76.975 65.2105 77.1368 65.3689 77.2512C65.5296 77.3629 65.7155 77.4185 65.9274 77.4185C66.1463 77.4185 66.3323 77.358 66.4864 77.2369C66.6421 77.1159 66.7422 76.9508 66.7867 76.7412H67.5267C67.5014 76.9948 67.42 77.221 67.2825 77.4185C67.1449 77.6166 66.9612 77.7728 66.7306 77.8867C66.5001 78.0006 66.2311 78.0578 65.9241 78.0578ZM67.5933 74.7297V74.0728H70.8796V74.7297H69.612V77.9775H68.8681V74.7297H67.5933ZM71.3896 77.9775V74.0728H73.0033C73.4429 74.0756 73.7923 74.1707 74.0509 74.3595C74.3094 74.5454 74.4371 74.7996 74.4349 75.1209C74.4371 75.3487 74.365 75.5292 74.2187 75.6623C74.0718 75.7921 73.8797 75.8818 73.6421 75.9308C73.8143 75.9495 73.9727 76.0007 74.1169 76.0848C74.2638 76.1685 74.3815 76.2813 74.4701 76.4232C74.5609 76.563 74.606 76.7297 74.606 76.9228C74.606 77.1302 74.5515 77.314 74.442 77.4746C74.3347 77.6331 74.1812 77.7563 73.981 77.8449C73.7807 77.9335 73.5375 77.9775 73.2509 77.9775H71.3896ZM72.1021 77.3382H73.2509C73.4374 77.3409 73.5837 77.2975 73.691 77.2094C73.7983 77.1181 73.8506 76.9959 73.8484 76.8424C73.8506 76.6609 73.7983 76.5189 73.691 76.4166C73.5837 76.3115 73.4374 76.2592 73.2509 76.2592H72.1021V77.3382ZM72.1021 75.7041H73.0099C73.2245 75.7014 73.3917 75.6562 73.5128 75.5677C73.6366 75.4769 73.6971 75.3547 73.6943 75.2012C73.6971 75.0499 73.6366 74.9322 73.5128 74.848C73.3895 74.7622 73.2195 74.7193 73.0033 74.7193H72.1021V75.7041ZM75.6156 79.4371C75.5011 79.4399 75.3977 79.4316 75.3047 79.4129C75.2139 79.3964 75.1441 79.3766 75.0951 79.3535L75.28 78.7351L75.3322 78.7494C75.5259 78.7984 75.6888 78.7945 75.8214 78.7389C75.9567 78.685 76.0695 78.5354 76.1603 78.2883L76.2543 78.0297L74.8294 74.0728H75.6431L76.6279 77.1043H76.6703L77.6584 74.0728H78.4722L76.8656 78.4941C76.7913 78.6993 76.6967 78.8715 76.5828 79.0113C76.4689 79.1532 76.3314 79.2594 76.1707 79.3293C76.0123 79.4014 75.8274 79.4371 75.6156 79.4371ZM80.4314 78.0578C80.0495 78.0578 79.7189 77.9753 79.4394 77.8097C79.1599 77.6446 78.9448 77.4119 78.7935 77.1115C78.6444 76.8089 78.5701 76.4562 78.5701 76.0529C78.5701 75.6529 78.6433 75.2997 78.7902 74.9949C78.9387 74.6901 79.1472 74.4524 79.4152 74.2824C79.6853 74.1102 80.0017 74.0238 80.3648 74.0238C80.586 74.0238 80.8005 74.0602 81.0074 74.1322C81.2148 74.2043 81.4013 74.3187 81.5664 74.4744C81.7314 74.6307 81.8618 74.8332 81.9576 75.0824C82.0555 75.3316 82.1045 75.6315 82.1045 75.9831V76.2559H78.9992V75.6865H81.7133L81.3601 75.8752C81.3601 75.6353 81.3232 75.4235 81.2484 75.2392C81.1741 75.0554 81.0624 74.9124 80.9133 74.8101C80.7664 74.705 80.5838 74.6527 80.3648 74.6527C80.1464 74.6527 79.9588 74.705 79.8025 74.8101C79.649 74.9146 79.5313 75.0532 79.4498 75.2254C79.3684 75.3977 79.3277 75.5864 79.3277 75.791V76.1789C79.3277 76.4469 79.3745 76.6735 79.4674 76.86C79.5604 77.046 79.6897 77.188 79.8553 77.2859C80.0226 77.3838 80.2173 77.4328 80.4385 77.4328C80.5827 77.4328 80.7131 77.4119 80.8297 77.3701C80.948 77.3277 81.0509 77.265 81.1367 77.1814C81.2231 77.0972 81.288 76.9937 81.3326 76.8705L82.0517 77.0064C81.9933 77.216 81.891 77.4003 81.7447 77.5582C81.5978 77.7167 81.4129 77.8399 81.189 77.9285C80.9678 78.0149 80.7153 78.0578 80.4314 78.0578ZM82.2893 74.7297V74.0728H85.5756V74.7297H84.308V77.9775H83.5641V74.7297H82.2893ZM87.2938 79.1021V77.3211H87.608C87.69 77.2463 87.7593 77.1577 87.8176 77.0554C87.8759 76.9508 87.9238 76.8276 87.9612 76.6851C88.0003 76.5409 88.0344 76.3742 88.0624 76.1861C88.09 75.9974 88.1147 75.7795 88.1356 75.533L88.2578 74.0728H90.9085V77.3211H91.5094V79.1021H90.7655V77.9775H88.0481V79.1021H87.2938ZM88.4256 77.3211H90.168V74.7226H88.9356L88.8514 75.533C88.8167 75.9451 88.7689 76.3011 88.7084 76.6015C88.65 76.8997 88.556 77.1395 88.4256 77.3211ZM93.5907 78.0578C93.2254 78.0578 92.9052 77.9742 92.6301 77.8064C92.3577 77.6386 92.1459 77.4036 91.9946 77.101C91.8455 76.7984 91.7712 76.4469 91.7712 76.0463C91.7712 75.6408 91.8455 75.2871 91.9946 74.9845C92.1459 74.6797 92.3577 74.4431 92.6301 74.2753C92.9052 74.108 93.2254 74.0238 93.5907 74.0238C93.9588 74.0238 94.2784 74.108 94.5513 74.2753C94.8237 74.4431 95.0355 74.6797 95.1868 74.9845C95.3381 75.2871 95.4135 75.6408 95.4135 76.0463C95.4135 76.4469 95.3381 76.7984 95.1868 77.101C95.0355 77.4036 94.8237 77.6386 94.5513 77.8064C94.2784 77.9742 93.9588 78.0578 93.5907 78.0578ZM93.5907 77.4185C93.8306 77.4185 94.0287 77.3558 94.1844 77.2303C94.3406 77.1043 94.4556 76.9382 94.5299 76.7308C94.6069 76.5211 94.6454 76.2928 94.6454 76.0463C94.6454 75.7949 94.6069 75.5644 94.5299 75.3547C94.4556 75.1451 94.3406 74.9773 94.1844 74.8519C94.0287 74.7259 93.8306 74.6632 93.5907 74.6632C93.353 74.6632 93.1566 74.7259 93.0004 74.8519C92.8469 74.9773 92.7313 75.1451 92.6548 75.3547C92.5778 75.5644 92.5393 75.7949 92.5393 76.0463C92.5393 76.2928 92.5778 76.5211 92.6548 76.7308C92.7313 76.9382 92.8469 77.1043 93.0004 77.2303C93.1566 77.3558 93.353 77.4185 93.5907 77.4185ZM99.4194 72.7738V77.9775H98.6442V73.5633H98.6095L97.3727 74.3771V73.6222L98.6651 72.7738H99.4194ZM101.906 78.0474C101.587 78.0474 101.3 77.9868 101.047 77.8658C100.795 77.7425 100.594 77.5736 100.443 77.3591C100.291 77.1428 100.211 76.8969 100.202 76.6224H100.963C100.982 76.8435 101.081 77.0262 101.26 77.1709C101.439 77.3151 101.655 77.3871 101.906 77.3871C102.106 77.3871 102.283 77.3409 102.437 77.2474C102.591 77.1544 102.712 77.0273 102.8 76.8667C102.889 76.7038 102.933 76.5178 102.933 76.3082C102.933 76.0986 102.887 75.911 102.796 75.7459C102.706 75.5781 102.58 75.4466 102.42 75.3514C102.261 75.2557 102.078 75.2078 101.871 75.2078C101.713 75.2078 101.555 75.2359 101.396 75.292C101.238 75.3454 101.11 75.4153 101.012 75.5016L100.289 75.3966L100.582 72.7738H103.443V73.4478H101.239L101.075 74.9041H101.103C101.203 74.804 101.337 74.7226 101.505 74.6599C101.675 74.5944 101.857 74.5619 102.053 74.5619C102.369 74.5619 102.651 74.6379 102.898 74.7892C103.147 74.9377 103.343 75.1429 103.485 75.4037C103.627 75.6623 103.698 75.9588 103.698 76.2939C103.698 76.6317 103.621 76.9332 103.467 77.1984C103.314 77.462 103.102 77.6688 102.832 77.8201C102.564 77.9714 102.255 78.0474 101.906 78.0474ZM106.292 72.5295L104.616 78.7598H103.939L105.615 72.5295H106.292ZM108.44 78.0474C108.089 78.0474 107.777 77.9879 107.504 77.8691C107.232 77.748 107.016 77.5802 106.858 77.3662C106.7 77.1522 106.616 76.9041 106.607 76.6224H107.396C107.408 76.7759 107.46 76.909 107.553 77.0207C107.646 77.1324 107.768 77.2199 107.92 77.2826C108.074 77.3431 108.245 77.3734 108.433 77.3734C108.638 77.3734 108.82 77.3371 108.978 77.265C109.136 77.1929 109.26 77.0939 109.349 76.9684C109.439 76.8402 109.484 76.6922 109.484 76.5244C109.484 76.35 109.44 76.1965 109.352 76.0634C109.263 75.9286 109.134 75.824 108.964 75.7492C108.794 75.6749 108.589 75.6375 108.349 75.6375H107.906V74.9949H108.349C108.54 74.9949 108.709 74.9603 108.856 74.8904C109.003 74.8205 109.117 74.7237 109.198 74.6004C109.282 74.4772 109.324 74.3314 109.324 74.1636C109.324 74.0029 109.288 73.8632 109.215 73.7449C109.143 73.6239 109.042 73.5303 108.912 73.4654C108.781 73.3977 108.628 73.3642 108.451 73.3642C108.281 73.3642 108.123 73.3944 107.976 73.4549C107.829 73.5155 107.709 73.6029 107.616 73.7168C107.525 73.8285 107.477 73.965 107.473 74.1256H106.715C106.722 73.8434 106.803 73.5969 106.96 73.3851C107.118 73.1711 107.327 73.0043 107.588 72.8855C107.852 72.7645 108.143 72.7039 108.461 72.7039C108.794 72.7039 109.082 72.7694 109.324 72.8998C109.568 73.0275 109.757 73.1997 109.889 73.4164C110.023 73.6305 110.089 73.8648 110.089 74.1185C110.089 74.4139 110.007 74.6632 109.844 74.8656C109.681 75.0659 109.464 75.2023 109.191 75.2744V75.3129C109.536 75.3663 109.802 75.5038 109.991 75.725C110.182 75.9462 110.277 76.2207 110.277 76.5492C110.277 76.8353 110.197 77.0917 110.036 77.3173C109.878 77.5434 109.661 77.7216 109.383 77.8515C109.109 77.9819 108.794 78.0474 108.44 78.0474ZM112.747 78.0474C112.346 78.0474 112.003 77.9428 111.716 77.7332C111.432 77.5236 111.214 77.221 111.063 76.8248C110.914 76.4271 110.84 75.9451 110.84 75.3789C110.84 74.8156 110.916 74.3347 111.067 73.9369C111.218 73.5364 111.435 73.2316 111.72 73.022C112.006 72.8101 112.348 72.7039 112.747 72.7039C113.147 72.7039 113.489 72.8101 113.773 73.022C114.06 73.2316 114.277 73.5364 114.426 73.9369C114.578 74.3347 114.653 74.8156 114.653 75.3789C114.653 75.9451 114.579 76.4271 114.43 76.8248C114.281 77.221 114.064 77.5236 113.78 77.7332C113.496 77.9428 113.151 78.0474 112.747 78.0474ZM112.747 77.3767C112.991 77.3767 113.197 77.2985 113.364 77.1428C113.532 76.9866 113.66 76.7599 113.749 76.4617C113.837 76.1613 113.882 75.8004 113.882 75.3789C113.882 74.9553 113.837 74.5944 113.749 74.2967C113.66 73.9963 113.532 73.768 113.364 73.6118C113.197 73.4539 112.991 73.3746 112.747 73.3746C112.386 73.3746 112.106 73.5501 111.908 73.9017C111.713 74.2511 111.615 74.7435 111.615 75.3789C111.615 75.8004 111.659 76.1613 111.747 76.4617C111.836 76.7599 111.964 76.9866 112.132 77.1428C112.302 77.2985 112.507 77.3767 112.747 77.3767Z" fill="#BDBDBD"/>
    <path d="M193.643 69.1745C193.643 65.6802 190.81 62.8474 187.316 62.8474C183.822 62.8474 180.989 65.6802 180.989 69.1745C180.989 72.6689 183.822 75.5017 187.316 75.5017C190.81 75.5017 193.643 72.6689 193.643 69.1745Z" stroke="#E0E0E0"/>
    <path d="M191.718 91.457H16.2082C12.7139 91.457 9.8811 94.2898 9.8811 97.7842V115.39C9.8811 118.884 12.7139 121.717 16.2082 121.717H191.718C195.212 121.717 198.045 118.884 198.045 115.39V97.7842C198.045 94.2898 195.212 91.457 191.718 91.457Z" stroke="#E0E0E0"/>
    <path d="M25.3779 104.386V110.255M28.6791 104.386V110.255M32.3469 104.386V110.255M35.648 104.386V110.255M23.9108 111.429V112.016C23.9108 112.427 23.9108 112.632 23.9907 112.789C24.0611 112.927 24.1733 113.039 24.3113 113.11C24.4682 113.189 24.6737 113.189 25.0845 113.189H35.9415C36.3523 113.189 36.5578 113.189 36.7147 113.11C36.8527 113.039 36.9649 112.927 37.0353 112.789C37.1152 112.632 37.1152 112.427 37.1152 112.016V111.429C37.1152 111.018 37.1152 110.813 37.0353 110.656C36.9649 110.518 36.8527 110.405 36.7147 110.335C36.5578 110.255 36.3523 110.255 35.9415 110.255H25.0845C24.6737 110.255 24.4682 110.255 24.3113 110.335C24.1733 110.405 24.0611 110.518 23.9907 110.656C23.9108 110.813 23.9108 111.018 23.9108 111.429ZM30.2584 100.042L24.8299 101.248C24.5019 101.321 24.3379 101.357 24.2156 101.446C24.1076 101.523 24.0228 101.629 23.9703 101.751C23.9108 101.89 23.9108 102.058 23.9108 102.394V103.213C23.9108 103.624 23.9108 103.829 23.9907 103.986C24.0611 104.124 24.1733 104.236 24.3113 104.307C24.4682 104.386 24.6737 104.386 25.0845 104.386H35.9415C36.3523 104.386 36.5578 104.386 36.7147 104.307C36.8527 104.236 36.9649 104.124 37.0353 103.986C37.1152 103.829 37.1152 103.624 37.1152 103.213V102.394C37.1152 102.058 37.1152 101.89 37.0557 101.751C37.0032 101.629 36.9184 101.523 36.8104 101.446C36.6881 101.357 36.5241 101.321 36.1961 101.248L30.7676 100.042C30.6726 100.021 30.6251 100.01 30.5771 100.006C30.5345 100.002 30.4915 100.002 30.4489 100.006C30.4009 100.01 30.3534 100.021 30.2584 100.042Z" stroke="#303030" stroke-width="2" stroke-linecap="round" stroke-linejoin="round"/>
    <path d="M54.6177 109.974C54.0675 109.974 53.5751 109.843 53.1394 109.579C52.7036 109.315 52.3598 108.938 52.1078 108.448C51.8558 107.955 51.7292 107.369 51.7292 106.691C51.7292 106.006 51.8558 105.418 52.1078 104.928C52.3598 104.435 52.7036 104.057 53.1394 103.793C53.5751 103.53 54.0675 103.398 54.6177 103.398C55.174 103.398 55.668 103.53 56.101 103.793C56.5335 104.057 56.8746 104.435 57.1238 104.928C57.3764 105.418 57.5024 106.006 57.5024 106.691C57.5024 107.372 57.3764 107.958 57.1238 108.448C56.8746 108.938 56.5335 109.315 56.101 109.579C55.668 109.843 55.174 109.974 54.6177 109.974ZM54.6177 109.093C54.9874 109.093 55.317 109.001 55.6064 108.818C55.8958 108.634 56.1236 108.364 56.2903 108.006C56.4592 107.647 56.5434 107.209 56.5434 106.691C56.5434 106.169 56.4592 105.729 56.2903 105.371C56.1236 105.01 55.8958 104.737 55.6064 104.554C55.317 104.37 54.9874 104.279 54.6177 104.279C54.2513 104.279 53.9217 104.37 53.6296 104.554C53.3402 104.737 53.1108 105.01 52.9419 105.371C52.7724 105.729 52.6882 106.169 52.6882 106.691C52.6882 107.209 52.7724 107.647 52.9419 108.006C53.1108 108.364 53.3402 108.634 53.6296 108.818C53.9217 109.001 54.2513 109.093 54.6177 109.093ZM58.2633 109.888V105.083H62.1745V109.888H61.259V105.891H59.1656V109.888H58.2633ZM62.6862 109.888L62.6818 109.08H62.8491C63.0301 109.077 63.1715 109.024 63.2749 108.921C63.3811 108.815 63.4598 108.627 63.5115 108.358C63.566 108.089 63.6017 107.707 63.6188 107.215L63.7046 105.083H67.053V109.888H66.1375V105.891H64.5645L64.487 107.528C64.4699 107.924 64.4308 108.269 64.3709 108.564C64.3109 108.859 64.2218 109.106 64.1046 109.304C63.9868 109.499 63.8366 109.645 63.6529 109.742C63.4697 109.839 63.2463 109.888 62.9828 109.888H62.6862ZM69.3352 109.992C69.0315 109.992 68.7564 109.936 68.5099 109.824C68.264 109.709 68.0687 109.543 67.9256 109.325C67.7826 109.108 67.7105 108.842 67.7105 108.53C67.7105 108.257 67.7622 108.036 67.8657 107.864C67.9713 107.689 68.1132 107.55 68.2909 107.447C68.4687 107.344 68.6662 107.266 68.884 107.215C69.1019 107.163 69.3253 107.123 69.5547 107.094C69.8441 107.063 70.0774 107.036 70.2551 107.012C70.4328 106.99 70.5621 106.954 70.6424 106.905C70.7255 106.853 70.7668 106.772 70.7668 106.66V106.639C70.7668 106.367 70.6892 106.156 70.5346 106.007C70.3828 105.858 70.1566 105.783 69.8557 105.783C69.5432 105.783 69.2956 105.852 69.1118 105.99C68.9314 106.124 68.807 106.278 68.7382 106.45L67.8568 106.248C67.963 105.956 68.116 105.72 68.3168 105.543C68.5204 105.362 68.7526 105.23 69.0133 105.147C69.2769 105.064 69.552 105.022 69.8386 105.022C70.0306 105.022 70.2337 105.046 70.4488 105.091C70.6639 105.134 70.8658 105.216 71.0551 105.337C71.2465 105.454 71.4028 105.623 71.5233 105.843C71.6438 106.064 71.7038 106.349 71.7038 106.699V109.888H70.7882V109.231H70.7541C70.6964 109.348 70.6061 109.466 70.4829 109.583C70.3629 109.701 70.2078 109.798 70.0191 109.876C69.8298 109.953 69.602 109.992 69.3352 109.992ZM69.5377 109.243C69.7985 109.243 70.0202 109.193 70.2039 109.093C70.3872 108.99 70.5275 108.855 70.6248 108.689C70.7222 108.523 70.7712 108.347 70.7712 108.16V107.537C70.7365 107.569 70.6722 107.599 70.5775 107.628C70.4829 107.656 70.3756 107.68 70.2551 107.7C70.1352 107.721 70.0174 107.739 69.903 107.756C69.788 107.771 69.6923 107.782 69.6147 107.791C69.4342 107.816 69.2697 107.856 69.1206 107.911C68.9715 107.963 68.851 108.04 68.7597 108.143C68.6706 108.243 68.626 108.377 68.626 108.543C68.626 108.775 68.7124 108.95 68.884 109.067C69.0563 109.185 69.2741 109.243 69.5377 109.243ZM72.0047 105.891V105.083H76.0497V105.891H74.4893V109.888H73.5738V105.891H72.0047ZM77.846 109.992C77.5423 109.992 77.2672 109.936 77.0207 109.824C76.7743 109.709 76.5795 109.543 76.4364 109.325C76.2928 109.108 76.2213 108.842 76.2213 108.53C76.2213 108.257 76.273 108.036 76.3759 107.864C76.4821 107.689 76.6241 107.55 76.8018 107.447C76.9795 107.344 77.177 107.266 77.3949 107.215C77.6127 107.163 77.8361 107.123 78.0655 107.094C78.3549 107.063 78.5882 107.036 78.7659 107.012C78.9436 106.99 79.0724 106.954 79.1527 106.905C79.2358 106.853 79.2776 106.772 79.2776 106.66V106.639C79.2776 106.367 79.2 106.156 79.0454 106.007C78.8936 105.858 78.6669 105.783 78.3665 105.783C78.054 105.783 77.8059 105.852 77.6226 105.99C77.4422 106.124 77.3173 106.278 77.2485 106.45L76.3677 106.248C76.4733 105.956 76.6268 105.72 76.8276 105.543C77.0306 105.362 77.2628 105.23 77.5236 105.147C77.7872 105.064 78.0623 105.022 78.3489 105.022C78.5409 105.022 78.7445 105.046 78.9596 105.091C79.1742 105.134 79.3761 105.216 79.5654 105.337C79.7574 105.454 79.9136 105.623 80.0341 105.843C80.1546 106.064 80.2146 106.349 80.2146 106.699V109.888H79.2991V109.231H79.2644C79.2072 109.348 79.117 109.466 78.9937 109.583C78.8732 109.701 78.7186 109.798 78.5294 109.876C78.3406 109.953 78.1129 109.992 77.846 109.992ZM78.0479 109.243C78.3087 109.243 78.531 109.193 78.7142 109.093C78.898 108.99 79.0383 108.855 79.1357 108.689C79.233 108.523 79.282 108.347 79.282 108.16V107.537C79.2473 107.569 79.183 107.599 79.0883 107.628C78.9937 107.656 78.8864 107.68 78.7659 107.7C78.6454 107.721 78.5283 107.739 78.4133 107.756C78.2988 107.771 78.2031 107.782 78.1255 107.791C77.9451 107.816 77.78 107.856 77.6315 107.911C77.4824 107.963 77.3619 108.04 77.27 108.143C77.1814 108.243 77.1368 108.377 77.1368 108.543C77.1368 108.775 77.2227 108.95 77.3949 109.067C77.5665 109.185 77.7844 109.243 78.0479 109.243ZM85.0887 109.987C84.6276 109.987 84.2293 109.881 83.8937 109.669C83.5586 109.457 83.3006 109.165 83.1201 108.792C82.9396 108.42 82.8494 107.993 82.8494 107.511C82.8494 107.021 82.9413 106.59 83.1245 106.217C83.311 105.842 83.5702 105.55 83.9025 105.34C84.2375 105.129 84.6304 105.022 85.0804 105.022C85.4468 105.022 85.7726 105.09 86.0559 105.224C86.3425 105.356 86.5731 105.544 86.748 105.788C86.9257 106.031 87.0303 106.315 87.0616 106.639H86.1505C86.1192 106.487 86.0575 106.348 85.9657 106.222C85.8771 106.096 85.7593 105.995 85.613 105.921C85.4672 105.847 85.2939 105.809 85.0931 105.809C84.8323 105.809 84.6045 105.878 84.4097 106.015C84.2177 106.15 84.0675 106.343 83.9586 106.596C83.8497 106.848 83.7952 107.146 83.7952 107.49C83.7952 107.837 83.848 108.139 83.9542 108.397C84.0604 108.655 84.2106 108.854 84.4053 108.994C84.6029 109.132 84.8323 109.201 85.0931 109.201C85.3627 109.201 85.5915 109.126 85.7808 108.977C85.9728 108.828 86.0961 108.624 86.1505 108.366H87.0616C87.0303 108.679 86.9301 108.957 86.7607 109.201C86.5918 109.444 86.3657 109.636 86.0818 109.777C85.7979 109.917 85.4672 109.987 85.0887 109.987ZM89.7394 109.987C89.2899 109.987 88.896 109.884 88.5576 109.678C88.2225 109.471 87.9617 109.182 87.7752 108.809C87.592 108.437 87.5001 108.004 87.5001 107.511C87.5001 107.012 87.592 106.577 87.7752 106.205C87.9617 105.829 88.2225 105.538 88.5576 105.332C88.896 105.126 89.2899 105.022 89.7394 105.022C90.1922 105.022 90.5867 105.126 90.9217 105.332C91.2568 105.538 91.5176 105.829 91.7041 106.205C91.8901 106.577 91.9836 107.012 91.9836 107.511C91.9836 108.004 91.8901 108.437 91.7041 108.809C91.5176 109.182 91.2568 109.471 90.9217 109.678C90.5867 109.884 90.1922 109.987 89.7394 109.987ZM89.7394 109.201C90.0348 109.201 90.2786 109.123 90.4706 108.968C90.6626 108.814 90.804 108.609 90.8959 108.354C90.9905 108.096 91.0378 107.815 91.0378 107.511C91.0378 107.202 90.9905 106.918 90.8959 106.66C90.804 106.402 90.6626 106.196 90.4706 106.041C90.2786 105.887 90.0348 105.809 89.7394 105.809C89.4472 105.809 89.2052 105.887 89.0131 106.041C88.8239 106.196 88.6825 106.402 88.5878 106.66C88.4932 106.918 88.4459 107.202 88.4459 107.511C88.4459 107.815 88.4932 108.096 88.5878 108.354C88.6825 108.609 88.8239 108.814 89.0131 108.968C89.2052 109.123 89.4472 109.201 89.7394 109.201ZM96.6343 109.987C96.1727 109.987 95.7744 109.881 95.4393 109.669C95.1037 109.457 94.8462 109.165 94.6658 108.792C94.4847 108.42 94.3945 107.993 94.3945 107.511C94.3945 107.021 94.4864 106.59 94.6696 106.217C94.8561 105.842 95.1153 105.55 95.4476 105.34C95.7832 105.129 96.1755 105.022 96.6255 105.022C96.9925 105.022 97.3177 105.09 97.6015 105.224C97.8876 105.356 98.1187 105.544 98.2931 105.788C98.4708 106.031 98.5754 106.315 98.6073 106.639H97.6956C97.6643 106.487 97.6026 106.348 97.5108 106.222C97.4222 106.096 97.3044 105.995 97.1586 105.921C97.0123 105.847 96.839 105.809 96.6387 105.809C96.3779 105.809 96.1496 105.878 95.9548 106.015C95.7628 106.15 95.6126 106.343 95.5037 106.596C95.3948 106.848 95.3403 107.146 95.3403 107.49C95.3403 107.837 95.3931 108.139 95.4993 108.397C95.6055 108.655 95.7557 108.854 95.951 108.994C96.1485 109.132 96.3779 109.201 96.6387 109.201C96.9078 109.201 97.1372 109.126 97.3265 108.977C97.5179 108.828 97.6412 108.624 97.6956 108.366H98.6073C98.5754 108.679 98.4752 108.957 98.3063 109.201C98.1369 109.444 97.9107 109.636 97.6269 109.777C97.3435 109.917 97.0123 109.987 96.6343 109.987ZM103.12 105.083V109.888H102.205V105.083H103.12ZM102.725 107.318V108.126C102.582 108.18 102.428 108.231 102.265 108.276C102.104 108.322 101.935 108.358 101.758 108.384C101.583 108.407 101.398 108.418 101.203 108.418C100.61 108.418 100.138 108.273 99.7891 107.984C99.4397 107.692 99.2664 107.246 99.2692 106.647V105.074H100.171V106.647C100.175 106.871 100.218 107.054 100.301 107.197C100.384 107.341 100.501 107.445 100.653 107.511C100.808 107.577 100.991 107.61 101.203 107.61C101.484 107.613 101.745 107.587 101.985 107.533C102.226 107.478 102.473 107.407 102.725 107.318ZM106.082 109.987C105.612 109.987 105.205 109.885 104.861 109.682C104.517 109.478 104.252 109.192 104.066 108.822C103.882 108.45 103.791 108.015 103.791 107.52C103.791 107.027 103.881 106.593 104.062 106.217C104.245 105.842 104.501 105.55 104.831 105.34C105.163 105.129 105.553 105.022 106 105.022C106.272 105.022 106.536 105.067 106.791 105.156C107.046 105.245 107.275 105.385 107.479 105.577C107.682 105.769 107.843 106.018 107.96 106.325C108.08 106.632 108.141 107.001 108.141 107.434V107.769H104.319V107.069H107.659L107.225 107.301C107.225 107.005 107.179 106.744 107.088 106.518C106.996 106.292 106.858 106.116 106.675 105.99C106.495 105.861 106.27 105.796 106 105.796C105.731 105.796 105.5 105.861 105.308 105.99C105.119 106.118 104.975 106.289 104.874 106.501C104.774 106.713 104.724 106.945 104.724 107.197V107.675C104.724 108.004 104.781 108.283 104.895 108.513C105.01 108.742 105.169 108.917 105.372 109.037C105.579 109.158 105.818 109.218 106.09 109.218C106.268 109.218 106.429 109.192 106.572 109.141C106.718 109.089 106.844 109.011 106.95 108.908C107.056 108.805 107.136 108.677 107.191 108.525L108.077 108.693C108.004 108.951 107.878 109.177 107.698 109.372C107.518 109.567 107.29 109.719 107.015 109.828C106.742 109.934 106.431 109.987 106.082 109.987ZM108.369 105.891V105.083H112.413V105.891H110.853V109.888H109.937V105.891H108.369ZM114.21 109.992C113.906 109.992 113.631 109.936 113.385 109.824C113.138 109.709 112.943 109.543 112.8 109.325C112.657 109.108 112.585 108.842 112.585 108.53C112.585 108.257 112.637 108.036 112.74 107.864C112.846 107.689 112.988 107.55 113.166 107.447C113.343 107.344 113.541 107.266 113.759 107.215C113.977 107.163 114.2 107.123 114.429 107.094C114.718 107.063 114.952 107.036 115.13 107.012C115.308 106.99 115.436 106.954 115.517 106.905C115.6 106.853 115.642 106.772 115.642 106.66V106.639C115.642 106.367 115.564 106.156 115.409 106.007C115.258 105.858 115.031 105.783 114.73 105.783C114.418 105.783 114.17 105.852 113.987 105.99C113.806 106.124 113.681 106.278 113.613 106.45L112.732 106.248C112.837 105.956 112.991 105.72 113.191 105.543C113.395 105.362 113.627 105.23 113.888 105.147C114.151 105.064 114.426 105.022 114.713 105.022C114.905 105.022 115.108 105.046 115.323 105.091C115.538 105.134 115.74 105.216 115.929 105.337C116.121 105.454 116.278 105.623 116.398 105.843C116.518 106.064 116.579 106.349 116.579 106.699V109.888H115.663V109.231H115.628C115.571 109.348 115.481 109.466 115.358 109.583C115.237 109.701 115.083 109.798 114.893 109.876C114.704 109.953 114.476 109.992 114.21 109.992ZM114.412 109.243C114.673 109.243 114.895 109.193 115.078 109.093C115.261 108.99 115.402 108.855 115.5 108.689C115.597 108.523 115.645 108.347 115.645 108.16V107.537C115.611 107.569 115.547 107.599 115.452 107.628C115.358 107.656 115.25 107.68 115.13 107.7C115.009 107.721 114.892 107.739 114.777 107.756C114.663 107.771 114.567 107.782 114.489 107.791C114.309 107.816 114.144 107.856 113.995 107.911C113.846 107.963 113.726 108.04 113.634 108.143C113.545 108.243 113.501 108.377 113.501 108.543C113.501 108.775 113.587 108.95 113.759 109.067C113.931 109.185 114.148 109.243 114.412 109.243Z" fill="#303030"/>
    <path d="M193.918 106.587C193.918 102.941 190.962 99.9851 187.316 99.9851C183.67 99.9851 180.714 102.941 180.714 106.587C180.714 110.234 183.67 113.19 187.316 113.19C190.962 113.19 193.918 110.234 193.918 106.587Z" fill="#12B76A"/>
    <path d="M190.25 104.386L186.216 108.421L184.382 106.587" stroke="white" stroke-width="2" stroke-linecap="round" stroke-linejoin="round"/>
    <path d="M116.617 4.80273H91.8587C91.0991 4.80273 90.4833 5.41855 90.4833 6.1782C90.4833 6.93785 91.0991 7.55366 91.8587 7.55366H116.617C117.377 7.55366 117.993 6.93785 117.993 6.1782C117.993 5.41855 117.377 4.80273 116.617 4.80273Z" fill="#E0E0E0"/>
</svg>
