<svg width="1340" height="500" viewBox="0 0 1340 500" fill="none" xmlns="http://www.w3.org/2000/svg">
    <line x1="-93" y1="54.5" x2="1507" y2="54.5" stroke="#EBEBEB"/>
    <line x1="-93" y1="134.5" x2="1507" y2="134.5" stroke="#EBEBEB"/>
    <line x1="-93" y1="214.5" x2="1507" y2="214.5" stroke="#EBEBEB"/>
    <line x1="-93" y1="294.5" x2="1507" y2="294.5" stroke="#EBEBEB"/>
    <line x1="-93" y1="374.5" x2="1507" y2="374.5" stroke="#EBEBEB"/>
    <line x1="-93" y1="454.5" x2="1507" y2="454.5" stroke="#EBEBEB"/>
    <line x1="67.5" y1="-26" x2="67.5" y2="674" stroke="#EBEBEB"/>
    <line x1="147.5" y1="-26" x2="147.5" y2="674" stroke="#EBEBEB"/>
    <line x1="227.5" y1="-26" x2="227.5" y2="674" stroke="#EBEBEB"/>
    <line x1="307.5" y1="-26" x2="307.5" y2="674" stroke="#EBEBEB"/>
    <line x1="387.5" y1="-26" x2="387.5" y2="674" stroke="#EBEBEB"/>
    <line x1="467.5" y1="-26" x2="467.5" y2="674" stroke="#EBEBEB"/>
    <line x1="547.5" y1="-26" x2="547.5" y2="674" stroke="#EBEBEB"/>
    <line x1="627.5" y1="-26" x2="627.5" y2="674" stroke="#EBEBEB"/>
    <line x1="707.5" y1="-26" x2="707.5" y2="674" stroke="#EBEBEB"/>
    <line x1="787.5" y1="-26" x2="787.5" y2="674" stroke="#EBEBEB"/>
    <line x1="867.5" y1="-26" x2="867.5" y2="674" stroke="#EBEBEB"/>
    <line x1="947.5" y1="-26" x2="947.5" y2="674" stroke="#EBEBEB"/>
    <line x1="1027.5" y1="-26" x2="1027.5" y2="674" stroke="#EBEBEB"/>
    <line x1="1107.5" y1="-26" x2="1107.5" y2="674" stroke="#EBEBEB"/>
    <line x1="1187.5" y1="-26" x2="1187.5" y2="674" stroke="#EBEBEB"/>
    <line x1="1267.5" y1="-26" x2="1267.5" y2="674" stroke="#EBEBEB"/>
    <line opacity="0.4" x1="947.5" y1="215" x2="947.5" y2="294" stroke="url(#paint0_linear_1_6)"/>
    <line opacity="0.4" x1="707.5" y1="455" x2="707.5" y2="534" stroke="url(#paint1_linear_1_6)"/>
    <line opacity="0.4" y1="-0.5" x2="79" y2="-0.5" transform="matrix(-4.37114e-08 -1 -1 4.37114e-08 947 374)" stroke="url(#paint2_linear_1_6)"/>
    <line opacity="0.4" y1="-0.5" x2="79" y2="-0.5" transform="matrix(-4.37114e-08 -1 -1 4.37114e-08 947 454)" stroke="url(#paint3_linear_1_6)"/>
    <line opacity="0.4" x1="947" y1="214.5" x2="1026" y2="214.5" stroke="url(#paint4_linear_1_6)"/>
    <line opacity="0.4" x1="707" y1="454.5" x2="786" y2="454.5" stroke="url(#paint5_linear_1_6)"/>
    <line opacity="0.4" x1="947" y1="294.5" x2="1026" y2="294.5" stroke="url(#paint6_linear_1_6)"/>
    <line opacity="0.4" y1="-0.5" x2="79" y2="-0.5" transform="matrix(-1 0 0 1 1348 295)" stroke="url(#paint7_linear_1_6)"/>
    <circle cx="340" cy="-22" r="576" fill="#F8F8F8"/>
    <circle cx="-141" cy="56" r="576" fill="#F8F8F8"/>
    <circle cx="1360" cy="-326" r="576" fill="#F8F8F8"/>
    <circle cx="1770" cy="-96" r="576" fill="#F8F8F8"/>
    <g opacity="0.6" filter="url(#filter0_f_1_6)">
        <rect x="1284" y="-229" width="350" height="350" rx="175" fill="#6F00FF"/>
    </g>
    <g opacity="0.6" filter="url(#filter1_f_1_6)">
        <rect x="27" y="497" width="350" height="350" rx="175" fill="#6F00FF"/>
    </g>
    <defs>
        <filter id="filter0_f_1_6" x="1034" y="-479" width="850" height="850" filterUnits="userSpaceOnUse" color-interpolation-filters="sRGB">
            <feFlood flood-opacity="0" result="BackgroundImageFix"/>
            <feBlend mode="normal" in="SourceGraphic" in2="BackgroundImageFix" result="shape"/>
            <feGaussianBlur stdDeviation="125" result="effect1_foregroundBlur_1_6"/>
        </filter>
        <filter id="filter1_f_1_6" x="-223" y="247" width="850" height="850" filterUnits="userSpaceOnUse" color-interpolation-filters="sRGB">
            <feFlood flood-opacity="0" result="BackgroundImageFix"/>
            <feBlend mode="normal" in="SourceGraphic" in2="BackgroundImageFix" result="shape"/>
            <feGaussianBlur stdDeviation="125" result="effect1_foregroundBlur_1_6"/>
        </filter>
        <linearGradient id="paint0_linear_1_6" x1="946.5" y1="215" x2="946.5" y2="294" gradientUnits="userSpaceOnUse">
            <stop offset="0.355" stop-color="#303030"/>
            <stop offset="0.935" stop-color="#F8F8F8"/>
        </linearGradient>
        <linearGradient id="paint1_linear_1_6" x1="706.5" y1="455" x2="706.5" y2="534" gradientUnits="userSpaceOnUse">
            <stop offset="0.355" stop-color="#303030"/>
            <stop offset="0.935" stop-color="#F8F8F8"/>
        </linearGradient>
        <linearGradient id="paint2_linear_1_6" x1="0" y1="0.5" x2="79" y2="0.5" gradientUnits="userSpaceOnUse">
            <stop offset="0.355" stop-color="#303030"/>
            <stop offset="0.935" stop-color="#F8F8F8"/>
        </linearGradient>
        <linearGradient id="paint3_linear_1_6" x1="0" y1="0.5" x2="79" y2="0.5" gradientUnits="userSpaceOnUse">
            <stop offset="0.355" stop-color="#303030"/>
            <stop offset="0.935" stop-color="#F8F8F8"/>
        </linearGradient>
        <linearGradient id="paint4_linear_1_6" x1="947" y1="215.5" x2="1026" y2="215.5" gradientUnits="userSpaceOnUse">
            <stop offset="0.355" stop-color="#303030"/>
            <stop offset="0.935" stop-color="#F8F8F8"/>
        </linearGradient>
        <linearGradient id="paint5_linear_1_6" x1="707" y1="455.5" x2="786" y2="455.5" gradientUnits="userSpaceOnUse">
            <stop offset="0.355" stop-color="#303030"/>
            <stop offset="0.935" stop-color="#F8F8F8"/>
        </linearGradient>
        <linearGradient id="paint6_linear_1_6" x1="947" y1="295.5" x2="1026" y2="295.5" gradientUnits="userSpaceOnUse">
            <stop offset="0.355" stop-color="#303030"/>
            <stop offset="0.935" stop-color="#F8F8F8"/>
        </linearGradient>
        <linearGradient id="paint7_linear_1_6" x1="0" y1="0.5" x2="79" y2="0.5" gradientUnits="userSpaceOnUse">
            <stop offset="0.355" stop-color="#303030"/>
            <stop offset="0.935" stop-color="#F8F8F8"/>
        </linearGradient>
    </defs>
</svg>
