<svg width="1600" height="700" viewBox="0 0 1600 700" fill="none" xmlns="http://www.w3.org/2000/svg">
<line y1="79.5" x2="1600" y2="79.5" stroke="#EBEBEB"/>
<line y1="159.5" x2="1600" y2="159.5" stroke="#EBEBEB"/>
<line y1="239.5" x2="1600" y2="239.5" stroke="#EBEBEB"/>
<line y1="319.5" x2="1600" y2="319.5" stroke="#EBEBEB"/>
<line y1="399.5" x2="1600" y2="399.5" stroke="#EBEBEB"/>
<line y1="479.5" x2="1600" y2="479.5" stroke="#EBEBEB"/>
<line y1="559.5" x2="1600" y2="559.5" stroke="#EBEBEB"/>
<line y1="639.5" x2="1600" y2="639.5" stroke="#EBEBEB"/>
<line x1="0.500061" y1="-1" x2="0.50003" y2="699" stroke="#EBEBEB"/>
<line x1="80.5" y1="-1" x2="80.5" y2="699" stroke="#EBEBEB"/>
<line x1="160.5" y1="-1" x2="160.5" y2="699" stroke="#EBEBEB"/>
<line x1="240.5" y1="-1" x2="240.5" y2="699" stroke="#EBEBEB"/>
<line x1="320.5" y1="-1" x2="320.5" y2="699" stroke="#EBEBEB"/>
<line x1="400.5" y1="-1" x2="400.5" y2="699" stroke="#EBEBEB"/>
<line x1="480.5" y1="-1" x2="480.5" y2="699" stroke="#EBEBEB"/>
<line x1="560.5" y1="-1" x2="560.5" y2="699" stroke="#EBEBEB"/>
<line x1="640.5" y1="-1" x2="640.5" y2="699" stroke="#EBEBEB"/>
<line x1="720.5" y1="-1" x2="720.5" y2="699" stroke="#EBEBEB"/>
<line x1="800.5" y1="-1" x2="800.5" y2="699" stroke="#EBEBEB"/>
<line x1="880.5" y1="-1" x2="880.5" y2="699" stroke="#EBEBEB"/>
<line x1="960.5" y1="-1" x2="960.5" y2="699" stroke="#EBEBEB"/>
<line x1="1040.5" y1="-1" x2="1040.5" y2="699" stroke="#EBEBEB"/>
<line x1="1120.5" y1="-1" x2="1120.5" y2="699" stroke="#EBEBEB"/>
<line x1="1200.5" y1="-1" x2="1200.5" y2="699" stroke="#EBEBEB"/>
<line x1="1280.5" y1="-1" x2="1280.5" y2="699" stroke="#EBEBEB"/>
<line x1="1360.5" y1="-1" x2="1360.5" y2="699" stroke="#EBEBEB"/>
<line x1="1440.5" y1="-1" x2="1440.5" y2="699" stroke="#EBEBEB"/>
<line x1="1520.5" y1="-1" x2="1520.5" y2="699" stroke="#EBEBEB"/>
<line opacity="0.4" x1="1040.5" y1="240" x2="1040.5" y2="319" stroke="url(#paint0_linear_5373_4467)"/>
<line opacity="0.4" x1="800.5" y1="480" x2="800.5" y2="559" stroke="url(#paint1_linear_5373_4467)"/>
<line opacity="0.4" y1="-0.5" x2="79" y2="-0.5" transform="matrix(-4.37114e-08 -1 -1 4.37114e-08 1040 399)" stroke="url(#paint2_linear_5373_4467)"/>
<line opacity="0.4" y1="-0.5" x2="79" y2="-0.5" transform="matrix(-4.37114e-08 -1 -1 4.37114e-08 1040 479)" stroke="url(#paint3_linear_5373_4467)"/>
<line opacity="0.4" x1="1440.5" y1="320" x2="1440.5" y2="399" stroke="url(#paint4_linear_5373_4467)"/>
<line opacity="0.4" x1="1040" y1="239.5" x2="1119" y2="239.5" stroke="url(#paint5_linear_5373_4467)"/>
<line opacity="0.4" x1="800" y1="479.5" x2="879" y2="479.5" stroke="url(#paint6_linear_5373_4467)"/>
<line opacity="0.4" x1="1040" y1="319.5" x2="1119" y2="319.5" stroke="url(#paint7_linear_5373_4467)"/>
<line opacity="0.4" y1="-0.5" x2="79" y2="-0.5" transform="matrix(-1 0 0 1 1441 320)" stroke="url(#paint8_linear_5373_4467)"/>
<line opacity="0.4" x1="1442" y1="399.5" x2="1521" y2="399.5" stroke="url(#paint9_linear_5373_4467)"/>
<defs>
<linearGradient id="paint0_linear_5373_4467" x1="1039.5" y1="240" x2="1039.5" y2="319" gradientUnits="userSpaceOnUse">
<stop offset="0.355" stop-color="#303030"/>
<stop offset="0.935" stop-color="#F8F8F8"/>
</linearGradient>
<linearGradient id="paint1_linear_5373_4467" x1="799.5" y1="480" x2="799.5" y2="559" gradientUnits="userSpaceOnUse">
<stop offset="0.355" stop-color="#303030"/>
<stop offset="0.935" stop-color="#F8F8F8"/>
</linearGradient>
<linearGradient id="paint2_linear_5373_4467" x1="0" y1="0.5" x2="79" y2="0.5" gradientUnits="userSpaceOnUse">
<stop offset="0.355" stop-color="#303030"/>
<stop offset="0.935" stop-color="#F8F8F8"/>
</linearGradient>
<linearGradient id="paint3_linear_5373_4467" x1="0" y1="0.5" x2="79" y2="0.5" gradientUnits="userSpaceOnUse">
<stop offset="0.355" stop-color="#303030"/>
<stop offset="0.935" stop-color="#F8F8F8"/>
</linearGradient>
<linearGradient id="paint4_linear_5373_4467" x1="1439.5" y1="320" x2="1439.5" y2="399" gradientUnits="userSpaceOnUse">
<stop offset="0.355" stop-color="#303030"/>
<stop offset="0.935" stop-color="#F8F8F8"/>
</linearGradient>
<linearGradient id="paint5_linear_5373_4467" x1="1040" y1="240.5" x2="1119" y2="240.5" gradientUnits="userSpaceOnUse">
<stop offset="0.355" stop-color="#303030"/>
<stop offset="0.935" stop-color="#F8F8F8"/>
</linearGradient>
<linearGradient id="paint6_linear_5373_4467" x1="800" y1="480.5" x2="879" y2="480.5" gradientUnits="userSpaceOnUse">
<stop offset="0.355" stop-color="#303030"/>
<stop offset="0.935" stop-color="#F8F8F8"/>
</linearGradient>
<linearGradient id="paint7_linear_5373_4467" x1="1040" y1="320.5" x2="1119" y2="320.5" gradientUnits="userSpaceOnUse">
<stop offset="0.355" stop-color="#303030"/>
<stop offset="0.935" stop-color="#F8F8F8"/>
</linearGradient>
<linearGradient id="paint8_linear_5373_4467" x1="0" y1="0.5" x2="79" y2="0.5" gradientUnits="userSpaceOnUse">
<stop offset="0.355" stop-color="#303030"/>
<stop offset="0.935" stop-color="#F8F8F8"/>
</linearGradient>
<linearGradient id="paint9_linear_5373_4467" x1="1442" y1="400.5" x2="1521" y2="400.5" gradientUnits="userSpaceOnUse">
<stop offset="0.355" stop-color="#303030"/>
<stop offset="0.935" stop-color="#F8F8F8"/>
</linearGradient>
</defs>
</svg>
