<svg width="350" height="312" viewBox="0 0 350 312" fill="none" xmlns="http://www.w3.org/2000/svg">
    <rect width="1600" height="721" transform="translate(-969 -191)" fill="white"/>
    <line x1="-969" y1="49.5" x2="631" y2="49.5" stroke="#EBEBEB"/>
    <line x1="-969" y1="129.5" x2="631" y2="129.5" stroke="#EBEBEB"/>
    <line x1="-969" y1="209.5" x2="631" y2="209.5" stroke="#EBEBEB"/>
    <line x1="-969" y1="289.5" x2="631" y2="289.5" stroke="#EBEBEB"/>
    <line x1="71.5" y1="-191" x2="71.5" y2="509" stroke="#EBEBEB"/>
    <line x1="151.5" y1="-191" x2="151.5" y2="509" stroke="#EBEBEB"/>
    <line x1="231.5" y1="-191" x2="231.5" y2="509" stroke="#EBEBEB"/>
    <line x1="311.5" y1="-191" x2="311.5" y2="509" stroke="#EBEBEB"/>
    <line opacity="0.4" x1="71.5" y1="50" x2="71.5" y2="129" stroke="url(#paint0_linear_1_6)"/>
    <line opacity="0.4" y1="-0.5" x2="79" y2="-0.5" transform="matrix(-4.37114e-08 -1 -1 4.37114e-08 71 209)" stroke="url(#paint1_linear_1_6)"/>
    <line opacity="0.4" y1="-0.5" x2="79" y2="-0.5" transform="matrix(-4.37114e-08 -1 -1 4.37114e-08 71 289)" stroke="url(#paint2_linear_1_6)"/>
    <line opacity="0.4" x1="71" y1="49.5" x2="150" y2="49.5" stroke="url(#paint3_linear_1_6)"/>
    <line opacity="0.4" x1="71" y1="129.5" x2="150" y2="129.5" stroke="url(#paint4_linear_1_6)"/>
    <rect x="211" y="-262" width="705" height="705" rx="352.5" fill="white"/>
    <rect x="-119" y="228" width="705" height="705" rx="352.5" fill="white"/>
    <g opacity="0.6" filter="url(#filter0_f_1_6)">
        <rect x="307" y="-313" width="350" height="350" rx="175" fill="#6F00FF"/>
    </g>
    <g opacity="0.6" filter="url(#filter1_f_1_6)">
        <rect x="-63" y="317" width="350" height="350" rx="175" fill="#6F00FF"/>
    </g>
    <defs>
        <filter id="filter0_f_1_6" x="57" y="-563" width="850" height="850" filterUnits="userSpaceOnUse" color-interpolation-filters="sRGB">
            <feFlood flood-opacity="0" result="BackgroundImageFix"/>
            <feBlend mode="normal" in="SourceGraphic" in2="BackgroundImageFix" result="shape"/>
            <feGaussianBlur stdDeviation="125" result="effect1_foregroundBlur_1_6"/>
        </filter>
        <filter id="filter1_f_1_6" x="-313" y="67" width="850" height="850" filterUnits="userSpaceOnUse" color-interpolation-filters="sRGB">
            <feFlood flood-opacity="0" result="BackgroundImageFix"/>
            <feBlend mode="normal" in="SourceGraphic" in2="BackgroundImageFix" result="shape"/>
            <feGaussianBlur stdDeviation="125" result="effect1_foregroundBlur_1_6"/>
        </filter>
        <linearGradient id="paint0_linear_1_6" x1="70.5" y1="50" x2="70.5" y2="129" gradientUnits="userSpaceOnUse">
            <stop offset="0.355" stop-color="#303030"/>
            <stop offset="0.935" stop-color="#F8F8F8"/>
        </linearGradient>
        <linearGradient id="paint1_linear_1_6" x1="0" y1="0.5" x2="79" y2="0.5" gradientUnits="userSpaceOnUse">
            <stop offset="0.355" stop-color="#303030"/>
            <stop offset="0.935" stop-color="#F8F8F8"/>
        </linearGradient>
        <linearGradient id="paint2_linear_1_6" x1="0" y1="0.5" x2="79" y2="0.5" gradientUnits="userSpaceOnUse">
            <stop offset="0.355" stop-color="#303030"/>
            <stop offset="0.935" stop-color="#F8F8F8"/>
        </linearGradient>
        <linearGradient id="paint3_linear_1_6" x1="71" y1="50.5" x2="150" y2="50.5" gradientUnits="userSpaceOnUse">
            <stop offset="0.355" stop-color="#303030"/>
            <stop offset="0.935" stop-color="#F8F8F8"/>
        </linearGradient>
        <linearGradient id="paint4_linear_1_6" x1="71" y1="130.5" x2="150" y2="130.5" gradientUnits="userSpaceOnUse">
            <stop offset="0.355" stop-color="#303030"/>
            <stop offset="0.935" stop-color="#F8F8F8"/>
        </linearGradient>
    </defs>
</svg>
