<svg width="390" height="690" viewBox="0 0 390 690" fill="none" xmlns="http://www.w3.org/2000/svg">
    <line x1="-809" y1="69.5" x2="791" y2="69.5" stroke="#EBEBEB"/>
    <line x1="-809" y1="149.5" x2="791" y2="149.5" stroke="#EBEBEB"/>
    <line x1="-809" y1="229.5" x2="791" y2="229.5" stroke="#EBEBEB"/>
    <line x1="-809" y1="309.5" x2="791" y2="309.5" stroke="#EBEBEB"/>
    <line x1="-809" y1="389.5" x2="791" y2="389.5" stroke="#EBEBEB"/>
    <line x1="-809" y1="469.5" x2="791" y2="469.5" stroke="#EBEBEB"/>
    <line x1="-809" y1="549.5" x2="791" y2="549.5" stroke="#EBEBEB"/>
    <line x1="-809" y1="629.5" x2="791" y2="629.5" stroke="#EBEBEB"/>
    <line x1="71.5" y1="69" x2="71.5" y2="769" stroke="#EBEBEB"/>
    <line x1="151.5" y1="69" x2="151.5" y2="769" stroke="#EBEBEB"/>
    <line x1="231.5" y1="69" x2="231.5" y2="769" stroke="#EBEBEB"/>
    <line x1="311.5" y1="69" x2="311.5" y2="769" stroke="#EBEBEB"/>
    <line opacity="0.4" x1="231.5" y1="310" x2="231.5" y2="389" stroke="url(#paint0_linear_1_6)"/>
    <line opacity="0.4" y1="-0.5" x2="79" y2="-0.5" transform="matrix(-4.37114e-08 -1 -1 4.37114e-08 231 469)" stroke="url(#paint1_linear_1_6)"/>
    <line opacity="0.4" y1="-0.5" x2="79" y2="-0.5" transform="matrix(-4.37114e-08 -1 -1 4.37114e-08 231 549)" stroke="url(#paint2_linear_1_6)"/>
    <line opacity="0.4" x1="231" y1="309.5" x2="310" y2="309.5" stroke="url(#paint3_linear_1_6)"/>
    <line opacity="0.4" x1="-9" y1="549.5" x2="70" y2="549.5" stroke="url(#paint4_linear_1_6)"/>
    <line opacity="0.4" x1="231" y1="389.5" x2="310" y2="389.5" stroke="url(#paint5_linear_1_6)"/>
    <line opacity="0.4" x1="311" y1="469.5" x2="390" y2="469.5" stroke="url(#paint6_linear_1_6)"/>
    <line opacity="0.4" x1="20" y1="469.5" x2="99" y2="469.5" stroke="url(#paint7_linear_1_6)"/>
    <rect x="-84" y="-191" width="479" height="479" rx="80" fill="#F8F8F8"/>
    <defs>
        <linearGradient id="paint0_linear_1_6" x1="230.5" y1="310" x2="230.5" y2="389" gradientUnits="userSpaceOnUse">
            <stop offset="0.355" stop-color="#303030"/>
            <stop offset="0.935" stop-color="#F8F8F8"/>
        </linearGradient>
        <linearGradient id="paint1_linear_1_6" x1="0" y1="0.5" x2="79" y2="0.5" gradientUnits="userSpaceOnUse">
            <stop offset="0.355" stop-color="#303030"/>
            <stop offset="0.935" stop-color="#F8F8F8"/>
        </linearGradient>
        <linearGradient id="paint2_linear_1_6" x1="0" y1="0.5" x2="79" y2="0.5" gradientUnits="userSpaceOnUse">
            <stop offset="0.355" stop-color="#303030"/>
            <stop offset="0.935" stop-color="#F8F8F8"/>
        </linearGradient>
        <linearGradient id="paint3_linear_1_6" x1="231" y1="310.5" x2="310" y2="310.5" gradientUnits="userSpaceOnUse">
            <stop offset="0.355" stop-color="#303030"/>
            <stop offset="0.935" stop-color="#F8F8F8"/>
        </linearGradient>
        <linearGradient id="paint4_linear_1_6" x1="-9" y1="550.5" x2="70" y2="550.5" gradientUnits="userSpaceOnUse">
            <stop offset="0.355" stop-color="#303030"/>
            <stop offset="0.935" stop-color="#F8F8F8"/>
        </linearGradient>
        <linearGradient id="paint5_linear_1_6" x1="231" y1="390.5" x2="310" y2="390.5" gradientUnits="userSpaceOnUse">
            <stop offset="0.355" stop-color="#303030"/>
            <stop offset="0.935" stop-color="#F8F8F8"/>
        </linearGradient>
        <linearGradient id="paint6_linear_1_6" x1="311" y1="470.5" x2="390" y2="470.5" gradientUnits="userSpaceOnUse">
            <stop offset="0.355" stop-color="#303030"/>
            <stop offset="0.935" stop-color="#F8F8F8"/>
        </linearGradient>
        <linearGradient id="paint7_linear_1_6" x1="20" y1="470.5" x2="99" y2="470.5" gradientUnits="userSpaceOnUse">
            <stop offset="0.355" stop-color="#303030"/>
            <stop offset="0.935" stop-color="#F8F8F8"/>
        </linearGradient>
    </defs>
</svg>
