<svg width="20" height="20" viewBox="0 0 20 20" fill="none" xmlns="http://www.w3.org/2000/svg">
<path d="M17.2909 16.9012H14.284V12.2984C14.284 11.2009 14.264 9.78796 12.7202 9.78796C11.1541 9.78796 10.9145 10.9838 10.9145 12.2185V16.9009H7.90755V7.43576H10.7942V8.72927H10.8346C11.1235 8.24647 11.5409 7.8493 12.0424 7.58006C12.544 7.31081 13.1109 7.17958 13.6827 7.20032C16.7303 7.20032 17.2922 9.15973 17.2922 11.7088L17.2909 16.9012ZM4.51478 6.14194C4.16967 6.142 3.83228 6.04203 3.54529 5.85466C3.2583 5.6673 3.03462 5.40096 2.90249 5.08933C2.77036 4.77769 2.73573 4.43476 2.803 4.10389C2.87027 3.77303 3.03641 3.46909 3.2804 3.23052C3.52439 2.99194 3.83528 2.82944 4.17375 2.76357C4.51222 2.6977 4.86307 2.73142 5.18194 2.86045C5.50081 2.98949 5.77337 3.20805 5.96516 3.4885C6.15694 3.76895 6.25935 4.0987 6.25941 4.43603C6.25945 4.66002 6.21435 4.88181 6.1267 5.08876C6.03904 5.29571 5.91056 5.48376 5.74856 5.64216C5.58655 5.80057 5.3942 5.92624 5.18251 6.01199C4.97082 6.09774 4.74393 6.1419 4.51478 6.14194ZM6.01823 16.9012H3.00821V7.43576H6.01823V16.9012ZM18.79 0.00135143H1.49725C1.10476 -0.00297804 0.726538 0.145182 0.445743 0.413275C0.164948 0.681368 0.00454606 1.04746 -0.000244141 1.4311V18.4041C0.00438212 18.788 0.16469 19.1543 0.445476 19.4227C0.726261 19.691 1.10456 19.8395 1.49725 19.8354H18.79C19.1835 19.8402 19.5628 19.6922 19.8447 19.4238C20.1266 19.1555 20.288 18.7887 20.2934 18.4041V1.42988C20.2878 1.04547 20.1263 0.678966 19.8444 0.41088C19.5625 0.142794 19.1833 -0.00494354 18.79 0.000126304" fill="#0A66C2"/>
</svg>
