<svg width="126" height="32" viewBox="0 0 126 32" fill="none" xmlns="http://www.w3.org/2000/svg">
    <path d="M51.7321 9.87325C51.5007 9.09509 51.106 8.45893 50.5531 7.96661C49.9978 7.47637 49.2668 7.12396 48.3621 6.91121C47.4554 6.6982 46.3276 6.59301 44.9773 6.59301H31.9496V14.0048H36.1664V10.2343H44.8656C45.9955 10.2343 46.7757 10.4194 47.2089 10.7911C47.6439 11.161 47.8605 11.8574 47.8605 12.8784V14.1854C47.8605 15.1849 47.6483 15.8576 47.2237 16.2017C46.7994 16.5455 46.0319 16.7154 44.9213 16.7154H31.9496V25.561H36.1664V20.1353H44.9773C46.3641 20.1353 47.5111 20.0494 48.4178 19.8732C49.3225 19.6947 50.0472 19.3853 50.596 18.9423C51.1383 18.4952 51.522 17.9042 51.7449 17.1605C51.968 16.4189 52.0794 15.4838 52.0794 14.3509V12.7108C52.0794 11.5993 51.9614 10.6514 51.7321 9.87325Z" fill="#303030"/>
    <path d="M62.438 10.4576L64.6076 14.0044H64.6203L62.438 10.4576Z" fill="#303030"/>
    <path d="M76.6126 25.561H71.7314L67.9303 19.3809L65.7974 15.9286L65.0169 14.6667L64.6077 14.0048H64.6204L62.4381 10.458L60.2708 14.0048L59.3404 15.5245L59.0939 15.9286L56.9823 19.3809L53.2008 25.561H48.3451L52.2188 19.3809L54.3819 15.9286H54.4483L55.5888 14.0048L59.3297 8.03526C59.664 7.50012 60.0607 7.05296 60.5236 6.70056C60.9847 6.34998 61.6514 6.17169 62.5196 6.17169C63.3706 6.17169 64.0266 6.34998 64.4897 6.70056C64.9526 7.05296 65.3514 7.50012 65.6836 8.03526L69.4074 14.0048L70.6057 15.9286L72.7581 19.3809L76.6126 25.561Z" fill="#303030"/>
    <path d="M94.1266 15.7997L104.944 6.59301H99.2587L88.941 15.6579V15.647L88.568 15.9738L88.941 16.3027V16.2985L99.4797 25.561H105.253L94.1266 15.7997Z" fill="#303030"/>
    <path d="M105.887 6.59301V10.2343H113.822V25.561H118.066V10.2343H126V6.59301H105.887Z" fill="#303030"/>
    <path d="M87.3514 9.48256C87.0737 8.74198 86.634 8.15778 86.0331 7.73046C85.432 7.30574 84.6591 7.00841 83.7164 6.84108C82.774 6.67376 81.6356 6.59153 80.3038 6.59153H67.9956L70.2725 10.1516H80.0257C80.7114 10.1516 81.2834 10.178 81.7468 10.2338C82.2102 10.2897 82.5702 10.4012 82.8295 10.5682C83.089 10.7356 83.2715 10.9773 83.3827 11.2905C83.4941 11.6064 83.5498 12.0152 83.5498 12.5143V13.5444C83.5498 14.0646 83.4941 14.4815 83.3827 14.7947C83.2715 15.1106 83.0836 15.3521 82.8165 15.5194C82.5463 15.6867 82.1862 15.7982 81.7335 15.8541C81.2808 15.9097 80.7114 15.9363 80.0257 15.9363H73.6638L80.4917 25.5596H85.6968L80.7487 19.1087H81.437C82.2419 19.0743 82.9646 18.9999 83.6053 18.8858C84.5479 18.7185 85.3287 18.4264 85.9482 18.0095C86.5678 17.5929 87.0258 17.0274 87.3225 16.3132C87.6188 15.599 87.7672 14.6937 87.7672 13.6V12.294C87.7672 11.1603 87.6269 10.226 87.3514 9.48256Z" fill="#303030"/>
    <path d="M64.6203 14.0044H64.6076L62.438 10.4576L64.6203 14.0044Z" fill="#303030"/>
    <mask id="mask0_1_6" style="mask-type:luminance" maskUnits="userSpaceOnUse" x="0" y="0" width="25" height="32">
        <path d="M20.5573 0V19.6319C20.5573 24.1784 16.8684 27.8774 12.3342 27.8774C7.80002 27.8774 4.1114 24.1784 4.1114 19.6319V4.41735H10.4661V14.9201H7.80679L12.5055 22.1838L17.0514 14.9201H14.0487V0.392607L13.9982 0.431509V0.294462H0V19.6319C0 26.4518 5.53333 32 12.3342 32C19.1353 32 24.6687 26.4518 24.6687 19.6319V0H20.5573Z" fill="white"/>
    </mask>
    <g mask="url(#mask0_1_6)">
        <path d="M20.5573 0V19.6319C20.5573 24.1784 16.8684 27.8774 12.3342 27.8774C7.80002 27.8774 4.1114 24.1784 4.1114 19.6319V4.41735H10.4661V14.9201H7.80679L12.5055 22.1838L17.0514 14.9201H14.0487V0.392607L13.9982 0.431509V0.294462H0V19.6319C0 26.4518 5.53333 32 12.3342 32C19.1353 32 24.6687 26.4518 24.6687 19.6319V0H20.5573Z" fill="url(#paint0_linear_1_6)"/>
    </g>
    <defs>
        <linearGradient id="paint0_linear_1_6" x1="1.40136" y1="16.2381" x2="23.0504" y2="15.8326" gradientUnits="userSpaceOnUse">
            <stop stop-color="#B3779D"/>
            <stop offset="0.489189" stop-color="#60AFCA"/>
            <stop offset="1" stop-color="#23406F"/>
        </linearGradient>
    </defs>
</svg>
