<svg width="1000" height="254" viewBox="0 0 1000 254" fill="none" xmlns="http://www.w3.org/2000/svg">
<path d="M410.686 78.6513C408.852 72.5028 405.724 67.4764 401.341 63.5864C396.94 59.713 391.146 56.9285 383.975 55.2475C376.788 53.5645 367.849 52.7333 357.146 52.7333H253.884V111.295H287.308V81.5038H356.261C365.216 81.5038 371.4 82.9662 374.834 85.9032C378.282 88.8259 379.999 94.3287 379.999 102.395V112.722C379.999 120.62 378.317 125.935 374.952 128.654C371.588 131.37 365.505 132.713 356.702 132.713H253.884V202.604H287.308V159.734H357.146C368.138 159.734 377.229 159.056 384.417 157.663C391.587 156.253 397.332 153.808 401.682 150.308C405.98 146.775 409.021 142.106 410.788 136.229C412.556 130.37 413.439 122.982 413.439 114.03V101.071C413.439 92.2889 412.504 84.7997 410.686 78.6513Z" fill="#303030"/>
<path d="M495.543 83.2717L512.74 111.296H512.841L495.543 83.2717Z" fill="#303030"/>
<path d="M607.896 202.604H569.207L539.078 153.773L522.172 126.496L515.986 116.526L512.742 111.295H512.843L495.545 83.2714L478.367 111.295L470.992 123.303L469.038 126.496L452.301 153.773L422.327 202.604H383.84L414.544 153.773L431.689 126.496H432.215L441.255 111.295L470.907 64.1289C473.557 59.9006 476.702 56.3675 480.37 53.5831C484.025 50.8131 489.309 49.4044 496.191 49.4044C502.936 49.4044 508.136 50.8131 511.807 53.5831C515.476 56.3675 518.637 59.9006 521.27 64.1289L550.786 111.295L560.284 126.496L577.345 153.773L607.896 202.604Z" fill="#303030"/>
<path d="M746.719 125.477L832.462 52.7333H787.398L705.617 124.357V124.271L702.66 126.853L705.617 129.452V129.419L789.15 202.604H834.907L746.719 125.477Z" fill="#303030"/>
<path d="M839.94 52.7333V81.5038H902.828V202.604H936.473V81.5038H999.359V52.7333H839.94Z" fill="#303030"/>
<path d="M693.017 75.5675C690.816 69.716 687.33 65.1001 682.568 61.7237C677.803 58.368 671.677 56.0186 664.205 54.6965C656.735 53.3745 647.712 52.7247 637.155 52.7247H539.597L557.644 80.8538H634.952C640.387 80.8538 644.92 81.0621 648.593 81.5035C652.266 81.9449 655.12 82.8256 657.175 84.1457C659.232 85.4678 660.679 87.3777 661.56 89.8527C662.443 92.3484 662.885 95.5783 662.885 99.5219V107.661C662.885 111.771 662.443 115.065 661.56 117.54C660.679 120.036 659.189 121.944 657.072 123.266C654.93 124.588 652.076 125.469 648.488 125.91C644.899 126.349 640.387 126.56 634.952 126.56H584.525L638.645 202.596H679.902L640.682 151.626H646.138C652.518 151.354 658.246 150.766 663.324 149.865C670.796 148.542 676.984 146.235 681.895 142.941C686.806 139.649 690.436 135.181 692.788 129.538C695.137 123.895 696.313 116.742 696.313 108.1V97.7811C696.313 88.8235 695.2 81.4416 693.017 75.5675Z" fill="#303030"/>
<path d="M512.841 111.296H512.74L495.543 83.2717L512.841 111.296Z" fill="#303030"/>
<mask id="mask0_5170_101" style="mask-type:luminance" maskUnits="userSpaceOnUse" x="0" y="0" width="197" height="254">
<path d="M163.585 0.641968V155.758C163.585 191.681 134.346 220.908 98.4069 220.908C62.4675 220.908 33.2303 191.681 33.2303 155.758V35.5444H83.5994V118.529H62.5212L99.7646 175.921L135.797 118.529H111.997V3.74403L111.596 4.05141V2.96857H0.64209V155.758C0.64209 209.644 44.501 253.481 98.4069 253.481C152.315 253.481 196.174 209.644 196.174 155.758V0.641968H163.585Z" fill="white"/>
</mask>
<g mask="url(#mask0_5170_101)">
<path d="M163.585 0.641968V155.758C163.585 191.681 134.346 220.908 98.4069 220.908C62.4675 220.908 33.2303 191.681 33.2303 155.758V35.5444H83.5994V118.529H62.5212L99.7646 175.921L135.797 118.529H111.997V3.74403L111.596 4.05141V2.96857H0.64209V155.758C0.64209 209.644 44.501 253.481 98.4069 253.481C152.315 253.481 196.174 209.644 196.174 155.758V0.641968H163.585Z" fill="url(#paint0_linear_5170_101)"/>
</g>
<defs>
<linearGradient id="paint0_linear_5170_101" x1="11.7497" y1="128.943" x2="183.347" y2="125.719" gradientUnits="userSpaceOnUse">
<stop stop-color="#B3779D"/>
<stop offset="0.489189" stop-color="#60AFCA"/>
<stop offset="1" stop-color="#23406F"/>
</linearGradient>
</defs>
</svg>
