<svg width="262" height="214" viewBox="0 0 262 214" fill="none" xmlns="http://www.w3.org/2000/svg">
    <path d="M249.778 0H12.2216C5.47179 0 0 5.47492 0 12.2286V201.771C0 208.525 5.47179 214 12.2216 214H249.778C256.528 214 262 208.525 262 201.771V12.2286C262 5.47492 256.528 0 249.778 0Z" fill="white"/>
    <path d="M12.8662 25.2214V16.3247H16.2796C16.9201 16.3247 17.4533 16.4262 17.8789 16.6291C18.3046 16.8282 18.6229 17.1029 18.8337 17.4531C19.0446 17.7995 19.15 18.1916 19.15 18.6294C19.15 18.9917 19.0804 19.3022 18.9412 19.5609C18.8059 19.8157 18.6209 20.0227 18.3862 20.1819C18.1514 20.3411 17.8889 20.4565 17.5985 20.5282V20.6178C17.9167 20.6297 18.2191 20.7253 18.5056 20.9044C18.796 21.0795 19.0327 21.3263 19.2156 21.6448C19.4026 21.9632 19.4961 22.3474 19.4961 22.7972C19.4961 23.2589 19.3847 23.673 19.1619 24.0391C18.9432 24.4014 18.609 24.69 18.1594 24.9049C17.7138 25.1159 17.1509 25.2214 16.4706 25.2214H12.8662ZM14.4774 23.8779H16.208C16.7929 23.8779 17.2146 23.7645 17.4731 23.5376C17.7357 23.3107 17.867 23.0221 17.867 22.6718C17.867 22.4051 17.8014 22.1662 17.6701 21.9553C17.5387 21.7443 17.3518 21.5771 17.1091 21.4537C16.8704 21.3303 16.5879 21.2686 16.2617 21.2686H14.4774V23.8779ZM14.4774 20.1102H16.0767C16.3512 20.1102 16.5999 20.0585 16.8226 19.955C17.0455 19.8515 17.2205 19.7062 17.3478 19.5191C17.4791 19.3281 17.5448 19.1031 17.5448 18.8444C17.5448 18.502 17.4234 18.2194 17.1807 17.9965C16.9381 17.7696 16.582 17.6562 16.1126 17.6562H14.4774V20.1102ZM21.4475 20.7253H23.4108C24.2582 20.7213 24.9147 20.9283 25.3802 21.3462C25.8496 21.7603 26.0843 22.3016 26.0843 22.9703C26.0843 23.4082 25.9789 23.7963 25.7681 24.1347C25.5572 24.473 25.2529 24.7397 24.855 24.9348C24.4572 25.1259 23.9758 25.2214 23.4108 25.2214H20.3793V18.5458H21.8891V23.9317H23.4108C23.749 23.9317 24.0275 23.8461 24.2463 23.6749C24.4691 23.4998 24.5805 23.2729 24.5805 22.9942C24.5805 22.7036 24.4691 22.4668 24.2463 22.2836C24.0275 22.1006 23.749 22.011 23.4108 22.015H21.4475V20.7253ZM26.9198 25.2214V18.5458H28.4893V25.2214H26.9198ZM34.982 16.0858L35.5369 17.0949C35.342 17.266 35.1232 17.3895 34.8806 17.4651C34.6418 17.5407 34.3594 17.5905 34.0331 17.6144C33.7109 17.6343 33.3289 17.6482 32.8874 17.6562C32.39 17.6681 31.9843 17.7617 31.6699 17.9368C31.3557 18.1119 31.113 18.3787 30.9419 18.7369C30.7749 19.0952 30.6674 19.5529 30.6197 20.1102H30.6913C30.8982 19.7002 31.1886 19.3878 31.5625 19.1728C31.9405 18.9578 32.3821 18.8504 32.8874 18.8504C33.4403 18.8504 33.9277 18.9737 34.3494 19.2205C34.7751 19.4674 35.1073 19.8256 35.346 20.2953C35.5886 20.7651 35.708 21.3343 35.7041 22.0031C35.708 22.6877 35.5807 23.2808 35.3221 23.7824C35.0635 24.2839 34.6975 24.672 34.2241 24.9467C33.7507 25.2174 33.1917 25.3528 32.5472 25.3528C31.5725 25.3528 30.7987 25.0363 30.2258 24.4034C29.6569 23.7665 29.3705 22.837 29.3665 21.6149V21.0238C29.3705 19.4514 29.6629 18.2812 30.2438 17.5129C30.8286 16.7406 31.6958 16.3445 32.8456 16.3247C33.1877 16.3167 33.4941 16.3147 33.7646 16.3187C34.0351 16.3227 34.2718 16.3107 34.4747 16.2828C34.6776 16.251 34.8467 16.1853 34.982 16.0858ZM32.5532 24.0988C32.8754 24.0948 33.1519 24.0113 33.3826 23.8481C33.6174 23.6809 33.7984 23.4441 33.9257 23.1375C34.053 22.831 34.1147 22.4668 34.1107 22.0449C34.1147 21.6309 34.053 21.2785 33.9257 20.9879C33.7984 20.6934 33.6174 20.4705 33.3826 20.3192C33.1479 20.1679 32.8654 20.0924 32.5353 20.0924C32.2926 20.0924 32.0758 20.1361 31.8848 20.2237C31.6939 20.3073 31.5287 20.4327 31.3895 20.5998C31.2543 20.7671 31.1508 20.972 31.0792 21.2149C31.0076 21.4577 30.9698 21.7343 30.9658 22.0449C30.9619 22.6698 31.101 23.1674 31.3835 23.5376C31.666 23.9077 32.0558 24.0948 32.5532 24.0988ZM39.5293 25.3528C38.8609 25.3528 38.284 25.2135 37.7987 24.9348C37.3133 24.6522 36.9394 24.2541 36.6767 23.7406C36.4182 23.2271 36.2889 22.6221 36.2889 21.9254C36.2889 21.2368 36.4182 20.6337 36.6767 20.1162C36.9354 19.5947 37.2994 19.1887 37.7688 18.8982C38.2383 18.6076 38.7913 18.4622 39.4278 18.4622C39.8375 18.4622 40.2255 18.5279 40.5915 18.6593C40.9615 18.7906 41.2877 18.9937 41.5702 19.2683C41.8566 19.543 42.0814 19.8933 42.2445 20.3192C42.4076 20.7412 42.4892 21.2447 42.4892 21.8299V22.3195H37.0229V21.2626H41.7074L40.9734 21.5732C40.9734 21.195 40.9157 20.8666 40.8004 20.5879C40.685 20.3053 40.5139 20.0843 40.2871 19.9251C40.0604 19.7659 39.7779 19.6863 39.4397 19.6863C39.1016 19.6863 38.8131 19.7659 38.5744 19.9251C38.3357 20.0843 38.1547 20.2993 38.0314 20.57C37.9081 20.8367 37.8464 21.1352 37.8464 21.4656V22.2001C37.8464 22.6061 37.916 22.9545 38.0553 23.245C38.1985 23.5316 38.3974 23.7505 38.6521 23.9018C38.9106 24.0531 39.211 24.1287 39.5531 24.1287C39.7759 24.1287 39.9788 24.0968 40.1618 24.0332C40.3488 23.9695 40.5079 23.874 40.6392 23.7466C40.7745 23.6152 40.8779 23.454 40.9496 23.2629L42.4175 23.4361C42.322 23.8222 42.1451 24.1606 41.8864 24.4512C41.6318 24.7378 41.3036 24.9607 40.9018 25.1199C40.5039 25.2751 40.0465 25.3528 39.5293 25.3528ZM43.3425 27.7172V18.5458H44.8822V19.6504H44.9776C45.0572 19.4912 45.1706 19.32 45.3178 19.137C45.465 18.9499 45.6639 18.7906 45.9146 18.6593C46.1692 18.5279 46.4934 18.4622 46.8873 18.4622C47.4005 18.4622 47.864 18.5936 48.2777 18.8564C48.6915 19.119 49.0197 19.5052 49.2624 20.0147C49.509 20.5243 49.6324 21.1512 49.6324 21.8955C49.6324 22.628 49.513 23.251 49.2743 23.7645C49.0356 24.278 48.7074 24.67 48.2897 24.9408C47.8759 25.2075 47.4064 25.3408 46.8813 25.3408C46.5033 25.3408 46.187 25.2771 45.9324 25.1497C45.6818 25.0184 45.4789 24.8631 45.3237 24.684C45.1726 24.5009 45.0572 24.3277 44.9776 24.1645H44.912V27.7172H43.3425ZM46.4516 24.0511C46.7977 24.0511 47.0862 23.9576 47.3169 23.7705C47.5517 23.5834 47.7287 23.3266 47.848 23.0002C47.9674 22.6738 48.0271 22.3036 48.0271 21.8896C48.0271 21.4756 47.9674 21.1074 47.848 20.7849C47.7287 20.4625 47.5536 20.2097 47.3229 20.0266C47.0921 19.8435 46.8017 19.752 46.4516 19.752C46.1135 19.752 45.827 19.8395 45.5923 20.0147C45.3615 20.1899 45.1845 20.4387 45.0612 20.7611C44.9418 21.0795 44.8822 21.4557 44.8822 21.8896C44.8822 22.3195 44.9418 22.6977 45.0612 23.0241C45.1845 23.3465 45.3635 23.5993 45.5983 23.7824C45.833 23.9616 46.1175 24.0511 46.4516 24.0511ZM52.0134 23.0897L54.6869 18.5458H56.2981V25.2214H54.7884V20.6715L52.1208 25.2214H50.5036V18.5458H52.0134V23.0897ZM56.7158 19.8356V18.5458H62.5462V19.8356H60.3919V25.2214H58.8701V19.8356H56.7158ZM66.0253 25.3528C65.3569 25.3528 64.78 25.2135 64.2947 24.9348C63.8093 24.6522 63.4353 24.2541 63.1727 23.7406C62.9142 23.2271 62.7849 22.6221 62.7849 21.9254C62.7849 21.2368 62.9142 20.6337 63.1727 20.1162C63.4314 19.5947 63.7953 19.1887 64.2648 18.8982C64.7343 18.6076 65.2873 18.4622 65.9238 18.4622C66.3335 18.4622 66.7215 18.5279 67.0875 18.6593C67.4575 18.7906 67.7837 18.9937 68.0662 19.2683C68.3526 19.543 68.5773 19.8933 68.7405 20.3192C68.9036 20.7412 68.9852 21.2447 68.9852 21.8299V22.3195H63.5188V21.2626H68.2034L67.4694 21.5732C67.4694 21.195 67.4117 20.8666 67.2964 20.5879C67.181 20.3053 67.0099 20.0843 66.7831 19.9251C66.5564 19.7659 66.2739 19.6863 65.9357 19.6863C65.5976 19.6863 65.3091 19.7659 65.0704 19.9251C64.8317 20.0843 64.6507 20.2993 64.5274 20.57C64.4041 20.8367 64.3424 21.1352 64.3424 21.4656V22.2001C64.3424 22.6061 64.412 22.9545 64.5513 23.245C64.6945 23.5316 64.8934 23.7505 65.148 23.9018C65.4066 24.0531 65.707 24.1287 66.0492 24.1287C66.2719 24.1287 66.4748 24.0968 66.6578 24.0332C66.8448 23.9695 67.004 23.874 67.1352 23.7466C67.2705 23.6152 67.3739 23.454 67.4455 23.2629L68.9136 23.4361C68.8181 23.8222 68.641 24.1606 68.3824 24.4512C68.1278 24.7378 67.7996 24.9607 67.3978 25.1199C66.9999 25.2751 66.5425 25.3528 66.0253 25.3528ZM72.4165 25.2214V18.5458H75.2153C76.003 18.5498 76.6256 18.7111 77.0831 19.0295C77.5445 19.344 77.7751 19.7818 77.7751 20.3431C77.7751 20.7213 77.6461 21.0278 77.3871 21.2626C77.1289 21.4935 76.7791 21.6507 76.3372 21.7343C76.6836 21.7622 76.9876 21.8517 77.2504 22.0031C77.517 22.1503 77.7255 22.3434 77.8767 22.5822C78.028 22.8211 78.1036 23.0978 78.1036 23.4122C78.1036 23.7784 78.0058 24.0988 77.811 24.3735C77.6201 24.6442 77.342 24.8532 76.9754 25.0004C76.6133 25.1477 76.1701 25.2214 75.6449 25.2214H72.4165ZM73.8846 23.9794H75.6449C75.9354 23.9834 76.1621 23.9178 76.3253 23.7824C76.4926 23.6431 76.5736 23.454 76.5698 23.2151C76.5736 22.9405 76.4926 22.7255 76.3253 22.5702C76.1621 22.411 75.9354 22.3315 75.6449 22.3315H73.8846V23.9794ZM73.8846 21.3164H75.2451C75.5634 21.3124 75.814 21.2428 75.9971 21.1074C76.1801 20.972 76.2716 20.7869 76.2716 20.5521C76.2716 20.3172 76.1781 20.1361 75.9911 20.0087C75.8041 19.8774 75.5455 19.8117 75.2153 19.8117H73.8846V21.3164ZM80.4547 23.0897L83.1282 18.5458H84.7399V25.2214H83.2298V20.6715L80.5624 25.2214H78.9454V18.5458H80.4547V23.0897ZM85.3128 27.162V23.9257H85.8376C85.9804 23.8182 86.1003 23.671 86.1958 23.4839C86.2913 23.2928 86.3684 23.0679 86.428 22.8092C86.4922 22.5464 86.5434 22.2538 86.5838 21.9314C86.6274 21.6089 86.6648 21.2626 86.6969 20.8924L86.8879 18.5458H91.7093V23.9257H92.7359V27.162H91.2204V25.2214H86.8581V27.162H85.3128ZM87.4546 23.9257H90.206V19.8177H88.2544L88.1467 20.8924C88.0917 21.597 88.0138 22.2021 87.9145 22.7076C87.819 23.2092 87.6655 23.6152 87.4546 23.9257ZM95.6721 19.8356V18.5458H101.503V19.8356H99.3478V25.2214H97.8262V19.8356H95.6721ZM102.302 27.7172V18.5458H103.841V19.6504H103.937C104.016 19.4912 104.13 19.32 104.278 19.137C104.424 18.9499 104.624 18.7906 104.874 18.6593C105.129 18.5279 105.453 18.4622 105.847 18.4622C106.36 18.4622 106.824 18.5936 107.238 18.8564C107.651 19.119 107.979 19.5052 108.222 20.0147C108.469 20.5243 108.592 21.1512 108.592 21.8955C108.592 22.628 108.473 23.251 108.234 23.7645C107.995 24.278 107.667 24.67 107.249 24.9408C106.836 25.2075 106.366 25.3408 105.84 25.3408C105.463 25.3408 105.147 25.2771 104.892 25.1497C104.641 25.0184 104.439 24.8631 104.283 24.684C104.132 24.5009 104.016 24.3277 103.937 24.1645H103.871V27.7172H102.302ZM105.411 24.0511C105.757 24.0511 106.046 23.9576 106.277 23.7705C106.511 23.5834 106.688 23.3266 106.808 23.0002C106.927 22.6738 106.986 22.3036 106.986 21.8896C106.986 21.4756 106.927 21.1074 106.808 20.7849C106.688 20.4625 106.513 20.2097 106.283 20.0266C106.052 19.8435 105.761 19.752 105.411 19.752C105.073 19.752 104.786 19.8395 104.552 20.0147C104.321 20.1899 104.144 20.4387 104.021 20.7611C103.901 21.0795 103.841 21.4557 103.841 21.8896C103.841 22.3195 103.901 22.6977 104.021 23.0241C104.144 23.3465 104.323 23.5993 104.558 23.7824C104.792 23.9616 105.077 24.0511 105.411 24.0511ZM111.384 25.3587C110.959 25.3587 110.577 25.2831 110.239 25.1318C109.901 24.9766 109.634 24.7497 109.439 24.4512C109.244 24.1526 109.147 23.7844 109.147 23.3465C109.147 22.9723 109.217 22.6618 109.356 22.415C109.495 22.1682 109.684 21.9712 109.922 21.8239C110.165 21.6766 110.438 21.5651 110.741 21.4895C111.042 21.4099 111.355 21.3542 111.677 21.3223C112.071 21.2785 112.389 21.2408 112.632 21.2089C112.875 21.177 113.05 21.1253 113.157 21.0537C113.268 20.982 113.324 20.8705 113.324 20.7193V20.6894C113.324 20.367 113.228 20.1162 113.037 19.9371C112.846 19.758 112.568 19.6684 112.203 19.6684C111.816 19.6684 111.51 19.752 111.284 19.9192C111.061 20.0863 110.909 20.2834 110.83 20.5103L109.368 20.3013C109.483 19.8952 109.674 19.5569 109.941 19.2863C110.207 19.0116 110.531 18.8066 110.913 18.6712C111.299 18.5319 111.725 18.4622 112.19 18.4622C112.509 18.4622 112.827 18.5 113.145 18.5757C113.464 18.6473 113.755 18.7708 114.022 18.9459C114.289 19.121 114.502 19.3559 114.661 19.6504C114.82 19.9451 114.9 20.3132 114.9 20.7551V25.2214H113.39V24.3019H113.342C113.247 24.485 113.112 24.6581 112.937 24.8214C112.766 24.9806 112.55 25.11 112.292 25.2095C112.037 25.309 111.735 25.3587 111.384 25.3587ZM111.785 24.2004C112.102 24.2004 112.377 24.1386 112.608 24.0153C112.839 23.8879 113.018 23.7207 113.145 23.5137C113.273 23.3027 113.336 23.0738 113.336 22.827V22.0449C113.284 22.0846 113.201 22.1225 113.086 22.1583C112.97 22.1902 112.839 22.22 112.691 22.2479C112.545 22.2757 112.399 22.2996 112.256 22.3195C112.117 22.3394 111.996 22.3553 111.892 22.3673C111.657 22.3991 111.446 22.4529 111.259 22.5285C111.077 22.6001 110.932 22.6996 110.824 22.827C110.716 22.9545 110.663 23.1196 110.663 23.3226C110.663 23.6132 110.768 23.8322 110.979 23.9794C111.19 24.1267 111.459 24.2004 111.785 24.2004ZM120.635 21.2327V22.5226H117.096V21.2327H120.635ZM117.573 18.5458V25.2214H116.063V18.5458H117.573ZM121.673 18.5458V25.2214H120.163V18.5458H121.673ZM125.736 25.3528C125.073 25.3528 124.501 25.2075 124.024 24.9169C123.546 24.6223 123.181 24.2163 122.926 23.6988C122.671 23.1813 122.544 22.5862 122.544 21.9135C122.544 21.2327 122.673 20.6337 122.932 20.1162C123.191 19.5987 123.559 19.1947 124.036 18.9041C124.514 18.6096 125.076 18.4622 125.725 18.4622C126.27 18.4622 126.752 18.5618 127.169 18.7608C127.586 18.9598 127.919 19.2405 128.165 19.6027C128.416 19.961 128.56 20.3809 128.596 20.8626H127.091C127.052 20.6476 126.974 20.4545 126.859 20.2834C126.743 20.1122 126.592 19.9769 126.405 19.8774C126.222 19.7779 126.003 19.7281 125.749 19.7281C125.426 19.7281 125.144 19.8157 124.902 19.9908C124.662 20.162 124.475 20.4088 124.34 20.7312C124.205 21.0537 124.138 21.4398 124.138 21.8896C124.138 22.3434 124.203 22.7355 124.334 23.0659C124.465 23.3923 124.653 23.6451 124.895 23.8242C125.138 23.9993 125.422 24.0869 125.749 24.0869C126.095 24.0869 126.387 23.9854 126.626 23.7824C126.868 23.5794 127.024 23.2988 127.091 22.9405H128.596C128.56 23.4142 128.42 23.8322 128.178 24.1944C127.935 24.5566 127.606 24.8412 127.193 25.0482C126.779 25.2513 126.294 25.3528 125.736 25.3528ZM129.443 25.2214V18.5458H135.076V25.2214H133.554V19.8356H130.941V25.2214H129.443ZM139.14 25.3528C138.487 25.3528 137.922 25.2095 137.445 24.9229C136.967 24.6363 136.598 24.2342 136.335 23.7167C136.077 23.1993 135.948 22.5981 135.948 21.9135C135.948 21.2248 136.077 20.6218 136.335 20.1043C136.598 19.5828 136.967 19.1788 137.445 18.8922C137.922 18.6056 138.487 18.4622 139.14 18.4622C139.792 18.4622 140.357 18.6056 140.835 18.8922C141.312 19.1788 141.682 19.5828 141.945 20.1043C142.207 20.6218 142.339 21.2248 142.339 21.9135C142.339 22.5981 142.207 23.1993 141.945 23.7167C141.682 24.2342 141.312 24.6363 140.835 24.9229C140.357 25.2095 139.792 25.3528 139.14 25.3528ZM139.14 24.0869C139.502 24.0869 139.8 23.9914 140.035 23.8003C140.269 23.6052 140.445 23.3426 140.56 23.0122C140.68 22.6818 140.739 22.3155 140.739 21.9135C140.739 21.5035 140.68 21.1332 140.56 20.8029C140.445 20.4725 140.269 20.2117 140.035 20.0207C139.8 19.8256 139.502 19.7281 139.14 19.7281C138.786 19.7281 138.49 19.8256 138.251 20.0207C138.012 20.2117 137.833 20.4725 137.714 20.8029C137.598 21.1332 137.54 21.5035 137.54 21.9135C137.54 22.3155 137.598 22.6818 137.714 23.0122C137.833 23.3426 138.012 23.6052 138.251 23.8003C138.49 23.9914 138.786 24.0869 139.14 24.0869ZM143.204 27.7172V18.5458H144.743V19.6504H144.839C144.918 19.4912 145.032 19.32 145.179 19.137C145.326 18.9499 145.525 18.7906 145.776 18.6593C146.03 18.5279 146.355 18.4622 146.748 18.4622C147.262 18.4622 147.725 18.5936 148.139 18.8564C148.553 19.119 148.881 19.5052 149.124 20.0147C149.37 20.5243 149.494 21.1512 149.494 21.8955C149.494 22.628 149.374 23.251 149.135 23.7645C148.897 24.278 148.569 24.67 148.151 24.9408C147.737 25.2075 147.268 25.3408 146.742 25.3408C146.365 25.3408 146.049 25.2771 145.794 25.1497C145.543 25.0184 145.34 24.8631 145.185 24.684C145.034 24.5009 144.918 24.3277 144.839 24.1645H144.773V27.7172H143.204ZM146.313 24.0511C146.659 24.0511 146.948 23.9576 147.178 23.7705C147.413 23.5834 147.59 23.3266 147.709 23.0002C147.828 22.6738 147.888 22.3036 147.888 21.8896C147.888 21.4756 147.828 21.1074 147.709 20.7849C147.59 20.4625 147.415 20.2097 147.185 20.0266C146.953 19.8435 146.663 19.752 146.313 19.752C145.975 19.752 145.688 19.8395 145.454 20.0147C145.223 20.1899 145.046 20.4387 144.923 20.7611C144.803 21.0795 144.743 21.4557 144.743 21.8896C144.743 22.3195 144.803 22.6977 144.923 23.0241C145.046 23.3465 145.224 23.5993 145.46 23.7824C145.694 23.9616 145.978 24.0511 146.313 24.0511ZM149.643 19.8356V18.5458H155.473V19.8356H153.319V25.2214H151.797V19.8356H149.643ZM157.92 25.3587C157.494 25.3587 157.112 25.2831 156.774 25.1318C156.436 24.9766 156.17 24.7497 155.974 24.4512C155.779 24.1526 155.682 23.7844 155.682 23.3465C155.682 22.9723 155.752 22.6618 155.891 22.415C156.03 22.1682 156.219 21.9712 156.458 21.8239C156.701 21.6766 156.973 21.5651 157.275 21.4895C157.577 21.4099 157.89 21.3542 158.212 21.3223C158.606 21.2785 158.924 21.2408 159.167 21.2089C159.41 21.177 159.585 21.1253 159.692 21.0537C159.803 20.982 159.859 20.8705 159.859 20.7193V20.6894C159.859 20.367 159.764 20.1162 159.573 19.9371C159.382 19.758 159.104 19.6684 158.737 19.6684C158.351 19.6684 158.045 19.752 157.818 19.9192C157.596 20.0863 157.445 20.2834 157.365 20.5103L155.903 20.3013C156.018 19.8952 156.209 19.5569 156.476 19.2863C156.743 19.0116 157.066 18.8066 157.448 18.6712C157.834 18.5319 158.26 18.4622 158.726 18.4622C159.044 18.4622 159.362 18.5 159.68 18.5757C159.999 18.6473 160.291 18.7708 160.557 18.9459C160.824 19.121 161.037 19.3559 161.196 19.6504C161.355 19.9451 161.435 20.3132 161.435 20.7551V25.2214H159.925V24.3019H159.877C159.782 24.485 159.647 24.6581 159.471 24.8214C159.3 24.9806 159.085 25.11 158.827 25.2095C158.572 25.309 158.27 25.3587 157.92 25.3587ZM158.32 24.2004C158.638 24.2004 158.913 24.1386 159.143 24.0153C159.374 23.8879 159.553 23.7207 159.68 23.5137C159.808 23.3027 159.871 23.0738 159.871 22.827V22.0449C159.819 22.0846 159.736 22.1225 159.621 22.1583C159.505 22.1902 159.374 22.22 159.227 22.2479C159.079 22.2757 158.934 22.2996 158.791 22.3195C158.652 22.3394 158.531 22.3553 158.427 22.3673C158.192 22.3991 157.982 22.4529 157.794 22.5285C157.612 22.6001 157.466 22.6996 157.359 22.827C157.251 22.9545 157.198 23.1196 157.198 23.3226C157.198 23.6132 157.303 23.8322 157.514 23.9794C157.725 24.1267 157.994 24.2004 158.32 24.2004Z" fill="#303030"/>
    <path d="M240.612 38.2143H21.3879C16.3255 38.2143 12.2217 42.3205 12.2217 47.3857V64.2C12.2217 69.2652 16.3255 73.3714 21.3879 73.3714H240.612C245.675 73.3714 249.779 69.2652 249.779 64.2V47.3857C249.779 42.3205 245.675 38.2143 240.612 38.2143Z" fill="#F8F8F8"/>
    <path d="M22.8618 60.3786H21.4355L24.6342 51.4818H26.1857L29.3783 60.3786H27.9581L25.4398 53.1H25.3681L22.8618 60.3786ZM23.1005 56.8975H27.7134V58.0201H23.1005V56.8975ZM30.0408 60.3786V53.703H32.7978C33.5497 53.707 34.1464 53.8702 34.588 54.1926C35.0297 54.5111 35.2484 54.945 35.2445 55.4943C35.2484 55.8844 35.1252 56.1929 34.8745 56.4198C34.6238 56.6428 34.2956 56.796 33.8899 56.8796C34.1843 56.9114 34.4548 56.999 34.7015 57.1423C34.9521 57.2856 35.153 57.4787 35.3042 57.7215C35.4593 57.9603 35.5369 58.2449 35.5369 58.5753C35.5369 58.9296 35.4434 59.2441 35.2564 59.5188C35.0734 59.7895 34.8108 60.0004 34.4687 60.1517C34.1266 60.3029 33.7108 60.3786 33.2215 60.3786H30.0408ZM31.2582 59.2859H33.2215C33.5398 59.2899 33.7904 59.2163 33.9734 59.0649C34.1564 58.9097 34.2459 58.7007 34.2419 58.438C34.2459 58.1275 34.1564 57.8847 33.9734 57.7095C33.7904 57.5304 33.5398 57.4408 33.2215 57.4408H31.2582V59.2859ZM31.2582 56.4915H32.8097C33.1757 56.4875 33.4622 56.4099 33.669 56.2586C33.8799 56.1033 33.9834 55.8944 33.9794 55.6317C33.9834 55.3729 33.8799 55.1719 33.669 55.0286C33.4582 54.8813 33.1678 54.8076 32.7978 54.8076H31.2582V56.4915ZM36.074 54.8256V53.703H41.6894V54.8256H39.5232V60.3786H38.2521V54.8256H36.074ZM45.0492 60.5159C44.4246 60.5159 43.8776 60.3726 43.4081 60.086C42.9427 59.7994 42.5806 59.3973 42.322 58.8799C42.0674 58.3624 41.9401 57.7613 41.9401 57.0766C41.9401 56.384 42.0674 55.779 42.322 55.2615C42.5806 54.74 42.9427 54.336 43.4081 54.0494C43.8776 53.7628 44.4246 53.6194 45.0492 53.6194C45.6778 53.6194 46.2248 53.7628 46.6903 54.0494C47.1558 54.336 47.5178 54.74 47.7764 55.2615C48.035 55.779 48.1643 56.384 48.1643 57.0766C48.1643 57.7613 48.035 58.3624 47.7764 58.8799C47.5178 59.3973 47.1558 59.7994 46.6903 60.086C46.2248 60.3726 45.6778 60.5159 45.0492 60.5159ZM45.0492 59.4232C45.459 59.4232 45.7971 59.3158 46.0637 59.1008C46.3302 58.8859 46.5272 58.6012 46.6545 58.2469C46.7858 57.8887 46.8514 57.4986 46.8514 57.0766C46.8514 56.6467 46.7858 56.2527 46.6545 55.8944C46.5272 55.5361 46.3302 55.2495 46.0637 55.0345C45.7971 54.8196 45.459 54.7121 45.0492 54.7121C44.6434 54.7121 44.3072 54.8196 44.0406 55.0345C43.7781 55.2495 43.5812 55.5361 43.4499 55.8944C43.3186 56.2527 43.253 56.6467 43.253 57.0766C43.253 57.4986 43.3186 57.8887 43.4499 58.2469C43.5812 58.6012 43.7781 58.8859 44.0406 59.1008C44.3072 59.3158 44.6434 59.4232 45.0492 59.4232ZM52.8369 58.7724L54.9912 53.703H56.1071L53.3203 60.3786H52.3535L49.6203 53.703H50.7243L52.8369 58.7724ZM50.3603 53.703V60.3786H49.1011V53.703H50.3603ZM55.3432 60.3786V53.703H56.5965V60.3786H55.3432ZM60.6365 60.5159C60.0119 60.5159 59.4649 60.3726 58.9954 60.086C58.5299 59.7994 58.1679 59.3973 57.9093 58.8799C57.6547 58.3624 57.5274 57.7613 57.5274 57.0766C57.5274 56.384 57.6547 55.779 57.9093 55.2615C58.1679 54.74 58.5299 54.336 58.9954 54.0494C59.4649 53.7628 60.0119 53.6194 60.6365 53.6194C61.265 53.6194 61.8121 53.7628 62.2775 54.0494C62.743 54.336 63.1051 54.74 63.3636 55.2615C63.6223 55.779 63.7515 56.384 63.7515 57.0766C63.7515 57.7613 63.6223 58.3624 63.3636 58.8799C63.1051 59.3973 62.743 59.7994 62.2775 60.086C61.8121 60.3726 61.265 60.5159 60.6365 60.5159ZM60.6365 59.4232C61.0463 59.4232 61.3844 59.3158 61.6509 59.1008C61.9175 58.8859 62.1144 58.6012 62.2418 58.2469C62.373 57.8887 62.4387 57.4986 62.4387 57.0766C62.4387 56.6467 62.373 56.2527 62.2418 55.8944C62.1144 55.5361 61.9175 55.2495 61.6509 55.0345C61.3844 54.8196 61.0463 54.7121 60.6365 54.7121C60.2307 54.7121 59.8945 54.8196 59.628 55.0345C59.3654 55.2495 59.1684 55.5361 59.0372 55.8944C58.9059 56.2527 58.8402 56.6467 58.8402 57.0766C58.8402 57.4986 58.9059 57.8887 59.0372 58.2469C59.1684 58.6012 59.3654 58.8859 59.628 59.1008C59.8945 59.3158 60.2307 59.4232 60.6365 59.4232ZM69.8205 51.225L70.3577 52.0431C70.1627 52.2262 69.9379 52.3556 69.6833 52.4312C69.4287 52.5068 69.1363 52.5546 68.8061 52.5745C68.4759 52.5944 68.0979 52.6123 67.6723 52.6283C67.1908 52.6402 66.795 52.7437 66.4847 52.9387C66.1783 53.1298 65.9416 53.4124 65.7746 53.7866C65.6074 54.1608 65.5 54.6325 65.4523 55.2018H65.5359C65.7467 54.7878 66.0451 54.4792 66.431 54.2762C66.8209 54.0693 67.2585 53.9658 67.7439 53.9658C68.2809 53.9658 68.7583 54.0891 69.1761 54.336C69.5938 54.5788 69.924 54.937 70.1667 55.4107C70.4094 55.8844 70.5287 56.4616 70.5247 57.1423C70.5287 57.835 70.4054 58.434 70.1548 58.9396C69.9041 59.4451 69.5481 59.8333 69.0865 60.1039C68.6291 60.3746 68.09 60.512 67.4693 60.5159C66.5345 60.512 65.7865 60.1935 65.2255 59.5606C64.6646 58.9237 64.3822 57.9922 64.3781 56.7661V56.1153C64.3822 54.5867 64.6566 53.4383 65.2017 52.6701C65.7467 51.9018 66.5603 51.5057 67.6424 51.4818C67.9925 51.4739 68.3048 51.4719 68.5793 51.4759C68.8538 51.4799 69.0945 51.4679 69.3014 51.44C69.5083 51.4082 69.6814 51.3365 69.8205 51.225ZM67.4693 59.4292C67.8354 59.4252 68.1476 59.3317 68.4063 59.1485C68.6648 58.9654 68.8657 58.7047 69.009 58.3664C69.1522 58.028 69.2218 57.6279 69.2179 57.1662C69.2218 56.7164 69.1522 56.3342 69.009 56.0198C68.8657 55.7013 68.6628 55.4585 68.4003 55.2913C68.1377 55.1241 67.8215 55.0405 67.4515 55.0405C67.1809 55.0405 66.9382 55.0883 66.7234 55.1838C66.5086 55.2793 66.3255 55.4187 66.1744 55.6018C66.0232 55.7809 65.9058 56.0018 65.8223 56.2646C65.7427 56.5273 65.699 56.8279 65.691 57.1662C65.691 57.8509 65.8481 58.3982 66.1625 58.8082C66.4808 59.2182 66.9164 59.4252 67.4693 59.4292ZM72.7267 58.5515L75.6688 53.703H77.0655V60.3786H75.8001V55.5241L72.87 60.3786H71.4676V53.703H72.7267V58.5515ZM77.7751 60.3786L77.769 59.256H78.002C78.2525 59.252 78.4496 59.1784 78.5932 59.0351C78.7398 58.8878 78.8498 58.6271 78.9209 58.253C78.9965 57.8788 79.0461 57.3493 79.0706 56.6646L79.1897 53.703H83.8385V60.3786H82.5675V54.8256H80.3829L80.2759 57.1005C80.2515 57.6499 80.198 58.1295 80.1148 58.5396C80.0307 58.9495 79.9078 59.2918 79.7443 59.5665C79.5816 59.8372 79.3723 60.0402 79.1179 60.1756C78.8636 60.3109 78.5535 60.3786 78.1868 60.3786H77.7751ZM86.046 56.0078H87.9862C88.7974 56.0038 89.4222 56.2049 89.8599 56.6109C90.3014 57.0169 90.5237 57.5404 90.5283 58.1813C90.5283 58.5992 90.4282 58.9734 90.2296 59.3038C90.031 59.6342 89.7423 59.8969 89.3642 60.092C88.9861 60.283 88.527 60.3786 87.9862 60.3786H85.0737V53.703H86.3325V59.256H87.9862C88.3559 59.256 88.6599 59.1605 88.899 58.9694C89.1373 58.7743 89.2588 58.5236 89.2626 58.2171C89.2588 57.8947 89.1373 57.6319 88.899 57.4289C88.6599 57.2259 88.3559 57.1264 87.9862 57.1304H86.046V56.0078Z" fill="#303030"/>
    <path d="M231.064 59.6143L234.884 55.7929L231.064 51.9714" stroke="#303030" stroke-width="2" stroke-linecap="round" stroke-linejoin="round"/>
    <path d="M240.612 81.0143H21.3879C16.3255 81.0143 12.2217 85.1205 12.2217 90.1857V107C12.2217 112.065 16.3255 116.171 21.3879 116.171H240.612C245.675 116.171 249.779 112.065 249.779 107V90.1857C249.779 85.1205 245.675 81.0143 240.612 81.0143Z" fill="#F8F8F8"/>
    <path d="M22.1035 94.2815H23.7386L26.5672 101.196H26.6687L29.5033 94.2815H31.1623V103.179H29.8494V96.7417H29.7659L27.1341 103.166H26.0719L23.4701 96.7356H23.3866V103.179H22.1035V94.2815ZM35.2978 103.316C34.6732 103.316 34.1262 103.172 33.6567 102.886C33.1912 102.599 32.8292 102.197 32.5706 101.68C32.316 101.162 32.1887 100.562 32.1887 99.8768C32.1887 99.1836 32.316 98.5791 32.5706 98.0616C32.8292 97.5396 33.1912 97.1361 33.6567 96.8495C34.1262 96.5629 34.6732 96.4192 35.2978 96.4192C35.9264 96.4192 36.4734 96.5629 36.9389 96.8495C37.4044 97.1361 37.7664 97.5396 38.0249 98.0616C38.2836 98.5791 38.4129 99.1836 38.4129 99.8768C38.4129 100.562 38.2836 101.162 38.0249 101.68C37.7664 102.197 37.4044 102.599 36.9389 102.886C36.4734 103.172 35.9264 103.316 35.2978 103.316ZM35.2978 102.223C35.7076 102.223 36.0457 102.115 36.3123 101.901C36.5788 101.686 36.7757 101.401 36.9031 101.047C37.0344 100.688 37.1 100.299 37.1 99.8768C37.1 99.4465 37.0344 99.0529 36.9031 98.6945C36.7757 98.336 36.5788 98.0494 36.3123 97.8347C36.0457 97.6199 35.7076 97.5121 35.2978 97.5121C34.892 97.5121 34.5558 97.6199 34.2893 97.8347C34.0267 98.0494 33.8298 98.336 33.6985 98.6945C33.5672 99.0529 33.5016 99.4465 33.5016 99.8768C33.5016 100.299 33.5672 100.688 33.6985 101.047C33.8298 101.401 34.0267 101.686 34.2893 101.901C34.5558 102.115 34.892 102.223 35.2978 102.223ZM38.5441 97.6252V96.5033H44.1596V97.6252H41.9934V103.179H40.7223V97.6252H38.5441ZM47.5193 103.316C46.8947 103.316 46.3478 103.172 45.8783 102.886C45.4128 102.599 45.0508 102.197 44.7922 101.68C44.5376 101.162 44.4103 100.562 44.4103 99.8768C44.4103 99.1836 44.5376 98.5791 44.7922 98.0616C45.0508 97.5396 45.4128 97.1361 45.8783 96.8495C46.3478 96.5629 46.8947 96.4192 47.5193 96.4192C48.148 96.4192 48.695 96.5629 49.1605 96.8495C49.626 97.1361 49.988 97.5396 50.2465 98.0616C50.5052 98.5791 50.6345 99.1836 50.6345 99.8768C50.6345 100.562 50.5052 101.162 50.2465 101.68C49.988 102.197 49.626 102.599 49.1605 102.886C48.695 103.172 48.148 103.316 47.5193 103.316ZM47.5193 102.223C47.9292 102.223 48.2673 102.115 48.5339 101.901C48.8004 101.686 48.9973 101.401 49.1247 101.047C49.256 100.688 49.3216 100.299 49.3216 99.8768C49.3216 99.4465 49.256 99.0529 49.1247 98.6945C48.9973 98.336 48.8004 98.0494 48.5339 97.8347C48.2673 97.6199 47.9292 97.5121 47.5193 97.5121C47.1136 97.5121 46.7774 97.6199 46.5108 97.8347C46.2483 98.0494 46.0514 98.336 45.9201 98.6945C45.7888 99.0529 45.7232 99.4465 45.7232 99.8768C45.7232 100.299 45.7888 100.688 45.9201 101.047C46.0514 101.401 46.2483 101.686 46.5108 101.901C46.7774 102.115 47.1136 102.223 47.5193 102.223ZM57.0018 96.5033V103.179H51.5713V96.5033H52.8425V102.056H55.7487V96.5033H57.0018ZM57.9865 102.115V105.328H56.7035V102.115H57.9865ZM60.0513 101.351L62.9933 96.5033H64.3897V103.179H63.1245V98.3238L60.1945 103.179H58.7921V96.5033H60.0513V101.351ZM65.631 103.179V96.5033H66.9199V99.3036H67.5465L69.7486 96.5033H71.3478L68.7759 99.7568L71.3837 103.179H69.7725L67.7613 100.51H66.9199V103.179H65.631ZM71.3419 103.179L71.3359 102.056H71.5687C71.8193 102.052 72.0162 101.979 72.1595 101.835C72.3067 101.687 72.4161 101.427 72.4876 101.053C72.5633 100.679 72.613 100.149 72.6369 99.4649L72.7562 96.5033H77.405V103.179H76.1339V97.6252H73.9497L73.8423 99.9005C73.8184 100.45 73.7647 100.929 73.6812 101.34C73.5977 101.749 73.4743 102.092 73.3112 102.367C73.1481 102.637 72.9392 102.84 72.6846 102.975C72.43 103.111 72.1197 103.179 71.7537 103.179H71.3419Z" fill="#303030"/>
    <path d="M231.064 102.414L234.884 98.5929L231.064 94.7715" stroke="#303030" stroke-width="2" stroke-linecap="round" stroke-linejoin="round"/>
    <path d="M240.612 123.814H21.3879C16.3255 123.814 12.2217 127.921 12.2217 132.986V149.8C12.2217 154.865 16.3255 158.971 21.3879 158.971H240.612C245.675 158.971 249.779 154.865 249.779 149.8V132.986C249.779 127.921 245.675 123.814 240.612 123.814Z" fill="#F8F8F8"/>
    <path d="M22.1035 145.979V137.082H25.3677C25.9964 137.082 26.5175 137.185 26.9313 137.393C27.345 137.599 27.6533 137.88 27.8563 138.234C28.0631 138.585 28.1666 138.979 28.1666 139.416C28.1666 139.786 28.097 140.099 27.9577 140.354C27.8224 140.609 27.6414 140.812 27.4146 140.963C27.1879 141.114 26.9372 141.226 26.6627 141.297V141.381C26.9611 141.397 27.2515 141.492 27.534 141.667C27.8165 141.843 28.0492 142.091 28.2322 142.414C28.4192 142.733 28.5127 143.122 28.5127 143.584C28.5127 144.038 28.4053 144.446 28.1904 144.808C27.9796 145.167 27.6533 145.451 27.2118 145.662C26.7702 145.873 26.2032 145.979 25.511 145.979H22.1035ZM23.4462 144.832H25.3797C26.0242 144.832 26.4857 144.707 26.7642 144.456C27.0426 144.205 27.1819 143.893 27.1819 143.518C27.1819 143.236 27.1103 142.98 26.9671 142.748C26.8278 142.513 26.6269 142.326 26.3643 142.187C26.1018 142.048 25.7915 141.978 25.4334 141.978H23.4462V144.832ZM23.4462 140.933H25.2484C25.5468 140.933 25.8173 140.875 26.06 140.76C26.3027 140.645 26.4937 140.481 26.6329 140.27C26.7761 140.055 26.8477 139.806 26.8477 139.524C26.8477 139.158 26.7185 138.851 26.4598 138.605C26.2052 138.353 25.8134 138.228 25.2843 138.228H23.4462V140.933ZM32.3618 146.116C31.7093 146.116 31.1443 145.975 30.6669 145.692C30.1895 145.409 29.8216 145.011 29.563 144.497C29.3084 143.98 29.181 143.377 29.181 142.688C29.181 142.004 29.3064 141.401 29.557 140.879C29.8116 140.358 30.1677 139.952 30.6252 139.661C31.0867 139.367 31.6277 139.219 32.2484 139.219C32.6263 139.219 32.9923 139.281 33.3464 139.404C33.7005 139.528 34.0188 139.723 34.3012 139.99C34.5837 140.256 34.8065 140.603 34.9695 141.028C35.1367 141.455 35.2202 141.968 35.2202 142.569V143.035H29.9151V142.062H34.5519L33.9491 142.384C33.9491 141.974 33.8855 141.611 33.7582 141.297C33.6308 140.983 33.4399 140.738 33.1853 140.563C32.9347 140.384 32.6223 140.294 32.2484 140.294C31.8744 140.294 31.5542 140.384 31.2876 140.563C31.025 140.742 30.8241 140.979 30.6849 141.274C30.5456 141.568 30.476 141.89 30.476 142.24V142.904C30.476 143.362 30.5556 143.749 30.7147 144.068C30.8739 144.387 31.0946 144.629 31.3771 144.796C31.6635 144.964 31.9957 145.047 32.3737 145.047C32.6203 145.047 32.8431 145.011 33.0421 144.94C33.2449 144.868 33.42 144.76 33.5672 144.617C33.7144 144.474 33.8258 144.296 33.9014 144.085L35.1307 144.319C35.0313 144.677 34.8562 144.991 34.6056 145.262C34.355 145.533 34.0386 145.744 33.6567 145.895C33.2788 146.042 32.8471 146.116 32.3618 146.116ZM35.5962 145.979L35.5903 144.856H35.8229C36.0736 144.852 36.2705 144.779 36.4138 144.635C36.561 144.487 36.6703 144.227 36.742 143.853C36.8175 143.479 36.8673 142.949 36.8912 142.265L37.0105 139.303H41.6593V145.979H40.3881V140.425H38.204L38.0966 142.701C38.0728 143.25 38.019 143.729 37.9355 144.14C37.8519 144.549 37.7286 144.892 37.5655 145.167C37.4023 145.437 37.1935 145.64 36.9389 145.775C36.6842 145.911 36.374 145.979 36.0079 145.979H35.5962ZM45.6933 146.116C45.0687 146.116 44.5217 145.972 44.0522 145.686C43.5868 145.399 43.2247 144.997 42.9661 144.48C42.7115 143.962 42.5842 143.362 42.5842 142.677C42.5842 141.984 42.7115 141.379 42.9661 140.862C43.2247 140.34 43.5868 139.936 44.0522 139.65C44.5217 139.363 45.0687 139.219 45.6933 139.219C46.3219 139.219 46.8689 139.363 47.3344 139.65C47.7998 139.936 48.1619 140.34 48.4205 140.862C48.6791 141.379 48.8083 141.984 48.8083 142.677C48.8083 143.362 48.6791 143.962 48.4205 144.48C48.1619 144.997 47.7998 145.399 47.3344 145.686C46.8689 145.972 46.3219 146.116 45.6933 146.116ZM45.6933 145.023C46.1031 145.023 46.4413 144.915 46.7078 144.701C46.9743 144.486 47.1713 144.201 47.2986 143.847C47.4299 143.489 47.4955 143.099 47.4955 142.677C47.4955 142.247 47.4299 141.853 47.2986 141.495C47.1713 141.136 46.9743 140.849 46.7078 140.635C46.4413 140.42 46.1031 140.312 45.6933 140.312C45.2875 140.312 44.9514 140.42 44.6848 140.635C44.4222 140.849 44.2253 141.136 44.094 141.495C43.9627 141.853 43.8971 142.247 43.8971 142.677C43.8971 143.099 43.9627 143.489 44.094 143.847C44.2253 144.201 44.4222 144.486 44.6848 144.701C44.9514 144.915 45.2875 145.023 45.6933 145.023ZM52.5441 146.116C51.9035 146.116 51.3506 145.969 50.8851 145.674C50.4196 145.379 50.0616 144.974 49.8109 144.456C49.5603 143.939 49.435 143.346 49.435 142.677C49.435 141.996 49.5623 141.397 49.8169 140.879C50.0755 140.358 50.4355 139.952 50.897 139.661C51.3625 139.367 51.9075 139.219 52.5321 139.219C53.0414 139.219 53.4929 139.313 53.8868 139.5C54.2846 139.683 54.6049 139.944 54.8476 140.282C55.0942 140.621 55.2394 141.015 55.2832 141.465H54.0181C53.9743 141.254 53.8888 141.06 53.7614 140.885C53.6382 140.71 53.475 140.571 53.2721 140.467C53.0692 140.364 52.8286 140.312 52.5501 140.312C52.188 140.312 51.8718 140.408 51.6012 140.599C51.3346 140.786 51.1258 141.054 50.9746 141.405C50.8235 141.755 50.7478 142.169 50.7478 142.647C50.7478 143.129 50.8215 143.548 50.9687 143.907C51.1159 144.265 51.3247 144.542 51.5952 144.737C51.8697 144.928 52.188 145.023 52.5501 145.023C52.924 145.023 53.2423 144.92 53.5049 144.713C53.7714 144.506 53.9425 144.223 54.0181 143.865H55.2832C55.2394 144.299 55.1002 144.685 54.8654 145.023C54.6307 145.362 54.3165 145.629 53.9226 145.823C53.5287 146.018 53.0692 146.116 52.5441 146.116ZM57.4614 144.151L60.4033 139.303H61.7997V145.979H60.5346V141.124L57.6046 145.979H56.2022V139.303H57.4614V144.151ZM63.041 145.979V139.303H68.4715V145.979H67.2004V140.425H64.2942V145.979H63.041ZM72.5831 146.116C71.9307 146.116 71.3658 145.975 70.8884 145.692C70.411 145.409 70.0429 145.011 69.7844 144.497C69.5297 143.98 69.4025 143.377 69.4025 142.688C69.4025 142.004 69.5277 141.401 69.7784 140.879C70.033 140.358 70.389 139.952 70.8466 139.661C71.3081 139.367 71.8491 139.219 72.4698 139.219C72.8477 139.219 73.2138 139.281 73.5678 139.404C73.9218 139.528 74.2401 139.723 74.5226 139.99C74.8051 140.256 75.0279 140.603 75.191 141.028C75.358 141.455 75.4416 141.968 75.4416 142.569V143.035H70.1364V142.062H74.7732L74.1706 142.384C74.1706 141.974 74.1068 141.611 73.9796 141.297C73.8523 140.983 73.6613 140.738 73.4067 140.563C73.156 140.384 72.8438 140.294 72.4698 140.294C72.0958 140.294 71.7755 140.384 71.509 140.563C71.2464 140.742 71.0455 140.979 70.9062 141.274C70.767 141.568 70.6974 141.89 70.6974 142.24V142.904C70.6974 143.362 70.777 143.749 70.9361 144.068C71.0952 144.387 71.3161 144.629 71.5985 144.796C71.885 144.964 72.2172 145.047 72.5951 145.047C72.8418 145.047 73.0645 145.011 73.2635 144.94C73.4664 144.868 73.6414 144.76 73.7886 144.617C73.9358 144.474 74.0472 144.296 74.1228 144.085L75.3521 144.319C75.2526 144.677 75.0776 144.991 74.8269 145.262C74.5763 145.533 74.2601 145.744 73.8782 145.895C73.5002 146.042 73.0686 146.116 72.5831 146.116ZM75.6923 147.902V144.856H76.2294C76.3686 144.729 76.4876 144.578 76.5877 144.403C76.687 144.223 76.7687 144.012 76.8321 143.769C76.8993 143.522 76.9574 143.238 77.0047 142.915C77.0529 142.593 77.0949 142.221 77.1308 141.799L77.3393 139.303H81.8689V144.856H82.8948V147.902H81.6237V145.979H76.9811V147.902H75.6923ZM77.6257 144.856H80.6032V140.414H78.4973L78.3537 141.799C78.2941 142.503 78.2124 143.113 78.1093 143.626C78.01 144.136 77.8488 144.546 77.6257 144.856Z" fill="#303030"/>
    <path d="M231.064 145.214L234.884 141.393L231.064 137.571" stroke="#303030" stroke-width="2" stroke-linecap="round" stroke-linejoin="round"/>
    <path d="M240.612 166.614H21.3879C16.3255 166.614 12.2217 170.72 12.2217 175.786V192.6C12.2217 197.665 16.3255 201.771 21.3879 201.771H240.612C245.675 201.771 249.779 197.665 249.779 192.6V175.786C249.779 170.72 245.675 166.614 240.612 166.614Z" fill="#F8F8F8"/>
    <path d="M25.8157 188.898C25.0518 188.898 24.3675 188.715 23.7628 188.349C23.1581 187.982 22.6827 187.459 22.3366 186.778C21.9905 186.094 21.8174 185.28 21.8174 184.337C21.8174 183.385 21.9905 182.569 22.3366 181.888C22.6866 181.204 23.1621 180.678 23.7628 180.312C24.3675 179.946 25.0518 179.762 25.8157 179.762C26.2851 179.762 26.7247 179.83 27.1345 179.966C27.5482 180.101 27.9182 180.298 28.2445 180.556C28.5706 180.816 28.8392 181.132 29.05 181.506C29.2649 181.88 29.4081 182.304 29.4798 182.777H28.131C28.0793 182.487 27.9819 182.232 27.8386 182.013C27.6994 181.791 27.5264 181.603 27.3195 181.452C27.1166 181.297 26.8878 181.182 26.6332 181.106C26.3826 181.026 26.116 180.987 25.8335 180.987C25.3243 180.987 24.8648 181.116 24.455 181.374C24.0493 181.629 23.729 182.008 23.4943 182.509C23.2635 183.007 23.1482 183.616 23.1482 184.337C23.1482 185.06 23.2655 185.672 23.5002 186.169C23.7349 186.663 24.0552 187.037 24.461 187.292C24.8668 187.547 25.3223 187.674 25.8276 187.674C26.1101 187.674 26.3766 187.636 26.6273 187.56C26.8779 187.485 27.1067 187.372 27.3135 187.22C27.5204 187.069 27.6934 186.885 27.8327 186.671C27.9759 186.452 28.0754 186.199 28.131 185.913H29.4798C29.4121 186.354 29.2748 186.759 29.068 187.125C28.8611 187.487 28.5965 187.801 28.2743 188.068C27.9521 188.331 27.5841 188.536 27.1703 188.683C26.7565 188.826 26.305 188.898 25.8157 188.898ZM32.4158 188.922C31.9941 188.922 31.6121 188.844 31.27 188.689C30.9279 188.529 30.6573 188.299 30.4584 187.997C30.2595 187.694 30.1601 187.326 30.1601 186.892C30.1601 186.513 30.2316 186.205 30.3749 185.966C30.522 185.724 30.719 185.53 30.9657 185.387C31.2123 185.244 31.4869 185.136 31.7892 185.065C32.0915 184.993 32.4019 184.937 32.7201 184.898C33.122 184.854 33.4462 184.816 33.6929 184.784C33.9395 184.752 34.1185 184.703 34.2299 184.635C34.3453 184.563 34.403 184.45 34.403 184.295V184.265C34.403 183.886 34.2955 183.594 34.0807 183.387C33.8698 183.179 33.5556 183.076 33.1378 183.076C32.7042 183.076 32.3601 183.172 32.1054 183.363C31.8548 183.55 31.6818 183.763 31.5863 184.002L30.3629 183.721C30.5101 183.315 30.723 182.988 31.0014 182.742C31.2839 182.491 31.6062 182.308 31.9682 182.193C32.3342 182.077 32.7161 182.019 33.114 182.019C33.3805 182.019 33.663 182.051 33.9613 182.115C34.2598 182.174 34.5403 182.288 34.8028 182.456C35.0694 182.618 35.2862 182.853 35.4533 183.16C35.6204 183.466 35.7039 183.863 35.7039 184.348V188.779H34.4328V187.865H34.3851C34.3055 188.028 34.1802 188.192 34.0091 188.354C33.842 188.518 33.6272 188.653 33.3646 188.761C33.102 188.868 32.7858 188.922 32.4158 188.922ZM32.6963 187.883C33.0583 187.883 33.3666 187.813 33.6212 187.674C33.8759 187.531 34.0708 187.343 34.206 187.112C34.3413 186.882 34.409 186.637 34.409 186.378V185.513C34.3612 185.556 34.2717 185.598 34.1404 185.638C34.0091 185.678 33.8599 185.712 33.6929 185.739C33.5257 185.767 33.3626 185.793 33.2035 185.817C33.0443 185.837 32.9111 185.853 32.8037 185.865C32.553 185.9 32.3243 185.956 32.1174 186.032C31.9105 186.104 31.7434 186.211 31.6161 186.354C31.4928 186.493 31.4311 186.679 31.4311 186.91C31.4311 187.232 31.5505 187.475 31.7892 187.638C32.0279 187.801 32.3302 187.883 32.6963 187.883ZM40.6868 187.172L42.8411 182.103H43.9571L41.1702 188.779H40.2034L37.4703 182.103H38.5743L40.6868 187.172ZM38.2103 182.103V188.779H36.9511V182.103H38.2103ZM43.1932 188.779V182.103H44.4464V188.779H43.1932ZM48.4865 188.916C47.8619 188.916 47.3148 188.772 46.8453 188.486C46.3799 188.199 46.0179 187.797 45.7592 187.28C45.5046 186.762 45.3773 186.162 45.3773 185.477C45.3773 184.784 45.5046 184.179 45.7592 183.662C46.0179 183.14 46.3799 182.736 46.8453 182.45C47.3148 182.163 47.8619 182.019 48.4865 182.019C49.115 182.019 49.662 182.163 50.1275 182.45C50.593 182.736 50.955 183.14 51.2136 183.662C51.4722 184.179 51.6015 184.784 51.6015 185.477C51.6015 186.162 51.4722 186.762 51.2136 187.28C50.955 187.797 50.593 188.199 50.1275 188.486C49.662 188.772 49.115 188.916 48.4865 188.916ZM48.4865 187.823C48.8962 187.823 49.2343 187.715 49.5009 187.501C49.7674 187.286 49.9644 187.001 50.0917 186.647C50.223 186.289 50.2886 185.899 50.2886 185.477C50.2886 185.047 50.223 184.653 50.0917 184.295C49.9644 183.936 49.7674 183.649 49.5009 183.435C49.2343 183.22 48.8962 183.112 48.4865 183.112C48.0806 183.112 47.7445 183.22 47.4779 183.435C47.2153 183.649 47.0184 183.936 46.8871 184.295C46.7558 184.653 46.6902 185.047 46.6902 185.477C46.6902 185.899 46.7558 186.289 46.8871 186.647C47.0184 187.001 47.2153 187.286 47.4779 187.501C47.7445 187.715 48.0806 187.823 48.4865 187.823ZM52.5384 188.779V182.103H53.8274V184.904H54.454L56.656 182.103H58.2553L55.6833 185.357L58.2911 188.779H56.6799L54.6688 186.11H53.8274V188.779H52.5384ZM60.714 188.922C60.2923 188.922 59.9103 188.844 59.5682 188.689C59.2261 188.529 58.9555 188.299 58.7566 187.997C58.5577 187.694 58.4582 187.326 58.4582 186.892C58.4582 186.513 58.5298 186.205 58.6731 185.966C58.8203 185.724 59.0172 185.53 59.2638 185.387C59.5105 185.244 59.785 185.136 60.0874 185.065C60.3897 184.993 60.7 184.937 61.0183 184.898C61.4202 184.854 61.7443 184.816 61.991 184.784C62.2377 184.752 62.4167 184.703 62.5281 184.635C62.6435 184.563 62.7011 184.45 62.7011 184.295V184.265C62.7011 183.886 62.5937 183.594 62.379 183.387C62.1681 183.179 61.8538 183.076 61.4361 183.076C61.0024 183.076 60.6583 183.172 60.4036 183.363C60.153 183.55 59.9799 183.763 59.8845 184.002L58.6611 183.721C58.8083 183.315 59.0211 182.988 59.2996 182.742C59.5821 182.491 59.9044 182.308 60.2664 182.193C60.6324 182.077 61.0143 182.019 61.4122 182.019C61.6787 182.019 61.9612 182.051 62.2596 182.115C62.5579 182.174 62.8384 182.288 63.101 182.456C63.3675 182.618 63.5844 182.853 63.7514 183.16C63.9186 183.466 64.0021 183.863 64.0021 184.348V188.779H62.731V187.865H62.6833C62.6037 188.028 62.4784 188.192 62.3073 188.354C62.1402 188.518 61.9254 188.653 61.6628 188.761C61.4002 188.868 61.084 188.922 60.714 188.922ZM60.9945 187.883C61.3565 187.883 61.6648 187.813 61.9194 187.674C62.174 187.531 62.3689 187.343 62.5042 187.112C62.6395 186.882 62.7072 186.637 62.7072 186.378V185.513C62.6594 185.556 62.5699 185.598 62.4386 185.638C62.3073 185.678 62.1581 185.712 61.991 185.739C61.8239 185.767 61.6609 185.793 61.5017 185.817C61.3426 185.837 61.2093 185.853 61.1019 185.865C60.8513 185.9 60.6225 185.956 60.4156 186.032C60.2087 186.104 60.0417 186.211 59.9143 186.354C59.791 186.493 59.7293 186.679 59.7293 186.91C59.7293 187.232 59.8487 187.475 60.0874 187.638C60.3261 187.801 60.6284 187.883 60.9945 187.883ZM64.4198 183.225V182.103H70.0353V183.225H67.8691V188.779H66.598V183.225H64.4198Z" fill="#303030"/>
    <path d="M231.064 188.014L234.884 184.193L231.064 180.371" stroke="#303030" stroke-width="2" stroke-linecap="round" stroke-linejoin="round"/>
</svg>
