<svg width="375" height="312" viewBox="0 0 375 312" fill="none" xmlns="http://www.w3.org/2000/svg">
<g filter="url(#filter0_d_5500_3457)">
<rect x="16" y="8" width="343" height="280" rx="16" fill="white" shape-rendering="crispEdges"/>
<path d="M32.8438 41V29.3594H37.3125C38.151 29.3594 38.849 29.4922 39.4062 29.7578C39.9635 30.0182 40.3802 30.3776 40.6562 30.8359C40.9323 31.2891 41.0703 31.8021 41.0703 32.375C41.0703 32.849 40.9792 33.2552 40.7969 33.5938C40.6198 33.9271 40.3776 34.1979 40.0703 34.4062C39.763 34.6146 39.4193 34.7656 39.0391 34.8594V34.9766C39.4557 34.9922 39.8516 35.1172 40.2266 35.3516C40.6068 35.5807 40.9167 35.9036 41.1562 36.3203C41.401 36.737 41.5234 37.2396 41.5234 37.8281C41.5234 38.4323 41.3776 38.974 41.0859 39.4531C40.7995 39.9271 40.362 40.3047 39.7734 40.5859C39.1901 40.862 38.4531 41 37.5625 41H32.8438ZM34.9531 39.2422H37.2188C37.9844 39.2422 38.5365 39.0938 38.875 38.7969C39.2188 38.5 39.3906 38.1224 39.3906 37.6641C39.3906 37.3151 39.3047 37.0026 39.1328 36.7266C38.9609 36.4505 38.7161 36.2318 38.3984 36.0703C38.0859 35.9089 37.7161 35.8281 37.2891 35.8281H34.9531V39.2422ZM34.9531 34.3125H37.0469C37.4062 34.3125 37.7318 34.2448 38.0234 34.1094C38.3151 33.974 38.5443 33.7839 38.7109 33.5391C38.8828 33.2891 38.9688 32.9948 38.9688 32.6562C38.9688 32.2083 38.8099 31.8385 38.4922 31.5469C38.1745 31.25 37.7083 31.1016 37.0938 31.1016H34.9531V34.3125ZM44.0781 35.1172H46.6484C47.7578 35.112 48.6172 35.3828 49.2266 35.9297C49.8411 36.4714 50.1484 37.1797 50.1484 38.0547C50.1484 38.6276 50.0104 39.1354 49.7344 39.5781C49.4583 40.0208 49.0599 40.3698 48.5391 40.625C48.0182 40.875 47.388 41 46.6484 41H42.6797V32.2656H44.6562V39.3125H46.6484C47.0911 39.3125 47.4557 39.2005 47.7422 38.9766C48.0339 38.7474 48.1797 38.4505 48.1797 38.0859C48.1797 37.7057 48.0339 37.3958 47.7422 37.1562C47.4557 36.9167 47.0911 36.7995 46.6484 36.8047H44.0781V35.1172ZM51.2422 41V32.2656H53.2969V41H51.2422ZM61.7969 29.0469L62.5234 30.3672C62.2682 30.5911 61.9818 30.7526 61.6641 30.8516C61.3516 30.9505 60.9818 31.0156 60.5547 31.0469C60.1328 31.0729 59.6328 31.0911 59.0547 31.1016C58.4036 31.1172 57.8724 31.2396 57.4609 31.4688C57.0495 31.6979 56.7318 32.0469 56.5078 32.5156C56.2891 32.9844 56.1484 33.5833 56.0859 34.3125H56.1797C56.4505 33.776 56.8307 33.3672 57.3203 33.0859C57.8151 32.8047 58.3932 32.6641 59.0547 32.6641C59.7786 32.6641 60.4167 32.8255 60.9688 33.1484C61.526 33.4714 61.9609 33.9401 62.2734 34.5547C62.5911 35.1693 62.7474 35.9141 62.7422 36.7891C62.7474 37.6849 62.5807 38.4609 62.2422 39.1172C61.9036 39.7734 61.4245 40.2812 60.8047 40.6406C60.1849 40.9948 59.4531 41.1719 58.6094 41.1719C57.3333 41.1719 56.3203 40.7578 55.5703 39.9297C54.8255 39.0964 54.4505 37.8802 54.4453 36.2812V35.5078C54.4505 33.4505 54.8333 31.9193 55.5938 30.9141C56.3594 29.9036 57.4948 29.3854 59 29.3594C59.4479 29.349 59.849 29.3464 60.2031 29.3516C60.5573 29.3568 60.8672 29.3411 61.1328 29.3047C61.3984 29.263 61.6198 29.1771 61.7969 29.0469ZM58.6172 39.5312C59.0391 39.526 59.401 39.4167 59.7031 39.2031C60.0104 38.9844 60.2474 38.6745 60.4141 38.2734C60.5807 37.8724 60.6615 37.3958 60.6562 36.8438C60.6615 36.3021 60.5807 35.8411 60.4141 35.4609C60.2474 35.0755 60.0104 34.7839 59.7031 34.5859C59.3958 34.388 59.026 34.2891 58.5938 34.2891C58.276 34.2891 57.9922 34.3464 57.7422 34.4609C57.4922 34.5703 57.276 34.7344 57.0938 34.9531C56.9167 35.1719 56.7812 35.4401 56.6875 35.7578C56.5938 36.0755 56.5443 36.4375 56.5391 36.8438C56.5339 37.6615 56.7161 38.3125 57.0859 38.7969C57.4557 39.2812 57.9661 39.526 58.6172 39.5312ZM67.75 41.1719C66.875 41.1719 66.1198 40.9896 65.4844 40.625C64.849 40.2552 64.3594 39.7344 64.0156 39.0625C63.6771 38.3906 63.5078 37.599 63.5078 36.6875C63.5078 35.7865 63.6771 34.9974 64.0156 34.3203C64.3542 33.638 64.8307 33.1068 65.4453 32.7266C66.0599 32.3464 66.7839 32.1562 67.6172 32.1562C68.1536 32.1562 68.6615 32.2422 69.1406 32.4141C69.625 32.5859 70.0521 32.8516 70.4219 33.2109C70.7969 33.5703 71.0911 34.0286 71.3047 34.5859C71.5182 35.138 71.625 35.7969 71.625 36.5625V37.2031H64.4688V35.8203H70.6016L69.6406 36.2266C69.6406 35.7318 69.5651 35.3021 69.4141 34.9375C69.263 34.5677 69.0391 34.2786 68.7422 34.0703C68.4453 33.862 68.0755 33.7578 67.6328 33.7578C67.1901 33.7578 66.8125 33.862 66.5 34.0703C66.1875 34.2786 65.9505 34.5599 65.7891 34.9141C65.6276 35.263 65.5469 35.6536 65.5469 36.0859V37.0469C65.5469 37.5781 65.638 38.0339 65.8203 38.4141C66.0078 38.7891 66.2682 39.0755 66.6016 39.2734C66.9401 39.4714 67.3333 39.5703 67.7812 39.5703C68.0729 39.5703 68.3385 39.5286 68.5781 39.4453C68.8229 39.362 69.0312 39.237 69.2031 39.0703C69.3802 38.8984 69.5156 38.6875 69.6094 38.4375L71.5312 38.6641C71.4062 39.1693 71.1745 39.612 70.8359 39.9922C70.5026 40.3672 70.0729 40.6589 69.5469 40.8672C69.026 41.0703 68.4271 41.1719 67.75 41.1719ZM72.7422 44.2656V32.2656H74.7578V33.7109H74.8828C74.987 33.5026 75.1354 33.2786 75.3281 33.0391C75.5208 32.7943 75.7812 32.5859 76.1094 32.4141C76.4427 32.2422 76.8672 32.1562 77.3828 32.1562C78.0547 32.1562 78.6615 32.3281 79.2031 32.6719C79.7448 33.0156 80.1745 33.5208 80.4922 34.1875C80.8151 34.8542 80.9766 35.6745 80.9766 36.6484C80.9766 37.6068 80.8203 38.4219 80.5078 39.0938C80.1953 39.7656 79.7656 40.2786 79.2188 40.6328C78.6771 40.9818 78.0625 41.1562 77.375 41.1562C76.8802 41.1562 76.4661 41.0729 76.1328 40.9062C75.8047 40.7344 75.5391 40.5312 75.3359 40.2969C75.138 40.0573 74.987 39.8307 74.8828 39.6172H74.7969V44.2656H72.7422ZM76.8125 39.4688C77.2656 39.4688 77.6432 39.3464 77.9453 39.1016C78.2526 38.8568 78.4844 38.5208 78.6406 38.0938C78.7969 37.6667 78.875 37.1823 78.875 36.6406C78.875 36.099 78.7969 35.6172 78.6406 35.1953C78.4844 34.7734 78.2552 34.4427 77.9531 34.2031C77.651 33.9635 77.2708 33.8438 76.8125 33.8438C76.3698 33.8438 75.9948 33.9583 75.6875 34.1875C75.3854 34.4167 75.1536 34.7422 74.9922 35.1641C74.8359 35.5807 74.7578 36.0729 74.7578 36.6406C74.7578 37.2031 74.8359 37.6979 74.9922 38.125C75.1536 38.5469 75.388 38.8776 75.6953 39.1172C76.0026 39.3516 76.375 39.4688 76.8125 39.4688ZM84.0938 38.2109L87.5938 32.2656H89.7031V41H87.7266V35.0469L84.2344 41H82.1172V32.2656H84.0938V38.2109ZM90.25 33.9531V32.2656H97.8828V33.9531H95.0625V41H93.0703V33.9531H90.25ZM102.438 41.1719C101.562 41.1719 100.807 40.9896 100.172 40.625C99.5365 40.2552 99.0469 39.7344 98.7031 39.0625C98.3646 38.3906 98.1953 37.599 98.1953 36.6875C98.1953 35.7865 98.3646 34.9974 98.7031 34.3203C99.0417 33.638 99.5182 33.1068 100.133 32.7266C100.747 32.3464 101.471 32.1562 102.305 32.1562C102.841 32.1562 103.349 32.2422 103.828 32.4141C104.312 32.5859 104.74 32.8516 105.109 33.2109C105.484 33.5703 105.779 34.0286 105.992 34.5859C106.206 35.138 106.312 35.7969 106.312 36.5625V37.2031H99.1562V35.8203H105.289L104.328 36.2266C104.328 35.7318 104.253 35.3021 104.102 34.9375C103.951 34.5677 103.727 34.2786 103.43 34.0703C103.133 33.862 102.763 33.7578 102.32 33.7578C101.878 33.7578 101.5 33.862 101.188 34.0703C100.875 34.2786 100.638 34.5599 100.477 34.9141C100.315 35.263 100.234 35.6536 100.234 36.0859V37.0469C100.234 37.5781 100.326 38.0339 100.508 38.4141C100.695 38.7891 100.956 39.0755 101.289 39.2734C101.628 39.4714 102.021 39.5703 102.469 39.5703C102.76 39.5703 103.026 39.5286 103.266 39.4453C103.51 39.362 103.719 39.237 103.891 39.0703C104.068 38.8984 104.203 38.6875 104.297 38.4375L106.219 38.6641C106.094 39.1693 105.862 39.612 105.523 39.9922C105.19 40.3672 104.76 40.6589 104.234 40.8672C103.714 41.0703 103.115 41.1719 102.438 41.1719ZM110.805 41V32.2656H114.469C115.5 32.2708 116.315 32.4818 116.914 32.8984C117.518 33.3099 117.82 33.8828 117.82 34.6172C117.82 35.112 117.651 35.513 117.312 35.8203C116.974 36.1224 116.516 36.3281 115.938 36.4375C116.391 36.474 116.789 36.5911 117.133 36.7891C117.482 36.9818 117.755 37.2344 117.953 37.5469C118.151 37.8594 118.25 38.2214 118.25 38.6328C118.25 39.112 118.122 39.5312 117.867 39.8906C117.617 40.2448 117.253 40.5182 116.773 40.7109C116.299 40.9036 115.719 41 115.031 41H110.805ZM112.727 39.375H115.031C115.411 39.3802 115.708 39.2943 115.922 39.1172C116.141 38.9349 116.247 38.6875 116.242 38.375C116.247 38.0156 116.141 37.7344 115.922 37.5312C115.708 37.3229 115.411 37.2188 115.031 37.2188H112.727V39.375ZM112.727 35.8906H114.508C114.924 35.8854 115.253 35.7943 115.492 35.6172C115.732 35.4401 115.852 35.1979 115.852 34.8906C115.852 34.5833 115.729 34.3464 115.484 34.1797C115.24 34.0078 114.901 33.9219 114.469 33.9219H112.727V35.8906ZM121.328 38.2109L124.828 32.2656H126.938V41H124.961V35.0469L121.469 41H119.352V32.2656H121.328V38.2109ZM127.688 43.5391V39.3047H128.375C128.562 39.1641 128.719 38.9714 128.844 38.7266C128.969 38.4766 129.07 38.1823 129.148 37.8438C129.232 37.5 129.299 37.1172 129.352 36.6953C129.409 36.2734 129.458 35.8203 129.5 35.3359L129.75 32.2656H136.062V39.3047H137.406V43.5391H135.422V41H129.711V43.5391H127.688ZM130.492 39.3047H134.094V33.9297H131.539L131.398 35.3359C131.326 36.2578 131.224 37.0495 131.094 37.7109C130.969 38.3672 130.768 38.8984 130.492 39.3047ZM141.25 33.9531V32.2656H148.883V33.9531H146.062V41H144.07V33.9531H141.25ZM149.93 44.2656V32.2656H151.945V33.7109H152.07C152.174 33.5026 152.323 33.2786 152.516 33.0391C152.708 32.7943 152.969 32.5859 153.297 32.4141C153.63 32.2422 154.055 32.1562 154.57 32.1562C155.242 32.1562 155.849 32.3281 156.391 32.6719C156.932 33.0156 157.362 33.5208 157.68 34.1875C158.003 34.8542 158.164 35.6745 158.164 36.6484C158.164 37.6068 158.008 38.4219 157.695 39.0938C157.383 39.7656 156.953 40.2786 156.406 40.6328C155.865 40.9818 155.25 41.1562 154.562 41.1562C154.068 41.1562 153.654 41.0729 153.32 40.9062C152.992 40.7344 152.727 40.5312 152.523 40.2969C152.326 40.0573 152.174 39.8307 152.07 39.6172H151.984V44.2656H149.93ZM154 39.4688C154.453 39.4688 154.831 39.3464 155.133 39.1016C155.44 38.8568 155.672 38.5208 155.828 38.0938C155.984 37.6667 156.062 37.1823 156.062 36.6406C156.062 36.099 155.984 35.6172 155.828 35.1953C155.672 34.7734 155.443 34.4427 155.141 34.2031C154.839 33.9635 154.458 33.8438 154 33.8438C153.557 33.8438 153.182 33.9583 152.875 34.1875C152.573 34.4167 152.341 34.7422 152.18 35.1641C152.023 35.5807 151.945 36.0729 151.945 36.6406C151.945 37.2031 152.023 37.6979 152.18 38.125C152.341 38.5469 152.576 38.8776 152.883 39.1172C153.19 39.3516 153.562 39.4688 154 39.4688ZM161.82 41.1797C161.263 41.1797 160.763 41.0807 160.32 40.8828C159.878 40.6797 159.529 40.3828 159.273 39.9922C159.018 39.6016 158.891 39.1198 158.891 38.5469C158.891 38.0573 158.982 37.651 159.164 37.3281C159.346 37.0052 159.594 36.7474 159.906 36.5547C160.224 36.362 160.581 36.2161 160.977 36.1172C161.372 36.013 161.781 35.9401 162.203 35.8984C162.719 35.8411 163.135 35.7917 163.453 35.75C163.771 35.7083 164 35.6406 164.141 35.5469C164.286 35.4531 164.359 35.3073 164.359 35.1094V35.0703C164.359 34.6484 164.234 34.3203 163.984 34.0859C163.734 33.8516 163.37 33.7344 162.891 33.7344C162.385 33.7344 161.984 33.8438 161.688 34.0625C161.396 34.2812 161.198 34.5391 161.094 34.8359L159.18 34.5625C159.331 34.0312 159.581 33.5885 159.93 33.2344C160.279 32.875 160.703 32.6068 161.203 32.4297C161.708 32.2474 162.266 32.1562 162.875 32.1562C163.292 32.1562 163.708 32.2057 164.125 32.3047C164.542 32.3984 164.924 32.5599 165.273 32.7891C165.622 33.0182 165.901 33.3255 166.109 33.7109C166.318 34.0964 166.422 34.5781 166.422 35.1562V41H164.445V39.7969H164.383C164.258 40.0365 164.081 40.263 163.852 40.4766C163.628 40.6849 163.346 40.8542 163.008 40.9844C162.674 41.1146 162.279 41.1797 161.82 41.1797ZM162.344 39.6641C162.76 39.6641 163.12 39.5833 163.422 39.4219C163.724 39.2552 163.958 39.0365 164.125 38.7656C164.292 38.4896 164.375 38.1901 164.375 37.8672V36.8438C164.307 36.8958 164.198 36.9453 164.047 36.9922C163.896 37.0339 163.724 37.0729 163.531 37.1094C163.339 37.1458 163.148 37.1771 162.961 37.2031C162.779 37.2292 162.62 37.25 162.484 37.2656C162.177 37.3073 161.901 37.3776 161.656 37.4766C161.417 37.5703 161.227 37.7005 161.086 37.8672C160.945 38.0339 160.875 38.25 160.875 38.5156C160.875 38.8958 161.013 39.1823 161.289 39.375C161.565 39.5677 161.917 39.6641 162.344 39.6641ZM173.93 35.7812V37.4688H169.297V35.7812H173.93ZM169.922 32.2656V41H167.945V32.2656H169.922ZM175.289 32.2656V41H173.312V32.2656H175.289ZM180.609 41.1719C179.74 41.1719 178.992 40.9818 178.367 40.6016C177.742 40.2161 177.263 39.6849 176.93 39.0078C176.596 38.3307 176.43 37.5521 176.43 36.6719C176.43 35.7812 176.599 34.9974 176.938 34.3203C177.276 33.6432 177.758 33.1146 178.383 32.7344C179.008 32.349 179.745 32.1562 180.594 32.1562C181.307 32.1562 181.938 32.2865 182.484 32.5469C183.031 32.8073 183.466 33.1745 183.789 33.6484C184.117 34.1172 184.305 34.6667 184.352 35.2969H182.383C182.331 35.0156 182.229 34.763 182.078 34.5391C181.927 34.3151 181.729 34.138 181.484 34.0078C181.245 33.8776 180.958 33.8125 180.625 33.8125C180.203 33.8125 179.833 33.9271 179.516 34.1562C179.203 34.3802 178.958 34.7031 178.781 35.125C178.604 35.5469 178.516 36.0521 178.516 36.6406C178.516 37.2344 178.602 37.7474 178.773 38.1797C178.945 38.6068 179.19 38.9375 179.508 39.1719C179.826 39.401 180.198 39.5156 180.625 39.5156C181.078 39.5156 181.461 39.3828 181.773 39.1172C182.091 38.8516 182.294 38.4844 182.383 38.0156H184.352C184.305 38.6354 184.122 39.1823 183.805 39.6562C183.487 40.1302 183.057 40.5026 182.516 40.7734C181.974 41.0391 181.339 41.1719 180.609 41.1719ZM185.461 41V32.2656H192.836V41H190.844V33.9531H187.422V41H185.461ZM198.156 41.1719C197.302 41.1719 196.562 40.9844 195.938 40.6094C195.312 40.2344 194.828 39.7083 194.484 39.0312C194.146 38.3542 193.977 37.5677 193.977 36.6719C193.977 35.7708 194.146 34.9818 194.484 34.3047C194.828 33.6224 195.312 33.0938 195.938 32.7188C196.562 32.3438 197.302 32.1562 198.156 32.1562C199.01 32.1562 199.75 32.3438 200.375 32.7188C201 33.0938 201.484 33.6224 201.828 34.3047C202.172 34.9818 202.344 35.7708 202.344 36.6719C202.344 37.5677 202.172 38.3542 201.828 39.0312C201.484 39.7083 201 40.2344 200.375 40.6094C199.75 40.9844 199.01 41.1719 198.156 41.1719ZM198.156 39.5156C198.63 39.5156 199.021 39.3906 199.328 39.1406C199.635 38.8854 199.865 38.5417 200.016 38.1094C200.172 37.6771 200.25 37.1979 200.25 36.6719C200.25 36.1354 200.172 35.651 200.016 35.2188C199.865 34.7865 199.635 34.4453 199.328 34.1953C199.021 33.9401 198.63 33.8125 198.156 33.8125C197.693 33.8125 197.305 33.9401 196.992 34.1953C196.68 34.4453 196.445 34.7865 196.289 35.2188C196.138 35.651 196.062 36.1354 196.062 36.6719C196.062 37.1979 196.138 37.6771 196.289 38.1094C196.445 38.5417 196.68 38.8854 196.992 39.1406C197.305 39.3906 197.693 39.5156 198.156 39.5156ZM203.477 44.2656V32.2656H205.492V33.7109H205.617C205.721 33.5026 205.87 33.2786 206.062 33.0391C206.255 32.7943 206.516 32.5859 206.844 32.4141C207.177 32.2422 207.602 32.1562 208.117 32.1562C208.789 32.1562 209.396 32.3281 209.938 32.6719C210.479 33.0156 210.909 33.5208 211.227 34.1875C211.549 34.8542 211.711 35.6745 211.711 36.6484C211.711 37.6068 211.555 38.4219 211.242 39.0938C210.93 39.7656 210.5 40.2786 209.953 40.6328C209.411 40.9818 208.797 41.1562 208.109 41.1562C207.615 41.1562 207.201 41.0729 206.867 40.9062C206.539 40.7344 206.273 40.5312 206.07 40.2969C205.872 40.0573 205.721 39.8307 205.617 39.6172H205.531V44.2656H203.477ZM207.547 39.4688C208 39.4688 208.378 39.3464 208.68 39.1016C208.987 38.8568 209.219 38.5208 209.375 38.0938C209.531 37.6667 209.609 37.1823 209.609 36.6406C209.609 36.099 209.531 35.6172 209.375 35.1953C209.219 34.7734 208.99 34.4427 208.688 34.2031C208.385 33.9635 208.005 33.8438 207.547 33.8438C207.104 33.8438 206.729 33.9583 206.422 34.1875C206.12 34.4167 205.888 34.7422 205.727 35.1641C205.57 35.5807 205.492 36.0729 205.492 36.6406C205.492 37.2031 205.57 37.6979 205.727 38.125C205.888 38.5469 206.122 38.8776 206.43 39.1172C206.737 39.3516 207.109 39.4688 207.547 39.4688ZM211.906 33.9531V32.2656H219.539V33.9531H216.719V41H214.727V33.9531H211.906ZM222.742 41.1797C222.185 41.1797 221.685 41.0807 221.242 40.8828C220.799 40.6797 220.451 40.3828 220.195 39.9922C219.94 39.6016 219.812 39.1198 219.812 38.5469C219.812 38.0573 219.904 37.651 220.086 37.3281C220.268 37.0052 220.516 36.7474 220.828 36.5547C221.146 36.362 221.503 36.2161 221.898 36.1172C222.294 36.013 222.703 35.9401 223.125 35.8984C223.641 35.8411 224.057 35.7917 224.375 35.75C224.693 35.7083 224.922 35.6406 225.062 35.5469C225.208 35.4531 225.281 35.3073 225.281 35.1094V35.0703C225.281 34.6484 225.156 34.3203 224.906 34.0859C224.656 33.8516 224.292 33.7344 223.812 33.7344C223.307 33.7344 222.906 33.8438 222.609 34.0625C222.318 34.2812 222.12 34.5391 222.016 34.8359L220.102 34.5625C220.253 34.0312 220.503 33.5885 220.852 33.2344C221.201 32.875 221.625 32.6068 222.125 32.4297C222.63 32.2474 223.188 32.1562 223.797 32.1562C224.214 32.1562 224.63 32.2057 225.047 32.3047C225.464 32.3984 225.846 32.5599 226.195 32.7891C226.544 33.0182 226.823 33.3255 227.031 33.7109C227.24 34.0964 227.344 34.5781 227.344 35.1562V41H225.367V39.7969H225.305C225.18 40.0365 225.003 40.263 224.773 40.4766C224.549 40.6849 224.268 40.8542 223.93 40.9844C223.596 41.1146 223.201 41.1797 222.742 41.1797ZM223.266 39.6641C223.682 39.6641 224.042 39.5833 224.344 39.4219C224.646 39.2552 224.88 39.0365 225.047 38.7656C225.214 38.4896 225.297 38.1901 225.297 37.8672V36.8438C225.229 36.8958 225.12 36.9453 224.969 36.9922C224.818 37.0339 224.646 37.0729 224.453 37.1094C224.26 37.1458 224.07 37.1771 223.883 37.2031C223.701 37.2292 223.542 37.25 223.406 37.2656C223.099 37.3073 222.823 37.3776 222.578 37.4766C222.339 37.5703 222.148 37.7005 222.008 37.8672C221.867 38.0339 221.797 38.25 221.797 38.5156C221.797 38.8958 221.935 39.1823 222.211 39.375C222.487 39.5677 222.839 39.6641 223.266 39.6641Z" fill="#303030"/>
<rect x="32" y="58" width="311" height="46" rx="12" fill="#F8F8F8"/>
<path d="M45.9297 87H44.0625L48.25 75.3594H50.2812L54.4609 87H52.6016L49.3047 77.4766H49.2109L45.9297 87ZM46.2422 82.4453H52.2812V83.9141H46.2422V82.4453ZM55.3281 87V78.2656H58.9375C59.9219 78.2708 60.7031 78.4844 61.2812 78.9062C61.8594 79.3229 62.1458 79.8906 62.1406 80.6094C62.1458 81.1198 61.9844 81.5234 61.6562 81.8203C61.3281 82.112 60.8984 82.3125 60.3672 82.4219C60.7526 82.4635 61.1068 82.5781 61.4297 82.7656C61.7578 82.9531 62.0208 83.2057 62.2188 83.5234C62.4219 83.8359 62.5234 84.2083 62.5234 84.6406C62.5234 85.1042 62.401 85.5156 62.1562 85.875C61.9167 86.2292 61.5729 86.5052 61.125 86.7031C60.6771 86.901 60.1328 87 59.4922 87H55.3281ZM56.9219 85.5703H59.4922C59.9089 85.5755 60.237 85.4792 60.4766 85.2812C60.7161 85.0781 60.8333 84.8047 60.8281 84.4609C60.8333 84.0547 60.7161 83.737 60.4766 83.5078C60.237 83.2734 59.9089 83.1562 59.4922 83.1562H56.9219V85.5703ZM56.9219 81.9141H58.9531C59.4323 81.9089 59.8073 81.8073 60.0781 81.6094C60.3542 81.4062 60.4896 81.1328 60.4844 80.7891C60.4896 80.4505 60.3542 80.1875 60.0781 80C59.8021 79.8073 59.4219 79.7109 58.9375 79.7109H56.9219V81.9141ZM63.2266 79.7344V78.2656H70.5781V79.7344H67.7422V87H66.0781V79.7344H63.2266ZM74.9766 87.1797C74.1589 87.1797 73.4427 86.9922 72.8281 86.6172C72.2188 86.2422 71.7448 85.7161 71.4062 85.0391C71.0729 84.362 70.9062 83.5755 70.9062 82.6797C70.9062 81.7734 71.0729 80.9818 71.4062 80.3047C71.7448 79.6224 72.2188 79.0938 72.8281 78.7188C73.4427 78.3438 74.1589 78.1562 74.9766 78.1562C75.7995 78.1562 76.5156 78.3438 77.125 78.7188C77.7344 79.0938 78.2083 79.6224 78.5469 80.3047C78.8854 80.9818 79.0547 81.7734 79.0547 82.6797C79.0547 83.5755 78.8854 84.362 78.5469 85.0391C78.2083 85.7161 77.7344 86.2422 77.125 86.6172C76.5156 86.9922 75.7995 87.1797 74.9766 87.1797ZM74.9766 85.75C75.513 85.75 75.9557 85.6094 76.3047 85.3281C76.6536 85.0469 76.9115 84.6745 77.0781 84.2109C77.25 83.7422 77.3359 83.2318 77.3359 82.6797C77.3359 82.1172 77.25 81.6016 77.0781 81.1328C76.9115 80.6641 76.6536 80.2891 76.3047 80.0078C75.9557 79.7266 75.513 79.5859 74.9766 79.5859C74.4453 79.5859 74.0052 79.7266 73.6562 80.0078C73.3125 80.2891 73.0547 80.6641 72.8828 81.1328C72.7109 81.6016 72.625 82.1172 72.625 82.6797C72.625 83.2318 72.7109 83.7422 72.8828 84.2109C73.0547 84.6745 73.3125 85.0469 73.6562 85.3281C74.0052 85.6094 74.4453 85.75 74.9766 85.75ZM85.1719 84.8984L87.9922 78.2656H89.4531L85.8047 87H84.5391L80.9609 78.2656H82.4062L85.1719 84.8984ZM81.9297 78.2656V87H80.2812V78.2656H81.9297ZM88.4531 87V78.2656H90.0938V87H88.4531ZM95.3828 87.1797C94.5651 87.1797 93.849 86.9922 93.2344 86.6172C92.625 86.2422 92.151 85.7161 91.8125 85.0391C91.4792 84.362 91.3125 83.5755 91.3125 82.6797C91.3125 81.7734 91.4792 80.9818 91.8125 80.3047C92.151 79.6224 92.625 79.0938 93.2344 78.7188C93.849 78.3438 94.5651 78.1562 95.3828 78.1562C96.2057 78.1562 96.9219 78.3438 97.5312 78.7188C98.1406 79.0938 98.6146 79.6224 98.9531 80.3047C99.2917 80.9818 99.4609 81.7734 99.4609 82.6797C99.4609 83.5755 99.2917 84.362 98.9531 85.0391C98.6146 85.7161 98.1406 86.2422 97.5312 86.6172C96.9219 86.9922 96.2057 87.1797 95.3828 87.1797ZM95.3828 85.75C95.9193 85.75 96.362 85.6094 96.7109 85.3281C97.0599 85.0469 97.3177 84.6745 97.4844 84.2109C97.6562 83.7422 97.7422 83.2318 97.7422 82.6797C97.7422 82.1172 97.6562 81.6016 97.4844 81.1328C97.3177 80.6641 97.0599 80.2891 96.7109 80.0078C96.362 79.7266 95.9193 79.5859 95.3828 79.5859C94.8516 79.5859 94.4115 79.7266 94.0625 80.0078C93.7188 80.2891 93.4609 80.6641 93.2891 81.1328C93.1172 81.6016 93.0312 82.1172 93.0312 82.6797C93.0312 83.2318 93.1172 83.7422 93.2891 84.2109C93.4609 84.6745 93.7188 85.0469 94.0625 85.3281C94.4115 85.6094 94.8516 85.75 95.3828 85.75ZM107.406 75.0234L108.109 76.0938C107.854 76.3333 107.56 76.5026 107.227 76.6016C106.893 76.7005 106.51 76.763 106.078 76.7891C105.646 76.8151 105.151 76.8385 104.594 76.8594C103.964 76.875 103.445 77.0104 103.039 77.2656C102.638 77.5156 102.328 77.8854 102.109 78.375C101.891 78.8646 101.75 79.4818 101.688 80.2266H101.797C102.073 79.6849 102.464 79.2812 102.969 79.0156C103.479 78.7448 104.052 78.6094 104.688 78.6094C105.391 78.6094 106.016 78.7708 106.562 79.0938C107.109 79.4115 107.542 79.8802 107.859 80.5C108.177 81.1198 108.333 81.875 108.328 82.7656C108.333 83.6719 108.172 84.4557 107.844 85.1172C107.516 85.7786 107.049 86.2865 106.445 86.6406C105.846 86.9948 105.141 87.1745 104.328 87.1797C103.104 87.1745 102.125 86.7578 101.391 85.9297C100.656 85.0964 100.286 83.8776 100.281 82.2734V81.4219C100.286 79.4219 100.646 77.9193 101.359 76.9141C102.073 75.9089 103.138 75.3906 104.555 75.3594C105.013 75.349 105.422 75.3464 105.781 75.3516C106.141 75.3568 106.456 75.3411 106.727 75.3047C106.997 75.263 107.224 75.1693 107.406 75.0234ZM104.328 85.7578C104.807 85.7526 105.216 85.6302 105.555 85.3906C105.893 85.151 106.156 84.8099 106.344 84.3672C106.531 83.9245 106.622 83.401 106.617 82.7969C106.622 82.2083 106.531 81.7083 106.344 81.2969C106.156 80.8802 105.891 80.5625 105.547 80.3438C105.203 80.125 104.789 80.0156 104.305 80.0156C103.951 80.0156 103.633 80.0781 103.352 80.2031C103.07 80.3281 102.831 80.5104 102.633 80.75C102.435 80.9844 102.281 81.2734 102.172 81.6172C102.068 81.9609 102.01 82.3542 102 82.7969C102 83.6927 102.206 84.4089 102.617 84.9453C103.034 85.4818 103.604 85.7526 104.328 85.7578ZM111.211 84.6094L115.062 78.2656H116.891V87H115.234V80.6484L111.398 87H109.562V78.2656H111.211V84.6094ZM117.82 87L117.812 85.5312H118.117C118.445 85.526 118.703 85.4297 118.891 85.2422C119.083 85.0495 119.227 84.7083 119.32 84.2188C119.419 83.7292 119.484 83.0365 119.516 82.1406L119.672 78.2656H125.758V87H124.094V79.7344H121.234L121.094 82.7109C121.062 83.4297 120.992 84.0573 120.883 84.5938C120.773 85.1302 120.612 85.5781 120.398 85.9375C120.185 86.2917 119.911 86.5573 119.578 86.7344C119.245 86.9115 118.839 87 118.359 87H117.82ZM128.648 81.2812H131.188C132.25 81.276 133.068 81.5391 133.641 82.0703C134.219 82.6016 134.51 83.2865 134.516 84.125C134.516 84.6719 134.385 85.1615 134.125 85.5938C133.865 86.026 133.487 86.3698 132.992 86.625C132.497 86.875 131.896 87 131.188 87H127.375V78.2656H129.023V85.5312H131.188C131.672 85.5312 132.07 85.4062 132.383 85.1562C132.695 84.901 132.854 84.5729 132.859 84.1719C132.854 83.75 132.695 83.4062 132.383 83.1406C132.07 82.875 131.672 82.7448 131.188 82.75H128.648V81.2812Z" fill="#303030"/>
<path d="M318.5 86L323.5 81L318.5 76" stroke="#303030" stroke-width="2" stroke-linecap="round" stroke-linejoin="round"/>
<rect x="32" y="114" width="311" height="46" rx="12" fill="#F8F8F8"/>
<path d="M44.9375 131.359H47.0781L50.7812 140.406H50.9141L54.625 131.359H56.7969V143H55.0781V134.578H54.9688L51.5234 142.984H50.1328L46.7266 134.57H46.6172V143H44.9375V131.359ZM62.2109 143.18C61.3932 143.18 60.6771 142.992 60.0625 142.617C59.4531 142.242 58.9792 141.716 58.6406 141.039C58.3073 140.362 58.1406 139.576 58.1406 138.68C58.1406 137.773 58.3073 136.982 58.6406 136.305C58.9792 135.622 59.4531 135.094 60.0625 134.719C60.6771 134.344 61.3932 134.156 62.2109 134.156C63.0339 134.156 63.75 134.344 64.3594 134.719C64.9688 135.094 65.4427 135.622 65.7812 136.305C66.1198 136.982 66.2891 137.773 66.2891 138.68C66.2891 139.576 66.1198 140.362 65.7812 141.039C65.4427 141.716 64.9688 142.242 64.3594 142.617C63.75 142.992 63.0339 143.18 62.2109 143.18ZM62.2109 141.75C62.7474 141.75 63.1901 141.609 63.5391 141.328C63.888 141.047 64.1458 140.674 64.3125 140.211C64.4844 139.742 64.5703 139.232 64.5703 138.68C64.5703 138.117 64.4844 137.602 64.3125 137.133C64.1458 136.664 63.888 136.289 63.5391 136.008C63.1901 135.727 62.7474 135.586 62.2109 135.586C61.6797 135.586 61.2396 135.727 60.8906 136.008C60.5469 136.289 60.2891 136.664 60.1172 137.133C59.9453 137.602 59.8594 138.117 59.8594 138.68C59.8594 139.232 59.9453 139.742 60.1172 140.211C60.2891 140.674 60.5469 141.047 60.8906 141.328C61.2396 141.609 61.6797 141.75 62.2109 141.75ZM66.4609 135.734V134.266H73.8125V135.734H70.9766V143H69.3125V135.734H66.4609ZM78.2109 143.18C77.3932 143.18 76.6771 142.992 76.0625 142.617C75.4531 142.242 74.9792 141.716 74.6406 141.039C74.3073 140.362 74.1406 139.576 74.1406 138.68C74.1406 137.773 74.3073 136.982 74.6406 136.305C74.9792 135.622 75.4531 135.094 76.0625 134.719C76.6771 134.344 77.3932 134.156 78.2109 134.156C79.0339 134.156 79.75 134.344 80.3594 134.719C80.9688 135.094 81.4427 135.622 81.7812 136.305C82.1198 136.982 82.2891 137.773 82.2891 138.68C82.2891 139.576 82.1198 140.362 81.7812 141.039C81.4427 141.716 80.9688 142.242 80.3594 142.617C79.75 142.992 79.0339 143.18 78.2109 143.18ZM78.2109 141.75C78.7474 141.75 79.1901 141.609 79.5391 141.328C79.888 141.047 80.1458 140.674 80.3125 140.211C80.4844 139.742 80.5703 139.232 80.5703 138.68C80.5703 138.117 80.4844 137.602 80.3125 137.133C80.1458 136.664 79.888 136.289 79.5391 136.008C79.1901 135.727 78.7474 135.586 78.2109 135.586C77.6797 135.586 77.2396 135.727 76.8906 136.008C76.5469 136.289 76.2891 136.664 76.1172 137.133C75.9453 137.602 75.8594 138.117 75.8594 138.68C75.8594 139.232 75.9453 139.742 76.1172 140.211C76.2891 140.674 76.5469 141.047 76.8906 141.328C77.2396 141.609 77.6797 141.75 78.2109 141.75ZM90.625 134.266V143H83.5156V134.266H85.1797V141.531H88.9844V134.266H90.625ZM91.9141 141.609V145.812H90.2344V141.609H91.9141ZM94.6172 140.609L98.4688 134.266H100.297V143H98.6406V136.648L94.8047 143H92.9688V134.266H94.6172V140.609ZM101.922 143V134.266H103.609V137.93H104.43L107.312 134.266H109.406L106.039 138.523L109.453 143H107.344L104.711 139.508H103.609V143H101.922ZM109.398 143L109.391 141.531H109.695C110.023 141.526 110.281 141.43 110.469 141.242C110.661 141.049 110.805 140.708 110.898 140.219C110.997 139.729 111.062 139.036 111.094 138.141L111.25 134.266H117.336V143H115.672V135.734H112.812L112.672 138.711C112.641 139.43 112.57 140.057 112.461 140.594C112.352 141.13 112.19 141.578 111.977 141.938C111.763 142.292 111.49 142.557 111.156 142.734C110.823 142.911 110.417 143 109.938 143H109.398Z" fill="#303030"/>
<path d="M318.5 142L323.5 137L318.5 132" stroke="#303030" stroke-width="2" stroke-linecap="round" stroke-linejoin="round"/>
<rect x="32" y="170" width="311" height="46" rx="12" fill="#F8F8F8"/>
<path d="M44.9375 199V187.359H49.2109C50.0339 187.359 50.7161 187.495 51.2578 187.766C51.7995 188.036 52.2031 188.404 52.4688 188.867C52.7396 189.326 52.875 189.841 52.875 190.414C52.875 190.898 52.7839 191.307 52.6016 191.641C52.4245 191.974 52.1875 192.24 51.8906 192.438C51.5938 192.635 51.2656 192.781 50.9062 192.875V192.984C51.2969 193.005 51.6771 193.13 52.0469 193.359C52.4167 193.589 52.7214 193.914 52.9609 194.336C53.2057 194.753 53.3281 195.263 53.3281 195.867C53.3281 196.461 53.1875 196.995 52.9062 197.469C52.6302 197.938 52.2031 198.31 51.625 198.586C51.0469 198.862 50.3047 199 49.3984 199H44.9375ZM46.6953 197.5H49.2266C50.0703 197.5 50.6745 197.336 51.0391 197.008C51.4036 196.68 51.5859 196.271 51.5859 195.781C51.5859 195.411 51.4922 195.076 51.3047 194.773C51.1224 194.466 50.8594 194.221 50.5156 194.039C50.1719 193.857 49.7656 193.766 49.2969 193.766H46.6953V197.5ZM46.6953 192.398H49.0547C49.4453 192.398 49.7995 192.323 50.1172 192.172C50.4349 192.021 50.6849 191.807 50.8672 191.531C51.0547 191.25 51.1484 190.924 51.1484 190.555C51.1484 190.076 50.9792 189.674 50.6406 189.352C50.3073 189.023 49.7943 188.859 49.1016 188.859H46.6953V192.398ZM58.3672 199.18C57.513 199.18 56.7734 198.995 56.1484 198.625C55.5234 198.255 55.0417 197.734 54.7031 197.062C54.3698 196.385 54.2031 195.596 54.2031 194.695C54.2031 193.799 54.3672 193.01 54.6953 192.328C55.0286 191.646 55.4948 191.115 56.0938 190.734C56.6979 190.349 57.4062 190.156 58.2188 190.156C58.7135 190.156 59.1927 190.237 59.6562 190.398C60.1198 190.56 60.5365 190.815 60.9062 191.164C61.276 191.513 61.5677 191.966 61.7812 192.523C62 193.081 62.1094 193.753 62.1094 194.539V195.148H55.1641V193.875H61.2344L60.4453 194.297C60.4453 193.76 60.362 193.286 60.1953 192.875C60.0286 192.464 59.7786 192.143 59.4453 191.914C59.1172 191.68 58.7083 191.562 58.2188 191.562C57.7292 191.562 57.3099 191.68 56.9609 191.914C56.6172 192.148 56.3542 192.458 56.1719 192.844C55.9896 193.229 55.8984 193.651 55.8984 194.109V194.977C55.8984 195.576 56.0026 196.083 56.2109 196.5C56.4193 196.917 56.7083 197.234 57.0781 197.453C57.4531 197.672 57.888 197.781 58.3828 197.781C58.7057 197.781 58.9974 197.734 59.2578 197.641C59.5234 197.547 59.7526 197.406 59.9453 197.219C60.138 197.031 60.2839 196.799 60.3828 196.523L61.9922 196.828C61.862 197.297 61.6328 197.708 61.3047 198.062C60.9766 198.417 60.5625 198.693 60.0625 198.891C59.5677 199.083 59.0026 199.18 58.3672 199.18ZM62.6016 199L62.5938 197.531H62.8984C63.2266 197.526 63.4844 197.43 63.6719 197.242C63.8646 197.049 64.0078 196.708 64.1016 196.219C64.2005 195.729 64.2656 195.036 64.2969 194.141L64.4531 190.266H70.5391V199H68.875V191.734H66.0156L65.875 194.711C65.8438 195.43 65.7734 196.057 65.6641 196.594C65.5547 197.13 65.3932 197.578 65.1797 197.938C64.9661 198.292 64.6927 198.557 64.3594 198.734C64.026 198.911 63.6198 199 63.1406 199H62.6016ZM75.8203 199.18C75.0026 199.18 74.2865 198.992 73.6719 198.617C73.0625 198.242 72.5885 197.716 72.25 197.039C71.9167 196.362 71.75 195.576 71.75 194.68C71.75 193.773 71.9167 192.982 72.25 192.305C72.5885 191.622 73.0625 191.094 73.6719 190.719C74.2865 190.344 75.0026 190.156 75.8203 190.156C76.6432 190.156 77.3594 190.344 77.9688 190.719C78.5781 191.094 79.0521 191.622 79.3906 192.305C79.7292 192.982 79.8984 193.773 79.8984 194.68C79.8984 195.576 79.7292 196.362 79.3906 197.039C79.0521 197.716 78.5781 198.242 77.9688 198.617C77.3594 198.992 76.6432 199.18 75.8203 199.18ZM75.8203 197.75C76.3568 197.75 76.7995 197.609 77.1484 197.328C77.4974 197.047 77.7552 196.674 77.9219 196.211C78.0938 195.742 78.1797 195.232 78.1797 194.68C78.1797 194.117 78.0938 193.602 77.9219 193.133C77.7552 192.664 77.4974 192.289 77.1484 192.008C76.7995 191.727 76.3568 191.586 75.8203 191.586C75.2891 191.586 74.849 191.727 74.5 192.008C74.1562 192.289 73.8984 192.664 73.7266 193.133C73.5547 193.602 73.4688 194.117 73.4688 194.68C73.4688 195.232 73.5547 195.742 73.7266 196.211C73.8984 196.674 74.1562 197.047 74.5 197.328C74.849 197.609 75.2891 197.75 75.8203 197.75ZM84.7891 199.18C83.9505 199.18 83.2266 198.987 82.6172 198.602C82.0078 198.216 81.5391 197.685 81.2109 197.008C80.8828 196.331 80.7188 195.555 80.7188 194.68C80.7188 193.789 80.8854 193.005 81.2188 192.328C81.5573 191.646 82.0286 191.115 82.6328 190.734C83.2422 190.349 83.9557 190.156 84.7734 190.156C85.4401 190.156 86.0312 190.279 86.5469 190.523C87.0677 190.763 87.487 191.104 87.8047 191.547C88.1276 191.99 88.3177 192.505 88.375 193.094H86.7188C86.6615 192.818 86.5495 192.565 86.3828 192.336C86.2214 192.107 86.0078 191.924 85.7422 191.789C85.4766 191.654 85.1615 191.586 84.7969 191.586C84.3229 191.586 83.9089 191.711 83.5547 191.961C83.2057 192.206 82.9323 192.557 82.7344 193.016C82.5365 193.474 82.4375 194.016 82.4375 194.641C82.4375 195.271 82.5339 195.82 82.7266 196.289C82.9193 196.758 83.1927 197.12 83.5469 197.375C83.9062 197.625 84.3229 197.75 84.7969 197.75C85.2865 197.75 85.7031 197.615 86.0469 197.344C86.3958 197.073 86.6198 196.703 86.7188 196.234H88.375C88.3177 196.802 88.1354 197.307 87.8281 197.75C87.5208 198.193 87.1094 198.542 86.5938 198.797C86.0781 199.052 85.4766 199.18 84.7891 199.18ZM91.2266 196.609L95.0781 190.266H96.9062V199H95.25V192.648L91.4141 199H89.5781V190.266H91.2266V196.609ZM98.5312 199V190.266H105.641V199H103.977V191.734H100.172V199H98.5312ZM111.023 199.18C110.169 199.18 109.43 198.995 108.805 198.625C108.18 198.255 107.698 197.734 107.359 197.062C107.026 196.385 106.859 195.596 106.859 194.695C106.859 193.799 107.023 193.01 107.352 192.328C107.685 191.646 108.151 191.115 108.75 190.734C109.354 190.349 110.062 190.156 110.875 190.156C111.37 190.156 111.849 190.237 112.312 190.398C112.776 190.56 113.193 190.815 113.562 191.164C113.932 191.513 114.224 191.966 114.438 192.523C114.656 193.081 114.766 193.753 114.766 194.539V195.148H107.82V193.875H113.891L113.102 194.297C113.102 193.76 113.018 193.286 112.852 192.875C112.685 192.464 112.435 192.143 112.102 191.914C111.773 191.68 111.365 191.562 110.875 191.562C110.385 191.562 109.966 191.68 109.617 191.914C109.273 192.148 109.01 192.458 108.828 192.844C108.646 193.229 108.555 193.651 108.555 194.109V194.977C108.555 195.576 108.659 196.083 108.867 196.5C109.076 196.917 109.365 197.234 109.734 197.453C110.109 197.672 110.544 197.781 111.039 197.781C111.362 197.781 111.654 197.734 111.914 197.641C112.18 197.547 112.409 197.406 112.602 197.219C112.794 197.031 112.94 196.799 113.039 196.523L114.648 196.828C114.518 197.297 114.289 197.708 113.961 198.062C113.633 198.417 113.219 198.693 112.719 198.891C112.224 199.083 111.659 199.18 111.023 199.18ZM115.094 201.516V197.531H115.797C115.979 197.365 116.135 197.167 116.266 196.938C116.396 196.703 116.503 196.427 116.586 196.109C116.674 195.786 116.75 195.414 116.812 194.992C116.875 194.57 116.93 194.083 116.977 193.531L117.25 190.266H123.18V197.531H124.523V201.516H122.859V199H116.781V201.516H115.094ZM117.625 197.531H121.523V191.719H118.766L118.578 193.531C118.5 194.453 118.393 195.25 118.258 195.922C118.128 196.589 117.917 197.125 117.625 197.531Z" fill="#303030"/>
<path d="M318.5 198L323.5 193L318.5 188" stroke="#303030" stroke-width="2" stroke-linecap="round" stroke-linejoin="round"/>
<rect x="32" y="226" width="311" height="46" rx="12" fill="#F8F8F8"/>
<path d="M49.7969 255.156C48.7969 255.156 47.901 254.917 47.1094 254.438C46.3177 253.958 45.6953 253.273 45.2422 252.383C44.7891 251.487 44.5625 250.422 44.5625 249.188C44.5625 247.943 44.7891 246.875 45.2422 245.984C45.7005 245.089 46.3229 244.401 47.1094 243.922C47.901 243.443 48.7969 243.203 49.7969 243.203C50.4115 243.203 50.987 243.292 51.5234 243.469C52.0651 243.646 52.5495 243.904 52.9766 244.242C53.4036 244.581 53.7552 244.995 54.0312 245.484C54.3125 245.974 54.5 246.529 54.5938 247.148H52.8281C52.7604 246.768 52.6328 246.435 52.4453 246.148C52.263 245.857 52.0365 245.612 51.7656 245.414C51.5 245.211 51.2005 245.06 50.8672 244.961C50.5391 244.857 50.1901 244.805 49.8203 244.805C49.1536 244.805 48.5521 244.974 48.0156 245.312C47.4844 245.646 47.0651 246.141 46.7578 246.797C46.4557 247.448 46.3047 248.245 46.3047 249.188C46.3047 250.135 46.4583 250.935 46.7656 251.586C47.0729 252.232 47.4922 252.721 48.0234 253.055C48.5547 253.388 49.151 253.555 49.8125 253.555C50.1823 253.555 50.5312 253.505 50.8594 253.406C51.1875 253.307 51.487 253.159 51.7578 252.961C52.0286 252.763 52.2552 252.523 52.4375 252.242C52.625 251.956 52.7552 251.625 52.8281 251.25H54.5938C54.5052 251.828 54.3255 252.357 54.0547 252.836C53.7839 253.31 53.4375 253.721 53.0156 254.07C52.5938 254.414 52.112 254.682 51.5703 254.875C51.0286 255.062 50.4375 255.156 49.7969 255.156ZM58.4375 255.188C57.8854 255.188 57.3854 255.086 56.9375 254.883C56.4896 254.674 56.1354 254.372 55.875 253.977C55.6146 253.581 55.4844 253.099 55.4844 252.531C55.4844 252.036 55.5781 251.633 55.7656 251.32C55.9583 251.003 56.2161 250.75 56.5391 250.562C56.862 250.375 57.2214 250.234 57.6172 250.141C58.013 250.047 58.4193 249.974 58.8359 249.922C59.362 249.865 59.7865 249.815 60.1094 249.773C60.4323 249.732 60.6667 249.667 60.8125 249.578C60.9635 249.484 61.0391 249.336 61.0391 249.133V249.094C61.0391 248.599 60.8984 248.216 60.6172 247.945C60.3411 247.674 59.9297 247.539 59.3828 247.539C58.8151 247.539 58.3646 247.664 58.0312 247.914C57.7031 248.159 57.4766 248.438 57.3516 248.75L55.75 248.383C55.9427 247.852 56.2214 247.424 56.5859 247.102C56.9557 246.773 57.3776 246.534 57.8516 246.383C58.3307 246.232 58.8307 246.156 59.3516 246.156C59.7005 246.156 60.0703 246.198 60.4609 246.281C60.8516 246.359 61.2188 246.508 61.5625 246.727C61.9115 246.94 62.1953 247.247 62.4141 247.648C62.6328 248.049 62.7422 248.568 62.7422 249.203V255H61.0781V253.805H61.0156C60.9115 254.018 60.7474 254.232 60.5234 254.445C60.3047 254.659 60.0234 254.836 59.6797 254.977C59.3359 255.117 58.9219 255.188 58.4375 255.188ZM58.8047 253.828C59.2786 253.828 59.6823 253.737 60.0156 253.555C60.349 253.367 60.6042 253.122 60.7812 252.82C60.9583 252.518 61.0469 252.198 61.0469 251.859V250.727C60.9844 250.784 60.8672 250.839 60.6953 250.891C60.5234 250.943 60.3281 250.987 60.1094 251.023C59.8906 251.06 59.6771 251.094 59.4688 251.125C59.2604 251.151 59.0859 251.172 58.9453 251.188C58.6172 251.234 58.3177 251.307 58.0469 251.406C57.776 251.5 57.5573 251.641 57.3906 251.828C57.2292 252.01 57.1484 252.253 57.1484 252.555C57.1484 252.977 57.3047 253.294 57.6172 253.508C57.9297 253.721 58.3255 253.828 58.8047 253.828ZM69.2656 252.898L72.0859 246.266H73.5469L69.8984 255H68.6328L65.0547 246.266H66.5L69.2656 252.898ZM66.0234 246.266V255H64.375V246.266H66.0234ZM72.5469 255V246.266H74.1875V255H72.5469ZM79.4766 255.18C78.6589 255.18 77.9427 254.992 77.3281 254.617C76.7188 254.242 76.2448 253.716 75.9062 253.039C75.5729 252.362 75.4062 251.576 75.4062 250.68C75.4062 249.773 75.5729 248.982 75.9062 248.305C76.2448 247.622 76.7188 247.094 77.3281 246.719C77.9427 246.344 78.6589 246.156 79.4766 246.156C80.2995 246.156 81.0156 246.344 81.625 246.719C82.2344 247.094 82.7083 247.622 83.0469 248.305C83.3854 248.982 83.5547 249.773 83.5547 250.68C83.5547 251.576 83.3854 252.362 83.0469 253.039C82.7083 253.716 82.2344 254.242 81.625 254.617C81.0156 254.992 80.2995 255.18 79.4766 255.18ZM79.4766 253.75C80.013 253.75 80.4557 253.609 80.8047 253.328C81.1536 253.047 81.4115 252.674 81.5781 252.211C81.75 251.742 81.8359 251.232 81.8359 250.68C81.8359 250.117 81.75 249.602 81.5781 249.133C81.4115 248.664 81.1536 248.289 80.8047 248.008C80.4557 247.727 80.013 247.586 79.4766 247.586C78.9453 247.586 78.5052 247.727 78.1562 248.008C77.8125 248.289 77.5547 248.664 77.3828 249.133C77.2109 249.602 77.125 250.117 77.125 250.68C77.125 251.232 77.2109 251.742 77.3828 252.211C77.5547 252.674 77.8125 253.047 78.1562 253.328C78.5052 253.609 78.9453 253.75 79.4766 253.75ZM84.7812 255V246.266H86.4688V249.93H87.2891L90.1719 246.266H92.2656L88.8984 250.523L92.3125 255H90.2031L87.5703 251.508H86.4688V255H84.7812ZM95.4844 255.188C94.9323 255.188 94.4323 255.086 93.9844 254.883C93.5365 254.674 93.1823 254.372 92.9219 253.977C92.6615 253.581 92.5312 253.099 92.5312 252.531C92.5312 252.036 92.625 251.633 92.8125 251.32C93.0052 251.003 93.263 250.75 93.5859 250.562C93.9089 250.375 94.2682 250.234 94.6641 250.141C95.0599 250.047 95.4661 249.974 95.8828 249.922C96.4089 249.865 96.8333 249.815 97.1562 249.773C97.4792 249.732 97.7135 249.667 97.8594 249.578C98.0104 249.484 98.0859 249.336 98.0859 249.133V249.094C98.0859 248.599 97.9453 248.216 97.6641 247.945C97.388 247.674 96.9766 247.539 96.4297 247.539C95.862 247.539 95.4115 247.664 95.0781 247.914C94.75 248.159 94.5234 248.438 94.3984 248.75L92.7969 248.383C92.9896 247.852 93.2682 247.424 93.6328 247.102C94.0026 246.773 94.4245 246.534 94.8984 246.383C95.3776 246.232 95.8776 246.156 96.3984 246.156C96.7474 246.156 97.1172 246.198 97.5078 246.281C97.8984 246.359 98.2656 246.508 98.6094 246.727C98.9583 246.94 99.2422 247.247 99.4609 247.648C99.6797 248.049 99.7891 248.568 99.7891 249.203V255H98.125V253.805H98.0625C97.9583 254.018 97.7943 254.232 97.5703 254.445C97.3516 254.659 97.0703 254.836 96.7266 254.977C96.3828 255.117 95.9688 255.188 95.4844 255.188ZM95.8516 253.828C96.3255 253.828 96.7292 253.737 97.0625 253.555C97.3958 253.367 97.651 253.122 97.8281 252.82C98.0052 252.518 98.0938 252.198 98.0938 251.859V250.727C98.0312 250.784 97.9141 250.839 97.7422 250.891C97.5703 250.943 97.375 250.987 97.1562 251.023C96.9375 251.06 96.724 251.094 96.5156 251.125C96.3073 251.151 96.1328 251.172 95.9922 251.188C95.6641 251.234 95.3646 251.307 95.0938 251.406C94.8229 251.5 94.6042 251.641 94.4375 251.828C94.276 252.01 94.1953 252.253 94.1953 252.555C94.1953 252.977 94.3516 253.294 94.6641 253.508C94.9766 253.721 95.3724 253.828 95.8516 253.828ZM100.336 247.734V246.266H107.688V247.734H104.852V255H103.188V247.734H100.336Z" fill="#303030"/>
<path d="M318.5 254L323.5 249L318.5 244" stroke="#303030" stroke-width="2" stroke-linecap="round" stroke-linejoin="round"/>
</g>
<defs>
<filter id="filter0_d_5500_3457" x="0" y="0" width="375" height="312" filterUnits="userSpaceOnUse" color-interpolation-filters="sRGB">
<feFlood flood-opacity="0" result="BackgroundImageFix"/>
<feColorMatrix in="SourceAlpha" type="matrix" values="0 0 0 0 0 0 0 0 0 0 0 0 0 0 0 0 0 0 127 0" result="hardAlpha"/>
<feOffset dy="8"/>
<feGaussianBlur stdDeviation="8"/>
<feComposite in2="hardAlpha" operator="out"/>
<feColorMatrix type="matrix" values="0 0 0 0 0.188235 0 0 0 0 0.188235 0 0 0 0 0.188235 0 0 0 0.08 0"/>
<feBlend mode="normal" in2="BackgroundImageFix" result="effect1_dropShadow_5500_3457"/>
<feBlend mode="normal" in="SourceGraphic" in2="effect1_dropShadow_5500_3457" result="shape"/>
</filter>
</defs>
</svg>
