<svg width="335" height="152" viewBox="0 0 335 152" fill="none" xmlns="http://www.w3.org/2000/svg">
<g clip-path="url(#clip0_5403_1672)" filter="url(#filter0_d_5403_1672)">
<path d="M308.399 8H26.6006C20.746 8 16 12.7405 16 18.5882V117.412C16 123.259 20.746 128 26.6006 128H308.399C314.254 128 319 123.259 319 117.412V18.5882C319 12.7405 314.254 8 308.399 8Z" fill="white"/>
<path d="M34.551 21.6763C34.551 21.189 34.9465 20.7939 35.4343 20.7939H39.7037C42.1428 20.7939 44.1202 22.7692 44.1202 25.2057C44.1202 27.6422 42.1428 29.6175 39.7037 29.6175H38.3787C37.8908 29.6175 37.4954 30.0125 37.4954 30.4998V33.1469C37.4954 33.6342 37.0999 34.0292 36.6121 34.0292H35.4343C34.9465 34.0292 34.551 33.6342 34.551 33.1469V21.6763ZM38.3787 23.7351C37.8908 23.7351 37.4954 24.1301 37.4954 24.6174V25.794C37.4954 26.2813 37.8908 26.6763 38.3787 26.6763H39.7037C40.5168 26.6763 41.1759 26.0179 41.1759 25.2057C41.1759 24.3935 40.5168 23.7351 39.7037 23.7351H38.3787Z" fill="#6F00FF"/>
<path d="M57.3809 33.5884V23.3173H63.9992V24.8751H59.2442V27.2878H61.2249C62.0162 27.2878 62.6926 27.4165 63.2539 27.6739C63.8152 27.9266 64.2477 28.2851 64.5514 28.7492C64.8551 29.2134 65.0069 29.7603 65.0069 30.3898C65.0069 31.0194 64.8551 31.5755 64.5514 32.058C64.2477 32.536 63.8152 32.9105 63.2539 33.1817C62.6926 33.4528 62.0162 33.5884 61.2249 33.5884H57.3809ZM59.2442 32.058H61.2249C61.6436 32.058 61.9956 31.9799 62.2808 31.8237C62.566 31.6674 62.7846 31.4606 62.9364 31.2033C63.0883 30.9459 63.1642 30.6679 63.1642 30.3692C63.1642 29.9372 62.9963 29.5672 62.6604 29.2594C62.3291 28.9514 61.8506 28.7998 61.2249 28.8043H59.2442V32.058ZM75.6213 32.0305L75.4902 36.0148H73.682V33.5884H72.9505V32.0305H75.6213ZM66.1043 33.5884V23.3173H67.8917V32.0443H72.5088V23.3173H74.3169V33.5884H66.1043ZM86.7878 23.3173V33.5884H84.9658V23.3173H86.7878ZM78.9271 33.5884L82.1845 28.1977L79.1065 23.3173H81.3908L83.8201 27.6531H87.9748L90.3558 23.3173H92.6333L89.6104 28.184L92.8266 33.5884H90.6181L88.237 29.3834H83.5303L81.101 33.5884H78.9271ZM96.636 33.74C95.8631 33.74 95.196 33.5792 94.6347 33.2575C94.0734 32.9312 93.6409 32.4717 93.3372 31.8788C93.0381 31.286 92.8887 30.5875 92.8887 29.7832C92.8887 28.9882 93.0381 28.292 93.3372 27.6945C93.6363 27.0925 94.0573 26.6238 94.6002 26.2883C95.143 25.9528 95.7826 25.785 96.5187 25.785C96.9927 25.785 97.4412 25.8609 97.8646 26.0126C98.2924 26.1642 98.6697 26.3986 98.9964 26.7156C99.3276 27.0328 99.5876 27.4371 99.7762 27.9289C99.9649 28.416 100.059 28.9974 100.059 29.6729V30.2382H93.7375V29.018H99.1551L98.3063 29.3765C98.3063 28.94 98.2396 28.5608 98.1061 28.2391C97.9727 27.9128 97.7748 27.6577 97.5125 27.4739C97.2504 27.2901 96.9237 27.1982 96.5326 27.1982C96.1415 27.1982 95.808 27.2901 95.5318 27.4739C95.2558 27.6577 95.0465 27.9059 94.9038 28.2185C94.7612 28.5263 94.6899 28.871 94.6899 29.2524V30.1003C94.6899 30.569 94.7704 30.9712 94.9315 31.3067C95.0971 31.6376 95.3271 31.8903 95.6216 32.0649C95.9207 32.2396 96.268 32.3269 96.6637 32.3269C96.9214 32.3269 97.156 32.2901 97.3677 32.2166C97.5839 32.1431 97.7679 32.0328 97.9198 31.8857C98.0762 31.734 98.1958 31.5479 98.2786 31.3273L99.9764 31.5273C99.866 31.973 99.6612 32.3637 99.3622 32.6991C99.0677 33.03 98.6881 33.2874 98.2234 33.4712C97.7633 33.6504 97.2342 33.74 96.636 33.74ZM106.333 28.9835V30.4726H102.24V28.9835H106.333ZM102.792 25.8816V33.5884H101.046V25.8816H102.792ZM107.533 25.8816V33.5884H105.788V25.8816H107.533ZM112.289 33.74C111.516 33.74 110.849 33.5792 110.287 33.2575C109.726 32.9312 109.293 32.4717 108.99 31.8788C108.69 31.286 108.541 30.5875 108.541 29.7832C108.541 28.9882 108.69 28.292 108.99 27.6945C109.289 27.0925 109.71 26.6238 110.252 26.2883C110.796 25.9528 111.435 25.785 112.171 25.785C112.645 25.785 113.093 25.8609 113.517 26.0126C113.945 26.1642 114.322 26.3986 114.649 26.7156C114.98 27.0328 115.24 27.4371 115.429 27.9289C115.617 28.416 115.712 28.9974 115.712 29.6729V30.2382H109.39V29.018H114.808L113.959 29.3765C113.959 28.94 113.892 28.5608 113.758 28.2391C113.625 27.9128 113.427 27.6577 113.165 27.4739C112.902 27.2901 112.576 27.1982 112.185 27.1982C111.794 27.1982 111.46 27.2901 111.184 27.4739C110.909 27.6577 110.699 27.9059 110.556 28.2185C110.414 28.5263 110.342 28.871 110.342 29.2524V30.1003C110.342 30.569 110.423 30.9712 110.584 31.3067C110.75 31.6376 110.979 31.8903 111.274 32.0649C111.573 32.2396 111.92 32.3269 112.316 32.3269C112.574 32.3269 112.809 32.2901 113.02 32.2166C113.236 32.1431 113.42 32.0328 113.572 31.8857C113.728 31.734 113.849 31.5479 113.931 31.3273L115.629 31.5273C115.518 31.973 115.313 32.3637 115.015 32.6991C114.72 33.03 114.341 33.2874 113.876 33.4712C113.416 33.6504 112.887 33.74 112.289 33.74ZM116.698 33.5884V25.8816H119.935C120.847 25.8861 121.567 26.0723 122.096 26.4399C122.629 26.803 122.896 27.3085 122.896 27.9565C122.896 28.3931 122.747 28.7469 122.447 29.018C122.148 29.2846 121.743 29.4661 121.233 29.5626C121.633 29.5948 121.985 29.6982 122.288 29.8729C122.597 30.0429 122.839 30.2658 123.014 30.5415C123.189 30.8173 123.276 31.1367 123.276 31.4997C123.276 31.9225 123.163 32.2924 122.938 32.6095C122.717 32.922 122.394 33.1633 121.971 33.3333C121.553 33.5033 121.039 33.5884 120.432 33.5884H116.698ZM118.396 32.1545H120.432C120.768 32.1591 121.03 32.0833 121.219 31.9271C121.412 31.7662 121.507 31.5479 121.502 31.2722C121.507 30.9551 121.412 30.707 121.219 30.5277C121.03 30.3439 120.768 30.252 120.432 30.252H118.396V32.1545ZM118.396 29.0801H119.97C120.338 29.0755 120.628 28.9951 120.84 28.8388C121.051 28.6826 121.157 28.4689 121.157 28.1977C121.157 27.9266 121.049 27.7176 120.833 27.5705C120.616 27.4188 120.318 27.343 119.935 27.343H118.396V29.0801ZM127.61 33.74C126.841 33.74 126.181 33.5723 125.629 33.2368C125.077 32.8967 124.653 32.428 124.359 31.8305C124.065 31.2331 123.917 30.5461 123.917 29.7695C123.917 28.9835 124.067 28.292 124.366 27.6945C124.665 27.0971 125.09 26.6307 125.643 26.2952C126.195 25.9551 126.846 25.785 127.596 25.785C128.226 25.785 128.783 25.9 129.266 26.1298C129.749 26.3595 130.134 26.6835 130.418 27.1017C130.709 27.5153 130.874 28.0002 130.915 28.5562H129.176C129.13 28.308 129.041 28.0851 128.907 27.8876C128.773 27.6899 128.599 27.5337 128.383 27.4188C128.171 27.3039 127.918 27.2465 127.623 27.2465C127.251 27.2465 126.924 27.3476 126.643 27.5497C126.368 27.7474 126.151 28.0323 125.995 28.4045C125.839 28.7768 125.76 29.2226 125.76 29.7418C125.76 30.2658 125.836 30.7184 125.988 31.0999C126.14 31.4767 126.355 31.7685 126.636 31.9753C126.917 32.1775 127.246 32.2786 127.623 32.2786C128.023 32.2786 128.362 32.1614 128.638 31.9271C128.919 31.6927 129.098 31.3687 129.176 30.9551H130.915C130.874 31.502 130.713 31.9845 130.432 32.4027C130.151 32.8209 129.772 33.1495 129.294 33.3884C128.815 33.6229 128.254 33.74 127.61 33.74ZM131.895 33.5884V25.8816H133.711V28.9974H134.373L136.699 25.8816H138.88L136.029 29.6729L138.907 33.5884H136.712L134.594 30.6793H133.711V33.5884H131.895ZM141.15 31.1274L144.242 25.8816H146.105V33.5884H144.36V28.3356L141.274 33.5884H139.404V25.8816H141.15V31.1274ZM149.197 31.1274L152.289 25.8816H154.153V33.5884H152.406V28.3356L149.322 33.5884H147.452V25.8816H149.197V31.1274ZM150.792 24.9992C150.096 24.9992 149.531 24.8131 149.094 24.4408C148.661 24.0686 148.445 23.5815 148.445 22.9795H149.805C149.805 23.269 149.894 23.5033 150.073 23.6825C150.254 23.8573 150.492 23.9445 150.792 23.9445C151.09 23.9445 151.33 23.8573 151.509 23.6825C151.689 23.5033 151.778 23.269 151.778 22.9795H153.145C153.145 23.5815 152.927 24.0686 152.489 24.4408C152.057 24.8131 151.491 24.9992 150.792 24.9992ZM157.797 35.8288V32.0925H158.404C158.57 31.9685 158.708 31.7984 158.818 31.5824C158.928 31.3618 159.018 31.1022 159.087 30.8035C159.161 30.5001 159.221 30.1624 159.267 29.7901C159.317 29.4178 159.36 29.018 159.397 28.5906L159.618 25.8816H165.195V32.0925H166.382V35.8288H164.629V33.5884H159.584V35.8288H157.797ZM160.274 32.0925H163.456V27.3499H161.199L161.075 28.5906C161.011 29.4041 160.92 30.1026 160.806 30.6862C160.695 31.2653 160.518 31.734 160.274 32.0925ZM170.578 33.74C169.823 33.74 169.17 33.5746 168.618 33.2437C168.066 32.9128 167.638 32.4486 167.334 31.8512C167.035 31.2538 166.886 30.5599 166.886 29.7695C166.886 28.9744 167.035 28.2782 167.334 27.6808C167.638 27.0787 168.066 26.6123 168.618 26.2814C169.17 25.9505 169.823 25.785 170.578 25.785C171.333 25.785 171.986 25.9505 172.538 26.2814C173.09 26.6123 173.517 27.0787 173.821 27.6808C174.125 28.2782 174.277 28.9744 174.277 29.7695C174.277 30.5599 174.125 31.2538 173.821 31.8512C173.517 32.4486 173.09 32.9128 172.538 33.2437C171.986 33.5746 171.333 33.74 170.578 33.74ZM170.578 32.2786C170.996 32.2786 171.342 32.1683 171.613 31.9477C171.885 31.7225 172.087 31.4193 172.221 31.0378C172.358 30.6564 172.427 30.2336 172.427 29.7695C172.427 29.2961 172.358 28.8687 172.221 28.4873C172.087 28.1059 171.885 27.8048 171.613 27.5842C171.342 27.359 170.996 27.2465 170.578 27.2465C170.169 27.2465 169.826 27.359 169.549 27.5842C169.274 27.8048 169.066 28.1059 168.928 28.4873C168.795 28.8687 168.729 29.2961 168.729 29.7695C168.729 30.2336 168.795 30.6564 168.928 31.0378C169.066 31.4193 169.274 31.7225 169.549 31.9477C169.826 32.1683 170.169 32.2786 170.578 32.2786ZM179.715 31.479L182.007 25.8816H183.463L180.35 33.5884H179.08L176.03 25.8816H177.486L179.715 31.479ZM177.024 25.8816V33.5884H175.278V25.8816H177.024ZM182.476 33.5884V25.8816H184.208V33.5884H182.476Z" fill="#303030"/>
<path d="M61.9354 47.7057C61.9354 46.2437 60.749 45.0586 59.2854 45.0586C57.8219 45.0586 56.6355 46.2437 56.6355 47.7057C56.6355 49.1676 57.8219 50.3527 59.2854 50.3527C60.749 50.3527 61.9354 49.1676 61.9354 47.7057Z" fill="#12B76A"/>
<path d="M71.3969 52.2295C70.6792 52.2295 70.0362 52.0577 69.468 51.7142C68.8997 51.3706 68.453 50.8797 68.1278 50.2411C67.8025 49.5989 67.6399 48.8353 67.6399 47.9503C67.6399 47.058 67.8025 46.2925 68.1278 45.654C68.4568 45.0118 68.9035 44.5189 69.468 44.1754C70.0362 43.8319 70.6792 43.6601 71.3969 43.6601C71.838 43.6601 72.2511 43.7236 72.6361 43.8506C73.0249 43.9775 73.3726 44.1623 73.6791 44.405C73.9857 44.6477 74.238 44.9446 74.4361 45.2956C74.638 45.6465 74.7725 46.0442 74.8398 46.4885H73.5726C73.5239 46.216 73.4324 45.977 73.2978 45.7716C73.1669 45.5625 73.0043 45.387 72.81 45.2451C72.6193 45.0995 72.4043 44.9913 72.1651 44.9203C71.9296 44.8456 71.6792 44.8083 71.4137 44.8083C70.9352 44.8083 70.5035 44.9296 70.1184 45.1723C69.7371 45.4113 69.4362 45.7661 69.2156 46.2365C68.9988 46.7032 68.8904 47.2745 68.8904 47.9503C68.8904 48.6299 69.0007 49.2031 69.2212 49.6699C69.4417 50.1328 69.7427 50.4838 70.124 50.7228C70.5053 50.9618 70.9333 51.0813 71.4081 51.0813C71.6735 51.0813 71.9239 51.0458 72.1594 50.9749C72.395 50.9039 72.61 50.7975 72.8043 50.6556C72.9987 50.5138 73.1614 50.342 73.2922 50.1403C73.4267 49.9349 73.5202 49.6978 73.5726 49.429H74.8398C74.7763 49.8435 74.6473 50.2225 74.4529 50.566C74.2585 50.9058 74.01 51.2008 73.7071 51.4509C73.4043 51.6973 73.0586 51.8897 72.6698 52.0278C72.281 52.1623 71.8567 52.2295 71.3969 52.2295ZM78.1482 50.4875V49.4738L81.7538 43.7721H82.5556V45.2732H82.0397L79.4603 49.3506V49.4178H84.4117V50.4875H78.1482ZM82.0958 52.1174V50.1795L82.107 49.7147V43.7721H83.307V52.1174H82.0958ZM87.9163 52.1174V45.8556H93.019V52.1174H91.8247V46.9086H89.0939V52.1174H87.9163ZM96.8153 52.2463C96.2283 52.2463 95.7143 52.1119 95.2732 51.843C94.8359 51.5742 94.4957 51.197 94.2526 50.7116C94.0134 50.2262 93.8938 49.6624 93.8938 49.0201C93.8938 48.3704 94.0134 47.8029 94.2526 47.3175C94.4957 46.8283 94.8359 46.4494 95.2732 46.1805C95.7143 45.9117 96.2283 45.7773 96.8153 45.7773C97.4059 45.7773 97.9199 45.9117 98.3573 46.1805C98.7946 46.4494 99.1348 46.8283 99.3779 47.3175C99.6208 47.8029 99.7423 48.3704 99.7423 49.0201C99.7423 49.6624 99.6208 50.2262 99.3779 50.7116C99.1348 51.197 98.7946 51.5742 98.3573 51.843C97.9199 52.1119 97.4059 52.2463 96.8153 52.2463ZM96.8153 51.2213C97.2003 51.2213 97.5181 51.1205 97.7685 50.9188C98.0189 50.7172 98.204 50.4502 98.3236 50.1179C98.447 49.7818 98.5087 49.4159 98.5087 49.0201C98.5087 48.6169 98.447 48.2472 98.3236 47.9112C98.204 47.5752 98.0189 47.3063 97.7685 47.1046C97.5181 46.903 97.2003 46.8022 96.8153 46.8022C96.4339 46.8022 96.1181 46.903 95.8676 47.1046C95.6208 47.3063 95.4358 47.5752 95.3124 47.9112C95.1891 48.2472 95.1274 48.6169 95.1274 49.0201C95.1274 49.4159 95.1891 49.7818 95.3124 50.1179C95.4358 50.4502 95.6208 50.7172 95.8676 50.9188C96.1181 51.1205 96.4339 51.2213 96.8153 51.2213ZM105.904 43.6545C106.279 43.6582 106.645 43.7273 107.004 43.8618C107.366 43.9925 107.693 44.209 107.985 44.5115C108.281 44.8139 108.516 45.2227 108.692 45.738C108.867 46.2496 108.956 46.8881 108.956 47.6535C108.956 48.3816 108.882 49.0295 108.737 49.5971C108.591 50.1646 108.38 50.6444 108.103 51.0365C107.83 51.4285 107.499 51.7273 107.11 51.9326C106.722 52.1342 106.286 52.235 105.804 52.235C105.306 52.235 104.864 52.1361 104.475 51.9382C104.086 51.7403 103.772 51.4696 103.533 51.1261C103.294 50.7788 103.142 50.3811 103.079 49.9331H104.324C104.405 50.2878 104.572 50.5772 104.822 50.8012C105.077 51.0215 105.404 51.1317 105.804 51.1317C106.413 51.1317 106.888 50.8647 107.228 50.3308C107.572 49.7968 107.746 49.0519 107.75 48.096H107.688C107.542 48.3313 107.365 48.5347 107.155 48.7065C106.946 48.8745 106.71 49.0033 106.449 49.093C106.187 49.1825 105.911 49.2274 105.619 49.2274C105.133 49.2274 104.692 49.1098 104.296 48.8745C103.899 48.6393 103.585 48.3163 103.354 47.9056C103.122 47.4911 103.004 47.0188 103 46.4885C103.004 45.9583 103.125 45.4785 103.365 45.0492C103.608 44.6197 103.946 44.2799 104.38 44.0298C104.813 43.7758 105.321 43.6508 105.904 43.6545ZM105.911 44.7186C105.593 44.7186 105.306 44.7971 105.053 44.9539C104.798 45.1108 104.598 45.3217 104.452 45.5868C104.307 45.8519 104.234 46.1469 104.234 46.4718C104.234 46.7966 104.303 47.0897 104.442 47.351C104.584 47.6125 104.78 47.8215 105.03 47.9784C105.281 48.1315 105.564 48.208 105.882 48.208C106.204 48.208 106.492 48.1278 106.746 47.9672C107.004 47.8029 107.209 47.5882 107.363 47.3231C107.516 47.0542 107.593 46.7649 107.593 46.4549C107.593 46.1488 107.52 45.8631 107.374 45.598C107.228 45.3329 107.028 45.1201 106.774 44.9595C106.524 44.7989 106.236 44.7186 105.911 44.7186ZM111.882 53.9209V51.0644H112.387C112.517 50.945 112.63 50.8031 112.723 50.6388C112.817 50.4708 112.894 50.2729 112.953 50.0451C113.017 49.8136 113.071 49.5466 113.116 49.2442C113.161 48.9417 113.2 48.5926 113.234 48.1968L113.43 45.8556H117.686V51.0644H118.651V53.9209H117.456V52.1174H113.093V53.9209H111.882ZM113.699 51.0644H116.497V46.8974H114.517L114.383 48.1968C114.327 48.8577 114.251 49.429 114.153 49.9107C114.06 50.3886 113.909 50.7733 113.699 51.0644ZM122.06 52.2463C121.447 52.2463 120.916 52.1137 120.467 51.8486C120.018 51.5835 119.673 51.2101 119.43 50.7284C119.191 50.243 119.071 49.6773 119.071 49.0313C119.071 48.3891 119.189 47.8235 119.425 47.3343C119.663 46.8451 119.998 46.4643 120.428 46.1917C120.862 45.9154 121.37 45.7773 121.953 45.7773C122.308 45.7773 122.652 45.8351 122.985 45.9508C123.318 46.0666 123.617 46.2496 123.882 46.4998C124.147 46.7499 124.357 47.0748 124.51 47.4743C124.667 47.8738 124.746 48.3555 124.746 48.9193V49.3562H119.76V48.4432H124.118L123.552 48.7457C123.552 48.3611 123.492 48.0213 123.372 47.7263C123.252 47.4313 123.073 47.2017 122.834 47.0375C122.598 46.8694 122.304 46.7854 121.953 46.7854C121.602 46.7854 121.301 46.8694 121.05 47.0375C120.804 47.2055 120.615 47.4276 120.484 47.7039C120.353 47.9803 120.288 48.2827 120.288 48.6113V49.233C120.288 49.6624 120.363 50.0264 120.512 50.3252C120.661 50.6239 120.869 50.8516 121.135 51.0085C121.403 51.1653 121.716 51.2437 122.071 51.2437C122.303 51.2437 122.512 51.2101 122.699 51.1429C122.889 51.0756 123.054 50.9749 123.192 50.8404C123.331 50.706 123.435 50.5399 123.507 50.342L124.661 50.5604C124.569 50.8964 124.403 51.1914 124.168 51.4453C123.932 51.6992 123.636 51.8971 123.276 52.039C122.921 52.1772 122.516 52.2463 122.06 52.2463ZM125.598 52.1174V45.8556H126.81V48.4825H127.398L129.467 45.8556H130.97L128.553 48.9081L131.004 52.1174H129.49L127.6 49.6138H126.81V52.1174H125.598ZM133.28 52.2518C132.884 52.2518 132.525 52.179 132.204 52.0334C131.882 51.884 131.628 51.6675 131.441 51.3838C131.254 51.0999 131.16 50.7545 131.16 50.3475C131.16 49.9928 131.227 49.7035 131.363 49.4795C131.5 49.2516 131.686 49.0706 131.917 48.9361C132.15 48.8017 132.408 48.7009 132.691 48.6337C132.976 48.5665 133.267 48.5142 133.566 48.4768C133.944 48.4358 134.249 48.4003 134.48 48.3704C134.712 48.3406 134.88 48.2939 134.984 48.2304C135.093 48.1633 135.147 48.0567 135.147 47.9112V47.8832C135.147 47.5285 135.046 47.254 134.845 47.0599C134.646 46.8657 134.351 46.7686 133.959 46.7686C133.551 46.7686 133.227 46.8582 132.989 47.0375C132.753 47.213 132.591 47.4127 132.5 47.6368L131.351 47.3735C131.49 46.9926 131.689 46.6865 131.951 46.4549C132.217 46.2197 132.52 46.048 132.86 45.9396C133.204 45.8314 133.562 45.7773 133.936 45.7773C134.187 45.7773 134.452 45.8071 134.733 45.8668C135.013 45.9229 135.276 46.0293 135.523 46.1861C135.773 46.3392 135.977 46.5595 136.135 46.847C136.291 47.1345 136.37 47.5061 136.37 47.9615V52.1174H135.175V51.2605H135.13C135.056 51.4136 134.938 51.5667 134.778 51.7198C134.621 51.8728 134.418 51.9998 134.172 52.1007C133.925 52.2014 133.628 52.2518 133.28 52.2518ZM133.544 51.2773C133.884 51.2773 134.174 51.212 134.413 51.0813C134.652 50.9468 134.835 50.7713 134.962 50.5548C135.09 50.3383 135.153 50.1086 135.153 49.8658V49.0537C135.108 49.0948 135.024 49.134 134.901 49.1713C134.778 49.2087 134.637 49.2404 134.48 49.2665C134.323 49.2928 134.17 49.317 134.021 49.3394C133.871 49.358 133.746 49.373 133.644 49.3842C133.409 49.4178 133.194 49.4701 133 49.541C132.805 49.6082 132.649 49.709 132.529 49.8435C132.413 49.9742 132.355 50.1478 132.355 50.3644C132.355 50.6668 132.467 50.8946 132.691 51.0477C132.916 51.2008 133.2 51.2773 133.544 51.2773ZM142.364 43.5312L142.869 44.2986C142.686 44.4703 142.475 44.5917 142.235 44.6627C141.996 44.7336 141.721 44.7785 141.411 44.7971C141.101 44.8158 140.746 44.8325 140.346 44.8475C139.893 44.8587 139.522 44.9558 139.23 45.1387C138.942 45.3179 138.719 45.5831 138.562 45.9341C138.405 46.2851 138.304 46.7275 138.259 47.2615H138.338C138.537 46.8732 138.817 46.5837 139.179 46.3933C139.545 46.1991 139.957 46.1021 140.413 46.1021C140.917 46.1021 141.366 46.2178 141.758 46.4494C142.151 46.6771 142.461 47.0132 142.689 47.4575C142.917 47.9018 143.029 48.4432 143.026 49.0818C143.029 49.7315 142.914 50.2934 142.678 50.7676C142.443 51.2418 142.108 51.6058 141.674 51.8598C141.244 52.1137 140.738 52.2425 140.155 52.2463C139.276 52.2425 138.574 51.9438 138.046 51.3501C137.52 50.7527 137.254 49.879 137.25 48.7289V48.1184C137.254 46.6846 137.512 45.6073 138.024 44.8867C138.537 44.166 139.301 43.7945 140.317 43.7721C140.646 43.7646 140.94 43.7628 141.198 43.7665C141.456 43.7703 141.682 43.7591 141.877 43.733C142.071 43.703 142.234 43.6358 142.364 43.5312ZM140.155 51.2269C140.499 51.2232 140.792 51.1354 141.036 50.9637C141.279 50.7919 141.467 50.5473 141.602 50.2299C141.736 49.9125 141.802 49.5373 141.798 49.1042C141.802 48.6823 141.736 48.3238 141.602 48.0288C141.467 47.7301 141.276 47.5023 141.029 47.3455C140.783 47.1887 140.485 47.1102 140.138 47.1102C139.884 47.1102 139.656 47.1551 139.454 47.2446C139.252 47.3343 139.08 47.465 138.938 47.6368C138.796 47.8048 138.686 48.012 138.607 48.2585C138.532 48.5049 138.492 48.7868 138.484 49.1042C138.484 49.7464 138.631 50.2598 138.927 50.6444C139.226 51.029 139.635 51.2232 140.155 51.2269ZM143.912 54.4586V45.8556H145.089V46.875H145.19C145.265 46.7443 145.368 46.5931 145.498 46.4213C145.634 46.2496 145.82 46.1002 146.059 45.9732C146.299 45.8426 146.611 45.7773 146.996 45.7773C147.5 45.7773 147.949 45.9042 148.341 46.1581C148.738 46.412 149.05 46.7798 149.278 47.2615C149.506 47.7432 149.62 48.3238 149.62 49.0033C149.62 49.6754 149.508 50.2542 149.284 50.7396C149.059 51.2213 148.749 51.5928 148.353 51.8542C147.96 52.1119 147.51 52.2406 147.001 52.2406C146.624 52.2406 146.314 52.1772 146.071 52.0502C145.832 51.9195 145.642 51.7683 145.505 51.5966C145.37 51.4248 145.265 51.2735 145.19 51.1429H145.123V54.4586H143.912ZM146.738 51.2045C147.101 51.2045 147.403 51.1074 147.646 50.9133C147.889 50.7191 148.073 50.4559 148.195 50.1235C148.323 49.7875 148.386 49.4104 148.386 48.9921C148.386 48.5777 148.324 48.2061 148.202 47.8775C148.078 47.549 147.895 47.2895 147.652 47.099C147.409 46.9086 147.104 46.8134 146.738 46.8134C146.383 46.8134 146.084 46.9048 145.84 47.0878C145.597 47.267 145.413 47.521 145.286 47.8496C145.162 48.1744 145.101 48.5553 145.101 48.9921C145.101 49.429 145.164 49.8136 145.291 50.1459C145.418 50.4783 145.604 50.7378 145.847 50.9244C146.093 51.1111 146.391 51.2045 146.738 51.2045ZM154.24 52.1174V46.8974H152.733C152.377 46.9011 152.101 46.9851 151.902 47.1494C151.704 47.3137 151.607 47.5303 151.611 47.7992C151.607 48.0642 151.697 48.2789 151.88 48.4432C152.063 48.6038 152.321 48.6841 152.654 48.6841H154.588V49.6699H152.654C152.19 49.6699 151.79 49.5933 151.453 49.4402C151.121 49.2871 150.863 49.0687 150.68 48.7849C150.5 48.5011 150.413 48.167 150.416 47.7823C150.413 47.3903 150.505 47.0505 150.691 46.763C150.878 46.4755 151.145 46.2533 151.493 46.0965C151.84 45.9359 152.254 45.8556 152.733 45.8556H155.384V52.1174H154.24ZM150.125 52.1174L151.892 48.953H153.142L151.369 52.1174H150.125Z" fill="#303030"/>
<path d="M265.675 52.1175V51.2102L268.501 48.2753C268.8 47.9616 269.047 47.6854 269.241 47.4464C269.439 47.2037 269.586 46.974 269.683 46.7575C269.785 46.5409 269.835 46.3113 269.835 46.0685C269.835 45.7885 269.77 45.5477 269.639 45.3461C269.508 45.1444 269.33 44.9894 269.107 44.8812C268.882 44.7729 268.628 44.7187 268.343 44.7187C268.045 44.7187 267.785 44.7804 267.564 44.9036C267.343 45.023 267.172 45.1948 267.048 45.4189C266.929 45.6392 266.869 45.8987 266.869 46.1974H265.668C265.668 45.6896 265.785 45.2452 266.017 44.8644C266.252 44.4835 266.574 44.1885 266.981 43.9795C267.392 43.7666 267.856 43.6602 268.372 43.6602C268.899 43.6602 269.362 43.7647 269.762 43.9738C270.162 44.1829 270.474 44.4667 270.698 44.8252C270.923 45.1799 271.035 45.5813 271.035 46.0294C271.035 46.3392 270.978 46.6417 270.861 46.9367C270.749 47.2317 270.549 47.5621 270.261 47.9281C269.978 48.2902 269.581 48.7272 269.072 49.2387L267.413 50.9749V51.0421H271.169V52.1175H265.675ZM277.551 52.2296C277.038 52.2296 276.579 52.1324 276.172 51.9383C275.768 51.7404 275.444 51.4697 275.201 51.1262C274.958 50.7789 274.829 50.385 274.814 49.9444H276.037C276.067 50.2991 276.226 50.5922 276.514 50.8237C276.802 51.0552 277.147 51.1709 277.551 51.1709C277.872 51.1709 278.157 51.0963 278.403 50.9469C278.65 50.7976 278.844 50.594 278.986 50.3364C279.129 50.075 279.199 49.7764 279.199 49.4403C279.199 49.1043 279.127 48.8037 278.981 48.5385C278.835 48.2697 278.633 48.0588 278.375 47.9057C278.121 47.7526 277.827 47.676 277.495 47.676C277.241 47.676 276.986 47.7208 276.732 47.8105C276.478 47.8963 276.273 48.0083 276.115 48.1465L274.955 47.9785L275.425 43.7722H280.018V44.8532H276.48L276.216 47.1888H276.261C276.422 47.0282 276.637 46.8975 276.906 46.7967C277.179 46.6921 277.472 46.6399 277.787 46.6399C278.295 46.6399 278.747 46.7612 279.144 47.0039C279.544 47.2429 279.857 47.5714 280.085 47.9897C280.313 48.4041 280.427 48.8802 280.427 49.4179C280.427 49.9593 280.304 50.4429 280.058 50.8685C279.811 51.2905 279.47 51.6228 279.037 51.8655C278.607 52.1082 278.112 52.2296 277.551 52.2296ZM284.157 52.2296C283.644 52.2296 283.184 52.1324 282.777 51.9383C282.373 51.7404 282.05 51.4697 281.807 51.1262C281.564 50.7789 281.435 50.385 281.42 49.9444H282.643C282.673 50.2991 282.831 50.5922 283.119 50.8237C283.407 51.0552 283.753 51.1709 284.157 51.1709C284.478 51.1709 284.762 51.0963 285.008 50.9469C285.256 50.7976 285.45 50.594 285.592 50.3364C285.734 50.075 285.805 49.7764 285.805 49.4403C285.805 49.1043 285.732 48.8037 285.586 48.5385C285.44 48.2697 285.239 48.0588 284.981 47.9057C284.727 47.7526 284.433 47.676 284.1 47.676C283.846 47.676 283.592 47.7208 283.338 47.8105C283.083 47.8963 282.878 48.0083 282.721 48.1465L281.561 47.9785L282.031 43.7722H286.624V44.8532H283.085L282.822 47.1888H282.867C283.028 47.0282 283.242 46.8975 283.512 46.7967C283.785 46.6921 284.078 46.6399 284.392 46.6399C284.901 46.6399 285.353 46.7612 285.749 47.0039C286.149 47.2429 286.463 47.5714 286.691 47.9897C286.919 48.4041 287.033 48.8802 287.033 49.4179C287.033 49.9593 286.909 50.4429 286.663 50.8685C286.416 51.2905 286.076 51.6228 285.643 51.8655C285.212 52.1082 284.717 52.2296 284.157 52.2296ZM290.908 52.2296C290.264 52.2296 289.713 52.0615 289.254 51.7255C288.797 51.3894 288.448 50.904 288.205 50.2692C287.966 49.6307 287.846 48.8578 287.846 47.9504C287.846 47.0469 287.968 46.2758 288.211 45.6373C288.454 44.9951 288.803 44.5059 289.259 44.1699C289.719 43.8301 290.269 43.6602 290.908 43.6602C291.551 43.6602 292.1 43.8301 292.556 44.1699C293.016 44.5059 293.366 44.9951 293.605 45.6373C293.848 46.2758 293.969 47.0469 293.969 47.9504C293.969 48.8578 293.85 49.6307 293.611 50.2692C293.371 50.904 293.023 51.3894 292.567 51.7255C292.112 52.0615 291.559 52.2296 290.908 52.2296ZM290.908 51.1542C291.301 51.1542 291.631 51.029 291.9 50.7789C292.169 50.5287 292.375 50.1647 292.517 49.6867C292.659 49.205 292.73 48.6263 292.73 47.9504C292.73 47.2709 292.659 46.6921 292.517 46.2142C292.375 45.7325 292.169 45.3666 291.9 45.1164C291.631 44.8625 291.301 44.7356 290.908 44.7356C290.328 44.7356 289.879 45.0175 289.562 45.5813C289.248 46.1414 289.091 46.9311 289.091 47.9504C289.091 48.6263 289.162 49.205 289.304 49.6867C289.446 50.1647 289.651 50.5287 289.921 50.7789C290.194 51.029 290.522 51.1542 290.908 51.1542ZM301.472 48.8466H297.16V47.7824H301.45C301.824 47.7787 302.13 47.7171 302.369 47.5976C302.609 47.4744 302.786 47.3044 302.902 47.0879C303.021 46.8676 303.081 46.6137 303.081 46.3262C303.081 46.0461 303.023 45.796 302.907 45.5757C302.792 45.3516 302.614 45.1743 302.375 45.0436C302.135 44.9129 301.835 44.8475 301.472 44.8475H299.695V52.1175H298.438V43.7722H301.472C302.104 43.7722 302.631 43.888 303.053 44.1194C303.48 44.3472 303.799 44.6534 304.013 45.038C304.229 45.4189 304.338 45.8464 304.338 46.3206C304.338 46.8023 304.229 47.2335 304.013 47.6144C303.795 47.9952 303.474 48.2959 303.048 48.5162C302.626 48.7364 302.1 48.8466 301.472 48.8466ZM301.528 49.5523V50.6164H297.16V49.5523H301.528Z" fill="#303030"/>
<path d="M58.57 63.1843V71.5296H57.3083V63.1843H58.57ZM62.6298 71.5296H60.5663V70.4262H62.5569C63.1924 70.4262 63.7213 70.3086 64.1438 70.0734C64.5662 69.8344 64.8821 69.4853 65.0915 69.026C65.3007 68.5631 65.4054 68.0029 65.4054 67.3458C65.4054 66.6923 65.3007 66.1378 65.0915 65.6823C64.8858 65.2268 64.5774 64.8814 64.1662 64.6461C63.755 64.4072 63.2448 64.2877 62.6354 64.2877H60.5214V63.1843H62.7139C63.5326 63.1843 64.2354 63.3505 64.8223 63.6828C65.4092 64.0151 65.8597 64.493 66.1737 65.1166C66.4877 65.7364 66.6447 66.4795 66.6447 67.3458C66.6447 68.2158 66.4858 68.9626 66.1681 69.5861C65.854 70.2097 65.398 70.6895 64.7999 71.0255C64.2017 71.3616 63.4784 71.5296 62.6298 71.5296ZM61.183 63.1843V71.5296H59.9214V63.1843H61.183ZM70.6316 63.1843V71.5296H69.3867V64.4501H69.3306L67.3456 65.7551V64.5454L69.4204 63.1843H70.6316ZM71.8652 71.5296V70.6223L74.6914 67.6874C74.9904 67.3737 75.2371 67.0975 75.4315 66.8585C75.6296 66.6158 75.7773 66.3861 75.8745 66.1696C75.9754 65.9531 76.0259 65.7234 76.0259 65.4806C76.0259 65.2006 75.9604 64.9598 75.8296 64.7582C75.6988 64.5566 75.5212 64.4015 75.2969 64.2933C75.0726 64.185 74.8184 64.1308 74.5343 64.1308C74.2353 64.1308 73.9755 64.1925 73.7549 64.3157C73.5343 64.4351 73.3624 64.6069 73.239 64.831C73.1194 65.0513 73.0596 65.3108 73.0596 65.6095H71.8596C71.8596 65.1017 71.9755 64.6573 72.2072 64.2765C72.4427 63.8956 72.7643 63.6006 73.1717 63.3916C73.5829 63.1787 74.0465 63.0723 74.5624 63.0723C75.0894 63.0723 75.553 63.1768 75.953 63.3859C76.353 63.5951 76.6651 63.8788 76.8894 64.2373C77.1137 64.592 77.2259 64.9934 77.2259 65.4415C77.2259 65.7514 77.1679 66.0538 77.052 66.3488C76.9399 66.6438 76.7399 66.9742 76.452 67.3402C76.1679 67.7023 75.7716 68.1393 75.2633 68.6508L73.6035 70.3871V70.4542H77.3604V71.5296H71.8652ZM78.7062 71.5296L82.3511 64.3269V64.2653H78.1343V63.1843H83.6632V64.3101L80.024 71.5296H78.7062ZM87.1958 71.6417C86.8258 71.6417 86.4594 71.5763 86.0968 71.4456C85.7342 71.3149 85.407 71.0983 85.1154 70.7959C84.8239 70.4898 84.5884 70.079 84.4089 69.5637C84.2332 69.0484 84.1454 68.408 84.1454 67.6426C84.1454 66.9145 84.2183 66.2685 84.3641 65.7047C84.5136 65.1371 84.7248 64.6592 84.9977 64.2709C85.2744 63.8788 85.607 63.582 85.9958 63.3804C86.3846 63.175 86.822 63.0723 87.308 63.0723C87.8052 63.0723 88.2463 63.1713 88.6313 63.3692C89.0164 63.5633 89.3286 63.8321 89.5678 64.1756C89.8108 64.5192 89.9621 64.9113 90.0219 65.3518H88.7884C88.7023 65.0046 88.5341 64.7227 88.2837 64.5061C88.0332 64.2859 87.708 64.1756 87.308 64.1756C86.6949 64.1756 86.2164 64.4426 85.8725 64.9766C85.5323 65.5068 85.3622 66.2461 85.3622 67.1945H85.4239C85.5697 66.9593 85.7472 66.7577 85.9566 66.5897C86.166 66.4179 86.3996 66.2872 86.6576 66.1976C86.9192 66.108 87.1977 66.0632 87.4931 66.0632C87.9753 66.0632 88.4127 66.1808 88.8051 66.416C89.2014 66.6513 89.5154 66.9761 89.7472 67.3906C89.9827 67.8013 90.1005 68.2736 90.1005 68.8076C90.1005 69.3379 89.979 69.8176 89.736 70.247C89.4968 70.6764 89.1584 71.0162 88.7211 71.2664C88.2874 71.5166 87.779 71.6417 87.1958 71.6417ZM87.1902 70.583C87.5117 70.583 87.7977 70.5047 88.0482 70.3478C88.3023 70.191 88.5042 69.98 88.6537 69.715C88.8033 69.4461 88.878 69.1473 88.878 68.8188C88.878 68.4977 88.8052 68.2064 88.6594 67.9451C88.5173 67.6837 88.3211 67.4764 88.0706 67.3234C87.8239 67.1666 87.5397 67.0881 87.2182 67.0881C86.9005 67.0881 86.6127 67.1684 86.3547 67.329C86.0968 67.4895 85.8911 67.7023 85.7379 67.9675C85.5884 68.2325 85.5136 68.5201 85.5136 68.83C85.5136 69.1399 85.5865 69.4293 85.7323 69.6981C85.8781 69.967 86.0762 70.1816 86.3267 70.3422C86.5809 70.5028 86.8687 70.583 87.1902 70.583ZM93.8238 71.6417C93.3116 71.6417 92.8518 71.5445 92.4443 71.3504C92.0406 71.1525 91.7173 70.8818 91.4743 70.5383C91.2313 70.191 91.1023 69.7971 91.0874 69.3565H92.3098C92.3396 69.7112 92.4986 70.0043 92.7864 70.2358C93.0743 70.4674 93.42 70.583 93.8238 70.583C94.1453 70.583 94.4294 70.5084 94.6761 70.359C94.9228 70.2097 95.1172 70.0061 95.2593 69.7485C95.4014 69.4871 95.4724 69.1885 95.4724 68.8524C95.4724 68.5164 95.3994 68.2158 95.2537 67.9506C95.1079 67.6819 94.9061 67.4709 94.6481 67.3178C94.3939 67.1647 94.1004 67.0881 93.7677 67.0881C93.5135 67.0881 93.2593 67.1329 93.0051 67.2226C92.7509 67.3084 92.5453 67.4204 92.3883 67.5586L91.2276 67.3906L91.6986 63.1843H96.291V64.2653H92.7528L92.4892 66.6009H92.5341C92.6949 66.4403 92.9098 66.3096 93.179 66.2088C93.4518 66.1042 93.7453 66.052 94.0593 66.052C94.5677 66.052 95.02 66.1733 95.4163 66.416C95.8163 66.655 96.1303 66.9836 96.3583 67.4018C96.5863 67.8162 96.7004 68.2924 96.7004 68.83C96.7004 69.3714 96.5771 69.855 96.3303 70.2806C96.0836 70.7026 95.7434 71.0349 95.3098 71.2776C94.8798 71.5203 94.3845 71.6417 93.8238 71.6417ZM100.575 71.6417C99.9321 71.6417 99.3807 71.4736 98.9209 71.1376C98.4648 70.8015 98.1153 70.3161 97.8724 69.6813C97.6331 69.0428 97.5134 68.2699 97.5134 67.3625C97.5134 66.459 97.6349 65.6879 97.8779 65.0494C98.1209 64.4072 98.4704 63.918 98.9265 63.582C99.3863 63.2422 99.9358 63.0723 100.575 63.0723C101.218 63.0723 101.768 63.2422 102.224 63.582C102.684 63.918 103.033 64.4072 103.272 65.0494C103.515 65.6879 103.637 66.459 103.637 67.3625C103.637 68.2699 103.517 69.0428 103.278 69.6813C103.039 70.3161 102.691 70.8015 102.235 71.1376C101.779 71.4736 101.226 71.6417 100.575 71.6417ZM100.575 70.5663C100.968 70.5663 101.298 70.4411 101.568 70.191C101.837 69.9409 102.042 69.5768 102.184 69.0988C102.326 68.6171 102.397 68.0384 102.397 67.3625C102.397 66.683 102.326 66.1042 102.184 65.6263C102.042 65.1446 101.837 64.7787 101.568 64.5285C101.298 64.2746 100.968 64.1477 100.575 64.1477C99.9957 64.1477 99.5471 64.4296 99.2293 64.9934C98.9153 65.5535 98.7583 66.3432 98.7583 67.3625C98.7583 68.0384 98.8293 68.6171 98.9714 69.0988C99.1134 69.5768 99.3191 69.9409 99.5882 70.191C99.8611 70.4411 100.19 70.5663 100.575 70.5663Z" fill="#BDBDBD"/>
<path d="M202.393 82.1177H74.3031C64.5456 82.1177 56.6355 90.0185 56.6355 99.7647C56.6355 109.511 64.5456 117.412 74.3031 117.412H202.393C212.151 117.412 220.061 109.511 220.061 99.7647C220.061 90.0185 212.151 82.1177 202.393 82.1177Z" fill="#6F00FF"/>
<path d="M115.519 95.8312V104.177H114.263V96.9068H110.332V104.177H109.076V95.8312H115.519ZM119.5 104.305C118.913 104.305 118.399 104.171 117.958 103.902C117.521 103.633 117.181 103.256 116.938 102.771C116.698 102.286 116.578 101.722 116.578 101.079C116.578 100.429 116.698 99.8618 116.938 99.3765C117.181 98.8877 117.521 98.5083 117.958 98.2392C118.399 97.9709 118.913 97.8359 119.5 97.8359C120.091 97.8359 120.605 97.9709 121.042 98.2392C121.479 98.5083 121.819 98.8877 122.062 99.3765C122.306 99.8618 122.427 100.429 122.427 101.079C122.427 101.722 122.306 102.286 122.062 102.771C121.819 103.256 121.479 103.633 121.042 103.902C120.605 104.171 120.091 104.305 119.5 104.305ZM119.5 103.28C119.885 103.28 120.203 103.179 120.454 102.978C120.704 102.776 120.889 102.51 121.008 102.177C121.132 101.841 121.194 101.475 121.194 101.079C121.194 100.676 121.132 100.307 121.008 99.9703C120.889 99.6342 120.704 99.365 120.454 99.1639C120.203 98.9618 119.885 98.8612 119.5 98.8612C119.119 98.8612 118.803 98.9618 118.553 99.1639C118.306 99.365 118.121 99.6342 117.997 99.9703C117.874 100.307 117.812 100.676 117.812 101.079C117.812 101.475 117.874 101.841 117.997 102.177C118.121 102.51 118.306 102.776 118.553 102.978C118.803 103.179 119.119 103.28 119.5 103.28ZM122.69 105.98V103.124H123.196C123.326 103.004 123.439 102.862 123.532 102.698C123.625 102.53 123.702 102.332 123.762 102.104C123.826 101.873 123.879 101.605 123.924 101.304C123.97 101.001 124.008 100.652 124.042 100.256L124.238 97.9145H128.494V103.124H129.459V105.98H128.265V104.177H123.901V105.98H122.69ZM124.507 103.124H127.306V98.9565H125.326L125.191 100.256C125.136 100.917 125.059 101.488 124.962 101.97C124.868 102.448 124.717 102.833 124.507 103.124ZM130.171 106.517V97.9145H131.348V98.9345H131.449C131.524 98.803 131.627 98.6521 131.758 98.48C131.893 98.3089 132.079 98.1597 132.318 98.0327C132.558 97.9021 132.87 97.8359 133.255 97.8359C133.76 97.8359 134.208 97.963 134.601 98.2171C134.997 98.4712 135.309 98.8392 135.537 99.3209C135.765 99.8018 135.879 100.383 135.879 101.063C135.879 101.734 135.767 102.313 135.543 102.798C135.318 103.28 135.008 103.652 134.612 103.914C134.219 104.171 133.769 104.3 133.261 104.3C132.883 104.3 132.573 104.237 132.33 104.109C132.09 103.979 131.901 103.827 131.764 103.656C131.629 103.484 131.524 103.333 131.449 103.202H131.382V106.517H130.171ZM132.997 103.263C133.36 103.263 133.663 103.166 133.906 102.972C134.149 102.778 134.332 102.515 134.455 102.182C134.582 101.846 134.646 101.469 134.646 101.051C134.646 100.637 134.584 100.265 134.461 99.9368C134.337 99.6077 134.154 99.3483 133.911 99.1577C133.668 98.968 133.363 98.8727 132.997 98.8727C132.642 98.8727 132.343 98.9636 132.1 99.1471C131.857 99.3262 131.672 99.5803 131.545 99.9086C131.422 100.233 131.36 100.614 131.36 101.051C131.36 101.488 131.423 101.873 131.551 102.205C131.678 102.537 131.863 102.797 132.105 102.984C132.352 103.171 132.65 103.263 132.997 103.263ZM139.395 104.305C138.809 104.305 138.294 104.171 137.853 103.902C137.415 103.633 137.075 103.256 136.832 102.771C136.593 102.286 136.474 101.722 136.474 101.079C136.474 100.429 136.593 99.8618 136.832 99.3765C137.075 98.8877 137.415 98.5083 137.853 98.2392C138.294 97.9709 138.809 97.8359 139.395 97.8359C139.986 97.8359 140.5 97.9709 140.938 98.2392C141.375 98.5083 141.715 98.8877 141.958 99.3765C142.201 99.8618 142.323 100.429 142.323 101.079C142.323 101.722 142.201 102.286 141.958 102.771C141.715 103.256 141.375 103.633 140.938 103.902C140.5 104.171 139.986 104.305 139.395 104.305ZM139.395 103.28C139.78 103.28 140.098 103.179 140.348 102.978C140.599 102.776 140.784 102.51 140.904 102.177C141.027 101.841 141.089 101.475 141.089 101.079C141.089 100.676 141.027 100.307 140.904 99.9703C140.784 99.6342 140.599 99.365 140.348 99.1639C140.098 98.9618 139.78 98.8612 139.395 98.8612C139.013 98.8612 138.698 98.9618 138.447 99.1639C138.201 99.365 138.016 99.6342 137.892 99.9703C137.769 100.307 137.707 100.676 137.707 101.079C137.707 101.475 137.769 101.841 137.892 102.177C138.016 102.51 138.201 102.776 138.447 102.978C138.698 103.179 139.013 103.28 139.395 103.28ZM148.025 95.5903L148.529 96.358C148.346 96.5292 148.135 96.6509 147.896 96.7215C147.657 96.793 147.382 96.8371 147.072 96.8565C146.762 96.875 146.407 96.8918 146.006 96.9068C145.554 96.9174 145.182 97.0145 144.891 97.198C144.603 97.3771 144.38 97.6418 144.223 97.993C144.066 98.3442 143.965 98.7862 143.921 99.3209H143.998C144.197 98.9318 144.477 98.6433 144.84 98.4527C145.206 98.2586 145.618 98.1615 146.073 98.1615C146.578 98.1615 147.027 98.2771 147.42 98.5083C147.812 98.7359 148.122 99.0721 148.35 99.5168C148.578 99.9606 148.69 100.502 148.687 101.141C148.69 101.791 148.574 102.353 148.339 102.827C148.103 103.301 147.769 103.665 147.335 103.919C146.906 104.173 146.399 104.302 145.816 104.305C144.937 104.302 144.234 104.003 143.707 103.409C143.18 102.812 142.915 101.938 142.911 100.788V100.178C142.915 98.7439 143.172 97.6665 143.685 96.9456C144.197 96.2251 144.961 95.8536 145.978 95.8312C146.308 95.8237 146.601 95.8219 146.859 95.8256C147.117 95.8294 147.343 95.8182 147.537 95.792C147.732 95.7621 147.894 95.6949 148.025 95.5903ZM145.816 103.286C146.159 103.282 146.453 103.194 146.696 103.022C146.939 102.851 147.127 102.607 147.263 102.289C147.397 101.972 147.462 101.597 147.459 101.163C147.462 100.742 147.397 100.383 147.263 100.088C147.127 99.7895 146.937 99.5618 146.69 99.4047C146.444 99.2477 146.147 99.1692 145.799 99.1692C145.544 99.1692 145.316 99.2142 145.115 99.3042C144.913 99.3933 144.74 99.5239 144.599 99.6959C144.457 99.8636 144.346 100.071 144.268 100.317C144.194 100.564 144.152 100.846 144.145 101.163C144.145 101.806 144.293 102.319 144.588 102.704C144.887 103.088 145.296 103.282 145.816 103.286ZM153.812 100.519V101.572H150.42V100.519H153.812ZM150.755 97.9145V104.177H149.573V97.9145H150.755ZM154.664 97.9145V104.177H153.475V97.9145H154.664ZM158.527 104.305C157.914 104.305 157.383 104.173 156.936 103.907C156.487 103.643 156.141 103.269 155.898 102.788C155.658 102.302 155.539 101.737 155.539 101.09C155.539 100.449 155.656 99.8821 155.892 99.3933C156.132 98.9045 156.466 98.5233 156.896 98.2506C157.33 97.9744 157.837 97.8359 158.421 97.8359C158.777 97.8359 159.12 97.8942 159.453 98.0097C159.785 98.1253 160.085 98.3089 160.35 98.5586C160.616 98.8092 160.825 99.1339 160.978 99.5336C161.135 99.9333 161.214 100.414 161.214 100.978V101.416H156.229V100.502H160.586L160.019 100.805C160.019 100.42 159.959 100.081 159.84 99.785C159.72 99.4903 159.541 99.2609 159.301 99.0968C159.066 98.9283 158.772 98.8445 158.421 98.8445C158.07 98.8445 157.769 98.9283 157.519 99.0968C157.271 99.2644 157.083 99.4868 156.952 99.763C156.821 100.039 156.755 100.342 156.755 100.67V101.292C156.755 101.722 156.83 102.085 156.98 102.384C157.13 102.683 157.337 102.91 157.603 103.067C157.872 103.224 158.184 103.303 158.539 103.303C158.77 103.303 158.98 103.269 159.167 103.202C159.358 103.134 159.522 103.034 159.66 102.9C159.799 102.765 159.904 102.599 159.974 102.401L161.13 102.619C161.036 102.955 160.872 103.251 160.636 103.504C160.4 103.758 160.103 103.956 159.745 104.098C159.39 104.237 158.984 104.305 158.527 104.305ZM164.763 104.305C164.15 104.305 163.619 104.173 163.17 103.907C162.722 103.643 162.376 103.269 162.133 102.788C161.894 102.302 161.775 101.737 161.775 101.09C161.775 100.449 161.892 99.8821 162.127 99.3933C162.367 98.9045 162.701 98.5233 163.132 98.2506C163.565 97.9744 164.073 97.8359 164.656 97.8359C165.011 97.8359 165.356 97.8942 165.688 98.0097C166.021 98.1253 166.32 98.3089 166.586 98.5586C166.851 98.8092 167.06 99.1339 167.214 99.5336C167.371 99.9333 167.449 100.414 167.449 100.978V101.416H162.464V100.502H166.821L166.254 100.805C166.254 100.42 166.195 100.081 166.075 99.785C165.956 99.4903 165.776 99.2609 165.537 99.0968C165.301 98.9283 165.008 98.8445 164.656 98.8445C164.305 98.8445 164.004 98.9283 163.753 99.0968C163.507 99.2644 163.318 99.4868 163.187 99.763C163.056 100.039 162.991 100.342 162.991 100.67V101.292C162.991 101.722 163.066 102.085 163.216 102.384C163.365 102.683 163.572 102.91 163.837 103.067C164.107 103.224 164.42 103.303 164.775 103.303C165.006 103.303 165.215 103.269 165.402 103.202C165.593 103.134 165.758 103.034 165.896 102.9C166.034 102.765 166.139 102.599 166.21 102.401L167.365 102.619C167.271 102.955 167.107 103.251 166.872 103.504C166.636 103.758 166.339 103.956 165.98 104.098C165.625 104.237 165.219 104.305 164.763 104.305Z" fill="white"/>
<path d="M262.022 99.7645C262.022 90.2619 254.31 82.5586 244.796 82.5586C235.282 82.5586 227.57 90.2619 227.57 99.7645C227.57 109.267 235.282 116.97 244.796 116.97C254.31 116.97 262.022 109.267 262.022 99.7645Z" stroke="#E0E0E0"/>
<mask id="mask0_5403_1672" style="mask-type:luminance" maskUnits="userSpaceOnUse" x="236" y="91" width="17" height="17">
<path d="M252.746 91.8237H236.845V107.706H252.746V91.8237Z" fill="white"/>
</mask>
<g mask="url(#mask0_5403_1672)">
<path d="M244.465 95.1328H244.752C246.771 95.1328 247.781 95.1328 248.164 95.495C248.495 95.808 248.642 96.2692 248.553 96.7157C248.449 97.2328 247.625 97.8151 245.977 98.9789L243.283 100.882C241.635 102.046 240.811 102.628 240.707 103.145C240.618 103.592 240.765 104.053 241.096 104.367C241.48 104.728 242.489 104.728 244.508 104.728H245.127M242.146 95.1328C242.146 96.2292 241.256 97.118 240.158 97.118C239.06 97.118 238.17 96.2292 238.17 95.1328C238.17 94.0363 239.06 93.1475 240.158 93.1475C241.256 93.1475 242.146 94.0363 242.146 95.1328ZM251.421 104.397C251.421 105.494 250.532 106.383 249.434 106.383C248.335 106.383 247.446 105.494 247.446 104.397C247.446 103.301 248.335 102.412 249.434 102.412C250.532 102.412 251.421 103.301 251.421 104.397Z" stroke="#303030" stroke-width="1.7" stroke-linecap="round" stroke-linejoin="round"/>
</g>
<path d="M304.866 99.7647C304.866 90.0185 296.956 82.1177 287.198 82.1177C277.441 82.1177 269.531 90.0185 269.531 99.7647C269.531 109.511 277.441 117.412 287.198 117.412C296.956 117.412 304.866 109.511 304.866 99.7647Z" fill="#F04438"/>
<path d="M290.51 96.4561L283.885 103.074M283.885 96.4561L290.51 103.074" stroke="white" stroke-width="2" stroke-linecap="round" stroke-linejoin="round"/>
</g>
<defs>
<filter id="filter0_d_5403_1672" x="0" y="0" width="335" height="152" filterUnits="userSpaceOnUse" color-interpolation-filters="sRGB">
<feFlood flood-opacity="0" result="BackgroundImageFix"/>
<feColorMatrix in="SourceAlpha" type="matrix" values="0 0 0 0 0 0 0 0 0 0 0 0 0 0 0 0 0 0 127 0" result="hardAlpha"/>
<feOffset dy="8"/>
<feGaussianBlur stdDeviation="8"/>
<feComposite in2="hardAlpha" operator="out"/>
<feColorMatrix type="matrix" values="0 0 0 0 0.188235 0 0 0 0 0.188235 0 0 0 0 0.188235 0 0 0 0.08 0"/>
<feBlend mode="normal" in2="BackgroundImageFix" result="effect1_dropShadow_5403_1672"/>
<feBlend mode="normal" in="SourceGraphic" in2="effect1_dropShadow_5403_1672" result="shape"/>
</filter>
<clipPath id="clip0_5403_1672">
<rect width="303" height="120" fill="white" transform="translate(16 8)"/>
</clipPath>
</defs>
</svg>
