<svg width="303" height="120" viewBox="0 0 303 120" fill="none" xmlns="http://www.w3.org/2000/svg">
    <path d="M292.399 0H10.6006C4.74604 0 0 4.74051 0 10.5882V109.412C0 115.259 4.74604 120 10.6006 120H292.399C298.254 120 303 115.259 303 109.412V10.5882C303 4.74051 298.254 0 292.399 0Z" fill="white"/>
    <path d="M18.551 13.6763C18.551 13.189 18.9465 12.7939 19.4343 12.7939H23.7037C26.1428 12.7939 28.1202 14.7692 28.1202 17.2057C28.1202 19.6422 26.1428 21.6175 23.7037 21.6175H22.3787C21.8908 21.6175 21.4954 22.0125 21.4954 22.4998V25.1469C21.4954 25.6342 21.0999 26.0292 20.6121 26.0292H19.4343C18.9465 26.0292 18.551 25.6342 18.551 25.1469V13.6763ZM22.3787 15.7351C21.8908 15.7351 21.4954 16.1301 21.4954 16.6174V17.794C21.4954 18.2813 21.8908 18.6763 22.3787 18.6763H23.7037C24.5168 18.6763 25.1759 18.0179 25.1759 17.2057C25.1759 16.3935 24.5168 15.7351 23.7037 15.7351H22.3787Z" fill="#6F00FF"/>
    <path d="M41.381 25.5884V15.3173H47.9994V16.8751H43.2443V19.2878H45.225C46.0164 19.2878 46.6928 19.4165 47.2541 19.6739C47.8154 19.9266 48.2479 20.2851 48.5515 20.7492C48.8552 21.2134 49.007 21.7603 49.007 22.3898C49.007 23.0194 48.8552 23.5755 48.5515 24.058C48.2479 24.536 47.8154 24.9105 47.2541 25.1817C46.6928 25.4528 46.0164 25.5884 45.225 25.5884H41.381ZM43.2443 24.058H45.225C45.6437 24.058 45.9957 23.9799 46.2809 23.8237C46.5662 23.6674 46.7847 23.4606 46.9366 23.2033C47.0884 22.9459 47.1643 22.6679 47.1643 22.3692C47.1643 21.9372 46.9964 21.5672 46.6605 21.2594C46.3292 20.9514 45.8507 20.7998 45.225 20.8043H43.2443V24.058ZM59.6214 24.0305L59.4903 28.0148H57.6821V25.5884H56.9506V24.0305H59.6214ZM50.1044 25.5884V15.3173H51.8918V24.0443H56.5089V15.3173H58.317V25.5884H50.1044ZM70.7879 15.3173V25.5884H68.9659V15.3173H70.7879ZM62.9272 25.5884L66.1847 20.1977L63.1066 15.3173H65.3909L67.8202 19.6531H71.975L74.3559 15.3173H76.6334L73.6105 20.184L76.8267 25.5884H74.6182L72.2372 21.3834H67.5304L65.1011 25.5884H62.9272ZM80.6362 25.74C79.8632 25.74 79.1961 25.5792 78.6348 25.2575C78.0735 24.9312 77.641 24.4717 77.3374 23.8788C77.0382 23.286 76.8888 22.5875 76.8888 21.7832C76.8888 20.9882 77.0382 20.292 77.3374 19.6945C77.6364 19.0925 78.0574 18.6238 78.6003 18.2883C79.1432 17.9528 79.7827 17.785 80.5189 17.785C80.9928 17.785 81.4414 17.8609 81.8647 18.0126C82.2925 18.1642 82.6698 18.3986 82.9965 18.7156C83.3277 19.0328 83.5877 19.4371 83.7763 19.9289C83.965 20.416 84.0593 20.9974 84.0593 21.6729V22.2382H77.7376V21.018H83.1552L82.3064 21.3765C82.3064 20.94 82.2397 20.5608 82.1062 20.2391C81.9728 19.9128 81.7749 19.6577 81.5127 19.4739C81.2505 19.2901 80.9238 19.1982 80.5327 19.1982C80.1417 19.1982 79.8081 19.2901 79.5319 19.4739C79.256 19.6577 79.0466 19.9059 78.9039 20.2185C78.7614 20.5263 78.69 20.871 78.69 21.2524V22.1003C78.69 22.569 78.7706 22.9712 78.9316 23.3067C79.0972 23.6376 79.3273 23.8903 79.6217 24.0649C79.9208 24.2396 80.2682 24.3269 80.6638 24.3269C80.9215 24.3269 81.1561 24.2901 81.3678 24.2166C81.584 24.1431 81.768 24.0328 81.9199 23.8857C82.0763 23.734 82.196 23.5479 82.2787 23.3273L83.9765 23.5273C83.8661 23.973 83.6613 24.3637 83.3623 24.6991C83.0679 25.03 82.6883 25.2874 82.2235 25.4712C81.7635 25.6504 81.2343 25.74 80.6362 25.74ZM90.3329 20.9835V22.4726H86.2402V20.9835H90.3329ZM86.7923 17.8816V25.5884H85.0462V17.8816H86.7923ZM91.5334 17.8816V25.5884H89.7878V17.8816H91.5334ZM96.2886 25.74C95.5157 25.74 94.8487 25.5792 94.2869 25.2575C93.7259 24.9312 93.2931 24.4717 92.9901 23.8788C92.6906 23.286 92.5413 22.5875 92.5413 21.7832C92.5413 20.9882 92.6906 20.292 92.9901 19.6945C93.2887 19.0925 93.71 18.6238 94.2524 18.2883C94.7957 17.9528 95.4353 17.785 96.1711 17.785C96.6455 17.785 97.0934 17.8609 97.5174 18.0126C97.945 18.1642 98.3222 18.3986 98.649 18.7156C98.9803 19.0328 99.24 19.4371 99.4291 19.9289C99.6172 20.416 99.7117 20.9974 99.7117 21.6729V22.2382H93.3903V21.018H98.808L97.9591 21.3765C97.9591 20.94 97.892 20.5608 97.7586 20.2391C97.6252 19.9128 97.4273 19.6577 97.1649 19.4739C96.9026 19.2901 96.5766 19.1982 96.1853 19.1982C95.7939 19.1982 95.46 19.2901 95.1844 19.4739C94.9088 19.6577 94.6994 19.9059 94.5563 20.2185C94.4141 20.5263 94.3425 20.871 94.3425 21.2524V22.1003C94.3425 22.569 94.4229 22.9712 94.5837 23.3067C94.7498 23.6376 94.9795 23.8903 95.2745 24.0649C95.5731 24.2396 95.9203 24.3269 96.316 24.3269C96.574 24.3269 96.8089 24.2901 97.0201 24.2166C97.2365 24.1431 97.4202 24.0328 97.5722 23.8857C97.7285 23.734 97.8487 23.5479 97.9308 23.3273L99.6287 23.5273C99.5183 23.973 99.3133 24.3637 99.0148 24.6991C98.7206 25.03 98.3407 25.2874 97.8761 25.4712C97.4158 25.6504 96.8867 25.74 96.2886 25.74ZM100.698 25.5884V17.8816H103.935C104.847 17.8861 105.567 18.0723 106.096 18.4399C106.629 18.803 106.896 19.3085 106.896 19.9565C106.896 20.3931 106.747 20.7469 106.448 21.018C106.148 21.2846 105.743 21.4661 105.233 21.5626C105.633 21.5948 105.986 21.6982 106.289 21.8729C106.597 22.0429 106.839 22.2658 107.014 22.5415C107.189 22.8173 107.276 23.1367 107.276 23.4997C107.276 23.9225 107.163 24.2924 106.938 24.6095C106.717 24.922 106.395 25.1633 105.971 25.3333C105.553 25.5033 105.039 25.5884 104.433 25.5884H100.698ZM102.396 24.1545H104.433C104.768 24.1591 105.031 24.0833 105.219 23.9271C105.412 23.7662 105.507 23.5479 105.502 23.2722C105.507 22.9551 105.412 22.707 105.219 22.5277C105.031 22.3439 104.768 22.252 104.433 22.252H102.396V24.1545ZM102.396 21.0801H103.97C104.338 21.0755 104.628 20.9951 104.84 20.8388C105.051 20.6826 105.157 20.4689 105.157 20.1977C105.157 19.9266 105.049 19.7176 104.833 19.5705C104.616 19.4188 104.318 19.343 103.935 19.343H102.396V21.0801ZM111.61 25.74C110.841 25.74 110.182 25.5723 109.629 25.2368C109.077 24.8967 108.653 24.428 108.359 23.8305C108.065 23.2331 107.917 22.5461 107.917 21.7695C107.917 20.9835 108.067 20.292 108.366 19.6945C108.665 19.0971 109.091 18.6307 109.643 18.2952C110.195 17.9551 110.846 17.785 111.596 17.785C112.227 17.785 112.783 17.9 113.266 18.1298C113.75 18.3595 114.134 18.6835 114.418 19.1017C114.709 19.5153 114.874 20.0002 114.916 20.5562H113.176C113.13 20.308 113.041 20.0851 112.907 19.8876C112.773 19.6899 112.599 19.5337 112.383 19.4188C112.171 19.3039 111.918 19.2465 111.623 19.2465C111.251 19.2465 110.925 19.3476 110.644 19.5497C110.368 19.7474 110.152 20.0323 109.995 20.4045C109.839 20.7768 109.76 21.2226 109.76 21.7418C109.76 22.2658 109.836 22.7184 109.988 23.0999C110.14 23.4767 110.356 23.7685 110.637 23.9753C110.917 24.1775 111.246 24.2786 111.623 24.2786C112.023 24.2786 112.362 24.1614 112.638 23.9271C112.919 23.6927 113.099 23.3687 113.176 22.9551H114.916C114.874 23.502 114.713 23.9845 114.432 24.4027C114.151 24.8209 113.773 25.1495 113.294 25.3884C112.815 25.6229 112.254 25.74 111.61 25.74ZM115.895 25.5884V17.8816H117.711V20.9974H118.373L120.699 17.8816H122.88L120.03 21.6729L122.908 25.5884H120.712L118.594 22.6793H117.711V25.5884H115.895ZM125.15 23.1274L128.242 17.8816H130.105V25.5884H128.36V20.3356L125.274 25.5884H123.404V17.8816H125.15V23.1274ZM133.197 23.1274L136.289 17.8816H138.153V25.5884H136.407V20.3356L133.322 25.5884H131.452V17.8816H133.197V23.1274ZM134.792 16.9992C134.096 16.9992 133.531 16.8131 133.094 16.4408C132.661 16.0686 132.445 15.5815 132.445 14.9795H133.805C133.805 15.269 133.894 15.5033 134.074 15.6825C134.254 15.8573 134.492 15.9445 134.792 15.9445C135.09 15.9445 135.33 15.8573 135.509 15.6825C135.689 15.5033 135.778 15.269 135.778 14.9795H137.145C137.145 15.5815 136.927 16.0686 136.49 16.4408C136.057 16.8131 135.491 16.9992 134.792 16.9992ZM141.797 27.8288V24.0925H142.404C142.57 23.9685 142.708 23.7984 142.818 23.5824C142.929 23.3618 143.018 23.1022 143.088 22.8035C143.161 22.5001 143.221 22.1624 143.267 21.7901C143.317 21.4178 143.361 21.018 143.398 20.5906L143.618 17.8816H149.195V24.0925H150.382V27.8288H148.629V25.5884H143.584V27.8288H141.797ZM144.274 24.0925H147.456V19.3499H145.199L145.075 20.5906C145.011 21.4041 144.921 22.1026 144.806 22.6862C144.695 23.2653 144.518 23.734 144.274 24.0925ZM154.578 25.74C153.823 25.74 153.17 25.5746 152.618 25.2437C152.066 24.9128 151.638 24.4486 151.334 23.8512C151.035 23.2538 150.886 22.5599 150.886 21.7695C150.886 20.9744 151.035 20.2782 151.334 19.6808C151.638 19.0787 152.066 18.6123 152.618 18.2814C153.17 17.9505 153.823 17.785 154.578 17.785C155.333 17.785 155.986 17.9505 156.538 18.2814C157.09 18.6123 157.518 19.0787 157.821 19.6808C158.125 20.2782 158.277 20.9744 158.277 21.7695C158.277 22.5599 158.125 23.2538 157.821 23.8512C157.518 24.4486 157.09 24.9128 156.538 25.2437C155.986 25.5746 155.333 25.74 154.578 25.74ZM154.578 24.2786C154.996 24.2786 155.342 24.1683 155.613 23.9477C155.885 23.7225 156.087 23.4193 156.221 23.0378C156.359 22.6564 156.427 22.2336 156.427 21.7695C156.427 21.2961 156.359 20.8687 156.221 20.4873C156.087 20.1059 155.885 19.8048 155.613 19.5842C155.342 19.359 154.996 19.2465 154.578 19.2465C154.169 19.2465 153.826 19.359 153.549 19.5842C153.274 19.8048 153.066 20.1059 152.928 20.4873C152.795 20.8687 152.729 21.2961 152.729 21.7695C152.729 22.2336 152.795 22.6564 152.928 23.0378C153.066 23.4193 153.274 23.7225 153.549 23.9477C153.826 24.1683 154.169 24.2786 154.578 24.2786ZM163.715 23.479L166.007 17.8816H167.463L164.351 25.5884H163.08L160.03 17.8816H161.487L163.715 23.479ZM161.024 17.8816V25.5884H159.278V17.8816H161.024ZM166.476 25.5884V17.8816H168.208V25.5884H166.476Z" fill="#303030"/>
    <path d="M45.9354 39.7057C45.9354 38.2437 44.749 37.0586 43.2854 37.0586C41.8219 37.0586 40.6355 38.2437 40.6355 39.7057C40.6355 41.1676 41.8219 42.3527 43.2854 42.3527C44.749 42.3527 45.9354 41.1676 45.9354 39.7057Z" fill="#12B76A"/>
    <path d="M55.3969 44.2295C54.6792 44.2295 54.0362 44.0577 53.468 43.7142C52.8997 43.3706 52.453 42.8797 52.1278 42.2411C51.8025 41.5989 51.6399 40.8353 51.6399 39.9503C51.6399 39.058 51.8025 38.2925 52.1278 37.654C52.4568 37.0118 52.9035 36.5189 53.468 36.1754C54.0362 35.8319 54.6792 35.6601 55.3969 35.6601C55.838 35.6601 56.2511 35.7236 56.6361 35.8506C57.0249 35.9775 57.3726 36.1623 57.6791 36.405C57.9857 36.6477 58.238 36.9446 58.4361 37.2956C58.638 37.6465 58.7725 38.0442 58.8398 38.4885H57.5726C57.5239 38.216 57.4324 37.977 57.2978 37.7716C57.1669 37.5625 57.0043 37.387 56.81 37.2451C56.6193 37.0995 56.4043 36.9913 56.1651 36.9203C55.9296 36.8456 55.6792 36.8083 55.4137 36.8083C54.9352 36.8083 54.5035 36.9296 54.1184 37.1723C53.7371 37.4113 53.4362 37.7661 53.2156 38.2365C52.9988 38.7032 52.8904 39.2745 52.8904 39.9503C52.8904 40.6299 53.0007 41.2031 53.2212 41.6699C53.4417 42.1328 53.7427 42.4838 54.124 42.7228C54.5053 42.9618 54.9333 43.0813 55.4081 43.0813C55.6735 43.0813 55.9239 43.0458 56.1594 42.9749C56.395 42.9039 56.61 42.7975 56.8043 42.6556C56.9987 42.5138 57.1614 42.342 57.2922 42.1403C57.4267 41.9349 57.5202 41.6978 57.5726 41.429H58.8398C58.7763 41.8435 58.6473 42.2225 58.4529 42.566C58.2585 42.9058 58.01 43.2008 57.7071 43.4509C57.4043 43.6973 57.0586 43.8897 56.6698 44.0278C56.281 44.1623 55.8567 44.2295 55.3969 44.2295ZM62.1482 42.4875V41.4738L65.7538 35.7721H66.5556V37.2732H66.0397L63.4603 41.3506V41.4178H68.4117V42.4875H62.1482ZM66.0958 44.1174V42.1795L66.107 41.7147V35.7721H67.307V44.1174H66.0958ZM71.9163 44.1174V37.8556H77.019V44.1174H75.8247V38.9086H73.0939V44.1174H71.9163ZM80.8153 44.2463C80.2283 44.2463 79.7143 44.1119 79.2732 43.843C78.8359 43.5742 78.4957 43.197 78.2526 42.7116C78.0134 42.2262 77.8938 41.6624 77.8938 41.0201C77.8938 40.3704 78.0134 39.8029 78.2526 39.3175C78.4957 38.8283 78.8359 38.4494 79.2732 38.1805C79.7143 37.9117 80.2283 37.7773 80.8153 37.7773C81.4059 37.7773 81.9199 37.9117 82.3573 38.1805C82.7946 38.4494 83.1348 38.8283 83.3779 39.3175C83.6208 39.8029 83.7423 40.3704 83.7423 41.0201C83.7423 41.6624 83.6208 42.2262 83.3779 42.7116C83.1348 43.197 82.7946 43.5742 82.3573 43.843C81.9199 44.1119 81.4059 44.2463 80.8153 44.2463ZM80.8153 43.2213C81.2003 43.2213 81.5181 43.1205 81.7685 42.9188C82.0189 42.7172 82.204 42.4502 82.3236 42.1179C82.447 41.7818 82.5087 41.4159 82.5087 41.0201C82.5087 40.6169 82.447 40.2472 82.3236 39.9112C82.204 39.5752 82.0189 39.3063 81.7685 39.1046C81.5181 38.903 81.2003 38.8022 80.8153 38.8022C80.4339 38.8022 80.1181 38.903 79.8676 39.1046C79.6208 39.3063 79.4358 39.5752 79.3124 39.9112C79.1891 40.2472 79.1274 40.6169 79.1274 41.0201C79.1274 41.4159 79.1891 41.7818 79.3124 42.1179C79.4358 42.4502 79.6208 42.7172 79.8676 42.9188C80.1181 43.1205 80.4339 43.2213 80.8153 43.2213ZM89.9045 35.6545C90.279 35.6582 90.6447 35.7273 91.0043 35.8618C91.3664 35.9925 91.6933 36.209 91.9848 36.5115C92.2807 36.8139 92.5157 37.2227 92.6915 37.738C92.8673 38.2496 92.9556 38.8881 92.9556 39.6535C92.9556 40.3816 92.8823 41.0295 92.7366 41.5971C92.5908 42.1646 92.3797 42.6444 92.1032 43.0365C91.8302 43.4285 91.499 43.7273 91.1103 43.9326C90.7216 44.1342 90.2861 44.235 89.8037 44.235C89.3064 44.235 88.8638 44.1361 88.4751 43.9382C88.0862 43.7403 87.7721 43.4696 87.5329 43.1261C87.2936 42.7788 87.1423 42.3811 87.0787 41.9331H88.3235C88.4053 42.2878 88.5723 42.5772 88.8223 42.8012C89.0767 43.0215 89.4036 43.1317 89.8037 43.1317C90.4133 43.1317 90.8877 42.8647 91.2278 42.3308C91.5723 41.7968 91.7463 41.0519 91.7498 40.096H91.688C91.5422 40.3313 91.3647 40.5347 91.1553 40.7065C90.946 40.8745 90.7101 41.0033 90.4486 41.093C90.1871 41.1825 89.9106 41.2274 89.6191 41.2274C89.1333 41.2274 88.6916 41.1098 88.2955 40.8745C87.8993 40.6393 87.5852 40.3163 87.3535 39.9056C87.1217 39.4911 87.004 39.0188 87.0002 38.4885C87.004 37.9583 87.1254 37.4785 87.3646 37.0492C87.6077 36.6197 87.946 36.2799 88.3797 36.0298C88.8135 35.7758 89.3214 35.6508 89.9045 35.6545ZM89.9106 36.7186C89.5926 36.7186 89.3064 36.7971 89.0529 36.9539C88.7985 37.1108 88.5979 37.3217 88.4522 37.5868C88.3068 37.8519 88.2338 38.1469 88.2338 38.4718C88.2338 38.7966 88.303 39.0897 88.4416 39.351C88.5838 39.6125 88.7799 39.8215 89.0299 39.9784C89.2808 40.1315 89.5644 40.208 89.8824 40.208C90.2039 40.208 90.4919 40.1278 90.7463 39.9672C91.0043 39.8029 91.2092 39.5882 91.3629 39.3231C91.5157 39.0542 91.5926 38.7649 91.5926 38.4549C91.5926 38.1488 91.5202 37.8631 91.3744 37.598C91.2278 37.3329 91.0281 37.1201 90.7737 36.9595C90.5237 36.7989 90.2357 36.7186 89.9106 36.7186ZM95.8823 45.9209V43.0644H96.3867C96.5174 42.945 96.6296 42.8031 96.7233 42.6388C96.8169 42.4708 96.8938 42.2729 96.9529 42.0451C97.0166 41.8136 97.0713 41.5466 97.1164 41.2442C97.1605 40.9417 97.2003 40.5926 97.2339 40.1968L97.43 37.8556H101.686V43.0644H102.651V45.9209H101.456V44.1174H97.0934V45.9209H95.8823ZM97.6994 43.0644H100.497V38.8974H98.5174L98.3831 40.1968C98.3275 40.8577 98.2506 41.429 98.1535 41.9107C98.0598 42.3886 97.9088 42.7733 97.6994 43.0644ZM106.06 44.2463C105.447 44.2463 104.916 44.1137 104.467 43.8486C104.018 43.5835 103.673 43.2101 103.43 42.7284C103.191 42.243 103.071 41.6773 103.071 41.0313C103.071 40.3891 103.189 39.8235 103.425 39.3343C103.663 38.8451 103.998 38.4643 104.428 38.1917C104.862 37.9154 105.37 37.7773 105.953 37.7773C106.308 37.7773 106.652 37.8351 106.985 37.9508C107.318 38.0666 107.617 38.2496 107.882 38.4998C108.147 38.7499 108.357 39.0748 108.51 39.4743C108.667 39.8738 108.746 40.3555 108.746 40.9193V41.3562H103.76V40.4432H108.118L107.552 40.7457C107.552 40.3611 107.492 40.0213 107.372 39.7263C107.252 39.4313 107.073 39.2017 106.834 39.0375C106.598 38.8694 106.304 38.7854 105.953 38.7854C105.602 38.7854 105.301 38.8694 105.05 39.0375C104.804 39.2055 104.615 39.4276 104.484 39.7039C104.353 39.9803 104.288 40.2827 104.288 40.6113V41.233C104.288 41.6624 104.363 42.0264 104.512 42.3252C104.661 42.6239 104.869 42.8516 105.135 43.0085C105.403 43.1653 105.716 43.2437 106.071 43.2437C106.303 43.2437 106.512 43.2101 106.699 43.1429C106.889 43.0756 107.054 42.9749 107.192 42.8404C107.331 42.706 107.435 42.5399 107.507 42.342L108.661 42.5604C108.569 42.8964 108.403 43.1914 108.168 43.4453C107.932 43.6992 107.636 43.8971 107.276 44.039C106.921 44.1772 106.516 44.2463 106.06 44.2463ZM109.598 44.1174V37.8556H110.81V40.4825H111.398L113.467 37.8556H114.97L112.553 40.9081L115.004 44.1174H113.49L111.6 41.6138H110.81V44.1174H109.598ZM117.28 44.2518C116.884 44.2518 116.525 44.179 116.204 44.0334C115.882 43.884 115.628 43.6675 115.441 43.3838C115.254 43.0999 115.16 42.7545 115.16 42.3475C115.16 41.9928 115.227 41.7035 115.363 41.4795C115.5 41.2516 115.686 41.0706 115.917 40.9361C116.15 40.8017 116.408 40.7009 116.691 40.6337C116.976 40.5665 117.267 40.5142 117.566 40.4768C117.944 40.4358 118.249 40.4003 118.48 40.3704C118.712 40.3406 118.88 40.2939 118.984 40.2304C119.093 40.1633 119.147 40.0567 119.147 39.9112V39.8832C119.147 39.5285 119.046 39.254 118.845 39.0599C118.646 38.8657 118.351 38.7686 117.959 38.7686C117.551 38.7686 117.227 38.8582 116.989 39.0375C116.753 39.213 116.591 39.4127 116.5 39.6368L115.351 39.3735C115.49 38.9926 115.689 38.6865 115.951 38.4549C116.217 38.2197 116.52 38.048 116.86 37.9396C117.204 37.8314 117.562 37.7773 117.936 37.7773C118.187 37.7773 118.452 37.8071 118.733 37.8668C119.013 37.9229 119.276 38.0293 119.523 38.1861C119.773 38.3392 119.977 38.5595 120.135 38.847C120.291 39.1345 120.37 39.5061 120.37 39.9615V44.1174H119.175V43.2605H119.13C119.056 43.4136 118.938 43.5667 118.778 43.7198C118.621 43.8728 118.418 43.9998 118.172 44.1007C117.925 44.2014 117.628 44.2518 117.28 44.2518ZM117.544 43.2773C117.884 43.2773 118.174 43.212 118.413 43.0813C118.652 42.9468 118.835 42.7713 118.962 42.5548C119.09 42.3383 119.153 42.1086 119.153 41.8658V41.0537C119.108 41.0948 119.024 41.134 118.901 41.1713C118.778 41.2087 118.637 41.2404 118.48 41.2665C118.323 41.2928 118.17 41.317 118.021 41.3394C117.871 41.358 117.746 41.373 117.644 41.3842C117.409 41.4178 117.194 41.4701 117 41.541C116.805 41.6082 116.649 41.709 116.529 41.8435C116.413 41.9742 116.355 42.1478 116.355 42.3644C116.355 42.6668 116.467 42.8946 116.691 43.0477C116.916 43.2008 117.2 43.2773 117.544 43.2773ZM126.364 35.5312L126.869 36.2986C126.686 36.4703 126.475 36.5917 126.235 36.6627C125.996 36.7336 125.721 36.7785 125.411 36.7971C125.101 36.8158 124.746 36.8325 124.346 36.8475C123.893 36.8587 123.522 36.9558 123.23 37.1387C122.942 37.3179 122.719 37.5831 122.562 37.9341C122.405 38.2851 122.304 38.7275 122.259 39.2615H122.338C122.537 38.8732 122.817 38.5837 123.179 38.3933C123.545 38.1991 123.957 38.1021 124.413 38.1021C124.917 38.1021 125.366 38.2178 125.758 38.4494C126.151 38.6771 126.461 39.0132 126.689 39.4575C126.917 39.9018 127.029 40.4432 127.026 41.0818C127.029 41.7315 126.914 42.2934 126.678 42.7676C126.443 43.2418 126.108 43.6058 125.674 43.8598C125.244 44.1137 124.738 44.2425 124.155 44.2463C123.276 44.2425 122.574 43.9438 122.046 43.3501C121.52 42.7527 121.254 41.879 121.25 40.7289V40.1184C121.254 38.6846 121.512 37.6073 122.024 36.8867C122.537 36.166 123.301 35.7945 124.317 35.7721C124.646 35.7646 124.94 35.7628 125.198 35.7665C125.456 35.7703 125.682 35.7591 125.877 35.733C126.071 35.703 126.234 35.6358 126.364 35.5312ZM124.155 43.2269C124.499 43.2232 124.792 43.1354 125.036 42.9637C125.279 42.7919 125.467 42.5473 125.602 42.2299C125.736 41.9125 125.802 41.5373 125.798 41.1042C125.802 40.6823 125.736 40.3238 125.602 40.0288C125.467 39.7301 125.276 39.5023 125.029 39.3455C124.783 39.1887 124.485 39.1102 124.138 39.1102C123.884 39.1102 123.656 39.1551 123.454 39.2446C123.252 39.3343 123.08 39.465 122.938 39.6368C122.796 39.8048 122.686 40.012 122.607 40.2585C122.532 40.5049 122.492 40.7868 122.484 41.1042C122.484 41.7464 122.631 42.2598 122.927 42.6444C123.226 43.029 123.635 43.2232 124.155 43.2269ZM127.912 46.4586V37.8556H129.089V38.875H129.19C129.265 38.7443 129.368 38.5931 129.498 38.4213C129.634 38.2496 129.82 38.1002 130.059 37.9732C130.299 37.8426 130.611 37.7773 130.996 37.7773C131.5 37.7773 131.949 37.9042 132.341 38.1581C132.738 38.412 133.05 38.7798 133.278 39.2615C133.506 39.7432 133.62 40.3238 133.62 41.0033C133.62 41.6754 133.508 42.2542 133.284 42.7396C133.059 43.2213 132.749 43.5928 132.353 43.8542C131.96 44.1119 131.51 44.2406 131.001 44.2406C130.624 44.2406 130.314 44.1772 130.071 44.0502C129.832 43.9195 129.642 43.7683 129.505 43.5966C129.37 43.4248 129.265 43.2735 129.19 43.1429H129.123V46.4586H127.912ZM130.738 43.2045C131.101 43.2045 131.403 43.1074 131.646 42.9133C131.889 42.7191 132.073 42.4559 132.195 42.1235C132.323 41.7875 132.386 41.4104 132.386 40.9921C132.386 40.5777 132.324 40.2061 132.202 39.8775C132.078 39.549 131.895 39.2895 131.652 39.099C131.409 38.9086 131.104 38.8134 130.738 38.8134C130.383 38.8134 130.084 38.9048 129.84 39.0878C129.597 39.267 129.413 39.521 129.286 39.8496C129.162 40.1744 129.101 40.5553 129.101 40.9921C129.101 41.429 129.164 41.8136 129.291 42.1459C129.418 42.4783 129.604 42.7378 129.847 42.9244C130.093 43.1111 130.391 43.2045 130.738 43.2045ZM138.24 44.1174V38.8974H136.733C136.377 38.9011 136.101 38.9851 135.902 39.1494C135.704 39.3137 135.607 39.5303 135.611 39.7992C135.607 40.0642 135.697 40.2789 135.88 40.4432C136.063 40.6038 136.321 40.6841 136.654 40.6841H138.588V41.6699H136.654C136.19 41.6699 135.79 41.5933 135.453 41.4402C135.121 41.2871 134.863 41.0687 134.68 40.7849C134.5 40.5011 134.413 40.167 134.416 39.7823C134.413 39.3903 134.505 39.0505 134.691 38.763C134.878 38.4755 135.145 38.2533 135.493 38.0965C135.84 37.9359 136.254 37.8556 136.733 37.8556H139.384V44.1174H138.24ZM134.125 44.1174L135.892 40.953H137.142L135.369 44.1174H134.125Z" fill="#303030"/>
    <path d="M249.675 44.1175V43.2102L252.501 40.2753C252.8 39.9616 253.047 39.6854 253.241 39.4464C253.439 39.2037 253.586 38.974 253.683 38.7575C253.785 38.5409 253.835 38.3113 253.835 38.0685C253.835 37.7885 253.77 37.5477 253.639 37.3461C253.508 37.1444 253.33 36.9894 253.107 36.8812C252.882 36.7729 252.628 36.7187 252.343 36.7187C252.045 36.7187 251.785 36.7804 251.564 36.9036C251.343 37.023 251.172 37.1948 251.048 37.4189C250.929 37.6392 250.869 37.8987 250.869 38.1974H249.668C249.668 37.6896 249.785 37.2452 250.017 36.8644C250.252 36.4835 250.574 36.1885 250.981 35.9795C251.392 35.7666 251.856 35.6602 252.372 35.6602C252.899 35.6602 253.362 35.7647 253.762 35.9738C254.162 36.1829 254.474 36.4667 254.698 36.8252C254.923 37.1799 255.035 37.5813 255.035 38.0294C255.035 38.3392 254.978 38.6417 254.861 38.9367C254.749 39.2317 254.549 39.5621 254.261 39.9281C253.978 40.2902 253.581 40.7272 253.072 41.2387L251.413 42.9749V43.0421H255.169V44.1175H249.675ZM261.551 44.2296C261.038 44.2296 260.579 44.1324 260.172 43.9383C259.768 43.7404 259.444 43.4697 259.201 43.1262C258.958 42.7789 258.829 42.385 258.814 41.9444H260.037C260.067 42.2991 260.226 42.5922 260.514 42.8237C260.802 43.0552 261.147 43.1709 261.551 43.1709C261.872 43.1709 262.157 43.0963 262.403 42.9469C262.65 42.7976 262.844 42.594 262.986 42.3364C263.129 42.075 263.199 41.7764 263.199 41.4403C263.199 41.1043 263.127 40.8037 262.981 40.5385C262.835 40.2697 262.633 40.0588 262.375 39.9057C262.121 39.7526 261.827 39.676 261.495 39.676C261.241 39.676 260.986 39.7208 260.732 39.8105C260.478 39.8963 260.273 40.0083 260.115 40.1465L258.955 39.9785L259.425 35.7722H264.018V36.8532H260.48L260.216 39.1888H260.261C260.422 39.0282 260.637 38.8975 260.906 38.7967C261.179 38.6921 261.472 38.6399 261.787 38.6399C262.295 38.6399 262.747 38.7612 263.144 39.0039C263.544 39.2429 263.857 39.5714 264.085 39.9897C264.313 40.4041 264.427 40.8802 264.427 41.4179C264.427 41.9593 264.304 42.4429 264.058 42.8685C263.811 43.2905 263.47 43.6228 263.037 43.8655C262.607 44.1082 262.112 44.2296 261.551 44.2296ZM268.157 44.2296C267.644 44.2296 267.184 44.1324 266.777 43.9383C266.373 43.7404 266.05 43.4697 265.807 43.1262C265.564 42.7789 265.435 42.385 265.42 41.9444H266.643C266.673 42.2991 266.831 42.5922 267.119 42.8237C267.407 43.0552 267.753 43.1709 268.157 43.1709C268.478 43.1709 268.762 43.0963 269.008 42.9469C269.256 42.7976 269.45 42.594 269.592 42.3364C269.734 42.075 269.805 41.7764 269.805 41.4403C269.805 41.1043 269.732 40.8037 269.586 40.5385C269.44 40.2697 269.239 40.0588 268.981 39.9057C268.727 39.7526 268.433 39.676 268.1 39.676C267.846 39.676 267.592 39.7208 267.338 39.8105C267.083 39.8963 266.878 40.0083 266.721 40.1465L265.561 39.9785L266.031 35.7722H270.624V36.8532H267.085L266.822 39.1888H266.867C267.028 39.0282 267.242 38.8975 267.512 38.7967C267.785 38.6921 268.078 38.6399 268.392 38.6399C268.901 38.6399 269.353 38.7612 269.749 39.0039C270.149 39.2429 270.463 39.5714 270.691 39.9897C270.919 40.4041 271.033 40.8802 271.033 41.4179C271.033 41.9593 270.909 42.4429 270.663 42.8685C270.416 43.2905 270.076 43.6228 269.643 43.8655C269.212 44.1082 268.717 44.2296 268.157 44.2296ZM274.908 44.2296C274.264 44.2296 273.713 44.0615 273.254 43.7255C272.797 43.3894 272.448 42.904 272.205 42.2692C271.966 41.6307 271.846 40.8578 271.846 39.9504C271.846 39.0469 271.968 38.2758 272.211 37.6373C272.454 36.9951 272.803 36.5059 273.259 36.1699C273.719 35.8301 274.269 35.6602 274.908 35.6602C275.551 35.6602 276.1 35.8301 276.556 36.1699C277.016 36.5059 277.366 36.9951 277.605 37.6373C277.848 38.2758 277.969 39.0469 277.969 39.9504C277.969 40.8578 277.85 41.6307 277.611 42.2692C277.371 42.904 277.023 43.3894 276.567 43.7255C276.112 44.0615 275.559 44.2296 274.908 44.2296ZM274.908 43.1542C275.301 43.1542 275.631 43.029 275.9 42.7789C276.169 42.5287 276.375 42.1647 276.517 41.6867C276.659 41.205 276.73 40.6263 276.73 39.9504C276.73 39.2709 276.659 38.6921 276.517 38.2142C276.375 37.7325 276.169 37.3666 275.9 37.1164C275.631 36.8625 275.301 36.7356 274.908 36.7356C274.328 36.7356 273.879 37.0175 273.562 37.5813C273.248 38.1414 273.091 38.9311 273.091 39.9504C273.091 40.6263 273.162 41.205 273.304 41.6867C273.446 42.1647 273.651 42.5287 273.921 42.7789C274.194 43.029 274.522 43.1542 274.908 43.1542ZM285.472 40.8466H281.16V39.7824H285.45C285.824 39.7787 286.13 39.7171 286.369 39.5976C286.609 39.4744 286.786 39.3044 286.902 39.0879C287.021 38.8676 287.081 38.6137 287.081 38.3262C287.081 38.0461 287.023 37.796 286.907 37.5757C286.792 37.3516 286.614 37.1743 286.375 37.0436C286.135 36.9129 285.835 36.8475 285.472 36.8475H283.695V44.1175H282.438V35.7722H285.472C286.104 35.7722 286.631 35.888 287.053 36.1194C287.48 36.3472 287.799 36.6534 288.013 37.038C288.229 37.4189 288.338 37.8464 288.338 38.3206C288.338 38.8023 288.229 39.2335 288.013 39.6144C287.795 39.9952 287.474 40.2959 287.048 40.5162C286.626 40.7364 286.1 40.8466 285.472 40.8466ZM285.528 41.5523V42.6164H281.16V41.5523H285.528Z" fill="#303030"/>
    <path d="M42.5701 55.1843V63.5296H41.3085V55.1843H42.5701ZM46.6299 63.5296H44.5664V62.4262H46.557C47.1925 62.4262 47.7215 62.3086 48.1439 62.0734C48.5663 61.8344 48.8822 61.4853 49.0916 61.026C49.3009 60.5631 49.4056 60.0029 49.4056 59.3458C49.4056 58.6923 49.3009 58.1378 49.0916 57.6823C48.8859 57.2268 48.5776 56.8814 48.1663 56.6461C47.7551 56.4072 47.2449 56.2877 46.6355 56.2877H44.5215V55.1843H46.7141C47.5327 55.1843 48.2355 55.3505 48.8224 55.6828C49.4093 56.0151 49.8598 56.493 50.1738 57.1166C50.4878 57.7364 50.6448 58.4795 50.6448 59.3458C50.6448 60.2158 50.4859 60.9626 50.1682 61.5861C49.8541 62.2097 49.3981 62.6895 48.8 63.0255C48.2019 63.3616 47.4785 63.5296 46.6299 63.5296ZM45.1832 55.1843V63.5296H43.9215V55.1843H45.1832ZM54.6317 55.1843V63.5296H53.3869V56.4501H53.3308L51.3457 57.7551V56.5454L53.4205 55.1843H54.6317ZM55.8653 63.5296V62.6223L58.6915 59.6874C58.9905 59.3737 59.2372 59.0975 59.4316 58.8585C59.6297 58.6158 59.7774 58.3861 59.8746 58.1696C59.9756 57.9531 60.026 57.7234 60.026 57.4806C60.026 57.2006 59.9605 56.9598 59.8297 56.7582C59.6989 56.5566 59.5213 56.4015 59.297 56.2933C59.0728 56.185 58.8185 56.1308 58.5344 56.1308C58.2354 56.1308 57.9756 56.1925 57.755 56.3157C57.5344 56.4351 57.3625 56.6069 57.2391 56.831C57.1195 57.0513 57.0597 57.3108 57.0597 57.6095H55.8597C55.8597 57.1017 55.9756 56.6573 56.2073 56.2765C56.4428 55.8956 56.7644 55.6006 57.1718 55.3916C57.583 55.1787 58.0466 55.0723 58.5625 55.0723C59.0895 55.0723 59.5531 55.1768 59.9531 55.3859C60.3531 55.5951 60.6652 55.8788 60.8895 56.2373C61.1138 56.592 61.226 56.9934 61.226 57.4415C61.226 57.7514 61.168 58.0538 61.0521 58.3488C60.94 58.6438 60.74 58.9742 60.4522 59.3402C60.1681 59.7023 59.7718 60.1393 59.2634 60.6508L57.6036 62.3871V62.4542H61.3605V63.5296H55.8653ZM62.7064 63.5296L66.3512 56.3269V56.2653H62.1344V55.1843H67.6633V56.3101L64.0241 63.5296H62.7064ZM71.1959 63.6417C70.8259 63.6417 70.4595 63.5763 70.0969 63.4456C69.7343 63.3149 69.4072 63.0983 69.1156 62.7959C68.824 62.4898 68.5885 62.079 68.409 61.5637C68.2333 61.0484 68.1455 60.408 68.1455 59.6426C68.1455 58.9145 68.2184 58.2685 68.3642 57.7047C68.5137 57.1371 68.7249 56.6592 68.9978 56.2709C69.2745 55.8788 69.6072 55.582 69.9959 55.3804C70.3847 55.175 70.8221 55.0723 71.3081 55.0723C71.8053 55.0723 72.2465 55.1713 72.6314 55.3692C73.0165 55.5633 73.3287 55.8321 73.5679 56.1756C73.8109 56.5192 73.9622 56.9113 74.022 57.3518H72.7885C72.7024 57.0046 72.5343 56.7227 72.2838 56.5061C72.0333 56.2859 71.7081 56.1756 71.3081 56.1756C70.6951 56.1756 70.2165 56.4426 69.8726 56.9766C69.5324 57.5068 69.3623 58.2461 69.3623 59.1945H69.424C69.5698 58.9593 69.7474 58.7577 69.9567 58.5897C70.1661 58.4179 70.3997 58.2872 70.6577 58.1976C70.9193 58.108 71.1978 58.0632 71.4932 58.0632C71.9754 58.0632 72.4128 58.1808 72.8053 58.416C73.2016 58.6513 73.5155 58.9761 73.7473 59.3906C73.9828 59.8013 74.1006 60.2736 74.1006 60.8076C74.1006 61.3379 73.9791 61.8176 73.7361 62.247C73.4969 62.6764 73.1585 63.0162 72.7212 63.2664C72.2875 63.5166 71.7791 63.6417 71.1959 63.6417ZM71.1904 62.583C71.5118 62.583 71.7978 62.5047 72.0483 62.3478C72.3025 62.191 72.5043 61.98 72.6539 61.715C72.8034 61.4461 72.8782 61.1473 72.8782 60.8188C72.8782 60.4977 72.8053 60.2064 72.6595 59.9451C72.5175 59.6837 72.3212 59.4764 72.0707 59.3234C71.824 59.1666 71.5398 59.0881 71.2184 59.0881C70.9006 59.0881 70.6128 59.1684 70.3549 59.329C70.0969 59.4895 69.8913 59.7023 69.738 59.9675C69.5885 60.2325 69.5137 60.5201 69.5137 60.83C69.5137 61.1399 69.5866 61.4293 69.7324 61.6981C69.8782 61.967 70.0763 62.1816 70.3268 62.3422C70.581 62.5028 70.8688 62.583 71.1904 62.583ZM77.8239 63.6417C77.3118 63.6417 76.852 63.5445 76.4445 63.3504C76.0408 63.1525 75.7174 62.8818 75.4744 62.5383C75.2314 62.191 75.1024 61.7971 75.0875 61.3565H76.3099C76.3398 61.7112 76.4987 62.0043 76.7865 62.2358C77.0744 62.4674 77.4202 62.583 77.8239 62.583C78.1454 62.583 78.4295 62.5084 78.6762 62.359C78.923 62.2097 79.1173 62.0061 79.2594 61.7485C79.4015 61.4871 79.4725 61.1885 79.4725 60.8524C79.4725 60.5164 79.3995 60.2158 79.2538 59.9506C79.108 59.6819 78.9062 59.4709 78.6482 59.3178C78.394 59.1647 78.1005 59.0881 77.7679 59.0881C77.5136 59.0881 77.2595 59.1329 77.0052 59.2226C76.751 59.3084 76.5454 59.4204 76.3885 59.5586L75.2277 59.3906L75.6987 55.1843H80.2911V56.2653H76.7529L76.4893 58.6009H76.5342C76.695 58.4403 76.9099 58.3096 77.1791 58.2088C77.452 58.1042 77.7454 58.052 78.0595 58.052C78.5678 58.052 79.0201 58.1733 79.4164 58.416C79.8164 58.655 80.1305 58.9836 80.3585 59.4018C80.5865 59.8162 80.7005 60.2924 80.7005 60.83C80.7005 61.3714 80.5772 61.855 80.3304 62.2806C80.0837 62.7026 79.7435 63.0349 79.3099 63.2776C78.8799 63.5203 78.3846 63.6417 77.8239 63.6417ZM84.5752 63.6417C83.9323 63.6417 83.3809 63.4736 82.9211 63.1376C82.465 62.8015 82.1154 62.3161 81.8725 61.6813C81.6332 61.0428 81.5136 60.2699 81.5136 59.3625C81.5136 58.459 81.635 57.6879 81.878 57.0494C82.1211 56.4072 82.4705 55.918 82.9266 55.582C83.3864 55.2422 83.936 55.0723 84.5752 55.0723C85.2182 55.0723 85.7678 55.2422 86.2238 55.582C86.6836 55.918 87.0331 56.4072 87.2724 57.0494C87.5154 57.6879 87.6369 58.459 87.6369 59.3625C87.6369 60.2699 87.5172 61.0428 87.278 61.6813C87.0388 62.3161 86.6911 62.8015 86.235 63.1376C85.779 63.4736 85.2257 63.6417 84.5752 63.6417ZM84.5752 62.5663C84.9678 62.5663 85.2986 62.4411 85.5678 62.191C85.8369 61.9409 86.0425 61.5768 86.1845 61.0988C86.3266 60.6171 86.3976 60.0384 86.3976 59.3625C86.3976 58.683 86.3266 58.1042 86.1845 57.6263C86.0425 57.1446 85.8369 56.7787 85.5678 56.5285C85.2986 56.2746 84.9678 56.1477 84.5752 56.1477C83.9958 56.1477 83.5472 56.4296 83.2294 56.9934C82.9154 57.5535 82.7584 58.3432 82.7584 59.3625C82.7584 60.0384 82.8294 60.6171 82.9715 61.0988C83.1135 61.5768 83.3192 61.9409 83.5883 62.191C83.8612 62.4411 84.1902 62.5663 84.5752 62.5663Z" fill="#BDBDBD"/>
    <path d="M186.393 74.1177H58.3031C48.5456 74.1177 40.6355 82.0185 40.6355 91.7647C40.6355 101.511 48.5456 109.412 58.3031 109.412H186.393C196.151 109.412 204.061 101.511 204.061 91.7647C204.061 82.0185 196.151 74.1177 186.393 74.1177Z" fill="#6F00FF"/>
    <path d="M99.5192 87.8312V96.1765H98.263V88.9068H94.332V96.1765H93.0758V87.8312H99.5192ZM103.501 96.3053C102.913 96.3053 102.399 96.1712 101.958 95.9021C101.521 95.633 101.181 95.2562 100.938 94.7709C100.699 94.2856 100.578 93.7218 100.578 93.0795C100.578 92.4292 100.699 91.8618 100.938 91.3765C101.181 90.8877 101.521 90.5083 101.958 90.2392C102.399 89.9709 102.913 89.8359 103.501 89.8359C104.091 89.8359 104.605 89.9709 105.042 90.2392C105.479 90.5083 105.819 90.8877 106.062 91.3765C106.306 91.8618 106.427 92.4292 106.427 93.0795C106.427 93.7218 106.306 94.2856 106.062 94.7709C105.819 95.2562 105.479 95.633 105.042 95.9021C104.605 96.1712 104.091 96.3053 103.501 96.3053ZM103.501 95.28C103.885 95.28 104.203 95.1795 104.454 94.9783C104.704 94.7762 104.889 94.5097 105.009 94.1771C105.132 93.8409 105.194 93.4747 105.194 93.0795C105.194 92.6762 105.132 92.3065 105.009 91.9703C104.889 91.6342 104.704 91.365 104.454 91.1639C104.203 90.9618 103.885 90.8612 103.501 90.8612C103.119 90.8612 102.803 90.9618 102.553 91.1639C102.306 91.365 102.121 91.6342 101.997 91.9703C101.874 92.3065 101.812 92.6762 101.812 93.0795C101.812 93.4747 101.874 93.8409 101.997 94.1771C102.121 94.5097 102.306 94.7762 102.553 94.9783C102.803 95.1795 103.119 95.28 103.501 95.28ZM106.69 97.98V95.1239H107.196C107.327 95.0039 107.439 94.8618 107.532 94.6977C107.625 94.53 107.702 94.3324 107.762 94.1039C107.826 93.8727 107.88 93.6053 107.925 93.3036C107.97 93.0009 108.008 92.6515 108.042 92.2562L108.238 89.9145H112.494V95.1239H113.459V97.98H112.265V96.1765H107.902V97.98H106.69ZM108.508 95.1239H111.306V90.9565H109.327L109.191 92.2562C109.136 92.9171 109.059 93.488 108.962 93.9697C108.868 94.448 108.717 94.8327 108.508 95.1239ZM114.171 98.5174V89.9145H115.349V90.9345H115.449C115.524 90.803 115.627 90.6521 115.758 90.48C115.893 90.3089 116.079 90.1597 116.318 90.0327C116.558 89.9021 116.871 89.8359 117.255 89.8359C117.76 89.8359 118.208 89.963 118.601 90.2171C118.997 90.4712 119.31 90.8392 119.538 91.3209C119.765 91.8018 119.879 92.3833 119.879 93.0627C119.879 93.7342 119.767 94.313 119.543 94.7983C119.318 95.28 119.008 95.6515 118.613 95.9136C118.22 96.1712 117.769 96.3 117.261 96.3C116.883 96.3 116.573 96.2365 116.33 96.1095C116.091 95.9789 115.902 95.8271 115.764 95.6559C115.629 95.4839 115.524 95.333 115.449 95.2024H115.382V98.5174H114.171ZM116.997 95.2633C117.36 95.2633 117.663 95.1662 117.906 94.9721C118.149 94.778 118.332 94.515 118.455 94.1824C118.583 93.8462 118.646 93.4695 118.646 93.0512C118.646 92.6365 118.584 92.265 118.461 91.9368C118.337 91.6077 118.154 91.3483 117.911 91.1577C117.668 90.968 117.364 90.8727 116.997 90.8727C116.642 90.8727 116.343 90.9636 116.1 91.1471C115.857 91.3262 115.672 91.5803 115.545 91.9086C115.422 92.2333 115.36 92.6145 115.36 93.0512C115.36 93.488 115.424 93.8727 115.551 94.2053C115.678 94.5371 115.863 94.7965 116.106 94.9836C116.352 95.1706 116.65 95.2633 116.997 95.2633ZM123.395 96.3053C122.809 96.3053 122.295 96.1712 121.853 95.9021C121.416 95.633 121.075 95.2562 120.833 94.7709C120.593 94.2856 120.474 93.7218 120.474 93.0795C120.474 92.4292 120.593 91.8618 120.833 91.3765C121.075 90.8877 121.416 90.5083 121.853 90.2392C122.295 89.9709 122.809 89.8359 123.395 89.8359C123.986 89.8359 124.5 89.9709 124.938 90.2392C125.375 90.5083 125.715 90.8877 125.958 91.3765C126.201 91.8618 126.323 92.4292 126.323 93.0795C126.323 93.7218 126.201 94.2856 125.958 94.7709C125.715 95.2562 125.375 95.633 124.938 95.9021C124.5 96.1712 123.986 96.3053 123.395 96.3053ZM123.395 95.28C123.78 95.28 124.098 95.1795 124.348 94.9783C124.599 94.7762 124.784 94.5097 124.904 94.1771C125.027 93.8409 125.089 93.4747 125.089 93.0795C125.089 92.6762 125.027 92.3065 124.904 91.9703C124.784 91.6342 124.599 91.365 124.348 91.1639C124.098 90.9618 123.78 90.8612 123.395 90.8612C123.014 90.8612 122.698 90.9618 122.447 91.1639C122.201 91.365 122.016 91.6342 121.893 91.9703C121.769 92.3065 121.707 92.6762 121.707 93.0795C121.707 93.4747 121.769 93.8409 121.893 94.1771C122.016 94.5097 122.201 94.7762 122.447 94.9783C122.698 95.1795 123.014 95.28 123.395 95.28ZM132.025 87.5903L132.529 88.358C132.347 88.5292 132.135 88.6509 131.896 88.7215C131.657 88.793 131.382 88.8371 131.072 88.8565C130.762 88.875 130.407 88.8918 130.006 88.9068C129.554 88.9174 129.182 89.0145 128.891 89.198C128.603 89.3771 128.38 89.6418 128.223 89.993C128.067 90.3442 127.965 90.7862 127.921 91.3209H127.999C128.197 90.9318 128.477 90.6433 128.84 90.4527C129.206 90.2586 129.618 90.1615 130.074 90.1615C130.578 90.1615 131.027 90.2771 131.42 90.5083C131.812 90.7359 132.122 91.0721 132.35 91.5168C132.578 91.9606 132.69 92.5024 132.687 93.1412C132.69 93.7906 132.574 94.3527 132.339 94.8265C132.104 95.3012 131.769 95.6647 131.335 95.9189C130.906 96.173 130.399 96.3018 129.816 96.3053C128.938 96.3018 128.234 96.0027 127.707 95.4089C127.181 94.8115 126.915 93.938 126.911 92.7883V92.1777C126.915 90.7439 127.173 89.6665 127.685 88.9456C128.197 88.2251 128.961 87.8536 129.978 87.8312C130.308 87.8237 130.601 87.8219 130.859 87.8256C131.117 87.8294 131.343 87.8182 131.537 87.792C131.732 87.7621 131.894 87.6949 132.025 87.5903ZM129.816 95.2862C130.159 95.2818 130.453 95.1945 130.696 95.0224C130.939 94.8512 131.127 94.6068 131.263 94.2892C131.397 93.9715 131.462 93.5965 131.459 93.1633C131.462 92.7415 131.397 92.3833 131.263 92.0877C131.127 91.7895 130.938 91.5618 130.69 91.4047C130.444 91.2477 130.147 91.1692 129.799 91.1692C129.544 91.1692 129.317 91.2142 129.115 91.3042C128.913 91.3933 128.741 91.5239 128.599 91.6959C128.457 91.8636 128.347 92.0709 128.268 92.3171C128.194 92.5642 128.152 92.8456 128.145 93.1633C128.145 93.8056 128.293 94.3192 128.588 94.7039C128.887 95.0877 129.296 95.2818 129.816 95.2862ZM137.812 92.5192V93.5718H134.42V92.5192H137.812ZM134.756 89.9145V96.1765H133.573V89.9145H134.756ZM138.664 89.9145V96.1765H137.475V89.9145H138.664ZM142.528 96.3053C141.914 96.3053 141.384 96.173 140.936 95.9074C140.487 95.6427 140.141 95.2695 139.898 94.7877C139.658 94.3024 139.539 93.7368 139.539 93.09C139.539 92.4486 139.657 91.8821 139.892 91.3933C140.132 90.9045 140.466 90.5233 140.896 90.2506C141.33 89.9744 141.838 89.8359 142.422 89.8359C142.777 89.8359 143.12 89.8942 143.453 90.0097C143.785 90.1253 144.085 90.3089 144.35 90.5586C144.616 90.8092 144.825 91.1339 144.978 91.5336C145.135 91.9333 145.214 92.4142 145.214 92.978V93.4156H140.229V92.5024H144.586L144.02 92.805C144.02 92.4203 143.959 92.0806 143.84 91.785C143.72 91.4903 143.541 91.2609 143.301 91.0968C143.066 90.9283 142.772 90.8445 142.422 90.8445C142.07 90.8445 141.769 90.9283 141.519 91.0968C141.271 91.2644 141.083 91.4868 140.952 91.763C140.821 92.0392 140.755 92.3418 140.755 92.67V93.2921C140.755 93.7218 140.831 94.0853 140.98 94.3845C141.13 94.6827 141.337 94.9103 141.603 95.0674C141.872 95.2244 142.184 95.303 142.539 95.303C142.77 95.303 142.98 95.2695 143.167 95.2024C143.358 95.1345 143.522 95.0339 143.66 94.8997C143.799 94.7647 143.904 94.5989 143.975 94.4012L145.13 94.6192C145.036 94.9553 144.872 95.2509 144.636 95.5042C144.4 95.7583 144.103 95.9559 143.745 96.098C143.39 96.2365 142.984 96.3053 142.528 96.3053ZM148.763 96.3053C148.15 96.3053 147.619 96.173 147.171 95.9074C146.722 95.6427 146.376 95.2695 146.133 94.7877C145.894 94.3024 145.775 93.7368 145.775 93.09C145.775 92.4486 145.892 91.8821 146.127 91.3933C146.367 90.9045 146.701 90.5233 147.132 90.2506C147.565 89.9744 148.073 89.8359 148.656 89.8359C149.012 89.8359 149.356 89.8942 149.688 90.0097C150.021 90.1253 150.32 90.3089 150.586 90.5586C150.851 90.8092 151.06 91.1339 151.214 91.5336C151.371 91.9333 151.449 92.4142 151.449 92.978V93.4156H146.464V92.5024H150.821L150.254 92.805C150.254 92.4203 150.195 92.0806 150.075 91.785C149.956 91.4903 149.777 91.2609 149.537 91.0968C149.301 90.9283 149.008 90.8445 148.656 90.8445C148.305 90.8445 148.004 90.9283 147.754 91.0968C147.507 91.2644 147.318 91.4868 147.187 91.763C147.057 92.0392 146.991 92.3418 146.991 92.67V93.2921C146.991 93.7218 147.066 94.0853 147.216 94.3845C147.365 94.6827 147.573 94.9103 147.838 95.0674C148.107 95.2244 148.42 95.303 148.775 95.303C149.006 95.303 149.216 95.2695 149.402 95.2024C149.593 95.1345 149.758 95.0339 149.896 94.8997C150.035 94.7647 150.139 94.5989 150.21 94.4012L151.365 94.6192C151.271 94.9553 151.107 95.2509 150.872 95.5042C150.636 95.7583 150.339 95.9559 149.98 96.098C149.625 96.2365 149.219 96.3053 148.763 96.3053Z" fill="white"/>
    <path d="M246.022 91.7645C246.022 82.2619 238.31 74.5586 228.796 74.5586C219.282 74.5586 211.57 82.2619 211.57 91.7645C211.57 101.267 219.282 108.97 228.796 108.97C238.31 108.97 246.022 101.267 246.022 91.7645Z" stroke="#E0E0E0"/>
    <mask id="mask0_1_6" style="mask-type:luminance" maskUnits="userSpaceOnUse" x="220" y="83" width="17" height="17">
        <path d="M236.746 83.8237H220.845V99.7061H236.746V83.8237Z" fill="white"/>
    </mask>
    <g mask="url(#mask0_1_6)">
        <path d="M228.465 87.1328H228.752C230.771 87.1328 231.781 87.1328 232.164 87.495C232.495 87.808 232.642 88.2692 232.553 88.7157C232.449 89.2328 231.625 89.8151 229.977 90.9789L227.283 92.8822C225.635 94.046 224.811 94.6283 224.707 95.1454C224.618 95.5919 224.765 96.0533 225.096 96.3666C225.48 96.7283 226.489 96.7283 228.508 96.7283H229.127M226.146 87.1328C226.146 88.2292 225.256 89.118 224.158 89.118C223.06 89.118 222.17 88.2292 222.17 87.1328C222.17 86.0363 223.06 85.1475 224.158 85.1475C225.256 85.1475 226.146 86.0363 226.146 87.1328ZM235.421 96.3975C235.421 97.4942 234.532 98.3828 233.434 98.3828C232.335 98.3828 231.446 97.4942 231.446 96.3975C231.446 95.3007 232.335 94.4122 233.434 94.4122C234.532 94.4122 235.421 95.3007 235.421 96.3975Z" stroke="#303030" stroke-width="1.7" stroke-linecap="round" stroke-linejoin="round"/>
    </g>
    <path d="M288.866 91.7647C288.866 82.0185 280.956 74.1177 271.198 74.1177C261.441 74.1177 253.531 82.0185 253.531 91.7647C253.531 101.511 261.441 109.412 271.198 109.412C280.956 109.412 288.866 101.511 288.866 91.7647Z" fill="#F04438"/>
    <path d="M274.51 88.4561L267.885 95.0737M267.885 88.4561L274.51 95.0737" stroke="white" stroke-width="2" stroke-linecap="round" stroke-linejoin="round"/>
</svg>
