<svg width="192" height="96" viewBox="0 0 192 96" fill="none" xmlns="http://www.w3.org/2000/svg">
<g clip-path="url(#clip0_5413_2943)" filter="url(#filter0_d_5413_2943)">
<path d="M170.402 8H21.5977C18.5062 8 16 10.5283 16 13.6471V66.3529C16 69.4717 18.5062 72 21.5977 72H170.402C173.494 72 176 69.4717 176 66.3529V13.6471C176 10.5283 173.494 8 170.402 8Z" fill="white"/>
<path d="M25.7959 15.2943C25.7959 15.0344 26.0047 14.8237 26.2623 14.8237H28.5168C29.8048 14.8237 30.8489 15.8772 30.8489 17.1767C30.8489 18.4762 29.8048 19.5296 28.5168 19.5296H27.8171C27.5595 19.5296 27.3507 19.7403 27.3507 20.0002V21.412C27.3507 21.6719 27.1418 21.8826 26.8842 21.8826H26.2623C26.0047 21.8826 25.7959 21.6719 25.7959 21.412V15.2943ZM27.8171 16.3923C27.5595 16.3923 27.3507 16.603 27.3507 16.8629V17.4904C27.3507 17.7503 27.5595 17.961 27.8171 17.961H28.5168C28.9461 17.961 29.2942 17.6098 29.2942 17.1767C29.2942 16.7435 28.9461 16.3923 28.5168 16.3923H27.8171Z" fill="#6F00FF"/>
<path d="M37.8516 21.6468V16.1689H41.3464V16.9998H38.8355V18.2866H39.8814C40.2993 18.2866 40.6565 18.3552 40.9529 18.4924C41.2493 18.6272 41.4776 18.8184 41.638 19.0659C41.7983 19.3135 41.8785 19.6052 41.8785 19.941C41.8785 20.2767 41.7983 20.5733 41.638 20.8307C41.4776 21.0856 41.2493 21.2853 40.9529 21.4299C40.6565 21.5746 40.2993 21.6468 39.8814 21.6468H37.8516ZM38.8355 20.8307H39.8814C40.1025 20.8307 40.2884 20.789 40.439 20.7057C40.5896 20.6223 40.705 20.512 40.7852 20.3748C40.8654 20.2375 40.9055 20.0892 40.9055 19.9299C40.9055 19.6995 40.8168 19.5022 40.6394 19.338C40.4645 19.1738 40.2118 19.0929 39.8814 19.0954H38.8355V20.8307ZM47.4835 20.816L47.4142 22.941H46.4594V21.6468H46.0731V20.816H47.4835ZM42.458 21.6468V16.1689H43.4018V20.8233H45.8399V16.1689H46.7947V21.6468H42.458ZM53.38 16.1689V21.6468H52.4179V16.1689H53.38ZM49.2291 21.6468L50.9492 18.7718L49.3238 16.1689H50.5301L51.8129 18.4814H54.0068L55.2641 16.1689H56.4667L54.8705 18.7645L56.5688 21.6468H55.4026L54.1453 19.4042H51.6598L50.377 21.6468H49.2291ZM58.5804 21.7277C58.1722 21.7277 57.8199 21.6419 57.5235 21.4704C57.2271 21.2963 56.9988 21.0513 56.8384 20.7351C56.6805 20.4189 56.6016 20.0464 56.6016 19.6174C56.6016 19.1934 56.6805 18.8221 56.8384 18.5035C56.9963 18.1824 57.2186 17.9324 57.5053 17.7535C57.792 17.5746 58.1297 17.4851 58.5184 17.4851C58.7687 17.4851 59.0056 17.5255 59.2291 17.6064C59.455 17.6873 59.6542 17.8123 59.8267 17.9814C60.0017 18.1505 60.139 18.3662 60.2385 18.6284C60.3382 18.8883 60.388 19.1983 60.388 19.5586V19.8601H57.0498V19.2093H59.9106L59.4623 19.4005C59.4623 19.1677 59.4271 18.9655 59.3566 18.7939C59.2862 18.6199 59.1817 18.4838 59.0432 18.3858C58.9048 18.2878 58.7323 18.2387 58.5258 18.2387C58.3192 18.2387 58.1431 18.2878 57.9973 18.3858C57.8516 18.4838 57.741 18.6162 57.6657 18.7829C57.5904 18.9471 57.5527 19.1309 57.5527 19.3343V19.7866C57.5527 20.0365 57.5952 20.251 57.6803 20.4299C57.7677 20.6064 57.8892 20.7412 58.0447 20.8343C58.2026 20.9275 58.386 20.974 58.595 20.974C58.731 20.974 58.8549 20.9544 58.9667 20.9152C59.0809 20.876 59.1781 20.8172 59.2583 20.7387C59.3409 20.6579 59.404 20.5586 59.4477 20.441L60.3442 20.5476C60.2859 20.7853 60.1778 20.9937 60.0199 21.1726C59.8644 21.3491 59.664 21.4863 59.4186 21.5843C59.1756 21.6799 58.8962 21.7277 58.5804 21.7277ZM63.7007 19.1909V19.9851H61.5396V19.1909H63.7007ZM61.8311 17.5365V21.6468H60.9091V17.5365H61.8311ZM64.3347 17.5365V21.6468H63.4129V17.5365H64.3347ZM66.8457 21.7277C66.4375 21.7277 66.0854 21.6419 65.7887 21.4704C65.4925 21.2963 65.2639 21.0513 65.1039 20.7351C64.9458 20.4189 64.8669 20.0464 64.8669 19.6174C64.8669 19.1934 64.9458 18.8221 65.1039 18.5035C65.2616 18.1824 65.4841 17.9324 65.7705 17.7535C66.0574 17.5746 66.3951 17.4851 66.7837 17.4851C67.0342 17.4851 67.2707 17.5255 67.4946 17.6064C67.7203 17.6873 67.9195 17.8123 68.0921 17.9814C68.267 18.1505 68.4042 18.3662 68.504 18.6284C68.6034 18.8883 68.6533 19.1983 68.6533 19.5586V19.8601H65.3152V19.2093H68.1761L67.7278 19.4005C67.7278 19.1677 67.6924 18.9655 67.6219 18.7939C67.5515 18.6199 67.447 18.4838 67.3084 18.3858C67.1699 18.2878 66.9978 18.2387 66.7911 18.2387C66.5845 18.2387 66.4082 18.2878 66.2626 18.3858C66.1171 18.4838 66.0065 18.6162 65.931 18.7829C65.8558 18.9471 65.8181 19.1309 65.8181 19.3343V19.7866C65.8181 20.0365 65.8605 20.251 65.9454 20.4299C66.0331 20.6064 66.1544 20.7412 66.3102 20.8343C66.4679 20.9275 66.6512 20.974 66.8602 20.974C66.9964 20.974 67.1205 20.9544 67.2319 20.9152C67.3462 20.876 67.4433 20.8172 67.5235 20.7387C67.6061 20.6579 67.6695 20.5586 67.7129 20.441L68.6094 20.5476C68.5511 20.7853 68.4429 20.9937 68.2852 21.1726C68.1299 21.3491 67.9293 21.4863 67.684 21.5843C67.4409 21.6799 67.1615 21.7277 66.8457 21.7277ZM69.1743 21.6468V17.5365H70.8835C71.3649 17.539 71.7451 17.6383 72.0245 17.8343C72.3062 18.028 72.4471 18.2976 72.4471 18.6432C72.4471 18.876 72.3683 19.0647 72.2101 19.2093C72.052 19.3515 71.8384 19.4483 71.5687 19.4998C71.78 19.517 71.9662 19.5721 72.1262 19.6652C72.289 19.7559 72.4168 19.8748 72.5091 20.0219C72.6015 20.1689 72.6477 20.3393 72.6477 20.5329C72.6477 20.7584 72.588 20.9556 72.469 21.1248C72.3524 21.2915 72.1821 21.4201 71.9587 21.5108C71.7376 21.6015 71.4666 21.6468 71.1461 21.6468H69.1743ZM70.0709 20.8821H71.1461C71.3234 20.8846 71.4619 20.8442 71.5613 20.7608C71.6634 20.675 71.7133 20.5586 71.711 20.4115C71.7133 20.2424 71.6634 20.1101 71.5613 20.0145C71.4619 19.9164 71.3234 19.8675 71.1461 19.8675H70.0709V20.8821ZM70.0709 19.2424H70.9017C71.0962 19.24 71.2492 19.1971 71.3612 19.1138C71.4726 19.0304 71.5286 18.9164 71.5286 18.7718C71.5286 18.6272 71.4717 18.5157 71.3574 18.4373C71.2431 18.3564 71.0855 18.316 70.8835 18.316H70.0709V19.2424ZM74.9362 21.7277C74.5304 21.7277 74.1819 21.6383 73.8904 21.4594C73.5988 21.2779 73.3749 21.028 73.2196 20.7093C73.0642 20.3907 72.9863 20.0243 72.9863 19.6101C72.9863 19.1909 73.0652 18.8221 73.2233 18.5035C73.381 18.1848 73.6058 17.9361 73.8974 17.7571C74.1889 17.5758 74.5327 17.4851 74.9287 17.4851C75.2618 17.4851 75.5557 17.5464 75.8108 17.6689C76.066 17.7915 76.2689 17.9643 76.4191 18.1873C76.5726 18.4079 76.6598 18.6665 76.6817 18.963H75.7633C75.739 18.8307 75.6919 18.7118 75.621 18.6064C75.5505 18.501 75.4586 18.4177 75.3444 18.3564C75.2324 18.2951 75.099 18.2645 74.9432 18.2645C74.7468 18.2645 74.5742 18.3184 74.4259 18.4262C74.2803 18.5316 74.166 18.6836 74.0835 18.8821C74.0009 19.0807 73.9594 19.3184 73.9594 19.5954C73.9594 19.8748 73.9995 20.1162 74.0798 20.3196C74.16 20.5206 74.2738 20.6763 74.4221 20.7866C74.5705 20.8944 74.744 20.9483 74.9432 20.9483C75.1545 20.9483 75.3332 20.8858 75.4792 20.7608C75.6275 20.6358 75.7222 20.463 75.7633 20.2424H76.6817C76.6598 20.5341 76.5749 20.7915 76.4266 21.0145C76.2782 21.2375 76.0781 21.4128 75.8253 21.5402C75.5725 21.6652 75.2763 21.7277 74.9362 21.7277ZM77.1991 21.6468V17.5365H78.1577V19.1983H78.5075L79.7357 17.5365H80.8875L79.3821 19.5586L80.9019 21.6468H79.7427L78.6241 20.0954H78.1577V21.6468H77.1991ZM82.0863 20.3343L83.7189 17.5365H84.7027V21.6468H83.781V18.8454L82.1516 21.6468H81.1641V17.5365H82.0863V20.3343ZM86.3354 20.3343L87.968 17.5365H88.9523V21.6468H88.0301V18.8454L86.4011 21.6468H85.4136V17.5365H86.3354V20.3343ZM87.1774 17.0659C86.8102 17.0659 86.5117 16.9667 86.2808 16.7682C86.0522 16.5696 85.9384 16.3099 85.9384 15.9888H86.6563C86.6563 16.1432 86.7034 16.2682 86.7981 16.3637C86.8933 16.4569 87.0192 16.5035 87.1774 16.5035C87.335 16.5035 87.4614 16.4569 87.5561 16.3637C87.6513 16.2682 87.6984 16.1432 87.6984 15.9888H88.42C88.42 16.3099 88.3048 16.5696 88.0739 16.7682C87.8453 16.9667 87.5468 17.0659 87.1774 17.0659ZM90.8765 22.8417V20.8491H91.197C91.2847 20.7829 91.3574 20.6922 91.4157 20.577C91.474 20.4594 91.5212 20.3209 91.558 20.1616C91.5967 19.9998 91.6284 19.8196 91.6527 19.6211C91.6793 19.4226 91.7021 19.2093 91.7217 18.9814L91.8384 17.5365H94.7832V20.8491H95.4097V22.8417H94.4842V21.6468H91.8202V22.8417H90.8765ZM92.1845 20.8491H93.8647V18.3196H92.6729L92.6076 18.9814C92.5735 19.4152 92.5259 19.7878 92.4653 20.099C92.407 20.4079 92.3132 20.6579 92.1845 20.8491ZM97.6254 21.7277C97.227 21.7277 96.8823 21.6395 96.5908 21.463C96.2992 21.2866 96.073 21.039 95.9125 20.7203C95.7549 20.4018 95.676 20.0316 95.676 19.6101C95.676 19.186 95.7549 18.8147 95.9125 18.4961C96.073 18.175 96.2992 17.9263 96.5908 17.7498C96.8823 17.5733 97.227 17.4851 97.6254 17.4851C98.0242 17.4851 98.369 17.5733 98.6605 17.7498C98.9521 17.9263 99.1778 18.175 99.3383 18.4961C99.4988 18.8147 99.579 19.186 99.579 19.6101C99.579 20.0316 99.4988 20.4018 99.3383 20.7203C99.1778 21.039 98.9521 21.2866 98.6605 21.463C98.369 21.6395 98.0242 21.7277 97.6254 21.7277ZM97.6254 20.9483C97.8465 20.9483 98.0289 20.8895 98.1721 20.7718C98.3158 20.6517 98.4226 20.49 98.493 20.2866C98.5658 20.0831 98.6022 19.8576 98.6022 19.6101C98.6022 19.3576 98.5658 19.1297 98.493 18.9263C98.4226 18.7228 98.3158 18.5623 98.1721 18.4446C98.0289 18.3245 97.8465 18.2645 97.6254 18.2645C97.4094 18.2645 97.2284 18.3245 97.0824 18.4446C96.9369 18.5623 96.8273 18.7228 96.7545 18.9263C96.6841 19.1297 96.6491 19.3576 96.6491 19.6101C96.6491 19.8576 96.6841 20.0831 96.7545 20.2866C96.8273 20.49 96.9369 20.6517 97.0824 20.7718C97.2284 20.8895 97.4094 20.9483 97.6254 20.9483ZM102.451 20.5219L103.661 17.5365H104.429L102.786 21.6468H102.115L100.504 17.5365H101.274L102.451 20.5219ZM101.029 17.5365V21.6468H100.108V17.5365H101.029ZM103.908 21.6468V17.5365H104.823V21.6468H103.908Z" fill="#303030"/>
<path d="M40.2566 29.1764C40.2566 28.3967 39.6301 27.7646 38.8573 27.7646C38.0845 27.7646 37.458 28.3967 37.458 29.1764C37.458 29.9561 38.0845 30.5882 38.8573 30.5882C39.6301 30.5882 40.2566 29.9561 40.2566 29.1764Z" fill="#12B76A"/>
<path d="M45.2525 31.5893C44.8735 31.5893 44.5339 31.4976 44.2339 31.3144C43.9338 31.1312 43.6979 30.8693 43.5262 30.5288C43.3544 30.1863 43.2686 29.779 43.2686 29.307C43.2686 28.8311 43.3544 28.4229 43.5262 28.0823C43.6999 27.7398 43.9358 27.4769 44.2339 27.2937C44.5339 27.1105 44.8735 27.0189 45.2525 27.0189C45.4854 27.0189 45.7035 27.0528 45.9068 27.1205C46.1121 27.1882 46.2957 27.2868 46.4576 27.4162C46.6195 27.5456 46.7527 27.704 46.8573 27.8912C46.9639 28.0783 47.0349 28.2904 47.0705 28.5274H46.4013C46.3756 28.3821 46.3273 28.2546 46.2562 28.1451C46.1871 28.0335 46.1013 27.9399 45.9986 27.8643C45.898 27.7866 45.7844 27.7289 45.6581 27.691C45.5337 27.6512 45.4015 27.6313 45.2613 27.6313C45.0086 27.6313 44.7807 27.696 44.5773 27.8254C44.376 27.9529 44.2171 28.1421 44.1006 28.393C43.9861 28.6419 43.9289 28.9466 43.9289 29.307C43.9289 29.6695 43.9871 29.9752 44.1036 30.2241C44.22 30.471 44.3789 30.6582 44.5803 30.7857C44.7817 30.9132 45.0077 30.9769 45.2584 30.9769C45.3985 30.9769 45.5308 30.958 45.6551 30.9201C45.7795 30.8823 45.893 30.8255 45.9956 30.7499C46.0983 30.6742 46.1842 30.5826 46.2533 30.475C46.3243 30.3655 46.3737 30.239 46.4013 30.0957H47.0705C47.0369 30.3167 46.9688 30.5189 46.8662 30.7021C46.7636 30.8833 46.6323 31.0406 46.4724 31.174C46.3125 31.3054 46.1299 31.408 45.9246 31.4817C45.7193 31.5534 45.4953 31.5893 45.2525 31.5893ZM48.8175 30.6602V30.1196L50.7214 27.0787H51.1448V27.8792H50.8724L49.5104 30.0539V30.0897H52.1249V30.6602H48.8175ZM50.902 31.5295V30.4959L50.908 30.248V27.0787H51.5416V31.5295H50.902ZM53.9756 31.5295V28.1899H56.6701V31.5295H56.0394V28.7515H54.5974V31.5295H53.9756ZM58.6747 31.5982C58.3648 31.5982 58.0933 31.5265 57.8604 31.3831C57.6295 31.2397 57.4498 31.0386 57.3215 30.7797C57.1952 30.5208 57.132 30.2201 57.132 29.8776C57.132 29.5311 57.1952 29.2284 57.3215 28.9695C57.4498 28.7086 57.6295 28.5065 57.8604 28.3631C58.0933 28.2197 58.3648 28.1481 58.6747 28.1481C58.9866 28.1481 59.258 28.2197 59.489 28.3631C59.7199 28.5065 59.8995 28.7086 60.0279 28.9695C60.1562 29.2284 60.2203 29.5311 60.2203 29.8776C60.2203 30.2201 60.1562 30.5208 60.0279 30.7797C59.8995 31.0386 59.7199 31.2397 59.489 31.3831C59.258 31.5265 58.9866 31.5982 58.6747 31.5982ZM58.6747 31.0516C58.878 31.0516 59.0458 30.9978 59.1781 30.8902C59.3103 30.7827 59.408 30.6403 59.4712 30.4631C59.5363 30.2838 59.5689 30.0887 59.5689 29.8776C59.5689 29.6625 59.5363 29.4654 59.4712 29.2861C59.408 29.1069 59.3103 28.9636 59.1781 28.856C59.0458 28.7485 58.878 28.6947 58.6747 28.6947C58.4733 28.6947 58.3065 28.7485 58.1743 28.856C58.044 28.9636 57.9463 29.1069 57.8811 29.2861C57.816 29.4654 57.7834 29.6625 57.7834 29.8776C57.7834 30.0887 57.816 30.2838 57.8811 30.4631C57.9463 30.6403 58.044 30.7827 58.1743 30.8902C58.3065 30.9978 58.4733 31.0516 58.6747 31.0516ZM63.4743 27.0159C63.672 27.0179 63.8652 27.0548 64.055 27.1265C64.2463 27.1962 64.4189 27.3117 64.5728 27.473C64.7291 27.6343 64.8532 27.8523 64.946 28.1271C65.0388 28.4 65.0855 28.7405 65.0855 29.1487C65.0855 29.5371 65.0467 29.8826 64.9698 30.1853C64.8928 30.488 64.7813 30.7439 64.6353 30.953C64.4912 31.1621 64.3162 31.3214 64.111 31.4309C63.9057 31.5384 63.6758 31.5922 63.4211 31.5922C63.1585 31.5922 62.9248 31.5395 62.7195 31.4339C62.5141 31.3284 62.3483 31.184 62.222 31.0008C62.0956 30.8156 62.0157 30.6035 61.9821 30.3645H62.6395C62.6827 30.5537 62.7708 30.708 62.9028 30.8275C63.0372 30.945 63.2098 31.0037 63.4211 31.0037C63.7429 31.0037 63.9934 30.8613 64.173 30.5766C64.355 30.2918 64.4469 29.8945 64.4487 29.3847H64.4161C64.3391 29.5102 64.2453 29.6187 64.1348 29.7103C64.0242 29.7999 63.8997 29.8686 63.7616 29.9165C63.6235 29.9642 63.4775 29.9881 63.3236 29.9881C63.067 29.9881 62.8338 29.9254 62.6247 29.7999C62.4154 29.6745 62.2496 29.5022 62.1272 29.2832C62.0048 29.0621 61.9426 28.8102 61.9407 28.5274C61.9426 28.2446 62.0068 27.9887 62.1331 27.7597C62.2614 27.5307 62.4401 27.3495 62.6691 27.2161C62.8982 27.0806 63.1664 27.014 63.4743 27.0159ZM63.4775 27.5835C63.3096 27.5835 63.1585 27.6253 63.0246 27.7089C62.8902 27.7926 62.7843 27.9051 62.7074 28.0465C62.6306 28.1879 62.5921 28.3452 62.5921 28.5185C62.5921 28.6917 62.6286 28.848 62.7018 28.9874C62.7769 29.1269 62.8804 29.2383 63.0125 29.322C63.1449 29.4037 63.2947 29.4445 63.4626 29.4445C63.6324 29.4445 63.7845 29.4017 63.9188 29.316C64.055 29.2284 64.1632 29.1139 64.2444 28.9725C64.3251 28.8291 64.3657 28.6748 64.3657 28.5095C64.3657 28.3462 64.3274 28.1939 64.2505 28.0525C64.173 27.9111 64.0676 27.7976 63.9333 27.7119C63.8013 27.6263 63.6492 27.5835 63.4775 27.5835ZM66.6309 32.4913V30.9679H66.8972C66.9663 30.9042 67.0255 30.8285 67.075 30.7409C67.1244 30.6513 67.165 30.5457 67.1962 30.4243C67.2298 30.3008 67.2587 30.1584 67.2825 29.9971C67.3059 29.8358 67.3269 29.6496 67.3446 29.4385L67.4481 28.1899H69.6956V30.9679H70.205V32.4913H69.5743V31.5295H67.2704V32.4913H66.6309ZM67.5904 30.9679H69.0677V28.7455H68.0224L67.9515 29.4385C67.9221 29.791 67.8815 30.0957 67.8302 30.3525C67.7807 30.6075 67.701 30.8126 67.5904 30.9679ZM72.0051 31.5982C71.6814 31.5982 71.401 31.5275 71.1641 31.3861C70.9271 31.2447 70.7447 31.0456 70.6164 30.7887C70.49 30.5298 70.427 30.2281 70.427 29.8836C70.427 29.5411 70.4891 29.2394 70.6136 28.9785C70.7396 28.7176 70.9164 28.5145 71.1435 28.3691C71.3726 28.2217 71.6408 28.1481 71.9487 28.1481C72.1362 28.1481 72.3181 28.1789 72.4935 28.2406C72.6694 28.3024 72.8275 28.4 72.9674 28.5334C73.1074 28.6668 73.2179 28.8401 73.2991 29.0532C73.3821 29.2662 73.4236 29.5231 73.4236 29.8238V30.0568H70.7909V29.5699H73.092L72.793 29.7312C72.793 29.5261 72.7613 29.3449 72.6978 29.1876C72.6348 29.0302 72.5401 28.9078 72.4137 28.8202C72.2892 28.7305 72.1343 28.6857 71.9487 28.6857C71.7635 28.6857 71.6044 28.7305 71.4719 28.8202C71.3418 28.9098 71.242 29.0283 71.1729 29.1756C71.1039 29.323 71.0694 29.4843 71.0694 29.6596V29.9911C71.0694 30.2201 71.109 30.4143 71.1878 30.5736C71.2667 30.7329 71.3763 30.8544 71.5167 30.9381C71.6585 31.0217 71.8236 31.0635 72.0112 31.0635C72.1334 31.0635 72.2439 31.0456 72.3428 31.0097C72.4431 30.9739 72.5304 30.9201 72.6031 30.8484C72.6764 30.7767 72.7314 30.6881 72.7692 30.5826L73.3789 30.6991C73.3299 30.8783 73.2427 31.0356 73.1186 31.171C72.994 31.3064 72.8373 31.412 72.6474 31.4877C72.4599 31.5613 72.2458 31.5982 72.0051 31.5982ZM73.8733 31.5295V28.1899H74.5133V29.5909H74.824L75.9165 28.1899H76.7099L75.4341 29.8179L76.7281 31.5295H75.9286L74.9308 30.1942H74.5133V31.5295H73.8733ZM77.9302 31.6012C77.7208 31.6012 77.5314 31.5623 77.3616 31.4847C77.1918 31.405 77.0575 31.2895 76.959 31.1382C76.8601 30.9868 76.8107 30.8026 76.8107 30.5855C76.8107 30.3964 76.8461 30.2421 76.9175 30.1226C76.9903 30.0011 77.0882 29.9045 77.2105 29.8328C77.3331 29.7611 77.4694 29.7073 77.6191 29.6715C77.7693 29.6357 77.9232 29.6077 78.0809 29.5878C78.2806 29.566 78.4415 29.547 78.5637 29.5311C78.6859 29.5152 78.775 29.4903 78.8301 29.4564C78.8874 29.4206 78.9159 29.3638 78.9159 29.2861V29.2712C78.9159 29.0821 78.8627 28.9357 78.7564 28.8321C78.6514 28.7285 78.4956 28.6768 78.2885 28.6768C78.073 28.6768 77.9022 28.7246 77.7763 28.8202C77.6517 28.9138 77.5659 29.0203 77.5183 29.1398L76.9115 28.9994C76.9847 28.7963 77.0901 28.633 77.2282 28.5095C77.3686 28.384 77.5286 28.2925 77.7082 28.2347C77.8896 28.1769 78.079 28.1481 78.2764 28.1481C78.4088 28.1481 78.5488 28.164 78.6971 28.1958C78.845 28.2257 78.984 28.2825 79.1146 28.3661C79.2466 28.4477 79.3544 28.5653 79.4374 28.7186C79.52 28.8719 79.5615 29.0701 79.5615 29.313V31.5295H78.9308V31.0725H78.907C78.8678 31.1541 78.8053 31.2357 78.7209 31.3174C78.6379 31.399 78.531 31.4668 78.4009 31.5205C78.2708 31.5743 78.1136 31.6012 77.9302 31.6012ZM78.0692 31.0814C78.2488 31.0814 78.4018 31.0466 78.5282 30.9769C78.6547 30.9052 78.7512 30.8116 78.8184 30.6961C78.8856 30.5806 78.9192 30.4581 78.9192 30.3286V29.8955C78.8954 29.9174 78.851 29.9383 78.7857 29.9582C78.7209 29.9782 78.6467 29.9951 78.5637 30.009C78.4807 30.023 78.4 30.0359 78.3211 30.0479C78.2418 30.0578 78.1761 30.0658 78.1224 30.0717C77.9983 30.0897 77.8845 30.1176 77.7819 30.1554C77.6793 30.1912 77.5967 30.245 77.5333 30.3167C77.4722 30.3864 77.4414 30.479 77.4414 30.5945C77.4414 30.7558 77.5006 30.8773 77.6191 30.9589C77.7376 31.0406 77.8878 31.0814 78.0692 31.0814ZM82.727 26.9502L82.9933 27.3595C82.8968 27.451 82.7853 27.5158 82.6589 27.5536C82.5324 27.5915 82.3874 27.6154 82.2236 27.6253C82.0599 27.6353 81.8724 27.6442 81.6611 27.6522C81.4222 27.6581 81.2259 27.71 81.0719 27.8075C80.9199 27.9031 80.8023 28.0445 80.7193 28.2317C80.6362 28.4189 80.5831 28.6549 80.5593 28.9397H80.6008C80.7057 28.7325 80.8536 28.5782 81.0449 28.4766C81.2385 28.3731 81.4558 28.3213 81.6965 28.3213C81.9629 28.3213 82.1999 28.383 82.407 28.5065C82.6145 28.628 82.7783 28.8072 82.8986 29.0442C83.019 29.2812 83.0782 29.5699 83.0764 29.9105C83.0782 30.257 83.0171 30.5567 82.8926 30.8096C82.7685 31.0625 82.5917 31.2566 82.3626 31.3921C82.1355 31.5275 81.8682 31.5962 81.5603 31.5982C81.0962 31.5962 80.7253 31.4369 80.4468 31.1203C80.1688 30.8016 80.0284 30.3357 80.0266 29.7223V29.3967C80.0284 28.632 80.1646 28.0574 80.4352 27.6731C80.7057 27.2887 81.1092 27.0906 81.6461 27.0787C81.8197 27.0747 81.975 27.0737 82.1112 27.0757C82.2474 27.0777 82.3668 27.0717 82.4695 27.0578C82.5721 27.0418 82.6579 27.006 82.727 26.9502ZM81.5603 31.0545C81.7418 31.0525 81.8966 31.0057 82.0254 30.9141C82.1537 30.8225 82.253 30.6921 82.3244 30.5228C82.3953 30.3535 82.4298 30.1534 82.428 29.9224C82.4298 29.6974 82.3953 29.5062 82.3244 29.3489C82.253 29.1896 82.1523 29.0681 82.0221 28.9845C81.892 28.9008 81.7348 28.859 81.5515 28.859C81.4171 28.859 81.2968 28.8829 81.1899 28.9307C81.0836 28.9785 80.9926 29.0482 80.9175 29.1398C80.8429 29.2294 80.7846 29.3399 80.7431 29.4714C80.7034 29.6028 80.6819 29.7532 80.6778 29.9224C80.6778 30.2649 80.7557 30.5388 80.9119 30.7439C81.0696 30.949 81.286 31.0525 81.5603 31.0545ZM83.5442 32.7781V28.1899H84.166V28.7335H84.2192C84.2589 28.6638 84.313 28.5832 84.382 28.4916C84.4534 28.4 84.5518 28.3203 84.6782 28.2526C84.8046 28.1829 84.9693 28.1481 85.1727 28.1481C85.439 28.1481 85.676 28.2157 85.8831 28.3512C86.0926 28.4866 86.2572 28.6828 86.378 28.9397C86.4984 29.1965 86.5586 29.5062 86.5586 29.8686C86.5586 30.2271 86.4993 30.5357 86.3808 30.7947C86.2624 31.0516 86.0986 31.2497 85.8892 31.3891C85.6821 31.5265 85.4442 31.5952 85.1755 31.5952C84.9763 31.5952 84.8126 31.5613 84.6843 31.4936C84.5579 31.4239 84.458 31.3433 84.3853 31.2517C84.3139 31.1601 84.2589 31.0794 84.2192 31.0097H84.1838V32.7781H83.5442ZM85.0365 31.0426C85.2282 31.0426 85.3877 30.9908 85.516 30.8873C85.6443 30.7837 85.7413 30.6433 85.8061 30.4661C85.8733 30.2869 85.9069 30.0857 85.9069 29.8627C85.9069 29.6416 85.8743 29.4435 85.8094 29.2682C85.7441 29.093 85.6475 28.9546 85.5193 28.853C85.391 28.7515 85.23 28.7007 85.0365 28.7007C84.8489 28.7007 84.6913 28.7494 84.5625 28.847C84.4343 28.9426 84.3368 29.0781 84.2696 29.2533C84.2043 29.4265 84.1721 29.6297 84.1721 29.8627C84.1721 30.0957 84.2052 30.3008 84.2724 30.478C84.3396 30.6553 84.4375 30.7937 84.5658 30.8932C84.6959 30.9928 84.8531 31.0426 85.0365 31.0426ZM88.9982 31.5295V28.7455H88.202C88.0144 28.7475 87.8684 28.7923 87.7635 28.8799C87.659 28.9675 87.6077 29.083 87.6095 29.2264C87.6077 29.3678 87.6552 29.4823 87.7518 29.5699C87.8484 29.6556 87.9846 29.6984 88.1604 29.6984H89.182V30.2241H88.1604C87.9155 30.2241 87.7042 30.1833 87.5265 30.1016C87.3511 30.02 87.2149 29.9035 87.1179 29.7521C87.0232 29.6008 86.977 29.4226 86.9789 29.2174C86.977 29.0084 87.0255 28.8271 87.1239 28.6738C87.2228 28.5205 87.3637 28.402 87.5475 28.3183C87.7308 28.2327 87.9491 28.1899 88.202 28.1899H89.6023V31.5295H88.9982ZM86.8249 31.5295L87.7579 29.8418H88.4179L87.4822 31.5295H86.8249Z" fill="#303030"/>
<path d="M147.841 31.5296V31.0457L149.333 29.4805C149.492 29.3132 149.622 29.1658 149.724 29.0384C149.829 28.9089 149.907 28.7864 149.958 28.6709C150.012 28.5555 150.038 28.433 150.038 28.3035C150.038 28.1541 150.004 28.0257 149.935 27.9182C149.865 27.8107 149.771 27.728 149.653 27.6702C149.535 27.6125 149.401 27.5836 149.25 27.5836C149.093 27.5836 148.956 27.6165 148.839 27.6822C148.722 27.7459 148.632 27.8375 148.567 27.957C148.504 28.0745 148.472 28.2129 148.472 28.3722H147.838C147.838 28.1014 147.899 27.8644 148.022 27.6613C148.146 27.4581 148.316 27.3008 148.531 27.1893C148.748 27.0758 148.993 27.019 149.265 27.019C149.544 27.019 149.788 27.0748 150 27.1863C150.211 27.2979 150.375 27.4492 150.494 27.6404C150.612 27.8296 150.672 28.0437 150.672 28.2826C150.672 28.4479 150.641 28.6092 150.58 28.7665C150.521 28.9238 150.415 29.1001 150.263 29.2953C150.113 29.4884 149.904 29.7214 149.635 29.9942L148.759 30.9203V30.9561H150.743V31.5296H147.841ZM154.112 31.5894C153.842 31.5894 153.599 31.5376 153.384 31.4341C153.171 31.3285 153 31.1841 152.872 31.0009C152.743 30.8157 152.675 30.6056 152.667 30.3706H153.313C153.329 30.5598 153.413 30.7161 153.565 30.8396C153.717 30.9631 153.899 31.0248 154.112 31.0248C154.282 31.0248 154.432 30.985 154.563 30.9053C154.693 30.8257 154.795 30.7171 154.87 30.5797C154.946 30.4403 154.983 30.281 154.983 30.1018C154.983 29.9226 154.945 29.7622 154.868 29.6208C154.791 29.4775 154.684 29.365 154.548 29.2833C154.413 29.2017 154.258 29.1608 154.083 29.1608C153.949 29.1608 153.814 29.1847 153.68 29.2325C153.546 29.2783 153.437 29.3381 153.354 29.4117L152.741 29.3221L152.99 27.0788H155.415V27.6553H153.547L153.408 28.901H153.431C153.516 28.8153 153.63 28.7456 153.772 28.6918C153.916 28.6361 154.071 28.6082 154.237 28.6082C154.505 28.6082 154.744 28.6729 154.953 28.8024C155.165 28.9298 155.33 29.1051 155.451 29.3281C155.571 29.5492 155.631 29.8031 155.631 30.0898C155.631 30.3786 155.566 30.6365 155.436 30.8635C155.306 31.0885 155.126 31.2658 154.897 31.3952C154.67 31.5246 154.409 31.5894 154.112 31.5894ZM157.601 31.5894C157.33 31.5894 157.087 31.5376 156.872 31.4341C156.659 31.3285 156.488 31.1841 156.36 31.0009C156.232 30.8157 156.163 30.6056 156.156 30.3706H156.801C156.817 30.5598 156.901 30.7161 157.053 30.8396C157.205 30.9631 157.388 31.0248 157.601 31.0248C157.77 31.0248 157.92 30.985 158.05 30.9053C158.181 30.8257 158.284 30.7171 158.359 30.5797C158.433 30.4403 158.471 30.281 158.471 30.1018C158.471 29.9226 158.432 29.7622 158.355 29.6208C158.278 29.4775 158.172 29.365 158.036 29.2833C157.902 29.2017 157.747 29.1608 157.571 29.1608C157.436 29.1608 157.303 29.1847 157.168 29.2325C157.034 29.2783 156.925 29.3381 156.843 29.4117L156.23 29.3221L156.478 27.0788H158.904V27.6553H157.035L156.896 28.901H156.92C157.005 28.8153 157.118 28.7456 157.26 28.6918C157.404 28.6361 157.559 28.6082 157.725 28.6082C157.993 28.6082 158.232 28.6729 158.441 28.8024C158.653 28.9298 158.819 29.1051 158.939 29.3281C159.059 29.5492 159.12 29.8031 159.12 30.0898C159.12 30.3786 159.054 30.6365 158.924 30.8635C158.794 31.0885 158.614 31.2658 158.385 31.3952C158.158 31.5246 157.896 31.5894 157.601 31.5894ZM161.165 31.5894C160.826 31.5894 160.535 31.4997 160.292 31.3205C160.051 31.1413 159.867 30.8824 159.739 30.5439C159.612 30.2033 159.549 29.7911 159.549 29.3072C159.549 28.8253 159.613 28.4141 159.741 28.0735C159.87 27.731 160.054 27.4701 160.295 27.2909C160.538 27.1097 160.828 27.019 161.165 27.019C161.505 27.019 161.795 27.1097 162.036 27.2909C162.279 27.4701 162.464 27.731 162.59 28.0735C162.718 28.4141 162.782 28.8253 162.782 29.3072C162.782 29.7911 162.719 30.2033 162.593 30.5439C162.466 30.8824 162.283 31.1413 162.042 31.3205C161.801 31.4997 161.509 31.5894 161.165 31.5894ZM161.165 31.0158C161.373 31.0158 161.548 30.9491 161.69 30.8157C161.832 30.6823 161.94 30.4881 162.015 30.2332C162.09 29.9763 162.128 29.6677 162.128 29.3072C162.128 28.9448 162.09 28.6361 162.015 28.3812C161.94 28.1243 161.832 27.9292 161.69 27.7957C161.548 27.6603 161.373 27.5926 161.165 27.5926C160.859 27.5926 160.622 27.7429 160.455 28.0437C160.289 28.3424 160.206 28.7636 160.206 29.3072C160.206 29.6677 160.244 29.9763 160.319 30.2332C160.394 30.4881 160.502 30.6823 160.644 30.8157C160.789 30.9491 160.962 31.0158 161.165 31.0158ZM166.744 29.7852H164.467V29.2176H166.732C166.93 29.2156 167.092 29.1828 167.218 29.119C167.344 29.0533 167.438 28.9627 167.499 28.8472C167.562 28.7297 167.594 28.5943 167.594 28.4409C167.594 28.2916 167.563 28.1581 167.502 28.0406C167.441 27.9212 167.347 27.8266 167.221 27.7569C167.094 27.6872 166.936 27.6523 166.744 27.6523H165.805V31.5296H165.142V27.0788H166.744C167.078 27.0788 167.356 27.1405 167.579 27.264C167.804 27.3855 167.973 27.5488 168.086 27.7539C168.2 27.957 168.257 28.185 168.257 28.438C168.257 28.6949 168.2 28.9248 168.086 29.128C167.971 29.3311 167.801 29.4914 167.576 29.6089C167.353 29.7264 167.076 29.7852 166.744 29.7852ZM166.774 30.1615V30.7291H164.467V30.1615H166.774Z" fill="#303030"/>
<path d="M38.4797 37.4313V41.8822H37.8135V37.4313H38.4797ZM40.6235 41.8822H39.5338V41.2937H40.585C40.9206 41.2937 41.1999 41.231 41.4229 41.1055C41.646 40.9781 41.8128 40.7919 41.9234 40.5469C42.0339 40.3 42.0892 40.0013 42.0892 39.6508C42.0892 39.3023 42.0339 39.0065 41.9234 38.7636C41.8148 38.5207 41.6519 38.3364 41.4348 38.211C41.2177 38.0835 40.9482 38.0198 40.6264 38.0198H39.5101V37.4313H40.6679C41.1002 37.4313 41.4713 37.52 41.7812 37.6972C42.0912 37.8745 42.329 38.1293 42.4949 38.4619C42.6606 38.7925 42.7436 39.1888 42.7436 39.6508C42.7436 40.1148 42.6597 40.5131 42.4919 40.8457C42.326 41.1782 42.0852 41.4341 41.7694 41.6133C41.4535 41.7926 41.0716 41.8822 40.6235 41.8822ZM39.8595 37.4313V41.8822H39.1933V37.4313H39.8595ZM44.8489 37.4313V41.8822H44.1915V38.1065H44.1619L43.1137 38.8025V38.1572L44.2093 37.4313H44.8489ZM45.5002 41.8822V41.3983L46.9926 39.833C47.1505 39.6657 47.2808 39.5184 47.3834 39.3909C47.4881 39.2615 47.5661 39.139 47.6174 39.0235C47.6707 38.908 47.6973 38.7855 47.6973 38.6561C47.6973 38.5067 47.6628 38.3783 47.5937 38.2707C47.5246 38.1632 47.4308 38.0805 47.3124 38.0228C47.194 37.965 47.0597 37.9361 46.9097 37.9361C46.7518 37.9361 46.6146 37.969 46.4981 38.0347C46.3816 38.0985 46.2909 38.1901 46.2257 38.3096C46.1625 38.4271 46.131 38.5655 46.131 38.7248H45.4973C45.4973 38.4539 45.5585 38.2169 45.6809 38.0138C45.8052 37.8107 45.975 37.6534 46.1902 37.5419C46.4073 37.4283 46.6521 37.3716 46.9245 37.3716C47.2028 37.3716 47.4476 37.4273 47.6588 37.5389C47.8701 37.6504 48.0349 37.8017 48.1533 37.9929C48.2717 38.1821 48.331 38.3962 48.331 38.6352C48.331 38.8004 48.3004 38.9617 48.2392 39.1191C48.18 39.2764 48.0744 39.4526 47.9224 39.6478C47.7723 39.8409 47.5631 40.074 47.2946 40.3468L46.4182 41.2728V41.3086H48.402V41.8822H45.5002ZM49.1127 41.8822L51.0374 38.0407V38.0079H48.8107V37.4313H51.7302V38.0318L49.8085 41.8822H49.1127ZM53.5956 41.9419C53.4002 41.9419 53.2068 41.9071 53.0153 41.8374C52.8238 41.7677 52.6511 41.6521 52.4971 41.4909C52.3432 41.3276 52.2188 41.1085 52.124 40.8337C52.0312 40.5589 51.9849 40.2173 51.9849 39.8091C51.9849 39.4208 52.0233 39.0762 52.1004 38.7755C52.1793 38.4729 52.2908 38.2179 52.4349 38.0108C52.581 37.8017 52.7567 37.6434 52.962 37.5359C53.1673 37.4264 53.3982 37.3716 53.6549 37.3716C53.9174 37.3716 54.1504 37.4244 54.3537 37.5299C54.557 37.6335 54.7218 37.7769 54.8482 37.9601C54.9765 38.1433 55.0564 38.3524 55.088 38.5873H54.4366C54.3912 38.4022 54.3023 38.2518 54.1701 38.1363C54.0378 38.0188 53.8661 37.9601 53.6549 37.9601C53.3311 37.9601 53.0785 38.1025 52.8969 38.3872C52.7172 38.67 52.6274 39.0643 52.6274 39.5701H52.66C52.7369 39.4447 52.8307 39.3371 52.9413 39.2475C53.0518 39.1559 53.1752 39.0862 53.3114 39.0384C53.4496 38.9906 53.5966 38.9667 53.7526 38.9667C54.0072 38.9667 54.2382 39.0295 54.4454 39.1549C54.6547 39.2804 54.8205 39.4537 54.9429 39.6747C55.0673 39.8937 55.1294 40.1457 55.1294 40.4304C55.1294 40.7132 55.0653 40.9691 54.937 41.1981C54.8107 41.4271 54.632 41.6083 54.401 41.7418C54.1721 41.8752 53.9036 41.9419 53.5956 41.9419ZM53.5927 41.3773C53.7624 41.3773 53.9134 41.3355 54.0457 41.2519C54.1799 41.1682 54.2865 41.0557 54.3655 40.9144C54.4445 40.771 54.4839 40.6116 54.4839 40.4364C54.4839 40.2651 54.4455 40.1098 54.3685 39.9704C54.2935 39.831 54.1898 39.7205 54.0576 39.6388C53.9273 39.5552 53.7772 39.5134 53.6075 39.5134C53.4397 39.5134 53.2877 39.5562 53.1515 39.6418C53.0153 39.7274 52.9067 39.8409 52.8258 39.9824C52.7468 40.1237 52.7073 40.2771 52.7073 40.4424C52.7073 40.6077 52.7458 40.762 52.8228 40.9054C52.8998 41.0488 53.0044 41.1632 53.1367 41.2489C53.2709 41.3345 53.4229 41.3773 53.5927 41.3773ZM57.0956 41.9419C56.8251 41.9419 56.5823 41.8901 56.3671 41.7866C56.154 41.681 55.9832 41.5367 55.8549 41.3535C55.7266 41.1682 55.6585 40.9582 55.6506 40.7232H56.2961C56.3119 40.9123 56.3958 41.0687 56.5477 41.1921C56.6998 41.3156 56.8823 41.3773 57.0956 41.3773C57.2653 41.3773 57.4153 41.3375 57.5456 41.2578C57.6759 41.1782 57.7785 41.0697 57.8536 40.9322C57.9286 40.7929 57.9661 40.6336 57.9661 40.4543C57.9661 40.2751 57.9276 40.1148 57.8506 39.9734C57.7736 39.83 57.667 39.7175 57.5308 39.6359C57.3966 39.5542 57.2416 39.5134 57.066 39.5134C56.9317 39.5134 56.7975 39.5373 56.6632 39.5851C56.529 39.6309 56.4204 39.6906 56.3376 39.7643L55.7246 39.6747L55.9733 37.4313H58.3984V38.0079H56.53L56.3908 39.2535H56.4145C56.4994 39.1679 56.6129 39.0982 56.755 39.0444C56.8991 38.9886 57.0541 38.9608 57.2199 38.9608C57.4884 38.9608 57.7272 39.0255 57.9365 39.1549C58.1477 39.2824 58.3135 39.4576 58.4339 39.6807C58.5543 39.9017 58.6145 40.1556 58.6145 40.4424C58.6145 40.7311 58.5494 40.989 58.4191 41.2161C58.2889 41.4411 58.1092 41.6183 57.8802 41.7478C57.6532 41.8772 57.3916 41.9419 57.0956 41.9419ZM60.6606 41.9419C60.3211 41.9419 60.0299 41.8523 59.7871 41.6731C59.5463 41.4938 59.3617 41.235 59.2334 40.8964C59.107 40.5559 59.0439 40.1437 59.0439 39.6597C59.0439 39.1778 59.108 38.7666 59.2364 38.4261C59.3647 38.0835 59.5492 37.8226 59.7901 37.6434C60.0329 37.4622 60.323 37.3716 60.6606 37.3716C61.0001 37.3716 61.2903 37.4622 61.5311 37.6434C61.774 37.8226 61.9585 38.0835 62.0849 38.4261C62.2131 38.7666 62.2773 39.1778 62.2773 39.6597C62.2773 40.1437 62.2141 40.5559 62.0878 40.8964C61.9615 41.235 61.7779 41.4938 61.537 41.6731C61.2962 41.8523 61.0041 41.9419 60.6606 41.9419ZM60.6606 41.3684C60.8679 41.3684 61.0426 41.3017 61.1847 41.1682C61.3268 41.0348 61.4354 40.8407 61.5104 40.5857C61.5854 40.3289 61.6229 40.0202 61.6229 39.6597C61.6229 39.2973 61.5854 38.9886 61.5104 38.7337C61.4354 38.4769 61.3268 38.2817 61.1847 38.1482C61.0426 38.0129 60.8679 37.9451 60.6606 37.9451C60.3546 37.9451 60.1178 38.0955 59.95 38.3962C59.7841 38.6949 59.7012 39.1161 59.7012 39.6597C59.7012 40.0202 59.7387 40.3289 59.8138 40.5857C59.8888 40.8407 59.9974 41.0348 60.1394 41.1682C60.2836 41.3017 60.4573 41.3684 60.6606 41.3684Z" fill="#BDBDBD"/>
<path d="M114.426 47.5293H46.7875C41.6349 47.5293 37.458 51.7431 37.458 56.9411C37.458 62.139 41.6349 66.3528 46.7875 66.3528H114.426C119.578 66.3528 123.755 62.139 123.755 56.9411C123.755 51.7431 119.578 47.5293 114.426 47.5293Z" fill="#6F00FF"/>
<path d="M68.5509 54.8433V59.2941H67.8876V55.417H65.8118V59.2941H65.1484V54.8433H68.5509ZM70.6533 59.3628C70.3431 59.3628 70.0716 59.2913 69.8388 59.1478C69.6079 59.0043 69.4283 58.8033 69.3 58.5445C69.1736 58.2857 69.1102 57.985 69.1102 57.6424C69.1102 57.2956 69.1736 56.993 69.3 56.7341C69.4283 56.4734 69.6079 56.2711 69.8388 56.1276C70.0716 55.9845 70.3431 55.9125 70.6533 55.9125C70.9649 55.9125 71.2364 55.9845 71.4673 56.1276C71.6982 56.2711 71.8778 56.4734 72.006 56.7341C72.1348 56.993 72.1987 57.2956 72.1987 57.6424C72.1987 57.985 72.1348 58.2857 72.006 58.5445C71.8778 58.8033 71.6982 59.0043 71.4673 59.1478C71.2364 59.2913 70.9649 59.3628 70.6533 59.3628ZM70.6533 58.816C70.8562 58.816 71.0241 58.7624 71.1566 58.6551C71.2886 58.5473 71.3866 58.4052 71.4495 58.2278C71.5149 58.0485 71.5475 57.8532 71.5475 57.6424C71.5475 57.4273 71.5149 57.2301 71.4495 57.0508C71.3866 56.8716 71.2886 56.728 71.1566 56.6207C71.0241 56.513 70.8562 56.4593 70.6533 56.4593C70.4518 56.4593 70.2848 56.513 70.1528 56.6207C70.0226 56.728 69.9246 56.8716 69.8593 57.0508C69.7945 57.2301 69.7618 57.4273 69.7618 57.6424C69.7618 57.8532 69.7945 58.0485 69.8593 58.2278C69.9246 58.4052 70.0226 58.5473 70.1528 58.6551C70.2848 58.7624 70.4518 58.816 70.6533 58.816ZM72.3377 60.256V58.7327H72.6045C72.6736 58.6687 72.7328 58.593 72.7823 58.5054C72.8312 58.416 72.8718 58.3106 72.9035 58.1887C72.9371 58.0654 72.9656 57.9228 72.9894 57.7619C73.0132 57.6005 73.0337 57.4141 73.0514 57.2033L73.155 55.9544H75.4024V58.7327H75.9118V60.256H75.2811V59.2941H72.9772V60.256H72.3377ZM73.2972 58.7327H74.775V56.5101H73.7297L73.6583 57.2033C73.6289 57.5558 73.5883 57.8603 73.537 58.1172C73.4876 58.3723 73.4078 58.5774 73.2972 58.7327ZM76.2878 60.5426V55.9544H76.9096V56.4984H76.9628C77.0024 56.4283 77.0565 56.3478 77.126 56.256C77.1969 56.1647 77.2954 56.0852 77.4218 56.0174C77.5482 55.9478 77.7133 55.9125 77.9162 55.9125C78.1831 55.9125 78.4196 55.9803 78.6272 56.1158C78.8361 56.2513 79.0013 56.4476 79.1216 56.7045C79.242 56.961 79.3021 57.2711 79.3021 57.6334C79.3021 57.9916 79.2429 58.3003 79.1244 58.5591C79.0059 58.816 78.8422 59.0141 78.6332 59.1539C78.4256 59.2913 78.1877 59.36 77.9195 59.36C77.7199 59.36 77.5561 59.3261 77.4279 59.2584C77.3014 59.1887 77.2016 59.1078 77.1288 59.0165C77.0579 58.9247 77.0024 58.8443 76.9628 58.7746H76.9273V60.5426H76.2878ZM77.78 58.8071C77.9718 58.8071 78.1318 58.7553 78.26 58.6518C78.3883 58.5483 78.4849 58.408 78.5502 58.2306C78.6174 58.0513 78.6509 57.8504 78.6509 57.6273C78.6509 57.4061 78.6183 57.208 78.553 57.033C78.4877 56.8574 78.3911 56.7191 78.2628 56.6174C78.1346 56.5163 77.9736 56.4654 77.78 56.4654C77.5925 56.4654 77.4349 56.5139 77.3066 56.6118C77.1783 56.7073 77.0803 56.8428 77.0132 57.0179C76.9483 57.1911 76.9157 57.3944 76.9157 57.6273C76.9157 57.8603 76.9493 58.0654 77.0164 58.2428C77.0836 58.4198 77.1811 58.5581 77.3094 58.6579C77.4395 58.7577 77.5967 58.8071 77.78 58.8071ZM81.1587 59.3628C80.849 59.3628 80.5775 59.2913 80.3442 59.1478C80.1133 59.0043 79.9337 58.8033 79.8055 58.5445C79.679 58.2857 79.6161 57.985 79.6161 57.6424C79.6161 57.2956 79.679 56.993 79.8055 56.7341C79.9337 56.4734 80.1133 56.2711 80.3442 56.1276C80.5775 55.9845 80.849 55.9125 81.1587 55.9125C81.4708 55.9125 81.7423 55.9845 81.9732 56.1276C82.2041 56.2711 82.3837 56.4734 82.5119 56.7341C82.6402 56.993 82.7046 57.2956 82.7046 57.6424C82.7046 57.985 82.6402 58.2857 82.5119 58.5445C82.3837 58.8033 82.2041 59.0043 81.9732 59.1478C81.7423 59.2913 81.4708 59.3628 81.1587 59.3628ZM81.1587 58.816C81.3621 58.816 81.53 58.7624 81.662 58.6551C81.7945 58.5473 81.892 58.4052 81.9554 58.2278C82.0203 58.0485 82.0529 57.8532 82.0529 57.6424C82.0529 57.4273 82.0203 57.2301 81.9554 57.0508C81.892 56.8716 81.7945 56.728 81.662 56.6207C81.53 56.513 81.3621 56.4593 81.1587 56.4593C80.9572 56.4593 80.7907 56.513 80.6582 56.6207C80.528 56.728 80.4305 56.8716 80.3652 57.0508C80.2999 57.2301 80.2673 57.4273 80.2673 57.6424C80.2673 57.8532 80.2999 58.0485 80.3652 58.2278C80.4305 58.4052 80.528 58.5473 80.6582 58.6551C80.7907 58.7624 80.9572 58.816 81.1587 58.816ZM85.7157 54.7148L85.982 55.1243C85.8855 55.2156 85.774 55.2805 85.6476 55.3181C85.5211 55.3563 85.3761 55.3798 85.2123 55.3901C85.0486 55.4 84.8611 55.409 84.6498 55.417C84.4109 55.4226 84.2146 55.4744 84.0606 55.5723C83.9086 55.6678 83.791 55.809 83.708 55.9963C83.6254 56.1835 83.5718 56.4193 83.5484 56.7045H83.5895C83.6944 56.497 83.8423 56.3431 84.034 56.2414C84.2272 56.1379 84.4445 56.0861 84.6852 56.0861C84.9516 56.0861 85.1886 56.1478 85.3961 56.2711C85.6032 56.3925 85.767 56.5718 85.8873 56.809C86.0077 57.0457 86.0669 57.3346 86.0651 57.6753C86.0669 58.0217 86.0058 58.3214 85.8817 58.5741C85.7572 58.8273 85.5804 59.0212 85.3514 59.1567C85.1246 59.2923 84.8569 59.361 84.549 59.3628C84.0853 59.361 83.714 59.2014 83.4355 58.8847C83.1575 58.5661 83.0171 58.1003 83.0153 57.4871V57.1614C83.0171 56.3967 83.1533 55.8221 83.4239 55.4377C83.6944 55.0534 84.0979 54.8553 84.6348 54.8433C84.8088 54.8393 84.9637 54.8383 85.0999 54.8403C85.2361 54.8423 85.3555 54.8363 85.4582 54.8224C85.5608 54.8065 85.6466 54.7706 85.7157 54.7148ZM84.549 58.8193C84.7305 58.817 84.8858 58.7704 85.0141 58.6786C85.1424 58.5873 85.2417 58.457 85.3131 58.2876C85.384 58.1181 85.4185 57.9181 85.4167 57.6871C85.4185 57.4621 85.384 57.2711 85.3131 57.1134C85.2417 56.9544 85.1414 56.833 85.0108 56.7492C84.8807 56.6654 84.7239 56.6235 84.5402 56.6235C84.4058 56.6235 84.2855 56.6475 84.1791 56.6955C84.0723 56.7431 83.9813 56.8127 83.9067 56.9045C83.8316 56.9939 83.7733 57.1045 83.7318 57.2358C83.6926 57.3676 83.6707 57.5177 83.6669 57.6871C83.6669 58.0297 83.7448 58.3036 83.9006 58.5087C84.0588 58.7134 84.2747 58.817 84.549 58.8193ZM88.7715 57.3436V57.905H86.9803V57.3436H88.7715ZM87.1575 55.9544V59.2941H86.5329V55.9544H87.1575ZM89.2217 55.9544V59.2941H88.5938V55.9544H89.2217ZM91.2616 59.3628C90.9378 59.3628 90.6575 59.2923 90.421 59.1506C90.184 59.0094 90.0011 58.8104 89.8729 58.5534C89.7465 58.2946 89.6835 57.993 89.6835 57.648C89.6835 57.3059 89.7455 57.0038 89.8701 56.7431C89.9965 56.4824 90.1728 56.2791 90.4 56.1337C90.629 55.9864 90.8972 55.9125 91.2056 55.9125C91.3931 55.9125 91.5746 55.9436 91.7504 56.0052C91.9258 56.0668 92.0839 56.1647 92.2239 56.2979C92.3643 56.4316 92.4749 56.6047 92.5556 56.8179C92.6386 57.0311 92.6801 57.2876 92.6801 57.5883V57.8217H90.0478V57.3346H92.3484L92.0494 57.496C92.0494 57.2908 92.0177 57.1097 91.9547 56.952C91.8913 56.7948 91.7966 56.6725 91.6702 56.585C91.5461 56.4951 91.3908 56.4504 91.2056 56.4504C91.0199 56.4504 90.8609 56.4951 90.7288 56.585C90.5982 56.6744 90.4989 56.793 90.4298 56.9403C90.3603 57.0876 90.3258 57.249 90.3258 57.424V57.7558C90.3258 57.985 90.3655 58.1788 90.4443 58.3384C90.5236 58.4974 90.6328 58.6188 90.7732 58.7026C90.9154 58.7864 91.0801 58.8283 91.2676 58.8283C91.3898 58.8283 91.5004 58.8104 91.5993 58.7746C91.7 58.7384 91.7868 58.6847 91.8596 58.6132C91.9328 58.5412 91.9883 58.4527 92.0256 58.3473L92.6358 58.4636C92.5863 58.6428 92.4996 58.8005 92.375 58.9356C92.2505 59.0711 92.0937 59.1765 91.9044 59.2523C91.7168 59.3261 91.5027 59.3628 91.2616 59.3628ZM94.5544 59.3628C94.2306 59.3628 93.9503 59.2923 93.7133 59.1506C93.4764 59.0094 93.294 58.8104 93.1657 58.5534C93.0393 58.2946 92.9763 57.993 92.9763 57.648C92.9763 57.3059 93.0383 57.0038 93.1624 56.7431C93.2888 56.4824 93.4656 56.2791 93.6928 56.1337C93.9218 55.9864 94.1901 55.9125 94.4979 55.9125C94.6855 55.9125 94.8674 55.9436 95.0428 56.0052C95.2186 56.0668 95.3763 56.1647 95.5167 56.2979C95.6567 56.4316 95.7672 56.6047 95.8484 56.8179C95.9314 57.0311 95.9725 57.2876 95.9725 57.5883V57.8217H93.3402V57.3346H95.6408L95.3418 57.496C95.3418 57.2908 95.3105 57.1097 95.2471 56.952C95.1841 56.7948 95.0894 56.6725 94.963 56.585C94.8385 56.4951 94.6836 56.4504 94.4979 56.4504C94.3123 56.4504 94.1537 56.4951 94.0212 56.585C93.8911 56.6744 93.7912 56.793 93.7222 56.9403C93.6532 57.0876 93.6186 57.249 93.6186 57.424V57.7558C93.6186 57.985 93.6583 58.1788 93.7371 58.3384C93.816 58.4974 93.9256 58.6188 94.0655 58.7026C94.2078 58.7864 94.3729 58.8283 94.5604 58.8283C94.6827 58.8283 94.7932 58.8104 94.8916 58.7746C94.9924 58.7384 95.0796 58.6847 95.1524 58.6132C95.2256 58.5412 95.2807 58.4527 95.3185 58.3473L95.9281 58.4636C95.8787 58.6428 95.7919 58.8005 95.6679 58.9356C95.5433 59.0711 95.3866 59.1765 95.1967 59.2523C95.0092 59.3261 94.7951 59.3628 94.5544 59.3628Z" fill="white"/>
<path d="M145.912 56.9411C145.912 51.8731 141.84 47.7646 136.816 47.7646C131.792 47.7646 127.72 51.8731 127.72 56.9411C127.72 62.0091 131.792 66.1176 136.816 66.1176C141.84 66.1176 145.912 62.0091 145.912 56.9411Z" stroke="#E0E0E0"/>
<mask id="mask0_5413_2943" style="mask-type:luminance" maskUnits="userSpaceOnUse" x="132" y="52" width="10" height="10">
<path d="M141.015 52.7061H132.618V61.1766H141.015V52.7061Z" fill="white"/>
</mask>
<g mask="url(#mask0_5413_2943)">
<path d="M136.641 54.4709H136.793C137.859 54.4709 138.392 54.4709 138.595 54.6641C138.77 54.8311 138.847 55.077 138.8 55.3152C138.745 55.5909 138.31 55.9015 137.44 56.5222L136.017 57.5373C135.147 58.158 134.712 58.4686 134.657 58.7443C134.61 58.9825 134.687 59.2286 134.862 59.3956C135.065 59.5886 135.598 59.5886 136.664 59.5886H136.991M135.417 54.4709C135.417 55.0557 134.947 55.5298 134.367 55.5298C133.787 55.5298 133.317 55.0557 133.317 54.4709C133.317 53.8862 133.787 53.4121 134.367 53.4121C134.947 53.4121 135.417 53.8862 135.417 54.4709ZM140.314 59.4121C140.314 59.997 139.845 60.4709 139.265 60.4709C138.685 60.4709 138.215 59.997 138.215 59.4121C138.215 58.8272 138.685 58.3533 139.265 58.3533C139.845 58.3533 140.314 58.8272 140.314 59.4121Z" stroke="#303030" stroke-linecap="round" stroke-linejoin="round"/>
</g>
<path d="M168.537 56.9411C168.537 51.7431 164.36 47.5293 159.207 47.5293C154.055 47.5293 149.878 51.7431 149.878 56.9411C149.878 62.139 154.055 66.3528 159.207 66.3528C164.36 66.3528 168.537 62.139 168.537 56.9411Z" fill="#F04438"/>
<path d="M160.956 55.1765L157.458 58.7059M157.458 55.1765L160.956 58.7059" stroke="white" stroke-linecap="round" stroke-linejoin="round"/>
</g>
<defs>
<filter id="filter0_d_5413_2943" x="0" y="0" width="192" height="96" filterUnits="userSpaceOnUse" color-interpolation-filters="sRGB">
<feFlood flood-opacity="0" result="BackgroundImageFix"/>
<feColorMatrix in="SourceAlpha" type="matrix" values="0 0 0 0 0 0 0 0 0 0 0 0 0 0 0 0 0 0 127 0" result="hardAlpha"/>
<feOffset dy="8"/>
<feGaussianBlur stdDeviation="8"/>
<feComposite in2="hardAlpha" operator="out"/>
<feColorMatrix type="matrix" values="0 0 0 0 0.188235 0 0 0 0 0.188235 0 0 0 0 0.188235 0 0 0 0.08 0"/>
<feBlend mode="normal" in2="BackgroundImageFix" result="effect1_dropShadow_5413_2943"/>
<feBlend mode="normal" in="SourceGraphic" in2="effect1_dropShadow_5413_2943" result="shape"/>
</filter>
<clipPath id="clip0_5413_2943">
<rect width="160" height="64" fill="white" transform="translate(16 8)"/>
</clipPath>
</defs>
</svg>
