<svg width="175" height="112" viewBox="0 0 175 112" fill="none" xmlns="http://www.w3.org/2000/svg">
<g clip-path="url(#clip0_5403_3149)" filter="url(#filter0_d_5403_3149)">
<path d="M156.456 8.33643H22.3579C18.9031 8.33643 16.1025 11.147 16.1025 14.6139V83.6666C16.1025 87.1335 18.9031 89.9441 22.3579 89.9441H156.456C159.911 89.9441 162.712 87.1335 162.712 83.6666V14.6139C162.712 11.147 159.911 8.33643 156.456 8.33643Z" fill="#F8F8F8"/>
<path d="M151.764 67.9727H27.0489C24.4579 67.9727 22.3574 70.0806 22.3574 72.6808V78.9583C22.3574 81.5585 24.4579 83.6664 27.0489 83.6664H151.764C154.355 83.6664 156.456 81.5585 156.456 78.9583V72.6808C156.456 70.0806 154.355 67.9727 151.764 67.9727Z" fill="white"/>
<path d="M83.7386 69.9346H29.7865C28.2751 69.9346 27.0498 71.1642 27.0498 72.681V78.9585C27.0498 80.4753 28.2751 81.7049 29.7865 81.7049H83.7386C85.2501 81.7049 86.4753 80.4753 86.4753 78.9585V72.681C86.4753 71.1642 85.2501 69.9346 83.7386 69.9346Z" fill="#F6EFFF"/>
<path d="M49.9813 74.0703V77.7811H49.4254V74.5486H47.6858V77.7811H47.1299V74.0703H49.9813ZM51.7433 77.8384C51.4835 77.8384 51.256 77.7788 51.0608 77.6591C50.8673 77.5394 50.7167 77.3719 50.6092 77.1561C50.5033 76.9403 50.4504 76.6896 50.4504 76.404C50.4504 76.1148 50.5033 75.8625 50.6092 75.6468C50.7167 75.4294 50.8673 75.2607 51.0608 75.141C51.256 75.0217 51.4835 74.9617 51.7433 74.9617C52.0047 74.9617 52.2322 75.0217 52.4258 75.141C52.6193 75.2607 52.7699 75.4294 52.8774 75.6468C52.9849 75.8625 53.0387 76.1148 53.0387 76.404C53.0387 76.6896 52.9849 76.9403 52.8774 77.1561C52.7699 77.3719 52.6193 77.5394 52.4258 77.6591C52.2322 77.7788 52.0047 77.8384 51.7433 77.8384ZM51.7433 77.3825C51.9137 77.3825 52.0543 77.3378 52.1652 77.2483C52.276 77.1585 52.3579 77.0396 52.4109 76.8921C52.4654 76.7426 52.4928 76.5797 52.4928 76.404C52.4928 76.2247 52.4654 76.0603 52.4109 75.9108C52.3579 75.7613 52.276 75.6416 52.1652 75.5522C52.0543 75.4623 51.9137 75.4176 51.7433 75.4176C51.5745 75.4176 51.4348 75.4623 51.3239 75.5522C51.2147 75.6416 51.1328 75.7613 51.0782 75.9108C51.0236 76.0603 50.9963 76.2247 50.9963 76.404C50.9963 76.5797 51.0236 76.7426 51.0782 76.8921C51.1328 77.0396 51.2147 77.1585 51.3239 77.2483C51.4348 77.3378 51.5745 77.3825 51.7433 77.3825ZM54.287 78.5831V77.313H54.5103C54.5682 77.2597 54.6179 77.1965 54.6593 77.1235C54.7006 77.049 54.7345 76.9607 54.761 76.8595C54.7891 76.7567 54.8131 76.6378 54.833 76.5036C54.8528 76.3691 54.8702 76.2137 54.8851 76.0379L54.9719 74.9966H56.8555V77.313H57.2825V78.5831H56.7539V77.7811H54.823V78.5831H54.287ZM55.0911 77.313H56.3293V75.46H55.4536L55.3937 76.0379C55.3691 76.3318 55.3351 76.5856 55.2921 76.7999C55.2507 77.0125 55.1838 77.1832 55.0911 77.313ZM59.4738 76.1548V76.6229H57.9721V76.1548H59.4738ZM58.1211 74.9966V77.7811H57.5976V74.9966H58.1211ZM59.8511 74.9966V77.7811H59.3248V74.9966H59.8511ZM62.0197 77.7811V75.46H61.3523C61.1952 75.4616 61.0728 75.4988 60.9848 75.5722C60.8973 75.6452 60.8542 75.7413 60.8558 75.861C60.8542 75.9787 60.8941 76.0744 60.9751 76.1474C61.056 76.2188 61.1701 76.2545 61.3175 76.2545H62.1737V76.6927H61.3175C61.1123 76.6927 60.9356 76.6586 60.7866 76.5907C60.6392 76.5225 60.5251 76.4256 60.4441 76.2992C60.3648 76.1729 60.3257 76.0246 60.3272 75.8535C60.3257 75.6793 60.3663 75.5279 60.4488 75.4004C60.5317 75.2725 60.6502 75.1736 60.8038 75.1037C60.9578 75.0323 61.1404 74.9966 61.3523 74.9966H62.526V77.7811H62.0197ZM60.1982 77.7811L60.9801 76.3742H61.5333L60.7491 77.7811H60.1982ZM64.5957 77.111L65.4918 74.9966H65.9559L64.7967 77.7811H64.3948L63.2582 74.9966H63.7172L64.5957 77.111ZM63.5659 74.9966V77.7811H63.0424V74.9966H63.5659ZM65.638 77.7811V74.9966H66.1591V77.7811H65.638Z" fill="#6F00FF"/>
<path d="M114.099 74.0703V77.7811H113.543V74.5486H111.803V77.7811H111.247V74.0703H114.099ZM115.861 77.8384C115.601 77.8384 115.374 77.7788 115.178 77.6591C114.985 77.5394 114.834 77.3719 114.727 77.1561C114.621 76.9403 114.568 76.6896 114.568 76.404C114.568 76.1148 114.621 75.8625 114.727 75.6468C114.834 75.4294 114.985 75.2607 115.178 75.141C115.374 75.0217 115.601 74.9617 115.861 74.9617C116.122 74.9617 116.349 75.0217 116.543 75.141C116.737 75.2607 116.887 75.4294 116.995 75.6468C117.102 75.8625 117.156 76.1148 117.156 76.404C117.156 76.6896 117.102 76.9403 116.995 77.1561C116.887 77.3719 116.737 77.5394 116.543 77.6591C116.349 77.7788 116.122 77.8384 115.861 77.8384ZM115.861 77.3825C116.031 77.3825 116.172 77.3378 116.283 77.2483C116.393 77.1585 116.475 77.0396 116.528 76.8921C116.583 76.7426 116.61 76.5797 116.61 76.404C116.61 76.2247 116.583 76.0603 116.528 75.9108C116.475 75.7613 116.393 75.6416 116.283 75.5522C116.172 75.4623 116.031 75.4176 115.861 75.4176C115.692 75.4176 115.552 75.4623 115.441 75.5522C115.332 75.6416 115.25 75.7613 115.196 75.9108C115.141 76.0603 115.114 76.2247 115.114 76.404C115.114 76.5797 115.141 76.7426 115.196 76.8921C115.25 77.0396 115.332 77.1585 115.441 77.2483C115.552 77.3378 115.692 77.3825 115.861 77.3825ZM120.901 74.9966V77.7811H120.372V74.9966H120.901ZM120.673 76.2918V76.7598C120.59 76.7916 120.501 76.8206 120.407 76.8473C120.315 76.8736 120.217 76.8944 120.114 76.9093C120.014 76.9227 119.907 76.9293 119.794 76.9293C119.452 76.9293 119.18 76.8454 118.977 76.6778C118.776 76.5083 118.676 76.2502 118.677 75.9033V74.9919H119.198V75.9033C119.2 76.0328 119.225 76.1391 119.273 76.2219C119.321 76.3051 119.389 76.3655 119.476 76.404C119.566 76.442 119.672 76.4613 119.794 76.4613C119.956 76.4628 120.107 76.4479 120.246 76.4161C120.385 76.3848 120.527 76.3432 120.673 76.2918ZM122.221 77.8407C122.046 77.8407 121.887 77.8086 121.745 77.7438C121.602 77.6771 121.49 77.581 121.407 77.4547C121.324 77.3287 121.283 77.1749 121.283 76.9941C121.283 76.8363 121.313 76.7077 121.372 76.608C121.434 76.5068 121.516 76.4263 121.618 76.3663C121.721 76.3067 121.835 76.2619 121.96 76.2321C122.086 76.2023 122.215 76.1788 122.348 76.1623C122.515 76.1439 122.65 76.1282 122.752 76.1148C122.855 76.1015 122.929 76.0811 122.976 76.0528C123.023 76.0226 123.048 75.9755 123.048 75.9108V75.8982C123.048 75.7405 123.003 75.6185 122.914 75.5322C122.826 75.4459 122.695 75.4027 122.522 75.4027C122.341 75.4027 122.198 75.4423 122.092 75.5224C121.988 75.6005 121.916 75.6891 121.876 75.7888L121.367 75.6715C121.429 75.5024 121.517 75.3662 121.633 75.263C121.751 75.1587 121.885 75.0822 122.035 75.0339C122.187 74.986 122.346 74.9617 122.512 74.9617C122.622 74.9617 122.74 74.9751 122.864 75.0017C122.988 75.0265 123.105 75.0739 123.214 75.1438C123.325 75.2116 123.415 75.3097 123.484 75.4376C123.554 75.5655 123.588 75.7307 123.588 75.9332V77.7811H123.06V77.4001H123.04C123.007 77.468 122.955 77.5363 122.884 77.6042C122.814 77.6724 122.725 77.7289 122.616 77.7737C122.507 77.8184 122.375 77.8407 122.221 77.8407ZM122.338 77.4076C122.488 77.4076 122.616 77.3786 122.722 77.3205C122.828 77.2605 122.909 77.1824 122.966 77.0863C123.022 76.9897 123.05 76.8877 123.05 76.7798V76.4189C123.03 76.4369 122.993 76.4546 122.938 76.4711C122.884 76.4875 122.822 76.5017 122.752 76.5134C122.683 76.5252 122.615 76.5358 122.549 76.5456C122.482 76.5542 122.427 76.5609 122.382 76.5656C122.278 76.5805 122.183 76.6041 122.097 76.6355C122.011 76.6653 121.942 76.71 121.889 76.77C121.837 76.8281 121.812 76.9054 121.812 77.0015C121.812 77.1361 121.861 77.2373 121.96 77.3056C122.06 77.3735 122.186 77.4076 122.338 77.4076ZM125.271 77.8384C125.005 77.8384 124.775 77.7768 124.581 77.654C124.388 77.5312 124.239 77.3617 124.135 77.1459C124.03 76.9301 123.978 76.6829 123.978 76.404C123.978 76.1199 124.031 75.87 124.137 75.6542C124.244 75.4368 124.394 75.2674 124.586 75.1461C124.78 75.0233 125.006 74.9617 125.266 74.9617C125.478 74.9617 125.666 75.001 125.829 75.079C125.995 75.1551 126.128 75.2642 126.229 75.4051C126.332 75.5463 126.392 75.7107 126.41 75.8982H125.884C125.866 75.8104 125.83 75.7299 125.777 75.6566C125.726 75.5836 125.658 75.5255 125.574 75.4824C125.49 75.4392 125.39 75.4176 125.273 75.4176C125.123 75.4176 124.992 75.4576 124.879 75.5373C124.768 75.6154 124.681 75.7272 124.619 75.8735C124.556 76.0195 124.524 76.1921 124.524 76.3914C124.524 76.5923 124.555 76.7673 124.616 76.9168C124.677 77.0663 124.764 77.1816 124.877 77.2632C124.991 77.3429 125.123 77.3825 125.273 77.3825C125.429 77.3825 125.562 77.3393 125.671 77.253C125.782 77.1667 125.853 77.049 125.884 76.8995H126.41C126.392 77.0804 126.334 77.2416 126.236 77.3825C126.139 77.5237 126.008 77.6352 125.844 77.7164C125.68 77.7976 125.49 77.8384 125.271 77.8384ZM127.597 77.8407C127.421 77.8407 127.262 77.8086 127.12 77.7438C126.978 77.6771 126.865 77.581 126.783 77.4547C126.7 77.3287 126.658 77.1749 126.658 76.9941C126.658 76.8363 126.688 76.7077 126.748 76.608C126.809 76.5068 126.891 76.4263 126.993 76.3663C127.096 76.3067 127.21 76.2619 127.336 76.2321C127.462 76.2023 127.591 76.1788 127.723 76.1623C127.89 76.1439 128.025 76.1282 128.127 76.1148C128.23 76.1015 128.305 76.0811 128.351 76.0528C128.399 76.0226 128.423 75.9755 128.423 75.9108V75.8982C128.423 75.7405 128.378 75.6185 128.289 75.5322C128.201 75.4459 128.07 75.4027 127.897 75.4027C127.717 75.4027 127.573 75.4423 127.468 75.5224C127.363 75.6005 127.291 75.6891 127.252 75.7888L126.743 75.6715C126.804 75.5024 126.892 75.3662 127.008 75.263C127.126 75.1587 127.26 75.0822 127.41 75.0339C127.563 74.986 127.721 74.9617 127.887 74.9617C127.998 74.9617 128.115 74.9751 128.239 75.0017C128.363 75.0265 128.48 75.0739 128.589 75.1438C128.7 75.2116 128.79 75.3097 128.86 75.4376C128.929 75.5655 128.964 75.7307 128.964 75.9332V77.7811H128.435V77.4001H128.416C128.382 77.468 128.33 77.5363 128.259 77.6042C128.19 77.6724 128.1 77.7289 127.991 77.7737C127.882 77.8184 127.75 77.8407 127.597 77.8407ZM127.713 77.4076C127.864 77.4076 127.992 77.3786 128.098 77.3205C128.204 77.2605 128.285 77.1824 128.341 77.0863C128.397 76.9897 128.425 76.8877 128.425 76.7798V76.4189C128.405 76.4369 128.368 76.4546 128.314 76.4711C128.259 76.4875 128.197 76.5017 128.127 76.5134C128.058 76.5252 127.99 76.5358 127.924 76.5456C127.858 76.5542 127.803 76.5609 127.758 76.5656C127.654 76.5805 127.559 76.6041 127.472 76.6355C127.386 76.6653 127.317 76.71 127.264 76.77C127.213 76.8281 127.187 76.9054 127.187 77.0015C127.187 77.1361 127.236 77.2373 127.336 77.3056C127.435 77.3735 127.561 77.4076 127.713 77.4076ZM131.036 77.111L131.932 74.9966H132.396L131.237 77.7811H130.835L129.698 74.9966H130.158L131.036 77.111ZM130.006 74.9966V77.7811H129.483V74.9966H130.006ZM132.078 77.7811V74.9966H132.6V77.7811H132.078Z" fill="#BDBDBD"/>
<path d="M145.509 14.6138H33.3042C27.2585 14.6138 22.3574 19.5322 22.3574 25.5994C22.3574 31.6666 27.2585 36.5851 33.3042 36.5851H145.509C151.555 36.5851 156.456 31.6666 156.456 25.5994C156.456 19.5322 151.555 14.6138 145.509 14.6138Z" fill="white"/>
<path d="M143.946 33.2502C148.156 33.2502 151.57 29.8248 151.57 25.5994C151.57 21.3741 148.156 17.9487 143.946 17.9487C139.735 17.9487 136.322 21.3741 136.322 25.5994C136.322 29.8248 139.735 33.2502 143.946 33.2502Z" fill="white" stroke="#E0E0E0"/>
<path d="M141.014 24.2914H144.923M144.923 24.2914C144.923 24.8332 145.361 25.2723 145.901 25.2723C146.441 25.2723 146.878 24.8331 146.878 24.2914C146.878 23.7497 146.441 23.3105 145.901 23.3105C145.361 23.3105 144.923 23.7497 144.923 24.2914ZM142.968 26.9071H146.878M142.968 26.9071C142.968 27.4488 142.531 27.8879 141.991 27.8879C141.451 27.8879 141.014 27.4488 141.014 26.9071C141.014 26.3653 141.451 25.9262 141.991 25.9262C142.531 25.9262 142.968 26.3653 142.968 26.9071Z" stroke="#303030" stroke-linecap="round" stroke-linejoin="round"/>
<path d="M33.8907 28.5419L32.7505 27.3976M33.5649 25.4359C33.5649 26.9707 32.3251 28.215 30.7956 28.215C29.2662 28.215 28.0264 26.9707 28.0264 25.4359C28.0264 23.901 29.2662 22.6567 30.7956 22.6567C32.3251 22.6567 33.5649 23.901 33.5649 25.4359Z" stroke="#BDBDBD" stroke-linecap="round" stroke-linejoin="round"/>
<path d="M41.9206 23.3862V27.9534H41.2364V23.9747H39.0953V27.9534H38.4111V23.3862H41.9206ZM44.0892 28.0239C43.7695 28.0239 43.4895 27.9503 43.2492 27.8032C43.011 27.656 42.8257 27.4497 42.6933 27.184C42.563 26.9184 42.4979 26.6098 42.4979 26.2583C42.4979 25.9028 42.563 25.5921 42.6933 25.3265C42.8257 25.0588 43.011 24.8514 43.2492 24.7043C43.4895 24.5571 43.7695 24.4836 44.0892 24.4836C44.4109 24.4836 44.6909 24.5571 44.9291 24.7043C45.1674 24.8514 45.3527 25.0588 45.485 25.3265C45.6174 25.5921 45.6836 25.9028 45.6836 26.2583C45.6836 26.6098 45.6174 26.9184 45.485 27.184C45.3527 27.4497 45.1674 27.656 44.9291 27.8032C44.6909 27.9503 44.4109 28.0239 44.0892 28.0239ZM44.0892 27.4629C44.2989 27.4629 44.472 27.4078 44.6084 27.2974C44.7448 27.1871 44.8456 27.041 44.9108 26.8591C44.978 26.6752 45.0116 26.4749 45.0116 26.2583C45.0116 26.0376 44.978 25.8353 44.9108 25.6514C44.8456 25.4675 44.7448 25.3204 44.6084 25.21C44.472 25.0997 44.2989 25.0445 44.0892 25.0445C43.8815 25.0445 43.7094 25.0997 43.573 25.21C43.4386 25.3204 43.3378 25.4675 43.2706 25.6514C43.2034 25.8353 43.1698 26.0376 43.1698 26.2583C43.1698 26.4749 43.2034 26.6752 43.2706 26.8591C43.3378 27.041 43.4386 27.1871 43.573 27.2974C43.7094 27.4078 43.8815 27.4629 44.0892 27.4629ZM46.8076 27.0154L48.3133 24.5265H49.0281V27.9534H48.3805V25.4614L46.8809 27.9534H46.1631V24.5265H46.8076V27.0154ZM51.0959 28.0239C50.768 28.0239 50.485 27.9483 50.2467 27.797C50.0085 27.6458 49.8253 27.4374 49.697 27.1717C49.5687 26.9061 49.5045 26.6016 49.5045 26.2583C49.5045 25.9089 49.5697 25.6013 49.7 25.3357C49.8324 25.068 50.0167 24.8596 50.2529 24.7104C50.4911 24.5592 50.7701 24.4836 51.0898 24.4836C51.3504 24.4836 51.5815 24.5316 51.7831 24.6276C51.9867 24.7217 52.1506 24.8555 52.2748 25.0292C52.4011 25.2029 52.4754 25.4052 52.4978 25.6361H51.8503C51.8279 25.5278 51.7841 25.4287 51.719 25.3388C51.6558 25.2488 51.5724 25.1773 51.4685 25.1242C51.3646 25.0711 51.2415 25.0445 51.0989 25.0445C50.9136 25.0445 50.7517 25.0936 50.6133 25.1916C50.4769 25.2877 50.3699 25.4256 50.2926 25.6054C50.2152 25.7853 50.1765 25.9978 50.1765 26.243C50.1765 26.4903 50.2142 26.7058 50.2895 26.8897C50.3649 27.0736 50.4718 27.2157 50.6102 27.3158C50.7507 27.4139 50.9136 27.4629 51.0989 27.4629C51.2903 27.4629 51.4532 27.4098 51.5876 27.3036C51.7241 27.1973 51.8116 27.0522 51.8503 26.8683H52.4978C52.4754 27.091 52.4042 27.2892 52.284 27.4629C52.1639 27.6366 52.003 27.7735 51.8014 27.8737C51.5998 27.9738 51.3646 28.0239 51.0959 28.0239ZM52.9682 27.9534V24.5265H53.6279V25.9641H53.9486L55.0757 24.5265H55.8941L54.5778 26.197L55.9125 27.9534H55.0879L54.0586 26.5832H53.6279V27.9534H52.9682ZM57.5557 27.9534V24.5265H60.3354V27.9534H59.6848V25.1027H58.1972V27.9534H57.5557ZM62.4031 28.0239C62.0833 28.0239 61.8034 27.9503 61.563 27.8032C61.3249 27.656 61.1396 27.4497 61.0074 27.184C60.8768 26.9184 60.8119 26.6098 60.8119 26.2583C60.8119 25.9028 60.8768 25.5921 61.0074 25.3265C61.1396 25.0588 61.3249 24.8514 61.563 24.7043C61.8034 24.5571 62.0833 24.4836 62.4031 24.4836C62.7249 24.4836 63.0048 24.5571 63.2429 24.7043C63.4814 24.8514 63.6667 25.0588 63.7989 25.3265C63.9314 25.5921 63.9975 25.9028 63.9975 26.2583C63.9975 26.6098 63.9314 26.9184 63.7989 27.184C63.6667 27.4497 63.4814 27.656 63.2429 27.8032C63.0048 27.9503 62.7249 28.0239 62.4031 28.0239ZM62.4031 27.4629C62.6127 27.4629 62.7859 27.4078 62.9223 27.2974C63.0588 27.1871 63.1596 27.041 63.2245 26.8591C63.2918 26.6752 63.3254 26.4749 63.3254 26.2583C63.3254 26.0376 63.2918 25.8353 63.2245 25.6514C63.1596 25.4675 63.0588 25.3204 62.9223 25.21C62.7859 25.0997 62.6127 25.0445 62.4031 25.0445C62.1955 25.0445 62.0235 25.0997 61.8871 25.21C61.7526 25.3204 61.6517 25.4675 61.5845 25.6514C61.5172 25.8353 61.4836 26.0376 61.4836 26.2583C61.4836 26.4749 61.5172 26.6752 61.5845 26.8591C61.6517 27.041 61.7526 27.1871 61.8871 27.2974C62.0235 27.4078 62.1955 27.4629 62.4031 27.4629ZM66.8593 28.0269C66.6435 28.0269 66.448 27.9871 66.2728 27.9074C66.0977 27.8256 65.9593 27.7071 65.8576 27.5518C65.7556 27.3965 65.7048 27.2075 65.7048 26.9848C65.7048 26.7906 65.7415 26.6323 65.8146 26.5096C65.8901 26.385 65.991 26.2859 66.1172 26.2123C66.2435 26.1388 66.3839 26.0836 66.5387 26.0468C66.6935 26.01 66.8522 25.9814 67.0153 25.961C67.2209 25.9385 67.3867 25.9191 67.5129 25.9028C67.6392 25.8864 67.7307 25.8609 67.7878 25.8261C67.8468 25.7893 67.8765 25.7311 67.8765 25.6514V25.6361C67.8765 25.442 67.8214 25.2918 67.7116 25.1855C67.6037 25.0792 67.443 25.0261 67.2291 25.0261C67.007 25.0261 66.8307 25.0752 66.7005 25.1732C66.5723 25.2693 66.4836 25.3786 66.4347 25.5012L65.8088 25.3571C65.8842 25.1487 65.9929 24.9811 66.1356 24.8545C66.2803 24.7257 66.4449 24.6317 66.6302 24.5724C66.8178 24.5132 67.0133 24.4836 67.2166 24.4836C67.353 24.4836 67.4977 24.4999 67.6506 24.5326C67.803 24.5633 67.9469 24.6215 68.081 24.7073C68.2175 24.7911 68.3285 24.9117 68.4141 25.069C68.4997 25.2264 68.5423 25.4297 68.5423 25.679V27.9534H67.8918V27.4844H67.8672C67.8265 27.5682 67.7624 27.652 67.6748 27.7357C67.5896 27.8195 67.4793 27.889 67.3452 27.9442C67.2107 27.9993 67.0489 28.0269 66.8593 28.0269ZM67.0031 27.4936C67.1881 27.4936 67.346 27.4578 67.4762 27.3863C67.6068 27.3127 67.7065 27.2167 67.7757 27.0982C67.8449 26.9797 67.8797 26.854 67.8797 26.7212V26.2767C67.855 26.2992 67.8093 26.3207 67.7421 26.3411C67.6748 26.3615 67.5986 26.3789 67.5129 26.3932C67.4273 26.4075 67.3441 26.4208 67.2627 26.433C67.181 26.4433 67.113 26.4514 67.0579 26.4575C66.9296 26.4759 66.8127 26.5045 66.7068 26.5434C66.6008 26.5801 66.5152 26.6354 66.4499 26.7089C66.387 26.7804 66.3553 26.8754 66.3553 26.994C66.3553 27.1595 66.4167 27.2841 66.5387 27.3679C66.6611 27.4517 66.8155 27.4936 67.0031 27.4936ZM68.8446 28.9404V27.3771H69.1198C69.1909 27.3117 69.2519 27.2341 69.3028 27.1441C69.354 27.0522 69.3954 26.9439 69.4282 26.8192C69.4627 26.6926 69.4924 26.5464 69.5166 26.3809C69.5412 26.2154 69.5623 26.0244 69.5807 25.8077L69.6878 24.5265H72.0058V27.3771H72.5313V28.9404H71.8807V27.9534H69.5045V28.9404H68.8446ZM69.8345 27.3771H71.3584V25.0966H70.2801L70.207 25.8077C70.1765 26.1694 70.1347 26.4821 70.0819 26.7457C70.0307 27.0073 69.9482 27.2177 69.8345 27.3771ZM72.9191 29.2346V24.5265H73.5607V25.0843H73.6158C73.6565 25.0128 73.7124 24.9301 73.7835 24.8361C73.857 24.7421 73.9587 24.6603 74.0892 24.5908C74.2194 24.5193 74.3895 24.4836 74.5991 24.4836C74.8739 24.4836 75.1182 24.5531 75.3321 24.692C75.5479 24.831 75.718 25.0322 75.8423 25.2958C75.9666 25.5595 76.0284 25.8772 76.0284 26.2491C76.0284 26.617 75.9674 26.9337 75.8454 27.1993C75.7231 27.4629 75.5542 27.6663 75.3384 27.8093C75.1245 27.9503 74.879 28.0208 74.6022 28.0208C74.3965 28.0208 74.2276 27.9861 74.0951 27.9166C73.9649 27.8451 73.8621 27.7623 73.7866 27.6683C73.7135 27.5743 73.6565 27.4916 73.6158 27.42H73.579V29.2346H72.9191ZM74.4587 27.4537C74.6561 27.4537 74.8211 27.4006 74.9533 27.2943C75.0858 27.1881 75.1855 27.044 75.2527 26.8622C75.3219 26.6782 75.3567 26.4719 75.3567 26.243C75.3567 26.0162 75.3231 25.8128 75.2559 25.633C75.1886 25.4532 75.0889 25.3112 74.9564 25.2069C74.8242 25.1027 74.6581 25.0506 74.4587 25.0506C74.2652 25.0506 74.1021 25.1007 73.97 25.2008C73.8375 25.2989 73.7366 25.4379 73.6674 25.6177C73.6005 25.7955 73.5669 26.0039 73.5669 26.243C73.5669 26.4821 73.6013 26.6926 73.6705 26.8744C73.7397 27.0563 73.8406 27.1983 73.9731 27.3005C74.1072 27.4027 74.2691 27.4537 74.4587 27.4537ZM77.9804 28.0239C77.6462 28.0239 77.3573 27.9513 77.1129 27.8062C76.8686 27.6611 76.6801 27.4568 76.548 27.1932C76.4174 26.9276 76.3525 26.618 76.3525 26.2644C76.3525 25.913 76.4166 25.6034 76.5448 25.3357C76.675 25.068 76.8572 24.8596 77.0914 24.7104C77.3275 24.5592 77.6047 24.4836 77.9222 24.4836C78.1157 24.4836 78.303 24.5152 78.4844 24.5786C78.6654 24.6419 78.8284 24.7421 78.9731 24.879C79.1173 25.0159 79.2315 25.1937 79.3152 25.4123C79.4004 25.631 79.4434 25.8946 79.4434 26.2031V26.4422H76.7282V25.9426H79.1013L78.7929 26.1081C78.7929 25.8977 78.76 25.7117 78.6951 25.5502C78.6298 25.3888 78.5321 25.2632 78.4019 25.1732C78.2737 25.0813 78.1138 25.0353 77.9222 25.0353C77.731 25.0353 77.5668 25.0813 77.4304 25.1732C77.2963 25.2652 77.1934 25.3868 77.1219 25.538C77.0507 25.6892 77.0152 25.8547 77.0152 26.0346V26.3748C77.0152 26.6098 77.0558 26.809 77.1371 26.9725C77.2189 27.136 77.3318 27.2606 77.4765 27.3465C77.6231 27.4323 77.7928 27.4752 77.9863 27.4752C78.1126 27.4752 78.2267 27.4568 78.3284 27.42C78.4324 27.3832 78.5219 27.3281 78.5974 27.2545C78.6724 27.1809 78.7295 27.09 78.7682 26.9817L79.3977 27.1013C79.3464 27.2852 79.2569 27.4466 79.1287 27.5855C79.0005 27.7245 78.8386 27.8328 78.6431 27.9105C78.4496 27.9861 78.2287 28.0239 77.9804 28.0239ZM81.3399 28.0239C81.0123 28.0239 80.7293 27.9483 80.4912 27.797C80.2527 27.6458 80.0693 27.4374 79.9411 27.1717C79.8129 26.9061 79.7487 26.6016 79.7487 26.2583C79.7487 25.9089 79.814 25.6013 79.9442 25.3357C80.0768 25.068 80.2609 24.8596 80.497 24.7104C80.7355 24.5592 81.0143 24.4836 81.3341 24.4836C81.5945 24.4836 81.8259 24.5316 82.0272 24.6276C82.2309 24.7217 82.3947 24.8555 82.5191 25.0292C82.6454 25.2029 82.7196 25.4052 82.7419 25.6361H82.0945C82.0722 25.5278 82.0284 25.4287 81.9631 25.3388C81.9002 25.2488 81.8165 25.1773 81.7129 25.1242C81.6089 25.0711 81.4858 25.0445 81.3431 25.0445C81.1578 25.0445 80.9959 25.0936 80.8575 25.1916C80.7211 25.2877 80.6143 25.4256 80.5369 25.6054C80.4595 25.7853 80.4208 25.9978 80.4208 26.243C80.4208 26.4903 80.4583 26.7058 80.5338 26.8897C80.6092 27.0736 80.716 27.2157 80.8544 27.3158C80.9951 27.4139 81.1578 27.4629 81.3431 27.4629C81.5346 27.4629 81.6973 27.4098 81.8318 27.3036C81.9682 27.1973 82.0558 27.0522 82.0945 26.8683H82.7419C82.7196 27.091 82.6485 27.2892 82.5281 27.4629C82.408 27.6366 82.2474 27.7735 82.0456 27.8737C81.8439 27.9738 81.6089 28.0239 81.3399 28.0239ZM83.5055 29.2346C83.4058 29.2367 83.3151 29.2295 83.2337 29.2132C83.1544 29.1989 83.0934 29.1815 83.0504 29.1611L83.2122 28.6185L83.2584 28.6308C83.4273 28.6737 83.57 28.6706 83.6857 28.6216C83.8038 28.5746 83.9027 28.4428 83.982 28.2262L84.0645 27.9993L82.8185 24.5265H83.5301L84.3914 27.1871H84.4281L85.2925 24.5265H86.0041L84.599 28.407C84.5341 28.5868 84.4516 28.738 84.3519 28.8607C84.2518 28.9853 84.1318 29.0783 83.9914 29.1396C83.8526 29.2029 83.6908 29.2346 83.5055 29.2346ZM88.4081 27.0154L89.9136 24.5265H90.6283V27.9534H89.9809V25.4614L88.4812 27.9534H87.7634V24.5265H88.4081V27.0154ZM90.9919 27.9534L90.9888 27.3771H91.108C91.2362 27.3751 91.3371 27.3373 91.4102 27.2637C91.4857 27.1881 91.5416 27.0543 91.5783 26.8622C91.617 26.6701 91.6424 26.3983 91.6546 26.0468L91.7156 24.5265H94.0949V27.9534H93.4444V25.1027H92.3266L92.2715 26.2706C92.2594 26.5526 92.232 26.7988 92.189 27.0093C92.1464 27.2197 92.0835 27.3955 91.9998 27.5365C91.9161 27.6755 91.8094 27.7797 91.6792 27.8491C91.5486 27.9186 91.3899 27.9534 91.2026 27.9534H90.9919ZM95.3718 27.0154L96.8778 24.5265H97.5924V27.9534H96.9446V25.4614L95.4453 27.9534H94.7275V24.5265H95.3718V27.0154ZM101.929 25.9518V26.528H100.082V25.9518H101.929ZM100.265 24.5265V27.9534H99.6203V24.5265H100.265ZM102.394 24.5265V27.9534H101.746V24.5265H102.394ZM104.019 28.0269C103.803 28.0269 103.607 27.9871 103.432 27.9074C103.257 27.8256 103.119 27.7071 103.017 27.5518C102.915 27.3965 102.864 27.2075 102.864 26.9848C102.864 26.7906 102.901 26.6323 102.974 26.5096C103.049 26.385 103.15 26.2859 103.277 26.2123C103.403 26.1388 103.543 26.0836 103.698 26.0468C103.853 26.01 104.012 25.9814 104.175 25.961C104.38 25.9385 104.546 25.9191 104.672 25.9028C104.799 25.8864 104.89 25.8609 104.947 25.8261C105.006 25.7893 105.036 25.7311 105.036 25.6514V25.6361C105.036 25.442 104.981 25.2918 104.871 25.1855C104.763 25.0792 104.602 25.0261 104.388 25.0261C104.166 25.0261 103.99 25.0752 103.86 25.1732C103.732 25.2693 103.643 25.3786 103.594 25.5012L102.968 25.3571C103.043 25.1487 103.152 24.9811 103.295 24.8545C103.439 24.7257 103.604 24.6317 103.789 24.5724C103.977 24.5132 104.172 24.4836 104.376 24.4836C104.512 24.4836 104.657 24.4999 104.81 24.5326C104.962 24.5633 105.106 24.6215 105.24 24.7073C105.377 24.7911 105.488 24.9117 105.573 25.069C105.659 25.2264 105.702 25.4297 105.702 25.679V27.9534H105.051V27.4844H105.026C104.986 27.5682 104.922 27.652 104.834 27.7357C104.749 27.8195 104.639 27.889 104.504 27.9442C104.37 27.9993 104.208 28.0269 104.019 28.0269ZM104.162 27.4936C104.347 27.4936 104.505 27.4578 104.636 27.3863C104.766 27.3127 104.866 27.2167 104.935 27.0982C105.004 26.9797 105.039 26.854 105.039 26.7212V26.2767C105.014 26.2992 104.969 26.3207 104.901 26.3411C104.834 26.3615 104.758 26.3789 104.672 26.3932C104.587 26.4075 104.503 26.4208 104.422 26.433C104.34 26.4433 104.272 26.4514 104.217 26.4575C104.089 26.4759 103.972 26.5045 103.866 26.5434C103.76 26.5801 103.675 26.6354 103.609 26.7089C103.546 26.7804 103.515 26.8754 103.515 26.994C103.515 27.1595 103.576 27.2841 103.698 27.3679C103.82 27.4517 103.975 27.4936 104.162 27.4936ZM106.27 27.0461H106.945C106.957 27.1871 107.021 27.2954 107.137 27.371C107.255 27.4466 107.409 27.4854 107.598 27.4874C107.788 27.4854 107.95 27.4435 108.084 27.3618C108.218 27.2801 108.287 27.1503 108.289 26.9725C108.289 26.8703 108.262 26.7804 108.209 26.7028C108.158 26.6251 108.086 26.5648 107.992 26.5219C107.901 26.477 107.793 26.4555 107.669 26.4575H107.113V25.9334H107.669C107.854 25.9334 107.993 25.8915 108.087 25.8077C108.181 25.7219 108.228 25.6136 108.228 25.4828C108.228 25.3418 108.178 25.2284 108.078 25.1426C107.978 25.0568 107.839 25.0149 107.66 25.0169C107.482 25.0149 107.334 25.0547 107.214 25.1364C107.093 25.2162 107.03 25.3194 107.024 25.446H106.352C106.356 25.256 106.413 25.0885 106.523 24.9434C106.635 24.7983 106.787 24.6859 106.979 24.6062C107.17 24.5245 107.387 24.4836 107.629 24.4836C107.881 24.4836 108.1 24.5245 108.286 24.6062C108.471 24.6879 108.614 24.8013 108.716 24.9464C108.818 25.0895 108.868 25.255 108.866 25.443C108.868 25.631 108.812 25.7853 108.698 25.9058C108.586 26.0264 108.44 26.1122 108.261 26.1633V26.197C108.393 26.2072 108.511 26.2481 108.612 26.3196C108.716 26.3891 108.797 26.4831 108.854 26.6016C108.913 26.7181 108.942 26.8509 108.942 27.0001C108.942 27.2085 108.884 27.3894 108.768 27.5426C108.654 27.6959 108.496 27.8144 108.295 27.8982C108.093 27.9799 107.862 28.0218 107.601 28.0239C107.349 28.0218 107.123 27.9809 106.923 27.9013C106.726 27.8216 106.569 27.7092 106.453 27.5641C106.337 27.4169 106.276 27.2443 106.27 27.0461ZM109.236 27.9534V24.5265H110.646C111.032 24.5285 111.337 24.6123 111.563 24.7778C111.789 24.9413 111.901 25.1641 111.899 25.446C111.901 25.6463 111.838 25.8047 111.71 25.9211C111.581 26.0356 111.413 26.1142 111.206 26.1572C111.356 26.1735 111.495 26.2185 111.621 26.2921C111.749 26.3656 111.852 26.4647 111.93 26.5894C112.009 26.712 112.048 26.8581 112.048 27.0277C112.048 27.2095 112.001 27.371 111.905 27.512C111.811 27.6509 111.677 27.7592 111.502 27.8369C111.327 27.9146 111.114 27.9534 110.863 27.9534H109.236ZM109.859 27.3924H110.863C111.027 27.3945 111.155 27.3567 111.248 27.279C111.342 27.1993 111.388 27.092 111.386 26.9572C111.388 26.7978 111.342 26.6731 111.248 26.5832C111.155 26.4913 111.027 26.4453 110.863 26.4453H109.859V27.3924ZM109.859 25.9579H110.653C110.84 25.9559 110.987 25.916 111.093 25.8384C111.2 25.7587 111.253 25.6514 111.251 25.5165C111.253 25.3837 111.2 25.2805 111.093 25.2069C110.985 25.1313 110.836 25.0936 110.646 25.0936H109.859V25.9579ZM113.506 28.0269C113.29 28.0269 113.094 27.9871 112.919 27.9074C112.744 27.8256 112.606 27.7071 112.504 27.5518C112.402 27.3965 112.351 27.2075 112.351 26.9848C112.351 26.7906 112.387 26.6323 112.461 26.5096C112.536 26.385 112.637 26.2859 112.763 26.2123C112.889 26.1388 113.03 26.0836 113.185 26.0468C113.339 26.01 113.499 25.9814 113.661 25.961C113.867 25.9385 114.033 25.9191 114.159 25.9028C114.286 25.8864 114.377 25.8609 114.434 25.8261C114.493 25.7893 114.522 25.7311 114.522 25.6514V25.6361C114.522 25.442 114.468 25.2918 114.358 25.1855C114.25 25.0792 114.089 25.0261 113.875 25.0261C113.653 25.0261 113.477 25.0752 113.347 25.1732C113.218 25.2693 113.13 25.3786 113.081 25.5012L112.455 25.3571C112.53 25.1487 112.639 24.9811 112.782 24.8545C112.926 24.7257 113.091 24.6317 113.276 24.5724C113.464 24.5132 113.659 24.4836 113.863 24.4836C113.999 24.4836 114.144 24.4999 114.296 24.5326C114.449 24.5633 114.593 24.6215 114.727 24.7073C114.864 24.7911 114.975 24.9117 115.06 25.069C115.146 25.2264 115.189 25.4297 115.189 25.679V27.9534H114.538V27.4844H114.513C114.473 27.5682 114.409 27.652 114.321 27.7357C114.235 27.8195 114.126 27.889 113.991 27.9442C113.857 27.9993 113.695 28.0269 113.506 28.0269ZM113.649 27.4936C113.834 27.4936 113.992 27.4578 114.123 27.3863C114.253 27.3127 114.352 27.2167 114.422 27.0982C114.491 26.9797 114.526 26.854 114.526 26.7212V26.2767C114.501 26.2992 114.456 26.3207 114.388 26.3411C114.321 26.3615 114.244 26.3789 114.159 26.3932C114.074 26.4075 113.99 26.4208 113.909 26.433C113.827 26.4433 113.759 26.4514 113.704 26.4575C113.576 26.4759 113.459 26.5045 113.353 26.5434C113.247 26.5801 113.162 26.6354 113.096 26.7089C113.033 26.7804 113.002 26.8754 113.002 26.994C113.002 27.1595 113.063 27.2841 113.185 27.3679C113.307 27.4517 113.462 27.4936 113.649 27.4936ZM118.136 25.9518V26.528H116.288V25.9518H118.136ZM116.471 24.5265V27.9534H115.827V24.5265H116.471ZM118.6 24.5265V27.9534H117.953V24.5265H118.6ZM119.88 27.0154L121.386 24.5265H122.1V27.9534H121.453V25.4614L119.953 27.9534H119.235V24.5265H119.88V27.0154ZM124.449 25.9794V26.5587H122.632V25.9794H124.449ZM123.172 24.5265V27.9534H122.507V24.5265H123.172ZM125.491 28.0239C125.173 28.0218 124.895 27.9472 124.657 27.8001C124.421 27.6509 124.237 27.4435 124.107 27.1779C123.979 26.9122 123.915 26.6047 123.915 26.2552C123.915 25.9017 123.979 25.5921 124.107 25.3265C124.237 25.0608 124.421 24.8545 124.657 24.7073C124.895 24.5582 125.173 24.4836 125.491 24.4836C125.809 24.4836 126.085 24.5582 126.322 24.7073C126.558 24.8545 126.741 25.0608 126.871 25.3265C127.004 25.5921 127.07 25.9017 127.07 26.2552C127.07 26.6047 127.004 26.9122 126.871 27.1779C126.741 27.4435 126.558 27.6509 126.322 27.8001C126.085 27.9472 125.809 28.0218 125.491 28.0239ZM125.491 27.4537C125.705 27.4517 125.88 27.3965 126.016 27.2882C126.153 27.1779 126.254 27.0328 126.318 26.8529C126.384 26.6711 126.416 26.4719 126.416 26.2552C126.416 26.0366 126.384 25.8363 126.318 25.6545C126.254 25.4726 126.153 25.3265 126.016 25.2162C125.88 25.1058 125.705 25.0506 125.491 25.0506C125.277 25.0506 125.101 25.1058 124.963 25.2162C124.826 25.3265 124.725 25.4726 124.66 25.6545C124.595 25.8343 124.562 26.0346 124.562 26.2552C124.562 26.4719 124.595 26.6711 124.66 26.8529C124.725 27.0348 124.826 27.1799 124.963 27.2882C125.101 27.3965 125.277 27.4517 125.491 27.4537Z" fill="#BDBDBD"/>
<path d="M151.764 41.293H27.0489C24.4579 41.293 22.3574 43.4009 22.3574 46.0011V58.5561C22.3574 61.1564 24.4579 63.2643 27.0489 63.2643H151.764C154.355 63.2643 156.456 61.1564 156.456 58.5561V46.0011C156.456 43.4009 154.355 41.293 151.764 41.293Z" fill="white"/>
<path d="M28.672 49.9745C28.4222 49.9745 28.2005 49.9321 28.0069 49.8474C27.8133 49.7611 27.6603 49.6414 27.5478 49.4888C27.4353 49.3362 27.3757 49.1592 27.3691 48.9583H27.93C27.9383 49.0678 27.9755 49.1627 28.0417 49.2424C28.1079 49.322 28.1947 49.384 28.3022 49.4292C28.4114 49.4723 28.5331 49.4939 28.667 49.4939C28.8126 49.4939 28.9417 49.468 29.0542 49.4166C29.1667 49.3652 29.2544 49.2946 29.3172 49.2047C29.3818 49.1137 29.414 49.0082 29.414 48.8885C29.414 48.7641 29.3826 48.6547 29.3197 48.5597C29.2569 48.4636 29.165 48.389 29.0443 48.3357C28.9235 48.2827 28.7779 48.256 28.6075 48.256H28.2923V47.7978H28.6075C28.7432 47.7978 28.8631 47.7731 28.9673 47.7232C29.0716 47.6734 29.1526 47.6044 29.2106 47.5165C29.2701 47.4282 29.2999 47.3246 29.2999 47.2051C29.2999 47.0905 29.2742 46.9909 29.2229 46.9062C29.1717 46.8199 29.0997 46.7535 29.0071 46.707C28.9144 46.6588 28.8052 46.6348 28.6795 46.6348C28.5587 46.6348 28.4462 46.6563 28.342 46.6995C28.2377 46.7427 28.1525 46.8049 28.0864 46.8863C28.0218 46.966 27.9879 47.0631 27.9846 47.1777H27.4461C27.451 46.9768 27.5089 46.8008 27.6198 46.6497C27.7323 46.4969 27.8812 46.3782 28.0665 46.2936C28.2534 46.2072 28.4603 46.1641 28.6869 46.1641C28.9235 46.1641 29.1278 46.2106 29.2999 46.3035C29.4736 46.3948 29.6076 46.5177 29.7019 46.6721C29.7962 46.8248 29.8434 46.9917 29.8434 47.1727C29.8434 47.3835 29.7855 47.5612 29.6697 47.7056C29.5539 47.8484 29.3991 47.9457 29.2056 47.9971V48.0246C29.4504 48.0626 29.6399 48.1607 29.7739 48.3184C29.9095 48.4761 29.9774 48.6719 29.9774 48.9062C29.9774 49.1102 29.9203 49.293 29.8061 49.4539C29.6936 49.6151 29.539 49.7419 29.3421 49.8348C29.1468 49.9278 28.9235 49.9745 28.672 49.9745ZM31.2604 49.9843C31.085 49.9843 30.9262 49.9521 30.7839 49.8874C30.6416 49.8207 30.5291 49.7246 30.4464 49.5983C30.3637 49.4723 30.3223 49.3185 30.3223 49.1376C30.3223 48.9799 30.3521 48.8512 30.4117 48.7516C30.4729 48.6503 30.5548 48.5699 30.6573 48.5099C30.7599 48.4503 30.8741 48.4055 30.9998 48.3757C31.1255 48.3459 31.2546 48.3223 31.387 48.3059C31.5541 48.2874 31.6889 48.2717 31.7915 48.2584C31.894 48.2451 31.9685 48.2247 32.0148 48.1964C32.0628 48.1662 32.0868 48.1191 32.0868 48.0544V48.0418C32.0868 47.8841 32.0421 47.7621 31.9528 47.6758C31.8651 47.5894 31.7344 47.5463 31.5607 47.5463C31.3803 47.5463 31.2372 47.5859 31.1313 47.666C31.0271 47.744 30.9552 47.8327 30.9154 47.9324L30.4067 47.815C30.4679 47.6459 30.5564 47.5098 30.6722 47.4066C30.7897 47.3023 30.9237 47.2258 31.0743 47.1777C31.2265 47.1295 31.3853 47.1055 31.5507 47.1055C31.6616 47.1055 31.7791 47.1187 31.9032 47.1453C32.0272 47.1702 32.1439 47.2175 32.2531 47.2873C32.3639 47.3552 32.4541 47.4533 32.5236 47.5812C32.593 47.7091 32.6278 47.8743 32.6278 48.0767V49.9247H32.0992V49.5437H32.0794C32.0462 49.6116 31.9941 49.6799 31.923 49.7477C31.8535 49.816 31.7642 49.8725 31.655 49.9172C31.5458 49.962 31.4143 49.9843 31.2604 49.9843ZM31.377 49.5512C31.5276 49.5512 31.6558 49.5221 31.7617 49.4641C31.8676 49.404 31.9486 49.326 32.0049 49.2298C32.0611 49.1333 32.0892 49.0313 32.0892 48.9234V48.5625C32.0694 48.5805 32.0322 48.5982 31.9776 48.6146C31.923 48.6311 31.861 48.6452 31.7915 48.657C31.722 48.6688 31.6542 48.6794 31.588 48.6892C31.5218 48.6978 31.4664 48.7045 31.4217 48.7092C31.3175 48.7241 31.2223 48.7476 31.1363 48.779C31.0503 48.8089 30.9808 48.8536 30.9278 48.9136C30.8766 48.9717 30.8509 49.049 30.8509 49.1451C30.8509 49.2797 30.9005 49.3809 30.9998 49.4492C31.0991 49.517 31.2248 49.5512 31.377 49.5512ZM34.3401 49.982C34.0688 49.982 33.8339 49.9231 33.6353 49.805C33.4368 49.6873 33.2838 49.5214 33.1762 49.3071C33.0704 49.0913 33.0174 48.8395 33.0174 48.5523C33.0174 48.267 33.0695 48.0151 33.1738 47.7978C33.2796 47.5804 33.4277 47.4109 33.618 47.2897C33.8099 47.1669 34.0349 47.1055 34.293 47.1055C34.4502 47.1055 34.6024 47.1312 34.7496 47.1827C34.8969 47.2341 35.0292 47.3156 35.1467 47.4266C35.2641 47.5381 35.3568 47.6824 35.4246 47.8602C35.4941 48.0379 35.5289 48.2517 35.5289 48.5024V48.697H33.3226V48.291H35.2509L35.0002 48.4255C35.0002 48.2545 34.9738 48.1034 34.9208 47.972C34.8679 47.8409 34.7885 47.7389 34.6826 47.666C34.5784 47.591 34.4485 47.5537 34.293 47.5537C34.1375 47.5537 34.0043 47.591 33.8934 47.666C33.7842 47.7405 33.7007 47.8394 33.6428 47.9622C33.5849 48.085 33.5559 48.2196 33.5559 48.3655V48.6421C33.5559 48.8332 33.589 48.9948 33.6552 49.1278C33.7214 49.2604 33.8132 49.3617 33.9307 49.4315C34.0498 49.5013 34.1879 49.5363 34.3451 49.5363C34.4477 49.5363 34.5403 49.5214 34.623 49.4911C34.7074 49.4613 34.7802 49.4166 34.8414 49.357C34.9027 49.2969 34.949 49.2232 34.9804 49.1353L35.4916 49.2322C35.4503 49.3817 35.3775 49.5127 35.2732 49.6257C35.169 49.7387 35.0375 49.8266 34.8787 49.8898C34.7215 49.9514 34.542 49.982 34.3401 49.982ZM35.849 49.1875H36.3974C36.4074 49.302 36.4595 49.3899 36.5538 49.4515C36.6497 49.5127 36.7746 49.5445 36.9285 49.5461C37.0824 49.5445 37.2139 49.5104 37.3231 49.4441C37.4323 49.3778 37.4877 49.2722 37.4893 49.1278C37.4893 49.0447 37.4678 48.9717 37.4248 48.9085C37.3835 48.8453 37.3248 48.7963 37.2486 48.7618C37.1742 48.7249 37.0865 48.7076 36.9856 48.7092H36.5339V48.2835H36.9856C37.1362 48.2835 37.2495 48.2494 37.3256 48.1815C37.4017 48.1117 37.4397 48.0238 37.4397 47.9174C37.4397 47.8029 37.3992 47.7107 37.3181 47.6408C37.2371 47.571 37.1237 47.5373 36.9781 47.5388C36.8342 47.5373 36.7134 47.5694 36.6158 47.6357C36.5182 47.7005 36.4669 47.7844 36.462 47.8876H35.916C35.9193 47.733 35.9656 47.5969 36.055 47.4792C36.1459 47.3611 36.2692 47.2697 36.4247 47.2051C36.5803 47.1386 36.7565 47.1055 36.9533 47.1055C37.1585 47.1055 37.3363 47.1386 37.4869 47.2051C37.6374 47.2717 37.7541 47.3635 37.8368 47.4816C37.9195 47.5977 37.9601 47.7323 37.9584 47.8849C37.9601 48.0379 37.9146 48.1631 37.8219 48.2611C37.7309 48.3588 37.6126 48.4287 37.467 48.4703V48.4977C37.5746 48.506 37.6697 48.5393 37.7524 48.5974C37.8368 48.6539 37.9022 48.73 37.9485 48.8265C37.9965 48.9211 38.0204 49.029 38.0204 49.1502C38.0204 49.3193 37.9733 49.4664 37.879 49.5908C37.7863 49.7156 37.6581 49.8117 37.4943 49.88C37.3305 49.9463 37.1428 49.9804 36.931 49.982C36.7258 49.9804 36.5422 49.947 36.38 49.8823C36.2196 49.8176 36.0922 49.7262 35.9979 49.6085C35.9036 49.4888 35.8539 49.3487 35.849 49.1875ZM37.9857 50.7266V49.4566H38.2091C38.267 49.4033 38.3166 49.3401 38.3579 49.2671C38.3993 49.1926 38.4332 49.1043 38.4597 49.0031C38.4878 48.9003 38.5118 48.7814 38.5317 48.6472C38.5515 48.5126 38.5689 48.3573 38.5838 48.1815L38.6706 47.1403H40.5542V49.4566H40.9811V50.7266H40.4525V49.9247H38.5217V50.7266H37.9857ZM38.7898 49.4566H40.0281V47.6036H39.1521L39.0925 48.1815C39.0677 48.4754 39.0338 48.7292 38.9908 48.9434C38.9494 49.1561 38.8824 49.3268 38.7898 49.4566Z" fill="#BDBDBD"/>
<path d="M31.1333 53.5965V58.1638H30.3148V54.2831H28.3264V58.1638H27.5078V53.5965H31.1333ZM34.1846 56.1162V56.7784H32.3734V56.1162H34.1846ZM32.6177 54.7371V58.1638H31.845V54.7371H32.6177ZM34.7161 54.7371V58.1638H33.9433V54.7371H34.7161ZM35.2689 59.3377L35.5377 57.4862H36.3624L35.8279 59.3377H35.2689ZM38.0423 59.16V57.4988H38.3111C38.3844 57.4435 38.4454 57.3677 38.4943 57.2716C38.5432 57.1735 38.5829 57.0582 38.6134 56.9256C38.646 56.7906 38.6725 56.6403 38.6929 56.4748C38.7152 56.3092 38.7346 56.1315 38.7509 55.9416L38.8486 54.7371H41.3165V57.4988H41.8419V59.16H41.0661V58.1638H38.8333V59.16H38.0423ZM39.1388 57.4988H40.5468V55.3899H39.5481L39.4931 55.9416C39.4646 56.3033 39.4249 56.6137 39.374 56.8734C39.3251 57.1308 39.2467 57.3391 39.1388 57.4988ZM43.7234 58.2313C43.3813 58.2313 43.086 58.1599 42.8376 58.0167C42.5892 57.8715 42.3978 57.6671 42.2634 57.4035C42.131 57.1402 42.0649 56.8295 42.0649 56.4716C42.0649 56.1181 42.131 55.8086 42.2634 55.543C42.3957 55.2754 42.5821 55.067 42.8224 54.9176C43.0626 54.7685 43.3457 54.6939 43.6714 54.6939C43.8812 54.6939 44.0797 54.7277 44.2671 54.7951C44.4564 54.8626 44.6234 54.9666 44.768 55.1078C44.9146 55.2487 45.0296 55.4288 45.1131 55.6473C45.1966 55.8639 45.2383 56.1224 45.2383 56.4226V56.6741H42.4406V56.1315H44.8382L44.4625 56.2908C44.4625 56.0969 44.433 55.9282 44.374 55.785C44.3149 55.6403 44.2273 55.5269 44.1113 55.4449C43.9952 55.3633 43.8507 55.3225 43.6776 55.3225C43.5045 55.3225 43.3568 55.3633 43.2347 55.4449C43.1125 55.5269 43.0199 55.6371 42.9567 55.776C42.8936 55.9129 42.862 56.0663 42.862 56.2358V56.6129C42.862 56.8212 42.8977 57.0001 42.969 57.1492C43.0423 57.2963 43.1441 57.4086 43.2744 57.4862C43.4067 57.5639 43.5605 57.6028 43.7356 57.6028C43.8496 57.6028 43.9535 57.5867 44.0472 57.5537C44.1429 57.5212 44.2243 57.4721 44.2915 57.4066C44.3607 57.3391 44.4137 57.2563 44.4503 57.1582L45.2017 57.2473C45.1528 57.4454 45.0622 57.6192 44.9299 57.7683C44.7995 57.9155 44.6316 58.03 44.4259 58.1116C44.2223 58.1913 43.9881 58.2313 43.7234 58.2313ZM45.6751 58.1638V54.7371H46.4784V56.1224H46.7716L47.8009 54.7371H48.7661L47.5047 56.4226L48.7783 58.1638H47.8071L46.8694 56.8703H46.4784V58.1638H45.6751ZM49.9818 58.2344C49.7639 58.2344 49.5684 58.1956 49.3953 58.1179C49.2222 58.0383 49.0858 57.9217 48.986 57.7683C48.8863 57.6149 48.8364 57.4262 48.8364 57.2014C48.8364 57.0091 48.872 56.8499 48.9433 56.7231C49.0145 56.5964 49.1113 56.4952 49.2334 56.4198C49.3576 56.3441 49.4971 56.2868 49.6519 56.248C49.8066 56.2072 49.9665 56.1786 50.1314 56.1621C50.333 56.1397 50.4959 56.1205 50.6201 56.104C50.7443 56.0875 50.8339 56.0612 50.8889 56.0244C50.9459 55.9875 50.9744 55.9302 50.9744 55.8525V55.8372C50.9744 55.6716 50.9255 55.543 50.8278 55.4511C50.7301 55.3589 50.5875 55.313 50.4002 55.313C50.2027 55.313 50.0459 55.3562 49.9298 55.4417C49.8158 55.5277 49.7384 55.6289 49.6977 55.7454L48.9494 55.6379C49.0084 55.4296 49.1062 55.2558 49.2426 55.1169C49.379 54.976 49.545 54.8709 49.7405 54.8014C49.938 54.7296 50.1559 54.6939 50.3941 54.6939C50.557 54.6939 50.7199 54.7135 50.8828 54.7524C51.0457 54.7889 51.1953 54.8524 51.3318 54.9423C51.4682 55.0321 51.5771 55.1526 51.6586 55.304C51.7401 55.4551 51.7808 55.6442 51.7808 55.871V58.1638H51.008V57.6918H50.9836C50.9347 57.7856 50.8655 57.8747 50.7759 57.9582C50.6883 58.0402 50.5784 58.1065 50.446 58.1575C50.3157 58.2089 50.1609 58.2344 49.9818 58.2344ZM50.1864 57.6396C50.3493 57.6396 50.4898 57.6079 50.6079 57.5447C50.726 57.4792 50.8176 57.3933 50.8828 57.2873C50.9479 57.179 50.9805 57.0613 50.9805 56.9346V56.5332C50.954 56.5536 50.9113 56.5729 50.8522 56.5913C50.7932 56.6078 50.726 56.6231 50.6507 56.6372C50.5753 56.6517 50.501 56.6639 50.4277 56.6741C50.3564 56.6843 50.2943 56.6925 50.2414 56.6988C50.1212 56.7149 50.0133 56.7427 49.9176 56.7812C49.8239 56.8181 49.7496 56.8691 49.6946 56.9346C49.6397 57.0001 49.6122 57.0849 49.6122 57.1892C49.6122 57.3383 49.6661 57.4505 49.7741 57.5263C49.882 57.602 50.0194 57.6396 50.1864 57.6396ZM55.1039 53.4741L55.3881 53.992C55.288 54.0799 55.1762 54.1435 55.052 54.1819C54.9298 54.2208 54.7852 54.2466 54.6183 54.2588C54.4533 54.269 54.2579 54.2761 54.0318 54.28C53.7773 54.2863 53.5696 54.3345 53.4087 54.4244C53.2479 54.5142 53.1237 54.6512 53.0361 54.8352C52.9506 55.0188 52.8956 55.2538 52.8712 55.5398H52.9078C53.0137 55.3295 53.1624 55.169 53.3538 55.0588C53.5472 54.9486 53.7732 54.8932 54.0318 54.8932C54.3149 54.8932 54.5643 54.9564 54.7801 55.0831C54.998 55.2099 55.168 55.3939 55.2904 55.6352C55.4143 55.8761 55.4757 56.1684 55.4734 56.5117C55.4757 56.8632 55.4104 57.1677 55.2779 57.425C55.1457 57.6824 54.9583 57.8817 54.716 58.023C54.4737 58.1619 54.1876 58.2313 53.8577 58.2313C53.3589 58.2313 52.9628 58.0689 52.6696 57.744C52.3784 57.4168 52.2318 56.9397 52.2298 56.3123V56.0091C52.2318 55.2016 52.3815 54.6009 52.6788 54.2066C52.9781 53.8104 53.422 53.6067 54.0104 53.5965C54.1856 53.5926 54.3424 53.5914 54.4808 53.5934C54.6193 53.5957 54.7404 53.5895 54.8443 53.5753C54.9481 53.5589 55.0347 53.5251 55.1039 53.4741ZM53.8608 57.5875C54.0257 57.5855 54.1672 57.5427 54.2854 57.4588C54.4055 57.3728 54.4981 57.2512 54.5633 57.0939C54.6285 56.9366 54.66 56.7498 54.658 56.5332C54.66 56.3206 54.6285 56.1397 54.5633 55.9906C54.4981 55.8392 54.4055 55.725 54.2854 55.6473C54.1652 55.5696 54.0206 55.5308 53.8516 55.5308C53.7274 55.5308 53.6164 55.5532 53.5187 55.5983C53.4209 55.641 53.3365 55.7054 53.2652 55.7913C53.1959 55.8772 53.143 55.9824 53.1063 56.1071C53.0697 56.2315 53.0504 56.3735 53.0483 56.5332C53.0463 56.8538 53.1176 57.1092 53.2621 57.2995C53.4067 57.4894 53.6063 57.5855 53.8608 57.5875ZM55.9194 59.4452V54.7371H56.7076V55.304H56.7565C56.7971 55.2224 56.855 55.1345 56.9305 55.0404C57.0059 54.9442 57.1076 54.8626 57.2358 54.7951C57.366 54.7277 57.5321 54.6939 57.7339 54.6939C57.9962 54.6939 58.2335 54.7614 58.4454 54.8964C58.6573 55.0313 58.825 55.2295 58.9494 55.4908C59.0756 55.7525 59.1386 56.0742 59.1386 56.4563C59.1386 56.8326 59.0776 57.1523 58.9556 57.416C58.8332 57.6797 58.6651 57.8809 58.4517 58.0198C58.2398 58.1568 57.9993 58.225 57.7307 58.225C57.5372 58.225 57.3754 58.1925 57.2452 58.1269C57.1165 58.0595 57.0129 57.9798 56.9336 57.888C56.8562 57.7938 56.7971 57.7052 56.7565 57.6212H56.7229V59.4452H55.9194ZM57.5106 57.5631C57.6877 57.5631 57.8355 57.5149 57.9536 57.4188C58.0736 57.323 58.1643 57.1912 58.2253 57.0237C58.2867 56.8561 58.3172 56.6658 58.3172 56.4536C58.3172 56.2409 58.2867 56.0518 58.2253 55.8863C58.1643 55.7207 58.0748 55.5912 57.9567 55.497C57.8386 55.4029 57.6901 55.3562 57.5106 55.3562C57.3378 55.3562 57.1912 55.4009 57.0708 55.4908C56.9527 55.581 56.862 55.7085 56.7991 55.8741C56.7381 56.0377 56.7076 56.2307 56.7076 56.4536C56.7076 56.6741 56.7381 56.8683 56.7991 57.0358C56.862 57.2014 56.9539 57.3313 57.0739 57.425C57.194 57.5168 57.3398 57.5631 57.5106 57.5631ZM60.1312 55.8557H61.1364C61.5699 55.8537 61.9058 55.96 62.1443 56.1746C62.3843 56.3869 62.5047 56.6651 62.5047 57.0084C62.5047 57.2332 62.4508 57.4321 62.3429 57.6059C62.235 57.7797 62.079 57.9166 61.8753 58.0167C61.6716 58.1148 61.4253 58.1638 61.1364 58.1638H59.5847V54.7371H60.3576V57.5015H61.1364C61.3092 57.5015 61.4519 57.4576 61.5637 57.3697C61.6778 57.2799 61.7349 57.1633 61.7349 57.0205C61.7349 56.8714 61.6778 56.7498 61.5637 56.6556C61.4519 56.5619 61.3092 56.5156 61.1364 56.5179H60.1312V55.8557ZM62.9109 59.3377L63.1795 57.4862H64.0044L63.4696 59.3377H62.9109ZM65.8951 57.3179V56.6588L67.8284 53.5965H68.3722V54.5346H68.0391L66.738 56.6007V56.6372H69.4348V57.3179H65.8951ZM68.0634 58.1638V57.1186L68.0759 56.8212V53.5965H68.8515V58.1638H68.0634Z" fill="#6F00FF"/>
<path d="M109.585 49.9247V46.2139H110.942C111.204 46.2139 111.421 46.2571 111.593 46.3434C111.765 46.4297 111.893 46.5468 111.977 46.6945C112.063 46.8406 112.106 47.005 112.106 47.1877C112.106 47.3419 112.077 47.4725 112.019 47.5785C111.963 47.6848 111.888 47.7696 111.793 47.8327C111.699 47.8959 111.595 47.9422 111.481 47.972V48.0069C111.605 48.0136 111.726 48.0536 111.843 48.1266C111.961 48.1996 112.057 48.3035 112.134 48.4377C112.211 48.5707 112.25 48.7335 112.25 48.9262C112.25 49.1153 112.206 49.2856 112.116 49.4366C112.028 49.5861 111.893 49.7046 111.709 49.7929C111.526 49.8808 111.29 49.9247 111.002 49.9247H109.585ZM110.143 49.4464H110.947C111.215 49.4464 111.407 49.3942 111.523 49.2895C111.639 49.1851 111.697 49.0545 111.697 48.8987C111.697 48.7806 111.667 48.6735 111.607 48.5774C111.55 48.4793 111.466 48.4012 111.357 48.3432C111.248 48.2851 111.119 48.2561 110.97 48.2561H110.143V49.4464ZM110.143 47.8202H110.893C111.017 47.8202 111.129 47.7962 111.231 47.748C111.331 47.6997 111.411 47.6318 111.469 47.544C111.528 47.4541 111.558 47.3505 111.558 47.2325C111.558 47.0797 111.504 46.9519 111.397 46.849C111.291 46.7444 111.128 46.6921 110.908 46.6921H110.143V47.8202ZM113.062 48.1015H113.868C114.206 48.0999 114.466 48.1839 114.647 48.3534C114.831 48.5225 114.924 48.741 114.925 49.0082C114.925 49.1824 114.884 49.3385 114.802 49.4762C114.719 49.6144 114.599 49.7238 114.441 49.805C114.284 49.8847 114.093 49.9247 113.868 49.9247H112.657V47.1403H113.181V49.4566H113.868C114.022 49.4566 114.149 49.4166 114.248 49.337C114.347 49.2558 114.398 49.151 114.4 49.0231C114.398 48.8885 114.347 48.7791 114.248 48.6943C114.149 48.6096 114.022 48.5684 113.868 48.5699H113.062V48.1015ZM115.32 49.9247V47.1403H115.856V49.9247H115.32ZM117.564 49.982C117.292 49.982 117.057 49.9231 116.859 49.805C116.66 49.6873 116.507 49.5214 116.4 49.3071C116.294 49.0914 116.241 48.8395 116.241 48.5523C116.241 48.267 116.293 48.0152 116.397 47.7978C116.503 47.5804 116.651 47.4109 116.842 47.2897C117.033 47.1669 117.258 47.1055 117.516 47.1055C117.673 47.1055 117.826 47.1312 117.973 47.1827C118.12 47.2341 118.252 47.3156 118.37 47.4266C118.487 47.5381 118.58 47.6825 118.648 47.8602C118.717 48.0379 118.752 48.2517 118.752 48.5025V48.6971H116.546V48.291H118.474L118.224 48.4256C118.224 48.2545 118.197 48.1034 118.144 47.972C118.091 47.841 118.012 47.7389 117.906 47.666C117.802 47.591 117.672 47.5538 117.516 47.5538C117.361 47.5538 117.228 47.591 117.117 47.666C117.008 47.7405 116.924 47.8394 116.866 47.9622C116.808 48.085 116.779 48.2196 116.779 48.3655V48.6421C116.779 48.8332 116.813 48.9948 116.879 49.1278C116.945 49.2605 117.037 49.3617 117.154 49.4315C117.273 49.5014 117.411 49.5363 117.568 49.5363C117.671 49.5363 117.764 49.5214 117.846 49.4912C117.931 49.4613 118.003 49.4166 118.065 49.357C118.126 49.2969 118.172 49.2232 118.204 49.1353L118.715 49.2322C118.674 49.3817 118.601 49.5127 118.496 49.6257C118.392 49.7387 118.261 49.8266 118.102 49.8898C117.945 49.9514 117.765 49.982 117.564 49.982ZM119.072 49.1875H119.621C119.631 49.302 119.683 49.3899 119.777 49.4515C119.873 49.5127 119.998 49.5445 120.152 49.5461C120.306 49.5445 120.437 49.5104 120.547 49.4441C120.656 49.3778 120.711 49.2722 120.713 49.1278C120.713 49.0447 120.691 48.9717 120.648 48.9085C120.607 48.8454 120.548 48.7963 120.472 48.7618C120.398 48.7249 120.31 48.7076 120.209 48.7092H119.757V48.2835H120.209C120.359 48.2835 120.473 48.2494 120.549 48.1815C120.625 48.1117 120.663 48.0238 120.663 47.9175C120.663 47.8029 120.622 47.7107 120.542 47.6409C120.461 47.571 120.347 47.5373 120.201 47.5389C120.058 47.5373 119.937 47.5695 119.839 47.6358C119.742 47.7005 119.69 47.7845 119.685 47.8876H119.14C119.143 47.7331 119.189 47.5969 119.278 47.4792C119.369 47.3611 119.493 47.2697 119.648 47.2051C119.804 47.1387 119.98 47.1055 120.177 47.1055C120.382 47.1055 120.56 47.1387 120.71 47.2051C120.861 47.2717 120.977 47.3635 121.06 47.4816C121.143 47.5977 121.184 47.7323 121.182 47.8849C121.184 48.0379 121.138 48.1631 121.045 48.2612C120.954 48.3589 120.836 48.4287 120.69 48.4703V48.4977C120.798 48.506 120.893 48.5393 120.976 48.5974C121.06 48.6539 121.126 48.73 121.172 48.8265C121.22 48.9211 121.244 49.029 121.244 49.1502C121.244 49.3193 121.197 49.4664 121.103 49.5908C121.01 49.7156 120.882 49.8117 120.718 49.88C120.554 49.9463 120.366 49.9804 120.154 49.982C119.949 49.9804 119.765 49.9471 119.604 49.8823C119.443 49.8176 119.315 49.7262 119.221 49.6085C119.127 49.4888 119.077 49.3487 119.072 49.1875ZM121.209 50.7267V49.4566H121.433C121.49 49.4033 121.54 49.3401 121.581 49.2671C121.623 49.1926 121.657 49.1043 121.683 49.0031C121.711 48.9003 121.735 48.7814 121.755 48.6472C121.775 48.5127 121.792 48.3573 121.807 48.1815L121.894 47.1403H123.777V49.4566H124.204V50.7267H123.676V49.9247H121.745V50.7267H121.209ZM122.013 49.4566H123.252V47.6036H122.376L122.316 48.1815C122.291 48.4754 122.257 48.7292 122.214 48.9434C122.173 49.1561 122.106 49.3268 122.013 49.4566Z" fill="#BDBDBD"/>
<path d="M111.469 58.225C111.07 58.225 110.712 58.132 110.397 57.9461C110.083 57.7601 109.836 57.4925 109.654 57.1429C109.475 56.7937 109.386 56.3735 109.386 55.8831C109.386 55.3907 109.476 54.9697 109.657 54.6206C109.841 54.269 110.089 54.0003 110.403 53.8143C110.719 53.6283 111.074 53.5353 111.469 53.5353C111.719 53.5353 111.953 53.571 112.171 53.6424C112.391 53.7142 112.587 53.8194 112.758 53.9583C112.929 54.0952 113.068 54.2639 113.176 54.464C113.286 54.6621 113.358 54.8881 113.393 55.1416H112.562C112.54 55.0027 112.496 54.8799 112.431 54.7736C112.368 54.6672 112.288 54.5774 112.192 54.504C112.099 54.4283 111.992 54.3722 111.872 54.3353C111.752 54.2965 111.622 54.2772 111.484 54.2772C111.236 54.2772 111.016 54.3396 110.824 54.464C110.633 54.5868 110.483 54.7685 110.375 55.0098C110.267 55.2487 110.213 55.5398 110.213 55.8831C110.213 56.2307 110.267 56.5238 110.375 56.7631C110.485 57.0001 110.635 57.1798 110.824 57.3026C111.016 57.4231 111.235 57.4835 111.481 57.4835C111.617 57.4835 111.745 57.4658 111.863 57.4313C111.981 57.3944 112.088 57.3403 112.183 57.2689C112.281 57.1951 112.362 57.1072 112.425 57.0052C112.49 56.9009 112.536 56.7812 112.562 56.6466H113.393C113.363 56.8652 113.295 57.0703 113.191 57.2626C113.09 57.4525 112.955 57.6204 112.788 57.7652C112.623 57.9084 112.43 58.0206 112.208 58.1026C111.986 58.1842 111.74 58.225 111.469 58.225ZM113.888 59.4452V54.7371H114.676V55.304H114.725C114.765 55.2224 114.824 55.1345 114.899 55.0404C114.974 54.9442 115.076 54.8626 115.204 54.7951C115.335 54.7277 115.5 54.6939 115.702 54.6939C115.965 54.6939 116.202 54.7614 116.414 54.8964C116.625 55.0313 116.794 55.2295 116.918 55.4908C117.044 55.7525 117.107 56.0742 117.107 56.4563C117.107 56.8326 117.046 57.1523 116.924 57.416C116.802 57.6797 116.634 57.8809 116.42 58.0198C116.208 58.1568 115.968 58.225 115.699 58.225C115.505 58.225 115.344 58.1925 115.213 58.1269C115.085 58.0595 114.981 57.9798 114.902 57.888C114.824 57.7938 114.765 57.7052 114.725 57.6212H114.691V59.4452H113.888ZM115.479 57.5631C115.656 57.5631 115.804 57.5149 115.922 57.4188C116.042 57.323 116.133 57.1912 116.194 57.0237C116.255 56.8561 116.285 56.6658 116.285 56.4536C116.285 56.2409 116.255 56.0518 116.194 55.8863C116.133 55.7207 116.043 55.5912 115.925 55.497C115.807 55.4029 115.658 55.3562 115.479 55.3562C115.306 55.3562 115.159 55.4009 115.039 55.4908C114.921 55.581 114.831 55.7085 114.767 55.8741C114.706 56.0377 114.676 56.2307 114.676 56.4536C114.676 56.6741 114.706 56.8683 114.767 57.0358C114.831 57.2014 114.922 57.3313 115.043 57.425C115.163 57.5168 115.308 57.5631 115.479 57.5631ZM117.513 59.3377L117.782 57.4862H118.607L118.072 59.3377H117.513ZM120.287 59.16V57.4988H120.555C120.629 57.4435 120.69 57.3677 120.739 57.2716C120.788 57.1735 120.827 57.0582 120.858 56.9256C120.89 56.7906 120.917 56.6403 120.937 56.4748C120.96 56.3092 120.979 56.1315 120.995 55.9416L121.093 54.7371H123.561V57.4988H124.086V59.16H123.31V58.1638H121.078V59.16H120.287ZM121.383 57.4988H122.791V55.3899H121.792L121.738 55.9416C121.709 56.3033 121.669 56.6137 121.618 56.8734C121.57 57.1308 121.491 57.3391 121.383 57.4988ZM125.968 58.2313C125.626 58.2313 125.331 58.1599 125.082 58.0167C124.834 57.8715 124.642 57.6671 124.508 57.4035C124.375 57.1402 124.309 56.8295 124.309 56.4716C124.309 56.1181 124.375 55.8086 124.508 55.543C124.64 55.2754 124.827 55.067 125.067 54.9176C125.307 54.7685 125.59 54.6939 125.916 54.6939C126.125 54.6939 126.324 54.7277 126.511 54.7951C126.701 54.8626 126.868 54.9666 127.012 55.1078C127.159 55.2487 127.274 55.4288 127.358 55.6473C127.441 55.8639 127.483 56.1224 127.483 56.4226V56.6741H124.685V56.1315H127.082L126.707 56.2908C126.707 56.0969 126.677 55.9282 126.618 55.785C126.559 55.6403 126.472 55.5269 126.356 55.4449C126.24 55.3633 126.095 55.3225 125.922 55.3225C125.749 55.3225 125.601 55.3633 125.479 55.4449C125.357 55.5269 125.264 55.6371 125.201 55.776C125.138 55.9129 125.107 56.0663 125.107 56.2358V56.6129C125.107 56.8212 125.142 57.0001 125.213 57.1492C125.287 57.2963 125.388 57.4086 125.519 57.4862C125.651 57.5639 125.805 57.6028 125.98 57.6028C126.094 57.6028 126.198 57.5867 126.292 57.5537C126.387 57.5212 126.469 57.4721 126.536 57.4066C126.605 57.3391 126.658 57.2563 126.695 57.1582L127.446 57.2473C127.397 57.4454 127.306 57.6192 127.174 57.7683C127.044 57.9155 126.876 58.03 126.67 58.1116C126.467 58.1913 126.232 58.2313 125.968 58.2313ZM127.919 58.1638V54.7371H128.723V56.1224H129.016L130.046 54.7371H131.01L129.749 56.4226L131.023 58.1638H130.051L129.114 56.8703H128.723V58.1638H127.919ZM132.226 58.2344C132.008 58.2344 131.813 58.1956 131.64 58.1179C131.467 58.0383 131.33 57.9217 131.23 57.7683C131.131 57.6149 131.081 57.4262 131.081 57.2014C131.081 57.0091 131.116 56.8499 131.187 56.7231C131.259 56.5964 131.356 56.4952 131.478 56.4198C131.602 56.3441 131.741 56.2868 131.896 56.248C132.051 56.2072 132.211 56.1786 132.376 56.1621C132.577 56.1397 132.74 56.1205 132.864 56.104C132.989 56.0875 133.078 56.0612 133.133 56.0244C133.19 55.9875 133.219 55.9302 133.219 55.8525V55.8372C133.219 55.6716 133.17 55.543 133.072 55.4511C132.975 55.3589 132.832 55.313 132.645 55.313C132.447 55.313 132.29 55.3562 132.174 55.4417C132.06 55.5277 131.983 55.6289 131.942 55.7454L131.194 55.6379C131.253 55.4296 131.351 55.2558 131.487 55.1169C131.623 54.976 131.789 54.8709 131.985 54.8014C132.182 54.7296 132.4 54.6939 132.638 54.6939C132.801 54.6939 132.964 54.7135 133.127 54.7524C133.29 54.7889 133.44 54.8524 133.576 54.9423C133.713 55.0321 133.821 55.1526 133.903 55.304C133.984 55.4551 134.025 55.6442 134.025 55.871V58.1638H133.253V57.6918H133.228C133.179 57.7856 133.11 57.8747 133.02 57.9582C132.933 58.0402 132.823 58.1065 132.69 58.1575C132.56 58.2089 132.405 58.2344 132.226 58.2344ZM132.431 57.6396C132.594 57.6396 132.734 57.6079 132.852 57.5447C132.97 57.4792 133.062 57.3933 133.127 57.2873C133.192 57.179 133.225 57.0613 133.225 56.9346V56.5332C133.199 56.5536 133.156 56.5729 133.097 56.5913C133.037 56.6078 132.97 56.6231 132.895 56.6372C132.82 56.6517 132.745 56.6639 132.672 56.6741C132.601 56.6843 132.539 56.6925 132.486 56.6988C132.365 56.7149 132.258 56.7427 132.162 56.7812C132.068 56.8181 131.994 56.8691 131.939 56.9346C131.884 57.0001 131.856 57.0849 131.856 57.1892C131.856 57.3383 131.91 57.4505 132.018 57.5263C132.126 57.602 132.264 57.6396 132.431 57.6396ZM137.348 53.4741L137.632 53.992C137.533 54.0799 137.421 54.1435 137.296 54.1819C137.174 54.2208 137.03 54.2466 136.863 54.2588C136.698 54.269 136.502 54.2761 136.276 54.28C136.022 54.2863 135.814 54.3345 135.653 54.4244C135.492 54.5142 135.368 54.6512 135.28 54.8352C135.195 55.0188 135.14 55.2538 135.115 55.5398H135.152C135.258 55.3295 135.407 55.169 135.598 55.0588C135.791 54.9486 136.018 54.8932 136.276 54.8932C136.559 54.8932 136.809 54.9564 137.024 55.0831C137.242 55.2099 137.412 55.3939 137.535 55.6352C137.659 55.8761 137.72 56.1684 137.718 56.5117C137.72 56.8632 137.655 57.1677 137.523 57.425C137.39 57.6824 137.203 57.8817 136.96 58.023C136.718 58.1619 136.432 58.2313 136.102 58.2313C135.603 58.2313 135.207 58.0689 134.914 57.744C134.623 57.4168 134.476 56.9397 134.474 56.3123V56.0091C134.476 55.2016 134.626 54.6009 134.923 54.2066C135.223 53.8104 135.666 53.6067 136.255 53.5965C136.43 53.5926 136.587 53.5914 136.725 53.5934C136.864 53.5957 136.985 53.5895 137.089 53.5753C137.193 53.5589 137.279 53.5251 137.348 53.4741ZM136.105 57.5875C136.27 57.5855 136.411 57.5427 136.53 57.4588C136.65 57.3728 136.743 57.2512 136.807 57.0939C136.873 56.9366 136.904 56.7498 136.903 56.5332C136.904 56.3206 136.873 56.1397 136.807 55.9906C136.743 55.8392 136.65 55.725 136.53 55.6473C136.41 55.5696 136.265 55.5308 136.096 55.5308C135.972 55.5308 135.861 55.5532 135.763 55.5983C135.666 55.641 135.581 55.7054 135.51 55.7913C135.44 55.8772 135.388 55.9824 135.351 56.1071C135.314 56.2315 135.295 56.3735 135.293 56.5332C135.291 56.8538 135.362 57.1092 135.506 57.2995C135.651 57.4894 135.85 57.5855 136.105 57.5875ZM138.164 59.4452V54.7371H138.952V55.304H139.001C139.041 55.2224 139.099 55.1345 139.175 55.0404C139.25 54.9442 139.352 54.8626 139.48 54.7951C139.611 54.7277 139.776 54.6939 139.978 54.6939C140.241 54.6939 140.478 54.7614 140.69 54.8964C140.902 55.0313 141.069 55.2295 141.194 55.4908C141.32 55.7525 141.383 56.0742 141.383 56.4563C141.383 56.8326 141.322 57.1523 141.2 57.416C141.078 57.6797 140.91 57.8809 140.696 58.0198C140.484 58.1568 140.244 58.225 139.975 58.225C139.782 58.225 139.62 58.1925 139.489 58.1269C139.361 58.0595 139.257 57.9798 139.178 57.888C139.1 57.7938 139.041 57.7052 139.001 57.6212H138.967V59.4452H138.164ZM139.755 57.5631C139.932 57.5631 140.08 57.5149 140.198 57.4188C140.318 57.323 140.409 57.1912 140.47 57.0237C140.531 56.8561 140.561 56.6658 140.561 56.4536C140.561 56.2409 140.531 56.0518 140.47 55.8863C140.409 55.7207 140.319 55.5912 140.201 55.497C140.083 55.4029 139.934 55.3562 139.755 55.3562C139.582 55.3562 139.436 55.4009 139.315 55.4908C139.197 55.581 139.107 55.7085 139.043 55.8741C138.982 56.0377 138.952 56.2307 138.952 56.4536C138.952 56.6741 138.982 56.8683 139.043 57.0358C139.107 57.2014 139.198 57.3313 139.318 57.425C139.439 57.5168 139.584 57.5631 139.755 57.5631ZM142.376 55.8557H143.381C143.814 55.8537 144.15 55.96 144.389 56.1746C144.629 56.3869 144.749 56.6651 144.749 57.0084C144.749 57.2332 144.695 57.4321 144.587 57.6059C144.479 57.7797 144.323 57.9166 144.12 58.0167C143.916 58.1148 143.67 58.1638 143.381 58.1638H141.829V54.7371H142.602V57.5015H143.381C143.554 57.5015 143.696 57.4576 143.808 57.3697C143.922 57.2799 143.979 57.1633 143.979 57.0205C143.979 56.8714 143.922 56.7498 143.808 56.6556C143.696 56.5619 143.554 56.5156 143.381 56.5179H142.376V55.8557ZM145.155 59.3377L145.424 57.4862H146.249L145.714 59.3377H145.155ZM149.889 58.225C149.672 58.225 149.459 58.1881 149.251 58.1148C149.043 58.0391 148.857 57.9166 148.692 57.7468C148.527 57.5753 148.396 57.3473 148.298 57.0633C148.2 56.7792 148.152 56.4277 148.152 56.0091C148.152 55.6187 148.193 55.2715 148.277 54.9666C148.36 54.6602 148.48 54.4008 148.634 54.1882C148.791 53.9755 148.978 53.8143 149.196 53.704C149.416 53.5914 149.663 53.5353 149.935 53.5353C150.222 53.5353 150.476 53.5926 150.696 53.7072C150.918 53.8194 151.097 53.9728 151.233 54.1666C151.37 54.3608 151.454 54.5817 151.487 54.8289H150.677C150.637 54.6531 150.552 54.5131 150.424 54.4091C150.296 54.3047 150.133 54.2525 149.935 54.2525C149.622 54.2525 149.38 54.3895 149.208 54.6633C149.039 54.9372 148.955 55.3154 148.955 55.7976H148.985C149.059 55.6665 149.152 55.5543 149.267 55.4602C149.382 55.3644 149.513 55.2919 149.657 55.2428C149.804 55.1914 149.959 55.1659 150.122 55.1659C150.388 55.1659 150.627 55.2303 150.839 55.3589C151.051 55.4857 151.219 55.6614 151.343 55.8863C151.468 56.1091 151.53 56.3645 151.53 56.6525C151.53 56.953 151.461 57.2218 151.325 57.4588C151.188 57.6957 150.997 57.8829 150.751 58.0198C150.504 58.1568 150.217 58.225 149.889 58.225ZM149.883 57.5569C150.046 57.5569 150.191 57.518 150.317 57.4403C150.445 57.3607 150.546 57.2544 150.62 57.1217C150.695 56.9868 150.733 56.8365 150.733 56.6709C150.733 56.5077 150.696 56.3606 150.622 56.2296C150.551 56.0969 150.452 55.9914 150.326 55.9141C150.202 55.8364 150.059 55.7976 149.896 55.7976C149.737 55.7976 149.592 55.8372 149.462 55.9169C149.333 55.9965 149.232 56.1028 149.156 56.2358C149.081 56.3684 149.043 56.5148 149.043 56.6741C149.043 56.8334 149.08 56.9805 149.154 57.1155C149.227 57.2485 149.326 57.3556 149.453 57.4372C149.579 57.5168 149.722 57.5569 149.883 57.5569Z" fill="#6F00FF"/>
<path d="M87.3877 52.2788H91.0365M91.0365 52.2788L89.2119 50.4478M91.0365 52.2788L89.2119 54.1099" stroke="#BDBDBD" stroke-linecap="round" stroke-linejoin="round"/>
</g>
<defs>
<filter id="filter0_d_5403_3149" x="0" y="0" width="179" height="114" filterUnits="userSpaceOnUse" color-interpolation-filters="sRGB">
<feFlood flood-opacity="0" result="BackgroundImageFix"/>
<feColorMatrix in="SourceAlpha" type="matrix" values="0 0 0 0 0 0 0 0 0 0 0 0 0 0 0 0 0 0 127 0" result="hardAlpha"/>
<feOffset dy="8"/>
<feGaussianBlur stdDeviation="8"/>
<feComposite in2="hardAlpha" operator="out"/>
<feColorMatrix type="matrix" values="0 0 0 0 0.188235 0 0 0 0 0.188235 0 0 0 0 0.188235 0 0 0 0.08 0"/>
<feBlend mode="normal" in2="BackgroundImageFix" result="effect1_dropShadow_5403_3149"/>
<feBlend mode="normal" in="SourceGraphic" in2="effect1_dropShadow_5403_3149" result="shape"/>
</filter>
<clipPath id="clip0_5403_3149">
<rect width="147" height="82" fill="white" transform="translate(16 8)"/>
</clipPath>
</defs>
</svg>
