<svg width="245" height="136" viewBox="0 0 245 136" fill="none" xmlns="http://www.w3.org/2000/svg">
    <path d="M234.094 0.557617H10.5962C4.83832 0.557617 0.170654 5.219 0.170654 10.9691V125.495C0.170654 131.246 4.83832 135.907 10.5962 135.907H234.094C239.851 135.907 244.519 131.246 244.519 125.495V10.9691C244.519 5.219 239.851 0.557617 234.094 0.557617Z" fill="#F8F8F8"/>
    <path d="M226.275 99.4668H18.4156C14.0972 99.4668 10.5964 102.963 10.5964 107.275V117.687C10.5964 121.999 14.0972 125.496 18.4156 125.496H226.275C230.593 125.496 234.094 121.999 234.094 117.687V107.275C234.094 102.963 230.593 99.4668 226.275 99.4668Z" fill="white"/>
    <path d="M112.897 102.72H22.9767C20.4576 102.72 18.4155 104.76 18.4155 107.275V117.687C18.4155 120.203 20.4576 122.242 22.9767 122.242H112.897C115.416 122.242 117.458 120.203 117.458 117.687V107.275C117.458 104.76 115.416 102.72 112.897 102.72Z" fill="#F6EFFF"/>
    <path d="M56.6359 109.58V115.735H55.7095V110.374H52.81V115.735H51.8835V109.58H56.6359ZM59.5726 115.83C59.1396 115.83 58.7605 115.731 58.4351 115.532C58.1125 115.334 57.8616 115.056 57.6824 114.698C57.5059 114.34 57.4177 113.925 57.4177 113.451C57.4177 112.971 57.5059 112.553 57.6824 112.195C57.8616 111.834 58.1125 111.555 58.4351 111.356C58.7605 111.158 59.1396 111.059 59.5726 111.059C60.0082 111.059 60.3874 111.158 60.71 111.356C61.0326 111.555 61.2835 111.834 61.4628 112.195C61.642 112.553 61.7316 112.971 61.7316 113.451C61.7316 113.925 61.642 114.34 61.4628 114.698C61.2835 115.056 61.0326 115.334 60.71 115.532C60.3874 115.731 60.0082 115.83 59.5726 115.83ZM59.5726 115.074C59.8566 115.074 60.091 114.999 60.2757 114.851C60.4604 114.702 60.5969 114.505 60.6852 114.26C60.7761 114.012 60.8217 113.742 60.8217 113.451C60.8217 113.153 60.7761 112.881 60.6852 112.633C60.5969 112.385 60.4604 112.186 60.2757 112.038C60.091 111.889 59.8566 111.815 59.5726 111.815C59.2913 111.815 59.0583 111.889 58.8735 112.038C58.6915 112.186 58.5551 112.385 58.4641 112.633C58.3731 112.881 58.3276 113.153 58.3276 113.451C58.3276 113.742 58.3731 114.012 58.4641 114.26C58.5551 114.505 58.6915 114.702 58.8735 114.851C59.0583 114.999 59.2913 115.074 59.5726 115.074ZM63.812 117.065V114.959H64.1843C64.2808 114.87 64.3636 114.765 64.4325 114.644C64.5014 114.521 64.5579 114.374 64.602 114.206C64.649 114.036 64.6889 113.839 64.722 113.616C64.7551 113.393 64.784 113.135 64.8089 112.844L64.9536 111.117H68.093V114.959H68.8045V117.065H67.9235V115.735H64.7054V117.065H63.812ZM65.1522 114.959H67.2159V111.885H65.7563L65.6566 112.844C65.6156 113.331 65.5589 113.752 65.4872 114.107C65.4182 114.46 65.3067 114.743 65.1522 114.959ZM72.4567 113.038V113.814H69.9539V113.038H72.4567ZM70.2022 111.117V115.735H69.3297V111.117H70.2022ZM73.0855 111.117V115.735H72.2084V111.117H73.0855ZM76.6999 115.735V111.885H75.5876C75.3257 111.888 75.1217 111.95 74.9751 112.071C74.8292 112.192 74.7575 112.352 74.7601 112.55C74.7575 112.745 74.8239 112.904 74.9588 113.025C75.0937 113.144 75.284 113.203 75.5296 113.203H76.9566V113.93H75.5296C75.1875 113.93 74.893 113.873 74.6448 113.761C74.3991 113.647 74.2088 113.487 74.074 113.277C73.9417 113.068 73.8765 112.822 73.8791 112.538C73.8765 112.249 73.9443 111.998 74.0818 111.786C74.2199 111.574 74.4174 111.41 74.6734 111.294C74.9302 111.176 75.2345 111.117 75.5876 111.117H77.5437V115.735H76.6999ZM73.6641 115.735L74.9673 113.401H75.8893L74.5822 115.735H73.6641ZM80.9933 114.623L82.4867 111.117H83.2602L81.3282 115.735H80.6583L78.7641 111.117H79.5291L80.9933 114.623ZM79.277 111.117V115.735H78.4045V111.117H79.277ZM82.7304 115.735V111.117H83.599V115.735H82.7304Z" fill="#6F00FF"/>
    <path d="M163.498 109.58V115.735H162.571V110.374H159.672V115.735H158.745V109.58H163.498ZM166.435 115.83C166.001 115.83 165.623 115.731 165.297 115.532C164.974 115.334 164.724 115.056 164.544 114.698C164.368 114.34 164.28 113.925 164.28 113.451C164.28 112.971 164.368 112.553 164.544 112.195C164.724 111.834 164.974 111.555 165.297 111.356C165.623 111.158 166.001 111.059 166.435 111.059C166.87 111.059 167.249 111.158 167.572 111.356C167.895 111.555 168.146 111.834 168.325 112.195C168.504 112.553 168.593 112.971 168.593 113.451C168.593 113.925 168.504 114.34 168.325 114.698C168.146 115.056 167.895 115.334 167.572 115.532C167.249 115.731 166.87 115.83 166.435 115.83ZM166.435 115.074C166.719 115.074 166.953 114.999 167.138 114.851C167.322 114.702 167.459 114.505 167.547 114.26C167.638 114.012 167.684 113.742 167.684 113.451C167.684 113.153 167.638 112.881 167.547 112.633C167.459 112.385 167.322 112.186 167.138 112.038C166.953 111.889 166.719 111.815 166.435 111.815C166.153 111.815 165.92 111.889 165.735 112.038C165.554 112.186 165.417 112.385 165.326 112.633C165.235 112.881 165.189 113.153 165.189 113.451C165.189 113.742 165.235 114.012 165.326 114.26C165.417 114.505 165.554 114.702 165.735 114.851C165.92 114.999 166.153 115.074 166.435 115.074ZM174.835 111.117V115.735H173.954V111.117H174.835ZM174.454 113.265V114.041C174.316 114.094 174.169 114.142 174.012 114.186C173.858 114.23 173.695 114.264 173.524 114.289C173.356 114.311 173.178 114.322 172.99 114.322C172.42 114.322 171.966 114.183 171.629 113.905C171.293 113.624 171.126 113.196 171.129 112.62V111.109H171.997V112.62C172.001 112.835 172.042 113.012 172.122 113.149C172.202 113.287 172.315 113.387 172.461 113.451C172.61 113.514 172.786 113.546 172.99 113.546C173.261 113.548 173.512 113.524 173.743 113.471C173.975 113.419 174.211 113.35 174.454 113.265ZM177.035 115.834C176.743 115.834 176.478 115.78 176.241 115.673C176.004 115.562 175.816 115.403 175.679 115.193C175.541 114.985 175.472 114.729 175.472 114.429C175.472 114.168 175.522 113.954 175.621 113.789C175.723 113.621 175.859 113.488 176.03 113.388C176.201 113.289 176.392 113.215 176.601 113.166C176.811 113.116 177.026 113.077 177.247 113.05C177.525 113.019 177.75 112.993 177.92 112.971C178.092 112.949 178.215 112.915 178.293 112.868C178.372 112.818 178.413 112.74 178.413 112.633V112.612C178.413 112.35 178.338 112.148 178.189 112.005C178.043 111.862 177.825 111.79 177.536 111.79C177.235 111.79 176.997 111.856 176.82 111.989C176.646 112.118 176.527 112.265 176.46 112.43L175.612 112.236C175.715 111.955 175.862 111.73 176.055 111.558C176.251 111.385 176.474 111.259 176.725 111.178C176.979 111.099 177.243 111.059 177.52 111.059C177.704 111.059 177.899 111.081 178.107 111.125C178.313 111.166 178.508 111.245 178.69 111.361C178.874 111.473 179.025 111.636 179.141 111.848C179.257 112.06 179.314 112.334 179.314 112.67V115.735H178.433V115.103H178.401C178.345 115.216 178.258 115.329 178.14 115.441C178.024 115.555 177.875 115.648 177.693 115.722C177.511 115.797 177.291 115.834 177.035 115.834ZM177.23 115.115C177.48 115.115 177.694 115.067 177.871 114.971C178.047 114.871 178.182 114.742 178.276 114.582C178.37 114.422 178.417 114.253 178.417 114.074V113.476C178.384 113.505 178.322 113.535 178.23 113.562C178.14 113.589 178.036 113.613 177.92 113.632C177.804 113.652 177.692 113.669 177.581 113.686C177.471 113.7 177.379 113.711 177.304 113.719C177.131 113.744 176.972 113.783 176.828 113.835C176.685 113.884 176.57 113.958 176.481 114.058C176.396 114.154 176.353 114.282 176.353 114.442C176.353 114.665 176.435 114.833 176.601 114.946C176.766 115.059 176.976 115.115 177.23 115.115ZM182.119 115.83C181.675 115.83 181.292 115.728 180.968 115.524C180.646 115.32 180.398 115.039 180.224 114.681C180.05 114.323 179.964 113.913 179.964 113.451C179.964 112.98 180.052 112.565 180.228 112.207C180.407 111.847 180.657 111.566 180.977 111.365C181.299 111.161 181.677 111.059 182.11 111.059C182.463 111.059 182.776 111.124 183.049 111.253C183.325 111.38 183.547 111.56 183.715 111.794C183.886 112.028 183.987 112.301 184.017 112.612H183.14C183.11 112.466 183.05 112.333 182.962 112.211C182.877 112.09 182.764 111.994 182.623 111.922C182.483 111.851 182.316 111.815 182.122 111.815C181.872 111.815 181.653 111.881 181.465 112.013C181.281 112.143 181.135 112.328 181.031 112.571C180.926 112.813 180.873 113.099 180.873 113.43C180.873 113.763 180.925 114.053 181.026 114.301C181.129 114.549 181.273 114.741 181.461 114.876C181.651 115.008 181.872 115.074 182.122 115.074C182.382 115.074 182.603 115.002 182.784 114.859C182.969 114.716 183.088 114.521 183.14 114.273H184.017C183.987 114.573 183.89 114.84 183.727 115.074C183.565 115.308 183.347 115.493 183.074 115.627C182.801 115.762 182.483 115.83 182.119 115.83ZM185.994 115.834C185.702 115.834 185.437 115.78 185.2 115.673C184.963 115.562 184.775 115.403 184.638 115.193C184.499 114.985 184.43 114.729 184.43 114.429C184.43 114.168 184.481 113.954 184.58 113.789C184.682 113.621 184.818 113.488 184.989 113.388C185.16 113.289 185.35 113.215 185.56 113.166C185.769 113.116 185.984 113.077 186.205 113.05C186.484 113.019 186.708 112.993 186.879 112.971C187.05 112.949 187.174 112.915 187.252 112.868C187.331 112.818 187.372 112.74 187.372 112.633V112.612C187.372 112.35 187.297 112.148 187.148 112.005C187.002 111.862 186.784 111.79 186.495 111.79C186.194 111.79 185.956 111.856 185.779 111.989C185.605 112.118 185.485 112.265 185.419 112.43L184.571 112.236C184.673 111.955 184.821 111.73 185.014 111.558C185.21 111.385 185.433 111.259 185.684 111.178C185.938 111.099 186.202 111.059 186.478 111.059C186.663 111.059 186.859 111.081 187.065 111.125C187.272 111.166 187.467 111.245 187.649 111.361C187.833 111.473 187.984 111.636 188.099 111.848C188.215 112.06 188.273 112.334 188.273 112.67V115.735H187.392V115.103H187.359C187.304 115.216 187.217 115.329 187.099 115.441C186.983 115.555 186.833 115.648 186.652 115.722C186.47 115.797 186.25 115.834 185.994 115.834ZM186.188 115.115C186.439 115.115 186.653 115.067 186.83 114.971C187.006 114.871 187.141 114.742 187.235 114.582C187.329 114.422 187.376 114.253 187.376 114.074V113.476C187.342 113.505 187.28 113.535 187.189 113.562C187.099 113.589 186.995 113.613 186.879 113.632C186.764 113.652 186.65 113.669 186.54 113.686C186.429 113.7 186.338 113.711 186.263 113.719C186.089 113.744 185.931 113.783 185.787 113.835C185.644 113.884 185.528 113.958 185.44 114.058C185.354 114.154 185.311 114.282 185.311 114.442C185.311 114.665 185.394 114.833 185.56 114.946C185.725 115.059 185.935 115.115 186.188 115.115ZM191.727 114.623L193.22 111.117H193.993L192.062 115.735H191.392L189.497 111.117H190.263L191.727 114.623ZM190.01 111.117V115.735H189.137V111.117H190.01ZM193.464 115.735V111.117H194.333V115.735H193.464Z" fill="#BDBDBD"/>
    <path d="M215.849 10.969H28.8411C18.7649 10.969 10.5964 19.1264 10.5964 29.1891C10.5964 39.2518 18.7649 47.4092 28.8411 47.4092H215.849C225.925 47.4092 234.094 39.2518 234.094 29.1891C234.094 19.1264 225.925 10.969 215.849 10.969Z" fill="white"/>
    <path d="M213.242 41.8782C220.26 41.8782 225.949 36.1972 225.949 29.1892C225.949 22.1813 220.26 16.5002 213.242 16.5002C206.225 16.5002 200.536 22.1813 200.536 29.1892C200.536 36.1972 206.225 41.8782 213.242 41.8782Z" fill="white" stroke="#E0E0E0"/>
    <path d="M208.355 27.0201H214.871M214.871 27.0201C214.871 27.9186 215.601 28.6469 216.5 28.6469C217.4 28.6469 218.129 27.9186 218.129 27.0201C218.129 26.1217 217.4 25.3933 216.5 25.3933C215.601 25.3933 214.871 26.1217 214.871 27.0201ZM211.613 31.3582H218.129M211.613 31.3582C211.613 32.2567 210.884 32.985 209.984 32.985C209.085 32.985 208.355 32.2567 208.355 31.3582C208.355 30.4598 209.085 29.7315 209.984 29.7315C210.884 29.7315 211.613 30.4598 211.613 31.3582Z" stroke="#303030" stroke-width="1.2" stroke-linecap="round" stroke-linejoin="round"/>
    <path d="M29.8184 34.0696L27.9179 32.1717M29.2754 28.9181C29.2754 31.4637 27.209 33.5274 24.6599 33.5274C22.1108 33.5274 20.0444 31.4637 20.0444 28.9181C20.0444 26.3725 22.1108 24.3088 24.6599 24.3088C27.209 24.3088 29.2754 26.3725 29.2754 28.9181Z" stroke="#BDBDBD" stroke-width="2" stroke-linecap="round" stroke-linejoin="round"/>
    <path d="M43.2017 25.5188V33.0935H42.0614V26.4949H38.4928V33.0935H37.3525V25.5188H43.2017ZM46.8159 33.2105C46.2831 33.2105 45.8165 33.0885 45.416 32.8444C45.019 32.6004 44.7102 32.2582 44.4895 31.8176C44.2724 31.3769 44.1637 30.8652 44.1637 30.2822C44.1637 29.6926 44.2724 29.1774 44.4895 28.7368C44.7102 28.2928 45.019 27.9488 45.416 27.7048C45.8165 27.4608 46.2831 27.3388 46.8159 27.3388C47.3522 27.3388 47.8188 27.4608 48.2159 27.7048C48.613 27.9488 48.9218 28.2928 49.1424 28.7368C49.363 29.1774 49.4733 29.6926 49.4733 30.2822C49.4733 30.8652 49.363 31.3769 49.1424 31.8176C48.9218 32.2582 48.613 32.6004 48.2159 32.8444C47.8188 33.0885 47.3522 33.2105 46.8159 33.2105ZM46.8159 32.2801C47.1655 32.2801 47.454 32.1887 47.6814 32.0057C47.9087 31.8226 48.0767 31.5803 48.1853 31.2787C48.2973 30.9736 48.3533 30.6415 48.3533 30.2822C48.3533 29.9162 48.2973 29.5807 48.1853 29.2757C48.0767 28.9707 47.9087 28.7266 47.6814 28.5436C47.454 28.3606 47.1655 28.2691 46.8159 28.2691C46.4698 28.2691 46.183 28.3606 45.9556 28.5436C45.7317 28.7266 45.5637 28.9707 45.4517 29.2757C45.3397 29.5807 45.2837 29.9162 45.2837 30.2822C45.2837 30.6415 45.3397 30.9736 45.4517 31.2787C45.5637 31.5803 45.7317 31.8226 45.9556 32.0057C46.183 32.1887 46.4698 32.2801 46.8159 32.2801ZM51.3466 31.5379L53.8562 27.41H55.0475V33.0935H53.9682V28.9605L51.4688 33.0935H50.2724V27.41H51.3466V31.5379ZM58.4938 33.2105C57.9474 33.2105 57.4756 33.0851 57.0786 32.8343C56.6815 32.5835 56.3761 32.2378 56.1623 31.7972C55.9485 31.3566 55.8416 30.8516 55.8416 30.2822C55.8416 29.7027 55.9502 29.1926 56.1674 28.7521C56.3879 28.3081 56.6951 27.9624 57.0888 27.715C57.4858 27.4642 57.9508 27.3388 58.4836 27.3388C58.918 27.3388 59.3032 27.4184 59.6391 27.5777C59.9786 27.7336 60.2517 27.9556 60.4587 28.2437C60.6692 28.5318 60.793 28.8673 60.8304 29.2503H59.7511C59.7138 29.0706 59.6408 28.9062 59.5323 28.7572C59.427 28.608 59.2879 28.4894 59.1148 28.4013C58.9417 28.3132 58.7364 28.2691 58.4988 28.2691C58.1901 28.2691 57.9202 28.3505 57.6894 28.5131C57.4621 28.6724 57.2839 28.9012 57.1549 29.1995C57.026 29.4977 56.9615 29.8502 56.9615 30.2569C56.9615 30.667 57.0243 31.0245 57.1498 31.3295C57.2754 31.6345 57.4536 31.8701 57.6843 32.0361C57.9185 32.1988 58.1901 32.2801 58.4988 32.2801C58.8179 32.2801 59.0894 32.192 59.3133 32.0158C59.5407 31.8396 59.6866 31.599 59.7511 31.2939H60.8304C60.793 31.6633 60.6743 31.9921 60.474 32.2801C60.2738 32.5682 60.0057 32.7953 59.6697 32.9614C59.3337 33.1274 58.9417 33.2105 58.4938 33.2105ZM61.6143 33.0935V27.41H62.7139V29.7942H63.2484L65.1268 27.41H66.4908L64.2971 30.1806L66.5214 33.0935H65.1472L63.4316 30.8211H62.7139V33.0935H61.6143ZM69.2601 33.0935V27.41H73.8929V33.0935H72.8087V28.3657H70.3293V33.0935H69.2601ZM77.3392 33.2105C76.8062 33.2105 76.3397 33.0885 75.9389 32.8444C75.5421 32.6004 75.2333 32.2582 75.013 31.8176C74.7954 31.3769 74.6872 30.8652 74.6872 30.2822C74.6872 29.6926 74.7954 29.1774 75.013 28.7368C75.2333 28.2928 75.5421 27.9488 75.9389 27.7048C76.3397 27.4608 76.8062 27.3388 77.3392 27.3388C77.8755 27.3388 78.342 27.4608 78.7388 27.7048C79.1363 27.9488 79.4452 28.2928 79.6654 28.7368C79.8863 29.1774 79.9964 29.6926 79.9964 30.2822C79.9964 30.8652 79.8863 31.3769 79.6654 31.8176C79.4452 32.2582 79.1363 32.6004 78.7388 32.8444C78.342 33.0885 77.8755 33.2105 77.3392 33.2105ZM77.3392 32.2801C77.6885 32.2801 77.9771 32.1887 78.2045 32.0057C78.4319 31.8226 78.6001 31.5803 78.7082 31.2787C78.8203 30.9736 78.8763 30.6415 78.8763 30.2822C78.8763 29.9162 78.8203 29.5807 78.7082 29.2757C78.6001 28.9707 78.4319 28.7266 78.2045 28.5436C77.9771 28.3606 77.6885 28.2691 77.3392 28.2691C76.9932 28.2691 76.7065 28.3606 76.4791 28.5436C76.255 28.7266 76.0868 28.9707 75.9748 29.2757C75.8627 29.5807 75.8067 29.9162 75.8067 30.2822C75.8067 30.6415 75.8627 30.9736 75.9748 31.2787C76.0868 31.5803 76.255 31.8226 76.4791 32.0057C76.7065 32.1887 76.9932 32.2801 77.3392 32.2801ZM84.7661 33.2156C84.4064 33.2156 84.0806 33.1495 83.7887 33.0173C83.4968 32.8817 83.2661 32.6852 83.0967 32.4276C82.9266 32.17 82.8419 31.8565 82.8419 31.4871C82.8419 31.1651 82.9032 30.9024 83.025 30.6991C83.1508 30.4924 83.3189 30.328 83.5294 30.206C83.7398 30.084 83.9738 29.9925 84.2318 29.9315C84.4898 29.8705 84.7544 29.823 85.0261 29.7891C85.3688 29.7518 85.6451 29.7196 85.8556 29.6926C86.066 29.6654 86.2185 29.6231 86.3136 29.5655C86.412 29.5044 86.4616 29.4079 86.4616 29.2757V29.2503C86.4616 28.9283 86.3697 28.6792 86.1866 28.5029C86.0067 28.3267 85.7389 28.2386 85.3825 28.2386C85.0124 28.2386 84.7185 28.3199 84.5016 28.4826C84.2878 28.6419 84.1399 28.8232 84.0585 29.0266L83.0153 28.7876C83.141 28.442 83.3222 28.164 83.56 27.9539C83.8011 27.7404 84.0754 27.5845 84.3843 27.4862C84.697 27.3879 85.0228 27.3388 85.3617 27.3388C85.5891 27.3388 85.8302 27.3659 86.0849 27.4201C86.3391 27.471 86.5788 27.5675 86.8023 27.7099C87.0297 27.8488 87.2148 28.0488 87.3575 28.3098C87.5002 28.5707 87.5712 28.9079 87.5712 29.3215V33.0935H86.487V32.3157H86.4459C86.3781 32.4547 86.2713 32.5937 86.1253 32.7326C85.9833 32.8716 85.7995 32.9868 85.576 33.0783C85.3519 33.1698 85.0821 33.2156 84.7661 33.2156ZM85.0059 32.331C85.3141 32.331 85.5773 32.2717 85.7943 32.1531C86.012 32.031 86.1781 31.8718 86.2934 31.6752C86.4088 31.4787 86.4668 31.2702 86.4668 31.0499V30.3128C86.4257 30.3501 86.3495 30.3856 86.2374 30.4195C86.1253 30.4534 85.9983 30.4822 85.8556 30.506C85.7129 30.5297 85.5741 30.5517 85.4385 30.572C85.3024 30.589 85.189 30.6025 85.0971 30.6127C84.8834 30.6432 84.6886 30.6906 84.512 30.7551C84.3354 30.816 84.1927 30.9076 84.0839 31.0296C83.979 31.1482 83.9262 31.3058 83.9262 31.5023C83.9262 31.7769 84.0285 31.9836 84.2318 32.1225C84.4357 32.2615 84.6931 32.331 85.0059 32.331ZM88.0749 34.7306V32.1378H88.5336C88.6522 32.0294 88.7539 31.9006 88.8386 31.7514C88.9239 31.599 88.993 31.4193 89.0477 31.2126C89.1051 31.0025 89.1546 30.7601 89.195 30.4856C89.236 30.2111 89.2712 29.8942 89.3019 29.535L89.4804 27.41H93.3437V32.1378H94.2195V34.7306H93.1352V33.0935H89.1748V34.7306H88.0749ZM89.7247 32.1378H92.2647V28.3555H90.4676L90.3457 29.535C90.2949 30.1349 90.2252 30.6534 90.1372 31.0906C90.0518 31.5244 89.9144 31.8734 89.7247 32.1378ZM94.8658 35.2186V27.41H95.9351V28.3352H96.027C96.0947 28.2165 96.1879 28.0793 96.3065 27.9234C96.429 27.7675 96.5984 27.6319 96.8161 27.5167C97.033 27.3981 97.3165 27.3388 97.6657 27.3388C98.1238 27.3388 98.5311 27.454 98.8875 27.6845C99.2472 27.9149 99.5306 28.2488 99.7378 28.686C99.945 29.1232 100.048 29.6502 100.048 30.267C100.048 30.8771 99.9463 31.4024 99.743 31.843C99.5391 32.2801 99.2576 32.6174 98.8979 32.8546C98.5415 33.0885 98.1323 33.2054 97.671 33.2054C97.3282 33.2054 97.0467 33.1478 96.8258 33.0326C96.6089 32.9139 96.4375 32.7767 96.3117 32.6208C96.1899 32.4649 96.0947 32.3276 96.027 32.209H95.9657V35.2186H94.8658ZM97.4318 32.2649C97.7609 32.2649 98.0359 32.1768 98.2561 32.0005C98.477 31.8243 98.6431 31.5854 98.7552 31.2838C98.8705 30.9787 98.9285 30.6364 98.9285 30.2569C98.9285 29.8806 98.8725 29.5434 98.7604 29.2452C98.6483 28.9469 98.4822 28.7114 98.2613 28.5385C98.0411 28.3657 97.7641 28.2793 97.4318 28.2793C97.1093 28.2793 96.8376 28.3623 96.6173 28.5284C96.3964 28.691 96.2283 28.9215 96.113 29.2198C96.0016 29.5146 95.9455 29.8603 95.9455 30.2569C95.9455 30.6534 96.0029 31.0025 96.1182 31.3041C96.2335 31.6057 96.4016 31.8413 96.6225 32.0107C96.846 32.1802 97.1158 32.2649 97.4318 32.2649ZM103.301 33.2105C102.744 33.2105 102.263 33.0902 101.856 32.8495C101.448 32.6089 101.134 32.27 100.914 31.8328C100.696 31.3922 100.588 30.8788 100.588 30.2924C100.588 29.7095 100.695 29.1961 100.909 28.7521C101.126 28.3081 101.429 27.9624 101.82 27.715C102.213 27.4642 102.675 27.3388 103.204 27.3388C103.527 27.3388 103.839 27.3913 104.141 27.4964C104.443 27.6014 104.715 27.7675 104.956 27.9946C105.196 28.2217 105.386 28.5165 105.526 28.8792C105.668 29.2418 105.74 29.679 105.74 30.1908V30.5873H101.214V29.7586H105.17L104.655 30.0332C104.655 29.6841 104.601 29.3757 104.493 29.1079C104.384 28.8402 104.221 28.6318 104.004 28.4826C103.79 28.3301 103.524 28.2538 103.204 28.2538C102.886 28.2538 102.612 28.3301 102.385 28.4826C102.161 28.6352 101.99 28.8368 101.87 29.0876C101.752 29.3384 101.693 29.6129 101.693 29.9111V30.4754C101.693 30.8652 101.76 31.1957 101.896 31.4667C102.032 31.7379 102.22 31.9446 102.461 32.087C102.706 32.2293 102.989 32.3005 103.311 32.3005C103.522 32.3005 103.712 32.27 103.881 32.209C104.055 32.148 104.204 32.0565 104.33 31.9345C104.455 31.8125 104.55 31.6616 104.614 31.482L105.663 31.6803C105.578 31.9853 105.429 32.2531 105.215 32.4835C105.001 32.714 104.732 32.8936 104.406 33.0224C104.083 33.1478 103.715 33.2105 103.301 33.2105ZM108.901 33.2105C108.355 33.2105 107.883 33.0851 107.486 32.8343C107.088 32.5835 106.783 32.2378 106.569 31.7972C106.355 31.3566 106.249 30.8516 106.249 30.2822C106.249 29.7027 106.357 29.1926 106.574 28.7521C106.795 28.3081 107.102 27.9624 107.496 27.715C107.893 27.4642 108.358 27.3388 108.891 27.3388C109.325 27.3388 109.71 27.4184 110.046 27.5777C110.386 27.7336 110.659 27.9556 110.866 28.2437C111.076 28.5318 111.2 28.8673 111.237 29.2503H110.158C110.121 29.0706 110.048 28.9062 109.939 28.7572C109.834 28.608 109.695 28.4894 109.522 28.4013C109.349 28.3132 109.144 28.2691 108.906 28.2691C108.597 28.2691 108.327 28.3505 108.096 28.5131C107.869 28.6724 107.691 28.9012 107.562 29.1995C107.433 29.4977 107.369 29.8502 107.369 30.2569C107.369 30.667 107.431 31.0245 107.557 31.3295C107.683 31.6345 107.861 31.8701 108.091 32.0361C108.326 32.1988 108.597 32.2801 108.906 32.2801C109.225 32.2801 109.496 32.192 109.72 32.0158C109.948 31.8396 110.094 31.599 110.158 31.2939H111.237C111.2 31.6633 111.081 31.9921 110.881 32.2801C110.681 32.5682 110.413 32.7953 110.077 32.9614C109.74 33.1274 109.349 33.2105 108.901 33.2105ZM112.51 35.2186C112.344 35.222 112.192 35.2101 112.057 35.183C111.925 35.1592 111.823 35.1304 111.751 35.0966L112.021 34.1967L112.098 34.2171C112.379 34.2883 112.617 34.2832 112.81 34.2018C113.007 34.1239 113.172 33.9052 113.304 33.546L113.442 33.1698L111.365 27.41H112.551L113.986 31.8226H114.048L115.488 27.41H116.674L114.332 33.846C114.224 34.1442 114.087 34.395 113.92 34.5983C113.754 34.8051 113.554 34.9593 113.32 35.061C113.088 35.166 112.819 35.2186 112.51 35.2186ZM120.681 31.5379L123.19 27.41H124.381V33.0935H123.302V28.9605L120.803 33.0935H119.606V27.41H120.681V31.5379ZM124.987 33.0935L124.982 32.1378H125.181C125.394 32.1344 125.562 32.0717 125.684 31.9497C125.81 31.8243 125.903 31.6024 125.965 31.2838C126.029 30.9652 126.071 30.5144 126.092 29.9315L126.193 27.41H130.159V33.0935H129.075V28.3657H127.212L127.12 30.3026C127.1 30.7703 127.054 31.1787 126.982 31.5278C126.911 31.8768 126.806 32.1684 126.667 32.4022C126.528 32.6326 126.35 32.8055 126.133 32.9207C125.915 33.036 125.65 33.0935 125.338 33.0935H124.987ZM132.287 31.5379L134.797 27.41H135.988V33.0935H134.908V28.9605L132.409 33.0935H131.213V27.41H132.287V31.5379ZM143.216 29.7739V30.7296H140.137V29.7739H143.216ZM140.442 27.41V33.0935H139.368V27.41H140.442ZM143.99 27.41V33.0935H142.911V27.41H143.99ZM146.698 33.2156C146.339 33.2156 146.013 33.1495 145.721 33.0173C145.429 32.8817 145.198 32.6852 145.029 32.4276C144.859 32.17 144.774 31.8565 144.774 31.4871C144.774 31.1651 144.835 30.9024 144.957 30.6991C145.083 30.4924 145.251 30.328 145.462 30.206C145.672 30.084 145.906 29.9925 146.164 29.9315C146.422 29.8705 146.687 29.823 146.958 29.7891C147.301 29.7518 147.577 29.7196 147.788 29.6926C147.998 29.6654 148.151 29.6231 148.246 29.5655C148.344 29.5044 148.394 29.4079 148.394 29.2757V29.2503C148.394 28.9283 148.302 28.6792 148.119 28.5029C147.939 28.3267 147.671 28.2386 147.315 28.2386C146.945 28.2386 146.651 28.3199 146.434 28.4826C146.22 28.6419 146.072 28.8232 145.991 29.0266L144.947 28.7876C145.073 28.442 145.254 28.164 145.492 27.9539C145.733 27.7404 146.008 27.5845 146.316 27.4862C146.629 27.3879 146.954 27.3388 147.294 27.3388C147.521 27.3388 147.762 27.3659 148.017 27.4201C148.271 27.471 148.51 27.5675 148.735 27.7099C148.962 27.8488 149.147 28.0488 149.29 28.3098C149.432 28.5707 149.503 28.9079 149.503 29.3215V33.0935H148.419V32.3157H148.378C148.31 32.4547 148.204 32.5937 148.058 32.7326C147.915 32.8716 147.732 32.9868 147.508 33.0783C147.284 33.1698 147.014 33.2156 146.698 33.2156ZM146.937 32.331C147.246 32.331 147.51 32.2717 147.727 32.1531C147.944 32.031 148.11 31.8718 148.226 31.6752C148.341 31.4787 148.399 31.2702 148.399 31.0499V30.3128C148.358 30.3501 148.282 30.3856 148.17 30.4195C148.058 30.4534 147.931 30.4822 147.788 30.506C147.645 30.5297 147.506 30.5517 147.37 30.572C147.235 30.589 147.121 30.6025 147.029 30.6127C146.816 30.6432 146.62 30.6906 146.444 30.7551C146.268 30.816 146.125 30.9076 146.016 31.0296C145.911 31.1482 145.858 31.3058 145.858 31.5023C145.858 31.7769 145.96 31.9836 146.164 32.1225C146.367 32.2615 146.625 32.331 146.937 32.331ZM150.45 31.5888H151.576C151.596 31.8226 151.703 32.0023 151.896 32.1277C152.093 32.2531 152.349 32.3174 152.664 32.3208C152.98 32.3174 153.25 32.248 153.474 32.1124C153.698 31.9768 153.812 31.7617 153.815 31.4667C153.815 31.2973 153.771 31.1482 153.683 31.0194C153.598 30.8906 153.478 30.7907 153.321 30.7195C153.169 30.6449 152.989 30.6093 152.782 30.6127H151.855V29.7434H152.782C153.09 29.7434 153.323 29.6739 153.479 29.535C153.635 29.3926 153.713 29.213 153.713 28.9961C153.713 28.7622 153.63 28.5741 153.464 28.4318C153.298 28.2894 153.065 28.22 152.767 28.2234C152.471 28.22 152.223 28.286 152.023 28.4216C151.823 28.5538 151.718 28.7249 151.708 28.9351H150.588C150.594 28.6199 150.689 28.342 150.872 28.1014C151.059 27.8607 151.312 27.6743 151.632 27.5421C151.95 27.4066 152.312 27.3388 152.716 27.3388C153.136 27.3388 153.501 27.4066 153.81 27.5421C154.119 27.6777 154.358 27.8658 154.528 28.1064C154.697 28.3437 154.781 28.6182 154.777 28.93C154.781 29.2418 154.688 29.4977 154.497 29.6976C154.31 29.8976 154.068 30.0399 153.769 30.1246V30.1806C153.99 30.1975 154.185 30.2653 154.355 30.384C154.528 30.4992 154.662 30.655 154.757 30.8516C154.855 31.0448 154.905 31.2651 154.905 31.5125C154.905 31.8582 154.808 32.1581 154.615 32.4124C154.424 32.6665 154.161 32.8631 153.825 33.0021C153.489 33.1376 153.104 33.2071 152.67 33.2105C152.249 33.2071 151.872 33.1393 151.54 33.0071C151.211 32.875 150.949 32.6885 150.756 32.4479C150.562 32.2039 150.461 31.9175 150.45 31.5888ZM155.393 33.0935V27.41H157.745C158.387 27.4134 158.896 27.5523 159.272 27.8268C159.649 28.098 159.836 28.4674 159.832 28.9351C159.836 29.2672 159.73 29.5299 159.517 29.723C159.303 29.9128 159.023 30.0433 158.677 30.1145C158.927 30.1416 159.159 30.2162 159.369 30.3382C159.583 30.4602 159.754 30.6246 159.883 30.8313C160.016 31.0347 160.081 31.277 160.081 31.5583C160.081 31.8599 160.002 32.1277 159.842 32.3615C159.686 32.592 159.462 32.7716 159.171 32.9004C158.879 33.0292 158.524 33.0935 158.106 33.0935H155.393ZM156.432 32.1632H158.106C158.378 32.1667 158.592 32.1039 158.748 31.9752C158.904 31.843 158.98 31.665 158.977 31.4414C158.98 31.177 158.904 30.9703 158.748 30.8211C158.592 30.6686 158.378 30.5924 158.106 30.5924H156.432V32.1632ZM156.432 29.7841H157.755C158.067 29.7807 158.312 29.7146 158.488 29.5858C158.668 29.4536 158.756 29.2757 158.753 29.052C158.756 28.8317 158.668 28.6605 158.488 28.5385C158.308 28.4131 158.061 28.3505 157.745 28.3505H156.432V29.7841ZM162.51 33.2156C162.15 33.2156 161.824 33.1495 161.533 33.0173C161.241 32.8817 161.01 32.6852 160.84 32.4276C160.67 32.17 160.586 31.8565 160.586 31.4871C160.586 31.1651 160.646 30.9024 160.769 30.6991C160.895 30.4924 161.062 30.328 161.273 30.206C161.483 30.084 161.718 29.9925 161.976 29.9315C162.233 29.8705 162.498 29.823 162.769 29.7891C163.112 29.7518 163.389 29.7196 163.599 29.6926C163.81 29.6654 163.962 29.6231 164.057 29.5655C164.156 29.5044 164.205 29.4079 164.205 29.2757V29.2503C164.205 28.9283 164.114 28.6792 163.93 28.5029C163.75 28.3267 163.482 28.2386 163.126 28.2386C162.756 28.2386 162.462 28.3199 162.245 28.4826C162.031 28.6419 161.884 28.8232 161.802 29.0266L160.758 28.7876C160.884 28.442 161.066 28.164 161.303 27.9539C161.544 27.7404 161.819 27.5845 162.128 27.4862C162.44 27.3879 162.766 27.3388 163.106 27.3388C163.333 27.3388 163.574 27.3659 163.828 27.4201C164.083 27.471 164.322 27.5675 164.546 27.7099C164.774 27.8488 164.959 28.0488 165.101 28.3098C165.243 28.5707 165.315 28.9079 165.315 29.3215V33.0935H164.23V32.3157H164.19C164.122 32.4547 164.015 32.5937 163.869 32.7326C163.726 32.8716 163.543 32.9868 163.319 33.0783C163.095 33.1698 162.825 33.2156 162.51 33.2156ZM162.749 32.331C163.058 32.331 163.321 32.2717 163.538 32.1531C163.755 32.031 163.921 31.8718 164.037 31.6752C164.153 31.4787 164.21 31.2702 164.21 31.0499V30.3128C164.17 30.3501 164.093 30.3856 163.981 30.4195C163.869 30.4534 163.741 30.4822 163.599 30.506C163.457 30.5297 163.317 30.5517 163.182 30.572C163.046 30.589 162.932 30.6025 162.841 30.6127C162.627 30.6432 162.432 30.6906 162.255 30.7551C162.079 30.816 161.937 30.9076 161.828 31.0296C161.722 31.1482 161.67 31.3058 161.67 31.5023C161.67 31.7769 161.772 31.9836 161.976 32.1225C162.179 32.2615 162.437 32.331 162.749 32.331ZM170.227 29.7739V30.7296H167.147V29.7739H170.227ZM167.453 27.41V33.0935H166.378V27.41H167.453ZM171.001 27.41V33.0935H169.922V27.41H171.001ZM173.134 31.5379L175.643 27.41H176.835V33.0935H175.756V28.9605L173.256 33.0935H172.06V27.41H173.134V31.5379ZM180.749 29.8197V30.7804H177.721V29.8197H180.749ZM178.621 27.41V33.0935H177.512V27.41H178.621ZM182.485 33.2105C181.956 33.2071 181.493 33.0834 181.095 32.8394C180.702 32.592 180.396 32.248 180.179 31.8074C179.966 31.3668 179.859 30.8567 179.859 30.2772C179.859 29.6909 179.966 29.1774 180.179 28.7368C180.396 28.2962 180.702 27.9539 181.095 27.7099C181.493 27.4625 181.956 27.3388 182.485 27.3388C183.015 27.3388 183.476 27.4625 183.87 27.7099C184.263 27.9539 184.569 28.2962 184.786 28.7368C185.007 29.1774 185.117 29.6909 185.117 30.2772C185.117 30.8567 185.007 31.3668 184.786 31.8074C184.569 32.248 184.263 32.592 183.87 32.8394C183.476 33.0834 183.015 33.2071 182.485 33.2105ZM182.485 32.2649C182.842 32.2615 183.134 32.17 183.361 31.9904C183.588 31.8074 183.757 31.5668 183.865 31.2685C183.974 30.9669 184.028 30.6364 184.028 30.2772C184.028 29.9145 183.974 29.5824 183.865 29.2808C183.757 28.9791 183.588 28.7368 183.361 28.5538C183.134 28.3708 182.842 28.2793 182.485 28.2793C182.129 28.2793 181.836 28.3708 181.605 28.5538C181.378 28.7368 181.209 28.9791 181.101 29.2808C180.992 29.579 180.938 29.9111 180.938 30.2772C180.938 30.6364 180.992 30.9669 181.101 31.2685C181.209 31.5701 181.378 31.8108 181.605 31.9904C181.836 32.17 182.129 32.2615 182.485 32.2649Z" fill="#BDBDBD"/>
    <path d="M226.275 55.2178H18.4156C14.0972 55.2178 10.5964 58.7138 10.5964 63.0264V83.8494C10.5964 88.1619 14.0972 91.658 18.4156 91.658H226.275C230.593 91.658 234.094 88.1619 234.094 83.8494V63.0264C234.094 58.7138 230.593 55.2178 226.275 55.2178Z" fill="white"/>
    <path d="M21.1192 69.6164C20.7028 69.6164 20.3334 69.5461 20.0107 69.4056C19.6881 69.2624 19.4331 69.0639 19.2455 68.8108C19.0581 68.5577 18.9588 68.2642 18.9478 67.931H19.8825C19.8963 68.1126 19.9583 68.2701 20.0686 68.4022C20.1789 68.5343 20.3237 68.6371 20.5029 68.7119C20.6849 68.7835 20.8876 68.8193 21.1109 68.8193C21.3536 68.8193 21.5687 68.7763 21.7562 68.6911C21.9437 68.6058 22.0898 68.4887 22.1946 68.3397C22.3022 68.1887 22.3559 68.0137 22.3559 67.8152C22.3559 67.6089 22.3035 67.4274 22.1988 67.2699C22.094 67.1105 21.9409 66.9868 21.7396 66.8984C21.5384 66.8105 21.2957 66.7663 21.0117 66.7663H20.4864V66.0062H21.0117C21.2378 66.0062 21.4377 65.9652 21.6114 65.8826C21.7851 65.7999 21.9203 65.6854 22.0168 65.5397C22.116 65.3932 22.1657 65.2215 22.1657 65.0232C22.1657 64.8332 22.1229 64.6679 22.0374 64.5275C21.9519 64.3843 21.832 64.2742 21.6776 64.1971C21.5232 64.1172 21.3412 64.0773 21.1316 64.0773C20.9303 64.0773 20.7428 64.1131 20.5691 64.1847C20.3954 64.2562 20.2534 64.3595 20.1431 64.4945C20.0355 64.6266 19.979 64.7877 19.9735 64.9778H19.076C19.0843 64.6445 19.1808 64.3527 19.3655 64.1021C19.553 63.8487 19.8011 63.6519 20.11 63.5114C20.4216 63.3682 20.7663 63.2966 21.144 63.2966C21.5384 63.2966 21.8789 63.3737 22.1657 63.5279C22.4552 63.6794 22.6785 63.8831 22.8357 64.1392C22.9929 64.3926 23.0714 64.6693 23.0714 64.9695C23.0714 65.3191 22.9749 65.6138 22.7819 65.8533C22.5889 66.0902 22.3311 66.2515 22.0085 66.3368V66.3823C22.4166 66.4455 22.7323 66.6081 22.9557 66.8697C23.1818 67.1313 23.2948 67.456 23.2948 67.8445C23.2948 68.1829 23.1997 68.4861 23.0094 68.7529C22.8219 69.0203 22.5641 69.2305 22.236 69.3847C21.9106 69.539 21.5384 69.6164 21.1192 69.6164ZM25.4332 69.6327C25.1409 69.6327 24.8762 69.5793 24.6391 69.4719C24.4019 69.3613 24.2144 69.2019 24.0765 68.9924C23.9387 68.7835 23.8697 68.5284 23.8697 68.2284C23.8697 67.9668 23.9194 67.7534 24.0186 67.5881C24.1206 67.4202 24.2572 67.2868 24.4281 67.1873C24.599 67.0884 24.7893 67.0142 24.9989 66.9647C25.2084 66.9153 25.4235 66.8762 25.6441 66.8489C25.9226 66.8183 26.1474 66.7923 26.3183 66.7702C26.4893 66.748 26.6133 66.7142 26.6905 66.6673C26.7705 66.6172 26.8105 66.5392 26.8105 66.4318V66.411C26.8105 66.1494 26.736 65.947 26.5871 65.8038C26.441 65.6607 26.2231 65.5891 25.9336 65.5891C25.6331 65.5891 25.3946 65.6548 25.2181 65.7876C25.0443 65.9171 24.9245 66.0641 24.8582 66.2294L24.0103 66.0349C24.1124 65.7544 24.2599 65.5286 24.4529 65.3575C24.6487 65.1844 24.8721 65.0576 25.123 64.9778C25.3767 64.8978 25.6413 64.858 25.9171 64.858C26.1018 64.858 26.2976 64.88 26.5044 64.924C26.7113 64.9653 26.9056 65.0438 27.0876 65.1596C27.2723 65.2722 27.4226 65.4349 27.5385 65.647C27.6542 65.8592 27.7122 66.1331 27.7122 66.4689V69.5338H26.8312V68.9019H26.7981C26.7429 69.0145 26.6561 69.1277 26.5375 69.2403C26.4217 69.3535 26.2728 69.4472 26.0908 69.5214C25.9088 69.5956 25.6896 69.6327 25.4332 69.6327ZM25.6276 68.9143C25.8785 68.9143 26.0922 68.8661 26.2687 68.7698C26.4451 68.6703 26.5802 68.5408 26.674 68.3813C26.7678 68.2213 26.8146 68.0521 26.8146 67.8731V67.2745C26.7816 67.3044 26.7195 67.3337 26.6285 67.361C26.5375 67.3883 26.4341 67.4118 26.3183 67.4313C26.2025 67.4508 26.0894 67.4684 25.9791 67.4846C25.8688 67.499 25.7765 67.51 25.702 67.5178C25.5283 67.5426 25.3698 67.5816 25.2263 67.6337C25.083 67.6831 24.9672 67.7573 24.8789 67.8569C24.7935 67.9532 24.7507 68.0814 24.7507 68.2408C24.7507 68.464 24.8334 68.6319 24.9989 68.7451C25.1643 68.8577 25.3739 68.9143 25.6276 68.9143ZM30.5661 69.6288C30.1139 69.6288 29.7223 69.5312 29.3914 69.3353C29.0605 69.1401 28.8055 68.8648 28.6262 68.5095C28.4498 68.1516 28.3616 67.7339 28.3616 67.2575C28.3616 66.7845 28.4484 66.3667 28.6221 66.0062C28.7986 65.6457 29.0453 65.3646 29.3625 65.1635C29.6823 64.9599 30.0573 64.858 30.4875 64.858C30.7495 64.858 31.0031 64.9006 31.2485 64.986C31.494 65.0713 31.7145 65.2065 31.9103 65.3906C32.1061 65.5754 32.2605 65.8149 32.3736 66.1097C32.4893 66.4045 32.5473 66.7591 32.5473 67.1749V67.4977H28.8703V66.8242H32.0841L31.6663 67.0474C31.6663 66.7637 31.6221 66.5131 31.5339 66.2951C31.4457 66.0778 31.3133 65.9086 31.1368 65.7876C30.9631 65.6633 30.7467 65.6015 30.4875 65.6015C30.2283 65.6015 30.0063 65.6633 29.8216 65.7876C29.6396 65.9112 29.5003 66.0752 29.4038 66.2789C29.3073 66.4825 29.2591 66.7057 29.2591 66.9478V67.4066C29.2591 67.7235 29.3142 67.9916 29.4245 68.2121C29.5348 68.4321 29.6878 68.6 29.8836 68.7158C30.0822 68.8316 30.3124 68.8895 30.5744 68.8895C30.7453 68.8895 30.8997 68.8648 31.0376 68.8147C31.1782 68.7653 31.2995 68.6911 31.4016 68.5922C31.5036 68.4926 31.5808 68.3703 31.6332 68.2245L32.4852 68.3852C32.4163 68.6332 32.295 68.8505 32.1213 69.0379C31.9475 69.2253 31.7284 69.3711 31.4636 69.4758C31.2017 69.578 30.9025 69.6288 30.5661 69.6288ZM33.0808 68.3111H33.9949C34.0115 68.5011 34.0983 68.6468 34.2555 68.749C34.4154 68.8505 34.6236 68.9032 34.8801 68.9058C35.1365 68.9032 35.3557 68.8466 35.5377 68.7366C35.7196 68.6267 35.812 68.4516 35.8148 68.2121C35.8148 68.0742 35.7789 67.9532 35.7073 67.8484C35.6383 67.7436 35.5404 67.6623 35.4136 67.605C35.2895 67.5439 35.1434 67.5152 34.9752 67.5178H34.2224V66.8118H34.9752C35.2261 66.8118 35.4149 66.7552 35.5418 66.6426C35.6687 66.5268 35.7321 66.381 35.7321 66.2047C35.7321 66.0147 35.6645 65.8618 35.5294 65.7459C35.3943 65.6301 35.2054 65.5741 34.9627 65.5767C34.7229 65.5741 34.5215 65.6275 34.3589 65.7375C34.1962 65.8448 34.1107 65.9841 34.1024 66.1552H33.1925C33.198 65.8988 33.2752 65.6731 33.4241 65.4778C33.5758 65.282 33.7812 65.1304 34.0404 65.0232C34.2996 64.913 34.5933 64.858 34.9214 64.858C35.2633 64.858 35.5597 64.913 35.8107 65.0232C36.0616 65.1336 36.256 65.2859 36.3938 65.4817C36.5317 65.6743 36.5993 65.8975 36.5966 66.1507C36.5993 66.4045 36.5234 66.612 36.369 66.7747C36.2174 66.9367 36.0202 67.0526 35.7776 67.1215V67.1671C35.9568 67.1808 36.1153 67.2361 36.2532 67.3324C36.3938 67.4261 36.5028 67.5523 36.58 67.7124C36.66 67.8692 36.6999 68.0482 36.6999 68.2492C36.6999 68.5297 36.6213 68.7737 36.4641 68.98C36.3097 69.1869 36.0961 69.3463 35.823 69.4596C35.5501 69.5695 35.2371 69.6262 34.8842 69.6288C34.5423 69.6262 34.2362 69.5708 33.9659 69.4635C33.6985 69.3561 33.4862 69.2045 33.329 69.0093C33.1718 68.8108 33.0891 68.5785 33.0808 68.3111ZM36.642 70.8638V68.7575H37.0143C37.1108 68.669 37.1935 68.5642 37.2624 68.4432C37.3314 68.3195 37.3879 68.1731 37.432 68.0052C37.4789 67.8347 37.5189 67.6376 37.552 67.415C37.585 67.1918 37.614 66.9341 37.6388 66.6426L37.7836 64.9158H40.9229V68.7575H41.6343V70.8638H40.7533V69.5338H37.5354V70.8638H36.642ZM37.9821 68.7575H40.046V65.6841H38.586L38.4867 66.6426C38.4454 67.13 38.3888 67.551 38.3172 67.9063C38.2482 68.259 38.1365 68.5421 37.9821 68.7575Z" fill="#BDBDBD"/>
    <path d="M25.2217 75.6239V83.1989H23.8575V76.7627H20.5434V83.1989H19.1792V75.6239H25.2217ZM30.3072 79.8028V80.9012H27.2885V79.8028H30.3072ZM27.6958 77.5156V83.1989H26.4078V77.5156H27.6958ZM31.193 77.5156V83.1989H29.9051V77.5156H31.193ZM32.1144 85.1459L32.5623 82.0751H33.9368L33.0459 85.1459H32.1144ZM36.7366 84.8511V82.096H37.1846C37.3068 82.0042 37.4086 81.8786 37.49 81.7192C37.5715 81.5565 37.6377 81.3652 37.6886 81.1453C37.7429 80.9214 37.787 80.6722 37.821 80.3976C37.8582 80.123 37.8905 79.8282 37.9177 79.5133L38.0806 77.5156H42.1938V82.096H43.0693V84.8511H41.7763V83.1989H38.0551V84.8511H36.7366ZM38.5642 82.096H40.9109V78.5984H39.2463L39.1547 79.5133C39.1071 80.1132 39.041 80.6279 38.9561 81.0587C38.8747 81.4856 38.744 81.8311 38.5642 82.096ZM46.2051 83.3109C45.635 83.3109 45.1429 83.1924 44.7289 82.9549C44.3148 82.7141 43.9958 82.3751 43.7719 81.9378C43.5512 81.5012 43.441 80.9858 43.441 80.3924C43.441 79.8061 43.5512 79.2927 43.7719 78.8521C43.9924 78.4083 44.303 78.0628 44.7034 77.8149C45.1039 77.5676 45.5756 77.444 46.1186 77.444C46.4682 77.444 46.799 77.4999 47.1113 77.6119C47.4269 77.7238 47.7051 77.8962 47.9461 78.1305C48.1905 78.3641 48.3822 78.6628 48.5213 79.0252C48.6605 79.3844 48.73 79.8132 48.73 80.311V80.7282H44.0671V79.8282H48.0632L47.4371 80.0924C47.4371 79.7709 47.3878 79.4911 47.2894 79.2536C47.191 79.0135 47.0451 78.8255 46.8516 78.6895C46.6582 78.5541 46.4173 78.4864 46.1288 78.4864C45.8403 78.4864 45.5942 78.5541 45.3906 78.6895C45.187 78.8255 45.0326 79.0083 44.9274 79.2387C44.8222 79.4658 44.7696 79.7202 44.7696 80.0013V80.6266C44.7696 80.9722 44.829 81.2689 44.9478 81.5162C45.07 81.7602 45.2396 81.9463 45.4568 82.0751C45.6774 82.204 45.9337 82.2684 46.2255 82.2684C46.4156 82.2684 46.5886 82.2417 46.7448 82.1871C46.9043 82.1331 47.04 82.0517 47.152 81.943C47.2674 81.8311 47.3556 81.6938 47.4167 81.5311L48.669 81.6789C48.5875 82.0075 48.4365 82.2957 48.2159 82.543C47.9987 82.787 47.7188 82.977 47.376 83.1124C47.0366 83.2445 46.6463 83.3109 46.2051 83.3109ZM49.458 83.1989V77.5156H50.7968V79.8132H51.2855L53.0011 77.5156H54.6097L52.5073 80.311L54.6301 83.1989H53.0113L51.4484 81.0535H50.7968V83.1989H49.458ZM56.6358 83.3161C56.2727 83.3161 55.9469 83.2516 55.6584 83.1228C55.3699 82.9907 55.1425 82.7974 54.9762 82.543C54.81 82.2886 54.7268 81.9756 54.7268 81.6027C54.7268 81.2839 54.7862 81.0197 54.905 80.8095C55.0237 80.5993 55.185 80.4314 55.3886 80.3065C55.5956 80.1809 55.8281 80.0859 56.086 80.0215C56.3439 79.9538 56.6103 79.9063 56.8852 79.879C57.2212 79.8419 57.4927 79.81 57.6997 79.7827C57.9067 79.7553 58.056 79.7117 58.1477 79.6506C58.2427 79.5894 58.2902 79.4944 58.2902 79.3656V79.3402C58.2902 79.0656 58.2087 78.8521 58.0458 78.6999C57.8829 78.5469 57.6454 78.4708 57.3332 78.4708C57.004 78.4708 56.7427 78.5424 56.5492 78.6842C56.3592 78.8268 56.2302 78.9946 56.1623 79.1879L54.9151 79.0096C55.0136 78.6641 55.1765 78.3758 55.4038 78.1455C55.6312 77.9118 55.9078 77.7375 56.2336 77.6223C56.5628 77.5032 56.9259 77.444 57.323 77.444C57.5945 77.444 57.866 77.4765 58.1375 77.5409C58.409 77.6015 58.6584 77.7069 58.8858 77.8559C59.1132 78.0049 59.2948 78.2047 59.4305 78.4558C59.5663 78.7064 59.6341 79.02 59.6341 79.3961V83.1989H58.3462V82.4161H58.3055C58.2241 82.5716 58.1087 82.7193 57.9593 82.858C57.8134 82.994 57.6301 83.1039 57.4096 83.1885C57.1923 83.2738 56.9344 83.3161 56.6358 83.3161ZM56.9768 82.3296C57.2484 82.3296 57.4825 82.2769 57.6793 82.1721C57.8762 82.0634 58.0289 81.9209 58.1375 81.7452C58.2461 81.5656 58.3004 81.3704 58.3004 81.1602V80.4945C58.2562 80.5284 58.185 80.5603 58.0866 80.5909C57.9882 80.6182 57.8762 80.6436 57.7506 80.667C57.625 80.6911 57.5012 80.7112 57.379 80.7282C57.2602 80.7451 57.1567 80.7587 57.0685 80.7691C56.8682 80.7958 56.6884 80.842 56.5289 80.9058C56.3727 80.967 56.2489 81.0516 56.1573 81.1602C56.0656 81.2689 56.0198 81.4095 56.0198 81.5825C56.0198 81.8298 56.1098 82.0159 56.2896 82.1415C56.4694 82.2671 56.6985 82.3296 56.9768 82.3296ZM65.1727 75.4209L65.6464 76.2798C65.4796 76.4256 65.2932 76.531 65.0861 76.5948C64.8825 76.6592 64.6416 76.7022 64.3633 76.7223C64.0884 76.7393 63.7626 76.751 63.3859 76.7575C62.9617 76.7679 62.6155 76.8479 62.3474 76.9969C62.0793 77.1459 61.8723 77.3731 61.7264 77.6782C61.5838 77.9828 61.4922 78.3726 61.4515 78.8469H61.5125C61.689 78.4981 61.9368 78.232 62.2558 78.0491C62.5782 77.8663 62.9549 77.7745 63.3859 77.7745C63.8576 77.7745 64.2733 77.8793 64.6331 78.0895C64.9962 78.2997 65.2795 78.6049 65.4835 79.0051C65.69 79.4046 65.7923 79.8894 65.7884 80.4588C65.7923 81.0418 65.6835 81.5468 65.4626 81.9736C65.2424 82.4005 64.93 82.7311 64.5262 82.9653C64.1223 83.1957 63.6455 83.3109 63.0957 83.3109C62.2643 83.3109 61.6042 83.0415 61.1155 82.5027C60.6302 81.96 60.3859 81.1687 60.3825 80.1282V79.6252C60.3859 78.286 60.6353 77.2898 61.1308 76.6358C61.6296 75.9786 62.3694 75.6408 63.3502 75.6239C63.6421 75.6174 63.9034 75.6155 64.1342 75.6187C64.365 75.6226 64.5669 75.6122 64.74 75.5888C64.9131 75.5615 65.0573 75.5055 65.1727 75.4209ZM63.1008 82.243C63.3757 82.2398 63.6116 82.1688 63.8084 82.0296C64.0087 81.8871 64.163 81.6854 64.2716 81.4244C64.3803 81.1635 64.4329 80.8537 64.4295 80.4945C64.4329 80.1419 64.3803 79.8419 64.2716 79.5946C64.163 79.3434 64.0087 79.1541 63.8084 79.0252C63.6082 78.8964 63.3672 78.832 63.0855 78.832C62.8785 78.832 62.6936 78.8691 62.5307 78.9439C62.3678 79.0148 62.2269 79.1215 62.1082 79.264C61.9928 79.4065 61.9045 79.5809 61.8434 79.7879C61.7824 79.9941 61.7501 80.2297 61.7467 80.4945C61.7433 81.0262 61.8621 81.4498 62.1031 81.7654C62.344 82.0803 62.6766 82.2398 63.1008 82.243ZM66.5319 85.3242V77.5156H67.8455V78.4558H67.927C67.9947 78.3205 68.0912 78.1747 68.2169 78.0186C68.3427 77.8591 68.5121 77.7238 68.7258 77.6119C68.9428 77.4999 69.2197 77.444 69.556 77.444C69.9932 77.444 70.3887 77.5559 70.7419 77.7798C71.095 78.0036 71.3746 78.3322 71.5818 78.7656C71.7922 79.1996 71.8971 79.7332 71.8971 80.367C71.8971 80.991 71.7955 81.5214 71.5922 81.9587C71.3882 82.3959 71.1081 82.7298 70.7523 82.9601C70.3991 83.1872 69.9984 83.3004 69.5507 83.3004C69.2282 83.3004 68.9584 83.2464 68.7415 83.1378C68.5271 83.0258 68.3544 82.8937 68.2221 82.7415C68.0931 82.5853 67.9947 82.4382 67.927 82.299H67.8709V85.3242H66.5319ZM69.1839 82.2027C69.4791 82.2027 69.7254 82.1226 69.9222 81.9632C70.1222 81.8044 70.2734 81.5858 70.375 81.3079C70.4773 81.0301 70.5281 80.7145 70.5281 80.3624C70.5281 80.0098 70.4773 79.6961 70.375 79.4215C70.2734 79.1469 70.1242 78.9322 69.9274 78.776C69.7306 78.6198 69.483 78.5424 69.1839 78.5424C68.8959 78.5424 68.6515 78.6166 68.4509 78.7656C68.2541 78.9153 68.1029 79.1267 67.998 79.4013C67.8963 79.6727 67.8455 79.9928 67.8455 80.3624C67.8455 80.7282 67.8963 81.0503 67.998 81.3281C68.1029 81.6027 68.256 81.8181 68.4561 81.9736C68.6561 82.1259 68.8992 82.2027 69.1839 82.2027ZM73.5515 79.3708H75.2268C75.9494 79.3675 76.5091 79.5438 76.9066 79.8998C77.3067 80.2518 77.5074 80.7132 77.5074 81.2826C77.5074 81.6554 77.4175 81.9853 77.2376 82.2736C77.0578 82.5619 76.7978 82.789 76.4583 82.9549C76.1188 83.1176 75.7083 83.1989 75.2268 83.1989H72.6406V77.5156H73.9288V82.1005H75.2268C75.5148 82.1005 75.7526 82.0276 75.939 81.8819C76.1293 81.7329 76.2244 81.5396 76.2244 81.3027C76.2244 81.0555 76.1293 80.8537 75.939 80.6976C75.7526 80.542 75.5148 80.4653 75.2268 80.4692H73.5515V79.3708ZM78.1844 85.1459L78.632 82.0751H80.0069L79.1155 85.1459H78.1844ZM83.158 81.796V80.7028L86.3802 75.6239H87.2865V77.1798H86.7314L84.5629 80.6065V80.667H89.0576V81.796H83.158ZM86.7718 83.1989V81.4654L86.7926 80.9722V75.6239H88.0854V83.1989H86.7718Z" fill="#6F00FF"/>
    <path d="M155.974 69.5337V63.3792H158.237C158.673 63.3792 159.034 63.4508 159.32 63.5939C159.607 63.7372 159.821 63.9313 159.961 64.1763C160.105 64.4187 160.177 64.6913 160.177 64.9942C160.177 65.25 160.128 65.4667 160.032 65.6424C159.938 65.8188 159.813 65.9593 159.655 66.0641C159.498 66.1688 159.325 66.2456 159.135 66.2951V66.353C159.341 66.3641 159.543 66.4304 159.738 66.5515C159.934 66.6725 160.095 66.8449 160.222 67.0675C160.352 67.2881 160.416 67.5581 160.416 67.8776C160.416 68.1913 160.342 68.4737 160.193 68.7242C160.047 68.9721 159.821 69.1687 159.515 69.3151C159.209 69.4608 158.816 69.5337 158.336 69.5337H155.974ZM156.905 68.7405H158.245C158.692 68.7405 159.011 68.6539 159.205 68.4802C159.398 68.3071 159.494 68.0904 159.494 67.8321C159.494 67.6362 159.445 67.4586 159.345 67.2991C159.249 67.1365 159.11 67.007 158.927 66.9107C158.746 66.8143 158.531 66.7662 158.282 66.7662H156.905V68.7405ZM156.905 66.0432H158.154C158.361 66.0432 158.548 66.0036 158.717 65.9235C158.885 65.8435 159.017 65.7309 159.114 65.5851C159.213 65.4361 159.262 65.2643 159.262 65.0685C159.262 64.8152 159.173 64.6031 158.994 64.4325C158.817 64.259 158.546 64.1722 158.179 64.1722H156.905V66.0432ZM161.769 66.5098H163.113C163.676 66.5072 164.109 66.6465 164.412 66.9276C164.718 67.208 164.873 67.5705 164.875 68.0136C164.875 68.3025 164.806 68.5615 164.669 68.7899C164.53 69.019 164.33 69.2005 164.068 69.3352C163.807 69.4673 163.489 69.5337 163.113 69.5337H161.095V64.9158H161.968V68.7574H163.113C163.37 68.7574 163.58 68.691 163.746 68.5589C163.911 68.4242 163.996 68.2505 163.999 68.0384C163.996 67.8152 163.911 67.6336 163.746 67.4931C163.58 67.3525 163.37 67.2842 163.113 67.2868H161.769V66.5098ZM165.533 69.5337V64.9158H166.427V69.5337H165.533ZM169.272 69.6287C168.82 69.6287 168.428 69.5311 168.097 69.3352C167.766 69.14 167.512 68.8648 167.332 68.5095C167.156 68.1516 167.067 67.7338 167.067 67.2575C167.067 66.7844 167.154 66.3667 167.328 66.0062C167.504 65.6457 167.751 65.3646 168.069 65.1635C168.388 64.9598 168.763 64.8579 169.193 64.8579C169.455 64.8579 169.709 64.9006 169.954 64.986C170.2 65.0713 170.42 65.2064 170.616 65.3906C170.812 65.5754 170.966 65.8149 171.08 66.1096C171.195 66.4044 171.253 66.759 171.253 67.1749V67.4976H167.576V66.8241H170.79L170.372 67.0473C170.372 66.7636 170.328 66.5131 170.24 66.2951C170.152 66.0777 170.02 65.9086 169.843 65.7875C169.669 65.6632 169.453 65.6014 169.193 65.6014C168.934 65.6014 168.712 65.6632 168.527 65.7875C168.346 65.9112 168.206 66.0751 168.11 66.2788C168.013 66.4825 167.965 66.7057 167.965 66.9478V67.4065C167.965 67.7234 168.02 67.9915 168.131 68.2121C168.241 68.432 168.394 68.5999 168.589 68.7157C168.788 68.8316 169.018 68.8895 169.28 68.8895C169.451 68.8895 169.606 68.8648 169.743 68.8147C169.884 68.7652 170.005 68.691 170.107 68.5921C170.21 68.4926 170.287 68.3702 170.339 68.2245L171.191 68.3852C171.122 68.6331 171.001 68.8504 170.827 69.0379C170.654 69.2253 170.434 69.371 170.169 69.4758C169.907 69.5779 169.608 69.6287 169.272 69.6287ZM171.787 68.311H172.701C172.717 68.501 172.804 68.6468 172.961 68.7489C173.121 68.8504 173.33 68.9032 173.586 68.9058C173.842 68.9032 174.061 68.8465 174.244 68.7366C174.426 68.6266 174.518 68.4516 174.521 68.2121C174.521 68.0741 174.485 67.9531 174.413 67.8483C174.344 67.7436 174.246 67.6622 174.119 67.605C173.996 67.5438 173.85 67.5152 173.681 67.5178H172.928V66.8118H173.681C173.932 66.8118 174.121 66.7551 174.248 66.6426C174.375 66.5267 174.438 66.381 174.438 66.2046C174.438 66.0146 174.37 65.8617 174.235 65.7459C174.1 65.63 173.912 65.5741 173.668 65.5767C173.429 65.5741 173.227 65.6274 173.065 65.7374C172.902 65.8448 172.817 65.984 172.808 66.1552H171.899C171.904 65.8988 171.981 65.673 172.13 65.4778C172.282 65.2819 172.487 65.1303 172.746 65.0231C173.006 64.913 173.299 64.8579 173.627 64.8579C173.969 64.8579 174.265 64.913 174.517 65.0231C174.768 65.1335 174.962 65.2858 175.1 65.4817C175.237 65.6743 175.305 65.8975 175.303 66.1506C175.305 66.4044 175.23 66.612 175.075 66.7747C174.923 66.9367 174.726 67.0525 174.484 67.1215V67.167C174.663 67.1807 174.821 67.236 174.959 67.3323C175.1 67.426 175.209 67.5523 175.286 67.7123C175.366 67.8692 175.406 68.0481 175.406 68.2492C175.406 68.5296 175.327 68.7737 175.17 68.9799C175.016 69.1869 174.802 69.3463 174.529 69.4595C174.256 69.5695 173.943 69.6261 173.59 69.6287C173.248 69.6261 172.942 69.5708 172.672 69.4634C172.404 69.3561 172.192 69.2044 172.035 69.0092C171.878 68.8108 171.795 68.5784 171.787 68.311ZM175.348 70.8638V68.7574H175.72C175.817 68.6689 175.9 68.5641 175.969 68.4431C176.037 68.3195 176.094 68.1731 176.138 68.0052C176.185 67.8347 176.225 67.6375 176.258 67.415C176.291 67.1918 176.32 66.9341 176.345 66.6426L176.489 64.9158H179.629V68.7574H180.34V70.8638H179.459V69.5337H176.242V70.8638H175.348ZM176.688 68.7574H178.752V65.6841H177.292L177.193 66.6426C177.151 67.13 177.095 67.551 177.023 67.9063C176.954 68.2589 176.842 68.542 176.688 68.7574Z" fill="#BDBDBD"/>
    <path d="M159.115 83.3004C158.449 83.3004 157.854 83.1462 157.328 82.8378C156.805 82.5293 156.393 82.0855 156.09 81.5058C155.792 80.9266 155.643 80.2297 155.643 79.4163C155.643 78.5997 155.794 77.9014 156.096 77.3223C156.401 76.7393 156.815 76.2935 157.338 75.9851C157.864 75.6766 158.456 75.5224 159.115 75.5224C159.532 75.5224 159.922 75.5816 160.285 75.7001C160.652 75.8191 160.977 75.9935 161.263 76.2239C161.548 76.451 161.78 76.7308 161.96 77.0627C162.143 77.3913 162.264 77.7661 162.322 78.1864H160.937C160.899 77.9561 160.826 77.7524 160.718 77.5761C160.613 77.3997 160.48 77.2507 160.321 77.129C160.165 77.0034 159.986 76.9104 159.786 76.8492C159.586 76.7848 159.371 76.7529 159.14 76.7529C158.726 76.7529 158.359 76.8564 158.04 77.0627C157.721 77.2663 157.472 77.5676 157.292 77.9678C157.112 78.3641 157.022 78.8469 157.022 79.4163C157.022 79.9928 157.112 80.4789 157.292 80.8759C157.475 81.2689 157.725 81.5669 158.04 81.7706C158.359 81.9704 158.724 82.0706 159.135 82.0706C159.362 82.0706 159.575 82.0413 159.771 81.984C159.968 81.9229 160.146 81.8331 160.306 81.7146C160.469 81.5923 160.603 81.4465 160.708 81.2774C160.816 81.1043 160.893 80.9058 160.937 80.6826H162.322C162.271 81.0451 162.159 81.3854 161.985 81.7042C161.816 82.0192 161.592 82.2977 161.314 82.5378C161.039 82.7753 160.716 82.9614 160.347 83.0974C159.977 83.2328 159.566 83.3004 159.115 83.3004ZM163.146 85.3242V77.5156H164.46V78.4558H164.541C164.609 78.3205 164.706 78.1747 164.831 78.0186C164.957 77.8591 165.126 77.7238 165.341 77.6119C165.557 77.4999 165.834 77.444 166.17 77.444C166.608 77.444 167.003 77.5559 167.356 77.7798C167.709 78.0036 167.989 78.3322 168.196 78.7656C168.406 79.1996 168.512 79.7332 168.512 80.367C168.512 80.991 168.41 81.5214 168.206 81.9587C168.003 82.3959 167.723 82.7298 167.366 82.9601C167.013 83.1872 166.613 83.3004 166.165 83.3004C165.842 83.3004 165.572 83.2464 165.356 83.1378C165.142 83.0258 164.968 82.8937 164.836 82.7415C164.707 82.5853 164.609 82.4382 164.541 82.299H164.485V85.3242H163.146ZM165.799 82.2027C166.094 82.2027 166.339 82.1226 166.537 81.9632C166.737 81.8044 166.888 81.5858 166.99 81.3079C167.091 81.0301 167.142 80.7145 167.142 80.3624C167.142 80.0098 167.091 79.6961 166.99 79.4215C166.888 79.1469 166.738 78.9322 166.541 78.776C166.345 78.6198 166.097 78.5424 165.799 78.5424C165.51 78.5424 165.266 78.6166 165.066 78.7656C164.869 78.9153 164.718 79.1267 164.612 79.4013C164.51 79.6727 164.46 79.9928 164.46 80.3624C164.46 80.7282 164.51 81.0503 164.612 81.3281C164.718 81.6027 164.87 81.8181 165.071 81.9736C165.271 82.1259 165.513 82.2027 165.799 82.2027ZM169.189 85.1459L169.636 82.0751H171.011L170.121 85.1459H169.189ZM173.811 84.8511V82.096H174.259C174.381 82.0042 174.483 81.8786 174.565 81.7192C174.646 81.5565 174.712 81.3652 174.763 81.1453C174.817 80.9214 174.862 80.6722 174.896 80.3976C174.933 80.123 174.965 79.8282 174.992 79.5133L175.155 77.5156H179.268V82.096H180.143V84.8511H178.851V83.1989H175.129V84.8511H173.811ZM175.638 82.096H177.985V78.5984H176.321L176.229 79.5133C176.182 80.1132 176.115 80.6279 176.031 81.0587C175.949 81.4856 175.818 81.8311 175.638 82.096ZM183.28 83.3109C182.709 83.3109 182.217 83.1924 181.803 82.9549C181.389 82.7141 181.07 82.3751 180.846 81.9378C180.626 81.5012 180.516 80.9858 180.516 80.3924C180.516 79.8061 180.626 79.2927 180.846 78.8521C181.067 78.4083 181.378 78.0628 181.778 77.8149C182.178 77.5676 182.65 77.444 183.193 77.444C183.542 77.444 183.873 77.4999 184.185 77.6119C184.501 77.7238 184.78 77.8962 185.021 78.1305C185.265 78.3641 185.457 78.6628 185.596 79.0252C185.735 79.3844 185.805 79.8132 185.805 80.311V80.7282H181.142V79.8282H185.137L184.511 80.0924C184.511 79.7709 184.462 79.4911 184.364 79.2536C184.265 79.0135 184.12 78.8255 183.926 78.6895C183.732 78.5541 183.491 78.4864 183.203 78.4864C182.915 78.4864 182.668 78.5541 182.465 78.6895C182.261 78.8255 182.107 79.0083 182.002 79.2387C181.896 79.4658 181.844 79.7202 181.844 80.0013V80.6266C181.844 80.9722 181.903 81.2689 182.022 81.5162C182.145 81.7602 182.314 81.9463 182.531 82.0751C182.752 82.204 183.008 82.2684 183.3 82.2684C183.49 82.2684 183.663 82.2417 183.819 82.1871C183.979 82.1331 184.114 82.0517 184.226 81.943C184.342 81.8311 184.43 81.6938 184.491 81.5311L185.743 81.6789C185.662 82.0075 185.511 82.2957 185.29 82.543C185.073 82.787 184.793 82.977 184.451 83.1124C184.111 83.2445 183.721 83.3109 183.28 83.3109ZM186.532 83.1989V77.5156H187.871V79.8132H188.36L190.076 77.5156H191.684L189.582 80.311L191.705 83.1989H190.086L188.523 81.0535H187.871V83.1989H186.532ZM193.71 83.3161C193.347 83.3161 193.021 83.2516 192.733 83.1228C192.444 82.9907 192.217 82.7974 192.051 82.543C191.885 82.2886 191.801 81.9756 191.801 81.6027C191.801 81.2839 191.86 81.0197 191.979 80.8095C192.098 80.5993 192.259 80.4314 192.463 80.3065C192.67 80.1809 192.902 80.0859 193.16 80.0215C193.418 79.9538 193.685 79.9063 193.959 79.879C194.295 79.8419 194.567 79.81 194.774 79.7827C194.981 79.7553 195.13 79.7117 195.222 79.6506C195.317 79.5894 195.365 79.4944 195.365 79.3656V79.3402C195.365 79.0656 195.283 78.8521 195.12 78.6999C194.958 78.5469 194.72 78.4708 194.408 78.4708C194.078 78.4708 193.817 78.5424 193.624 78.6842C193.433 78.8268 193.304 78.9946 193.237 79.1879L191.989 79.0096C192.088 78.6641 192.251 78.3758 192.478 78.1455C192.706 77.9118 192.982 77.7375 193.308 77.6223C193.637 77.5032 194 77.444 194.397 77.444C194.669 77.444 194.941 77.4765 195.212 77.5409C195.483 77.6015 195.733 77.7069 195.96 77.8559C196.188 78.0049 196.369 78.2047 196.505 78.4558C196.641 78.7064 196.708 79.02 196.708 79.3961V83.1989H195.421V82.4161H195.38C195.298 82.5716 195.183 82.7193 195.034 82.858C194.888 82.994 194.705 83.1039 194.484 83.1885C194.267 83.2738 194.009 83.3161 193.71 83.3161ZM194.051 82.3296C194.323 82.3296 194.557 82.2769 194.754 82.1721C194.95 82.0634 195.103 81.9209 195.212 81.7452C195.32 81.5656 195.375 81.3704 195.375 81.1602V80.4945C195.331 80.5284 195.259 80.5603 195.161 80.5909C195.062 80.6182 194.95 80.6436 194.825 80.667C194.699 80.6911 194.576 80.7112 194.453 80.7282C194.335 80.7451 194.231 80.7587 194.143 80.7691C193.942 80.7958 193.762 80.842 193.603 80.9058C193.447 80.967 193.323 81.0516 193.231 81.1602C193.14 81.2689 193.094 81.4095 193.094 81.5825C193.094 81.8298 193.184 82.0159 193.364 82.1415C193.544 82.2671 193.773 82.3296 194.051 82.3296ZM202.247 75.4209L202.721 76.2798C202.554 76.4256 202.367 76.531 202.16 76.5948C201.957 76.6592 201.716 76.7022 201.438 76.7223C201.163 76.7393 200.837 76.751 200.46 76.7575C200.036 76.7679 199.69 76.8479 199.422 76.9969C199.154 77.1459 198.947 77.3731 198.801 77.6782C198.658 77.9828 198.567 78.3726 198.526 78.8469H198.587C198.763 78.4981 199.011 78.232 199.33 78.0491C199.652 77.8663 200.03 77.7745 200.46 77.7745C200.932 77.7745 201.348 77.8793 201.707 78.0895C202.07 78.2997 202.354 78.6049 202.558 79.0051C202.764 79.4046 202.867 79.8894 202.863 80.4588C202.867 81.0418 202.758 81.5468 202.538 81.9736C202.317 82.4005 202.005 82.7311 201.601 82.9653C201.197 83.1957 200.72 83.3109 200.17 83.3109C199.339 83.3109 198.679 83.0415 198.19 82.5027C197.705 81.96 197.46 81.1687 197.457 80.1282V79.6252C197.46 78.286 197.71 77.2898 198.205 76.6358C198.704 75.9786 199.444 75.6408 200.424 75.6239C200.716 75.6174 200.978 75.6155 201.208 75.6187C201.44 75.6226 201.642 75.6122 201.814 75.5888C201.988 75.5615 202.132 75.5055 202.247 75.4209ZM200.175 82.243C200.45 82.2398 200.686 82.1688 200.882 82.0296C201.083 81.8871 201.238 81.6854 201.346 81.4244C201.455 81.1635 201.507 80.8537 201.504 80.4945C201.507 80.1419 201.455 79.8419 201.346 79.5946C201.238 79.3434 201.083 79.1541 200.882 79.0252C200.682 78.8964 200.441 78.832 200.16 78.832C199.953 78.832 199.768 78.8691 199.605 78.9439C199.442 79.0148 199.301 79.1215 199.182 79.264C199.067 79.4065 198.979 79.5809 198.918 79.7879C198.857 79.9941 198.825 80.2297 198.821 80.4945C198.818 81.0262 198.936 81.4498 199.177 81.7654C199.418 82.0803 199.751 82.2398 200.175 82.243ZM203.606 85.3242V77.5156H204.92V78.4558H205.001C205.069 78.3205 205.165 78.1747 205.291 78.0186C205.417 77.8591 205.586 77.7238 205.8 77.6119C206.018 77.4999 206.294 77.444 206.63 77.444C207.068 77.444 207.463 77.5559 207.816 77.7798C208.169 78.0036 208.449 78.3322 208.656 78.7656C208.866 79.1996 208.972 79.7332 208.972 80.367C208.972 80.991 208.87 81.5214 208.666 81.9587C208.462 82.3959 208.183 82.7298 207.827 82.9601C207.473 83.1872 207.073 83.3004 206.625 83.3004C206.302 83.3004 206.033 83.2464 205.816 83.1378C205.602 83.0258 205.429 82.8937 205.296 82.7415C205.167 82.5853 205.069 82.4382 205.001 82.299H204.945V85.3242H203.606ZM206.258 82.2027C206.554 82.2027 206.8 82.1226 206.996 81.9632C207.197 81.8044 207.348 81.5858 207.45 81.3079C207.552 81.0301 207.602 80.7145 207.602 80.3624C207.602 80.0098 207.552 79.6961 207.45 79.4215C207.348 79.1469 207.198 78.9322 207.002 78.776C206.805 78.6198 206.557 78.5424 206.258 78.5424C205.97 78.5424 205.726 78.6166 205.525 78.7656C205.328 78.9153 205.178 79.1267 205.072 79.4013C204.971 79.6727 204.92 79.9928 204.92 80.3624C204.92 80.7282 204.971 81.0503 205.072 81.3281C205.178 81.6027 205.33 81.8181 205.53 81.9736C205.731 82.1259 205.973 82.2027 206.258 82.2027ZM210.626 79.3708H212.301C213.024 79.3675 213.584 79.5438 213.981 79.8998C214.382 80.2518 214.582 80.7132 214.582 81.2826C214.582 81.6554 214.492 81.9853 214.312 82.2736C214.132 82.5619 213.872 82.789 213.533 82.9549C213.194 83.1176 212.783 83.1989 212.301 83.1989H209.715V77.5156H211.003V82.1005H212.301C212.59 82.1005 212.827 82.0276 213.014 81.8819C213.203 81.7329 213.299 81.5396 213.299 81.3027C213.299 81.0555 213.203 80.8537 213.014 80.6976C212.827 80.542 212.59 80.4653 212.301 80.4692H210.626V79.3708ZM215.259 85.1459L215.706 82.0751H217.081L216.19 85.1459H215.259ZM223.149 83.3004C222.786 83.3004 222.431 83.2393 222.085 83.1176C221.739 82.992 221.429 82.789 221.154 82.5072C220.879 82.2228 220.66 81.8448 220.497 81.3737C220.334 80.9025 220.252 80.3195 220.252 79.6252C220.252 78.9777 220.322 78.4018 220.461 77.8962C220.6 77.388 220.799 76.9579 221.057 76.6052C221.318 76.2525 221.631 75.9851 221.993 75.8022C222.36 75.6155 222.771 75.5224 223.226 75.5224C223.704 75.5224 224.126 75.6174 224.493 75.8074C224.863 75.9935 225.162 76.248 225.389 76.5694C225.616 76.8915 225.757 77.2579 225.811 77.6678H224.462C224.395 77.3763 224.254 77.144 224.04 76.9716C223.826 76.7985 223.555 76.7119 223.226 76.7119C222.702 76.7119 222.299 76.939 222.014 77.3932C221.732 77.8474 221.591 78.4747 221.591 79.2744H221.642C221.764 79.0571 221.921 78.871 222.111 78.7148C222.304 78.5561 222.521 78.4357 222.762 78.3543C223.007 78.2691 223.264 78.2268 223.536 78.2268C223.98 78.2268 224.379 78.3335 224.732 78.5469C225.085 78.7571 225.365 79.0487 225.572 79.4215C225.779 79.7911 225.883 80.2147 225.883 80.6924C225.883 81.1908 225.769 81.6366 225.541 82.0296C225.314 82.4226 224.995 82.733 224.584 82.9601C224.174 83.1872 223.695 83.3004 223.149 83.3004ZM223.139 82.1923C223.41 82.1923 223.651 82.1278 223.862 81.999C224.075 81.8669 224.243 81.6906 224.366 81.4706C224.491 81.2468 224.554 80.9976 224.554 80.7229C224.554 80.4522 224.493 80.2082 224.371 79.9909C224.252 79.7709 224.087 79.5959 223.877 79.4677C223.67 79.3389 223.431 79.2744 223.159 79.2744C222.895 79.2744 222.654 79.3402 222.437 79.4723C222.222 79.6044 222.053 79.7807 221.927 80.0013C221.802 80.2212 221.739 80.464 221.739 80.7282C221.739 80.9923 221.8 81.2364 221.922 81.4602C222.044 81.6808 222.21 81.8584 222.421 81.9938C222.631 82.1259 222.871 82.1923 223.139 82.1923Z" fill="#6F00FF"/>
    <path d="M118.979 73.438H125.06M125.06 73.438L122.019 70.4011M125.06 73.438L122.019 76.4749" stroke="#BDBDBD" stroke-width="1.2" stroke-linecap="round" stroke-linejoin="round"/>
</svg>
