<svg width="17" height="18" viewBox="0 0 17 18" fill="none" xmlns="http://www.w3.org/2000/svg">
<path d="M3.91667 4.41667H3.925M13.0833 4.41667H13.0917M3.91667 13.5833H3.925M9.33333 9.83333H9.34167M13.0833 13.5833H13.0917M12.6667 16.5H16V13.1667M10.1667 12.75V16.5M16 10.6667H12.25M11.5 7.33333H14.6667C15.1334 7.33333 15.3667 7.33333 15.545 7.24251C15.7018 7.16261 15.8293 7.03513 15.9092 6.87833C16 6.70007 16 6.46671 16 6V2.83333C16 2.36662 16 2.13327 15.9092 1.95501C15.8293 1.79821 15.7018 1.67072 15.545 1.59083C15.3667 1.5 15.1334 1.5 14.6667 1.5H11.5C11.0333 1.5 10.7999 1.5 10.6217 1.59083C10.4649 1.67072 10.3374 1.79821 10.2575 1.95501C10.1667 2.13327 10.1667 2.36662 10.1667 2.83333V6C10.1667 6.46671 10.1667 6.70007 10.2575 6.87833C10.3374 7.03513 10.4649 7.16261 10.6217 7.24251C10.7999 7.33333 11.0333 7.33333 11.5 7.33333ZM2.33333 7.33333H5.5C5.96671 7.33333 6.20007 7.33333 6.37833 7.24251C6.53513 7.16261 6.66261 7.03513 6.74251 6.87833C6.83333 6.70007 6.83333 6.46671 6.83333 6V2.83333C6.83333 2.36662 6.83333 2.13327 6.74251 1.95501C6.66261 1.79821 6.53513 1.67072 6.37833 1.59083C6.20007 1.5 5.96671 1.5 5.5 1.5H2.33333C1.86662 1.5 1.63327 1.5 1.45501 1.59083C1.29821 1.67072 1.17072 1.79821 1.09083 1.95501C1 2.13327 1 2.36662 1 2.83333V6C1 6.46671 1 6.70007 1.09083 6.87833C1.17072 7.03513 1.29821 7.16261 1.45501 7.24251C1.63327 7.33333 1.86662 7.33333 2.33333 7.33333ZM2.33333 16.5H5.5C5.96671 16.5 6.20007 16.5 6.37833 16.4092C6.53513 16.3293 6.66261 16.2018 6.74251 16.045C6.83333 15.8667 6.83333 15.6334 6.83333 15.1667V12C6.83333 11.5333 6.83333 11.2999 6.74251 11.1217C6.66261 10.9649 6.53513 10.8374 6.37833 10.7575C6.20007 10.6667 5.96671 10.6667 5.5 10.6667H2.33333C1.86662 10.6667 1.63327 10.6667 1.45501 10.7575C1.29821 10.8374 1.17072 10.9649 1.09083 11.1217C1 11.2999 1 11.5333 1 12V15.1667C1 15.6334 1 15.8667 1.09083 16.045C1.17072 16.2018 1.29821 16.3293 1.45501 16.4092C1.63327 16.5 1.86662 16.5 2.33333 16.5Z" stroke="#BDBDBD" stroke-width="1.6" stroke-linecap="round" stroke-linejoin="round"/>
</svg>
