<svg width="20" height="20" viewBox="0 0 20 20" fill="none" xmlns="http://www.w3.org/2000/svg">
    <path d="M10.0078 20.0156C15.5349 20.0156 20.0156 15.5349 20.0156 10.0078C20.0156 4.48064 15.5349 0 10.0078 0C4.48064 0 0 4.48064 0 10.0078C0 15.5349 4.48064 20.0156 10.0078 20.0156Z" fill="url(#paint0_linear_1_6)"/>
    <path fill-rule="evenodd" clip-rule="evenodd" d="M4.52057 9.89862C7.43562 8.62036 9.38417 7.79418 10.3662 7.38888C13.141 6.23533 13.7178 6.03268 14.0919 6.01709C14.1698 6.01709 14.3569 6.03268 14.4816 6.12621C14.5751 6.20415 14.6063 6.31327 14.6219 6.39121C14.6375 6.46916 14.6531 6.64063 14.6375 6.78092C14.4816 8.35536 13.8425 12.2057 13.4995 13.9672C13.3592 14.7155 13.0786 14.9649 12.8136 14.996C12.2369 15.0428 11.7848 14.6063 11.2236 14.2478C10.3507 13.671 9.85183 13.3125 8.99446 12.7513C8.01239 12.0966 8.65152 11.7381 9.2127 11.1613C9.353 11.0054 11.9251 8.68272 11.9719 8.46448C11.9719 8.4333 11.9874 8.33977 11.9251 8.29301C11.8627 8.24624 11.7848 8.26183 11.7224 8.27742C11.6289 8.29301 10.226 9.22831 7.49797 11.0678C7.09267 11.3483 6.73414 11.4731 6.40678 11.4731C6.04824 11.4731 5.36235 11.2704 4.84793 11.0989C4.22439 10.8963 3.72556 10.7872 3.77233 10.4442C3.8035 10.2727 4.05292 10.0857 4.52057 9.89862Z" fill="white"/>
    <defs>
        <linearGradient id="paint0_linear_1_6" x1="0" y1="10.0005" x2="20.0011" y2="10.0005" gradientUnits="userSpaceOnUse">
            <stop stop-color="#2AABEE"/>
            <stop offset="1" stop-color="#229ED9"/>
        </linearGradient>
    </defs>
</svg>
